<svg width="200" height="200" viewBox="0 0 479 479" fill="none" xmlns="http://www.w3.org/2000/svg"><path d="M433 239.5C433 346.367 346.367 433 239.5 433H46V239.5C46 132.633 132.633 46 239.5 46H433z" fill="#BBB"/><path fill-rule="evenodd" clip-rule="evenodd" d="M318.153 224.051c16.317 0 31.829 3.441 45.847 9.636-2.548-55.337-41.291-101.247-93.148-114.694a113 113 0 0 1 4.051 30.085c0 62.486-50.752 113.141-113.358 113.141-16.465 0-32.111-3.504-46.229-9.805 5.352 51.824 42.552 94.219 91.737 107.361a113.4 113.4 0 0 1-2.259-22.583c0-62.486 50.753-113.141 113.359-113.141M115 230.15c13.731 7.686 29.616 12.076 46.545 12.076 52.046 0 94.238-41.5 94.238-92.693 0-12.062-2.342-23.586-6.604-34.156q-4.845-.376-9.785-.377C173.653 115 119.79 165.758 115 230.15m108.915 107.496a91.3 91.3 0 0 0 3.7 25.806q5.818.546 11.779.548c63.246 0 115.499-46.979 123.638-107.881-13.343-7.122-28.631-11.166-44.879-11.166-52.046 0-94.238 41.5-94.238 92.693" fill="#404040"/></svg>