<svg xmlns="http://www.w3.org/2000/svg" width="700" height="700" version="1.2" viewBox="0 0 525 525"><g style="fill:#02192b"><path d="m734.049 278.478 48.162.036 51.57-39.86h87.565l-12.99 39.86h38.955l12.905-39.86h43.898l32.653-25.287h-68.255L1005.977 98.3h-39.002L818.259 213.367h-58.79l16.216-49.803-97.1 75.088h106.968zm216.76-130.34-21.2 65.23h-63.126zM774.426 388.143h2.992v-9.299h10.537v-2.699H777.42v-6.308h11.492v-2.7h-14.484zm23.733-18.434h5.249v18.43h2.997v-21.013h-8.246zm21.164-3.208c-2.111 0-3.64 1.386-3.64 3.642 0 2.237 1.529 3.643 3.64 3.643 2.092 0 3.642-1.406 3.642-3.643 0-2.256-1.55-3.642-3.642-3.642m0 6.641c-1.71 0-2.983-1.122-2.983-2.999 0-1.89 1.273-3.018 2.983-3.018 1.696 0 2.95 1.129 2.95 3.018 0 1.877-1.254 3-2.95 3"/><path d="M820.937 369.372c0-.803-.526-1.205-1.542-1.205h-1.586v3.954h.872v-1.474h.546l.838 1.474h.948l-.913-1.62c.546-.166.837-.546.837-1.129m-1.508.562h-.748v-1.053h.748c.414 0 .602.2.602.505 0 .348-.188.548-.602.548m21.183-.1h7.263v18.305h2.99v-18.306h7.257v-2.707h-17.51zm27.385 18.309h14.485v-2.707h-11.486v-6.592h10.53v-2.699h-10.53v-6.308h11.486v-2.7h-14.485zm30.735-21.004-7.485 21.008h3.185l1.912-5.511h9.104l1.904 5.512h3.185l-7.512-21.01zm-1.432 12.797 3.593-10.38 3.6 10.379zm34.383 5.938-5.982-18.742h-5.13v21.007h2.997v-18.208l5.823 18.208h4.584l5.884-18.43v18.43h3v-21.005h-5.194zm-253.113-43.87h9.81l5.187-5.848h28.147l5.192 5.849h9.81l-29.072-31.753zm19.969-11.387 9.105-10.25 9.105 10.25zm192.802-19.383h-8.308v30.783h8.308zm69.18 18.984-34.39-19h-8.398v30.783h7.7v-22.737l42.873 23.616v-31.662h-7.781zm-197.633-18.984h-8.315v30.783h37.782l2.326-5.539h-31.795zm240.12 25.24v-7.345h33.733v-5.539h-33.731v-6.82h33.73v-5.54H994.7v30.784h41.6l1.542-5.54zm-155.289-25.24h-35.574v30.783h8.31V331.73h26.871c9.984 0 13.854-4.183 13.854-10.38 0-5.982-4.224-10.116-13.46-10.116m-1.98 14.95h-25.287v-9.41h25.244c5.013 0 6.55 1.536 6.55 4.797 0 2.854-2.152 4.613-6.507 4.613"/><path style="fill:#02192b;stroke-width:1.11764896" d="m1007.857 451.233 30.368.022 32.517-25.133h55.214l-8.19 25.133h24.563l8.138-25.133h27.68l20.588-15.945h-43.038l23.624-72.555h-24.593l-93.773 72.555h-37.07l10.225-31.403-61.226 47.346h67.448zm136.677-82.186-13.368 41.13h-39.803z" transform="translate(-1662.098 -436.642)scale(1.7725)"/><path style="fill:#02192b;stroke-width:1.46134984" d="M937.708 599.925h8.088l4.276-4.823h23.205l4.281 4.823h8.089l-23.97-26.178zm16.463-9.39 7.507-8.448 7.506 8.448zm158.957-15.979h-6.85v25.38h6.85zm57.037 15.651-28.354-15.664h-6.924v25.38h6.348v-18.747l35.347 19.471v-26.104h-6.416zm-162.941-15.651h-6.856v25.38h31.15l1.918-4.567h-26.213zm197.969 20.81v-6.057h27.811v-4.566h-27.81v-5.623h27.81v-4.567h-34.662v25.38h34.297l1.273-4.568zm-128.029-20.81h-29.33v25.38h6.851v-8.483h22.154c8.232 0 11.423-3.448 11.423-8.557 0-4.932-3.483-8.34-11.098-8.34m-1.632 12.324h-20.848v-7.757h20.813c4.132 0 5.4 1.267 5.4 3.955 0 2.352-1.775 3.802-5.366 3.802" transform="translate(-1662.098 -436.642)scale(1.7725)"/></g><path d="m1406.976 484.103-3.762 2.973h13.599l3.761-2.973z" style="fill:#2173b8" transform="translate(-1662.098 -436.642)scale(1.7725)"/><path d="m1420.576 484.103-3.762 2.973h6.344l3.762-2.973z" style="fill:#fffffd" transform="translate(-1662.098 -436.642)scale(1.7725)"/><path d="m1426.926 484.103-3.761 2.973h13.648l3.761-2.973z" style="fill:#e12319" transform="translate(-1662.098 -436.642)scale(1.7725)"/></svg>