<svg xmlns="http://www.w3.org/2000/svg" width="64" height="15" viewBox="0 0 66 15"><path style="stroke:none;fill-rule:nonzero;fill:#00594f;fill-opacity:1" d="M18.059 2.457h29.843v5.05H18.06Zm0 0"/><path style="stroke:none;fill-rule:nonzero;fill:#fff;fill-opacity:1" d="M20.016 5.387h.773l-.398-1.028Zm-.797.992 1.148-2.711h.313l1.148 2.71h-.594l-.254-.687h-1.023l-.277.688Zm2.691-.121-.035-.496c.254.218.531.34.809.34a.7.7 0 0 0 .375-.098.32.32 0 0 0 .058-.434c-.012-.011-.012-.023-.023-.023-.098-.121-.278-.184-.688-.375-.375-.184-.554-.438-.554-.777 0-.22.097-.399.253-.555.336-.317.93-.184.989-.184.12.04.218.063.316.098l.035.473a1.1 1.1 0 0 0-.34-.184c-.375-.121-.77-.035-.77.281 0 .156.095.254.313.375.47.254.711.336.868.555.218.254.218.777-.121 1.031a1.2 1.2 0 0 1-.711.215 3 3 0 0 1-.774-.242m2.586.12V3.985c-.219 0-.473.036-.808.059l.035-.398h2.074l.039.398c-.434-.059-.688-.059-.809-.059v2.36h-.53Zm2.692-.276c.433 0 .808-.34.808-1.09 0-.059 0-.653-.375-.969-.121-.094-.254-.121-.433-.121-.555 0-.81.535-.81 1.09.036.75.411 1.09.81 1.09m0 .34c-.81 0-1.364-.594-1.364-1.407 0-.832.555-1.402 1.363-1.402.81 0 1.364.558 1.364 1.402.012.813-.555 1.406-1.363 1.406m1.808-.063v-2.71h.281l1.618 1.84v-1.84h.375v2.71h-.282L29.371 4.54v1.84Zm3.719 0 .316-2.711h.278l.964 1.902.93-1.902h.277l.313 2.71h-.555L35.082 4.7l-.746 1.559h-.254L33.309 4.7l-.157 1.645h-.437Zm4.07-.992h.774l-.399-1.028Zm-.808.992 1.144-2.711h.316l1.145 2.71h-.59l-.254-.687h-1.027l-.277.688Zm3.32-1.488c.058 0 .156.039.215.039.437 0 .558-.254.558-.473 0-.34-.254-.473-.558-.473h-.18v.907ZM38.8 6.418V3.707c.156-.039.34-.039.617-.039.254 0 .469.039.613.098.254.097.555.277.555.691a.9.9 0 0 1-.156.473c-.094.12-.254.215-.434.277l.965 1.211h-.613l-.836-1.152h-.18v1.152Zm2.8-.04V3.985c-.218 0-.472.036-.808.059l.035-.398h2.078l.035.398c-.433-.059-.687-.059-.808-.059v2.36h-.531Zm1.669-2.71h.527v2.71h-.527Zm1.058 2.71v-2.71h.281l1.618 1.84v-1.84h.37v2.71h-.277L44.703 4.54v1.84Zm0 0"/><path style="stroke:none;fill-rule:nonzero;fill:#000;fill-opacity:1" d="M65.879.5c-.18-.316-.531-.5-.93-.5H38.344c-.438 0-1.125 0-1.836.715a2.5 2.5 0 0 0-.473.656c-.215.399-.375.688-1.12.688h-3.876c-.715 0-.906-.278-1.125-.688a3 3 0 0 0-.469-.656C28.746 0 28.055 0 27.621 0H1.051C.617 0 .277.184.12.5c-.18.313-.156.71.059 1.05l.472.813c.254.434.59.496.832.555.22.039.375.062.532.375l.433.75c.34.617.715.691.992.75.215.039.434.062.711.559.278.496.688 1.246 1.703 1.562.098.035 9.899 2.89 9.934 2.89 1.027.34 1.305.716 1.621 1.188.18.278.711 1.028 1.953 1.367l9.442 2.555c1.027.277 1.64-.219 1.957-.496l1.699-1.621c.254-.219.375-.317.531-.317.16 0 .281.098.531.317l1.704 1.621c.316.254.93.75 1.957.496l9.441-2.555c1.266-.34 1.773-1.09 1.953-1.367.317-.472.594-.87 1.617-1.187 0 0 9.817-2.867 9.938-2.89.988-.317 1.426-1.056 1.703-1.563.277-.497.469-.532.687-.559.278-.059.688-.117 1.028-.75l.433-.75c.18-.313.313-.336.532-.375.254-.059.59-.121.832-.555l.472-.812c.203-.363.239-.738.059-1.051M47.71 2.676v4.672H18.277V2.676ZM37.16 14.223c-.716 0-.97-.618-1.15-1.125-.218-.555-1.363-4.235-1.702-5.227h1.46c.774 1.34 2.211 3.703 2.825 4.695.12.18.437.715.992 1.051-2.246.606-2.184.606-2.426.606m3.437-.93c-.809 0-1.243-.617-1.485-1.031-.531-.836-1.738-2.867-2.64-4.39h1.617c1.023 1.085 3.16 3.362 4.008 4.233.12.122.398.399.808.653-1.992.496-1.992.535-2.308.535m3.297-.91c-.614 0-1.086-.434-1.399-.75-.75-.75-2.512-2.613-3.598-3.801h1.774c1.121.836 3.695 2.734 4.719 3.426.316.207.64.375.992.496-2.305.629-2.246.629-2.488.629m4.152-1.742c-.277.437-.492.652-.988.652-.473 0-.93-.215-1.34-.496-.832-.59-2.79-1.996-4.032-2.926h2.11c2.574 1.27 3.66 1.863 4.383 2.078l.375.098c-.215.16-.348.375-.508.594m.785-1.211c-.59 0-1.363-.399-3.73-1.586h2.293l3.226.812c.215.059.434.098.613.156-1.808.56-2.097.618-2.402.618m6.266-1.742c-1.895.558-2.207.69-2.727.69-.375 0-.832-.062-1.617-.28l-2.547-.653V6.54Zm1.992-.56c-.613.161-1.184.099-2.05-.058l-6.774-1.125V5.23l11.082 1.247Zm4.152-2.077c-.094.156-.18.312-.277.433-.375.532-.613.496-1.797.375L48.207 4.613v-.691l12.637.754c.097 0 .34.035.617.035-.059.082-.156.203-.219.34m2.149-2.094s-.25.398-.336.617c-.375.59-.555.59-1.617.496l-13.196-.777v-.555h15.309c-.063.098-.098.157-.16.219m1.898-1.746-.34.594c-.254.375-.336.375-1.144.375H36.313c.277-.34.374-.688.69-.993.528-.53.966-.53 1.364-.53h26.606c.183 0 .316.058.375.155a.57.57 0 0 1-.059.399M30.207 14.066c.117-.156.215-.375.371-.75.219-.558 1.426-4.394 1.777-5.445h1.329c.336 1.086 1.554 4.887 1.773 5.445.121.375.254.594.375.75-.039-.035-.098-.062-.121-.097l-1.703-1.621c-.278-.254-.555-.496-.965-.496-.398 0-.715.253-.965.496l-1.703 1.62a.8.8 0 0 0-.168.098m-3.793-.46a2.9 2.9 0 0 0 .992-1.051c.614-.97 2.051-3.367 2.824-4.7h1.461c-.316.993-1.484 4.672-1.703 5.23-.18.497-.433 1.126-1.148 1.126-.254.012-.192.012-2.426-.606m-3.285-.872c.398-.218.691-.496.812-.652.832-.836 3.004-3.148 4.008-4.238h1.617a297 297 0 0 1-2.644 4.394c-.254.399-.688 1.028-1.485 1.028-.328.027-.351-.012-2.308-.532m-3.477-.968c.438-.121.809-.375.993-.496 1.027-.688 3.597-2.579 4.718-3.426h1.778a213 213 0 0 1-3.598 3.8c-.316.317-.75.75-1.402.75-.254-.011-.23-.011-2.489-.628m-2.172-1.743c.122-.035.254-.035.375-.097.75-.219 1.836-.774 4.383-2.082h2.114c-1.293.933-3.211 2.336-4.047 2.93-.375.277-.867.496-1.34.496-.492 0-.711-.22-.988-.653-.157-.195-.317-.41-.497-.594m-2.703-1.187a8 8 0 0 0 .614-.156l3.226-.809h2.293c-2.355 1.184-3.14 1.582-3.73 1.582-.328-.023-.606-.082-2.403-.617m3.004-2.297v.906l-2.547.653c-.773.183-1.242.28-1.617.28-.531 0-.832-.12-2.726-.69ZM6.7 6.477 17.781 5.23v.715l-6.77 1.125c-.906.157-1.46.22-2.054.059ZM4.527 4.699c.254-.039.532-.039.618-.039l12.636-.75v.692L6.832 5.848c-1.184.12-1.422.156-1.797-.375-.098-.121-.183-.278-.277-.438-.074-.12-.133-.242-.23-.336m-2.04-1.926h15.305v.559l-13.207.773c-1.047.06-1.242.098-1.617-.496-.121-.207-.227-.414-.336-.617-.063-.097-.121-.156-.145-.219M.676.813C.738.715.856.656 1.05.656h26.605c.399 0 .871 0 1.367.532.313.316.399.652.688.992H2.234c-.808 0-.906 0-1.148-.375L.75 1.21C.652 1.055.617.91.676.812m0 0"/></svg>