<svg width="130" height="33" viewBox="0 0 130 33" fill="none" xmlns="http://www.w3.org/2000/svg"><path d="M109.511 33h.677v-3.182h.011L111.325 33h.586l1.126-3.182h.012V33h.677v-4.124h-.99l-1.092 3.229h-.012l-1.12-3.229h-1.001zm-3.748-3.5h1.285V33h.711v-3.5h1.291v-.624h-3.287zM97.5 33 130 0h-19.561l-32.5 33zm-4.66-18.629H53.497c-11.99 0-14.089.646-19.224 5.86C29.469 25.11 21.667 33 21.667 33H38.71l4.066-4.128c2.673-2.715 4.052-2.996 9.665-2.996h29.07zm-59.092 3.507C30.2 21.277 22.483 28.89 18.323 33H0S14.682 18.136 22.842 9.98C31.25 1.854 35.441 0 50.862 0h56.133L94.84 12.34H52.001c-10.835 0-13.27.763-18.253 5.538" fill="#E00"/></svg>