<svg width="47" height="64" viewBox="0 0 47 64" fill="none" xmlns="http://www.w3.org/2000/svg"><g clip-path="url(#a)"><mask id="b" style="mask-type:luminance" maskUnits="userSpaceOnUse" x="0" y="0" width="47" height="64"><path d="M0 0h47v64H0z" fill="#fff"/></mask><g mask="url(#b)"><path d="M47 5.42v1.217L23.5 2.492 0 6.639V5.42l23.499-4.17z" fill="#fff"/><path d="M47 4.18v1.248L23.5 1.247.001 5.42V4.18L23.5.007z" fill="#0D8922"/><path d="M47 6.639 23.5 2.493 0 6.64v4.208l.205-.115c.083-.048 8.42-4.696 23.342-4.696s23.162 4.656 23.245 4.695l.2.116z" fill="#ED1C24"/><path d="M23.547 6.844c13.472 0 21.36 3.816 22.637 4.485v12.113A45.1 45.1 0 0 1 41.596 43C34.935 56.92 24.903 62.386 23.5 63.101c-1.405-.715-11.435-6.182-18.103-20.103A45.16 45.16 0 0 1 .804 23.44V11.33c1.29-.668 9.261-4.486 22.74-4.486" fill="#FFF200"/><path d="M23.547 6.844c13.472 0 21.36 3.816 22.637 4.485v12.113A45.1 45.1 0 0 1 41.596 43C34.935 56.92 24.903 62.386 23.5 63.101c-1.405-.715-11.435-6.182-18.103-20.103A45.16 45.16 0 0 1 .804 23.44V11.33c1.29-.668 9.261-4.486 22.74-4.486M.203 10.732 0 10.847V23.44a45.9 45.9 0 0 0 4.667 19.907c7.277 15.206 18.55 20.518 18.665 20.575l.174.078.173-.078c.112-.052 11.38-5.371 18.655-20.575a45.9 45.9 0 0 0 4.678-19.907V10.848l-.2-.116c-.084-.045-8.317-4.696-23.247-4.696S.285 10.683.205 10.732" fill="#0A0A0A"/><path d="M17.76 50.057c-1.112-.434-1.75-.673-1.766-1.202 0-.891 1.113-.677 1.37-.585.83.25 1.535.81 1.971 1.564 0 0-.239-1.425-.293-1.697-.053-.27-.213-.234-.296-.224-.174.012-.174.308-.174.308s-3.582-1.515-3.582.857c0 1.111 1.178 1.294 1.7 1.565 1.064.565 2.401.9 2.515 1.748.104.757-.57 1.604-2.025 1.604a2.05 2.05 0 0 1-1.31-.465 2.07 2.07 0 0 1-.716-1.196c.056-.27.324-.109.541-.109a.47.47 0 0 0 .456-.454.5.5 0 0 0-.047-.23c-.136-.347-1.258-.373-1.258.778 0 1.63 1.608 2.122 2.308 2.122a2.364 2.364 0 0 0 2.47-1.727c.345-1.546-.405-2.086-1.864-2.657m14.749-1.322q1.034-.076 2.055-.259a4.8 4.8 0 0 0 1.622-.811 8.8 8.8 0 0 1-2.444.438 5.8 5.8 0 0 1-2.004-.033 5.6 5.6 0 0 0-2.45-.148c-.35.035-.678.185-.934.427a1.6 1.6 0 0 0-.484.911c-.084.523.52.835 1.04.707a1.15 1.15 0 0 0 .718-.806 2 2 0 0 1-.726.348c-.37.068-.563-.193-.458-.457a.97.97 0 0 1 .829-.662 5.6 5.6 0 0 1 1.403 0c.706.069 1.063.198.867.521a5.2 5.2 0 0 0-.82 1.337c-.154.38-.114.569-.369.569a.97.97 0 0 0-.714.174.76.76 0 0 0-.265.633.85.85 0 0 1 .81-.376c.134 0 .048.348-.088.631-.135.284-.814 2.122-2.24 2.122a1.605 1.605 0 0 1-1.525-.943 1.6 1.6 0 0 1-.144-.614v-.146c.146-.37.405-.032.704-.116a.46.46 0 0 0 .36-.416.47.47 0 0 0-.176-.403c-.908-.628-1.772.916-.826 2.273.891 1.293 2.31.805 3.052.411a3.63 3.63 0 0 0 1.402-1.694c.247-.507.47-1.072.47-1.072.265 0 .529-.039.782-.117a1.23 1.23 0 0 0 .59-.56c-.38.156-.792.21-1.198.159-.107 0 .144-.532.38-.993a2.53 2.53 0 0 1 .784-1.033m-9.98-38.591c.022 0 .308-.136.308-.136a2 2 0 0 0-.054-.3c0-.007-.622-.734-.622-.734l-.03-.036-.012.048-.063.293-.2.473-.008.02.415.215.266.159m15.033 15.055c-.03-.037-.054-.038-.068-.033-.013.005-.034.018-.04.063-.026.186-.258.667-.445.739a1.56 1.56 0 0 0-.705.912c-.073.175-.145.325-.198.33q-.035 0-.08-.079a2.34 2.34 0 0 1 0-1.51l.029-.121a4.1 4.1 0 0 1 .855-1.351l.129-.154c.167-.359.24-.755.21-1.15a.02.02 0 0 0-.015 0 .02.02 0 0 0-.012.009l-.01.014a.1.1 0 0 0-.032.057 4.6 4.6 0 0 1-1.34 1.502q-.29.285-.52.62-.105.166-.25.303a2.68 2.68 0 0 1 .338-2l.08-.152a4.4 4.4 0 0 1 1.24-1.664.06.06 0 0 0-.01-.075c-.033-.027-.094-.014-.194.035l-.054.028a3.9 3.9 0 0 0-1.81 1.705 5.3 5.3 0 0 0-.57 2.348 2.5 2.5 0 0 0 .108.81q.396 1.184.663 2.403.099 1.071.078 2.145v.594l-.174.566a2.76 2.76 0 0 1-.807 1.193c-.43.446-.959.785-1.542.99a1.4 1.4 0 0 1-.63-.032c0-.854-1.452-2.84-2.196-3.494a15 15 0 0 0-2.394-1.78c-1.05-.643-2.215-3.335-2.227-3.36l-.101-.364-.073-.915.087.053.358.21.409.157.539.108.297.154.28.174.431.313.441.235.532.027.006-.026-.606-.285c0-.01-.217-.385-.217-.385l-.255-.366-.314-.191c-.008 0-.386-.056-.387-.056l-.127-.107.099-.061.418.053.368.258.404.315.384.149.049.021-.163-.435-.315-.295-.458-.393-.358-.188-.384-.131-.39-.26v-.052l.556.224.487.132.403.157.582.285.49.107.593-.106c.01 0 .57-.396.57-.396l.11-.243.024-.055-.182.075-.51.26-.346.076-.398-.08-.321-.306-.458-.445-.412-.214-.488-.08-.299-.155v-.014c0-.035 0-.113-.011-.15l.606.053.663-.052.374.076.38.159.388.052.07.01-.434-.417-.434-.317-.363-.131-.613-.053v-.028c0-.015 0-.087-.009-.114l.281-.047.449.102.426.257.463.159c.012 0 .67-.102.67-.102h.04l-.19-.269c-.011-.009-.348-.113-.348-.113l-.271-.207-.407-.288-.311-.106-.487-.079-.242-.229a1 1 0 0 0 .027-.111l.254.07.325.155.463.147-.1-.207-.174-.187-.154-.2.07-.018.493.26.385.133.296.28.565.323.056.033-.102-.276-.308-.399-.253-.44-.46-.474-.59-.32-.225-.255-.407-.422-.064-.22.397.13.457.13.325.207.273.336c.01 0 .442.192.442.192l1.107.144h.062l-.3-.32a39 39 0 0 1-.594-.268l-.347-.258-.197-.361-.204-.365-.333-.319-.412-.24-.402-.337s-.097-.207-.16-.347c.104.099.28.271.28.271l.537.47.414.19.346.283.407.416c.014 0 .65.098.65.098l.078.012-.645-.56c0-.012-.144-.46-.144-.46l-.337-.324-.174-.207-.173-.539-.364-.374s-.582-.547-.582-.551l-.033-.146.105.054.533.31.64.19.663.156.766.125-.174-.369a10 10 0 0 0-.393-.175l-.347-.206-.434-.186-.38-.157-.384-.5.333.228.346.03H29.8l.423.234.36.39.05.053-.046-.44c0-.014-.232-.3-.232-.3l-.617-.348-.522-.168-.74-.131-.142-.174-.535-.497-.26-.134-.13-.138h.274l.42.258.564.184.716.104.265.308.388.239c.008 0 .44.08.44.08l.06.01-.897-1.128-.44-.24-.509-.16-.45-.523-.565-.347-.406-.1a3 3 0 0 0 .109-.182c0-.008.452-.187.452-.187l.655-.127q.042-.084.07-.174a3 3 0 0 0-.288-.211l-.336-.107a2 2 0 0 0-.198.106l-.55.022-.656-.157-.679-.57-.31-.158c-.009 0-1.123-.133-1.126-.133s-.263-.408-.263-.408l-.357-.395-.458-.414-.014.029-.151.348-.152.23c0 .042.023.27.023.27l.157.175c.002 0-.057.236-.057.237l-.611.01-.5-.234-.384-.13-.899.026c-.017.01-.173.245-.173.245l-.02.029.392.058.09.059-.1.084-.546-.032-.39.158-.04.018.19.127.824.031.605.156c0 .01.116.175.116.175s.081.114.11.16l-.257.146-.735.312-1.526.87-1.007.15-.392.218-.317.436-.173.543c-.014.913.022.934.036.942a.56.56 0 0 0 .494.06q.47-.207.976-.305c.125-.026.185.02.195.066.01.048-.024.122-.119.148l-.052.016c-.444.122-.897.268-.884.44l.08.13c.318.11.663.114.984.013l.286-.08c.244-.095.504-.14.766-.133q.212.04.401.143c.232.127.488.204.751.224.328.007.652.068.96.183a1 1 0 0 1-.01.558l-.03.165c-.154 1.414-1.723 3.01-2.476 3.777a3 3 0 0 0-.367.404l-.087.199a.65.65 0 0 1-.373.447q-.441.256-.836.58a5 5 0 0 1-1.396.89 10 10 0 0 1-1.816-1.096c-1.407-1.37-1.996-1.089-2.348-.924l-.058.026c-.418.192-.865 1.392-.899 1.646l-.173.737-.13.542c-.038.174-.21.631-.377 1.068l-.347.945a6 6 0 0 1-.3.778l-.152.369a10.5 10.5 0 0 0 .075 3.013l.008.008.036.01c.174-.018.575-.426.761-.622l.043-.045c.18-.221.294-.488.33-.771a3.2 3.2 0 0 0-.115-.65 4.24 4.24 0 0 1-.112-1.886l.019-.16a1.1 1.1 0 0 1 .347-.521l.204-.237a.7.7 0 0 1 .347-.243l.173-.103.026-.029a1.6 1.6 0 0 0 .412-.6l.174-.75.036-.198a.08.08 0 0 1 .062-.07.25.25 0 0 1 .217.097l1.245 1.455c.25.188.467.415.646.67h-.008a7.6 7.6 0 0 1-1.196-.212c-1.192-.348-1.732-.289-2.156.24-.48.605-.328 2.46-.231 2.662s.52 2.444.547 2.746c.014.33.1.652.252.944l.03.033c.281.247.489.566.602.924a3.7 3.7 0 0 0 1.3 1.646.16.16 0 0 0 .148-.028c.258-.186.376-1.085.39-1.466a1.33 1.33 0 0 0-.332-.947l-.07-.098a.94.94 0 0 0-.52-.29c-.064-.019-.153-.04-.153-.059s-.02-.696-.24-.835a2.1 2.1 0 0 1-.366-1.031 4.4 4.4 0 0 0-.247-1.132 2.2 2.2 0 0 1-.186-1.149.255.255 0 0 1 .235-.23.45.45 0 0 1 .383.103 8.6 8.6 0 0 0 1.744 1.059c.342.18.657.407.935.675q.25.23.538.408c.323.079.656.11.989.094a2.4 2.4 0 0 1 .427.026c-.15.06-.148.326-.138.41.154 1.092 4.107 4.099 4.41 4.268a12 12 0 0 1 1.732 1.705c.121.148.194.33.206.521a.9.9 0 0 0 .234.684.84.84 0 0 0 .594.308c.174 0 .295-.157.382-.272l.016-.026c.364-.418.586-.941.633-1.495.045-.735.385-1.03.492-1.043.05-.009.085 0 .099.038s0 .089-.07.134c-.177.223-.292.49-.334.773l-.038.357a1.18 1.18 0 0 1-.28.854 4.96 4.96 0 0 0-.959 2.658 6.35 6.35 0 0 0 .997 3.207l.052.099.197.334c.217.304.392.636.52.987a1.18 1.18 0 0 1-.347.696 20 20 0 0 1-1.675 1.877.6.6 0 0 0-.48.175l-.206.158a.7.7 0 0 0-.301.391.4.4 0 0 1-.16.228l-.078.055c-.015.012-.062.075-.551.571a2.15 2.15 0 0 0-.728 1.825c.025.197.196.265.694.29a2.83 2.83 0 0 0 1.695-1.044l.018-.1c.042-.238.115-.637.248-.695.234-.171.443-.376.618-.608l.04-.04a.73.73 0 0 0 .155-.36.7.7 0 0 1 .1-.267.5.5 0 0 1 .192-.131.85.85 0 0 0 .482-.522 5.9 5.9 0 0 1 1.559-1.363q.321-.208.602-.471a.9.9 0 0 0 .125-.512.94.94 0 0 0-.223-.666 3.2 3.2 0 0 1-.504-1.043c0-.081 0-.231-.021-.513v-.038c0-.738 1.092-1.46 1.56-1.772l.212-.151c1.709-1.514 2.043-2.668 2.106-2.984l.036-.378c.01-.265.019-.514.174-.547a.28.28 0 0 1 .224.113.22.22 0 0 1 .054.223c-.076.211-.106 2.35-.106 2.434 0 .015.185.224.185.224l.034.039.008-.051c0-.024.1-.607.1-.813.077-.437.232-.855.459-1.235v.01q.105.411.1.833c.022.325-.056.649-.222.928-.25.356-.449.744-.594 1.154l-.122.283a.4.4 0 0 0-.018.122c.013.33.09.654.228.956.025.024.043.024.058.02.014-.006.056-.05.056-.276.037-.576.3-1.114.73-1.497a2.75 2.75 0 0 0 .789-2.147q0-.49-.082-.97l-.305-.45c-.007-.01.095-.06.123-.083.027.034.315.423.315.423q.12.157.174.348 0 .492.115.97l.011.054q.167.524.385 1.026l.032.08.009-.09a3.2 3.2 0 0 0 0-.736q-.023-.34.045-.675l.055-.575a1.84 1.84 0 0 0-.23-1.044l-.085-.126a.4.4 0 0 1-.062-.117l.062-.028a3.77 3.77 0 0 0 2.223-2.004 4.7 4.7 0 0 0 .28-1.658 8.5 8.5 0 0 0-.203-1.994 2.9 2.9 0 0 1-.042-1.146l.042-.695c.033-.439.207-.854.496-1.184l.29-.453a.8.8 0 0 0 .012-.8M23.762 42.626l.587.28a.86.86 0 0 0 .634.04c.215-.167.375-.395.46-.654a.31.31 0 0 0-.046-.294 8.5 8.5 0 0 1-.785-2.205 8 8 0 0 1 .064-1.504q.066-.425.053-.855c-.042-.118-.217-.233-.421-.364l-.321-.218a.66.66 0 0 1-.188-.54l-.032-.322a7.3 7.3 0 0 0-1.812-1.858c-.347-.023-.427.347-.448.574q.089.63.274 1.24l.15.627a13.5 13.5 0 0 0 1.638 3.465l.21.36c.094.21.055.376-.105.466a8 8 0 0 1-2.158-.201 7 7 0 0 1-.956-.338 4 4 0 0 0-.957-.315.8.8 0 0 0-.448.08l-.148.04-.145-.046a4.1 4.1 0 0 0-1.431-.31c-1.334-.125-1.434.146-1.489.29-.067.188.751 1.06.897 1.176a1.9 1.9 0 0 0 1.152.32q.589-.103 1.185-.136l.135.085.128.093q.54.085 1.088.1c.26.014.943.157 1.441.26l.558.116q.643.219 1.236.549" fill="#0A0A0A"/><path d="m22.807 41.455.02-.029c.035-.148-.694-.376-1.09-.478a2.8 2.8 0 0 0-1.152-.142h-.01l-.019.034c-.036.145.694.375 1.089.478.371.123.763.17 1.154.14zm-3.103-1.043c-.123 0-.22.066-.22.152s.097.149.22.149.215-.07.215-.15-.097-.15-.215-.15m-2.543-.174c-.174 0-.312.1-.312.22 0 .122.14.222.311.222.172 0 .314-.094.314-.221s-.138-.221-.313-.221m5.993 8.383a.54.54 0 0 0-.326.185.55.55 0 0 0-.182.335.1.1 0 0 0 .031.082l.082.033a.53.53 0 0 0 .325-.186c.162-.174.224-.348.15-.417zm1.146-1.667a.5.5 0 0 0-.285.174c-.122.121-.212.292-.145.364l.065.022a.5.5 0 0 0 .287-.174c.12-.124.211-.29.143-.36zm2.618-2.434h-.024a3.7 3.7 0 0 0-.996.83c-.036.035-.906.936-.792 1.053h.028a3.7 3.7 0 0 0 .996-.828c.036-.038.91-.937.792-1.057zm-2.628-3.493a.197.197 0 0 0-.208.188.2.2 0 0 0 .112.19q.037.017.075.018h.021a.198.198 0 0 0 .204-.227.2.2 0 0 0-.11-.151.2.2 0 0 0-.075-.019zm3.607 2.886a.235.235 0 0 0-.239.231.235.235 0 0 0 .23.24h.009a.23.23 0 0 0 .216-.146.24.24 0 0 0-.05-.256.24.24 0 0 0-.166-.07m-1.531-1.704.01-.064c0-.039.12-.936-.156-1.282a.35.35 0 0 0-.237-.133.17.17 0 0 0-.174.07c-.173.272.487 1.308.52 1.354zm-.957-3.215c0 .009.028.047.06.045h.015l.025-.036.21-.645.174-.43.14-.325q.061-.164 0-.224c-.067-.063-.206-.011-.222 0-.015.01-.395.654-.395.654a.8.8 0 0 0-.104.431c-.004.185.033.368.108.537m-11.436-6.062a.227.227 0 0 0-.214.276.225.225 0 0 0 .364.127.23.23 0 0 0 .084-.173.233.233 0 0 0-.234-.23M10.6 28.592a.19.19 0 0 0-.198.186.19.19 0 0 0 .198.174.19.19 0 0 0 .201-.175.197.197 0 0 0-.2-.185m1.378-.804h-.04c-.137.032-.041.633.029.947.043.306.157.6.332.855h.037c.14-.033.04-.634-.03-.946a1.9 1.9 0 0 0-.328-.856m.118-2.122c.1-.136.121-.29.045-.348l-.089-.02a.36.36 0 0 0-.223.165c-.1.135-.12.287-.045.347l.087.018a.36.36 0 0 0 .227-.162m-.26-1.946a1.45 1.45 0 0 0 .376-.684c.125-.375.192-.776.069-.82h-.056c-.186.19-.316.427-.377.686-.127.377-.193.779-.072.822zm1.155-2.542c-.188 0-.346.092-.346.205s.152.205.347.205.346-.09.346-.205-.152-.205-.347-.205m3.578 2.337c-.27.247-.468.565-.57.918a3 3 0 0 0-.23.928c0 .103.022.175.072.199h.076c.27-.249.468-.566.572-.918.125-.296.203-.61.23-.928 0-.105-.021-.175-.07-.197zm-1.953.273.054-.022c.07-.077-.088-.298-.28-.475a.8.8 0 0 0-.441-.26l-.052.023a.07.07 0 0 0-.015.049c.052.17.155.32.296.428.116.13.27.22.438.257m.186 3.264q-.518-.27-1.09-.388l-.018.041.761.578c.127.102.68.449.866.307a.09.09 0 0 0 .034-.074c0-.106-.195-.244-.545-.464m7.656 6.3c-.017-.023-1.973-2.157-2.394-2.715-.42-.558-.638-.618-.847-.499a.12.12 0 0 0-.055.087c-.03.235.457.796.883 1.217.596.58 2.362 1.938 2.38 1.952zm8.272 2.07h-.01a.4.4 0 0 0-.184.207.3.3 0 0 0 .062.234l.048.089.02.175.03.254a.124.124 0 0 0 .124.087.19.19 0 0 0 .163-.15q.057-.282.05-.57c0-.229-.283-.317-.293-.322m-5.362-2.95a.12.12 0 0 0 .13.022.22.22 0 0 0 .14-.185.87.87 0 0 1 .227-.437.394.394 0 0 0-.022-.544l-.174-.065a.3.3 0 0 0-.187.09c0 .014-.16.796-.16.796-.015.046-.028.256.04.323m10.292-3.239h-.045s.012.348.012.791a9.3 9.3 0 0 1-.132 1.887c-.224.495-.505.96-.835 1.39l-.384.581a.15.15 0 0 0-.018.066.18.18 0 0 0 .08.147c.04.025.174.095.374-.14l.248-.262A3.64 3.64 0 0 0 36 32.05c.315-.994-.318-2.803-.325-2.82m-9.988-.5c.307.143.416.194.462.21h.032l-.02-.024v-.01l-.02-.01a11.2 11.2 0 0 1-1.67-3.156.64.64 0 0 0-.211-.434.3.3 0 0 0-.263 0 .08.08 0 0 0-.055.058.2.2 0 0 0-.013.098 6.1 6.1 0 0 0 .578 1.777c.784 1.283 1.17 1.495 1.184 1.504m-2.918-4.741a.21.21 0 0 0 .084-.207c-.021-.388-.125-.431-.338-.431a.4.4 0 0 0-.369.33q0 .158.225.275a.45.45 0 0 0 .397.032m-3.503-1.792.258-.047q.492-.12.997-.14c.304.007.605.066.89.174.219.074.328.107.374.058s.008-.073 0-.104c-.068-.144-.359-.618-1.31-.642a1.57 1.57 0 0 0-1.23.588q-.035.052-.018.084l.01.014zm5.543.34c.103 0 .19-.063.19-.143s-.088-.143-.189-.143c-.103 0-.19.064-.19.143s.085.142.19.142m.191-.39c.107 0 .195-.063.195-.143s-.086-.141-.195-.141c-.108 0-.197.063-.197.141s.09.143.197.143m.198-.408a.17.17 0 0 0 .143-.141.176.176 0 0 0-.152-.204.2.2 0 0 0-.07.006.173.173 0 0 0-.125.209.173.173 0 0 0 .204.13m.173-.928a.19.19 0 0 0-.174.154.2.2 0 0 0 .037.158.19.19 0 0 0 .31-.013.2.2 0 0 0 .033-.105.2.2 0 0 0-.206-.194m.369-.368a.21.21 0 0 0-.135-.181.2.2 0 0 0-.078-.012.19.19 0 0 0-.178.105.2.2 0 0 0 .014.206c.03.04.073.066.12.076h.044a.2.2 0 0 0 .194-.116.2.2 0 0 0 .019-.078m.215-.617a.27.27 0 0 0-.117-.274.264.264 0 0 0-.368.079.27.27 0 0 0 .003.297.267.267 0 0 0 .37.07.27.27 0 0 0 .112-.172m.114-.637a.255.255 0 0 0-.144-.292.25.25 0 0 0-.226.011.254.254 0 0 0 .123.476.226.226 0 0 0 .247-.195m.215-.508c0-.111-.147-.195-.347-.195s-.336.084-.336.195.151.195.336.195.347-.087.347-.195m-.506-.601c0 .1.123.184.288.184s.284-.084.284-.184c0-.101-.123-.185-.284-.185s-.288.08-.288.185m.013-.333c.08.05.176.066.268.047.173-.022.283-.114.27-.21l-.049-.078a.36.36 0 0 0-.265-.047c-.174.022-.284.116-.27.21zm.276-.542c.149-.013.258-.094.248-.19l-.049-.087a.32.32 0 0 0-.228-.055c-.145.012-.25.09-.25.174v.01l.049.084a.3.3 0 0 0 .228.057m.082-.937c-.132 0-.238.078-.238.174s.106.174.238.174.235-.078.235-.174-.106-.174-.235-.174m-.009-.56a.174.174 0 0 0-.071.304.173.173 0 0 0 .282-.13.19.19 0 0 0-.21-.174m.01-.444a.15.15 0 0 0-.102.076.155.155 0 0 0 .023.182.153.153 0 0 0 .266-.107.175.175 0 0 0-.188-.15m-.156-.347a.17.17 0 0 0 .053.117.16.16 0 0 0 .12.043.16.16 0 0 0 .16-.16.16.16 0 0 0-.16-.16.16.16 0 0 0-.158.096.2.2 0 0 0-.015.064m.08-.662a.159.159 0 0 0-.12.252.16.16 0 0 0 .232.027.16.16 0 0 0-.02-.253.16.16 0 0 0-.089-.026m-2.806 2.709-.078-.009c-.208.054-.563.671-.811 1.129l-.045.078-.743 1.407-.232.448a.11.11 0 0 0 .02.14.13.13 0 0 0 .174 0 4 4 0 0 0 .786-.895l.281-.387a3.4 3.4 0 0 0 .504-.816l.042-.108c.286-.741.33-.856.1-.997m.963-1.964a.123.123 0 0 0-.157-.053l-.134.099a1 1 0 0 1-.311.205c-.248.065-.582.174-.602.348v.02a.1.1 0 0 0 .042.09c.094.077.32.032.485-.03a1.7 1.7 0 0 0 .605-.39c.121-.11.116-.222.072-.29m-1.235.095a.13.13 0 0 0 .068.132.173.173 0 0 0 .215-.078l.19-.174q.18-.12.319-.287c.094-.123.053-.198.019-.229a.22.22 0 0 0-.241-.04l-.055.037a1.2 1.2 0 0 0-.49.507.4.4 0 0 0-.025.125m-.964-.521-.266.21-.019.021a.085.085 0 0 0-.028.115l.031.046.072-.015.102-.036.149-.026a.7.7 0 0 0 .38-.117l.098-.163.146-.237c.07-.076.072-.132.063-.162a.08.08 0 0 0-.067-.054.13.13 0 0 0-.13.049q-.254.21-.528.388m-2.444-.02a.17.17 0 0 0 .153-.091.174.174 0 0 0-.245-.23.175.175 0 0 0 .092.322m-.77-1.105c-.038.037-.022.114-.01.174v.07a.07.07 0 0 0 0 .075q.021.037.12.036c.064 0 .091 0 .12-.084l.023-.058a.18.18 0 0 0 0-.133.27.27 0 0 0-.184-.103.07.07 0 0 0-.069.016m-.641-.075a.27.27 0 0 0-.234.133l-.058.065a.58.58 0 0 0-.115.45c0 .065.022.183.086.223.123.075.174.023.307-.098l.097-.084a.65.65 0 0 0 .284-.404.23.23 0 0 0-.053-.186.43.43 0 0 0-.314-.102m1.732-.43.052-.016.427-.173.62-.41c.017-.01.173-.136.145-.214-.028-.079-.103-.044-.163-.034q-.271.068-.519.202l-.252.118-.108.047c-.385.16-.694.303-.64.451.035.087.198.095.435.024m2.48.214a.22.22 0 0 0 .155-.082.55.55 0 0 0 0-.546.51.51 0 0 0-.407-.302h-.034l-.297.026a.46.46 0 0 0-.334.264.14.14 0 0 0 .031.15c.226.264.539.438.882.493m3.255-.264c.02-.064.04-.124 0-.156-.04-.034-.078-.026-.173 0a.71.71 0 0 0-.388.657l-.009.07c-.019.102.033.139.064.149a.37.37 0 0 0 .347-.134c.048-.08.311-.151.507-.207l.075-.019c.088-.026.135-.059.142-.108.007-.048-.06-.116-.121-.15-.062-.036-.138-.013-.224.013a.4.4 0 0 1-.235.022c-.034-.014-.021-.07 0-.145m-.376-1.475a.14.14 0 0 0-.065.151l.012.047c.015.056.021.066.07.071l.09.016a.35.35 0 0 0 .347-.136c.013-.029.024-.088-.056-.144a.36.36 0 0 0-.393 0m-.144-.422.121.062a.15.15 0 0 0 .1.085.17.17 0 0 0 .145-.036q.046-.037.018-.133a.3.3 0 0 0-.245-.206c-.143 0-.272.015-.272.124 0 .058.067.08.131.101m-2.483 1.032a.35.35 0 0 0 .26-.03c.144-.066.229-.184.194-.265l-.07-.062a.35.35 0 0 0-.254.03c-.124.056-.202.146-.202.226q-.002.021.009.04z" fill="#fff"/></g></g><defs><clipPath id="a"><path fill="#fff" d="M0 0h47v64H0z"/></clipPath></defs></svg>