<svg width="65" height="88" viewBox="0 0 65 88" fill="none" xmlns="http://www.w3.org/2000/svg"><g clip-path="url(#a)"><path d="M65 7.452v1.674l-32.5-5.7L0 9.128V7.454l32.498-5.737z" fill="#fff"/><path d="M65 5.747v1.717l-32.5-5.75L.002 7.452V5.747L32.5.01z" fill="#0D8922"/><path d="m65 9.128-32.5-5.7L0 9.128v5.786l.283-.158C.398 14.69 11.928 8.3 32.565 8.3s32.033 6.402 32.148 6.455l.275.16z" fill="#ED1C24"/><path d="M32.565 9.41c18.631 0 29.54 5.248 31.307 6.168v16.655a61.74 61.74 0 0 1-6.345 26.891C48.314 78.264 34.44 85.781 32.5 86.764c-1.943-.983-15.814-8.5-25.036-27.642A61.8 61.8 0 0 1 1.112 32.23V15.578C2.897 14.66 13.92 9.41 32.56 9.41" fill="#FFF200"/><path d="M32.565 9.41c18.631 0 29.54 5.248 31.307 6.168v16.655a61.74 61.74 0 0 1-6.345 26.891C48.314 78.264 34.44 85.781 32.5 86.764c-1.943-.983-15.814-8.5-25.036-27.642A61.8 61.8 0 0 1 1.112 32.23V15.578C2.897 14.66 13.92 9.41 32.56 9.41M.283 14.756 0 14.914V32.23a62.85 62.85 0 0 0 6.455 27.372c10.063 20.908 25.654 28.212 25.813 28.29l.24.108.239-.108c.156-.071 15.74-7.385 25.8-28.29a62.8 62.8 0 0 0 6.47-27.372V14.916l-.278-.16C64.624 14.694 53.238 8.3 32.59 8.3S.393 14.689.283 14.756" fill="#0A0A0A"/><path d="M24.562 68.828c-1.538-.597-2.42-.925-2.442-1.652 0-1.226 1.539-.932 1.893-.805a4.73 4.73 0 0 1 2.727 2.151s-.33-1.96-.405-2.333c-.074-.373-.295-.323-.41-.308-.24.016-.24.423-.24.423s-4.954-2.083-4.954 1.178c0 1.528 1.629 1.779 2.352 2.152 1.47.777 3.32 1.238 3.477 2.403.144 1.042-.788 2.206-2.8 2.206-.66.003-1.3-.223-1.812-.64a2.84 2.84 0 0 1-.99-1.643c.077-.373.448-.15.748-.15a.653.653 0 0 0 .565-.94c-.187-.478-1.74-.514-1.74 1.069 0 2.24 2.224 2.917 3.192 2.917a3.26 3.26 0 0 0 2.137-.573 3.25 3.25 0 0 0 1.278-1.802c.479-2.125-.559-2.868-2.576-3.653m20.397-1.817q1.43-.106 2.842-.356a6.7 6.7 0 0 0 2.243-1.116 12.2 12.2 0 0 1-3.379.602 8.1 8.1 0 0 1-2.772-.045 7.8 7.8 0 0 0-3.388-.204 2.214 2.214 0 0 0-1.962 1.841c-.115.718.719 1.148 1.438.971a1.59 1.59 0 0 0 .994-1.107c-.298.227-.64.39-1.004.478-.513.093-.779-.265-.633-.629a1.33 1.33 0 0 1 1.146-.91 7.8 7.8 0 0 1 1.94 0c.976.095 1.47.272 1.199.717a7.2 7.2 0 0 0-1.134 1.838c-.213.522-.158.782-.51.782a1.35 1.35 0 0 0-.987.24 1.05 1.05 0 0 0-.367.87 1.18 1.18 0 0 1 1.119-.517c.187 0 .067.478-.12.868s-1.126 2.917-3.098 2.917a2.23 2.23 0 0 1-2.109-1.296 2.2 2.2 0 0 1-.2-.844v-.201c.203-.51.56-.045.974-.16a.64.64 0 0 0 .463-.838.64.64 0 0 0-.209-.288c-1.255-.863-2.45 1.26-1.142 3.125 1.233 1.778 3.196 1.107 4.221.566a5 5 0 0 0 1.939-2.33c.342-.697.65-1.474.65-1.474.366.001.731-.053 1.082-.16.351-.157.638-.428.815-.77a3.3 3.3 0 0 1-1.656.218c-.148 0 .199-.732.525-1.365a3.47 3.47 0 0 1 1.085-1.42M31.16 13.95c.032 0 .427-.186.427-.186a3 3 0 0 0-.074-.412c0-.011-.86-1.01-.86-1.01l-.041-.049-.017.065-.088.404-.276.65-.012.027.575.296.367.218m20.79 20.701c-.04-.05-.074-.052-.093-.045s-.048.024-.055.086c-.036.256-.357.918-.616 1.016a2.15 2.15 0 0 0-.975 1.255c-.101.24-.2.447-.274.452q-.05.002-.11-.107a3.2 3.2 0 0 1 0-2.076l.039-.167a5.7 5.7 0 0 1 1.183-1.858l.178-.212a3.15 3.15 0 0 0 .29-1.58.03.03 0 0 0-.037.011l-.014.02a.12.12 0 0 0-.043.078 6.3 6.3 0 0 1-1.855 2.066 6 6 0 0 0-.718.851 2.2 2.2 0 0 1-.345.418 3.66 3.66 0 0 1 .467-2.751l.11-.208a6.1 6.1 0 0 1 1.716-2.288.08.08 0 0 0-.015-.103c-.045-.038-.13-.02-.268.048l-.074.038a5.38 5.38 0 0 0-2.504 2.345 7.3 7.3 0 0 0-.789 3.228c-.01.377.04.753.151 1.114q.547 1.627.916 3.304.138 1.472.108 2.95v.816l-.24.779a3.8 3.8 0 0 1-1.117 1.64 5.5 5.5 0 0 1-2.132 1.36c-.29.051-.589.037-.872-.043 0-1.174-2.008-3.904-3.036-4.805a21 21 0 0 0-3.311-2.446c-1.452-.885-3.063-4.586-3.08-4.621l-.14-.5-.101-1.258c.052.03.12.072.12.072l.495.29.566.215.745.148.412.213.386.239.597.43.61.323.736.038.007-.036-.838-.392c0-.014-.3-.53-.3-.53l-.352-.503-.434-.263c-.012 0-.534-.076-.536-.076l-.175-.148.136-.084.578.074c.002 0 .51.354.51.354l.558.433.532.205.067.029-.225-.598-.436-.406-.633-.54-.495-.259-.532-.18-.54-.358v-.071l.77.308.673.182.558.215.805.392.678.148.82-.146c.014 0 .788-.545.788-.545l.153-.334.032-.075-.252.103-.704.356-.48.106-.55-.11-.444-.421-.633-.612-.57-.294-.675-.11-.413-.213v-.02c0-.047 0-.155-.016-.205l.838.072.918-.072.517.105.525.218.537.072.096.014-.6-.574-.6-.435-.502-.181-.848-.072v-.039c0-.021 0-.119-.012-.157l.389-.065.62.141.59.354.64.218c.016 0 .926-.141.926-.141h.056l-.264-.369c-.014-.012-.48-.155-.48-.155l-.375-.285-.563-.396-.43-.146-.673-.108-.335-.315a1 1 0 0 0 .038-.153l.35.095.45.215.64.201-.139-.284-.24-.258-.212-.275.095-.024.683.358.532.182.41.385.781.445.077.045-.14-.38-.426-.548-.35-.604-.637-.653-.815-.44-.311-.351-.563-.58s-.058-.202-.089-.303l.549.18.632.179.45.284.377.462c.014 0 .611.263.611.263l1.531.198h.086l-.416-.44c-.012 0-.82-.368-.82-.368l-.48-.354-.272-.497-.283-.502-.46-.438-.57-.33-.556-.463s-.134-.285-.22-.478c.143.136.385.373.385.373l.743.647.573.259.479.39.563.573c.019 0 .898.134.898.134l.108.017-.891-.77c0-.017-.2-.634-.2-.634l-.466-.444-.24-.285-.24-.741-.503-.514s-.805-.753-.805-.758c0 0-.029-.124-.045-.2l.144.073.738.428.886.259.915.215 1.06.172-.24-.507a14 14 0 0 0-.544-.24l-.48-.284-.6-.255-.526-.216-.531-.688.46.313c.014 0 .479.043.479.043h1.437l.585.32.498.538.068.072-.063-.605c0-.019-.32-.413-.32-.413l-.854-.479-.721-.231-1.025-.18-.195-.239-.74-.683-.36-.185-.18-.189h.38l.58.354.78.254.99.143.367.423.536.328c.012 0 .609.11.609.11l.084.014-1.241-1.551-.609-.33-.704-.22-.621-.718-.783-.478-.561-.136c.036-.057.15-.239.15-.251s.626-.258.626-.258l.906-.175q.058-.114.096-.239a4 4 0 0 0-.398-.29l-.465-.147a3 3 0 0 0-.273.146l-.76.03-.908-.215-.939-.784-.429-.217c-.012 0-1.553-.184-1.557-.184s-.364-.56-.364-.56l-.494-.543-.633-.57-.019.04-.21.478-.21.318c0 .057.032.37.032.37s.216.24.218.24-.079.325-.079.327-.846.012-.846.012l-.692-.32-.53-.18-1.243.036c-.024.014-.24.337-.24.337l-.026.04.541.08.125.081-.14.115-.754-.043-.539.217-.055.024.261.175 1.14.043.837.215c0 .012.16.24.16.24s.113.157.154.221l-.357.199-1.016.43-2.111 1.196-1.392.205-.542.301-.438.6-.24.746c-.019 1.256.031 1.284.05 1.296a.78.78 0 0 0 .683.082 6.4 6.4 0 0 1 1.35-.419c.172-.036.256.027.27.091.014.065-.034.167-.165.203l-.072.022c-.614.167-1.241.368-1.222.605l.11.179c.44.15.917.156 1.361.017l.395-.11c.338-.13.698-.192 1.06-.182.194.035.382.101.555.196.32.175.674.28 1.038.308.453.01.902.094 1.327.252.07.251.066.518-.014.767l-.04.227c-.214 1.944-2.383 4.139-3.425 5.193q-.28.254-.508.555l-.12.274a.89.89 0 0 1-.515.615 8.6 8.6 0 0 0-1.157.798 7 7 0 0 1-1.931 1.224 14 14 0 0 1-2.511-1.508c-1.946-1.884-2.76-1.497-3.247-1.27l-.08.036c-.579.263-1.197 1.913-1.243 2.262l-.24 1.014-.179.745c-.053.24-.292.868-.522 1.469l-.48 1.3a8 8 0 0 1-.416 1.069l-.209.507a14.3 14.3 0 0 0 .103 4.143l.012.012.05.014c.24-.026.794-.586 1.052-.856l.06-.062a2.1 2.1 0 0 0 .456-1.061 4.4 4.4 0 0 0-.159-.892 5.8 5.8 0 0 1-.155-2.594l.026-.22c.088-.28.255-.529.48-.717l.282-.325a1 1 0 0 1 .48-.335l.239-.141.036-.04a2.16 2.16 0 0 0 .57-.826l.24-1.03.05-.273a.11.11 0 0 1 .086-.095.35.35 0 0 1 .3.133l1.722 2c.345.258.646.57.894.922h-.012q-.838-.08-1.653-.292c-1.649-.478-2.396-.397-2.983.33-.662.832-.453 3.383-.319 3.66s.719 3.36.757 3.776c.019.453.137.896.348 1.298l.043.045c.388.34.675.779.831 1.27.366.912.99 1.699 1.797 2.264a.22.22 0 0 0 .206-.038c.357-.256.52-1.492.54-2.016a1.82 1.82 0 0 0-.46-1.303l-.096-.134a1.3 1.3 0 0 0-.72-.399c-.088-.026-.212-.055-.212-.081s-.027-.957-.331-1.148a2.9 2.9 0 0 1-.506-1.418 6 6 0 0 0-.342-1.556 3 3 0 0 1-.257-1.58.35.35 0 0 1 .324-.316.63.63 0 0 1 .53.141c.743.58 1.553 1.068 2.412 1.456a5.7 5.7 0 0 1 1.294.928q.345.316.743.562c.447.108.908.151 1.368.129q.296-.008.59.036c-.207.083-.204.447-.19.564.213 1.501 5.679 5.635 6.098 5.867a16.5 16.5 0 0 1 2.396 2.345c.168.203.268.454.285.717a1.24 1.24 0 0 0 .324.94 1.16 1.16 0 0 0 .821.423c.24 0 .408-.215.528-.373l.023-.036a3.58 3.58 0 0 0 .875-2.056c.062-1.011.532-1.417.68-1.434.07-.012.118 0 .137.052.02.053 0 .122-.096.184a2.23 2.23 0 0 0-.462 1.064l-.053.49c.032.428-.108.85-.388 1.174a6.8 6.8 0 0 0-1.325 3.656 8.7 8.7 0 0 0 1.378 4.409l.072.136.273.459c.3.418.542.874.719 1.358a1.62 1.62 0 0 1-.48.956 27 27 0 0 1-2.317 2.582.82.82 0 0 0-.663.24l-.285.217a.96.96 0 0 0-.417.538.57.57 0 0 1-.22.313l-.109.076c-.021.017-.086.103-.762.785a2.96 2.96 0 0 0-1.006 2.51c.034.27.27.363.959.397a3.92 3.92 0 0 0 2.345-1.435l.024-.136c.058-.328.16-.877.343-.956a4.1 4.1 0 0 0 .855-.837l.055-.055a1 1 0 0 0 .214-.495 1 1 0 0 1 .139-.366.7.7 0 0 1 .265-.181 1.17 1.17 0 0 0 .667-.718 8.1 8.1 0 0 1 2.156-1.874q.444-.286.832-.648c.126-.212.187-.457.174-.703a1.28 1.28 0 0 0-.309-.916 4.4 4.4 0 0 1-.697-1.434c0-.112 0-.318-.029-.705v-.053c0-1.014 1.51-2.006 2.157-2.436l.294-.208c2.363-2.082 2.825-3.668 2.912-4.103l.05-.52c.014-.364.026-.706.24-.752a.39.39 0 0 1 .311.156.3.3 0 0 1 .074.306c-.105.291-.146 3.232-.146 3.347 0 .021.256.308.256.308l.046.053.012-.07c0-.033.139-.834.139-1.118.105-.6.32-1.175.633-1.698v.015c.097.374.143.759.139 1.145a2.2 2.2 0 0 1-.307 1.276 6.6 6.6 0 0 0-.822 1.586l-.168.39a.5.5 0 0 0-.026.167c.019.454.126.9.316 1.315.034.033.06.033.08.026.019-.007.078-.067.078-.378a3 3 0 0 1 1.01-2.058 3.78 3.78 0 0 0 1.09-2.953q0-.672-.113-1.334l-.422-.617c-.01-.014.132-.084.17-.115.038.046.436.581.436.581q.166.216.24.478c0 .45.054.898.16 1.335l.015.074q.23.72.532 1.41l.045.11.012-.122a4.3 4.3 0 0 0 0-1.013q-.03-.468.062-.928l.077-.791c.039-.5-.072-.999-.319-1.435l-.117-.174a.5.5 0 0 1-.086-.16l.086-.039a5.22 5.22 0 0 0 3.074-2.756 6.4 6.4 0 0 0 .386-2.279 11.6 11.6 0 0 0-.28-2.742 3.9 3.9 0 0 1-.058-1.576l.058-.956a2.78 2.78 0 0 1 .687-1.628l.4-.622a1.1 1.1 0 0 0 .017-1.1M32.862 58.61l.812.387a1.2 1.2 0 0 0 .877.055c.297-.231.518-.545.637-.9a.43.43 0 0 0-.064-.405 11.7 11.7 0 0 1-1.086-3.032 10.7 10.7 0 0 1 .089-2.068q.09-.584.072-1.176c-.058-.162-.3-.32-.582-.5l-.444-.3a.91.91 0 0 1-.259-.742l-.045-.442a10 10 0 0 0-2.506-2.556c-.48-.031-.59.478-.62.79q.124.865.38 1.704l.206.863a18.5 18.5 0 0 0 2.267 4.765l.29.495c.13.289.076.516-.146.64a11 11 0 0 1-2.984-.277 9.6 9.6 0 0 1-1.322-.464 5.6 5.6 0 0 0-1.323-.433 1.1 1.1 0 0 0-.62.11l-.204.055-.201-.064a5.7 5.7 0 0 0-1.98-.426c-1.844-.172-1.983.201-2.058.4-.093.258 1.038 1.456 1.24 1.616a2.64 2.64 0 0 0 1.593.44 14 14 0 0 1 1.639-.187l.186.117.178.127q.747.116 1.504.139c.36.019 1.304.215 1.994.358l.771.158q.889.301 1.709.755" fill="#0A0A0A"/><path d="m31.542 57.001.026-.04c.05-.204-.959-.517-1.507-.658a3.85 3.85 0 0 0-1.593-.194h-.012l-.027.046c-.05.2.959.516 1.505.657.514.17 1.056.235 1.596.192zm-4.292-1.434c-.17 0-.304.09-.304.208s.134.205.304.205.297-.095.297-.205-.134-.208-.297-.208m-3.517-.24c-.24 0-.431.137-.431.304s.194.304.43.304c.238 0 .434-.13.434-.304s-.191-.303-.433-.303m8.288 11.526a.75.75 0 0 0-.45.254.76.76 0 0 0-.252.461.14.14 0 0 0 .043.113l.113.045a.74.74 0 0 0 .45-.256c.223-.239.309-.478.208-.573zm1.586-2.292a.7.7 0 0 0-.395.239c-.168.167-.293.401-.2.5l.09.03a.7.7 0 0 0 .397-.239c.165-.17.292-.399.197-.494zm3.62-3.347h-.033c-.523.296-.99.682-1.378 1.14-.05.05-1.253 1.289-1.095 1.449h.039a5.1 5.1 0 0 0 1.377-1.138c.05-.053 1.26-1.289 1.095-1.454zm-3.634-4.803a.274.274 0 0 0-.288.258.27.27 0 0 0 .259.287h.029a.274.274 0 0 0 .215-.456.27.27 0 0 0-.189-.09zm4.988 3.968a.326.326 0 0 0-.33.318.323.323 0 0 0 .318.33h.012a.325.325 0 0 0 .23-.553.33.33 0 0 0-.23-.095m-2.118-2.343.014-.088c0-.053.166-1.286-.215-1.762a.48.48 0 0 0-.328-.184.24.24 0 0 0-.24.098c-.24.373.673 1.798.719 1.86zm-1.323-4.42c0 .012.039.064.084.062h.02l.035-.05.29-.887.24-.59.194-.448q.086-.225 0-.308c-.093-.086-.285-.015-.307 0-.021.014-.546.899-.546.899-.103.18-.153.385-.144.593-.006.254.045.506.149.738M19.34 45.291a.314.314 0 0 0-.297.38.31.31 0 0 0 .247.24.315.315 0 0 0 .373-.304.32.32 0 0 0-.323-.316m-4.68-5.977a.265.265 0 0 0-.275.256.263.263 0 0 0 .275.239.266.266 0 0 0 .278-.24.27.27 0 0 0-.278-.255m1.905-1.105h-.055c-.19.044-.057.87.04 1.301.06.422.217.825.459 1.176h.052c.192-.045.055-.872-.043-1.3a2.6 2.6 0 0 0-.453-1.177m.163-2.919c.14-.186.168-.399.063-.478l-.123-.026a.5.5 0 0 0-.309.225c-.139.186-.165.396-.062.478l.12.024a.5.5 0 0 0 .314-.223m-.36-2.675c.257-.26.437-.584.52-.94.173-.516.266-1.068.096-1.128h-.077a2 2 0 0 0-.522.944c-.175.517-.266 1.07-.1 1.129zm1.598-3.495c-.26 0-.479.127-.479.282s.211.282.48.282c.268 0 .479-.124.479-.282s-.211-.282-.48-.282m4.948 3.213a2.74 2.74 0 0 0-.788 1.262 4.1 4.1 0 0 0-.319 1.277c0 .141.031.24.1.273h.106c.374-.342.647-.778.791-1.263.173-.406.28-.837.319-1.276 0-.144-.031-.24-.099-.27zm-2.7.375.074-.03c.096-.106-.122-.41-.388-.653a1.13 1.13 0 0 0-.609-.357l-.072.031a.1.1 0 0 0-.021.067c.072.234.215.44.41.589.16.178.372.302.606.353m.256 4.488a5.8 5.8 0 0 0-1.507-.533l-.024.057 1.052.794c.175.14.94.617 1.198.423a.12.12 0 0 0 .046-.103c0-.146-.269-.335-.753-.638m10.588 8.662c-.024-.031-2.729-2.965-3.311-3.732s-.882-.85-1.172-.686a.16.16 0 0 0-.076.119c-.041.323.632 1.095 1.222 1.674.824.798 3.266 2.665 3.29 2.684zm11.44 2.847h-.015a.53.53 0 0 0-.254.285.4.4 0 0 0 .086.322l.067.122.026.24.044.35a.17.17 0 0 0 .17.12.26.26 0 0 0 .225-.208q.08-.387.07-.782c0-.315-.391-.437-.405-.444m-7.416-4.055a.17.17 0 0 0 .18.029.3.3 0 0 0 .194-.254c.044-.226.153-.434.313-.6a.54.54 0 0 0-.03-.748l-.24-.09a.42.42 0 0 0-.26.123c0 .02-.22 1.095-.22 1.095-.021.063-.04.352.056.445m14.232-4.454h-.062s.017.478.017 1.088a12.7 12.7 0 0 1-.183 2.594c-.31.68-.698 1.32-1.154 1.912l-.532.799a.2.2 0 0 0-.024.09.24.24 0 0 0 .11.202c.055.035.24.131.517-.192l.343-.36a5 5 0 0 0 1.419-2.265c.436-1.367-.439-3.854-.449-3.878m-13.813-.688c.424.198.575.268.638.29h.045l-.029-.034v-.012l-.026-.015a15.4 15.4 0 0 1-2.31-4.339.88.88 0 0 0-.292-.598.42.42 0 0 0-.364 0 .11.11 0 0 0-.075.08.3.3 0 0 0-.019.136c.14.85.41 1.674.8 2.443 1.084 1.764 1.618 2.056 1.637 2.068m-4.035-6.52a.29.29 0 0 0 .115-.284c-.029-.533-.172-.593-.467-.593a.55.55 0 0 0-.51.454q.001.218.311.378a.63.63 0 0 0 .549.045m-4.845-2.465.357-.064a7 7 0 0 1 1.38-.194c.42.011.836.092 1.23.24.303.102.454.148.517.08.062-.066.012-.1 0-.143-.094-.198-.496-.85-1.812-.882a2.19 2.19 0 0 0-1.7.808q-.048.073-.025.115l.014.019zm7.667.467c.142 0 .261-.086.261-.196s-.12-.196-.26-.196c-.142 0-.262.088-.262.196 0 .107.117.196.261.196m.264-.536c.148 0 .27-.086.27-.196s-.12-.194-.27-.194-.273.087-.273.194.124.196.273.196m.273-.56a.24.24 0 1 0-.11-.466.24.24 0 0 0 .11.467m.24-1.278a.267.267 0 0 0-.24.327.265.265 0 0 0 .363.181.27.27 0 0 0 .162-.24.277.277 0 0 0-.285-.268m.51-.505a.28.28 0 0 0-.295-.265.269.269 0 0 0-.226.427c.04.054.1.091.166.104h.06a.28.28 0 0 0 .295-.266m.297-.849a.368.368 0 1 0-.724-.135.368.368 0 0 0 .724.136m.158-.877a.348.348 0 0 0-.357-.43.35.35 0 0 0-.314.463.35.35 0 0 0 .33.235.314.314 0 0 0 .341-.268m.297-.698c0-.153-.203-.268-.479-.268s-.465.115-.465.268.209.268.465.268.48-.12.48-.268m-.7-.827c0 .138.17.253.398.253s.393-.115.393-.253c0-.139-.17-.254-.393-.254-.222 0-.397.11-.397.254m.017-.457c.11.068.243.09.37.065.239-.031.392-.158.373-.29l-.067-.107a.5.5 0 0 0-.367-.065c-.24.031-.392.16-.373.29zm.381-.746c.206-.017.357-.129.343-.26l-.067-.12a.45.45 0 0 0-.316-.076c-.2.016-.345.124-.345.239v.014l.067.115a.42.42 0 0 0 .316.079m.113-1.289c-.183 0-.329.108-.329.239 0 .132.146.24.329.24.182 0 .325-.108.325-.24 0-.131-.146-.239-.325-.239m-.012-.77a.24.24 0 0 0-.175.31.24.24 0 0 0 .197.16.24.24 0 0 0 .27-.23.263.263 0 0 0-.292-.24m.012-.61a.213.213 0 0 0-.154.278.212.212 0 0 0 .294.122.21.21 0 0 0 .12-.192.24.24 0 0 0-.26-.207m-.214-.478a.225.225 0 0 0 .24.22.22.22 0 0 0 .22-.22.22.22 0 0 0-.22-.22.22.22 0 0 0-.22.132.2.2 0 0 0-.02.088m.11-.91a.22.22 0 0 0-.203.264.218.218 0 1 0 .414-.13.22.22 0 0 0-.206-.135m-3.881 3.725-.108-.012c-.288.074-.779.923-1.122 1.552l-.062.108-1.028 1.934-.32.616a.15.15 0 0 0 .028.192.18.18 0 0 0 .24 0c.422-.353.79-.767 1.087-1.23l.389-.532a4.6 4.6 0 0 0 .697-1.122l.057-.148c.396-1.02.456-1.178.14-1.372m1.33-2.7a.17.17 0 0 0-.217-.073l-.184.136q-.19.181-.431.282c-.343.09-.805.24-.832.478v.029a.14.14 0 0 0 .058.124c.13.105.443.043.67-.043.315-.117.6-.3.837-.535.168-.153.16-.306.1-.4m-1.708.132a.18.18 0 0 0 .094.181.24.24 0 0 0 .297-.107l.263-.24a2 2 0 0 0 .441-.394c.13-.17.074-.272.026-.315a.31.31 0 0 0-.333-.055l-.076.05a1.63 1.63 0 0 0-.678.698.6.6 0 0 0-.034.172m-1.334-.717-.367.29-.026.028a.117.117 0 0 0-.039.158l.043.064.099-.021.141-.05.206-.036a.96.96 0 0 0 .525-.16l.136-.225.202-.325c.098-.105.1-.182.088-.223a.11.11 0 0 0-.093-.074.18.18 0 0 0-.18.067q-.35.288-.73.533m-3.38-.026a.24.24 0 0 0 .2-.372.24.24 0 1 0-.2.372m-1.065-1.52c-.053.05-.031.157-.015.239v.095a.1.1 0 0 0 0 .105q.03.05.166.048c.09 0 .127 0 .167-.114l.032-.08a.24.24 0 0 0 0-.183.37.37 0 0 0-.255-.142.1.1 0 0 0-.095.022m-.887-.103a.38.38 0 0 0-.323.182l-.08.09a.8.8 0 0 0-.16.62c0 .088.031.25.12.306.17.103.24.031.424-.136l.134-.115a.9.9 0 0 0 .393-.555.31.31 0 0 0-.074-.256.6.6 0 0 0-.434-.14m2.396-.591.072-.022.59-.239.857-.562c.024-.016.24-.188.201-.296s-.143-.06-.225-.046c-.25.062-.492.155-.718.278l-.348.162-.15.065c-.533.22-.96.416-.885.62.048.119.273.13.601.033m3.43.294a.3.3 0 0 0 .215-.113.75.75 0 0 0 0-.75.7.7 0 0 0-.563-.416h-.048l-.41.036a.64.64 0 0 0-.462.363.19.19 0 0 0 .043.206c.313.363.745.603 1.22.678m4.502-.363c.028-.088.055-.17 0-.215-.056-.046-.108-.036-.24 0a.98.98 0 0 0-.537.904l-.012.095c-.026.141.046.192.089.206a.52.52 0 0 0 .48-.184c.066-.11.43-.208.701-.285l.103-.026c.122-.036.187-.081.197-.148s-.082-.16-.168-.208-.19-.017-.31.019a.54.54 0 0 1-.325.031c-.046-.02-.029-.096 0-.2m-.52-2.028a.19.19 0 0 0-.089.208l.017.064c.02.077.029.091.096.098l.125.022a.48.48 0 0 0 .479-.187c.019-.04.033-.122-.077-.198a.5.5 0 0 0-.544 0m-.199-.581.168.086a.2.2 0 0 0 .139.117.24.24 0 0 0 .199-.05q.065-.051.026-.182a.41.41 0 0 0-.34-.284c-.197 0-.376.021-.376.17 0 .08.093.11.182.14m-3.434 1.418c.12.034.25.02.36-.04.199-.091.316-.254.268-.366l-.096-.084a.48.48 0 0 0-.352.04c-.172.077-.28.202-.28.312a.1.1 0 0 0 .012.055z" fill="#fff"/></g><defs><clipPath id="a"><path fill="#fff" d="M0 0h65v88H0z"/></clipPath></defs></svg>