<svg xmlns="http://www.w3.org/2000/svg" viewBox="0 0 700 700" width="700" height="700"><g style="fill:none;fill-rule:evenodd"><path d="M71.807 27V16.343h15.397V27H91V4h-3.796v9.071H71.807V4H68v23zm33.248-4.067c-1.224.811-2.878 1.258-4.656 1.258-2.264 0-3.786-.981-3.786-2.44 0-1.494 1.04-2.205 3.709-2.537l3.673-.44c1.462-.178 2.394-.359 2.982-.762l.001 1.721c0 1.242-.682 2.377-1.923 3.2m2.186 1.625c.378 1.802 1.679 2.063 3.042 2.063.853 0 1.836-.073 2.565-.191l.152-.025-.001-2.568-.217.042a6.5 6.5 0 0 1-1.102.122c-.91 0-1.282-.36-1.283-1.242l-.002-8.888C110.394 9.633 105.37 9 102.377 9c-5.479 0-8.22 1.873-8.631 5.894l-.02.193h3.431l.007-.169c.079-2.092 1.742-3.108 5.084-3.108 3.314 0 4.727.757 4.728 2.534 0 1.293-.901 1.614-2.795 1.81l-3.706.379c-5.38.559-7.476 2.048-7.475 5.312 0 1.55.694 5.155 7.107 5.155 2.407 0 5.573-.767 7.134-2.442m20.737-4.825c0 1.242-.682 2.377-1.923 3.2-1.224.811-2.878 1.258-4.656 1.258-2.264 0-3.786-.981-3.786-2.44 0-1.494 1.04-2.205 3.709-2.537l3.674-.44c1.46-.178 2.394-.359 2.981-.762zm5.804 4.146a6.5 6.5 0 0 1-1.102.122c-.91 0-1.281-.36-1.282-1.242l-.003-8.888C131.394 9.633 126.371 9 123.377 9c-5.478 0-8.22 1.873-8.631 5.894l-.02.194h3.431l.007-.17c.079-2.092 1.742-3.108 5.084-3.108 3.314 0 4.728.757 4.729 2.535 0 1.292-.901 1.613-2.795 1.81l-3.707.378c-5.38.559-7.476 2.048-7.475 5.312 0 1.55.694 5.155 7.107 5.155 2.407 0 5.573-.767 7.134-2.442.378 1.802 1.679 2.063 3.043 2.063.852 0 1.835-.073 2.564-.191l.152-.025-.001-2.568ZM135 20.881l.013.188c.286 3.936 3.17 5.931 8.575 5.931 2.604 0 4.654-.474 6.094-1.407 1.539-.998 2.319-2.482 2.318-4.41 0-2.557-1.87-4.004-5.886-4.555l-4.448-.599c-2.166-.306-2.577-.895-2.577-1.874 0-.813.44-1.43 1.308-1.834.71-.33 1.718-.511 2.84-.511 3.377 0 4.666 1.51 4.747 2.922l.008.166h3.49l-.017-.191C151.14 11.027 148.23 9 143.268 9c-2.307 0-4.233.499-5.571 1.442-1.368.964-2.09 2.368-2.09 4.06 0 2.72 2.312 4.247 4.602 4.554l5.17.693c2.468.342 2.95 1.004 2.95 2.033.001.443-.157 1.078-.911 1.583-.82.548-2.14.826-3.926.826-3.682 0-4.995-1.62-4.996-3.134v-.176z" style="fill:#e6002d" transform="translate(2.358 805.433)scale(4.57427)"/><path d="M78.999 31H68v15h2.39v-6.537h8.208l-.002-2.254H70.39v-3.955H79Zm6.888 0-.014.17c-.146 1.668-1.551 2.514-4.18 2.514H81l.001 1.968h4.39L85.395 46H88l-.008-15ZM108 33.254V31H95l.001 2.254h5.286V46h2.434V33.254Zm5.097 3.687c1.78 0 3.069.943 3.41 2.474h-6.955c.346-1.488 1.744-2.474 3.545-2.474m.098-1.941c-1.941 0-3.55.566-4.65 1.638-.997.97-1.546 2.342-1.545 3.862.002 3.341 2.435 5.5 6.2 5.5 1.97 0 4.453-.913 5.511-3.476l.096-.235h-2.475l-.047.1c-.72 1.507-2.467 1.67-3.184 1.67-1.602 0-3.377-.986-3.626-2.817H119v-.418c-.003-4.295-3-5.824-5.805-5.824m15.099 6.546c0 .728-.395 1.395-1.112 1.878-.716.483-1.684.748-2.725.748-1.304 0-2.18-.565-2.18-1.408-.001-.87.58-1.269 2.141-1.466l2.18-.266c.797-.099 1.334-.2 1.695-.406v.92zm3.497 2.44a3.6 3.6 0 0 1-.64.072c-.5 0-.695-.192-.696-.684v-5.367c0-2.617-3.025-3.007-4.826-3.007-3.291 0-4.94 1.15-5.186 3.618l-.02.188h2.173l.006-.165c.045-1.22 1.01-1.814 2.95-1.814 1.92 0 2.74.439 2.74 1.466 0 .734-.493.91-1.599 1.027l-2.2.23c-3.192.337-4.494 1.285-4.493 3.272 0 .956.42 3.178 4.284 3.178 1.4 0 3.23-.442 4.196-1.407.269 1.029 1.072 1.179 1.842 1.179.507 0 1.094-.045 1.533-.117l.145-.024v-1.687zM152 38.81c-.002-3.008-2.577-3.81-4.098-3.81-1.775 0-3.102.568-4.156 1.784-.793-1.153-2.035-1.784-3.524-1.784-.996 0-2.754.218-3.897 1.595v-1.242H134V46h2.329l-.003-6.109c0-.893.33-1.638.956-2.154.574-.473 1.373-.733 2.252-.733 1.051 0 2.304.395 2.305 2.278l.003 6.718h2.324v-6.404c0-.846.316-1.507.945-1.963.559-.406 1.362-.63 2.26-.63 1.051 0 2.304.396 2.305 2.279L149.68 46H152Z" style="fill:#000" transform="translate(2.358 805.433)scale(4.57427)"/><path d="M31.281 44.277c-5.187 0-9.867-2.091-13.312-5.485h5.351s15.378-27.401 15.432-27.51c.075-.112.037-.185-.07-.185h-6.276c-.127 0-.146.038-.181.092-.037.055-8.67 15.26-8.67 15.26h-11.28A18 18 0 0 1 12.222 25c0-10.638 8.522-19.278 19.06-19.278 5.367 0 10.228 2.257 13.692 5.889-1.504 2.568-8.252 14.158-9.158 15.846-.526-1.23-2.957-.99-4.208-1.01-.545.917-3.1 5.797-3.1 5.797s1.412-.018 2.682 0c1.234.02 1.38 1.32.89 2.146-.491.826-2.505 4.4-2.505 4.4h6.476s7.945-14.03 12.46-22.007A19.2 19.2 0 0 1 50.34 25c0 10.639-8.54 19.276-19.06 19.276M13.618 32.245H20.2l-3.175 5.557a20 20 0 0 1-3.408-5.557M31.28 0C17.624 0 6.563 11.19 6.563 25.001c0 .494.016.97.035 1.448H3.37c-.181 0-.272.11-.345.24-.054.128-2.92 5.227-2.993 5.355-.054.128-.054.201.092.201h7.49C10.678 42.515 20.11 50 31.28 50 44.938 50 56 38.81 56 25.001 56 11.189 44.938 0 31.281 0" style="fill:#e6002d" transform="translate(2.358 805.433)scale(4.57427)"/><path d="M88.984 31.935q.061 0 .116-.005a.3.3 0 0 0 .097-.022.15.15 0 0 0 .067-.058.2.2 0 0 0 .026-.108q0-.059-.023-.094a.15.15 0 0 0-.058-.054.3.3 0 0 0-.083-.025 1 1 0 0 0-.092-.007h-.239v.373zm.08-.52q.207 0 .307.083t.1.252q0 .158-.088.231a.4.4 0 0 1-.218.088l.332.516h-.194l-.316-.504h-.192v.504h-.18v-1.17zm-.821.922a.808.808 0 0 0 1.34.272.8.8 0 0 0 .174-.272.9.9 0 0 0 .062-.341q0-.18-.062-.335a.83.83 0 0 0-.433-.448.8.8 0 0 0-.321-.066.81.81 0 0 0-.76.514.9.9 0 0 0-.062.335q0 .185.062.341m-.163-.735a1 1 0 0 1 1.308-.525.99.99 0 0 1 .612.919 1 1 0 0 1-.295.719 1 1 0 0 1-.702.285 1 1 0 0 1-.707-.285 1.01 1.01 0 0 1-.216-1.113" style="fill:#000" transform="translate(2.358 805.433)scale(4.57427)"/></g><g style="fill:none;fill-rule:evenodd"><path d="M190.399 71.35c-10.369 0-19.724-4.18-26.61-10.964h10.696s30.74-54.774 30.848-54.991c.15-.224.074-.37-.14-.37h-12.546c-.253 0-.291.076-.361.184-.074.11-17.331 30.504-17.331 30.504h-22.549a37 37 0 0 1-.106-2.897c0-21.265 17.036-38.536 38.1-38.536 10.729 0 20.446 4.512 27.37 11.772-3.006 5.134-16.495 28.302-18.306 31.676-1.052-2.459-5.911-1.98-8.412-2.02-1.09 1.834-6.197 11.589-6.197 11.589s2.823-.036 5.362 0c2.466.04 2.758 2.638 1.779 4.29-.982 1.65-5.008 8.795-5.008 8.795h12.946s15.881-28.045 24.907-43.991a38.4 38.4 0 0 1 3.656 16.425c0 21.267-17.071 38.532-38.1 38.532m-35.306-24.05h13.157l-6.347 11.11a40 40 0 0 1-6.812-11.11m35.308-64.456c-27.298 0-49.409 22.369-49.409 49.976 0 .988.032 1.94.07 2.895h-6.452c-.362 0-.544.22-.69.48-.108.255-5.837 10.448-5.983 10.704-.108.256-.108.402.184.402h14.972c6.125 20.53 24.98 35.491 47.308 35.491 27.301 0 49.414-22.368 49.414-49.972 0-27.61-22.113-49.976-49.412-49.976" style="fill:#e6002d;stroke-width:1.99896419" transform="translate(-516.93 195.89)scale(4.57427)"/></g></svg>