<svg width="106" height="106" viewBox="0 0 106 106" fill="none" xmlns="http://www.w3.org/2000/svg"><g clip-path="url(#a)" fill="#000"><path d="M23.86 21.637c1.836-.465 3.743-.637 5.64-.637 2.361-.05 4.823.414 6.81 1.749 1.323.869 2.311 2.304 2.493 3.89.131 1.527-.09 3.185-1.05 4.438-1.079 1.405-3.056 1.87-4.721 1.415a1.82 1.82 0 0 1-1.18-.98c1.018-.83 2.037-1.77 2.542-3.012.343-.769.161-1.668-.202-2.396-.464-.92-1.342-1.587-2.31-1.9-1.383-.455-2.876-.344-4.299-.182-1.806.243-3.642.9-4.913 2.254-1.11 1.152-1.676 2.74-1.797 4.316-.04.616-.09 1.263.142 1.86.252.717.767 1.303 1.311 1.809.898.819 1.938 1.445 2.997 2.041 2.432 1.355 4.995 2.487 7.376 3.932 1.322.819 2.613 1.739 3.592 2.972.686.87 1.16 1.94 1.17 3.052.01 1.415-.252 2.84-.837 4.124-.767 1.698-2.059 3.113-3.582 4.164-2.603 1.78-5.741 2.679-8.86 2.932.072 0 .213 0 .283.01-1.473.06-2.976.212-4.419-.203-1.15-.313-2.23-.97-2.956-1.92-.606-.798-.959-1.769-1.06-2.77-.14-2.203.263-4.517 1.504-6.377.938-1.425 2.502-2.416 4.187-2.638.827-.111 1.776-.212 2.502.293.545.354.777 1.01.888 1.617-1.412.495-2.764 1.304-3.693 2.497a5.97 5.97 0 0 0-1.271 4.043c.131.94.848 1.728 1.705 2.082.959.424 2.038.323 3.047.151 2.14-.394 4.268-1.273 5.812-2.85a6.6 6.6 0 0 0 1.857-4.942c-.04-.566-.283-1.102-.606-1.567-.646-.88-1.564-1.496-2.472-2.062-2.734-1.607-5.73-2.719-8.425-4.397-1.645-1.02-3.249-2.264-4.197-3.992a6.2 6.2 0 0 1-.767-3.144c-.02-2.243.585-4.578 2.058-6.317 1.433-1.758 3.542-2.8 5.701-3.355"/><path d="M47.077 26.872c.797-.242 1.634-.505 2.482-.374-.02.263-.05.516-.101.769-.515 2.213-1.05 4.427-1.574 6.64 1.332-.293 2.664-.566 4.006-.728.524-.03 1.12-.12 1.574.203a.66.66 0 0 1 .262.748c-.111.333-.353.606-.545.889-.414.556-.817 1.142-1.291 1.648-.243.262-.586.373-.929.434-1.392.263-2.774.596-4.147.94-.595 2.143-1.18 4.296-1.695 6.469-.151.717-.343 1.425-.423 2.153-.03.505.04 1.071.393 1.455.353.354.908.303 1.342.162 1.11-.374 2.109-1.021 3.098-1.627.11-1.335.343-2.669.887-3.902.838-1.98 2.28-3.73 4.137-4.831 1.09-.627 2.331-1.082 3.602-.99.575.05.717.717 1.17.97.657.323 1.454-.071 2.1.262.464.354.423 1.021.403 1.537-.172 2.254-1.06 4.396-1.09 6.67.03.617.02 1.274.303 1.84.162.374.656.273.949.121.615-.343 1.08-.9 1.503-1.455.212-.303.464-.586.555-.95 1.13-5.529 2.643-10.977 3.995-16.455.202-.88.444-1.759.545-2.658 1.02-.303 2.18-.415 3.158.07.727.364 1.02 1.244.929 2.012-.192 2.021-.878 3.962-1.494 5.882-.454 1.415-.989 2.82-1.25 4.286 1.472-.768 2.713-1.89 3.914-3.032a49 49 0 0 0 3.36-3.588c.686.161 1.433.343 1.937.879.374.364.333.98.07 1.405-.413.707-1.028 1.263-1.603 1.84-1.716 1.576-3.542 3.032-5.409 4.416.273 2.184.777 4.357 1.574 6.419.727 1.84 1.706 3.648 3.189 4.982 1.06.97 2.432 1.607 3.874 1.719 2.422.141 4.975-.394 6.902-1.94.353-.274.666-.617 1.09-.759.343 1.031.1 2.234-.656 3.012-.939.98-2.27 1.445-3.572 1.728-1.766.344-3.592.425-5.368.142-2.048-.344-4.016-1.324-5.459-2.82-1.12-1.092-1.977-2.426-2.653-3.84-1.11-2.376-1.695-4.964-2.008-7.571-.323.89-.444 1.83-.565 2.759-.151 1.223-.192 2.446-.262 3.68-.04.707 0 1.424-.142 2.132-.494.394-1.13.535-1.725.677-.757.131-1.655.192-2.28-.334-.535-.444-.586-1.182-.586-1.819-.514.748-1.13 1.476-1.937 1.92-.625.364-1.412.243-2.028-.07-.777-.405-1.261-1.183-1.604-1.951-1.11 1.092-2.503 1.971-4.066 2.173-1.191.172-2.503-.182-3.34-1.081-.313-.324-.525-.718-.717-1.122-1.584 1.111-3.38 1.97-5.327 2.163-.959.06-1.998.07-2.855-.435-.787-.414-1.251-1.274-1.332-2.143-.091-.95.1-1.89.252-2.83.394-2.203.918-4.376 1.463-6.55-1.12.425-2.24.85-3.4 1.143-.424.1-.868.182-1.302.1-.494-.13-.847-.545-1.12-.95a7.1 7.1 0 0 1-.847-2.04c2.532-.91 5.085-1.74 7.638-2.619.444-1.647.867-3.305 1.311-4.952.303-1.385 1.352-2.649 2.735-3.012zm9.666 13.322c-1.2 1.02-2.089 2.365-2.785 3.78-.464 1.041-.918 2.153-.807 3.315.03.486.353.97.847 1.062a2.53 2.53 0 0 0 1.928-.465c.938-.708 1.432-1.83 1.775-2.921.525-1.8.737-3.69.717-5.57-.626.091-1.201.384-1.675.789z"/><path d="M81.897 37.88c1.1-.587 2.36-.971 3.612-.84 1.1.102 2.21.546 2.946 1.395.555.647.474 1.567.404 2.365-.202 1.729-1.413 3.204-2.936 3.963-1.534.788-3.31.93-5.005.818-.06.788-.1 1.678.434 2.315.403.515 1.1.697 1.735.667a5 5 0 0 0 2.432-.576c.716-.395 1.302-.97 1.897-1.516.605.353 1.1.97 1.15 1.698-.02.525-.484.879-.837 1.213-1.564 1.293-3.592 2.082-5.63 1.98-1.363-.04-2.745-.505-3.724-1.485-1.029-1.021-1.533-2.497-1.584-3.932-.07-1.597.444-3.184 1.312-4.518a10.7 10.7 0 0 1 3.824-3.558zm2.936 1.222c-.848.475-1.493 1.233-2.038 2.022-.676.99-1.241 2.072-1.484 3.254a4.5 4.5 0 0 0 3.31-1.324c.878-.89 1.584-2.062 1.574-3.355 0-.293.04-.627-.182-.85-.413-.1-.827.071-1.19.263zM39.429 62.703c.716-.283 1.574.374 1.442 1.142-.03.819-1.12 1.274-1.735.738-.666-.475-.484-1.637.293-1.88m-.02.172c-.646.253-.747 1.233-.172 1.617.535.445 1.423.04 1.493-.637.121-.697-.696-1.303-1.322-.98m-11.895-.02h4.47v1.263c-1.04-.01-2.08 0-3.118 0v1.284h3.067v1.283h-3.067v2.679h-1.352zm8.707.01h1.1v6.499h-1.372v-4.407l-.606.637c-.292-.303-.595-.607-.888-.91.575-.616 1.18-1.203 1.766-1.82m9.979-.009h5.065v1.263c-.616-.01-1.241 0-1.857 0v5.246h-1.372v-5.246H46.19v-1.263zm8.203.01c1.503-.02 2.997 0 4.5 0v1.263h-3.128v1.284h3.047v1.294h-3.047v1.374c1.04.02 2.079-.03 3.118.03v1.264c-1.504 0-2.997.01-4.5 0v-6.489zm9.868-.01h1.332a730 730 0 0 0 2.623 6.499h-1.493c-.172-.435-.343-.87-.525-1.304h-2.532l-.515 1.304h-1.483c.857-2.173 1.735-4.336 2.603-6.5zm.666 1.84c-.263.697-.545 1.404-.808 2.102h1.615c-.232-.718-.525-1.405-.797-2.103zm6.164-1.84h1.575c.534 1.314 1.06 2.638 1.614 3.952.525-1.324 1.08-2.638 1.604-3.962h1.574v6.499h-1.372c-.02-1.193.02-2.396-.02-3.588-.454 1.212-.959 2.395-1.443 3.588h-.716c-.485-1.203-.979-2.396-1.463-3.599-.01 1.203 0 2.406 0 3.599H71.11v-6.51z"/><path d="M39.368 63.087c.293 0 .585.04.878.101 0 .182.01.364.01.556-.06.02-.192.07-.262.091.1.192.201.384.292.586-.252-.202-.454-.444-.706-.647-.03.243-.07.475-.1.718-.142-.455-.112-.93-.112-1.395zm.182.152v.475c.171 0 .353-.01.524-.01l.03-.334c-.16-.121-.363-.09-.554-.121zm13.6 14.191c.556-.587 1.403-.799 2.19-.759.777.04 1.544.192 2.27.455-.1.384-.201.768-.312 1.153-.787-.112-1.584-.253-2.371-.182-.687.05-1.11.96-.687 1.506.636.546 1.554.657 2.14 1.293.464.526.423 1.304.343 1.961-.121.91-.818 1.668-1.675 1.94-1.221.405-2.563.153-3.744-.282.081-.384.172-.778.263-1.162.968.1 1.977.384 2.936.09.474-.13.666-.667.605-1.121.02-.415-.413-.607-.716-.769-.676-.343-1.514-.636-1.826-1.384-.303-.92-.122-2.042.585-2.74m-36.283-.626c.898-.04 1.796.01 2.694 0v1.769h.898v-.9h.898v-.87h2.663v2.68h-.867c-.02.303-.05.606-.05.909h-.858v.91h.898v.89h.867v2.678c-.888-.01-1.786 0-2.674 0v-.87h-.898v-.9h-.898v1.78c-.898 0-1.796.01-2.693 0v-8.036zm8.062 0c.898-.081 1.796.03 2.694 0v8.045h-2.705v-8.045zm4.49 0c.726-.07 1.462-.03 2.2-.04.746 0 1.503-.02 2.26.02v2.688h-2.685v2.699h2.684v2.678h-4.47v-.859c-.302-.01-.605-.03-.908-.05v-6.267h.898v-.859zm5.367-.01c.888-.07 1.786.05 2.674 0v1.779h.888v-.88q.454-.03.908-.03v-.9c.898 0 1.786.01 2.684.03v2.68h-.898v.899h-.898v.9h.908v.899h.888v2.678h-2.684v-.869c-.303 0-.605-.02-.908-.04v-.87h-.888v1.78h-2.684v-8.056zm11.836.01h.605c.01 2.678 0 5.367 0 8.045h-.595c-.01-2.678 0-5.367 0-8.045zm13.369.02h2.835c-.09.98-.06 1.961-.1 2.941-.082 1.688-.092 3.376-.162 5.074H60.94c.02-.465.04-.93.04-1.405-.776.01-1.553-.03-2.33.04-.202.456-.394.91-.606 1.355H56.42c1.2-2.668 2.401-5.326 3.582-8.005zm.867 1.638c-.534 1.182-1.049 2.375-1.584 3.557h1.766c.07-1.293.111-2.587.172-3.88-.121.1-.293.15-.354.312zm3.814-1.638h1.625c-.424 1.84-.868 3.67-1.272 5.509-.06.374-.191.94.253 1.132.514.161 1.15.202 1.604-.142.424-.384.505-.99.636-1.516.363-1.657.797-3.305 1.13-4.973.545-.01 1.1 0 1.644 0-.413 1.78-.817 3.558-1.23 5.327-.212.87-.556 1.799-1.322 2.325-.888.606-2.049.626-3.058.374-.565-.132-1.11-.516-1.27-1.102-.162-.667-.031-1.365.11-2.032.384-1.627.757-3.264 1.13-4.892zm6.72 0h2.916c.575 0 1.2.142 1.594.576.434.516.424 1.264.273 1.89-.162.627-.686 1.072-1.2 1.415.282.213.594.455.675.82.151.777.02 1.647-.504 2.273-.555.708-1.484 1.031-2.361 1.031h-3.23c.606-2.668 1.232-5.337 1.837-8.005m1.292 1.395c-.131.637-.293 1.273-.424 1.92.494 0 1.009.05 1.503-.05.555-.132.898-.728.828-1.284a.53.53 0 0 0-.485-.566c-.474-.04-.948-.01-1.412 0zm-1.19 5.215c.564-.01 1.14.04 1.704-.03.565-.111.868-.738.848-1.284a.593.593 0 0 0-.535-.626c-.514-.05-1.04-.01-1.554-.02-.151.656-.302 1.303-.454 1.95zm6.285-6.62h4.682c-.101.475-.212.95-.323 1.415-1.03 0-2.058-.02-3.088 0-.11.637-.282 1.264-.403 1.89h2.401c-.09.475-.202.94-.333 1.405h-2.401c-.141.627-.283 1.243-.434 1.86h3.077c-.1.475-.222.94-.312 1.415-1.574.01-3.148 0-4.722 0 .615-2.669 1.22-5.337 1.836-8.015zm5.55 0c.887 0 1.785-.01 2.673.01.656.04 1.373.243 1.756.819.403.606.363 1.374.303 2.072-.121 1.03-.808 1.94-1.746 2.375.222.91.424 1.83.646 2.74h-1.625c-.181-.85-.353-1.699-.534-2.538h-1.13c-.182.85-.384 1.698-.586 2.537h-1.624c.615-2.668 1.22-5.347 1.846-8.015zm1.311 1.395c-.212.89-.424 1.789-.625 2.678.585-.03 1.23.142 1.755-.202.505-.384.737-1.071.666-1.688-.04-.293-.141-.657-.474-.738-.434-.09-.878-.04-1.322-.05"/></g><circle opacity=".25" cx="53" cy="53" r="53" fill="#E8E8E8"/><defs><clipPath id="a"><path fill="#fff" d="M16 21h73v64H16z"/></clipPath></defs></svg>