<svg width="77" height="64" viewBox="0 0 77 64" fill="none" xmlns="http://www.w3.org/2000/svg"><g clip-path="url(#a)"><path d="M3.59 59.068c.131.11.305.237.588.237a1 1 0 0 0 .478-.132c.892-.435 1.801-2.085 1.822-2.174.089-.262-.215-.499-.588-.803l-.042-.043c-.173-.13-.478-.11-.672.021-.152.09-.284.195-.436.284-.456.304-.934.609-1.433 1.045-.174.152-.284.435-.305.651a.6.6 0 0 0 .09.414c.062.043.413.436.498.5m63.933-12.534c-.11-.499-.54-1.324-.934-1.738-.39-.415-.52-.63-.651-.846s-.022-.153-.5-.74c-.414-.5-.782-.458-.892-.458 0 0-.435-.02-.76.457-.132.174-.436.914-.436.914-.153.368-.284.478-.415 1.02-.13.52-.089.74-.02 1.019.041.283.194.305.304.237.11-.064.11-.131.456-.588.305-.39.694-.63.846-.63.609-.064 1.65 1.302 1.87 1.78.194.436.236 1.477.236 1.477 0 .042-.021.435.304.435.284 0 .39-.215.436-.304.042-.089.152-.284.216-.673.042-.435.063-.867-.064-1.37m-2.99 6.98c-.304-.153-.63-.043-.63-.043-.998.262-1.496 1.303-1.564 1.413 0 0-.152.283-.064.435.09.132.237.195.673.216.435.021 1.239-.089 1.454-.304.216-.195.284-.694.284-.694 0-.089.152-.867-.153-1.02M53.823 33.54c-.326-.65-.652-1.065-.977-1.218a.7.7 0 0 0-.305-.063c-.215 0-.435.089-.499.216-.283.457-.02.782.262 1.171.131.195.284.39.415.652.389.782.588 1.628.913 3.325.021.152.131.173.152.173.09 0 .153-.089.195-.195.021-.02.672-2.39-.152-4.06M76.99 56.872c-.02.153-.13.263-.304.284a3 3 0 0 1-.609.063c-1.586 0-3.256-1.26-3.907-2.432-.867-1.586-1.586-2.521-2.867-2.978.13.262.283.5.456.74.11.131.195.284.284.415.414.694.998 1.717 1.302 2.737.283.956 1.303 1.67 2.237 2.258l1.171.63c.237.11.368.284.347.436-.02.132-.063.237-.283.305l-.216.021h-.237c-2.105 0-3.801-.715-5.167-2.195-.414-.457-.825-.694-1.239-.694-.935.825-1.89 1.65-3.172 1.738-1.585-.262-2.909-.173-3.907.263-.173.063-.325.11-.499.173-.913.326-1.848.673-2.888.715-.567 0-1.281-.283-1.476-.846-.063-.237-.042-.457-.13-.74-.132-.5-.238-1.02.041-1.498l.783-1.171c0-.11-.09-.195-.195-.216-.11-.021-.237.042-.368.089-.13.042-.237.11-.347.11-.346-.021-.325-.347-.325-.347.042-.914.782-1.629 1.476-2.259.194-.173.389-.347.566-.541.195-.999.588-1.824 1.218-2.543a.28.28 0 0 0-.152-.173c-.237.042-.478.089-.715.131-.76.152-1.543.283-2.368.283-1.087.567-2.583.74-2.998.457 0 0-.173-.13-.194-.283a.8.8 0 0 1 .063-.415 6.83 6.83 0 0 0 1.171-5.126c-.02-.153-.088-.195-.173-.195-.131 0-.173.152-.194.237-.326 1.87-.846 3.236-1.696 4.539-.283.435-1.066.609-1.823.761-.325.064-.609.11-.934.237-.174.064-.415.237-.415.5-.02.54.263 1.019.542 1.454l.042.043c.063.13 1.869 3.083 1.932 3.692.064.52-.173 2.128-.389 2.8-.063.237.043.263.064.263.042 0 .11-.021.194-.089.305-.216 1.37-1.848 1.455-2.348.089-.499-.064-.824-.216-1.15l-2.127-4.213.021-.042c.11-.216.39-.347.783-.369h.042c.347 0 .651.11.934.237.132.043.284.11.415.153h.042l.021.042c.478 1.282.694 1.78 1.87 3.672.389.63.389 1.434 0 2.237a19 19 0 0 1-1.544 2.627c-.478.5-1.13.541-1.76.588-.13 0-.282.021-.414.042h-.609c-1.847.977-3.78 1.629-5.776 2.26a2.9 2.9 0 0 1-.867.13c-.693 0-1.345-.237-1.801-.63-.5-.39-.804-.935-1.087-1.455a6 6 0 0 0-.368-.63c-.152-.195-.414-.284-.782-.284-.131 0-.262 0-.368.021-.11 0-.216.021-.326.021-.173 0-.414-.02-.52-.194l-.194-.326c-.436-.74-.867-1.455-1.303-2.216a.6.6 0 0 1-.042-.542c.063-.152.195-.237.368-.283.825-.174 1.543-.326 2.3-.39.783-.063 1.37.132 1.823.652.347.39.609.846.867 1.282.478.803.389 1.045 1.15 1.738.021.022.435.326.913.368.715.043 1.933-.435 2.694-.803.478-.284 1.13-.762 1.13-1.434-.09-1.477-1.193-2.542-2.107-3.194-1.433-.74-2.584-1.65-3.324-2.585-.346-.477-.52-1.065-.672-1.607-.042-.131-.063-.262-.11-.39-.021-.088-.11-.109-.173-.109-.064 0-.152.021-.195.063-.368.326-.152.999 0 1.456l.064.194.02.064c.11.346.174.609-.041.803-.326.263-.762.39-1.37.39-.263 0-.52-.022-.783-.043-.152-.021-.283-.021-.414-.021a13 13 0 0 1-2.127-.326c-.783-.152-1.607-.325-2.453-.325-.194 0-.368 0-.541.02-.436.022-.935.11-1.455.174-.672.11-1.391.216-2.021.216-1.066 0-1.738-.326-2.043-.998-.672-1.697-.325-3.714-.042-5.19 0-.153-.194-.216-.283-.237-.043-.022-.064-.022-.09-.022a.22.22 0 0 0-.215.153c-.194.715-.304 1.476-.414 2.237-.131.935-.283 1.912-.588 2.826-.457 1.392-1.607 3.151-3.171 3.934-1.218.63-2.605.956-4.538 1.087-2.605.042-5.818.436-7.709 3.13a1.4 1.4 0 0 0-.194.5c-.021.088-.021.173.02.215.064.089.195.064.284-.021 1.78-1.997 4.212-3.02 7.231-3.02h.5c2.43 0 5.471-.326 7.34-2.868.457-.52 1.15-1.671 1.15-1.671l.043-.064 1.065.804-.02.042c0 .022-.457 1.172-.74 1.697-.284.567-1.066 1.954-1.954 2.453-.216.11-.478.262-.762.415-.52.262-1.15.609-1.78.956-.52.304-1.171.456-1.848.456a4.3 4.3 0 0 1-1.171-.152c-.715-.131-1.628-.304-2.474-.304-.693 0-1.239.11-1.717.325-.368.237-.74.567-1.087.893-.215.215-.456.414-.672.609-.52.414-1.607 1.13-2.736 1.066-.237-.021-.478-.089-.693-.131-.262-.064-.52-.131-.761-.131a.8.8 0 0 0-.652.283c-.304.284-.52.651-.714 1.02-.326.54-.652 1.108-1.26 1.391-.347.195-.74.284-1.193.284-.452 0-.977-.11-1.434-.216a6 6 0 0 0-1.044-.174H3.26l.021-.13c.021-.153.064-.284.09-.436.194-.956.414-1.934 1.044-2.674l.02-.02h.022c.414-.043.846-.132 1.192-.437.436-.389.783-.892 1.108-1.434l.021-.02c.195-.132.415-.238.61-.369.824-.478 1.67-.977 2.194-1.802a36 36 0 0 0 .541-1.281c.284-.74.542-1.371.761-1.608a.7.7 0 0 1 .457-.216c.089 0 .216-.02.415-.02.367-.022.892-.043 1.37-.11.304-.043 1.911-.61 2.715-1.346a.92.92 0 0 0 .215-.913c-.021-.11-.11-.305-.216-.542-.236-.588-.608-1.497-.76-2.238-.064-.325-.11-1.13-.132-1.954a27 27 0 0 0-.088-1.519c-.022-.236-.11-.236-.153-.236-.02 0-.063 0-.11.02-1.044.263-2.127.542-3.277.542a5.3 5.3 0 0 1-1.044-.089c-1.933-.236-4.259-1.518-5.104-3.781-.652-1.718-.588-4.366.824-5.91 1.066-1.302 2.347-2.368 3.607-3.409.237-.194.5-.415.74-.609.262-.216.368-.368.347-.588a.9.9 0 0 0-.609-.715c-.304-.089-.651-.089-.934-.089h-.61c-.456 0-.934-.02-1.412-.215q-.096-.033-.194-.064c-1.455-.673-2.779-2.301-2.977-3.887-.043-.762.089-1.434.478-2.043 1.044.566 1.953 1.476 3.15 1.802.457.11.913.173 1.391.283.064.021.195.021.283.042l.132.021c.74.174 2.736.673 3.628 1.65s.977 2.78.194 3.845c-.672.914-1.67 1.76-2.715 2.627a28 28 0 0 0-1.89 1.696c-1.239 1.24-1.695 2.826-1.26 4.387.457 1.391 1.848 2.432 3.366 2.542h.152c2.043 0 3.629-.935 5.299-1.912.152-.089.326-.194.457-.283.283-.174.866-.63 1.323-.977 1.345-1.066 2.952-2.302 4.453-2.653.998-.236 1.171-.236 2.216-.346.74-.064 1.433-.153 2.063-.368 1.392-.479 2.605-1.52 3.802-2.606 1.522-1.24 2.998-1.76 5.062-1.76.892 0 1.019-.11 2.106-1.13.236-.215.52-.477.867-.803 1.17-1.087 2.672-1.544 4.127-1.997.74-.236 1.497-.456 2.215-.782.914-.305 1.76-.846 2.563-1.37.478-.305.977-.63 1.476-.893.74-.326 1.628-.5 2.541-.5.715 0 1.413.11 1.996.326.914.326 1.303.5 2.563 1.37l6.364 5.28.089.089c.11.11.262.237.368.368.194.194 3.734 4.323 5.214 6.734.477.804.867 2.043.913 2.627.283 3.714 1.412 7.06 2.453 9.885.042.11.262.305.499.52.283.237.587.52.782.804.283.39.541.825.782 1.24.63 1.066 1.303 2.174 2.432 2.825 0 0 .52.263.955.478.153.11.174.216.153.347M1.852 59.11c-.021 0-.063 0-.089.021-.478.195-1.019.804-1.044 1.172-.11 1.586-.174 1.76-.588 2.238-.131.13-.195.456-.063.588.13.13 1.67.609 1.847.609h.043c.13-.043.262-.39.566-1.498.174-.588.368-1.26.588-1.87.021-.042.021-.088-.13-.304-.174-.262-.783-.956-1.13-.956m41.044-1.802c.236.52.456.998.693 1.066.11.021.216.042.347.042.541 0 1.323-.304 1.869-.74.304-.262.216-.436.063-.673-.042-.063-.088-.152-.152-.262a3.8 3.8 0 0 1-.304-.846c-.153-.541-.284-.998-.846-.914-.825.11-1.607.174-2.5.174-.02 0-.283 0-.367.194-.11.216.131.436.368.652.13.131.283.262.368.39.13.236.304.587.456.913m4.783-35.168.089-.043.11-.042c1.065-.457 2.3-.694 3.581-.694.935 0 1.87.152 2.673.415V7.17h5.56c2.432 0 4.411 2.237 4.411 4.67a4.414 4.414 0 0 1-4.41 4.412h-2.889v6.755c.216.152.457.304.74.499l.09.064.215.173h4.28c2.951 0 5.188 2.39 5.188 5.342-.042 1.02-.283 1.933-.694 2.716 1.24 1.497 2.779 3.498 3.692 4.975l.042.063c.39.673.762 1.565.998 2.369 3.062-2.196 5.037-5.626 5.037-9.471 0-4.759-1.67-8.126-7.274-10.732 2.28-2.127 3.67-4.974 3.67-8.104 0-2.847-1.086-5.453-2.997-7.496-1.975-2.195-5.493-3.41-10.25-3.41h-14.29v23.613c.237-.153.5-.305.762-.479.52-.325 1.066-.693 1.67-.998m-32.84 16.015c-.173.11-.346.195-.52.305v-4.67c.368-.368.694-.762.998-1.15 1.544-2.065 1.37-5.28-.347-7.17a6 6 0 0 0-.65-.61V0H29.54c6.927 0 12.551 5.516 12.551 12.318 0 5.799-4.06 10.642-9.557 11.97l3.062 4.345c-.064.063-.131.11-.174.173-2.583.021-4.626.762-6.58 2.348l-.063.042-.042.042c-.262.237-.499.457-.761.673l-2.5-3.866v-9.97h2.064c3.278 0 5.929-2.433 5.929-5.453S30.996 7.17 27.715 7.17h-4.517v26.5c-.389.064-.76.132-1.37.284-2.084.478-3.975 1.954-5.493 3.13-.824.652-1.065.804-1.129.846-.13.064-.262.153-.368.216" fill="#8B8F91"/></g><defs><clipPath id="a"><path fill="#fff" d="M0 0h77v64H0z"/></clipPath></defs></svg>