<svg xmlns="http://www.w3.org/2000/svg" width="107" height="80" viewBox="0 0 106 80"><path d="M53.285 30.492h.406c1.067-.012 2.086.07 3.098.434q.07.022.14.05c1.239.438 2.321 1.067 3.348 1.887q.07.051.133.102l.102.086v.094q.04.016.082.039c.328.175.629.504.851.808v.094l.082.035a.7.7 0 0 1 .254.25q.04.052.074.106.028.035.055.078c.192-.09.352-.215.52-.34.488-.297 1.086-.3 1.636-.192.657.168 1.43.586 1.797 1.176.176.176.399.196.633.242.84.196 1.828.477 2.399 1.18.164.137.34.164.546.207q.124.031.254.063c.137.03.274.066.41.097.446.133.797.399 1.172.676.442.324.832.477 1.364.594 1.175.273 2.093.765 3.082 1.449.761.54.761.54 1.656.727.058 0 .121.004.183.004.172-.016.239-.032.352-.157.05-.297-.027-.46-.184-.71-.19-.266-.433-.489-.671-.716-.996-.96-.996-.96-1.2-1.625-.007-.035-.02-.066-.03-.101-.122-.43-.067-.77.124-1.168.484-.77 1.32-1.14 2.168-1.371.461-.117.461-.117.84-.399.152-.125.344-.148.539-.152a.9.9 0 0 1 .605.375c.27.621.247 1.266.024 1.895-.09.222-.2.406-.348.593-.027.032-.05.067-.078.102a1.45 1.45 0 0 1-.621.46l-.187.095.085.09c.649.699 1.239 1.57 1.286 2.558-.032.719-.356 1.324-.813 1.86-.715.613-1.465.812-2.379.843q.001.083.008.164c.012.469-.02.848-.195 1.293l.11-.008c.378-.007.698.004 1.003.258.207.254.324.485.414.801l.031.102q.04.129.075.253c.101.012.101.012.187-.066.25-.133.531-.152.809-.086.398.156.918.61 1.125.98.113.176.277.247.457.344.3.223.398.485.46.844.04.219.083.422.165.629.093.25.07.437-.016.687-.117.247-.281.336-.527.426l-.149.055a2.1 2.1 0 0 1-.976.102 5 5 0 0 0-.528-.012c-.558.015-1.02-.02-1.457-.406q-.1-.103-.203-.208l-.14-.14q-.066.023-.137.047c-.41.113-.79.043-1.168-.14a7 7 0 0 1-.383-.294c-.484-.394-.941-.57-1.562-.562h-.133a2 2 0 0 0-.535.054c-.707.04-1.391-.382-1.942-.793-.472-.425-.644-1.101-.812-1.695l-.07.023c-.34.07-.731.04-1.07 0-.61-.058-1.157-.003-1.75.118.034.03.073.058.108.086.204.172.266.355.305.609.031.469-.195.777-.46 1.137l-.071.105c-.125.184-.227.29-.426.387-.2.101-.258.191-.344.394-.183.391-.55.637-.937.797-.461.14-.942-.039-1.383-.172l-.348-.105-.168-.047a10 10 0 0 0-.554-.144 1.6 1.6 0 0 1-.63-.309c-.144-.102-.273-.11-.448-.121-.414-.055-.649-.274-.899-.598l-.047.07q-.032.048-.062.094-.031.048-.063.094l-.058.07h-.094c-.016.028-.027.059-.043.086-.05.102-.05.102-.145.242h-.093v.094c-.063.078-.063.078-.14.14h-.095q-.022.072-.047.141h-.093v.098h-.09v.094h-.094v.094c-.14.129-.289.242-.437.359q-.077.061-.149.121c-1.36 1.09-2.972 1.879-4.687 2.195-.055.008-.055.008-.114.02-1.675.305-3.445.152-5.066-.348l-.11-.035c-.742-.223-1.437-.605-2.128-.953v-.094a1 1 0 0 1-.102-.039c-.367-.156-.691-.41-.996-.664-.152-.125-.305-.238-.46-.355-.024-.024-.048-.043-.075-.067v-.093q-.037-.016-.074-.032c-.16-.093-.278-.218-.407-.351l-.082-.082a9 9 0 0 1-.476-.532c-.156-.168-.328-.312-.5-.46-.016.027-.031.058-.051.085-.2.336-.371.461-.746.563q-.291.072-.59.125a2 2 0 0 0-.562.176 9 9 0 0 1-.954.367q-.153.051-.3.11c-.61.21-1.14.253-1.742-.016-.32-.16-.516-.453-.7-.754v-.094l-.164-.012c-.293-.039-.531-.136-.722-.375-.13-.195-.247-.398-.364-.601-.02-.032-.035-.063-.054-.094-.2-.36-.278-.672-.192-1.078a.77.77 0 0 1 .363-.442q.076-.033.153-.074a3 3 0 0 0-1.11-.054q-.175.012-.355.019c-.43.012-.43.012-.805.2a1.9 1.9 0 0 0-.265.55 2.4 2.4 0 0 1-.153.32l-.047.086c-.238.367-.511.543-.898.742q-.074.042-.148.079-.21.112-.418.218-.052.03-.11.059a2 2 0 0 1-1.004.234h-.11a2.8 2.8 0 0 1-.565-.058c-.278-.063-.543-.106-.825-.047-.133.09-.23.191-.343.305-.336.32-.79.535-1.243.636-.058.012-.058.012-.113.028-.129.02-.238.011-.367-.004l-.125-.012-.094-.012q-.03.043-.058.09c-.32.492-.672.766-1.25.895-.274.039-.516-.008-.786-.075a1.5 1.5 0 0 0-.605-.039c-.25.032-.445-.007-.68-.082q-.045-.016-.097-.03c-.258-.09-.43-.192-.575-.427-.152-.402-.058-.86.028-1.27.008-.038.011-.073.02-.113.073-.34.195-.609.476-.824l.105-.082a.8.8 0 0 1 .344-.11q.001-.063.008-.128c.05-.223.16-.344.344-.477.043-.023.082-.05.128-.078.149-.09.293-.183.43-.293a.96.96 0 0 1 .738-.18c.247.075.434.2.637.356q.022-.066.051-.137c.367-.976.367-.976.836-1.222.266-.11.535-.11.824-.121a.8.8 0 0 0 .387-.16l-.024-.087c-.035-.128-.074-.257-.109-.382q-.02-.069-.039-.137c-.07-.25-.14-.504-.2-.758-.027 0-.054.004-.077.004-.95.031-1.766-.074-2.508-.73q-.11-.106-.215-.211l-.082-.082c-.492-.528-.645-1.227-.645-1.93.02-.664.243-1.242.68-1.746q.058-.066.121-.137c.18-.207.36-.398.578-.566l-.093-.047c-.707-.371-1.211-.852-1.461-1.63q-.016-.051-.032-.108-.01-.043-.027-.09c-.098-.485.008-.918.234-1.348.114-.172.254-.234.446-.297.34-.054.601.035.883.235.046.035.09.07.14.105.383.27.817.344 1.27.441.601.133 1.207.364 1.57.899.281.508.355 1.012.2 1.574-.231.734-.852 1.277-1.45 1.723-.316.25-.633.535-.746.937-.012.235.012.38.16.563.223.176.406.168.68.14.777-.148 1.394-.629 1.996-1.109.844-.676 1.758-.977 2.82-1.086.438-.05.715-.2 1.02-.508.664-.644 1.46-1.105 2.406-1.097.328-.02.469-.188.68-.426.48-.535 1.164-.77 1.824-.988.683-.23 1.289-.473 1.875-.899.45-.316 1.117-.453 1.656-.41q.227.042.45.11a1 1 0 0 0 .113.03l.324.094.097.028q.117.033.227.066.13-.14.254-.277c.027-.028.05-.051.074-.078.133-.141.133-.141.235-.301h.093v-.098h.094q.018-.041.035-.09c.055-.097.055-.097.196-.144v-.094c.113-.121.246-.223.374-.328l.075-.063a11.1 11.1 0 0 1 4.047-2.148c.054-.02.054-.02.113-.035q.188-.053.383-.102.074-.016.156-.039c.64-.137 1.293-.125 1.95-.125m0 0" style="stroke:none;fill-rule:nonzero;fill:#fbc226;fill-opacity:1"/><path d="M64.23 34.852c.403.207.735.398 1.016.753.367.465.738.508 1.3.575.548.078 1.016.34 1.477.629v.093l.082.035c.11.063.18.13.266.215.3.27.664.336 1.043.422.566.133 1.04.371 1.508.719.086.066.086.066.18.11v.093c.05.02.05.02.101.043q.13.051.254.11c.352.156.695.246 1.066.32a5 5 0 0 1 1.286.418c.562.261 1.07.62 1.578.972.293.2.582.387.89.555.043.023.043.023.082.047.477.254 1.086.309 1.61.176.316-.145.535-.403.691-.715.063-.477-.047-.875-.328-1.266-.309-.379-.66-.718-1.012-1.058-.394-.387-.797-.828-.832-1.407.012-.332.16-.496.395-.718.305-.262.664-.414 1.031-.575.04-.015.078-.035.117-.05.14-.051.281-.078.43-.106.312-.066.648-.152.883-.39.062-.063.062-.063.156-.063.129.414.09.945-.078 1.34a1.8 1.8 0 0 1-.387.492h-.094v.094l-.382.14q-.137.049-.274.102c-.18.05-.36.063-.543.074-.105 0-.105 0-.156.059.004.203.031.332.176.476q.076.07.16.141l.082.07q.153.136.312.266c.621.508 1.102 1.27 1.2 2.078q.001.151-.016.3l-.012.106a1.7 1.7 0 0 1-.547.977h-.093c-.012.027-.02.055-.032.082-.164.273-.57.43-.863.523-.441.106-.965.118-1.39-.043-.153-.007-.153-.007-.282 0q-.004.083-.008.164v.094c.004.13.004.13.055.293.05.2.063.383.063.586v.106a2.2 2.2 0 0 1-.25.964c-.02.215-.02.332.07.532.227.246.453.265.773.28q.1.006.2.005c.148.004.246.015.37.097.11.16.153.317.2.504q.04.153.086.305c.02.074.035.145.055.215.082.305.234.46.468.664.067.063.137.121.203.184l.098.086c.117.113.219.23.32.351.157.188.293.258.52.344.195.105.242.316.308.52.051.19.07.367.063.562-.89.129-.89.129-1.262-.14a7 7 0 0 1-.383-.434c-.16-.192-.16-.192-.398-.25-.152.015-.152.015-.285.093a.86.86 0 0 1-.567.07 2.2 2.2 0 0 1-.511-.312c-.75-.554-1.45-.77-2.38-.719l-.14.047c-.508.082-.847-.113-1.261-.375q-.06-.036-.118-.074c-.441-.3-.656-.8-.754-1.316l-.035-.176a2.5 2.5 0 0 1-.027-.453l.187-.047.059.117c.188.371.395.664.688.961.058.066.058.066.117.129.437.395.828.539 1.406.531h.234c.121-.004.243-.004.368-.008h.355c.035 0 .07-.004.11-.004.667-.003 1.23.329 1.753.711q.18.128.371.239c.016-.18.016-.18-.058-.266-.598-.586-1.258-.91-2.098-.918h-.223q-.17-.005-.34-.004c-.57-.004-1.011-.05-1.48-.41a1 1 0 0 1-.078-.05c-.3-.223-.457-.56-.625-.887-.023-.047-.043-.09-.07-.137-.145-.317-.2-.625-.246-.965a7 7 0 0 0-.176-.84q-.014-.056-.028-.113c-.07-.27-.07-.27-.18-.527-.046-.016-.09-.032-.14-.047l.024.183c.136 1.274.136 1.274-.067 1.883h-.094c-.02.043-.02.043-.035.086-.113.191-.32.262-.527.336-.164.027-.324.023-.488.02q-.07-.005-.141-.004l-.434-.012c-.824-.02-1.593.039-2.406.191-.32.059-.64.047-.96.04l.03-.09c.079-.247.126-.45.106-.708-.113.008-.113.008-.23.047-.055.09-.055.09-.079.207-.144.399-.449.68-.824.868a5 5 0 0 1-.219.097q-.07.044-.14.086c-.094.055-.094.055-.184.055q-.022.042-.039.086a.7.7 0 0 1-.195.242h-.094q-.018.041-.031.082c-.063.105-.063.105-.184.215-.152.172-.148.277-.16.504h.094l.062.125c.153.246.47.308.73.39.15.035.294.059.446.063q.051.007.102.008c.168-.04.234-.13.34-.258.062-.113.117-.219.167-.336.157-.352.157-.352.348-.461.129-.02.129-.02.281-.016h.164q.082-.001.168.004h.172c.418.004.418.004.473.059 0 .402-.211.652-.465.95-.11.093-.164.1-.308.112-.11.016-.11.016-.208.063a1 1 0 0 0-.109.308c-.074.282-.25.524-.492.684-.195.078-.402.059-.61.04v-.095l-.148-.011a3.2 3.2 0 0 1-.66-.172 6 6 0 0 0-.375-.094c-.398-.078-.691-.145-.965-.473-.09-.09-.262-.054-.387-.054h-.093c-.094-.004-.094-.004-.266-.04-.184-.203-.258-.453-.336-.71a1 1 0 0 1-.039-.11c-.117-.363-.172-.715-.027-1.078q.13-.252.277-.492c.031-.059.066-.113.098-.172q.128-.22.261-.441l.082-.137q.03-.048.059-.098c.219.02.402.043.605.14-.078.235-.21.43-.347.634-.067.101-.133.207-.2.308-.046.075-.097.145-.144.215-.129.258-.094.594-.012.863q.049.12.102.239c.043.09.043.09.043.183h.094l-.012-.175c-.027-.57.043-.907.402-1.364.395-.457.395-.457.492-1.031-.085-.21-.27-.285-.464-.387-.532-.34-.758-.84-.918-1.441-.086-.406-.09-.824-.11-1.234q-.088-.023-.183-.051c-.274.547-.035 1.426.136 1.972q.088.235.188.47a.9.9 0 0 1 .094.425c-1.446.023-1.446.023-2.051-.426a6 6 0 0 1-.266-.183 4 4 0 0 1-.203-.145c-.059.137-.059.137-.012.238.125.223.254.39.442.567.277.285.453.629.62.984.067.133.142.246.224.367.109.157.171.278.171.473-.03.047-.058.094-.093.14-.098.016-.098.016-.215.012-.04-.004-.074-.004-.113-.004q-.046-.004-.09-.007l.023.152c.059.523.059.523-.039.73-.129.149-.262.278-.45.34-.288-.011-.538-.12-.8-.23l-.125-.055c-.316-.129-.316-.129-.465-.195-.133-.047-.242-.047-.383-.047q-.081.005-.164.004c-.16.008-.316.027-.48.047-.27.023-.406-.028-.621-.196-.055-.05-.114-.101-.168-.152-.133-.129-.133-.129-.305-.164-.187.07-.305.2-.445.34-.36.347-.688.61-1.176.742a1 1 0 0 0-.094.027c-.14.032-.277.024-.422.02l-.046-.188h.093v-.093c.07-.067.07-.067.168-.149.324-.281.54-.539.703-.937.09-.192.203-.36.317-.535.156-.231.156-.231.215-.493-.426.18-.696.68-.942 1.051-.23.356-.46.582-.879.688a5 5 0 0 1-.562 0c.012-.168.035-.223.16-.336.047-.032.098-.063.145-.098.488-.348.804-.781 1.097-1.305q.036-.066.078-.136c.192-.36.301-.73.407-1.121.027-.102.058-.204.085-.305.114-.363.208-.727.293-1.098.059-.265.133-.527.211-.793q.093-.314.18-.629c.387-1.46 1.207-2.508 2.383-3.43q.084-.063.16-.128c.367-.305.75-.586 1.137-.86.664-.465 1.316-.953 1.914-1.504.515-.457 1.101-.488 1.722-.214M27.152 34.695c.192.024.305.086.457.203.442.332.868.426 1.403.528.523.105.984.293 1.3.746.149.3.137.61.047.926-.226.574-.785.972-1.246 1.351-.414.348-.843.711-.933 1.27-.035.449-.032.863.265 1.222.278.266.61.426.992.446.954-.043 1.77-.551 2.493-1.137.78-.629.78-.629 1.242-.812.062-.028.062-.028.125-.051.344-.125.683-.168 1.043-.207.765-.09 1.203-.278 1.77-.801.566-.52 1.124-.809 1.898-.836.484-.027.738-.215 1.058-.566.079-.075.079-.075.172-.075v-.093c.54-.5 1.266-.692 1.953-.883.528-.16.993-.453 1.454-.754.511-.336 1.054-.402 1.648-.285.703.18 1.254.672 1.793 1.136.129.11.262.223.394.329q.061.053.125.101.118.101.235.195c1.336 1.09 1.336 1.09 1.59 1.66h.09q.123.142.234.29.035.044.07.09.353.457.676.937.046.066.098.137c.367.57.418 1.25.507 1.914.04.293.102.574.188.86q.046.181.094.359c.054.214.117.417.199.625.035.093.066.19.102.289a1 1 0 0 0 .035.093q.03.099.066.196c.078.218.172.343.344.504.191.214.336.441.48.691.305.512.586.914 1.153 1.14l-.047.188c-.524.04-.801-.078-1.196-.414-.203-.184-.34-.387-.484-.621-.23-.363-.492-.766-.934-.89.114.202.227.406.352.605.16.25.277.527.387.804.218.56.75.836 1.27 1.079l-.048.187c-.625.02-1.218-.039-1.703-.488q-.1-.104-.199-.215c-.184-.203-.184-.203-.434-.293-.261.04-.457.262-.648.434-.21.14-.395.144-.645.136q-.075.001-.152-.004-.164-.001-.32-.007a2.3 2.3 0 0 0-.906.156c-.121.043-.235.07-.356.094v.093c-.824.176-.824.176-1.121.02-.121-.145-.152-.258-.187-.442l-.024-.101c-.035-.172-.043-.277.035-.438q.071-.105.149-.21c.086-.106.086-.106.168-.286H45.3c-.016-.195 0-.32.117-.48.094-.11.2-.203.305-.297.218-.215.3-.398.379-.691.054-.176.148-.274.273-.407v-.14l-.133.015c-.14.024-.277.04-.418.059l-.238.035c-.043.004-.082.012-.121.016a2.2 2.2 0 0 0-.55.136.94.94 0 0 1-.4.079c-.03-.004-.066-.004-.1-.004-.095-.008-.095-.008-.231-.055.015-.262.093-.445.218-.676.153-.316.164-.601.16-.941 0-.067 0-.067-.003-.133q.001-.159-.004-.316h-.094c-.012.066-.012.066-.027.136a5 5 0 0 1-.34 1.047q-.022.046-.043.098c-.145.3-.344.488-.66.613-.164.05-.332.078-.504.102-.102.011-.102.011-.153.07-.03.262.059.422.184.644.016.036.035.067.055.106q.152.276.316.55c.02.04.043.075.063.114q.063.106.125.207c.195.332.187.656.097 1.023a1.8 1.8 0 0 0-.047.407c.27-.176.375-.426.516-.703.055-.391-.066-.672-.242-1.016l-.07-.137c-.122-.25-.254-.492-.395-.734-.04-.086-.04-.086-.04-.227.192-.097.388-.054.59-.008.196.126.223.223.294.438a3.6 3.6 0 0 0 .437.809c.082.129.11.203.125.355l.008.09c.02.312-.074.52-.227.789q-.029.059-.062.117c-.297.55-.297.55-.527.649-.04.004-.075.007-.114.015l-.11.016q-.114.012-.226.02c-.293.023-.515.113-.777.242-.34.16-.676.3-1.035.41-.125.039-.242.086-.363.133-.313.105-.66.101-.97.007-.284-.218-.472-.484-.632-.808-.043-.09-.043-.09-.145-.13-.124-.007-.253-.01-.378-.015-.207-.05-.305-.172-.418-.347a5 5 0 0 1-.149-.27q-.029-.046-.05-.094c-.09-.168-.153-.3-.122-.496.211-.21.735-.187 1.028-.203.27.027.394.133.578.324.105.133.191.274.281.418.215.371.215.371.54.637.487.047.847-.07 1.257-.328h.094c.015-.04.027-.074.043-.113.05-.122.05-.122.097-.215.043-.352-.101-.621-.308-.899-.203-.226-.442-.363-.703-.508-.5-.277-.875-.644-1.043-1.19-.02-.075-.02-.075-.043-.15-.04-.124-.04-.124-.149-.183-.027-.008-.058-.02-.086-.027q-.005.159-.004.324c0 .09 0 .09-.004.184-.011.14-.011.14.055.195.012.113.012.113 0 .234-.219.145-.437.11-.691.11h-.164a3.6 3.6 0 0 1-.934-.125 4 4 0 0 0-.719-.047h-.133c-.269.004-.523.035-.789.086-.34.062-.765.101-1.066-.098-.184-.16-.254-.395-.281-.633-.004-.156 0-.312.004-.469v-.16c.004-.293.023-.578.058-.87h-.183c-.106.32-.172.624-.211.96-.086.64-.207 1.207-.63 1.715l-.077.094c-.61.695-1.512.773-2.375.843-.809.063-1.688.2-2.262.848-.133.18-.254.348-.324.563.176-.028.25-.106.37-.235h.095v-.094c.629-.554 1.382-.75 2.195-.761.883-.02 1.652-.059 2.379-.602q.04-.03.086-.058c.226-.168.367-.414.52-.645q.027-.046.062-.094.06-.093.125-.187c.133.027.18.039.277.14-.012.274-.101.473-.226.711l-.051.098c-.184.363-.184.363-.281.508h-.094l-.047.14a1.5 1.5 0 0 1-.406.2c-.192.07-.344.172-.508.293-.3.187-.527.23-.875.226h-.113a3 3 0 0 1-.66-.09c-.32-.07-.778-.082-1.079.075a6 6 0 0 0-.36.32c-.273.262-.737.586-1.132.59-.14-.02-.14-.02-.226-.043a1.4 1.4 0 0 0-.52-.024c-.21.149-.312.371-.441.594a.88.88 0 0 1-.493.395c-.386.023-.71.007-1.07-.141.024-.398.063-.848.371-1.129l.176-.031c.246-.047.344-.219.484-.414.153-.207.293-.324.52-.434.473-.258.633-.578.805-1.07.164-.469.164-.469.394-.586.11-.004.219-.012.328-.016.446-.023.774-.16 1.137-.41.074-.043.074-.043.168-.043.078-.347.012-.574-.117-.902a3.6 3.6 0 0 1-.242-1.266q.001-.073-.004-.148a11 11 0 0 1-.008-.36 4 4 0 0 0-.582.098 2.82 2.82 0 0 1-2.125-.379c-.305-.25-.547-.527-.7-.894-.015-.04-.035-.078-.05-.118-.063-.23-.059-.453-.059-.691q-.005-.07-.004-.14c-.004-.505.164-.876.485-1.258q.046-.056.093-.11c.278-.324.59-.586.922-.844q.13-.1.254-.203l.082-.062c.13-.11.188-.168.215-.336-.027-.149-.047-.184-.164-.274-.105-.02-.105-.02-.219-.011h-.269c-.52-.012-.832-.094-1.207-.477-.352-.41-.473-.742-.469-1.285a1.1 1.1 0 0 1 .11-.387m0 0" style="stroke:none;fill-rule:nonzero;fill:#d90848;fill-opacity:1"/><path d="M58.785 41.738c.102-.02.102-.02.235 0 .093.098.167.188.242.301l.066.09c.152.23.215.406.203.687-.078.016-.152.032-.234.047a2 2 0 0 0-.074-.14c-.094-.149-.094-.149-.235-.176-.234.05-.39.172-.578.316l-.101.082c-.258.227-.336.446-.41.782-.024.058-.024.058-.047.125-.098.039-.098.039-.188.046-.105-.32-.039-.64.094-.941a2 2 0 0 1 .328-.375h.094l.03-.074c.083-.149.188-.274.298-.403.156-.171.156-.171.277-.367M48.336 41.55c.152 0 .277.005.398.11.075.086.141.172.207.266q.036.042.07.086.106.14.212.289.035.053.078.105c.215.317.25.598.199.973-.035.133-.035.133-.094.234-.097.04-.097.04-.183.047a1 1 0 0 1-.016-.133c-.059-.488-.168-.754-.547-1.07-.094-.074-.094-.074-.238-.082-.164.082-.246.18-.352.324q-.034.036-.062.07h-.094c-.016-.292.027-.48.156-.742l.047-.093c.067-.133.133-.258.219-.383m0 0" style="stroke:none;fill-rule:nonzero;fill:#fabc27;fill-opacity:1"/><path d="M41.43 45.906c.093.008.093.008.187.102.024.097.024.097.047.21.027.153.05.22.14.356.02.114.02.114 0 .235-.19.18-.382.226-.644.242-.105-.008-.105-.008-.215-.074a2 2 0 0 1-.285-.649l-.023-.086c-.117-.058-.117-.058-.235-.094v-.187l.43-.023c.04 0 .082-.004.121-.004.16-.012.317-.016.477-.028M80.46 47.41a.67.67 0 0 1 .345.336c.035.156.054.309.07.465.027.156.082.246.164.379v.191l-.27.117-.152.07c-.137.048-.137.048-.277 0a4 4 0 0 1-.098-.34 5 5 0 0 0-.14-.519.9.9 0 0 1-.043-.457c.105-.144.218-.23.402-.242m0 0" style="stroke:none;fill-rule:nonzero;fill:#d90b48;fill-opacity:1"/><path d="M63.313 36.996c.085.059.085.059.136.14-.015.176-.101.27-.219.395l-.117.125q-.136.146-.277.285c-.535.516-.535.516-.879 1.168h-.094c-.031-.675.246-1.152.688-1.64.5-.516.5-.516.761-.473m0 0" style="stroke:none;fill-rule:nonzero;fill:#faba27;fill-opacity:1"/><path d="M26.453 47.465c.11.078.11.078.188.187.023.274-.04.508-.114.766l-.035.117c-.078.274-.078.274-.133.387-.218-.024-.402-.047-.605-.14a1.9 1.9 0 0 1 .094-.66q.01-.108.015-.216a.62.62 0 0 1 .219-.441c.137-.07.223-.04.371 0m0 0" style="stroke:none;fill-rule:nonzero;fill:#da0d47;fill-opacity:1"/><path d="M65.254 46.082q.129.001.258.008.067-.001.133.004.164.001.324.008c.011.246.011.453-.086.683q-.023.06-.051.117c-.047.094-.047.094-.14.141-.325.035-.528-.004-.794-.188l-.011-.246q.001-.066-.004-.136c.027-.274.094-.383.37-.391m0 0" style="stroke:none;fill-rule:nonzero;fill:#d90c48;fill-opacity:1"/><path d="M27.598 46.3c.125.04.183.067.254.18-.032.313-.227.555-.438.774a.8.8 0 0 1-.45.117c-.136-.066-.136-.066-.23-.187a1.5 1.5 0 0 1 0-.375q.089-.024.184-.047v-.094c.09-.07.09-.07.203-.14.04-.028.074-.051.113-.075q.053-.036.106-.066c.14-.094.14-.094.258-.086m0 0" style="stroke:none;fill-rule:nonzero;fill:#da0d47;fill-opacity:1"/><path d="M79.227 46.293c.199.066.328.195.476.34.031.027.063.05.094.082.082.074.152.144.215.234.004.13.004.13-.047.235-.215.222-.215.222-.39.257-.18-.035-.247-.132-.364-.27q-.058-.07-.121-.14c-.2-.254-.2-.254-.192-.433.059-.172.137-.309.329-.305m0 0" style="stroke:none;fill-rule:nonzero;fill:#da0c47;fill-opacity:1"/><path d="M44.2 37.781c.12.012.12.012.202.078.29.41.395.82.395 1.32q-.001.095.004.188a.65.65 0 0 1-.106.352l-.093-.047c-.028-.082-.028-.082-.051-.192-.008-.039-.016-.082-.028-.12a2 2 0 0 0-.027-.13c-.129-.574-.129-.574-.453-1.062-.008-.164-.008-.164 0-.328.047-.047.047-.047.156-.059m0 0" style="stroke:none;fill-rule:nonzero;fill:#f9b828;fill-opacity:1"/><path d="M48.43 45.352c.074.078.054.168.054.277q.005.06.004.125c-.015.113-.015.113-.062.2-.14.085-.266.07-.426.066q-.09-.005-.18-.004c-.047-.004-.093-.004-.14-.008-.016-.149-.012-.211.078-.336l.097-.094c.051-.047.051-.047.098-.098.164-.132.27-.207.477-.128m0 0" style="stroke:none;fill-rule:nonzero;fill:#fabb27;fill-opacity:1"/><path d="M58.645 45.445c.335-.023.335-.023.515.09.09.098.09.098.09.192h.094v.28c-.215.044-.367.075-.559-.046-.137-.172-.156-.297-.14-.516m0 0" style="stroke:none;fill-rule:nonzero;fill:#fabc27;fill-opacity:1"/></svg>