<svg width="300" height="202" viewBox="0 0 300 202" fill="none" xmlns="http://www.w3.org/2000/svg"><path d="M202.986 128.838c-22.602 9.032-44.487 19.594-68.914 24.046-18.077 3.294-36.664 3.062-55.052 3.855-16.365.706-37.618 1.085-51.03 10.115-4.217 2.84-7.268 7.288-6.438 11.729 1.448 7.749 12.799 10.975 22.263 11.614 12.479.844 25.026-.033 37.545.061 49.18.37 97.734 15.699 146.552 10.764 16.465-1.665 32.881-5.768 46.286-13.836 13.404-8.067 23.513-20.444 25.039-34.082 1.344-12.025-4.973-24.509-16.72-31.808-14.343-8.911-33.354-6.96-49.463-2.722-10.334 2.719-20.268 6.347-30.068 10.264" fill="#46AFA0"/><path d="M224.89 131.167c-14.05-.597-28.224.412-41.86 2.98-16.667 3.14-32.408 8.565-49.038 11.809-8.793 1.715-17.935 4.165-26.935 4.215-12.47.068-24.945-.044-37.416-.066-11.099-.019-22.292-.031-33.158 1.818-10.867 1.849-21.524 5.722-29.05 12.405-3.115 2.767-5.724 6.163-5.994 9.921-.53 7.37 7.986 13.185 16.58 15.408 18.443 4.772 38.133-.978 57.304-3.076 44.071-4.822 86.791 12.022 130.883 9.069 18.181-1.217 37.878-7.622 51.641-17.471 9.974-7.136 17.073-20.397 11.748-31.2-6.948-14.094-28.991-15.144-44.705-15.812Z" stroke="#BCE5D9" stroke-width="1.5" stroke-miterlimit="10"/><path d="M67.31 119.923c0-5.695 4.611-10.312 10.299-10.312s10.298 4.617 10.298 10.312c0 5.696-4.61 10.313-10.298 10.313s-10.298-4.617-10.298-10.313" fill="#FFD52B"/><path d="M59.852 65.063c0-20.672 16.735-37.43 37.38-37.43 20.644 0 37.379 16.758 37.379 37.43s-16.735 37.43-37.38 37.43c-20.644 0-37.38-16.758-37.38-37.43m142.143 46.627c0-10.916 8.837-19.765 19.738-19.765s19.738 8.849 19.738 19.765-8.838 19.765-19.738 19.765-19.738-8.849-19.738-19.765" fill="#EBEBF0"/><path d="M230.334 65.676H73.282a.115.115 0 1 1 0-.231h157.052c.064 0 .115.051.115.115a.115.115 0 0 1-.115.116m0 13.324H73.282a.115.115 0 1 1 0-.232h157.052c.064 0 .115.052.115.116a.115.115 0 0 1-.115.115m0 13.324H73.282a.115.115 0 1 1 0-.232h157.052c.064 0 .115.052.115.116a.115.115 0 0 1-.115.116m0 13.323H73.282a.116.116 0 0 1 0-.231h157.052c.064 0 .115.052.115.116a.115.115 0 0 1-.115.115m0 13.323H73.282a.116.116 0 0 1 0-.231h157.052c.064 0 .115.052.115.116a.114.114 0 0 1-.115.115" fill="#B3B3C7"/><path d="M210.567 118.969a.115.115 0 0 1-.116-.115V65.56c0-.064.052-.115.116-.115s.115.051.115.115v53.294a.114.114 0 0 1-.115.115m14.859 0a.116.116 0 0 1-.115-.115V65.56c0-.064.053-.115.115-.115.065 0 .115.051.115.115v53.294c0 .064-.05.115-.115.115m-29.582 0a.114.114 0 0 1-.115-.115V65.56a.115.115 0 1 1 .23 0v53.294a.114.114 0 0 1-.115.115m-14.724 0a.115.115 0 0 1-.115-.115V65.56a.116.116 0 0 1 .231 0v53.294a.115.115 0 0 1-.116.115m-14.722 0a.115.115 0 0 1-.116-.115V65.56a.116.116 0 0 1 .231 0v53.294a.115.115 0 0 1-.115.115m-14.723 0a.114.114 0 0 1-.115-.115V65.56c0-.064.051-.115.115-.115s.116.051.116.115v53.294a.115.115 0 0 1-.116.115m-14.724 0a.115.115 0 0 1-.115-.115V65.56a.116.116 0 0 1 .231 0v53.294a.115.115 0 0 1-.116.115m-14.722 0a.115.115 0 0 1-.116-.115V65.56c0-.064.052-.115.116-.115s.115.051.115.115v53.294a.114.114 0 0 1-.115.115m-14.724 0a.114.114 0 0 1-.115-.115V65.56c0-.064.051-.115.115-.115s.116.051.116.115v53.294a.115.115 0 0 1-.116.115m-14.722 0a.115.115 0 0 1-.116-.115V65.56a.116.116 0 1 1 .23 0v53.294a.115.115 0 0 1-.115.115m-14.723 0a.115.115 0 0 1-.116-.115V65.56a.115.115 0 1 1 .231 0v53.294a.115.115 0 0 1-.115.115" fill="#B3B3C7"/><path d="M147.132 22.817c.672 3.103 2.866 5.26 4.901 4.819 2.036-.442 3.141-3.315 2.469-6.418-.671-3.103-2.866-5.26-4.901-4.819-2.035.442-3.141 3.316-2.469 6.418" fill="#291A12"/><path d="M166.398 122.054c-1.924-12.172-4.702-28.45-5.554-35.019-2.198-16.947 15.757-14.017 18.087 1.263l6.689 31.129c3.07 15.012-16.834 17.731-19.222 2.627m-27.996-84.401c7.196-3.044 13.086 4.63 9.844 8.206-3.904 4.306-17.776 19.235-22.82 22.707-8.588 5.784-11.245-.837-5.275-7.954 2.98-3.552 13.509-20.953 18.251-22.96" fill="#FFA061"/><path d="M124.753 53.641c2.483 3.527 6.074 6.307 10.392 8.597 0 0 17.949-19.92 10.117-25.242-7.976-5.418-20.509 16.645-20.509 16.645" fill="#FF5D40"/><path d="M138.169 44.594s.754 3.486.925 7.024c.171 3.539-2.103 8.538-2.103 8.538l4.702-5.953s-1.756-6.939-3.524-9.61" fill="#010423"/><path d="m172.261 67.313-19.946.264-8.423 19.027 37.132 3.952s-.273-17.885-8.763-23.243" fill="#931FFF"/><path d="M174.647 132.499c-12.42-3.506-8.631-20.055 7.092-17.67l48.497 12.759-5.046 17.429s-38.016-8.981-50.543-12.518m-58.282-29.981c5.988-12.509 26.564-8.425 16.71 12.415-5.164 10.922-21.694 44.406-21.694 44.406l-18.108-9.294s20.617-42.357 23.092-47.527" fill="#FFA061"/><path d="M123.775 95.825c11.34-7.688 23.216-14.941 28.521-18.141 13.687-8.256 18.806 9.345 6.614 17.11l-24.199 16.883c-11.645 8.346-22.773-7.828-10.936-15.853" fill="#FFA061"/><path d="M156.268 73.419c-10.525 7.087-25.428 17.708-25.428 17.708 3.559 7.925 6.928 11.453 11.632 17.76l26.549-16.74c7.034-10.143-2.262-25.793-12.753-18.728" fill="#931FFF"/><path d="m146.978 79.634 12.572-4.185-11.145.996zm14.547 17.24-2.123-10.254-1.546 8.908-7.107 8.14z" fill="#010423"/><path d="m159.23 83.583 4.2 27.881c8.5.872 17.261-.873 22.13-3.612l-6.967-30.45c-6.905-9.65-14.309-2.763-19.363 6.181" fill="#931FFF"/><path d="m176.495 79.495-.027-.004c-4.472-1.068-8.403-4.146-10.518-8.234a.116.116 0 0 1 .05-.156.114.114 0 0 1 .155.05c2.084 4.029 5.959 7.063 10.367 8.115a.116.116 0 0 1-.027.228" fill="#fff"/><path d="m63.085 178.918 32.733.108 7.421.024 13.674.045c.03-9.047-.778-16.236-2.705-23.838-2.748-2.04-6.441-1.54-10.51-.033-2.857-1.127-4.3-3.779-5.333-6.873-2.841-5.76-8.598-3.205-8.708-.096 0 0 .22.544-1.173 3.309-1.728 3.431-7.314 4.767-12.813 7.129-6.677 2.862-13.226 8.791-12.586 20.225" fill="#FF5D40"/><path d="m63.03 175.348.056 3.57 53.827.482.014-3.604z" fill="#010423"/><path d="M95.553 156.094a.27.27 0 0 1-.172-.062l-.49-.396c-2.127-1.728-3.808-3.092-6.617-3.243a.28.28 0 1 1 .03-.561c2.991.16 4.735 1.575 6.942 3.367l.488.395a.282.282 0 0 1-.18.5m-5.797 3.865a.28.28 0 0 1-.258-.179 8.33 8.33 0 0 0-4.356-4.548.28.28 0 1 1 .227-.514 8.9 8.9 0 0 1 4.652 4.857.28.28 0 0 1-.265.384m-5.832 2.761a.28.28 0 0 1-.277-.279c-.018-2.018-1.162-3.966-2.915-4.962a.28.28 0 0 1 .277-.489c1.924 1.093 3.18 3.231 3.2 5.446a.28.28 0 0 1-.279.284zm-5.202 1.835a.28.28 0 0 1-.273-.238 9.08 9.08 0 0 0-2.774-5.221.28.28 0 1 1 .382-.412 9.65 9.65 0 0 1 2.947 5.546.28.28 0 0 1-.282.325" fill="#29180F"/><path d="M79.895 165.24a1.05 1.05 0 0 0-.384-1.43 1.048 1.048 0 0 0-1.044 1.815c.5.288 1.14.116 1.428-.385m5.055-1.825a1.046 1.046 0 1 0-1.428.385c.5.289 1.139.117 1.427-.385m6.023-2.596a1.05 1.05 0 0 0-.384-1.43 1.047 1.047 0 1 0 .384 1.43m6.126-4.111a1.045 1.045 0 1 0-1.812-1.045 1.045 1.045 0 1 0 1.812 1.045" fill="#232020"/><path d="M69.444 162.539c3.86 1.05 7.78 4.704 9.392 12.94l-15.77-.131c.197-3.303-.24-6.79 6.378-12.809" fill="#FFD035"/><path d="m104.001 159.828 2.099 2.587 3.319-.264-1.809 2.799 1.277 3.079-3.218-.858-2.53 2.167-.179-3.329-2.84-1.739 3.107-1.2z" fill="#fff"/><path d="M80.48 145.915c-.97.205-1.488.755-1.456 1.551.041 1.019 1.024 2.269 2.367 2.433.34.062.671.12 1.007.178 1.768.309 3.75.654 5.434 1.427-1-3.307-4.187-5.771-7.351-5.589m7.727 6.372a.3.3 0 0 1-.128-.033c-1.705-.912-3.775-1.273-5.777-1.622q-.507-.088-.995-.177c-1.631-.199-2.793-1.695-2.844-2.966-.043-1.077.676-1.873 1.924-2.129l.04-.005c3.599-.221 7.233 2.724 8.094 6.561a.28.28 0 0 1-.119.296.28.28 0 0 1-.195.075" fill="#29180F"/><path d="M92.772 143.059c-2.931 1.207-4.74 4.809-4.213 8.223 1.184-1.426 2.822-2.596 4.282-3.639q.418-.298.817-.588c1.155-.74 1.5-2.292 1.097-3.229-.315-.731-1.018-1.003-1.983-.767m-4.343 9.121a.3.3 0 0 1-.079-.012.28.28 0 0 1-.235-.216c-.881-3.832 1.12-8.059 4.464-9.421a.2.2 0 0 1 .038-.013c1.236-.31 2.228.096 2.654 1.085.503 1.169.102 3.021-1.296 3.917-.253.185-.529.381-.807.58-1.655 1.182-3.365 2.405-4.508 3.965a.28.28 0 0 1-.231.115" fill="#29180F"/><path d="m244.01 179.644 3.808-32.554.862-7.381 1.591-13.6c-8.974-1.052-16.198-1.06-23.96-.003-2.333 2.503-2.255 6.234-1.22 10.453-1.441 2.714-4.236 3.85-7.423 4.529-6.036 2.175-4.152 8.191-1.08 8.652 0 0 .565-.156 3.151 1.542 3.209 2.107 3.904 7.816 5.625 13.554 2.085 6.966 7.228 14.152 18.646 14.808" fill="#FF5D40"/><path d="m240.461 179.295 3.549.348 6.564-53.499-3.575-.422z" fill="#010423"/><path d="M225.034 144.76a.27.27 0 0 1-.081.164l-.449.442c-1.954 1.922-3.498 3.44-3.965 6.218a.28.28 0 0 1-.324.231.285.285 0 0 1-.23-.324c.497-2.959 2.098-4.533 4.126-6.526l.447-.441a.281.281 0 0 1 .476.236m3.18 6.204a.28.28 0 0 1-.208.236 8.32 8.32 0 0 0-5.004 3.82.28.28 0 1 1-.485-.284 8.9 8.9 0 0 1 5.346-4.08.28.28 0 0 1 .342.199.3.3 0 0 1 .009.109m2.078 6.115a.28.28 0 0 1-.307.244c-2.005-.21-4.067.708-5.253 2.339a.281.281 0 1 1-.454-.331c1.303-1.79 3.566-2.798 5.764-2.567a.28.28 0 0 1 .252.309zm1.234 5.383a.28.28 0 0 1-.266.245 9.06 9.06 0 0 0-5.494 2.169.282.282 0 0 1-.367-.427 9.63 9.63 0 0 1 5.836-2.304.28.28 0 0 1 .293.269z" fill="#29180F"/><path d="M232.339 161.373a1.047 1.047 0 0 0-1.243 1.685c.465.344 1.12.245 1.462-.22a1.05 1.05 0 0 0-.219-1.465m-1.241-5.235a1.043 1.043 0 0 0-1.461.221 1.05 1.05 0 0 0 .221 1.464 1.047 1.047 0 0 0 1.24-1.685m-1.893-6.285a1.05 1.05 0 0 0-1.465.22 1.05 1.05 0 0 0 .222 1.465 1.047 1.047 0 0 0 1.243-1.685m-3.388-6.56a1.044 1.044 0 0 0-1.462.22 1.045 1.045 0 1 0 1.462-.22" fill="#232020"/><path d="M228.478 171.466c1.478-3.722 5.547-7.209 13.9-7.882l-1.912 15.676c-3.254-.57-6.765-.531-11.988-7.794" fill="#FFD035"/><path d="m229.694 136.778 2.804-1.796.113-3.332 2.573 2.116 3.198-.922-1.214 3.104 1.865 2.762-3.325-.198-2.046 2.629-.838-3.226z" fill="#fff"/><path d="M213.23 158.605c.093.99.581 1.567 1.374 1.625 1.016.074 2.367-.762 2.681-2.081.1-.331.195-.654.291-.981.506-1.724 1.073-3.657 2.03-5.245-3.394.621-6.2 3.513-6.376 6.682m7.195-6.967a.3.3 0 0 1-.047.124c-1.097 1.593-1.69 3.612-2.263 5.565q-.143.494-.288.969c-.381 1.601-1.997 2.587-3.265 2.495-1.073-.079-1.781-.885-1.894-2.156l-.001-.04c.188-3.605 3.521-6.889 7.426-7.311a.28.28 0 0 1 .28.151.28.28 0 0 1 .052.203" fill="#29180F"/><path d="M211.785 146.054c.866 3.053 4.235 5.26 7.683 5.122-1.281-1.34-2.257-3.101-3.127-4.673q-.248-.448-.491-.879c-.604-1.232-2.105-1.752-3.08-1.457-.761.231-1.111.901-.985 1.887m8.559 5.352a.3.3 0 0 1-.021.077.28.28 0 0 1-.241.21c-3.902.443-7.869-2.027-8.844-5.506q-.005-.02-.007-.039c-.169-1.266.347-2.207 1.376-2.519 1.217-.368 3.009.24 3.74 1.733.155.273.319.568.485.868.985 1.78 2.005 3.62 3.424 4.934a.28.28 0 0 1 .088.242" fill="#29180F"/><path d="M168.835 33.462c-2.959-2.761-16.032-2.184-16.35-2.131s-3.696.873-3.696.873c-1.965-.21-12.956 5.799-13.343 8.2-.137.85 3.314 7.832 6.686 15.825 2.316 5.49 5.222 20.323 5.222 20.323 9.665 1.353 28.447-6.13 28.447-6.13s-4.395-11.291-4.128-17.329c.357-8.049.118-16.872-2.838-19.631" fill="#FF5D40"/><path d="M163.545 43.48s5.634 5.419 6.031 6.375 2.168 6.049 2.168 6.049l.023-9.004z" fill="#010423"/><path d="M148.121 30.286c1.132-.715 6.327-1.345 6.327-1.345l-.108 2.353-8.32 1.407s.969-1.7 2.101-2.415" fill="#fff"/><path d="M154.788 30.868c-1.915-.386-3.935.285-6.198 1.174-.519.171 1.963 4.296 2.708 4.838.054.04 3.49-6.012 3.49-6.012" fill="#FFA061"/><path d="m146.583 32.985-1.07 2.14c1.052-.413 4.267.999 5.785 1.755-1.42-1.161-3.78-3.839-4.715-3.896" fill="#010423"/><path d="M151.28 37.005s2.299-2.023 2.965-2.046c.667-.022 2.839.333 2.839.333s-2.695-2.633-3.051-2.447c-.356.187-2.758 3.461-2.753 4.16" fill="#010423"/><path d="m149.142 31.758-2.228-.35-1.558 1.987c.996.23 4.148 2.516 5.954 3.498-1.16-1.297-2.133-3.291-2.168-5.135" fill="#fff"/><path d="M154.448 28.94c.862.163 2.687 1.004 3.619 1.906l-.983 4.446s-2.764-1.967-3.229-1.742-2.575 3.455-2.575 3.455 1.613-6.288 3.168-8.064" fill="#fff"/><path d="M143.631 23.572c.14-1.228 1.095-3.05 2.587-3.609 1.54-.577 3.535.14 4.355 1.23.828 1.1 2.571 2.702 1.776 6.197-.299 1.313.613 3.126.896 3.407-.643.724-3.066 1.188-4.041 1.019.622-1.237.137-1.93.027-2.073-.158-.208-1.365.255-2.62-.204-1.813-.664-3.194-4.082-2.98-5.967" fill="#FFA061"/><path d="M149.146 29.693c.314.321.369 1.079.369 1.079.881-.666 1.655-1.407 2.061-3.018-1.166 1.323-1.529 1.634-2.43 1.938m.173-5.622a.62.62 0 1 0-1.176.403.621.621 0 1 0 1.176-.403" fill="#291A12"/><path d="M148.549 23.677c.455-.13.652.237 1.105.06a.657.657 0 0 1-1.105-.06" fill="#291A12"/><path d="M149.034 24.047a.146.146 0 1 0-.276.094.146.146 0 0 0 .276-.094" fill="#fff"/><path d="M147.502 23.008c.363-.33 1.486-.589 1.942.096-.361-.142-1.072-.158-1.574.286-.214.188-.448-.309-.368-.382m-2.737 2.656a.547.547 0 1 1 1.036-.355.547.547 0 0 1-1.036.355" fill="#291A12"/><path d="M145.088 24.975c-.386.155-.326.517-.735.638.154.08.766.013.735-.638" fill="#291A12"/><path d="M144.95 25.495a.129.129 0 1 1 .244-.084.129.129 0 0 1-.244.084" fill="#fff"/><path d="M145.647 23.677c-.489-.04-1.534.446-1.476 1.266.199-.333.751-.782 1.419-.74.284.018.165-.518.057-.526m1.346 2.532c-.024-.487.324-.97.077-1.444-.062-.12.132-.197.193-.078.212.407.045.846-.038 1.262-.036.173-.062.423.128.517.186.092.402-.01.574-.085.123-.055.201.139.078.193-.209.092-.434.178-.663.11-.215-.064-.338-.255-.349-.475" fill="#291A12"/><path d="M146.871 27.64c.07.204.27.424.529.58.304.183.689.28 1.039.16.346-.12.588-.424.718-.75.114-.287.14-.59.069-.796a4.25 4.25 0 0 1-2.355.807" fill="#fff"/><path d="M151.363 23.369s.365-1.742 1.659-1.21c1.302.535.939 4.088-.965 3.017zm-34.277 47.306c5.735 1.773 10.847-5.727 1.221-9.443-3.972-1.533-22.851-8.418-22.851-8.418l-.857 3.466s13.207 11.525 22.487 14.395m46.283-38.319c-8.197.59-6.895 9.011 1.537 12.037 5.762 2.068 21.464 7.31 27.878 8.089 10.854 1.213 10.016-5.905.924-9.506-4.538-1.798-24.939-11.009-30.339-10.62" fill="#FFA061"/><path d="M183.981 37.075c-.285 4.105-1.857 8.403-3.963 12.78 0 0-25.292-5.357-22.755-13.777 3.032-10.062 26.718.996 26.718.996" fill="#FF5D40"/><path d="M181.024 105.891a.115.115 0 0 1-.111-.087l-6.944-27.19a.117.117 0 0 1 .084-.141.115.115 0 0 1 .14.083l6.943 27.19a.116.116 0 0 1-.112.145" fill="#fff"/><path d="M167.243 107.969q-1.173 0-2.35-.052a.116.116 0 0 1-.11-.121c.003-.064.058-.108.121-.111a52.3 52.3 0 0 0 17.514-2.192.115.115 0 0 1 .144.077.115.115 0 0 1-.077.144 52.5 52.5 0 0 1-15.242 2.255m-22.559-2.642a.11.11 0 0 1-.092-.046c-3.85-5.139-6.964-10.234-9.254-15.145a.115.115 0 1 1 .209-.098c2.284 4.896 5.389 9.978 9.229 15.104a.115.115 0 0 1-.092.185m6.785-64.98a.688.688 0 1 1 1.344-.293.688.688 0 0 1-1.344.293m1.209 4.443a.688.688 0 1 1 1.344-.292.688.688 0 0 1-1.344.293" fill="#fff"/><path d="M151.486 23.076a1.96 1.96 0 0 1-.687-1.18l-.135.796a2.14 2.14 0 0 1-.579-1.632c-.951.608-2.364.396-3.223-.484.022.364.169.727.425 1a4.7 4.7 0 0 1-1.472-.64c-1.41.96-2.191 1.693-2.245 3.587-.421-.921-1.576-2.455-.423-3.907 0 0 1.324-2.69 3.194-3.07 2.562-.52 5.767 1.193 6 3.255.097.858-.175 2.385-.425 3.166z" fill="#291A12"/><path d="M143.208 20.49c1.658-2.007 6.096-2.31 7.868-.833A6.36 6.36 0 0 1 154.525 22c.421-1.798.002-3.751-.372-4.297-.882-1.28-2.956-2.163-3.492-2.406a4 4 0 0 0-.511-.196l-.001-.002c-2.277-.732-4.898.016-5.701.715-1.716 1.495-1.491 4.397-1.24 4.676" fill="#931FFF"/><path d="M143.208 20.49c1.658-2.007 6.096-2.31 7.868-.833.152-3.85-.88-4.496-.926-4.556l-.001-.002c-2.277-.732-4.898.016-5.701.715-1.716 1.495-1.491 4.397-1.24 4.676" fill="#FFD035"/><path d="M151.006 19.67s-.903-1.286-2.125-1.605c-1.92-.503-6.956.733-7.303 1.988-.206.746 1.62.444 1.62.444.454-.275 3.056-2.367 7.808-.826" fill="#931FFF"/><path d="M199.937 46.643c-5.805-3.85-13.989 1.94-4.397 9.154 3.957 2.975 21.737 15.66 21.737 15.66l3.149-2.447s-11.097-16.137-20.489-22.367" fill="#FFA061"/><path d="M217.653 66.847s5.06 1.33 7.115 2.867l.003-.004s4.533 3.179 3.104 4.07a.6.6 0 0 1-.388.074c.487 1.05.729 1.978.305 2.29-.571.418-1.278-.197-1.278-.197s.534 1.175-.09 1.6c-1.219.833-2.962-2.7-4.556-3.717-1.38-.88-2.878-1.31-2.204-.038.652 1.233 1.059 2.382.461 2.687-.725.37-2.423-1.576-3.046-2.578-.424-.68-2-4.193-2-4.193zM94.697 56.484c-1.991.226-3.693 1.178-5.604-1.318 0 0 1.056-3.908 1.832-4.812.678-.789 3.452-1.017 4.466.775.617 1.091.553 2.982.553 2.982z" fill="#FFA061"/><path d="M103.327 23.217q-.005 0-.009-.002a.024.024 0 0 1-.013-.03l8.496-20.571a.023.023 0 0 1 .03-.013.023.023 0 0 1 .013.03l-8.496 20.572a.02.02 0 0 1-.021.014m-1.511-.875-.009-.002a.023.023 0 0 1-.012-.03l8.332-20.177c.005-.012.019-.018.03-.013a.023.023 0 0 1 .013.03l-8.333 20.177a.02.02 0 0 1-.021.015m-1.476-1.49-.008-.002a.023.023 0 0 1-.013-.03l7.722-18.697a.022.022 0 0 1 .03-.013.024.024 0 0 1 .013.03l-7.722 18.698a.02.02 0 0 1-.022.014m-1.183-2.195-.01-.002a.023.023 0 0 1-.012-.03l6.519-15.785c.005-.011.019-.017.03-.012a.023.023 0 0 1 .013.03l-6.519 15.784a.02.02 0 0 1-.021.015m-.805-3.114-.009-.002a.023.023 0 0 1-.012-.03l4.414-10.687a.022.022 0 0 1 .03-.013.023.023 0 0 1 .012.03L98.373 15.53a.02.02 0 0 1-.02.014m6.65 8.146h-.008a.023.023 0 0 1-.013-.031l8.331-20.172a.023.023 0 0 1 .03-.013c.012.005.017.019.012.03l-8.33 20.172a.024.024 0 0 1-.022.015m2.082.019-.009-.002a.023.023 0 0 1-.013-.03l7.718-18.689c.005-.011.019-.017.03-.012a.023.023 0 0 1 .013.03l-7.718 18.688a.02.02 0 0 1-.021.014m2.374-.683-.009-.002a.023.023 0 0 1-.013-.03l6.522-15.791c.004-.012.018-.018.03-.013s.017.018.012.03l-6.521 15.791a.02.02 0 0 1-.021.015m2.878-1.906-.009-.003a.023.023 0 0 1-.013-.03l4.31-10.435c.005-.012.019-.018.03-.012a.024.024 0 0 1 .013.03l-4.31 10.435a.02.02 0 0 1-.021.014" fill="#010423"/><path d="m115.579 16.384-.008-.002-16.19-6.457a.023.023 0 0 1-.013-.03.023.023 0 0 1 .03-.013l16.19 6.457a.023.023 0 0 1 .013.03.03.03 0 0 1-.022.015m-.765 1.559q-.005 0-.009-.002l-15.937-6.355a.023.023 0 0 1-.013-.03.022.022 0 0 1 .03-.013l15.938 6.355a.023.023 0 0 1 .012.03.02.02 0 0 1-.021.015m-1.104 1.642-.008-.002-15.162-6.047a.023.023 0 0 1-.013-.03.023.023 0 0 1 .03-.013l15.162 6.048a.023.023 0 0 1 .013.03.02.02 0 0 1-.022.014m-1.373 1.535-.009-.003-.029-.011-13.955-5.564a.023.023 0 0 1-.013-.03.023.023 0 0 1 .03-.013l13.984 5.576a.023.023 0 0 1 .013.03.02.02 0 0 1-.021.014m-1.829 1.353-.008-.001-11.615-4.633a.023.023 0 0 1-.013-.03.023.023 0 0 1 .03-.013l11.615 4.633a.023.023 0 0 1 .013.03q-.006.014-.022.014m-2.544 1.068-.703-.28-7.267-2.897a.023.023 0 0 1-.013-.03.023.023 0 0 1 .03-.013l7.969 3.177zm8.184-8.796-.008-.001-16.061-6.404c-.012-.005-.017-.018-.013-.03s.018-.018.03-.013l16.061 6.404c.012.004.017.018.013.03a.02.02 0 0 1-.022.014m.392-1.924-.008-.002-15.404-6.142a.023.023 0 0 1-.013-.03.023.023 0 0 1 .03-.013l15.404 6.142a.023.023 0 0 1 .013.03.024.024 0 0 1-.022.015m.109-2.04-.009-.001-.036-.016-14.134-5.635a.023.023 0 0 1-.013-.03.022.022 0 0 1 .03-.013l.149.06 14.022 5.591c.012.005.017.018.012.03a.02.02 0 0 1-.021.014m-.272-2.19-.008-.001-12.2-4.865.016-.044 2.779 1.11 9.42 3.755a.024.024 0 0 1 .014.03q-.007.015-.021.015m-.76-2.21h-.008l-9.388-3.745a.023.023 0 0 1-.013-.03c.004-.012.017-.018.03-.013l9.388 3.744a.023.023 0 0 1 .013.03.03.03 0 0 1-.022.015m-20.691 36.99.921.368 8.134-20.452-.922-.368z" fill="#010423"/><path d="M86.941 60.216c-.282.71.165 1.555.999 1.888.832.332 1.737.025 2.02-.685a1.2 1.2 0 0 0 .076-.569l5.488-13.799c.254-.637.101-1.298-.343-1.475l-1.154-.46c-.444-.177-1.01.197-1.263.835l-5.488 13.798a1.2 1.2 0 0 0-.335.467" fill="#FFD52B"/><path d="m92.047 47.752-3.923 9.864 2.76 1.1 3.923-9.863z" fill="#010423"/><path d="m102.073 25.345.958.382 1.776-2.222c-.898-.119-1.726-.465-2.498-.996z" fill="#FFD52B"/><path d="M112.621 3.218c2.905 1.754 4.072 5.377 3.871 8.643-.192 3.175-1.538 6.32-3.754 8.605l-.005.005c-5.869 6.037-13.976 2.814-14.095-5.62l-.001-.008c-.026-1.62.276-3.24.837-4.767 1.737-5.133 7.799-9.991 13.147-6.858m-14.69 11.344.002.007c-.037 9.379 9.084 13.029 15.504 6.183l.006-.005c2.917-3.153 4.366-7.75 3.541-11.991-.801-4.487-4.585-7.942-9.273-7.105q-.004 0-.006.003c-3.722.646-6.742 3.537-8.344 6.877-.899 1.872-1.413 3.958-1.43 6.03" fill="#FFD52B"/><path d="m95.234 42.94.564.224a.37.37 0 0 1 .207.48l-.78 1.959-1.25-.499.78-1.958a.37.37 0 0 1 .48-.206m3.712-33.466q-.068.17-.129.341a14 14 0 0 0-.514 1.697q-.166.7-.255 1.397l-.026.19q-.086.74-.092 1.463v.007c.164-.064.578.066.706.281v-.007l-.005-.146a13 13 0 0 1 .092-1.519q.08-.698.243-1.401l.044-.185q.162-.67.4-1.34.03-.09.062-.176a14 14 0 0 1 .546-1.283q.04-.085.083-.167a13 13 0 0 1 .798-1.383 13 13 0 0 1 .92-1.234c.009-.245-.386-.49-.689-.274l-.06.075q-.446.553-.838 1.167a14 14 0 0 0-.79 1.387l-.082.167q-.22.461-.414.943m13.785 10.997c.189-.16.687.104.705.28l.005-.004a13 13 0 0 0 1.05-1.281 14 14 0 0 0 .868-1.355q.339-.603.624-1.25l.075-.171q.07-.168.138-.337.192-.483.347-.97.03-.09.056-.178.207-.683.345-1.363.02-.094.034-.188a13 13 0 0 0 .199-1.52c-.099-.159-.502-.35-.686-.274v.002l-.006.095q-.046.709-.174 1.431-.016.093-.035.187a13 13 0 0 1-.392 1.545q-.151.487-.345.97-.066.17-.139.338-.035.084-.074.17a13.5 13.5 0 0 1-1.51 2.599l-.116.154a12 12 0 0 1-.963 1.115z" fill="#FF5D40"/><path d="M95.31 50.997c-1.147-1.205-2.327-2.341-3.173-1.8-.847.54.629 1.77 2.198 3.295zm-5.056-1.333c-1.32-.359-1.197 1.318-1.197 1.318-.504.414-.73 1.175-.511 1.42-.77.518-.424 1.48-.424 1.48-.67.994.75 1.695 1.88 1.63.98-.055.533-1.3.533-1.3.843-.255.647-1.086.486-1.15.918-.494.405-1.478.296-1.48.591-.283 1.259-1.287-1.063-1.918" fill="#FFA061"/><path d="M177.527 47.847a.116.116 0 0 1-.106-.162c1.533-3.498 2.575-7.139 3.185-11.13a.114.114 0 0 1 .131-.098c.063.01.107.069.097.132-.613 4.012-1.66 7.672-3.202 11.19a.12.12 0 0 1-.105.068m-42.656 10.497a.1.1 0 0 1-.055-.014 29.5 29.5 0 0 1-7.313-5.585.116.116 0 0 1 .003-.164.116.116 0 0 1 .164.004 29.3 29.3 0 0 0 7.256 5.541c.056.03.077.101.047.157a.12.12 0 0 1-.102.06" fill="#fff"/><path d="m65.514 17.32.046.204-2.171.511-.046-.204zm.468 1.764-2.062.99-.084-.19 2.062-.99zm.373 1.436-2.021 1.32-.106-.178 2.022-1.32zm-1.037-4.352.007.208-2.28.033-.007-.21zm-.285-1.457-.017.207-2.386-.283.017-.207z" fill="#010423"/><path d="m58.565 26.992 6.064-4.484a.79.79 0 0 0 .274-.814l-.04-.148c-.08-.291-.333-.448-.596-.363l-6.746 2.175-2.745 3.468z" fill="#C0FFCC"/><path d="M57.318 24.687 64 20.661a.72.72 0 0 0 .318-.783l-.04-.148a.526.526 0 0 0-.633-.395l-7.358 1.709-3.063 3.237z" fill="#46AFA0"/><path d="m55.446 12.377 7.35 1.541c.289.06.535.329.58.627l.025.152c.046.298-.12.546-.395.58l-7.03.845-3.913-2.008z" fill="#C0FFCC"/><path d="m55.187 14.709 7.727.864a.71.71 0 0 1 .608.58l.025.152a.534.534 0 0 1-.416.625l-7.397 1.526-4.109-1.664z" fill="#46AFA0"/><path d="m55.863 21.894 7.557-3.267c.297-.128.465-.443.4-.737l-.033-.15a.6.6 0 0 0-.665-.454l-8.137.92-3.558 2.867z" fill="#C0FFCC"/><path d="m64.866 14.403 1.473-.338c1.754-.403 3.513.794 3.93 2.672s-.665 3.726-2.418 4.129l-1.473.338z" fill="#46AFA0"/><path d="m67.688 20.903-1.511-6.8-.469.107.21.947.1.446.138.623.1.446.13.587.107.483.122.55.108.483.14.635.09.397.248 1.118.019.086z" fill="#46AFA0"/><path d="M72.387 14.137a.116.116 0 0 1-.083-.196c5.313-5.54 12.733-9.19 20.359-10.017a.116.116 0 0 1 .025.23c-7.573.82-14.942 4.446-20.218 9.948a.12.12 0 0 1-.083.035m1.484 2.753a.116.116 0 0 1-.023-.229c2.983-.625 6.022-.7 9.032-.225.064.01.106.07.096.133a.114.114 0 0 1-.131.096 24.7 24.7 0 0 0-8.974.224" fill="#010423"/><path d="M210.159 12.797c0-4.129 3.343-7.476 7.465-7.476 4.123 0 7.466 3.347 7.466 7.476s-3.343 7.475-7.466 7.475c-4.122 0-7.465-3.347-7.465-7.475" fill="#FFD52B"/><path d="m59.92 62.41 1.883 3.82 4.21.613-3.047 2.974.72 4.198-3.766-1.982-3.766 1.982.72-4.198-3.047-2.974 4.21-.612zm180.54 34.281 1.882 3.82 4.21.613-3.046 2.973.721 4.199-3.767-1.983-3.764 1.983.718-4.199-3.046-2.973 4.21-.613z" fill="#931FFF"/><path d="M76.295 57.406a1.294 1.294 0 1 1 2.588-.002 1.294 1.294 0 0 1-2.588.002M236.447 86.62a1.294 1.294 0 1 1 2.587 0 1.295 1.295 0 1 1-2.587 0m-51.999 67.343a2.13 2.13 0 0 1 2.129-2.132 2.13 2.13 0 0 1 0 4.263 2.13 2.13 0 0 1-2.129-2.131m-139.514-9.828a2.13 2.13 0 1 1 4.257 0 2.13 2.13 0 0 1-2.129 2.132 2.13 2.13 0 0 1-2.128-2.132M132.482 2.132a2.13 2.13 0 1 1 4.258 0 2.13 2.13 0 1 1-4.258 0" fill="#FF5D40"/><path d="M47.79 94.344c1.295.388 2.534.411 3.44.339 3.079-.246 6.115-1.909 6.767-3.707.265-.73.104-1.389-.476-1.96-.807-.793-1.918-1.09-3.211-.858-2.418.434-4.844 2.552-6.183 5.395q-.178.38-.336.79m25.109 41.52c-9.598 0-15.792-5.889-19.368-11.029-6.917-9.939-8.612-23.282-6.042-30.343-1.634-.543-3.33-1.673-4.567-3.902-2.583-4.654-3.44-10.227-2.479-16.116.91-5.57 3.347-11.044 7.05-15.83 3.192-4.123 7.177-7.484 11.525-9.718 4.76-2.445 9.76-3.501 14.864-3.139a.115.115 0 1 1-.017.23c-9.68-.687-19.47 4.087-26.189 12.77-7.832 10.12-9.62 22.56-4.553 31.69 1.204 2.17 2.856 3.27 4.447 3.797q.164-.426.349-.82c1.368-2.908 3.86-5.077 6.35-5.523 1.37-.246 2.55.073 3.414.92.641.631.825 1.393.531 2.204-.692 1.907-3.751 3.602-6.966 3.858-.931.074-2.207.05-3.54-.351-2.557 6.995-.867 20.254 6.012 30.141 3.798 5.458 10.573 11.767 21.273 10.837a.114.114 0 0 1 .125.105.117.117 0 0 1-.105.126q-1.083.093-2.115.093" fill="#010423"/></svg>