<svg width="470" height="146" viewBox="0 0 470 146" fill="none" xmlns="http://www.w3.org/2000/svg">
<rect width="470" height="146" fill="#F1A771"/>
<rect width="46" height="146" fill="#F3C39F"/>
<rect x="345" width="125" height="146" fill="#F38D5D"/>
<path d="M269.4 137V114.696H276.76C278.915 114.696 280.6 115.187 281.816 116.168C283.053 117.149 283.672 118.525 283.672 120.296C283.672 121.363 283.437 122.312 282.968 123.144C282.499 123.955 281.837 124.584 280.984 125.032C282.264 125.416 283.224 126.088 283.864 127.048C284.504 127.987 284.824 129.181 284.824 130.632C284.824 132.637 284.195 134.205 282.936 135.336C281.677 136.445 279.907 137 277.624 137H269.4ZM272.664 133.992H277.4C280.195 133.992 281.592 132.819 281.592 130.472C281.592 129.341 281.261 128.467 280.6 127.848C279.96 127.229 279.053 126.92 277.88 126.92H272.664V133.992ZM272.664 124.008H277.144C278.125 124.008 278.915 123.72 279.512 123.144C280.131 122.568 280.44 121.779 280.44 120.776C280.44 119.795 280.12 119.037 279.48 118.504C278.84 117.971 277.933 117.704 276.76 117.704H272.664V124.008ZM286.761 137L295.433 114.696H297.961L306.601 137H303.049L296.713 119.432L290.345 137H286.761ZM291.881 132.04L292.873 129.128H300.489L301.577 132.04H291.881ZM316.502 137.384C314.219 137.384 312.342 136.787 310.87 135.592C309.419 134.397 308.534 132.808 308.214 130.824L311.382 130.056C311.616 131.507 312.203 132.605 313.142 133.352C314.08 134.099 315.232 134.472 316.598 134.472C317.387 134.472 318.08 134.333 318.678 134.056C319.296 133.757 319.787 133.341 320.15 132.808C320.512 132.253 320.694 131.635 320.694 130.952C320.694 130.227 320.491 129.629 320.086 129.16C319.702 128.691 319.147 128.275 318.422 127.912C317.718 127.528 316.864 127.144 315.862 126.76C314.56 126.269 313.44 125.736 312.502 125.16C311.584 124.584 310.87 123.901 310.358 123.112C309.867 122.301 309.622 121.331 309.622 120.2C309.622 119.048 309.899 118.035 310.454 117.16C311.03 116.264 311.83 115.56 312.854 115.048C313.878 114.536 315.062 114.28 316.406 114.28C317.835 114.28 319.104 114.611 320.214 115.272C321.344 115.912 322.24 116.883 322.902 118.184L320.31 119.784C319.84 118.931 319.264 118.28 318.582 117.832C317.92 117.384 317.163 117.16 316.31 117.16C315.648 117.16 315.051 117.288 314.518 117.544C314.006 117.8 313.6 118.152 313.302 118.6C313.024 119.027 312.886 119.539 312.886 120.136C312.886 120.755 313.056 121.288 313.398 121.736C313.76 122.184 314.283 122.589 314.966 122.952C315.67 123.293 316.544 123.656 317.59 124.04C318.912 124.552 320.043 125.107 320.982 125.704C321.92 126.28 322.646 126.973 323.158 127.784C323.67 128.595 323.926 129.587 323.926 130.76C323.926 132.04 323.606 133.181 322.966 134.184C322.347 135.165 321.483 135.944 320.374 136.52C319.264 137.096 317.974 137.384 316.502 137.384ZM330.241 130.024V125.896L340.929 114.696H345.281L330.241 130.024ZM327.681 137V114.696H330.945V137H327.681ZM341.537 137L334.113 125.256L336.545 122.984L345.345 137H341.537ZM348.275 137V114.696H363.027V117.608H351.539V124.136H362.067V127.048H351.539V134.088H363.027V137H348.275ZM372.275 137V117.608H364.979V114.696H382.835V117.608H375.571V137H372.275ZM385.681 137V114.696H393.041C395.196 114.696 396.881 115.187 398.097 116.168C399.335 117.149 399.953 118.525 399.953 120.296C399.953 121.363 399.719 122.312 399.249 123.144C398.78 123.955 398.119 124.584 397.265 125.032C398.545 125.416 399.505 126.088 400.145 127.048C400.785 127.987 401.105 129.181 401.105 130.632C401.105 132.637 400.476 134.205 399.217 135.336C397.959 136.445 396.188 137 393.905 137H385.681ZM388.945 133.992H393.681C396.476 133.992 397.873 132.819 397.873 130.472C397.873 129.341 397.543 128.467 396.881 127.848C396.241 127.229 395.335 126.92 394.161 126.92H388.945V133.992ZM388.945 124.008H393.425C394.407 124.008 395.196 123.72 395.793 123.144C396.412 122.568 396.721 121.779 396.721 120.776C396.721 119.795 396.401 119.037 395.761 118.504C395.121 117.971 394.215 117.704 393.041 117.704H388.945V124.008ZM403.042 137L411.714 114.696H414.242L422.882 137H419.33L412.994 119.432L406.626 137H403.042ZM408.162 132.04L409.154 129.128H416.77L417.858 132.04H408.162ZM425.775 137V114.696H429.039V134.088H438.863V137H425.775ZM441.713 137V114.696H444.977V134.088H454.801V137H441.713Z" fill="#FEE2C7"/>
</svg>
