<svg width="299" height="207" viewBox="0 0 299 207" fill="none" xmlns="http://www.w3.org/2000/svg"><path d="M32.94 108.018c4.99 0 9.036-4.04 9.036-9.023s-4.045-9.023-9.035-9.023-9.035 4.04-9.035 9.023 4.045 9.023 9.035 9.023Z" stroke="#FFE978" stroke-width="1.5" stroke-miterlimit="10" stroke-linejoin="round"/><path d="M240.184 100.683a23 23 0 0 0-2.279 2.851c-3.762 5.576-1.726 10.603-3.558 16.41-1.381 4.374-6.191 7.801-5.453 12.328.61 3.741 4.78 5.761 8.531 6.34 7.603 1.176 15.335-.989 22.455-3.899 6.814-2.785 13.649-6.551 17.541-12.793 3.754-6.019 4.179-13.971 1.087-20.356-5.129-10.588-17.954-11.845-27.888-7.856-3.875 1.556-7.561 3.902-10.436 6.975" fill="#EBB0FF"/><path d="M242.066 89.753c-4.786 2.74-9.232 6.33-12.02 11.082s-3.719 10.796-1.522 15.848c2.434 5.597 8.239 9.109 14.175 10.556 9.6 2.34 20.441-.172 27.475-7.103 7.034-6.932 9.638-18.243 5.618-27.258-6.639-14.889-22.487-9.557-33.726-3.125Z" stroke="#FFE978" stroke-width="1.5" stroke-miterlimit="10" stroke-linejoin="round"/><path d="M24.213 159.231c-1.697-3.435-6.825-14.043-6.825-23.996 0-25.539 30.574-25.606 51.856-15.943 6.154 2.795 11.46 7.145 16.457 11.692 8.626 7.848 16.575 16.431 25.458 23.989 6.778 5.766 14.452 11.071 23.258 12.38 7.35 1.093 15.599-.506 21.669 3.774 4.277 3.014 6.314 8.225 9.548 12.335 7.897 10.033 24.013 12.286 34.365 4.804 9.1-6.576.914-15.718 5.484-24.237 2.16-4.026 6.708-6.366 11.254-6.867 4.899-.54 10.272 1.041 13.209 4.994 4.901 6.598 1.453 15.261-3.525 20.645-8.441 9.13-23.105 14.432-35.329 15.36-8.864.674-17.712-1.163-26.364-3.199-6.869-1.617-13.709-3.369-20.625-4.78-5.835-1.191-9.582-1.333-14.831-4.273-11.507-6.448-24.658-9.969-37.856-10.057-9.55-.065-19.028 1.615-28.571 1.945-15.274.53-31.983-5.105-38.632-18.566" fill="#EBB0FF"/><path d="M209.683 158.971c-4.031-.343-8.285 1.59-10.267 5.109-2.61 4.635-.964 10.484-2.17 15.664-1.212 5.209-5.364 9.433-10.264 11.592-12.991 5.724-29.977-.516-41.543-6.944-9.808-5.452-18.246-12.716-27.472-19.021C108.11 158.637 98.03 152.11 89.223 144c-13.119-12.08-27.877-21.639-46.505-18.27-8.572 1.551-17.175 4.446-23.686 10.225-6.512 5.78-10.549 14.892-8.491 23.346 1.616 6.64 6.738 12.043 12.755 15.297s12.882 4.597 19.683 5.345c18.182 2.001 36.603.059 54.825 1.658 25.551 2.243 48.351 14.371 72.937 20.383 11.225 2.744 23.441 3.416 34.024-1.218s18.935-15.589 17.782-27.071c-.677-6.747-5.127-13.659-12.297-14.66a12 12 0 0 0-.567-.064Z" stroke="#FFE978" stroke-width="1.5" stroke-miterlimit="10" stroke-linejoin="round"/><path d="M2.997 95.492H0v2.993h2.997z" fill="#F2D4FF"/><path d="M55.515 18.668H33.338v4.26h22.177z" stroke="#B5F4E1" stroke-width="1.5" stroke-miterlimit="10"/><path d="M216.323 101.186h-16.521m78.846-52.227h-16.522" stroke="#7F52F8" stroke-width="1.5" stroke-miterlimit="10"/><path d="M285.763 42.966h-11.459" stroke="#B5F4E1" stroke-width="1.5" stroke-miterlimit="10"/><path d="M46.745 20.421h18.688m-39.79 31.633H13.199" stroke="#7F52F8" stroke-width="1.5" stroke-miterlimit="10"/><path d="M18.264 38.124h-5.995v5.986h5.995z" stroke="#B5F4E1" stroke-width="1.5" stroke-miterlimit="10"/><path opacity=".65" d="M41.057 10.143H38.06v2.993h2.997zm201.35 72.763h-2.997V85.9h2.997zM17.388 174.867H14.39v2.993h2.997zm256.43 8.199h-2.998v2.994h2.998z" fill="#9A8AED"/><path d="M276.472 17.428h-2.997v2.993h2.997zm-89.843 97.494h-2.998v2.994h2.998zm104.492 33.468h-2.997v2.993h2.997zM48.243 162.119h-2.997v2.993h2.997zm163.424-26.062h-12.085v12.068h12.085z" fill="#F2D4FF"/><path opacity=".65" d="M215.445 133.045h-9.057v9.045h9.057z" fill="#9A8AED"/><path d="m277.715 131.834 4.637 4.63m0-4.63-4.637 4.63M44.426 59.617l4.637 4.63m0-4.63-4.637 4.63m-11.822 87.136 4.636 4.63m0-4.63-4.636 4.63" stroke="#FFE978" stroke-width="1.5" stroke-miterlimit="10" stroke-linejoin="round"/><path d="m88.238 116.419 4.238 4.231m0-4.231-4.238 4.231m174.745-7.843 3.722 3.716m0-3.716-3.722 3.716" stroke="#fff" stroke-width="1.5" stroke-miterlimit="10" stroke-linejoin="round"/><path d="M41.468 111.759c.018-7.466-6.028-13.533-13.504-13.551-7.477-.018-13.552 6.02-13.57 13.486s6.028 13.532 13.505 13.55c7.476.018 13.55-6.02 13.569-13.485" fill="#F2D4FF"/><mask id="a" style="mask-type:luminance" maskUnits="userSpaceOnUse" x="14" y="98" width="28" height="28"><path d="M41.468 111.759c.018-7.466-6.028-13.533-13.505-13.551-7.476-.018-13.55 6.02-13.569 13.486-.018 7.466 6.028 13.532 13.505 13.55 7.476.018 13.55-6.02 13.569-13.485" fill="#fff"/></mask><g mask="url(#a)" stroke="#fff" stroke-width="2" stroke-miterlimit="10" stroke-linejoin="round"><path d="m1.832 103.826 3.464-5.767 6.2 2.622 3.464-5.766 6.2 2.622 3.465-5.766 6.138 2.656 3.464-5.766 6.2 2.622 3.464-5.766M3.513 108.572l3.464-5.767 6.2 2.623 3.464-5.767 6.2 2.622 3.464-5.766 6.139 2.657 3.464-5.767 6.2 2.622 3.464-5.766M5.194 113.318l3.464-5.767 6.2 2.623 3.465-5.767 6.2 2.622 3.464-5.766 6.138 2.657 3.464-5.767 6.2 2.623 3.465-5.767M6.875 118.064l3.464-5.766 6.2 2.622 3.465-5.766 6.2 2.622 3.464-5.767 6.138 2.657 3.464-5.767 6.2 2.623 3.465-5.767M8.557 122.81l3.464-5.766 6.2 2.622 3.464-5.767 6.2 2.623 3.465-5.767 6.138 2.657 3.464-5.766 6.2 2.622 3.464-5.767m-40.378 23.056 3.464-5.767 6.2 2.622 3.464-5.766 6.201 2.622 3.464-5.766 6.138 2.656 3.464-5.766 6.2 2.622 3.464-5.766M11.92 132.303l3.464-5.767 6.2 2.622 3.464-5.766 6.2 2.622 3.464-5.767 6.139 2.657 3.463-5.766 6.201 2.622 3.464-5.766M13.6 137.049l3.465-5.767 6.2 2.623 3.464-5.767 6.2 2.623 3.464-5.767 6.139 2.657 3.464-5.767 6.2 2.623 3.464-5.767"/></g><path opacity=".45" d="M229.697 190.641c6.474-.48 11.332-6.109 10.852-12.574s-6.118-11.317-12.591-10.837c-6.474.48-11.332 6.109-10.852 12.574s6.118 11.317 12.591 10.837" fill="#9A8AED"/><mask id="b" style="mask-type:luminance" maskUnits="userSpaceOnUse" x="217" y="167" width="24" height="24"><path d="M229.697 190.641c6.474-.48 11.332-6.109 10.852-12.574s-6.118-11.317-12.591-10.837c-6.474.48-11.332 6.109-10.852 12.574s6.118 11.317 12.591 10.837" fill="#fff"/></mask><g mask="url(#b)" stroke="#FFE978" stroke-width=".75" stroke-miterlimit="10"><path d="m220.788 156.683 5.817-.583 1.388 5.671 5.818-.583 1.388 5.671 5.817-.583 1.332 5.646 5.817-.583 1.389 5.671 5.816-.583m-37.019-16.113 5.817-.584 1.388 5.672 5.818-.583 1.388 5.671 5.817-.583 1.332 5.646 5.817-.583 1.389 5.671 5.817-.583m-37.02-16.113 5.817-.583 1.388 5.671 5.818-.583 1.388 5.671 5.817-.583 1.332 5.646 5.817-.583 1.389 5.672 5.817-.584m-37.02-16.114 5.817-.583 1.389 5.671 5.817-.583 1.388 5.672 5.817-.583 1.332 5.646 5.817-.583 1.389 5.671 5.817-.583m-37.019-16.113 5.817-.583 1.388 5.671 5.817-.583 1.389 5.671 5.817-.583 1.332 5.646 5.817-.583 1.388 5.671 5.817-.583m-37.019-16.113 5.817-.584 1.389 5.672 5.817-.584 1.388 5.672 5.817-.583 1.332 5.646 5.818-.583 1.388 5.671 5.817-.583m-37.02-16.113 5.817-.583 1.389 5.671 5.817-.583 1.388 5.672 5.817-.584 1.332 5.646 5.818-.583 1.388 5.671 5.817-.583m-37.02-16.114 5.818-.583 1.388 5.671 5.817-.583 1.388 5.672 5.818-.583 1.331 5.646 5.818-.583 1.388 5.671 5.817-.583"/></g><path d="M251.146 46.347c3.927 0 7.11-3.178 7.11-7.1 0-3.92-3.183-7.1-7.11-7.1-3.926 0-7.109 3.18-7.109 7.1 0 3.922 3.183 7.1 7.109 7.1Z" stroke="#FFE978" stroke-width="1.5" stroke-miterlimit="10" stroke-linejoin="round"/><path d="M251.147 141.079a4.62 4.62 0 0 0 4.621-4.615 4.62 4.62 0 0 0-4.621-4.614 4.62 4.62 0 0 0-4.621 4.614 4.62 4.62 0 0 0 4.621 4.615Z" stroke="#B5F4E1" stroke-width="1.5" stroke-miterlimit="10"/><path d="m284.444 61.246-8.819-6.605 4.943 8.423-8.911.95 7.999 2.076-9.269 9.747 11.474-5.407.378 7.738 3.671-7.547 6.408 10.567-2.646-12.016h8.946l-9.198-3.541 9.58-7.379-11.595 3.435-.441-9.122z" fill="#FFE978"/><path d="m55.508 139.174 2.892-7.343-4.887 5.015-2.355-5.969.087 5.916-8.51-4.542 5.926 6.889-5.282 1.734 5.922 1.097-6.093 6.433 7.81-4.113 1.703 6.173.7-7.021 6.93 5.206-4.584-7.348 6.228-2.041z" fill="#B5F4E1"/><path d="m10.46 78.329 5.717.506-4.5-2.372 3.681-2.862-4.11 1.273 1.424-6.852-3.592 5.535-2.293-3.32.45 4.346-5.738-2.92 4.471 4.591-3.958 2.45 5.042-.952-2.211 5.89 4.187-4.697 2.7 3.915z" fill="#FFE978"/><path d="M283.56 160.157h-41.153v9.836h41.153z" stroke="#7F52F8" stroke-width="1.5" stroke-miterlimit="10"/><path d="M293.786 167.863h-34.607v6.272h34.607z" stroke="#B5F4E1" stroke-width="1.5" stroke-miterlimit="10"/><path d="M120.41 188.27c-1.269-5.274 2.017-13.098 5.118-18.616-3.407-1.18-5.58-2.158-5.58-2.158-1.648 4.202-3.316 2.779-5.763 7.64-2.857 5.674-.643 16.552-.643 16.552s1.655-2.585 6.868-3.418" fill="#fff"/><mask id="c" style="mask-type:luminance" maskUnits="userSpaceOnUse" x="112" y="167" width="14" height="25"><path d="M120.41 188.27c-1.269-5.274 2.017-13.098 5.118-18.616-3.407-1.18-5.58-2.158-5.58-2.158-1.648 4.202-3.316 2.779-5.763 7.64-2.857 5.674-.643 16.552-.643 16.552s1.655-2.585 6.868-3.418" fill="#fff"/></mask><g mask="url(#c)"><path d="M111.347 190.208a29.5 29.5 0 0 1 9.637-3.841" stroke="#EBB0FF" stroke-width="2" stroke-miterlimit="10"/></g><mask id="d" style="mask-type:luminance" maskUnits="userSpaceOnUse" x="112" y="167" width="14" height="25"><path d="M120.41 188.27c-1.269-5.274 2.017-13.098 5.118-18.616-3.407-1.18-5.58-2.158-5.58-2.158-1.648 4.202-3.316 2.779-5.763 7.64-2.857 5.674-.643 16.552-.643 16.552s1.655-2.585 6.868-3.418" fill="#fff"/></mask><g mask="url(#d)"><path d="M110.858 186.47a41.7 41.7 0 0 1 7.131-2.178c1.208-.254 2.482-.45 3.66-.08" stroke="#EBB0FF" stroke-width="2" stroke-miterlimit="10"/></g><mask id="e" style="mask-type:luminance" maskUnits="userSpaceOnUse" x="112" y="167" width="14" height="25"><path d="M120.41 188.27c-1.269-5.274 2.017-13.098 5.118-18.616-3.407-1.18-5.58-2.158-5.58-2.158-1.648 4.202-3.316 2.779-5.763 7.64-2.857 5.674-.643 16.552-.643 16.552s1.655-2.585 6.868-3.418" fill="#fff"/></mask><g mask="url(#e)"><path d="M110.222 182.048a24.2 24.2 0 0 1 12.237-.47" stroke="#EBB0FF" stroke-width="2" stroke-miterlimit="10"/></g><mask id="f" style="mask-type:luminance" maskUnits="userSpaceOnUse" x="112" y="167" width="14" height="25"><path d="M120.41 188.27c-1.269-5.274 2.017-13.098 5.118-18.616-3.407-1.18-5.58-2.158-5.58-2.158-1.648 4.202-3.316 2.779-5.763 7.64-2.857 5.674-.643 16.552-.643 16.552s1.655-2.585 6.868-3.418" fill="#fff"/></mask><g mask="url(#f)"><path d="M110.975 177.497a23.9 23.9 0 0 1 13.016 1.726" stroke="#EBB0FF" stroke-width="2" stroke-miterlimit="10"/></g><mask id="g" style="mask-type:luminance" maskUnits="userSpaceOnUse" x="112" y="167" width="14" height="25"><path d="M120.41 188.27c-1.269-5.274 2.017-13.098 5.118-18.616-3.407-1.18-5.58-2.158-5.58-2.158-1.648 4.202-3.316 2.779-5.763 7.64-2.857 5.674-.643 16.552-.643 16.552s1.655-2.585 6.868-3.418" fill="#fff"/></mask><g mask="url(#g)"><path d="M112.574 173.382a31.7 31.7 0 0 1 12.662 2.142" stroke="#EBB0FF" stroke-width="2" stroke-miterlimit="10"/></g><mask id="h" style="mask-type:luminance" maskUnits="userSpaceOnUse" x="112" y="167" width="14" height="25"><path d="M120.41 188.27c-1.269-5.274 2.017-13.098 5.118-18.616-3.407-1.18-5.58-2.158-5.58-2.158-1.648 4.202-3.316 2.779-5.763 7.64-2.857 5.674-.643 16.552-.643 16.552s1.655-2.585 6.868-3.418" fill="#fff"/></mask><g mask="url(#h)"><path d="M114.775 169.462a81 81 0 0 0 11.932 2.876" stroke="#EBB0FF" stroke-width="2" stroke-miterlimit="10"/></g><path d="M117.231 190.115c-1.379.599-2.572 1.241-3.482 2.467-1.568 2.115-2.935 4.369-4.303 6.615-1.313 2.156-2.562 4.315-4.672 5.802-1.157.816-2.535 1.281-3.957 1.208-.744-.038-1.614-.486-2.29-.794-1.548-.704-2.666-1.368-2.508-1.298 0 0-.825-3.226 1.13-9.499s8.057-29.491 8.859-30.969 1.379-1.862 1.796-1.805c.419.056 3.652.672 6.486 2.051 2.835 1.379 4.986 2.81 7.613 3.685 1.935.646 1.272 1.873-.263 3.289-1.234 1.139-3.917 3.905-5.103 8.068-1.187 4.163.689 4.727.802 7.152.113 2.426-.108 4.028-.108 4.028" fill="#D1402C"/><path d="M118.086 165.879c-1.23 1.578-3.328 1.792-5.33 1.781s-3.996-.442-5.993-.308m-.989 36.684c-.975-1.171-1.05-2.832-.977-4.353.101-2.115.397-4.222.884-6.283.344-1.456.783-2.896.94-4.384s.006-3.059-.759-4.345-2.238-2.216-3.725-2.037" stroke="#000" stroke-miterlimit="10" stroke-linejoin="round"/><path d="M117.059 184.704c-2.814 1.195-5.067 4.186-6.495 6.76-.877 1.582-1.617 3.316-2.492 4.932-.911 1.682-1.935 3.666-3.156 4.803" stroke="#000" stroke-miterlimit="10" stroke-linejoin="round"/><path d="M112.906 185.762a27.3 27.3 0 0 1 2.42 5.86m-5.108-2.085a21.8 21.8 0 0 1 2.766 4.481" stroke="#FFE978" stroke-width="3" stroke-miterlimit="10" stroke-linecap="round" stroke-linejoin="round"/><path d="M100.931 196.426c2.02-6.481 8.325-30.471 9.154-31.998.51-.94.931-1.449 1.281-1.69-1.794-.578-3.287-.859-3.561-.896-.419-.056-.995.327-1.797 1.805s-6.904 24.696-8.859 30.97c-1.955 6.272-1.13 9.499-1.13 9.499-.158-.07.96.593 2.508 1.298.355.161.763.36 1.178.519-.151-.953-.442-4.153 1.226-9.507" fill="#fff"/><path d="M110.96 197.222c-.804-1.331-1.799-2.618-2.667-3.336" stroke="#FFE978" stroke-width="3" stroke-miterlimit="10" stroke-linecap="round" stroke-linejoin="round"/><path d="M98.526 205.414s-.55-4.129.71-8.845c1.258-4.716 8.33-30.935 8.894-32.169.563-1.234.953-1.725 1.78-2.088" stroke="#2C2935" stroke-miterlimit="10"/><path d="M165.833 129.332a113.5 113.5 0 0 1 10.456 23.602c2.285 7.3 4.723 15.783 3.652 23.483-.996 7.161-5.874 11.587-12.849 13.029-8.875 1.835-48.037-2.018-48.037-2.018 0-.575 5.921-14.471 5.921-14.471s14.665-5.054 20.185-5.283c5.521-.23 9.201-.23 9.201-.23s-10.581-15.619-14.951-25.496-5.678-17.007-5.678-17.007" fill="#E9725B"/><path d="M165.302 189.942c10.263-1.141 13.68-6.632 14.639-13.525.287-2.067.316-4.191.169-6.333-2.412.945-5.181.981-7.815.967-2.676-.015-5.369-.044-7.995-.56-3.817-.75-7.343-2.499-10.79-4.321.536.808.851 1.275.851 1.275s-.72 0-1.998.02v.003c-.472 3.647 1.301 7.72 2.945 10.907 2.646 5.131 4.677 9.599 9.994 11.567" fill="#432572"/><path d="M155.294 167.871c3.903 5.16 9.724 8.836 16.065 10.147m-16.316-7.091c.113 1.584 1.118 2.945 2.084 4.206 2.892 3.776 6.042 7.743 10.539 9.302" stroke="#000" stroke-miterlimit="10"/><path d="M147.697 110.471c10.225 4.426 18.244 14.726 22.333 24.916-10.148-1.478-23.029 8.169-27.221 13.306 0 0-9.876-9.898-12.425-19.124s-1.84-25.345-1.84-25.345" fill="#2C2935"/><path d="M170.03 135.387c-10.149-1.478-23.029 8.169-27.221 13.305" stroke="#fff" stroke-width="3" stroke-miterlimit="10"/><path d="M114.561 130.311c-.29 5.184 2.105 14.006 3.505 17.286 4.884 11.453 9.128 20.716 9.128 20.716s-5.569-1.439-14.717-.17c-13.394 1.859-20.585 1.118-20.585 1.118l-11.575 16.014s11.853 1.242 17.898 2.515c6.045 1.272 33.206 5.562 40.321 6.092s12.688-1.485 15.504-4.878c2.817-3.394 4.46-11.135 2.443-21.422-1.461-7.448-8.84-35.362-8.84-35.362" fill="#E9725B"/><path d="M157.374 176.717c.008-2.658-.263-5.928-.892-9.135-1.46-7.448-8.84-35.362-8.84-35.362" stroke="#000" stroke-miterlimit="10"/><path d="M84.318 186.411c.365-5.779 6.181-12.727 11.081-17.383-3.104-2.273-5.012-3.953-5.012-3.953-3.005 3.769-4.258 1.794-8.284 5.984-4.7 4.891-5.867 16.683-5.867 16.683s2.501-2.119 8.082-1.331" fill="#fff"/><mask id="i" style="mask-type:luminance" maskUnits="userSpaceOnUse" x="76" y="165" width="20" height="23"><path d="M84.318 186.411c.365-5.779 6.181-12.727 11.081-17.383-3.104-2.273-5.012-3.953-5.012-3.953-3.005 3.769-4.258 1.794-8.284 5.984-4.7 4.891-5.867 16.683-5.867 16.683s2.501-2.119 8.082-1.331" fill="#fff"/></mask><g mask="url(#i)"><path d="M74.462 185.542a31.5 31.5 0 0 1 11.04-.892" stroke="#EBB0FF" stroke-width="2" stroke-miterlimit="10"/></g><mask id="j" style="mask-type:luminance" maskUnits="userSpaceOnUse" x="76" y="165" width="20" height="23"><path d="M84.318 186.411c.365-5.779 6.181-12.727 11.081-17.383-3.104-2.273-5.012-3.953-5.012-3.953-3.005 3.769-4.258 1.794-8.284 5.984-4.7 4.891-5.867 16.683-5.867 16.683s2.501-2.119 8.082-1.331" fill="#fff"/></mask><g mask="url(#j)"><path d="M75.14 181.576a44.4 44.4 0 0 1 7.96.017c1.311.121 2.673.321 3.758 1.068" stroke="#EBB0FF" stroke-width="2" stroke-miterlimit="10"/></g><mask id="k" style="mask-type:luminance" maskUnits="userSpaceOnUse" x="76" y="165" width="20" height="23"><path d="M84.318 186.411c.365-5.779 6.181-12.727 11.081-17.383-3.104-2.273-5.012-3.953-5.012-3.953-3.005 3.769-4.258 1.794-8.284 5.984-4.7 4.891-5.867 16.683-5.867 16.683s2.501-2.119 8.082-1.331" fill="#fff"/></mask><g mask="url(#k)"><path d="M75.884 176.865a25.84 25.84 0 0 1 12.632 3.363" stroke="#EBB0FF" stroke-width="2" stroke-miterlimit="10"/></g><mask id="l" style="mask-type:luminance" maskUnits="userSpaceOnUse" x="76" y="165" width="20" height="23"><path d="M84.318 186.411c.365-5.779 6.181-12.727 11.081-17.383-3.104-2.273-5.012-3.953-5.012-3.953-3.005 3.769-4.258 1.794-8.284 5.984-4.7 4.891-5.867 16.683-5.867 16.683s2.501-2.119 8.082-1.331" fill="#fff"/></mask><g mask="url(#l)"><path d="M78.085 172.459c4.68.708 9.15 2.76 12.734 5.847" stroke="#EBB0FF" stroke-width="2" stroke-miterlimit="10"/></g><mask id="m" style="mask-type:luminance" maskUnits="userSpaceOnUse" x="76" y="165" width="20" height="23"><path d="M84.318 186.411c.365-5.779 6.181-12.727 11.081-17.383-3.104-2.273-5.012-3.953-5.012-3.953-3.005 3.769-4.258 1.794-8.284 5.984-4.7 4.891-5.867 16.683-5.867 16.683s2.501-2.119 8.082-1.331" fill="#fff"/></mask><g mask="url(#m)"><path d="M81.012 168.764a33.8 33.8 0 0 1 12.241 6.16" stroke="#EBB0FF" stroke-width="2" stroke-miterlimit="10"/></g><mask id="n" style="mask-type:luminance" maskUnits="userSpaceOnUse" x="76" y="165" width="20" height="23"><path d="M84.318 186.411c.365-5.779 6.181-12.727 11.081-17.383-3.104-2.273-5.012-3.953-5.012-3.953-3.005 3.769-4.258 1.794-8.284 5.984-4.7 4.891-5.867 16.683-5.867 16.683s2.501-2.119 8.082-1.331" fill="#fff"/></mask><g mask="url(#n)"><path d="M84.49 165.456a86.4 86.4 0 0 0 11.267 6.681" stroke="#EBB0FF" stroke-width="2" stroke-miterlimit="10"/></g><path d="M80.494 187.294c-1.595.179-3.015.458-4.329 1.424-2.265 1.665-4.37 3.535-6.472 5.397-2.018 1.787-3.973 3.596-6.593 4.451-1.438.469-2.99.511-4.417-.01-.746-.273-1.493-1.003-2.086-1.529-1.356-1.205-2.288-2.232-2.15-2.112 0 0 .175-3.55 4.144-9.335s17.505-27.553 18.788-28.808c1.284-1.256 1.992-1.466 2.4-1.278.41.189 3.514 1.832 5.971 4.129s4.2 4.432 6.605 6.15c1.77 1.266.708 2.31-1.305 3.273-1.616.773-5.224 2.752-7.745 6.627s-.786 5.038-1.434 7.548c-.649 2.509-1.377 4.073-1.377 4.073" fill="#D1402C"/><path d="M88.998 162.84c-1.752 1.224-3.96.783-5.998.144-2.04-.64-3.937-1.706-6.017-2.196m-12.559 37.11c-.626-1.502-.18-3.219.373-4.748a37 37 0 0 1 2.88-6.131c.809-1.377 1.711-2.709 2.34-4.177.627-1.468.97-3.118.593-4.67-.376-1.552-1.585-2.964-3.159-3.248" stroke="#000" stroke-miterlimit="10" stroke-linejoin="round"/><path d="M82.022 181.721c-3.247.336-6.487 2.679-8.754 4.857-1.393 1.338-2.694 2.875-4.095 4.248-1.46 1.43-3.128 3.131-4.733 3.908" stroke="#000" stroke-miterlimit="10" stroke-linejoin="round"/><path d="M77.453 181.496c.468 2.212.678 4.478.624 6.738m-4.554-3.732a23 23 0 0 1 1.41 5.44" stroke="#FFE978" stroke-width="3" stroke-miterlimit="10" stroke-linecap="round" stroke-linejoin="round"/><path d="M61.88 188.615c4.1-5.978 18.086-28.469 19.412-29.767.817-.798 1.406-1.185 1.839-1.321-1.648-1.153-3.083-1.909-3.352-2.033-.408-.189-1.117.022-2.4 1.278-1.284 1.255-14.82 23.024-18.788 28.809-3.97 5.784-4.144 9.335-4.144 9.335-.139-.122.793.906 2.15 2.111.31.276.665.608 1.038.9.146-1.021.858-4.376 4.245-9.312" fill="#fff"/><path d="M71.858 192.576c-.401-1.611-1.01-3.236-1.67-4.242" stroke="#FFE978" stroke-width="3" stroke-miterlimit="10" stroke-linecap="round" stroke-linejoin="round"/><path d="M56.597 197.027s.74-4.384 3.509-8.799c2.768-4.416 18.238-28.94 19.2-30.022.964-1.082 1.517-1.461 2.474-1.572" stroke="#2C2935" stroke-miterlimit="10"/><path d="M154.04 189.004c1.939-2.336 3.538-6.761 3.554-12.627-7.839 2.831-16.789-.282-23.783-4.18-1.302-.726-2.596-1.469-3.83-2.304a24 24 0 0 1-1.822-1.351c-.291-.239-.572-.49-.851-.742-.175-.157-.387-.524-.658-.467-.191.04-.277.257-.331.444-.176-.062-.355-.125-.541-.135s-.384.041-.513.177c-.028.03-.055.064-.092.082-.071.033-.154-.007-.223-.044-.324-.172-1.141-.42-1.422-.024-.287 12.002 7.022 23.423 11.544 25.694a84 84 0 0 0 3.464.354c7.115.531 12.687-1.484 15.504-4.877" fill="#432572"/><path d="M145.314 122.208c-1.335-3.767-1.663-6.853-3.404-10.451-1.631-3.372-2.625-6.024-6.85-6.053-.445-.003-.89.024-1.332.063a35.86 35.86 0 0 0-17.222 6.245l.017 2.69c-3.646 10.135-3.396 21.614.687 31.582 4.176-2.266 9.507-4.462 15.141-5.098 8.945-1.012 13.356-.585 18.557 2.53-1.924-10.49-2.95-14.046-5.594-21.508" fill="#2C2935"/><path d="M150.726 142.393c-1.924-10.491-2.768-12.722-5.413-20.185" stroke="#000" stroke-miterlimit="10"/><path d="m117.519 146.854-.62-1.14c5.307-2.879 10.48-4.619 15.379-5.174 8.271-.934 13.315-.896 18.448 1.852.431.787.286 1.654.286 1.654-5.156-3.089-10.103-3.175-18.588-2.216-4.665.527-9.818 2.265-14.905 5.024" fill="#fff"/><path d="M126.261 168.353c2.578 5.423 7.167 9.865 12.677 12.268m-12.389-9.825c.778 6.839 4.421 13.306 9.869 17.522m21.244-11.652c-.065 1.82-.026 3.388-.577 5.125" stroke="#000" stroke-miterlimit="10"/><path d="M162.608 70.698c2.86-.141 3.194 5.723 4.829 11.164s3.036 7.695 4.048 9.87c1.012 2.177.474 7.036-4.744 5.579-5.219-1.459-8.644-.215-10.045-9.853s2.173-16.575 5.912-16.76" fill="#000"/><path d="M144.866 68.303c4.492.66 22.277 4.058 26.997 4.15 9.62.187 36.03-1.205 36.03-1.205l7.553 13.135s-27.843 6.667-40.579 6.654c-8.887-.008-17.602-1.035-27.239-3.697" fill="#E9725B"/><path d="M234.056 66.44c-.147-.158-.383-.118-.582-.067l-3.774.966c-.995.255-1.998.513-2.934.974-.201.099-.902.504-1.661.947.908-1.104 2.213-2.43 3.64-3.021 1.155-.479 2.536-1.26 3.558-1.993.94-.675 1.454-1.312 1.39-2.503-.007-.133-.1-.254-.203-.336a.4.4 0 0 0-.119-.065c.193-.37.297-.782.275-1.252a.52.52 0 0 0-.166-.337c-.19-.181-.495-.135-.751-.077l-4.871 1.105c-1.285.29-2.579.585-3.786 1.112-.636.278-1.242.617-1.847.957l-.658.37.565-.732s3.975-2.03 4.956-3.021c.655-.663 1.164-1.58.993-2.494-.033-.176-.098-.358-.24-.467-.248-.189-.601-.081-.891.034q-2.228.886-4.446 1.791c-1.493.608-3.006 1.236-4.27 2.236-1.81 1.432-3.106 3.446-4.641 5.148-1.555 1.725-5.699 5.534-5.699 5.534s-8.226 1.196-9.43 1.472l8.799 12.897s5.753-.743 8.183-1.234c1.18-.239 2.517-.872 3.652-1.284 1.148-.417 2.808-2.444 3.339-3.51.99-1.99 3.224-6.522 3.904-7.17.521-.498 1.128-.894 1.743-1.269 1.562-.952 3.347-1.434 4.89-2.441.749-.488 1.177-.98 1.212-1.974a.45.45 0 0 0-.13-.296" fill="#E9725B"/><path d="M214.641 65.341s1.956-.968 3.069-1.887c1.227-1.013 3.304-1.757 4.751-2.422 1.301-.597 1.683.586.702 2.19-.765 1.247-2.514 1.995-3.113 3.278-1.1 2.354-1.185 5.97-1.988 8.447-.496 1.532-1.296 3.002-2.514 4.058" fill="#E9725B"/><path d="M214.641 65.341s1.956-.968 3.069-1.887c1.227-1.013 3.304-1.757 4.751-2.422 1.301-.597 1.683.586.702 2.19-.765 1.247-2.514 1.995-3.113 3.278-1.1 2.354-1.185 5.97-1.988 8.447-.496 1.532-1.296 3.002-2.514 4.058m18.097-18.915c.056 1.167-.644 1.998-1.656 2.635-1.313.827-2.893 1.334-4.346 1.778-2.661.814-4.657 2.97-6.517 5.037m4.229-.493a49 49 0 0 0-2.136 2.786" stroke="#000" stroke-miterlimit="10"/><path d="M83.757 76.234c-1.803.195-3.934 6.437-1.632 10.876s8.77 17.113 14.999 13.846c7.853-4.12-2.776-7.664-3.966-13.767-1.191-6.104-4.117-11.526-9.4-10.955" fill="#000"/><path d="M92.407 74.521c-1.417-.505-8.743 2.183-15.986 3.852 0-7.252.215-20.9.215-20.9s-3.53.174-5.603.953c-2.482.932-6.231 2.45-6.231 2.45s-4.646 14.903-6.052 22.642c-.779 4.283-2.12 11.174 1.106 14.88 1.83 2.1 7.178 1.934 9.638 1.53 13.747-2.259 21.868-7.186 34.285-7.685 0 0-9.586-17.086-11.372-17.722m18.666-15.057-1.71 8.62-2.621 1.628s3.083 7.223 12.818 7.427S132.351 69 132.351 69l-6.423-1.323-1.759-7.417" fill="#E9725B"/><path d="M107.458 50.935c-.319-3.612.587-7.11 3.239-9.47a7.5 7.5 0 0 1 3.431-1.732c2.829-.601 6.003.317 8.172 2.192 1.914 1.655 3.057 3.97 3.976 6.28.937 2.354 1.982 4.66 2.918 7.023.778 1.964.972 4.385.065 6.294-2.225 4.68-9.456 3.995-13.333 2.25-4.692-2.112-7.955-7.02-8.468-12.837" fill="#E9725B"/><path d="M125.291 41.158a1.7 1.7 0 0 0-.244-.27c-.576-.515-1.492-.879-2.176-1.22-1.566-.783-3.16-1.542-4.855-1.94-2.868-.673-5.943-.259-8.597 1.06-4.163 2.067-7.578 6.317-7.614 11.093-.019 2.637 1.058 5.281 2.408 7.503 1.456 2.396 3.634 4.587 6.53 4.996.303-1.651-.985-5.292-.568-6.917.18-.699.482-1.394.477-2.1-.006-.703-.007-1.323.645-1.758.235-.157.506-.244.771-.332 1.373-.455 2.745-.993 3.893-1.9 1.598-1.26 2.672-3.218 2.903-5.293 1.429-.199 2.723.049 4.066.508a6.2 6.2 0 0 1 1.686.886c.23.17 1.337.964 1.303 1.288.113-1.062.227-2.133.119-3.195-.075-.735-.269-1.765-.747-2.41" fill="#D1402C"/><path d="M122.409 48.755c.377.68.757 1.363 1.242 1.97a5.8 5.8 0 0 0 1.702 1.412c1.02.568.535 1.782-.322 2.225" stroke="#000" stroke-miterlimit="10"/><path d="m125.992 55.483-3.213.194s.714 2.958 2.346 3.026.867-3.22.867-3.22" fill="#fff"/><path d="M115.629 29.288c-.375-3.055-2.642-7.527-6.188-7.644-2.032-.067-3.699 1.483-5.719 1.607-2.165.132-4.267-.894-5.961-2.156-2.544-1.896-4.666-4.713-7.784-5.7-2.88-.91-6.216-.552-8.679 1.258-4.386 3.225-4.888 9.184-3.622 14.08 1.758 6.796 9.244 10.53 15.92 9.927 2.19-.198 4.325-.818 6.523-.953 1.012-.063 2.19-.096 3.161.251 1.057.378 1.759 1.332 2.796 1.766 1.211.506 2.587.039 3.813-.427l1.682-1.199c2.218-3.256 4.537-6.901 4.058-10.81" fill="#D1402C"/><path d="M80.421 33.898c1.626 5.351 6.375 9.113 12.08 8.427 3.596-.432 6.938-2.626 10.634-1.637 1.572.421 3.028 1.184 4.469 1.941M81.62 17.416c.393-1.174 1.734-1.69 2.917-2.057 1.843-.572 3.736-1.151 5.662-1.03 3.162.2 5.923 2.268 7.966 4.686 1.128 1.334 2.245 2.895 3.946 3.3 2.129.505 4.183-1.014 6.349-1.33 1.948-.284 3.982.47 5.403 1.83 1.421 1.362 2.246 3.282 2.44 5.24.396 3.988-1.956 8.102-5.596 9.79" stroke="#D1402C" stroke-miterlimit="10"/><path d="M77.555 24.676c-.248 3.496 1.406 7.014 4.094 9.267s6.316 3.267 9.816 3.011c2.153-.158 4.254-.766 6.407-.923 2.152-.156 4.492.22 6.04 1.722.639.62 1.042 1.369 1.444 2.15.417.813.396 1.11.085 2.003-1.549 4.446-3.216 8.406-1.164 13.05.961 2.174 2.668 4.05 4.839 5.021" stroke="#84221A" stroke-miterlimit="10"/><path d="M80.809 17.712a4.43 4.43 0 0 0-1.062 3.801c.635 3.278 3.975 6.206 6.928 7.447 4.372 1.835 8.99 1.148 13.461 2.185 2.992.693 5.399 3.358 6.485 6.136.267.685.454 1.392.579 2.117.233 1.36-.723 2.722-1.098 3.995-.474 1.61-.726 3.299-.536 4.975.3 2.645 1.875 5.266 4.363 6.22" stroke="#84221A" stroke-miterlimit="10"/><path d="M108.817 22.284c1.945.464 3.374 2.262 3.866 4.236.611 2.451.483 5.04-.148 7.473-.237.911-.335 2.019-.759 2.85-.491.962-1.372 1.677-2.01 2.535-.723.974-1.162 2.136-1.398 3.325-.181.906-.247 1.845-.08 2.754.414 2.26 2.17 4 3.837 5.583" stroke="#84221A" stroke-miterlimit="10"/><path d="M103.778 43.355c2.824-3.136 7.226-5.946 10.166-6.271" stroke="#FFE978" stroke-width="2" stroke-miterlimit="10"/><path d="m103.455 56.548 9.302-2.186-2.54-6.385-8.196 5.721z" fill="#14131C"/><path d="M106.266 52.477c.426.991 1.423 1.516 2.225 1.171.801-.344 1.105-1.427.679-2.418-.427-.991-1.423-1.515-2.225-1.171-.802.345-1.106 1.427-.679 2.418m8.953 4.014 12.697-5.498c1.076-.466 1.567-1.738 1.096-2.841l-2.31-5.407c-.471-1.103-1.726-1.62-2.802-1.154l-12.697 5.499c-1.076.466-1.567 1.738-1.096 2.841l2.31 5.407c.471 1.103 1.726 1.62 2.802 1.153" fill="#14131C"/><path d="m117.046 55.7 12.697-5.498c1.076-.466 1.567-1.738 1.096-2.841l-2.31-5.407c-.471-1.103-1.726-1.62-2.803-1.154l-12.697 5.5c-1.076.466-1.567 1.738-1.096 2.841l2.31 5.407c.472 1.103 1.726 1.62 2.803 1.153" fill="#14131C"/><path d="M113.03 46.298c-1.077.466-1.567 1.738-1.096 2.841l2.31 5.407c.471 1.103 1.725 1.62 2.802 1.154" stroke="#4B4951" stroke-miterlimit="10"/><path d="m117.053 53.964 11.599-5.023c.274-.118.485-.34.594-.621a1.15 1.15 0 0 0-.018-.874l-2.072-4.85a1.127 1.127 0 0 0-1.474-.607l-11.599 5.023c-.274.118-.485.34-.594.622s-.103.592.017.873l2.072 4.85c.236.551.852.83 1.403.636z" fill="#FFE978"/><mask id="o" style="mask-type:luminance" maskUnits="userSpaceOnUse" x="113" y="41" width="17" height="14"><path d="m117.053 53.964 11.599-5.023c.274-.118.485-.34.594-.621a1.15 1.15 0 0 0-.018-.874l-2.072-4.85a1.127 1.127 0 0 0-1.474-.607l-11.599 5.023c-.274.118-.485.34-.594.622s-.103.592.017.873l2.072 4.85c.236.551.852.83 1.403.636z" fill="#fff"/></mask><g mask="url(#o)" stroke="#fff" stroke-miterlimit="10"><path opacity=".75" d="m113.356 42.909 18.351 10.924" stroke-width="8"/><path opacity=".75" d="m109.296 45.765 18.351 10.924m-11.368-17.098 18.35 10.924" stroke-width="4"/></g><path d="M107.737 49.916c.906.225 1.583 1.14 1.541 2.066-.02.432-.22.884-.598 1.197a2.7 2.7 0 0 1-.513.319q-.337.168-.691.295" stroke="#4B4951" stroke-miterlimit="10"/><path d="M105.289 52.897c.427.991 1.424 1.516 2.225 1.171.802-.344 1.106-1.427.679-2.418-.426-.99-1.423-1.515-2.224-1.17-.802.343-1.107 1.426-.68 2.417" fill="#FFE978"/><path d="M105.961 52.608c.229.532.702.84 1.056.688s.455-.707.226-1.239-.702-.84-1.056-.689c-.354.153-.455.708-.226 1.24m4.845-2.998c.112.263.36.409.553.325s.259-.365.147-.628c-.112-.262-.36-.407-.553-.324-.194.084-.259.365-.147.628m.712 1.666c.112.262.36.407.554.324.193-.084.259-.365.147-.627-.113-.263-.36-.408-.554-.325-.194.084-.26.365-.147.628" fill="#fff"/><path opacity=".25" d="M167.377 57.11c3.769-1.134 7.402-2.635 11.357-3.462 6.867-1.435 13.776.054 20.64.57 7.121.536 17.593-.46 22.567-6.232 3.661-4.248.718-10.423 4.337-14.638 1.473-1.716 3.468-2.86 4.979-4.537 2.153-2.39 3.114-5.862 2.713-9.03-.487-3.854-2.964-7.13-6.262-9.088-2.758-1.637-5.982-1.392-9.114-1.574-4.237-.246-8.387-.545-12.347-2.186-10.243-4.245-17.166-9.188-28.82-5.817-6.774 1.96-12.823 6.013-17.793 11.01-5.458 5.489-8.651 12.818-14.4 18.037-5.622 5.104-12.62 8.824-19.552 11.826l-11.599 5.023c-.274.118-.485.34-.593.622-.109.282-.103.593.017.873l2.072 4.85c.235.551.851.83 1.403.636 8.023 0 16.084.912 23.904 2.556 6.345 1.335 12.825 2.459 19.333 1.989 2.505-.181 4.856-.737 7.158-1.429m63.882-13.132c-.047 1.855 1.182 3.494 2.518 4.783 2.015 1.943 4.552 3.3 7.107 4.455 2.057.93 4.316 1.56 6.563 1.329 3.281-.337 5.927-2.754 6.1-6.113.272-5.275-5.095-9.434-9.843-10.492-4.021-.895-12.314.816-12.445 6.038m-40.315 14.922.047.003.001-.005z" fill="#fff"/><path d="M111.896 55.656a3.48 3.48 0 0 0-3.17.218 3.47 3.47 0 0 0-1.62 2.73c-.051.985.333 1.956.911 2.755 1.021 1.413 2.762 2.364 4.496 2.169 1.733-.195 2.885-1.351 2.434-3.268" fill="#E9725B"/><path d="M110.48 63.27c1.003.49 2.232.424 3.212-.09 1.119-.588 1.541-1.698 1.254-2.92m-3.05-4.604c-.469-.206-2.019-.64-3.869.873m.789 3.521c-.124-.623-.001-1.298.371-1.812.385-.532 1.027-.803 1.676-.761.661.042 1.332.358 1.853.757" stroke="#000" stroke-miterlimit="10"/><path d="M109.743 57.89c.02.741.176 1.501.597 2.124.449.663 1.204 1.134 1.924 1.453m5.118 2.935c2.71.622 4.794 1.146 7.871.436" stroke="#000" stroke-miterlimit="10"/><path d="M106.941 69.457c-8.409.158-15.012 4.792-23.183 6.776 2.12.883 3.247 2.908 4.049 5.057.801 2.15 1.217 4.444 2.23 6.502 1.225 2.484 3.241 4.47 5.056 6.562s3.123 4.573 2.031 6.601c.732-.571 11.789-2.681 15.55-3.434" fill="#FFE978"/><mask id="p" style="mask-type:luminance" maskUnits="userSpaceOnUse" x="83" y="69" width="30" height="32"><path d="M106.941 69.457c-8.409.158-15.012 4.792-23.183 6.776 2.12.883 3.247 2.908 4.049 5.057.801 2.15 1.217 4.444 2.23 6.502 1.225 2.484 3.241 4.47 5.056 6.562s3.123 4.573 2.031 6.601c.732-.571 11.789-2.681 15.55-3.434" fill="#fff"/></mask><g mask="url(#p)"><path d="M85.554 75.738c1.918.907 3.143 2.835 3.966 4.787.823 1.954 1.355 4.039 2.42 5.871 1.354 2.329 3.475 4.095 5.247 6.123 1.395 1.595 2.6 3.405 3.177 5.442.576 2.038.465 4.33-.629 6.144" stroke="#EBB0FF" stroke-width="2" stroke-miterlimit="10"/></g><path d="M129.037 68.062c3.876-.568 7.284-.743 11.2-.615 7.542.247 14.827 3.069 22.371 3.252-2.178 2.082-3.16 5.083-3.254 8.093-.124 3.999-.246 7.907 1.174 11.769 1.09 2.964 3.228 5.706 6.212 6.75-7.572-.6-15.323-3.79-22.81-5.068" fill="#FFE978"/><mask id="q" style="mask-type:luminance" maskUnits="userSpaceOnUse" x="129" y="67" width="38" height="31"><path d="M129.037 68.062c3.876-.568 7.284-.743 11.2-.615 7.542.247 14.827 3.069 22.371 3.252-2.178 2.082-3.16 5.083-3.254 8.093-.124 3.999-.246 7.907 1.174 11.769 1.09 2.964 3.228 5.706 6.212 6.75-7.572-.6-15.323-3.79-22.81-5.068" fill="#fff"/></mask><g mask="url(#q)"><path d="M160.9 69.178c-3.734 2.594-4.178 8.862-3.952 13.223.341 6.57 2.986 12.491 6.94 17.342" stroke="#EBB0FF" stroke-width="2" stroke-miterlimit="10"/></g><path d="M150.063 104.699c-.612-.879-1.686-1.738-2.183-2.687-2.876-5.482-.73-11.746-2.58-17.517-.871-2.72-2.394-5.177-3.902-7.603 0 0-1.865-4.792-7.087-9.126a29 29 0 0 1-5.519.286c-.514 2.374-1.85 4.468-4.124 5.331s-3.941.733-6.363.513c-3.683-.334-8.345-2.093-11.366-4.44-.186.14-7.895 2.38-7.895 2.38s1.69 11.861 2.418 15.655c.536 2.792 1.54 5.467 2.689 8.059 1.091 2.459 2.233 4.957 3.485 7.344 1.294 2.467 1.622 5.039 2.154 7.768.223 1.145.105 3.383.689 4.394 1.08 1.87 1.792 1.835 3.92 1.454 1.229-.22 6.986-3.192 6.986-3.192s7.363-.181 10.435-.261c3.059-.079 6.117-.245 9.165-.515q2.234-.197 4.459-.47c.561-.069 4.262-.204 4.462-.63.502-1.066.897-2.2.983-3.375.088-1.176-.152-2.401-.826-3.368" fill="#FFE978"/><path d="M121.386 113.318s4.75-3.05 8.998-3.156M76.42 78.373s-.1 2.997 0 4.705c.099 1.707-.545 5.32-1.633 7.96m71.401 1.938c.426-6.235-1.811-11.805-5.237-16.93m-36.059 23.079 8.471-1.456" stroke="#000" stroke-miterlimit="10"/><path d="M105.044 69.649c3.432 3.203 7.832 5.276 12.422 5.933 3.283.47 7.523.499 10.134-1.93 1.538-1.43 2.491-3.477 2.708-5.588" stroke="#EBB0FF" stroke-width="2" stroke-miterlimit="10"/><path d="M128.454 93.526a37 37 0 0 1-6.044 7.511m7.764-1.852a18.3 18.3 0 0 0 1.629-9.113" stroke="#000" stroke-miterlimit="10"/><path d="M75.65 63.775c1.21-2.193 3.628-6.508 5.121-8.521.71-.958 1.743-1.897 2.298-2.942.57-1.072.581-2.496.687-3.675.034-.373.073-.748.057-1.123-.072-1.642-1.195-3.659-1.767-5.18-.22-.586-.974-1.906-1.352-2.405-.353-.468-2.482-2.61-3.173-3.14-.487-.373-.933-.817-1.467-1.125-.914-.529-.98 1.06-.757 1.636.252.65 1.36 2.291 1.853 2.786.702.708 1.557 3.095 1.557 3.095s-1.799-2.655-2.925-3.562c-.83-.669-2.802-1.512-3.839-1.758-.207-.05-.683-.144-.886-.08-.366.116-.401.439-.314.812s.28.61.455.793c-.51.01-.503.708-.442 1.213.062.504.393 1.007.71 1.405s.612.97.663 1.476l-1.981-1.254c-.606-.384-1.367-1.128-1.736-.7-.337.391-.106 1.283.133 1.74.569 1.09 1.828 2.044 1.753 3.355-.082 1.453-.819 2.852-1.7 3.973-.905 1.151-2.403 2.458-3.054 3.77-.842 1.696-.37 3.9-.7 5.686-.374 2.018-1.997 7.358-1.997 7.358" fill="#E9725B"/><path d="M82.908 49.64c-.233-1.515-1.008-2.884-1.77-4.215l-1.1-1.923a1.3 1.3 0 0 0-.194-.277c-.405-.406-1.14-.086-1.435.406-1.053 1.758 1.21 4.206.13 5.948-.379.612-1.077.937-1.733 1.235-.85.388-1.698.79-2.468 1.319a8.85 8.85 0 0 0-3.248 4.144" stroke="#000" stroke-miterlimit="10"/><path d="M77.938 41.493s.758 1.435.789 1.862m-7.157-3.427c.937.755 2.448 1.642 3.161 2.736s1.652 3.54 1.995 4.8m-4.259-3.649s.837 1.042 1.094 1.642c.16.37.228.773.294 1.17l.312 1.862" stroke="#000" stroke-miterlimit="10"/><path d="M173.727 20.798h4.28m-11.983 4.335h5.587m27.778-11.694h6.236" stroke="#fff" stroke-width="3" stroke-miterlimit="10"/><path d="M170.976 34.229h3.729" stroke="#FFE978" stroke-width="3" stroke-miterlimit="10"/><path d="M209.098 25.133h9.621" stroke="#fff" stroke-width="3" stroke-miterlimit="10"/><path d="M206.797 17.7h2.705m.223 16.086h2.705" stroke="#FFE978" stroke-width="3" stroke-miterlimit="10"/><path opacity=".25" d="M151.955 9.317c-3.14 1.632-5.33 4.956-5.587 8.48-.219 3.003 1.539 4.81 4.291 5.748 1.915.653 4.317 1.103 6.337.78 4.253-.682 10.805-5.33 12.01-9.634 1.269-4.539-3.608-6.083-7.216-6.171-3.393-.083-6.652-.857-9.835.797" fill="#fff"/></svg>