<svg width="470" height="146" viewBox="0 0 470 146" fill="none" xmlns="http://www.w3.org/2000/svg">
<rect width="470" height="146" fill="#8689CE"/>
<rect width="46" height="146" fill="#C5BAFF"/>
<rect x="345" width="125" height="146" fill="#6E2BB1"/>
<path d="M333.842 142.416C331.772 142.416 329.948 141.936 328.37 140.976C326.812 140.016 325.596 138.661 324.722 136.912C323.847 135.163 323.41 133.136 323.41 130.832C323.41 128.528 323.847 126.512 324.722 124.784C325.596 123.035 326.812 121.68 328.37 120.72C329.948 119.76 331.772 119.28 333.842 119.28C336.124 119.28 338.098 119.845 339.762 120.976C341.447 122.107 342.652 123.675 343.378 125.68L340.338 126.8C339.804 125.413 338.983 124.336 337.874 123.568C336.764 122.779 335.42 122.384 333.842 122.384C332.391 122.384 331.122 122.736 330.034 123.44C328.967 124.123 328.135 125.093 327.538 126.352C326.962 127.589 326.674 129.083 326.674 130.832C326.674 132.581 326.962 134.085 327.538 135.344C328.135 136.603 328.967 137.584 330.034 138.288C331.122 138.971 332.391 139.312 333.842 139.312C335.42 139.312 336.764 138.928 337.874 138.16C338.983 137.371 339.804 136.283 340.338 134.896L343.378 135.984C342.652 137.968 341.447 139.536 339.762 140.688C338.098 141.84 336.124 142.416 333.842 142.416ZM346.931 142V119.696H353.811C355.561 119.696 356.979 119.952 358.067 120.464C359.177 120.976 359.987 121.712 360.499 122.672C361.033 123.611 361.299 124.731 361.299 126.032C361.299 127.952 360.745 129.456 359.635 130.544C358.547 131.632 356.969 132.261 354.899 132.432C354.537 132.453 354.121 132.464 353.651 132.464C353.182 132.464 352.745 132.464 352.339 132.464H350.195V142H346.931ZM359.283 142L353.555 132.08L356.883 131.664L363.027 142H359.283ZM350.195 129.584H353.491C354.387 129.584 355.166 129.477 355.827 129.264C356.51 129.029 357.054 128.656 357.459 128.144C357.865 127.632 358.067 126.939 358.067 126.064C358.067 125.189 357.865 124.507 357.459 124.016C357.054 123.504 356.51 123.141 355.827 122.928C355.145 122.715 354.366 122.608 353.491 122.608H350.195V129.584ZM366.056 142V119.696H369.32V142H366.056ZM383.623 142.416C381.553 142.416 379.729 141.936 378.151 140.976C376.593 140.016 375.377 138.661 374.503 136.912C373.628 135.163 373.191 133.136 373.191 130.832C373.191 128.528 373.628 126.512 374.503 124.784C375.377 123.035 376.593 121.68 378.151 120.72C379.729 119.76 381.553 119.28 383.623 119.28C385.905 119.28 387.879 119.845 389.543 120.976C391.228 122.107 392.433 123.675 393.159 125.68L390.119 126.8C389.585 125.413 388.764 124.336 387.655 123.568C386.545 122.779 385.201 122.384 383.623 122.384C382.172 122.384 380.903 122.736 379.815 123.44C378.748 124.123 377.916 125.093 377.319 126.352C376.743 127.589 376.455 129.083 376.455 130.832C376.455 132.581 376.743 134.085 377.319 135.344C377.916 136.603 378.748 137.584 379.815 138.288C380.903 138.971 382.172 139.312 383.623 139.312C385.201 139.312 386.545 138.928 387.655 138.16C388.764 137.371 389.585 136.283 390.119 134.896L393.159 135.984C392.433 137.968 391.228 139.536 389.543 140.688C387.879 141.84 385.905 142.416 383.623 142.416ZM399.273 135.024V130.896L409.961 119.696H414.312L399.273 135.024ZM396.713 142V119.696H399.977V142H396.713ZM410.569 142L403.145 130.256L405.577 127.984L414.377 142H410.569ZM417.306 142V119.696H432.058V122.608H420.57V129.136H431.098V132.048H420.57V139.088H432.058V142H417.306ZM441.307 142V122.608H434.011V119.696H451.867V122.608H444.603V142H441.307Z" fill="#D7CFFF"/>
</svg>
