<svg width="470" height="146" viewBox="0 0 470 146" fill="none" xmlns="http://www.w3.org/2000/svg"><path fill="#9595ff" d="M0 0h470v146H0z"/><path fill="#c5baff" d="M0 0h46v146H0z"/><path fill="#6e2bb1" d="M345 0h125v146H345z"/><path d="M341.842 142.416q-3.105 0-5.472-1.44-2.337-1.44-3.648-4.064-1.312-2.624-1.312-6.08t1.312-6.048q1.311-2.624 3.648-4.064 2.367-1.44 5.472-1.44 3.423 0 5.92 1.696 2.527 1.697 3.616 4.704l-3.04 1.12q-.8-2.08-2.464-3.232-1.665-1.184-4.032-1.184-2.176 0-3.808 1.056-1.6 1.024-2.496 2.912-.864 1.856-.864 4.48 0 2.623.864 4.512.895 1.888 2.496 2.944 1.632 1.024 3.808 1.024 2.367 0 4.032-1.152 1.663-1.183 2.464-3.264l3.04 1.088q-1.089 2.976-3.616 4.704-2.496 1.728-5.92 1.728m13.089-.416v-22.304h6.88q2.625 0 4.256.768 1.664.768 2.432 2.208.8 1.409.8 3.36 0 2.88-1.664 4.512-1.632 1.632-4.736 1.888-.543.032-1.248.032h-3.456V142zm12.352 0-5.728-9.92 3.328-.416L371.027 142zm-9.088-12.416h3.296q1.344 0 2.336-.32 1.024-.352 1.632-1.12t.608-2.08-.608-2.048q-.608-.768-1.632-1.088-1.023-.32-2.336-.32h-3.296zM374.056 142v-22.304h3.264V142zm17.567.416q-3.105 0-5.472-1.44-2.337-1.44-3.648-4.064-1.312-2.624-1.312-6.08t1.312-6.048q1.311-2.624 3.648-4.064 2.367-1.44 5.472-1.44 3.424 0 5.92 1.696 2.527 1.697 3.616 4.704l-3.04 1.12q-.8-2.08-2.464-3.232-1.665-1.184-4.032-1.184-2.176 0-3.808 1.056-1.6 1.024-2.496 2.912-.864 1.856-.864 4.48 0 2.623.864 4.512.895 1.888 2.496 2.944 1.632 1.024 3.808 1.024 2.367 0 4.032-1.152 1.663-1.183 2.464-3.264l3.04 1.088q-1.089 2.976-3.616 4.704-2.496 1.728-5.92 1.728m15.65-7.392v-4.128l10.688-11.2h4.351zm-2.56 6.976v-22.304h3.264V142zm13.856 0-7.424-11.744 2.432-2.272 8.8 14.016zm6.737 0v-22.304h14.752v2.912H428.57v6.528h10.528v2.912H428.57v7.04h11.488V142zm24.001 0v-19.392h-7.296v-2.912h17.856v2.912h-7.264V142z" fill="#d7cfff"/></svg>