<svg width="470" height="147" viewBox="0 0 470 147" fill="none" xmlns="http://www.w3.org/2000/svg"><path fill="#DCD0FE" d="M0 0h470v146H0z"/><path d="M252.537 94.94c13.943-13.942 13.943-36.549 0-50.492s-36.55-13.943-50.493 0-13.943 36.55 0 50.493 36.55 13.943 50.493 0" fill="#C9B7FE"/><path d="m56 143 226-37m-104 37 134-31m-66 31 86-26M35.427 37s160.061 20.89 240.985 24.514C357.335 65.138 456 47.31 456 47.31M12 86.894S314.188 48.794 450.422 140" stroke="#fff" stroke-miterlimit="10" stroke-linecap="round" stroke-linejoin="round"/><path d="M12 94.222s223.847-24.553 383.555 44.766c1.086.471 2.308.672 3.445 1.012" stroke="#fff" stroke-miterlimit="10" stroke-linecap="round" stroke-linejoin="round"/><path d="M143.427 13.72c-1.446-.511-2.647-2.374-2.647-4.15 0-1.774 1.201-2.722 2.647-2.13l1.23.504v6.21z" fill="#161616"/><path d="M147.127 11.99c0 1.676-1.092 2.65-2.47 2.163-1.414-.498-2.587-2.335-2.587-4.09 0-1.756 1.173-2.698 2.587-2.12 1.378.565 2.47 2.371 2.47 4.047" fill="#fff"/><path d="M153.752 17.361c-1.187-.418-2.17-2.067-2.17-3.673s.983-2.506 2.17-2.02l1.013.415v5.635z" fill="#161616"/><path d="M156.804 15.678c0 1.524-.903 2.441-2.039 2.04-1.164-.41-2.127-2.038-2.127-3.628s.963-2.483 2.127-2.007c1.136.466 2.039 2.07 2.039 3.595" fill="#fff"/><path d="M162.314 20.381c-.992-.35-1.812-1.828-1.812-3.294s.82-2.319 1.812-1.912l.848.347v5.158z" fill="#161616"/><path d="M164.873 18.753c0 1.398-.758 2.264-1.711 1.927-.974-.343-1.779-1.805-1.779-3.257s.805-2.3 1.779-1.902c.953.391 1.711 1.835 1.711 3.232" fill="#fff"/><path d="M169.529 22.926c-.842-.297-1.536-1.635-1.536-2.984s.694-2.158 1.536-1.813l.72.295v4.756z" fill="#161616"/><path d="M171.706 21.357c0 1.29-.646 2.109-1.457 1.823-.827-.292-1.51-1.616-1.51-2.954 0-1.337.683-2.141 1.51-1.802.811.332 1.457 1.643 1.457 2.933" fill="#fff"/><path d="M143.427 22.074c-1.446-.4-2.647-2.173-2.647-3.948s1.201-2.814 2.647-2.33l1.23.41v6.21z" fill="#161616"/><path d="M147.127 20.066c0 1.676-1.092 2.732-2.47 2.35-1.414-.392-2.587-2.14-2.587-3.896s1.173-2.786 2.587-2.314c1.378.46 2.47 2.184 2.47 3.86" fill="#fff"/><path d="M153.752 24.936c-1.187-.329-2.17-1.904-2.17-3.51s.983-2.58 2.17-2.183l1.013.338v5.636z" fill="#161616"/><path d="M156.804 23.022c0 1.524-.903 2.51-2.039 2.195-1.164-.323-2.127-1.878-2.127-3.468s.963-2.556 2.127-2.168c1.136.38 2.039 1.917 2.039 3.44" fill="#fff"/><path d="M162.314 27.31c-.992-.276-1.812-1.692-1.812-3.158s.82-2.38 1.812-2.05l.848.284v5.158z" fill="#161616"/><path d="M164.873 25.488c0 1.398-.758 2.32-1.711 2.056-.974-.27-1.779-1.67-1.779-3.122 0-1.453.805-2.361 1.779-2.036.953.318 1.711 1.704 1.711 3.102" fill="#fff"/><path d="M169.529 24.512c-.842-.281-1.536.58-1.536 1.929s.694 2.635 1.536 2.868l.72.199v-4.756z" fill="#161616"/><path d="M171.706 27.575c0 1.291-.646 2.158-1.457 1.933-.827-.23-1.51-1.502-1.51-2.84 0-1.336.683-2.192 1.51-1.916.811.27 1.457 1.533 1.457 2.823" fill="#fff"/><path d="M143.427 30.429c-1.446-.291-2.647-1.973-2.647-3.748s1.201-2.905 2.647-2.532l1.23.319v6.209z" fill="#161616"/><path d="M147.127 28.14c0 1.677-1.092 2.815-2.47 2.537-1.414-.285-2.587-1.944-2.587-3.7 0-1.755 1.173-2.874 2.587-2.509 1.378.356 2.47 1.997 2.47 3.673" fill="#fff"/><path d="M153.752 32.511c-1.187-.24-2.17-1.74-2.17-3.346s.983-2.654 2.17-2.347l1.013.261v5.636z" fill="#161616"/><path d="M156.804 30.367c0 1.524-.903 2.577-2.039 2.348-1.164-.234-2.127-1.717-2.127-3.306 0-1.59.963-2.63 2.127-2.329 1.136.294 2.039 1.762 2.039 3.287" fill="#fff"/><path d="M162.314 29.03c-.992-.256-1.812.721-1.812 2.187s.82 2.82 1.812 3.02l.848.171V29.25z" fill="#161616"/><path d="M164.873 32.223c0 1.397-.758 2.377-1.711 2.185-.974-.196-1.779-1.536-1.779-2.988 0-1.453.805-2.422 1.779-2.17.953.246 1.711 1.575 1.711 2.973" fill="#fff"/><path d="M169.529 35.691c-.842-.17-1.536-1.403-1.536-2.751 0-1.35.694-2.263 1.536-2.046l.72.186v4.756z" fill="#161616"/><path d="M171.706 33.794c0 1.29-.646 2.206-1.457 2.043-.827-.167-1.51-1.389-1.51-2.726s.683-2.244 1.51-2.03c.811.21 1.457 1.422 1.457 2.713" fill="#fff"/><path d="m351 146-133.617-39.78-86.239 10.646 55.036 29.132" stroke="#161616" stroke-miterlimit="10" stroke-linecap="round" stroke-linejoin="round"/><path d="M250.498 133.824c.462-1.966 43.897-2.039 43.742 0-.153 2.038-44.204 1.965-43.742 0m-94.261 0c.461-1.966 43.896-2.039 43.742 0-.154 2.038-44.204 1.965-43.742 0" fill="#161616"/><path d="m244.903 67.966-2.184.163-37.2 2.801c2.875-5.894 3.778-10.933 3.778-10.933l-12.341-7.735s3.341-1.732 7.322-3.7c4.535-2.24 9.899-4.789 12.092-5.428 1.827-.533 6.266-1.11 10.841-1.383 5.731-.342 11.677-.209 12.985 1.085 2.355 2.328 4.707 25.13 4.707 25.13" fill="#EE5DA0"/><path d="m242.719 68.13-37.2 2.8c2.875-5.894 3.777-10.932 3.777-10.932s16.827 5.891 31.363 7.653c1.002.122 1.676.285 2.06.478" fill="#CC3C7E"/><path d="M229.385 46.3s.073 2.916 0 4.583m7.404 12.874s4.54.36 7.761 1.047" stroke="#161616" stroke-miterlimit="10" stroke-linecap="round" stroke-linejoin="round"/><path d="M218.854 46.172c-.26 2.912-1.596 6.303-9.557 13.825l-12.341-7.735s3.341-1.733 7.322-3.7c4.535-2.241 9.899-4.79 12.092-5.429 0 0 2.747.124 2.484 3.04" fill="#fff"/><path d="M199.648 50.883s7.064 2.745 8.265 4.118-.727 1.128-1.838.049" stroke="#161616" stroke-miterlimit="10" stroke-linecap="round" stroke-linejoin="round"/><path d="M196.956 52.262c3.298-1.682 12.34 7.736 12.34 7.736s-.23 1.343-.731 2.982c0 0-15.793-8.584-11.609-10.718m8.563 18.668c.86-4.271 38.502-7.258 39.384-2.965s-40.56 8.81-39.384 2.965" fill="#161616"/><path d="M227.211 41.751c-.124.719-.628 1.238-1.484 1.37-3.692.573-7.624 1.306-7.624 1.306-1.961 1.081-7.23 4.415-9.201 4.926-1.968.508-4.625-.791-4.625-.791 4.536-2.24 9.899-4.789 12.093-5.428 1.827-.533 6.266-1.11 10.841-1.383m3.629 1.232s2.389.071 5.223.291c0 0-3.024 1.17-6.363 5.57 0 0 4.418-.314 5.888-.706 1.471-.392 4.609-5.3 4.609-5.3s-.934-1.536-9.504-1.288c0 0-.745.82.147 1.433" fill="#CC3C7E"/><path d="m225.446 54.492 15.045 8.487s9.056-15.635-.295-20.142c-5.53-2.666-14.75 11.654-14.75 11.654" fill="#fff"/><path d="M240.491 62.979c-.285.322-.855.441-1.616.394-3.2-.193-9.76-3.281-12.457-6.023-1.056-1.07-1.519-2.087-.971-2.857.322-.454 1.445-.345 2.941.121 3.678 1.135 9.624 4.4 11.607 6.645.625.709.855 1.313.496 1.72" fill="#161616"/><path d="M244.223 52.743s-.492 2.475-.838 3.517c-.345 1.042-7.606-2.16-8.437-1.759s3.974 3.004 6.229 5.184" stroke="#161616" stroke-miterlimit="10" stroke-linecap="round" stroke-linejoin="round"/><path d="M286.071 119.055h-18.066l-5.419-14.842-3.31-9.062c-2.167-1.264-8.117-2.59-30.162-11.236 0 0-6.317 12.061-10.748 16.642l-.005.005c-4.431 4.575-22.621 18.677-22.621 18.677l-18.067-.184s9.124-11.912 15.061-19.098c2.192-2.657 3.95-4.668 4.651-5.194 1.434-1.078 5.114-8.973 8.122-15.83l.002-.003c2.439-5.564 4.438-10.443 4.438-10.443 15.414-3.962 28.229-2.24 28.608-2.19l.009.002s32.233 16.956 35.218 21.036c.251.342.542.848.871 1.489 3.604 7.021 11.418 30.231 11.418 30.231" fill="#430071"/><path d="M238.565 66.3c-17.368 4.107-32.814 12.5-33.055 12.63a533 533 0 0 0 4.438-10.442c15.414-3.963 28.229-2.241 28.608-2.19zm47.506 52.755h-18.066l-5.419-14.842c4.778-4.77 9.639-11.732 12.068-15.389 3.604 7.021 11.417 30.231 11.417 30.231m-67.705-18.498-.005.005c-4.43 4.575-22.621 18.677-22.621 18.677l-18.066-.184s9.124-11.911 15.06-19.098c5.353 1.055 15.295 2.395 25.632.6" fill="#310054"/><path d="M229.115 83.916s1.846-6.722 4.066-9.51 0-5.795 0-5.795m26.095 26.54s1.884-3.895 3.248-5.259" stroke="#161616" stroke-miterlimit="10" stroke-linecap="round" stroke-linejoin="round"/><path d="M198.976 92.56s-2.448 2.333-1.59 4.333c.859 2 2.331 6.365 2.004 6.637-.327.273-2.623-3.416-3.475-3.117m-14.797 14.18s5.125-.975 9.035-.882m62.409-39.819s2.864 1.604 3.412 1.915c.549.31-.814 7.314-.451 8.108.364.795 4.24-5.942 4.834-5.595.593.346-.652 3.753-.47 5.026s2.637-1.818 2.637-1.818m4.422 34.626s1.427-2.136 6.761-3.031" stroke="#fff" stroke-miterlimit="10" stroke-linecap="round" stroke-linejoin="round"/><path d="M286.071 119.055c-.062 1.124-2.185 1.859-4.955 2.211-3.819.485-8.869.241-11.445-.717-1.032-.384-1.666-.883-1.666-1.494 0-.453.473-.846 1.269-1.172 2.302-.942 7.294-1.328 11.24-1.009 3.144.253 5.624.956 5.557 2.181m-90.331 0c-.058 1.046-1.903 1.756-4.397 2.135-3.783.572-9.055.375-11.815-.575-1.142-.39-1.855-.912-1.855-1.56 0-.818 1.554-1.439 3.749-1.829 3.647-.644 9.068-.644 12.086.169 1.393.375 2.273.922 2.232 1.66" fill="#161616"/><path d="m193.509 117.396-.669 1.168-1.496 2.626-.156.274-2.048 3.595-11.034-1.892 1.423-2.551.45-.804.54-.966.903-1.62c3.648-.644 9.069-.644 12.087.17" fill="#FE8F8C"/><path d="m193.509 117.396-.669 1.168c-5.989.078-12.861 1.248-12.861 1.248l.54-.966.903-1.62c3.647-.644 9.069-.644 12.087.17" fill="#F56961"/><path d="m192.357 100.413 15.93 10.298-3.196 3-14.598-11.007zm-2.864 3.534 14.687 11.016-3.197 3.001-13.333-11.706z" fill="#CBD4DF"/><path d="M208.14 113.008c-10.518 9.659-18.634 15.73-18.634 15.73l-3.94-2.555-2.826-1.831s20.718-22.613 23.946-25.53 15.359-5.768 16.553-2.274c.528 1.543-6.778 8.818-15.099 16.46" fill="#fff"/><path d="M208.139 113.008c-10.517 9.659-18.633 15.73-18.633 15.73l-3.941-2.555c4.253-4.892 11.057-11.733 22.574-13.175" fill="#CBD4DF"/><path d="M184.07 125.415s21.234-22.868 23.378-24.814c3.525-3.199 10.673-5.126 15.791-4.054m-17.597 5.871 7.686 5.736m-9.469-3.88 7.524 5.722m-8.957-4.218 7.052 5.995" stroke="#161616" stroke-miterlimit="10" stroke-linecap="round" stroke-linejoin="round"/><path d="M202.895 131.165h-32.001s-.817 1.222-1.423 2.659h24.735c2.694 0 8.063-1.186 8.426-1.329s.263-1.33.263-1.33" fill="#fff"/><path d="M202.895 131.165s-3.6 1.006-8.004 1.149c-4.402.144-23.996-1.149-23.996-1.149q.394-.621.811-1.214c1.907-2.721 4.086-4.966 5.448-6.265.812-.774 1.333-1.211 1.333-1.211s2.317 1.425 3.945 1.282 7.451-3.734 8.502-2.801c1.051.935 1.13 4.426 3.475 5.961 1.607 1.051 5.51 1.853 7.294 2.423.352.115.622.22.776.315.916.577.416 1.51.416 1.51" fill="#EE5DA0"/><path d="M187.396 123.687s4.788-1.094 5.091-.851c.303.242-3.766 1.879-3.822 2.485s4.593-.788 4.844-.485-2.661 2.048-3.749 2.485" stroke="#fff" stroke-miterlimit="10" stroke-linecap="round" stroke-linejoin="round"/><path d="M185.509 122.585s2.481 5 5.089 7.366" stroke="#161616" stroke-miterlimit="10" stroke-linecap="round" stroke-linejoin="round"/><path d="M201.705 129.344c-2.463 2.326-5.807.219-6.704-.145-.898-.362-3.075 1.214-4.723 1.455-1.652.244-1.613-.97-1.613-.97l5.744-2.767c1.608 1.051 5.51 1.853 7.294 2.423z" fill="#430071"/><path d="M180.425 125.858s-3.313 3.342-4.136 3.585-1.093-.191-1.874-.641c-.612-.352-2.09.68-2.709 1.149 1.908-2.721 4.087-4.966 5.448-6.265 0 0 .585 1.981 3.271 2.172" fill="#fff"/><path d="M179.344 126.917s4.127.949 5.387 1.313-5.482 3.45-5.482 3.45" stroke="#161616" stroke-miterlimit="10" stroke-linecap="round" stroke-linejoin="round"/><path d="M281.61 124.851h-11.3l-.496-3.342-.143-.96-.398-2.666c2.303-.942 7.295-1.328 11.241-1.009l.204 1.501.398 2.891z" fill="#FE8F8C"/><path d="M280.719 118.375c-5.41 1.002-10.905 3.135-10.905 3.135l-.143-.961-.398-2.666c2.303-.942 7.295-1.328 11.241-1.009z" fill="#F56961"/><path d="m263.34 106.325 15.841-9.837 1.271 4.196-16.203 8.131zm1.505 4.021 16.37-8.267 1.272 4.195-16.628 6.85z" fill="#CBD4DF"/><path d="M281.973 99.782c3.992 13.711 5.833 23.677 5.833 23.677l-4.038 2.399-2.894 1.72s-11.077-28.599-12.26-32.786 1.644-16.324 5.305-15.844c1.616.211 4.896 9.986 8.054 20.834" fill="#fff"/><path d="M281.973 99.782c3.992 13.711 5.833 23.677 5.833 23.677l-4.038 2.399c-2.498-5.981-5.611-15.114-1.795-26.076" fill="#CBD4DF"/><path d="M282.416 126.857s-11.077-29.174-11.869-31.958c-1.303-4.579.139-11.84 3.371-15.951m-2.543 18.375 8.549-4.344m-7.677 6.766 8.465-4.206m-7.753 6.157 8.5-3.661" stroke="#161616" stroke-miterlimit="10" stroke-linecap="round" stroke-linejoin="round"/><path d="M299.019 131.165h-32.001s-.163 1.221 0 2.659h24.735c2.694 0 7.429-1.186 7.715-1.33s-.449-1.329-.449-1.329" fill="#fff"/><path d="M299.019 131.164s-3.061 1.007-7.388 1.149c-4.326.145-24.612-1.149-24.612-1.149q.062-.62.161-1.214c.45-2.721 1.427-4.966 2.094-6.264.397-.775.684-1.212.684-1.212s3.08 1.425 4.631 1.283c1.552-.145 5.451-3.735 7.003-2.802 1.551.936 3.5 4.427 6.667 5.962 2.17 1.05 6.502 1.852 8.591 2.422.414.115.74.221.944.315 1.225.577 1.225 1.51 1.225 1.51" fill="#EE5DA0"/><path d="M280.68 124.32s4.34-2.3 4.695-2.145c.356.156-3.148 2.793-3.045 3.394.103.6 4.231-1.955 4.552-1.727s-2.037 2.669-2.975 3.374" stroke="#fff" stroke-miterlimit="10" stroke-linecap="round" stroke-linejoin="round"/><path d="M277.039 122.584s5.159 5 9.034 7.367" stroke="#161616" stroke-miterlimit="10" stroke-linecap="round" stroke-linejoin="round"/><path d="M296.855 129.344c-1.218 2.326-5.691.218-6.782-.145s-2.425 1.214-3.944 1.455c-1.521.243-2.133-.97-2.133-.97l4.263-2.767c2.17 1.05 6.502 1.852 8.591 2.422z" fill="#430071"/><path d="M273.707 125.857s-1.524 3.342-2.215 3.586c-.695.241-1.196-.191-2.218-.642-.8-.351-1.726.681-2.094 1.149.451-2.721 1.427-4.966 2.094-6.264 0 0 1.645 1.981 4.433 2.171" fill="#fff"/><path d="M273.194 126.917s4.635.949 6.09 1.313c1.454.363-3.635 3.449-3.635 3.449" stroke="#161616" stroke-miterlimit="10" stroke-linecap="round" stroke-linejoin="round"/><path d="M207.288 66.827s8.456-3.07 19.384-2.903c6.898.105 6.642-.712 2.104-.945-4.537-.232-9.905-.001-6.244-2.291" stroke="#fff" stroke-miterlimit="10" stroke-linecap="round" stroke-linejoin="round"/><path d="M190.247 62.737c2.175 1.277 7.584 2.6 7.584 2.6l-1.307-11.094s-4.576-.28-5.36-.508-3.4-1.602-4.951-1.273c-1.552.33-4.855 4.77-4.724 6.238.131 1.467 1.961 1.375 1.961 1.375s-.392.493-.261 2.076c.13 1.583 1.833.586 1.833.586s-.51 2.11.324 2.6c.833.49 2.494.671 2.521.017.028-.654-.511-1.242-.511-1.242s1.645-2.107 2.891-1.375" fill="#CBD4DF"/><path d="M196.524 54.243c-1.205.167-1.126 11.135 1.307 11.094 2.434-.04.983-11.41-1.307-11.094" fill="#161616"/><path d="M196.25 65.464s8.839 4.108 13.098 1.807c7.193-3.887-6.373-12.833-6.373-12.833l-6.88.101s-1.114 5.503.155 10.925" fill="#F56961"/><path d="m183.749 53.804-1.707-1.446a433 433 0 0 1-2.066-1.763s-9.55-21.962-13.176-42.938c0 0 1.626-1.057 4.025-1.48a10.5 10.5 0 0 1 4.522.151s6.913 32.984 11.046 41.764c.185.393-.23 2.348.318 4.579l-1.48.567z" fill="#EE5DA0"/><path d="M182.042 52.358a433 433 0 0 1-2.066-1.763s-9.55-21.962-13.176-42.938c0 0 1.626-1.057 4.025-1.48 1.614 6.974 8.369 36.005 10.149 40.977.695 1.94.985 3.712 1.068 5.204" fill="#CC3C7E"/><path d="m183.75 53.804 2.962-1.133 7.399 18.843s-.884 1.405-2.962 1.133z" fill="#CDF463"/><path d="M184.285 63.38s-1.896.167-2.183-1.7c0 0-1.555-.794-1.609-1.81l-.014-.28s-.639 0-1.032-.785c-.392-.784 3.104-5.591 4.363-4.822s.795 1.963.795 1.963 1.257-.414 1.514.569-.23 1.573-.23 1.573 1.338-.329 1.534 1.044-1.373 3.922-3.138 4.249" fill="#CBD4DF"/><path d="M180.479 59.59s1.413-3.14 4.125-3.644m-2.501 5.734s.686-3.398 3.786-3.592" stroke="#161616" stroke-miterlimit="10" stroke-linecap="round" stroke-linejoin="round"/><path d="M191.164 53.735s-2.812-1.51-5.035-1.675c-2.222-.164-1.175 3.563 2.518 3.563 3.692-.001 2.976-1.225 2.517-1.888" fill="#CBD4DF"/><path d="M187.861 55.56s2.036.978 3.682.062" stroke="#161616" stroke-miterlimit="10" stroke-linecap="round" stroke-linejoin="round"/><path d="M192.665 67.795c2.175 1.276 7.584 2.6 7.584 2.6l-1.308-11.094s-4.576-.28-5.36-.508-3.399-1.602-4.951-1.273-4.854 4.77-4.723 6.237c.13 1.468 1.961 1.376 1.961 1.376s-.392.492-.262 2.075c.131 1.584 1.833.587 1.833.587s-.509 2.11.324 2.6c.834.49 2.494.671 2.522.017s-.512-1.243-.512-1.243 1.645-2.106 2.892-1.374" fill="#fff"/><path d="M201.432 68.935c-.168.984-.543 1.589-1.184 1.46-.647-.129-1.18-.873-1.587-1.92-1.236-3.183-1.293-9.161.271-9.174h.012c1.576.02 3.004 6.615 2.488 9.634" fill="#161616"/><path d="M185.868 65.133s1.455-4.003 2.435-4.445c.981-.44 2.55 0 2.55 0m-3.413 7.107s1.403-3.299 2.54-3.781c.741-.314 2.196.564 2.54.482m-2.747 4.674s1.618-1.678 2.746-1.746 1.961.361 1.961.361" stroke="#161616" stroke-miterlimit="10" stroke-linecap="round" stroke-linejoin="round"/><path d="M239.995 61.259a49 49 0 0 1-1.12 2.114c-.909 1.61-2.223 3.715-3.727 5.45-1.217 1.403-2.561 2.568-3.919 3.039-.952.33-3.019.36-5.695.196-6.854-.415-17.712-2.075-24.101-3.123a492 492 0 0 1-2.772-.461c-1.236-3.183-1.293-9.161.271-9.173h.012l26.27-.278 1.204-1.673.416-.578 1.554-2.158c3.679 1.135 9.625 4.4 11.607 6.645" fill="#FE8F8C"/><path d="M239.996 61.259a54 54 0 0 1-.652 1.261c-6.447-3.797-12.509-5.748-12.509-5.748l1.554-2.158c3.678 1.135 9.624 4.4 11.607 6.645m-4.848 7.565c-1.217 1.402-2.56 2.567-3.919 3.038-.951.33-3.019.36-5.695.196.54-1.046 1.893-2.905 4.934-3.765 1.877-.53 3.473-.117 4.68.53" fill="#F56961"/><path d="M225.214 59.023s2.217 2.031 3.562 3.956" stroke="#7B1732" stroke-width=".75" stroke-miterlimit="10" stroke-linecap="round"/><path d="M232.859 41.59c-.367-.486-2.623-1.177-2.623-1.177h-4.117s-2.256.691-2.624 1.177c-.367.486.369 5.143.446 5.535s3.525-1.942 3.525-1.942h1.422s3.448 2.334 3.525 1.942.814-5.049.446-5.535" fill="#fff"/><path d="M225.727 43.122s-.639-1.041-.953-1.37c-.315-.33 1.728-1.2 3.403-1.182s2.705.41 3.121.656c.417.245-.459 1.757-.459 1.757z" fill="#161616"/><path d="M222.069 36.922s.567-1.465 4.872-2.498 9.374.103 9.374.103c-.432 1.716-1.504.464-2.021 2.363-.29 1.065.045 2.839-2.568 3.459-3.016.715-8.321 2.566-9.657-3.427" fill="#161616"/><path d="M231.01 38.249s2.227-1.138 2.434-1.333-.657-1.04-.657-1.04 1.118-.14 1.077-1.213c-.019-.507-.763-.877-.763-.877.538-2.395-1.794-2.366-2.563-2.74-.992-.484-.731-1.41-1.02-1.505-.628-.206-3.142 2.343-3.142 2.343s.364-1.196-.033-1.327c-.63-.208-3.52 2.278-3.714 3.12-.246 1.068-.184 3.68 2.091 5.934 0 0-.623 1.22-.309 1.373.315.151 1.313-.594 1.313-.594s-.105.923.178.94c.282.016 1.002-.97 1.002-.97s.462 1.28 1.335 1.185c.873-.096 2.771-3.296 2.771-3.296" fill="#FEDB62"/><path d="m230.839 42.983-.519-4.596-4.874-.384.28 5.119s2.235 3.218 3.659 3.18c.583-.017 1.454-3.32 1.454-3.32" fill="#FE8F8C"/><path d="M227.96 38.326s-1.419 1.522-1.071 2.473 2.573 2.09 3.829 1.108l-.398-3.52z" fill="#F56961"/><path d="M228.218 33.749c1.869-.601 3.257.76 3.851 2.631.519 1.633.736 3.786-1.857 4.439-2.085.525-4.112-1.638-4.424-3.38s.373-3.028 2.43-3.69" fill="#FE8F8C"/><path d="M231.78 33.778s-2.288 2.037-4.788 1.649c-.239-.037 1.255-1.205 1.255-1.205s-1.852.51-2.276 1.535c-.104.253.965 1.264.252 2.467 0 0-2.221.904-2.282-2.315-.013-.647 1.156-2.937 2.414-3.367 2.692-.922 4.676-.314 5.425 1.236" fill="#FEDB62"/><path d="M230.924 34.402s.673-.367.748-.824" stroke="#161616" stroke-width=".75" stroke-miterlimit="10" stroke-linecap="round"/><path d="M227.896 36.97c.049.155.018.302-.068.33-.087.027-.196-.076-.245-.23s-.019-.302.068-.33c.086-.027.196.076.245.23m2.728-.863c.049.154.019.301-.068.329-.086.027-.196-.076-.245-.23s-.018-.302.068-.33c.087-.027.197.076.245.23" fill="#7B1732"/><path d="M226.669 38.6c-.082-1.123-2.434-1.147-2.385-.227.081 1.499 2.459 1.238 2.385.228" fill="#FE8F8C"/><path d="M224.773 38.545c.47-.15 1.022.004 1.345.375m1.174 1.02s1.585 1.76 3.937.47m-2.319-4.865s-.282.026-.181.49 1.011 1.173 1.634 1.386c.622.212.321.98-.549.703m-1.205 1.08c.325.163.822.053 1.064.002" stroke="#7B1732" stroke-width=".75" stroke-miterlimit="10" stroke-linecap="round"/><path d="M224.285 38.374s1.848 2.107 2.926 2.567c1.078.461 6.969-.664 7.159-1 .578-1.02-.928-5.529-.928-5.529" stroke="#fff" stroke-miterlimit="10" stroke-linecap="round" stroke-linejoin="round"/><path d="M226.201 34.616s1.492 5.394 2.855 6.435" stroke="#fff" stroke-miterlimit="10" stroke-linecap="round" stroke-linejoin="round"/><path d="M225.215 39.428s1.479-.36 2.31-.94c0 0 5.19-.453 6.704-1.236m-8.11 3.161s1.291-.27 2.058-.537c0 0 5.216-.53 6.325-.955" stroke="#fff" stroke-miterlimit="10" stroke-linecap="round" stroke-linejoin="round"/><path d="M236.315 34.526c-.305.273-2.929-.419-6.136-.005-2.154.278-5.069 1.264-6.754 1.881-.826.305-1.356.52-1.356.52-.097-3.967.808-6.198 4.6-7.224q.001-.004.003-.003c.324-.09.669-.166 1.036-.238 4.664-.897 5.534 3.475 5.928 3.609.397.136 1.745.583 2.32.709.575.127.664.48.359.751" fill="#EE5DA0"/><path d="M226.668 29.698c-2.562 1.504-3.122 5.068-3.244 6.704-.825.305-1.356.52-1.356.52-.096-3.967.808-6.198 4.6-7.224" fill="#CC3C7E"/><path d="M222.069 36.922s.312 4.092 2.157 4.309 2.669-.727 1.274-5.546c0 0-2.572.63-3.431 1.237" fill="#430071"/><path d="M359.368 69.237a8.24 8.24 0 1 0-.454-16.475 8.24 8.24 0 0 0 .454 16.475" fill="#EE5DA0"/><path d="M353.966 59.12a9.9 9.9 0 0 1 .073-4.583 8.24 8.24 0 1 0 10.914 12.314c-5.06.655-9.87-2.654-10.987-7.732" fill="#CC3C7E"/><path d="M355.556 53.59s1.821 8.913 11.344 10.2m-14.941-6.815s1.049 11.119 11.971 10.74" stroke="#fff" stroke-miterlimit="10" stroke-linecap="round" stroke-linejoin="round"/><path d="M354.039 54.537s.032.154.106.424" stroke="#fff" stroke-linecap="round" stroke-linejoin="round"/><path d="M354.402 55.792c.9 2.635 3.708 8.573 10.904 9.429" stroke="#fff" stroke-linecap="round" stroke-linejoin="round" stroke-dasharray="2.98 2.98"/><path d="M365.74 65.266q.216.019.437.032m-13.535-9.353s.024.155.087.428" stroke="#fff" stroke-linecap="round" stroke-linejoin="round"/><path d="M352.961 57.224c.802 2.582 3.421 8.274 11.119 9.509" stroke="#fff" stroke-linecap="round" stroke-linejoin="round" stroke-dasharray="3.02 3.02"/><path d="M364.518 66.797q.215.03.434.054" stroke="#fff" stroke-linecap="round" stroke-linejoin="round"/><path d="M159.582 81.484c-.097-.628 7.044-1.431 7.14-.626s-6.973 1.717-7.14.626m7.572-.67c-.096-.628 6.725-1.525 6.821-.72s-6.654 1.811-6.821.72m-3.226 31.563-1.844.088-2.321-21.356-.093-.861-.238-2.178-.093-.861-.521-4.79 1.907-.158.505 4.747.09.861.231 2.176.094.864z" fill="#161616"/><path d="m161.23 87.008.09.861-1.888.2-.093-.86zm.322 3.037.093.864-1.882.2-.093-.861z" fill="#CC3C7E"/><path d="m170.983 111.6-1.844.087-2.32-21.33-.093-.864-.237-2.172-.093-.864-.523-4.816 1.907-.157.509 4.773.091.864.231 2.172.09.864z" fill="#161616"/><path d="m168.289 86.257.09.863-1.89.2-.094-.863zm.322 3.036.09.864-1.882.2-.093-.864z" fill="#CC3C7E"/><path d="m178.038 110.822-1.843.087-2.316-21.3-.094-.867-.237-2.17-.093-.866-.527-4.843 1.907-.157.51 4.8.094.866.228 2.17.094.867z" fill="#161616"/><path d="m175.439 86.372-1.891.2-.093-.866 1.891-.2zm.322 3.037-1.882.2-.093-.867 1.881-.2z" fill="#CC3C7E"/><path d="M48 52.53c2.654-4.062 9.996-8.008 22.216-10.75 12.22-2.74 29.57-4.144 45.528-3.212 17.61 1.028 30.869 4.556 43.388 7.833 24.873 6.511 51.356 12.724 81.725 17.544s64.953 8.214 100.824 8.687c14.154.186 28.762-.105 41.593-1.619 12.83-1.513 23.654-4.413 26.013-7.925M375.062 81.72c14.45-1.548 27.395-6.004 34.938-12.026" stroke="#161616" stroke-miterlimit="10" stroke-linecap="round" stroke-linejoin="round"/><path d="M199.968 17.066c2.149.046 4.315-.46 5.815-1.358 1.178-.707 2.162-1.707 3.841-1.818 1.975-.13 3.718 1.098 5.666.87 2.232-.26 2.567-2.028 3.982-3.067 1.007-.738 2.737-1.116 4.328-.943 1.591.172 2.973.887 3.458 1.787.413.768.544 1.852 1.909 1.976 1.401.127 2.733-1.035 3.941-.602.763.274.671.969 1.299 1.34 1.048.62 6.6.253 8.09.202 1.62-.056 9.482.587 9.074 1.502-.423.95-22.907 1.075-24.619 1.114-4.955.114-9.916.048-14.872.116-2.514.035-17.11.169-17.097-.567.02-1.167 4.079-.576 5.185-.552m61.731 13.018c.094-.402.619-.605 1.087-.69 2.433-.44 5.255.524 7.305-.684.84-.494 1.453-1.318 2.438-1.54 1.357-.305 2.659.678 4.061.75 1.993.101 3.407-1.563 4.53-2.98 1.122-1.417 2.901-2.94 4.803-2.416 1.267.349 1.965 1.474 2.637 2.46s1.663 2.03 2.994 2.007c1.017-.019 2.045-.676 2.97-.316.342.133.595.386.885.59 1.427 1.002 3.498.74 5.334.594 1.836-.145 4.08.078 4.879 1.504.082.148.146.312.108.472-.09.37-.626.49-1.063.535-5.001.517-43.572 2.298-42.968-.286M17.186 13.358c2.148.046 4.314-.46 5.814-1.359 1.179-.706 2.162-1.707 3.842-1.817 1.974-.13 3.717 1.098 5.666.87 2.23-.26 2.566-2.028 3.982-3.067 1.007-.739 2.737-1.116 4.328-.944 1.59.173 2.973.887 3.457 1.788.413.768.545 1.851 1.909 1.975 1.401.128 2.734-1.034 3.942-.601.762.274.67.968 1.299 1.34 1.047.62 6.6.252 8.09.201 1.619-.055 9.481.587 9.073 1.503-.423.95-22.907 1.074-24.618 1.114-4.956.114-9.916.048-14.873.116-2.514.034-17.11.168-17.097-.568.02-1.167 4.08-.575 5.186-.551m61.731 13.017c.094-.402.618-.604 1.086-.689 2.434-.44 5.255.524 7.306-.684.839-.495 1.452-1.318 2.437-1.54 1.358-.306 2.66.677 4.061.749 1.994.102 3.407-1.562 4.53-2.98s2.901-2.94 4.803-2.416c1.267.35 1.966 1.475 2.637 2.46.671.987 1.664 2.031 2.994 2.007 1.017-.018 2.045-.675 2.971-.315.341.133.595.385.885.589 1.426 1.002 3.498.74 5.334.595s4.079.078 4.878 1.504c.083.147.146.312.108.472-.09.37-.626.489-1.063.534-5 .517-43.572 2.298-42.967-.286m279.269-11.017c2.148.046 4.315-.46 5.814-1.359 1.179-.706 2.162-1.707 3.841-1.817 1.975-.13 3.718 1.098 5.666.87 2.232-.26 2.567-2.028 3.983-3.067 1.007-.739 2.737-1.116 4.327-.944 1.591.173 2.974.887 3.458 1.788.414.768.545 1.851 1.909 1.975 1.401.128 2.734-1.034 3.942-.601.762.274.67.968 1.299 1.34 1.047.62 6.6.252 8.089.201 1.62-.055 9.482.587 9.074 1.503-.423.95-22.907 1.074-24.618 1.114-4.956.113-9.916.048-14.873.116-2.514.034-17.11.168-17.097-.568.02-1.167 4.079-.575 5.186-.551m61.731 13.017c.094-.402.618-.604 1.086-.689 2.434-.44 5.255.524 7.306-.684.839-.495 1.452-1.318 2.437-1.54 1.358-.306 2.66.677 4.061.749 1.994.102 3.407-1.562 4.53-2.98 1.122-1.417 2.901-2.94 4.803-2.416 1.267.35 1.966 1.475 2.637 2.46.671.987 1.664 2.031 2.994 2.007 1.017-.018 2.045-.675 2.971-.315.341.133.595.385.885.589 1.426 1.002 3.498.74 5.334.595s4.079.078 4.878 1.504c.083.147.146.312.108.472-.09.37-.626.489-1.063.534-5 .517-43.572 2.298-42.967-.286" stroke="#fff" stroke-miterlimit="10" stroke-linecap="round" stroke-linejoin="round"/></svg>