<svg width="298" height="199" viewBox="0 0 298 199" fill="none" xmlns="http://www.w3.org/2000/svg"><g clip-path="url(#a)"><path d="M0 199h298V0H0z" fill="#F0EFEF"/><path d="M256.676 79.018c-8.238 0-14.915-6.689-14.915-14.94 0-8.252 6.677-14.94 14.915-14.94s14.915 6.688 14.915 14.94-6.678 14.94-14.915 14.94" fill="#988CCE"/><path d="M218.389 133.794q-.39-.018-.76-.023c-8.294-.098-16.19 4.038-23.244 7.975-7.375 4.117-14.534 8.843-20.21 15.103-1.19 1.313-2.332 3.344-1.192 4.701.739.879 2.141.911 3.167.395s1.77-1.447 2.5-2.335c3.536-4.303 7.573-8.282 12.394-11.066 4.891-2.824 10.745-4.305 16.391-3.673 6.142.686 11.556 4.334 17.87 4.335 4.857.001 7.396-2.678 6.525-7.42-1.039-5.658-8.347-7.75-13.441-7.992" fill="#FAB799"/><path d="m213.944 130.335-.025-.298c-.832.072-1.641.169-2.414.291-1.637.258-3.45.832-4.882 1.736-.715.453-1.337.989-1.785 1.62-.448.63-.72 1.361-.719 2.168q-.001.44.109.905c.304 1.283 1.139 2.378 2.305 3.295 1.751 1.375 4.259 2.372 7.022 3.036 2.763.663 5.78.988 8.543.988 2.797-.002 5.329-.331 7.094-1.002 1.37-.523 2.388-1.288 3.062-2.192s1-1.944.999-2.991c-.001-2.207-1.429-4.435-3.958-5.668-3.37-1.643-7.829-2.323-12.076-2.325-1.123 0-2.231.048-3.3.139zl.026.297a38 38 0 0 1 3.249-.137c4.182-.001 8.574.68 11.815 2.265 2.356 1.151 3.624 3.188 3.623 5.131a4.36 4.36 0 0 1-.881 2.633c-.598.802-1.515 1.502-2.797 1.992-1.648.631-4.133.964-6.881.963-3.622 0-7.708-.572-11.005-1.732-1.648-.578-3.098-1.304-4.192-2.165-1.096-.862-1.829-1.85-2.093-2.963a3.3 3.3 0 0 1-.093-.767c.001-.673.22-1.273.609-1.822.582-.823 1.556-1.515 2.687-2.041 1.129-.526 2.41-.887 3.586-1.072a34 34 0 0 1 2.373-.285z" fill="#FEE75A"/><path d="M11.848 90.172c0 4.746 3.84 8.592 8.578 8.592s8.578-3.846 8.578-8.592-3.84-8.593-8.578-8.593-8.578 3.847-8.578 8.593" fill="#FAB799"/><path d="M27.235 73.98a3.364 3.364 0 0 0 3.362 3.367 3.364 3.364 0 0 0 3.361-3.367 3.364 3.364 0 0 0-3.361-3.367 3.364 3.364 0 0 0-3.362 3.367m225.567 18.18a5.705 5.705 0 0 0 5.7 5.71c3.148 0 5.7-2.557 5.7-5.71a5.705 5.705 0 0 0-5.7-5.71 5.705 5.705 0 0 0-5.7 5.71" fill="#FEE75A"/><path d="M165.19 170.49a1.885 1.885 0 0 1-1.884-1.887c0-1.043.843-1.888 1.884-1.888s1.884.845 1.884 1.888a1.885 1.885 0 0 1-1.884 1.887" fill="#988CCE"/><path d="M225.481 191.938c3.677.006 10.711.277 13.136-3.201 9.349-13.416-41.552-13.093-47.721-12.453-15.476 1.605-34.734-1.985-49.648-8.083-14.493-5.926-24.132-16.044-40.975-16.046-9.532-.002-31.655 5.782-28.806 19.657 2.708 13.183 25.132 17.423 36.031 18.827 10.767 1.387 21.696 1.035 32.452-.268 7.066-.857 14.096-1.978 21.124-3.099 10.646-1.699 21.923-1.799 32.564-.018 10.59 1.773 20.739 4.666 31.843 4.684" fill="#FAB799"/><path d="m212.463 173.989.08-.287a105.3 105.3 0 0 0-30.57-3.913c-11.543.231-23.022 2.35-34.453 2.348-2.32 0-4.638-.087-6.955-.294-9.582-.856-18.838-3.753-28.27-5.837-5.658-1.25-12.388-2.311-19.068-2.311-8 .001-15.94 1.52-21.864 6.105-2.671 2.073-4.605 5.285-4.61 8.516 0 .954.171 1.908.545 2.827.68 1.67 1.907 2.998 3.378 4.067 1.472 1.07 3.193 1.887 4.889 2.537 6.424 2.461 13.346 3.414 20.281 3.414 2.884 0 5.77-.165 8.624-.455 9.717-.988 19.188-3.365 28.68-5.422 14.365-3.113 29.207-5.5 43.867-5.5 9.428 0 18.781.987 27.886 3.401 6.178 1.636 12.364 3.96 18.853 3.962q.304 0 .608-.007c.972-.022 2.054-.19 2.964-.594.455-.202.868-.465 1.196-.807s.567-.768.66-1.268q.073-.394.073-.773c.001-1.088-.442-2.06-1.13-2.9-1.033-1.262-2.618-2.264-4.24-3.068s-3.286-1.406-4.474-1.832a103 103 0 0 0-6.87-2.196zl-.081.288q3.457.973 6.83 2.183c1.579.566 3.974 1.438 5.955 2.651.99.607 1.873 1.298 2.499 2.065.627.769.995 1.6.995 2.522q0 .323-.063.663a1.85 1.85 0 0 1-.504.964c-.387.407-.976.71-1.646.909a8.2 8.2 0 0 1-2.098.31q-.297.006-.594.006c-6.345.003-12.484-2.291-18.7-3.942-9.164-2.429-18.569-3.421-28.039-3.421-14.725 0-29.607 2.396-43.993 5.514-9.505 2.06-18.954 4.429-28.614 5.411a85 85 0 0 1-8.564.452c-6.88 0-13.73-.947-20.068-3.375-1.666-.638-3.342-1.437-4.752-2.462s-2.551-2.272-3.176-3.809a6.9 6.9 0 0 1-.501-2.602c-.005-2.985 1.827-6.07 4.379-8.043 5.761-4.467 13.57-5.982 21.5-5.981 6.616 0 13.309 1.053 18.939 2.297 9.398 2.075 18.679 4.983 28.345 5.849a79 79 0 0 0 7.008.296c11.504-.001 22.986-2.121 34.465-2.348a104.7 104.7 0 0 1 30.397 3.891z" fill="#FEE75A"/><path d="M61.137 173.514H86.36v-.597H61.137zm-21.09-82.131v-.298H17.28V88.02h22.468v3.363zh.298v-3.96h-23.66v4.259h23.66v-.299zm198.311-68.857v-.299h-20.499V18.85h20.201v3.676zh.298v-4.273h-21.393v4.572h21.393v-.299zm-4.444 8.049h31.012v-.597h-31.012z" fill="#5B50AC"/><path d="M191.81 20.837h31.012v-.597H191.81zM32.485 164.968h31.013v-.597H32.485zm33.668-13.033h16.821v-.597h-16.82zm6.549 3.276h9.573v-.597h-9.573zM37.788 82.833h16.82v-.597h-16.82zM174.472 27.7h10.851v-.597h-10.851zm45.455 89.358h10.851v-.597h-10.851z" fill="#FEE75A"/><path d="M237.422 153.049h20.724v-.597h-20.724zm20.519 5.24h9.869v-.597h-9.869zm-29.883 4.589h10.362v-.597h-10.362zM47.034 147.865h7.732v-.597h-7.732z" fill="#5B50AC"/><path d="M82.494 111.017h7.732v-.597h-7.732z" fill="#FEE75A"/><path d="M93.116 101.113a1.158 1.158 0 1 0 2.317.002 1.158 1.158 0 0 0-2.317-.002" fill="#FAB799"/><path d="M243.58 139.522a1.158 1.158 0 1 0 1.158-1.16c-.64 0-1.158.519-1.158 1.16" fill="#95DBC8"/><mask id="b" style="mask-type:luminance" maskUnits="userSpaceOnUse" x="272" y="77" width="4" height="3"><path d="M274.152 79.557a1.158 1.158 0 1 1 0-2.317 1.158 1.158 0 0 1 0 2.317" fill="#fff"/></mask><g mask="url(#b)"><path d="M272.994 79.557h2.315v-2.32h-2.315z" fill="#988CCE"/></g><path d="M39.138 152.796a1.158 1.158 0 1 0 2.314 0 1.158 1.158 0 1 0-2.314 0" fill="#95DBC8"/><path d="M223.337 42.421h3.863v-.597h-3.863z" fill="#897BC5"/><path d="M224.971 44.057h.596v-3.869h-.596zM161.262 24.76h3.863v-.598h-3.863z" fill="#897BC5"/><path d="M162.895 26.395h.596v-3.87h-.596z" fill="#897BC5"/><path d="M50.9 158.289h3.863v-.597H50.9z" fill="#fff"/><path d="M52.534 159.926h.596v-3.87h-.596zm-20.112-103h3.863v-.597h-3.863z" fill="#fff"/><path d="M34.056 58.563h.596v-3.87h-.596zm140.727-44.624h3.863v-.598h-3.863z" fill="#fff"/><path d="M176.416 15.575h.596v-3.87h-.596zm46.812 112.47h3.862v-.597h-3.862z" fill="#fff"/><path d="M224.861 129.682h.596v-3.87h-.596zm44.058-32.685h3.863V96.4h-3.863z" fill="#fff"/><path d="M270.552 98.633h.596v-3.87h-.596z" fill="#fff"/><path d="m42.973 29.224-.294.051.481 2.75c.04.222.14.427.293.593l1.886 2.055c.108.118.152.25.153.387a.6.6 0 0 1-.128.368.56.56 0 0 1-.35.205l-2.746.483c-.22.038-.425.14-.59.292l-2.053 1.89a.56.56 0 0 1-.386.153.6.6 0 0 1-.367-.129.56.56 0 0 1-.205-.35l-.482-2.75a1.2 1.2 0 0 0-.291-.593l-1.887-2.055a.56.56 0 0 1-.153-.387c0-.132.046-.265.128-.368a.56.56 0 0 1 .35-.205l2.746-.482c.22-.039.426-.14.59-.292l2.053-1.89a.56.56 0 0 1 .386-.154.6.6 0 0 1 .367.13.56.56 0 0 1 .205.35zl.294-.052a1.17 1.17 0 0 0-.42-.713 1.2 1.2 0 0 0-.739-.26c-.276 0-.562.1-.79.311l-2.052 1.89a.57.57 0 0 1-.29.144l-2.746.482a1.16 1.16 0 0 0-.713.421c-.167.21-.258.472-.258.74 0 .276.1.563.31.791l1.887 2.056a.6.6 0 0 1 .143.291l.482 2.75c.052.298.21.547.42.714a1.165 1.165 0 0 0 1.529-.052l2.052-1.89a.57.57 0 0 1 .29-.144l2.746-.482c.297-.052.546-.21.713-.42a1.2 1.2 0 0 0 .258-.74c0-.277-.1-.564-.31-.792l-1.887-2.055a.6.6 0 0 1-.143-.292l-.482-2.75zm222.083 10.697-.01.298 1.941.066.03.001a.9.9 0 0 0 .463-.127l1.67-.994a.3.3 0 0 1 .158-.044c.079 0 .16.033.219.089a.3.3 0 0 1 .093.222v.012l-.066 1.944v.031c0 .163.043.323.127.464l.991 1.673a.3.3 0 0 1 .045.158.32.32 0 0 1-.089.218.3.3 0 0 1-.222.094h-.012l-1.94-.066h-.031a.9.9 0 0 0-.464.127l-1.669.993a.31.31 0 0 1-.471-.267l.001-.012.066-1.944v-.03a.9.9 0 0 0-.127-.465l-.992-1.672a.3.3 0 0 1-.044-.158c0-.08.033-.16.089-.219a.3.3 0 0 1 .222-.094h.012zl.01-.298h-.032a.9.9 0 0 0-.652.277.91.91 0 0 0-.127 1.095l.992 1.672a.3.3 0 0 1 .043.16v.01l-.066 1.944-.001.032a.905.905 0 0 0 .908.909.9.9 0 0 0 .463-.129l1.67-.993a.3.3 0 0 1 .159-.043h.01l1.941.066h.032c.26.001.493-.11.652-.277a.906.906 0 0 0 .127-1.095l-.992-1.673a.3.3 0 0 1-.043-.159v-.01l.066-1.945v-.032a.9.9 0 0 0-.277-.653.9.9 0 0 0-1.093-.127l-1.67.993a.3.3 0 0 1-.159.044h-.01l-1.941-.066z" fill="#FEE75A"/><path d="m75.269 96.112-.298-.013-.131 2.942-.001.055c0 .215.056.426.164.612l1.475 2.549a.62.62 0 0 1-.092.75.6.6 0 0 1-.446.19l-.03-.001-2.938-.132-.054-.001a1.2 1.2 0 0 0-.613.165l-2.544 1.477a.616.616 0 0 1-.748-.092.6.6 0 0 1-.19-.447l.001-.03.131-2.943.002-.054c0-.215-.057-.427-.165-.613l-1.474-2.549a.6.6 0 0 1-.086-.312c0-.161.066-.321.177-.438a.6.6 0 0 1 .446-.19l.03.002 2.938.13.055.002c.214 0 .426-.057.612-.165l2.544-1.477a.616.616 0 0 1 .749.092.6.6 0 0 1 .189.447l-.001.03zl.298.013v-.057a1.2 1.2 0 0 0-.372-.878 1.23 1.23 0 0 0-.85-.343c-.204 0-.415.052-.61.166L71.19 96.49a.6.6 0 0 1-.313.084h-.028l-2.938-.132-.057-.001c-.35 0-.661.148-.876.373a1.22 1.22 0 0 0-.178 1.462l1.475 2.549a.6.6 0 0 1 .085.314l-.001.028-.131 2.942-.001.057c-.001.351.147.662.372.878s.528.344.85.344c.204 0 .416-.053.61-.166l2.544-1.477a.6.6 0 0 1 .314-.085l.027.001 2.938.131.057.002c.35 0 .66-.148.876-.374a1.214 1.214 0 0 0 .177-1.462l-1.474-2.549a.6.6 0 0 1-.084-.313v-.028l.132-2.943zM264.592 60.29l-.296.034q.093.828.092 1.64c0 7.252-5.44 13.505-12.806 14.338q-.825.093-1.637.092c-7.239 0-13.482-5.449-14.313-12.827a15 15 0 0 1-.093-1.64c0-7.251 5.44-13.504 12.806-14.337q.825-.093 1.637-.093c7.239 0 13.482 5.45 14.314 12.827zl.296-.034c-.867-7.683-7.365-13.357-14.906-13.357q-.845 0-1.704.097c-7.67.868-13.335 7.377-13.335 14.93q0 .847.097 1.708c.867 7.682 7.364 13.356 14.905 13.357q.846 0 1.705-.097c7.669-.869 13.334-7.377 13.334-14.931q0-.847-.096-1.707z" fill="#95DBC8"/><path d="M264.879 62.154c-.629-.547-1.435-.761-2.235-.761a5.2 5.2 0 0 0-1.583.26c-1.234.405-2.283 1.132-3.373 1.657a9.7 9.7 0 0 1-4.147.968c-1.473 0-2.912-.38-4.093-1.248-.88-.642-1.62-1.573-2.664-2.195-.798-.471-1.608-.682-2.39-.682-1.061 0-2.061.384-2.939.982-.879.599-1.641 1.413-2.242 2.3-1.101 1.626-1.512 3.43-1.511 5.274 0 .69.057 1.385.155 2.083l.591-.084a14 14 0 0 1-.15-1.999c.001-1.76.386-3.427 1.409-4.939.563-.833 1.28-1.595 2.083-2.141.804-.548 1.689-.879 2.604-.879.676.001 1.373.178 2.087.6.923.539 1.654 1.45 2.614 2.16 1.303.958 2.873 1.365 4.446 1.365 1.531 0 3.071-.382 4.406-1.027 1.144-.556 2.173-1.263 3.298-1.628.447-.145.931-.23 1.399-.23.698 0 1.353.186 1.844.614z" fill="#95DBC8"/><path d="M258.472 49.628c-.844.052-1.608.224-2.256.521-.646.297-1.178.721-1.534 1.271-.336.52-.587 1.071-.847 1.595-.26.525-.527 1.021-.88 1.44a4 4 0 0 1-3.197 1.397c-1.006-.045-2.006-.496-3.1-.754a7.8 7.8 0 0 0-1.761-.2c-2.874.001-5.65 1.554-7.152 4.043a13 13 0 0 0-1.675 4.497 9.3 9.3 0 0 0-.121 1.567 14.3 14.3 0 0 0 .386 3.257l.578-.143a13.7 13.7 0 0 1-.368-3.114c0-.523.035-1.025.112-1.465a12.5 12.5 0 0 1 1.598-4.29c1.387-2.305 3.983-3.757 6.642-3.756q.816-.001 1.627.186c1.017.232 2.047.708 3.205.768q.105.006.21.005a4.6 4.6 0 0 0 3.473-1.613c.405-.483.692-1.025.957-1.56.264-.535.508-1.065.813-1.535.284-.439.717-.793 1.283-1.053.564-.26 1.258-.42 2.043-.468zM236.014 58.4a9.5 9.5 0 0 1 1.465-2.486c.625-.758 1.371-1.38 2.173-1.71.689-.283 1.449-.46 2.21-.675.761-.217 1.526-.476 2.211-.948 1.231-.854 1.959-2.326 1.961-3.81 0-.322-.036-.647-.108-.965l-.581.134q.093.41.093.832c.001 1.287-.647 2.59-1.703 3.317-.595.412-1.293.654-2.036.865-.741.212-1.523.39-2.273.698-.925.381-1.735 1.07-2.406 1.881a10.1 10.1 0 0 0-1.559 2.645zm7.701 16.913a3 3 0 0 1-.011-.242c0-.665.235-1.317.63-1.889a4.44 4.44 0 0 1 1.562-1.38c1.031-.545 2.226-.728 3.44-.728q.504.001 1.007.037c.862.06 1.759.183 2.661.183.668 0 1.341-.068 1.998-.286.866-.288 1.592-.798 2.267-1.356.674-.56 1.3-1.17 1.958-1.683.859-.674 1.99-1.193 2.989-1.19.502.001.967.124 1.381.412l.34-.49a2.96 2.96 0 0 0-1.721-.519c-1.199.004-2.416.586-3.356 1.316-.692.54-1.322 1.155-1.972 1.693-.649.54-1.315.999-2.074 1.25-.576.192-1.181.257-1.81.257-.848 0-1.732-.12-2.619-.182a15 15 0 0 0-1.049-.04c-1.272.001-2.566.19-3.718.797a5 5 0 0 0-1.774 1.57c-.452.654-.736 1.42-.736 2.228q0 .146.013.293zm19.301-6.157a2.74 2.74 0 0 0-1.289-.304 3.8 3.8 0 0 0-1.321.251 5.8 5.8 0 0 0-1.825 1.124c-.506.447-.946.942-1.443 1.44-.519.525-1.27.769-2.091 1.002-.815.237-1.693.46-2.404 1.055a3.17 3.17 0 0 0-1.086 2.768l.592-.073a2 2 0 0 1-.018-.293 2.58 2.58 0 0 1 .895-1.945c.57-.483 1.359-.703 2.185-.938.822-.238 1.687-.493 2.349-1.154.511-.513.945-1 1.415-1.414.471-.415.974-.76 1.642-1.013a3.2 3.2 0 0 1 1.11-.213c.361 0 .705.073 1.009.235z" fill="#95DBC8"/><path d="M48.45 41.213a5 5 0 0 1-4.987-4.701l1.654-.29c.297-.053.546-.211.712-.422a1.2 1.2 0 0 0 .259-.74c0-.276-.1-.563-.31-.79L44.613 33a4.98 4.98 0 0 1 3.836-1.797 5 5 0 0 1 4.996 5.004 5 5 0 0 1-4.996 5.005m-4.987-5.307a5 5 0 0 1 .79-2.415l1.086 1.182c.107.118.152.25.153.387a.6.6 0 0 1-.129.368.56.56 0 0 1-.349.205z" fill="#988CCE"/><path d="M43.463 36.512a5 5 0 0 1 0-.606l1.551-.273a.56.56 0 0 0 .35-.205.6.6 0 0 0 .128-.368.56.56 0 0 0-.153-.387l-1.085-1.182q.165-.256.36-.49l1.164 1.268c.21.228.31.515.31.791 0 .269-.091.53-.258.74s-.416.37-.713.421z" fill="#BB9CC1"/><path d="m43.63 114.512-.112.277 6.801 2.788a2.6 2.6 0 0 0 1.456.151l7.229-1.328a1.98 1.98 0 0 1 1.792.567c.362.369.582.872.582 1.406 0 .25-.048.508-.154.767l-2.783 6.813a2.6 2.6 0 0 0-.151 1.458l1.326 7.241q.035.192.035.376a1.98 1.98 0 0 1-.6 1.419c-.37.363-.872.583-1.405.583a2 2 0 0 1-.765-.154l-6.802-2.788a2.6 2.6 0 0 0-1.456-.152l-7.228 1.329a1.97 1.97 0 0 1-1.792-.567 2.02 2.02 0 0 1-.582-1.406c0-.251.047-.509.153-.767l2.784-6.813a2.6 2.6 0 0 0 .15-1.458l-1.325-7.241a1.98 1.98 0 0 1 .565-1.796 2 2 0 0 1 1.404-.582c.25 0 .508.048.766.154zl.113-.276a2.6 2.6 0 0 0-.992-.198c-1.394.002-2.597 1.14-2.6 2.599q0 .237.045.484l1.326 7.24q.032.182.033.363c0 .26-.05.519-.15.762l-2.783 6.813c-.135.33-.198.666-.198.993.001 1.397 1.138 2.601 2.594 2.604q.238 0 .483-.044l7.229-1.328a2 2 0 0 1 1.122.117l6.802 2.788c.329.134.665.198.991.198 1.395-.002 2.597-1.141 2.6-2.599a2.7 2.7 0 0 0-.044-.484l-1.326-7.241a2 2 0 0 1 .117-1.124l2.783-6.813a2.6 2.6 0 0 0 .198-.993c-.002-1.397-1.139-2.602-2.594-2.605q-.238 0-.484.045l-7.228 1.328a2 2 0 0 1-1.123-.117l-6.801-2.788z" fill="#5B50AC"/><path d="m39.522 135.069 21.693-18.06-.381-.459-21.693 18.06" fill="#5B50AC"/><path d="m41.235 114.93 17.834 21.877.461-.378-17.833-21.876" fill="#5B50AC"/><path d="m51.061 117.435-2.016 16.735.592.072 2.016-16.735" fill="#5B50AC"/><path d="m58.622 126.184-16.763-1.472-.052.595 16.763 1.472" fill="#5B50AC"/><path d="m249.407 129.148.206.215 2.976-2.878a1.6 1.6 0 0 0 .445-.78l.956-4.031a.98.98 0 0 1 .367-.568c.174-.131.393-.203.611-.203a.98.98 0 0 1 .714.307l2.872 2.981c.212.22.482.375.779.445l4.024.958a.98.98 0 0 1 .567.367c.131.175.203.394.203.613a.98.98 0 0 1-.306.714l-2.976 2.878a1.6 1.6 0 0 0-.445.78l-.956 4.031a.98.98 0 0 1-.367.567 1.02 1.02 0 0 1-.611.204.98.98 0 0 1-.714-.307l-2.872-2.981a1.6 1.6 0 0 0-.779-.445l-4.024-.958a.98.98 0 0 1-.567-.367 1.03 1.03 0 0 1-.203-.613.98.98 0 0 1 .306-.714zl-.207-.215c-.332.319-.49.738-.489 1.144 0 .348.112.69.323.971.209.281.522.499.905.59l4.024.958a1 1 0 0 1 .488.279l2.873 2.981c.319.332.737.49 1.142.489.348 0 .689-.113.969-.323s.499-.523.589-.907l.956-4.031c.044-.186.141-.356.278-.489l2.976-2.877c.332-.32.49-.739.489-1.144 0-.348-.112-.69-.323-.971a1.58 1.58 0 0 0-.905-.59l-4.024-.958a1 1 0 0 1-.488-.279l-2.873-2.981a1.58 1.58 0 0 0-1.142-.489 1.62 1.62 0 0 0-.969.323 1.58 1.58 0 0 0-.589.907l-.956 4.03a1 1 0 0 1-.278.49l-2.976 2.877z" fill="#95DBC8"/><path d="m259.17 135.893-4.368-15.288-.573.164 4.368 15.288" fill="#95DBC8"/><path d="m249.112 130.604 15.294-4.241-.159-.575-15.294 4.241" fill="#95DBC8"/><path d="m252.527 126.089 8.149 4.836.304-.514-8.149-4.836" fill="#95DBC8"/><path d="m258.694 123.996-4.558 8.316.522.288 4.558-8.316" fill="#95DBC8"/><path d="M76.313 155.685c0 4.227 3.42 7.653 7.64 7.653 4.218 0 7.639-3.426 7.639-7.653s-3.42-7.652-7.64-7.652-7.64 3.426-7.64 7.652" fill="#FEE75A"/><path d="M98.852 121.727c-.855.938.943 8.691 6.675 12.057s14.227 8.713 16.004 5.805c1.777-2.909.721-5.117-4.239-8.282s-14.306-9.462-14.306-9.462-2.516-1.893-4.134-.118" fill="#040606"/><path d="M127.733 126.476a144 144 0 0 0-13.802 9.36c5.605 11.698 7.975 33.7 7.975 33.7-4.682 1.151-9.375-.021-14.166-.556-.125-1.871-8.971-22.618-13.648-34.082-1.186-2.908-.505-6.151 1.082-8.826 2.284-3.849 6.54-6.354 9.978-9.099" fill="#F35C57"/><path d="M118.595 101.676c.474 2.067-.497 4.241-1.936 5.797s-3.306 2.632-5.074 3.799c-3.071 2.027-5.912 4.382-8.745 6.731-2.005 1.662-4.384 2.936-7.346 6.048 2.943 4.021 8.293 7.483 13.064 8.902 1.955.582 3.993.904 5.881 1.678 2.681 1.099 7.019 2.977 6.819 5.293 4.08-3.132 9.99-8.832 10.767-9.552 2.996-2.776 6.345-5.173 9.108-8.2 5.911-6.478 7.992-17.239 5.283-25.534" fill="#5B50AC"/><path d="m120.994 138.609 13.749-12.155c2.415-2.136 4.857-4.293 7.088-6.694l-1.164-1.085c-2.16 2.325-4.56 4.449-6.976 6.585l-13.749 12.156z" fill="#FEE75A"/><path d="M120.63 159.056s-3.109 1.39-8.64 1.459c-5.53.068-8.039-1.189-8.039-1.189 1.849 5.291 3.403 9.343 3.475 14.512l14.982-3.611zm6.458 21.362c.073-.944-.503-1.992-1.489-2.404l-35.35 1.396c-.358.498-.64 1.959-.279 2.503.547.827 1.185 1.386 2.061 1.927 1.824 1.127 4.3 1.846 6.441 2.17 2.218.336 4.327-.123 6.507-.216 2.03-.087 4.225.214 6.091-.54.849-.344 1.578-.917 2.497-1.102.715-.144 1.483-.038 2.222.106.575.112 1.147.247 1.728.295.637.052 1.269-.002 1.893-.076a27 27 0 0 0 3.357-.62c.999-.251 1.991-.567 2.807-1.12s1.442-1.375 1.514-2.319" fill="#fff"/><path d="M121.616 180.896q.605-.067 1.208-.153c.996-.145 2.065-.381 2.723-1.144.686-.796.737-1.974.491-2.996-.559-2.315-2.422-4.268-2.468-6.649-.01-.527.041-1.138-.351-1.49-.249-.224-.61-.268-.944-.263-.913.015-2.081.295-2.844.821-.778.536-1.585.901-2.497 1.198a15.1 15.1 0 0 1-6.13.672 2.6 2.6 0 0 1-.542-.097c-.204-.068-.389-.182-.577-.287a6.7 6.7 0 0 0-1.777-.677c-.48-.107-.986-.161-1.459-.026-.394.113-.85.413-.979.827-.15.488.09 1.068-.019 1.581-.202.943-1.181 1.477-2.073 1.839-3.754 1.524-7.822 2.221-11.472 3.981-.511.247-1.028.526-1.386.968-.373.462-.57.935-.224 1.491 2.503 4.019 9.47 3.847 13.556 3.398 3.561-.391 6.969-1.664 10.504-2.249 2.4-.397 4.842-.475 7.26-.745" fill="#5B50AC"/><path d="M94.688 176.752c-.13.087-.217.194-.291.288-.075.095-.137.178-.204.234a4 4 0 0 0-.49.485c-.166.205-.322.44-.327.723l.005.083c.02.13.079.235.15.341.107.156.25.308.386.446.136.136.266.26.334.335.61.686 1.346.883 2.071.944.728.063 1.463.01 2.158.172.62.143 1.17.6 1.425 1.183.113.259.17.543.17.828 0 .358-.09.716-.264 1.024l.346.196c.21-.372.315-.796.315-1.22 0-.337-.066-.676-.203-.988a2.5 2.5 0 0 0-1.7-1.41c-.771-.177-1.529-.12-2.212-.182-.686-.063-1.28-.223-1.81-.813-.117-.128-.308-.302-.476-.483a2.4 2.4 0 0 1-.213-.257.5.5 0 0 1-.083-.168l-.002-.031c-.004-.109.09-.297.236-.469.143-.173.323-.333.443-.437.112-.096.188-.202.257-.289a1 1 0 0 1 .198-.203zm29.854-3.48c-1.357.922-3.071.915-4.73.949l-.228.003c-.394 0-.76-.02-1.112-.021-.469.001-.916.036-1.345.222-.43.186-.828.521-1.2 1.076-.477.711-.767 1.501-1.142 2.215-.254.486-.555.943-.965 1.251-.389.293-.82.367-1.303.418-.478.052-1.002.073-1.52.315a5 5 0 0 0-1.709 1.304c-.459.554-.776 1.219-.837 1.952l.396.033c.053-.638.33-1.227.747-1.731a4.6 4.6 0 0 1 1.571-1.197c.428-.202.898-.229 1.394-.28.493-.052 1.018-.133 1.5-.496.485-.366.812-.877 1.078-1.384.389-.746.676-1.522 1.119-2.178.344-.51.677-.779 1.028-.932.352-.153.738-.19 1.188-.19.336 0 .705.021 1.112.021l.236-.003c1.646-.039 3.449-.01 4.945-1.017z" fill="#040606"/><path d="M99.3 175.817a9.83 9.83 0 0 1 4.383 3.077.597.597 0 0 0 .925-.753 11 11 0 0 0-4.919-3.453.597.597 0 0 0-.39 1.129m3.277-1.301a6.7 6.7 0 0 1 2.063 1.05c.647.478 1.272 1.092 1.916 1.854a.595.595 0 0 0 .84.07.6.6 0 0 0 .07-.841c-.685-.811-1.375-1.494-2.119-2.044a7.9 7.9 0 0 0-2.423-1.232.596.596 0 1 0-.347 1.143m2.289-1.14c1.52.242 2.871.817 4.049 1.784a.596.596 0 1 0 .756-.923c-1.346-1.108-2.915-1.772-4.62-2.04a.596.596 0 0 0-.185 1.179" fill="#fff"/><path d="M104.67 161.78c1.73.728 3.457.92 5.214.92.958 0 1.926-.057 2.912-.116 2.815-.167 5.525-.795 8.178-1.486l-.1-.386c-2.646.691-5.33 1.31-8.101 1.475-.986.059-1.947.115-2.889.115-1.729 0-3.395-.188-5.06-.889z" fill="#FEE75A"/><path d="M169.149 119.758c12.28 15.849 27.695 26.117 38.161 43.768l-13.813 4.047c-9.941-8.531-21.044-15.711-30.332-24.951-4.708-4.684-8.903-9.852-13.088-15.009" fill="#F35C57"/><path d="M142.051 100.643a28.6 28.6 0 0 0 7.979-5.61l-.28-.282a28.2 28.2 0 0 1-7.868 5.532z" fill="#040606"/><path d="M149.921 91.64a40.05 40.05 0 0 1 12.303 15.671c.987 2.251 1.769 4.6 2.971 6.744 3.019 5.387 8.687 9.859 12.516 15.317-4.194.493-9.41 1.741-13.105 3.789-2.362 1.309-4.601 2.929-7.198 3.667-3.093.879-6.258.739-9.439.276-4.043-5.041-9.476-12.319-13.675-17.158-1.903-2.193-3.806-2.768-6.496-3.751l-3.844-18.326" fill="#5B50AC"/><path d="M150.862 98.57c1.194.964 2.13 2.142 2.929 3.471 1.198 1.992 2.075 4.323 3.027 6.676.955 2.353 1.987 4.732 3.565 6.804 1.78 2.325 4.068 4.043 6 5.946a31 31 0 0 1 6.223 8.71l1.434-.688a32.6 32.6 0 0 0-6.545-9.158c-2.037-1.995-4.253-3.678-5.849-5.777-1.9-2.484-3.021-5.65-4.3-8.776-.641-1.562-1.326-3.113-2.193-4.558-.867-1.443-1.921-2.782-3.293-3.89z" fill="#FEE75A"/><path d="M153.15 93.465c-6.279 6.785-16.713 8.562-23.772 8.961a49.6 49.6 0 0 1-10.678-.574l-.57.14.3 2.519s5.547 1.484 12.779 1.089c7.231-.395 18.248-2.293 23.807-10.056z" fill="#1F1E2B"/><path d="M150.754 94.789c.573.596 1.228 1.445 1.726 2.135a37 37 0 0 1 .786 1.128l.045.069.014.022 1.33-.873c-.005-.007-.366-.56-.889-1.28-.523-.723-1.199-1.608-1.865-2.304zm-7.143 4.636a17 17 0 0 1 1.646 3.876l1.527-.438a18.5 18.5 0 0 0-1.8-4.241zm-22.381 6.128c-.006-.888-.017-1.764-.017-2.638q-.001-1.031.027-2.064l-1.589-.046q-.028 1.064-.027 2.11c0 .887.011 1.766.017 2.649zm5.691.599c-.085-.875-.144-1.587-.144-2.361 0-.717.05-1.496.185-2.518l-1.576-.208a20 20 0 0 0-.198 2.726c0 .858.065 1.632.152 2.516z" fill="#5B50AC"/><path d="M199.356 152.155c-.861 3.542-2.419 5.046-3.787 5.972-5.08 3.439-9.532 2.317-12.46 1.273l10.658 8.938s3.841.649 7.824-.085c3.983-.733 6.198-4 6.198-4s-5.528-9.209-8.433-12.098m3.117 18.106c1.213.319 2.409.713 3.671 1.019 2.259.546 4.602.654 6.926.614 1.681-.029 3.376-.134 5.033.152 3.975.686 7.639 3.649 8.079 7.809.153 1.447-.127 2.964-.926 4.179-1.502 2.283-4.466 3.088-7.19 3.253-1.323.08-2.664.05-3.957-.245-4.746-1.08-8.027-5.436-12.462-7.445-2.279-1.031-11.896-2.628-9.855-6.901.19-.398.501-.724.835-1.011 1.593-1.372 3.746-1.962 5.847-1.992 1.419-.021 2.719.232 3.999.568" fill="#fff"/><path d="M223.453 175.611c.482.762.872 1.594 1.199 2.485.579 1.577.937 3.445-.101 4.905-1.933 2.719-6.773 3.05-9.746 2.565-3.771-.615-6.794-3.335-10.137-5.19-3.483-1.932-7.637-2.546-11-4.627-1.328-.822-2.171-2.121-2.19-3.72-.015-1.241 1.072-2.477-.103-3.285a1.9 1.9 0 0 1-.751-1.94c.031-.13.093-.276.222-.312.102-.029.209.022.302.072 1.019.539 2.03 1.131 3.149 1.403s2.396.175 3.286-.558c.515-.424.857-1.019 1.321-1.498.512-.528 1.16-.901 1.804-1.254 1.783-.979 3.687-1.88 5.718-1.958.633-.024 1.332.061 1.765.524.259.278.384.652.553.992a3.93 3.93 0 0 0 1.46 1.587c.631.387.951.73 1.459 1.3 1.054 1.182 2.286 2.229 3.686 2.977 1.759.938 3.745 1.647 5.438 2.776a9.1 9.1 0 0 1 2.666 2.756" fill="#5B50AC"/><path d="M205.452 181.067c-.114-1.49-1.02-2.787-2.258-3.55-.567-.348-1.203-.473-1.798-.615-.598-.141-1.152-.296-1.583-.652-.507-.414-.728-1.131-.914-1.847-.098-.364-.211-1.018-.392-1.635a5 5 0 0 0-.335-.873c-.138-.259-.303-.484-.532-.62-.424-.248-.901-.271-1.328-.292-.824-.037-1.643.005-2.385-.107-.744-.114-1.402-.37-1.963-1.005l-.298.263c.63.72 1.405 1.017 2.202 1.135.798.12 1.628.074 2.426.111.424.018.834.052 1.144.237.13.076.265.239.382.464.178.337.316.799.425 1.247.11.448.191.879.269 1.177.193.716.413 1.525 1.047 2.052.518.426 1.14.589 1.743.732.605.142 1.196.267 1.682.567 1.142.703 1.969 1.898 2.069 3.242z" fill="#040606"/><path d="M205.368 172.12a10.44 10.44 0 0 1 5.302-3.495.597.597 0 0 0-.319-1.15 11.63 11.63 0 0 0-5.912 3.897.6.6 0 0 0 .091.839.595.595 0 0 0 .838-.091m3.344 2.274c.484-.66 1.153-1.199 1.918-1.634s1.62-.762 2.452-1.005a.598.598 0 0 0-.334-1.146c-.897.262-1.835.618-2.706 1.113s-1.679 1.132-2.29 1.964a.597.597 0 0 0 .96.708m2.685 2.545c.679-.707 1.34-1.386 2.081-1.901.738-.515 1.575-.865 2.395-.882a.597.597 0 0 0-.026-1.193c-1.138.027-2.18.489-3.05 1.095-.867.605-1.577 1.346-2.258 2.051a.597.597 0 1 0 .858.83" fill="#fff"/><path d="M208.313 182.716c.206-1.064 1.033-1.973 2.037-2.438.68-.316 1.435-.451 2.199-.451q.552.002 1.099.087c.856.133 1.704.406 2.591.581.454.089.925.15 1.397.15.45 0 .901-.056 1.337-.199.896-.298 1.707-1.015 1.897-1.981q.041-.224.041-.441c-.004-.984-.576-1.867-1.013-2.676-.311-.569-.566-1.244-.565-1.839.001-.356.087-.679.296-.96l-.317-.238c-.27.358-.377.777-.376 1.198.002.705.285 1.426.613 2.029.453.824.969 1.666.965 2.486q0 .182-.035.366c-.145.78-.841 1.419-1.631 1.678a3.9 3.9 0 0 1-1.212.179c-.437 0-.884-.057-1.321-.143-.856-.167-1.709-.442-2.607-.583a7.6 7.6 0 0 0-1.159-.092c-.811 0-1.623.142-2.366.488-1.102.513-2.019 1.505-2.26 2.723z" fill="#040606"/><path d="M185.448 161.679c1.127.249 2.328.377 3.546.377 2.682-.001 5.45-.621 7.691-1.964 2.24-1.341 3.953-3.42 4.48-6.303l-.39-.072c-.508 2.762-2.131 4.734-4.294 6.033-2.163 1.298-4.866 1.908-7.487 1.908-1.19 0-2.363-.126-3.46-.368z" fill="#FEE75A"/><path d="M138.526 124.753s-1.205-1.473-2.51-3.06c-1.306-1.587-2.709-3.285-3.114-3.746-.427-.484-1.273-1.122-2.024-1.654-.749-.53-1.396-.944-1.397-.945l-.214.335c0 .001.159.103.412.271.38.252.969.653 1.535 1.073.565.42 1.112.865 1.39 1.183.394.448 1.801 2.151 3.105 3.736l1.744 2.125.766.934zm11.977-15.027c3.867 1.969 8 3.412 12.251 4.279l.079-.39a48 48 0 0 1-12.15-4.244zm6.87 5.682a78 78 0 0 0 7.784 1.711l.065-.393a77 77 0 0 1-7.744-1.702z" fill="#040606"/><path d="M135.121 120.855a164 164 0 0 1-15.799-.035l-.02.398a166 166 0 0 0 15.837.035zm-14.227 4.44a39.6 39.6 0 0 0 11.422-2.152l-.13-.376a39.2 39.2 0 0 1-11.307 2.13zm49.649 22.612a20.5 20.5 0 0 0 6.126.612l-.02-.397q-.514.026-1.027.026c-1.678 0-3.355-.211-4.98-.627zm10.89-2.715a11.6 11.6 0 0 0 .559-3.826l-.397.009q.003.13.002.26c0 1.163-.183 2.327-.542 3.434zm-67.357-9.464c-1.005.857-2.046 1.427-3.194 2.143l.21.338c1.135-.709 2.198-1.29 3.241-2.179z" fill="#040606"/><path d="m119.976 49.078-1.611 8.298s4.419 3.985 8.559 3.299 5.94-2.239 5.94-2.239l-1.044-5.166" fill="#F35C57"/><path d="M120.249 45.257c-.629-2.524-.564-5.837 1.097-7.867 1.611-1.969 4.972-2.389 7.414-2.879 2.087-.42 4.34-.219 5.943 1.32.996.956 1.393 2.41 1.584 3.742.45 3.13.922 6.346.911 9.515-.008 2.134-.637 4.242-2.551 5.39-3.282 1.968-7.039.467-9.606-1.892-2.08-1.911-4.093-4.526-4.792-7.329" fill="#F35C57"/><path d="M132.791 43.058c.003.011.279 2.44 1.189 4.256.108.214.176.455.176.67a.74.74 0 0 1-.232.567c-.145.136-.403.242-.7.303a4.6 4.6 0 0 1-.925.087q-.189-.001-.348-.01l-.025.396q.17.011.373.012a5 5 0 0 0 1.007-.095c.335-.072.653-.187.887-.4.257-.235.362-.553.36-.86 0-.296-.088-.59-.218-.85-.432-.858-.723-1.893-.902-2.71a17 17 0 0 1-.191-1.014q-.03-.189-.044-.294l-.013-.103z" fill="#040606"/><path d="m129.421 49.736 3.334.866s-.674 1.256-1.784 1.114-1.658-.78-1.55-1.98" fill="#fff"/><path d="M132.414 55.16q-.615.066-1.187.067c-.947 0-1.826-.148-2.752-.552-1.28-.56-2.457-1.363-3.485-2.314l-.269.293c1.057.977 2.27 1.806 3.595 2.385.978.429 1.922.586 2.911.586.399 0 .807-.026 1.227-.069z" fill="#040606"/><path d="M127.533 37.809c.595-.08 8.601-1.012 9.411-.737.809.276 3.024 1.72 3.324 3 .3 1.277-.943 3.746-2.369 4.711s-8.817 2.923-9.748 2.681c-.624-.162-2.327.14-3.124-1.766-.587-1.405-.546-3.535-.534-4.714.021-2.274 1.134-2.921 3.04-3.175" fill="#0B0D12"/><path d="M129.341 39.104c.595-.08 8.601-1.013 9.411-.737s1.49 1.278 1.79 2.557.591 4.188-.835 5.154c-1.426.965-10.624 1.628-11.555 1.386-1.265-.328-1.874-2.86-1.852-5.185.022-2.275 1.135-2.922 3.041-3.176" fill="#3C3958"/><path d="M138.804 45.197c.18-.063.243-.101.245-.103.638-.431.693-2.402.342-3.9-.238-1.015-.703-1.555-.973-1.687-1.072-.11-7.502.58-8.922.77a5.3 5.3 0 0 0-1.022.22c-.554.193-.979.447-.992 1.793-.023 2.337.546 3.611 1.2 4s7.974-.347 10.122-1.093" fill="#95DBC8"/><mask id="c" style="mask-type:luminance" maskUnits="userSpaceOnUse" x="127" y="39" width="13" height="8"><path d="M138.804 45.197c.18-.063.243-.101.245-.103.638-.431.693-2.402.342-3.9-.238-1.015-.703-1.555-.973-1.687-1.072-.11-7.502.58-8.922.77a5.3 5.3 0 0 0-1.022.22c-.554.193-.979.447-.992 1.793-.023 2.337.546 3.611 1.2 4s7.974-.347 10.122-1.093" fill="#fff"/></mask><g mask="url(#c)"><path d="M139.857 41.09c-.018-.041-.111-.2-.391-.337-.281-.137-.744-.259-1.522-.26q-.13 0-.272.006c-1.782.06-7.21.754-8.151.902-1.387.22-2.423.619-2.431.622l.142.371.044-.016a13 13 0 0 1 2.307-.584c.914-.144 6.372-.84 8.103-.898q.135-.004.258-.004c.737 0 1.14.117 1.347.219a.7.7 0 0 1 .185.125l.023.027.111-.062-.115.052.004.01.111-.062-.115.052z" fill="#040606"/></g><mask id="d" style="mask-type:luminance" maskUnits="userSpaceOnUse" x="136" y="39" width="100" height="63"><path d="M214.347 101.627a9.2 9.2 0 0 0-.989-3.207c-1.521-2.873-4.263-3.982-7.172-3.982-2.7 0-5.543.954-7.695 2.34-1.15.741-2.277 1.551-3.258 2.499-5.66-2.554-10.607-6.722-13.957-12.184-1.57-2.56-2.812-5.388-4.969-7.474-5.539-5.358-15.11-4.12-20.939-9.158-2.117-1.83-3.526-4.322-5.134-6.614-3.592-5.118-8.311-8.927-13.365-12.34.229-.765.326-1.59.329-2.419a36 36 0 0 0-.069-2.3c1.221-.206 2.189-.447 2.578-.71 1.426-.966 1.134-3.875.834-5.154a5.5 5.5 0 0 0-.274-.858 1.8 1.8 0 0 0-.144-.386l6.916.712c4.501.463 8.624 2.007 12.941 3.055.245.966.614 1.89 1.159 2.732 1.591 2.46 4.433 3.818 7.256 4.59 2.066.565 4.512.883 6.934.883 2.183 0 4.347-.258 6.196-.824 4.357-1.334 6.338-5.207 4.724-9.193 2.22-.333 4.444-.557 6.671-.557q.931 0 1.864.054c4.359.264 8.949 1.629 12.801 3.866 4.209 2.445 4.642 7.124 7.682 10.52 3.172 3.546 7.72 5.612 11.323 8.68 3.454 2.942 6.502 6.559 7.78 10.994 1.563 5.425.206 11.48-3.046 16.091-3.253 4.612-8.247 7.832-13.63 9.509a30 30 0 0 1-3.347.835" fill="#fff"/></mask><g mask="url(#d)"><path d="M136.869 101.627h99.064V39.681h-99.064z" fill="#B9C5E9"/></g><path d="M136.869 51.508a149 149 0 0 0-3.494-2.28c.31-.072.601-.185.819-.384a1.14 1.14 0 0 0 .36-.86 1.9 1.9 0 0 0-.205-.823c.975-.105 1.938-.23 2.78-.372q.072 1.151.069 2.3c-.002.828-.099 1.653-.329 2.42m-3.997-2.598q-1.15-.725-2.306-1.444c.99-.051 2.174-.14 3.361-.26l.054.108c.108.215.176.455.175.67a.74.74 0 0 1-.231.567c-.145.136-.403.242-.7.304a4 4 0 0 1-.353.055" fill="#F57A7A"/><path d="m133.374 49.229-.503-.319a4 4 0 0 0 .353-.056c.298-.061.555-.167.7-.303.165-.153.23-.342.232-.568a1.54 1.54 0 0 0-.176-.67l-.053-.108.421-.044c.123.253.205.536.205.822.002.307-.103.626-.36.861-.218.199-.509.312-.819.384" fill="#313234"/><path d="M140.267 40.066a5 5 0 0 0-.183-.39l.039.005q.097.194.144.385" fill="#41424C"/><path d="m130.566 47.466-1.884-1.176c.125.074.493.107 1.021.107.327 0 .715-.012 1.145-.036a45 45 0 0 0 1.864-.145 62 62 0 0 0 1.578-.174c1.293-.16 2.564-.36 3.514-.574.396-.089.737-.18 1-.272.152-.052.22-.087.24-.098l.005-.004c.365-.247.539-.997.555-1.873a8.5 8.5 0 0 0-.213-2.026c-.238-1.017-.703-1.556-.973-1.688l1.666.17q.098.185.183.39.167.4.274.857c.3 1.279.592 4.188-.834 5.154-.389.263-1.357.504-2.578.71a48 48 0 0 1-3.202.418c-1.187.12-2.371.209-3.361.26m-1.07-7.19c1.317-.175 6.943-.78 8.608-.78-1.664 0-7.291.605-8.608.78" fill="#686680"/><path d="M129.703 46.397c-.528 0-.896-.033-1.021-.107-.641-.382-1.2-1.614-1.201-3.864l.001-.12.253-.081 3.113 4.136c-.43.024-.818.036-1.145.036m3.009-.18-3.305-4.394.176-.029c.224-.035.721-.103 1.369-.188l3.338 4.436c-.529.066-1.062.124-1.578.174m5.092-.75-3.233-4.296c.49-.054.968-.104 1.408-.146l3.065 4.073c-.02.01-.088.046-.24.099a10 10 0 0 1-1 .27m1.8-2.246-1.752-2.329h.094c.736 0 1.138.117 1.345.219a1 1 0 0 1 .092.051 5 5 0 0 0-.152-.504c-.286-.093-.695-.164-1.287-.164a8 8 0 0 0-.385.009l-.717-.953a82 82 0 0 0-1.862.148l.718.955a96 96 0 0 0-1.405.148l-.731-.97c-1.444.141-2.845.296-3.65.393l.765 1.017c-.54.071-.953.128-1.156.16q-.196.03-.382.067l-.717-.952.052-.019c.265-.092.6-.164 1.022-.22 1.317-.176 6.944-.782 8.608-.782a4 4 0 0 1 .314.012c.27.132.735.672.973 1.688.15.64.226 1.37.213 2.026" fill="#ADE3D3"/><path d="m139.043 45.098-3.065-4.073a31 31 0 0 1 1.707-.129l.167-.004 1.752 2.329c-.017.877-.191 1.627-.555 1.873zm-3.345-4.445-.719-.955a85 85 0 0 1 1.863-.148l.717.953c-.459.02-1.116.076-1.861.15m-4.851 5.708-3.112-4.136c.391-.12.981-.282 1.671-.401l3.306 4.392c-.665.064-1.3.114-1.865.145m-3.346-4.48c.086-.958.453-1.196.921-1.365l.716.952c-.695.13-1.274.297-1.637.413m6.789 4.161-3.338-4.436c.996-.13 2.35-.296 3.618-.435l3.234 4.297c-.95.213-2.222.414-3.514.574m-3.613-4.801-.765-1.017c.804-.097 2.206-.252 3.65-.393l.73.97c-1.301.145-2.658.314-3.615.44" fill="#E9F7F2"/><path d="m127.481 42.306.001-.016q.002-.223.019-.409a14 14 0 0 1 2.02-.48c.203-.032.615-.09 1.156-.16.957-.126 2.314-.295 3.615-.44.484-.054.961-.105 1.406-.148a38 38 0 0 1 1.861-.15l.112-.005q.143-.004.272-.004c.592 0 1.002.07 1.287.164q.086.229.153.504a1 1 0 0 0-.093-.051c-.206-.102-.609-.22-1.344-.22h-.003l-.091.001q-.081 0-.167.004c-.402.014-1.006.061-1.707.129-.439.042-.917.092-1.408.146-1.268.14-2.622.306-3.619.435a66 66 0 0 0-1.368.188l-.177.03a13.6 13.6 0 0 0-1.925.482" fill="#313234"/><path d="m117.472 39.555 7.681-.434-.166 5.793s-5.51-1.387-7.688-2.786z" fill="#0B0D12"/><path d="M124.513 39.076a7.6 7.6 0 0 0-.499 2.713c0 .765.113 1.427.229 1.95.117.52.236.919.249 1.097l.396-.034c-.025-.266-.144-.638-.257-1.15a8.5 8.5 0 0 1-.22-1.863c0-.763.118-1.63.473-2.572z" fill="#58556E"/><path d="M123.524 47.349c-.713-1.058-1.65-2.063-2.004-3.154-.762-2.35-.468-4.089.318-5.565.956.205 1.934.377 2.908.294.953-.08 1.864-.402 2.781-.667 2.899-.84 5.621-1.656 8.598-1.056.33.067 2.128.341 2.166-.145.041-.517-.347-.879-.698-1.18-.5-.432-1.089-.759-1.7-1.011a12 12 0 0 0-.836-.305c-.888-1.109-2.044-2.447-3.535-3.059-2.348-.963-4.552-1.31-7.11-1-4.062.495-7.599 3.087-9.037 6.891-.86 2.277-1.296 4.909-.801 7.313.295 1.434.831 2.82 1.578 4.083.331.559.706 1.098 1.171 1.554 1.301 1.276 2.954 2.428 4.893 1.953.999-.244 1.907-.994 2.131-1.988.245-1.085-.204-2.041-.823-2.958" fill="#FEE75A"/><path d="M122.742 38.189c2.785-2.309 6.372-3.61 9.892-3.608q.454 0 .904.029l.026-.398q-.465-.03-.93-.03c-3.618.001-7.288 1.333-10.146 3.7z" fill="#CC4E1F"/><path d="M117.371 45.597c.256.308.591.538.922.763.751.513 1.528 1.038 2.418 1.227.364.077.82.058 1.013-.26.115-.19.097-.439-.001-.638-.098-.198-.264-.355-.44-.49-.893-.683-2.063-.906-2.991-1.541-.215-.147-.424-.32-.678-.377-.956-.216-.565.93-.243 1.316" fill="#F7911E"/><path d="M116.91 44.545c.173.436.529.727.86.968 1.115.81 2.407 1.574 3.791 1.854l.078-.39c-1.291-.26-2.544-.992-3.636-1.786-.318-.229-.604-.483-.723-.792z" fill="#CC4E1F"/><path d="M117.278 48.862c.256.307.591.537.922.762.751.514 1.528 1.038 2.418 1.227.364.078.82.059 1.013-.26.115-.19.097-.438-.001-.637s-.264-.355-.44-.49c-.893-.684-2.063-.906-2.991-1.542-.215-.147-.424-.32-.678-.377-.956-.216-.565.93-.243 1.317" fill="#F7911E"/><path d="M116.817 47.809c.173.436.53.728.86.969a9.4 9.4 0 0 0 3.796 1.667l.079-.39a9 9 0 0 1-3.642-1.6c-.317-.228-.604-.482-.723-.79z" fill="#CC4E1F"/><path d="M203.327 65.922c-.101 3.531-3.041 6.312-6.566 6.211s-6.302-3.046-6.201-6.577c.101-3.53 3.041-6.312 6.566-6.21 3.525.1 6.302 3.045 6.201 6.576" fill="#fff"/><path d="M190.874 63.732c1.094.122 2.265.511 3.051 1.26.764.724 1.27 1.708 1.526 2.738.171.69.265 1.397.265 2.1 0 .698-.092 1.392-.294 2.066l.381.114a7.6 7.6 0 0 0 .311-2.18c0-.739-.099-1.477-.278-2.196-.271-1.09-.807-2.143-1.637-2.931-.882-.834-2.129-1.236-3.28-1.367z" fill="#C2393C"/><path d="M191.696 64.674c.195-.216.454-.34.668-.405.106-.034.2-.052.266-.063l.077-.01.018-.002h.004l.289-.016-.119-.265-.008-.017c-.038-.089-.199-.509-.198-.908q0-.102.014-.199l-.393-.059a2 2 0 0 0-.018.258c.002.569.237 1.076.241 1.09l.181-.083-.011-.198a2 2 0 0 0-.461.092 1.9 1.9 0 0 0-.845.518z" fill="#C2393C"/><path d="M192.741 65.277a1.5 1.5 0 0 1 .667-.406 2 2 0 0 1 .267-.062l.076-.01.019-.002h.004l.289-.017-.12-.264-.007-.017c-.038-.09-.2-.509-.198-.909q0-.101.014-.198l-.393-.059a2 2 0 0 0-.018.257c.002.57.236 1.077.24 1.09l.182-.082-.011-.198c-.012 0-.204.011-.461.091s-.582.23-.845.519z" fill="#C2393C"/><path d="M193.517 65.858c.347-.293.828-.334 1.015-.332l.059.001h.016l.288.025-.081-.278-.003-.011a3 3 0 0 1-.088-.672c0-.154.017-.314.059-.457l-.381-.113a2 2 0 0 0-.075.57c.001.431.104.784.107.794l.191-.055.016-.199-.108-.003c-.23.001-.797.035-1.269.424z" fill="#C2393C"/><path d="M193.924 66.5a1.4 1.4 0 0 1 .627-.135 2 2 0 0 1 .478.062l.027.008.006.002.261.087v-.277c0-.013.001-.22.037-.478.034-.259.107-.57.23-.778l-.344-.2c-.167.29-.24.638-.28.924a4 4 0 0 0-.04.532v.001h.199l.063-.188c-.013-.004-.275-.093-.637-.093-.238 0-.522.039-.801.175z" fill="#C2393C"/><path d="M194.318 67.431q.18-.046.347-.044a1.66 1.66 0 0 1 .744.181l.043.024.01.005.001.001.236.146.062-.271.007-.027c.033-.136.214-.74.555-1.099l-.289-.273c-.489.529-.654 1.296-.66 1.31l.194.044.104-.17c-.017-.008-.432-.267-1.007-.27q-.214-.002-.449.059zm.336 1.072c.31.017.571.145.756.273.092.063.164.126.212.172l.054.054.012.014.003.002.178.212.143-.238.015-.024c.074-.118.434-.636.87-.87l-.191-.35c-.628.35-1.023 1.027-1.034 1.04l.17.102.152-.129c-.008-.009-.134-.157-.359-.313a1.9 1.9 0 0 0-.959-.342z" fill="#C2393C"/><path d="M194.805 69.624c.303.065.541.232.704.386.081.077.143.15.184.203l.044.062.011.015.002.003.144.237.177-.213.019-.021c.091-.106.526-.562.993-.727l-.135-.374c-.675.248-1.169.857-1.181.867l.152.128.169-.104a2 2 0 0 0-.306-.364 1.9 1.9 0 0 0-.895-.487z" fill="#C2393C"/><path d="M194.768 70.62c.293.102.509.296.652.47a2 2 0 0 1 .157.224l.037.066.009.017.001.003.115.253.202-.19.021-.019c.102-.094.59-.493 1.074-.6l-.089-.388c-.699.164-1.264.708-1.278.717l.136.145.181-.082c-.011-.018-.318-.719-1.089-.992zm2.212-11.318a7 7 0 0 0-.259 1.831c0 .59.088 1.18.304 1.727.422 1.065 1.198 1.956 2.106 2.614 1.195.863 2.58 1.462 4.069 1.597l.035-.396c-1.404-.127-2.723-.694-3.871-1.524-.858-.621-1.583-1.458-1.969-2.438a4.3 4.3 0 0 1-.277-1.58c0-.584.094-1.178.245-1.725z" fill="#C2393C"/><path d="M197.792 60.149a1.9 1.9 0 0 0-.794.592c-.17.21-.252.384-.257.394l.18.085.143-.138a3 3 0 0 0-.343-.297 2.3 2.3 0 0 0-.822-.411l-.091.387c.244.057.493.206.675.343.092.068.167.133.218.18l.059.055.014.015.004.003.201.21.122-.263.002-.004c.023-.054.315-.593.828-.778z" fill="#C2393C"/><path d="M197.962 61.345a1.9 1.9 0 0 0-.794.592c-.17.21-.252.384-.257.395l.18.084.143-.138c-.005-.005-.135-.141-.343-.297a2.3 2.3 0 0 0-.822-.411l-.091.387c.244.057.493.206.675.343.092.069.166.133.218.18l.059.055.014.015.004.004.2.209.123-.263.002-.003c.023-.055.315-.594.827-.779z" fill="#C2393C"/><path d="M198.16 62.306a1.9 1.9 0 0 0-.703.698 2 2 0 0 0-.199.426l.19.059.123-.157a3 3 0 0 0-.382-.245 2.3 2.3 0 0 0-.871-.292l-.037.396c.251.022.518.135.717.244.101.055.184.109.241.148l.066.046.016.013.004.003.229.179.084-.277.001-.004c.016-.058.229-.633.711-.888z" fill="#C2393C"/><path d="M198.526 62.98a1.9 1.9 0 0 0-.519.844c-.081.257-.092.45-.093.461l.198.011.075-.184c-.012-.003-.627-.259-1.227-.262q-.122 0-.243.017l.057.394q.088-.013.186-.013c.242 0 .517.057.726.117.105.029.195.059.257.08l.071.027.024.01.257.103.015-.277.001-.004c.002-.028.019-.197.088-.402s.19-.445.393-.628z" fill="#C2393C"/><path d="M199.191 63.748c-.311.42-.363.884-.364 1.163 0 .16.018.261.019.27l.196-.034.031-.196a3.4 3.4 0 0 0-.493-.033c-.277 0-.633.03-.967.159l.145.37a2.3 2.3 0 0 1 .822-.131 3 3 0 0 1 .402.024l.029.004.273.043-.046-.273-.002-.01c-.003-.025-.012-.096-.012-.193 0-.23.047-.607.285-.924zm.809.822c-.066.198-.091.39-.091.567.002.513.201.886.209.902l.175-.093-.032-.196c-.014.005-.789.12-1.347.575l.253.307c.216-.18.51-.307.747-.384a3 3 0 0 1 .297-.082q.056-.013.086-.018l.028-.005.274-.045-.13-.245-.001-.001a1.7 1.7 0 0 1-.161-.715c0-.14.019-.288.07-.44z" fill="#C2393C"/><path d="M200.969 65.187q-.025.151-.025.293c.003.66.356 1.123.367 1.14l.159-.119-.062-.189c-.014.008-.761.241-1.243.776l.297.265c.187-.212.457-.382.68-.495a4 4 0 0 1 .281-.127l.081-.03.027-.01.264-.086-.166-.223-.001-.002a1.7 1.7 0 0 1-.286-.9q-.001-.11.019-.225z" fill="#C2393C"/><path d="m201.901 65.572-.002.083c.005.772.503 1.28.515 1.298l.144-.138-.084-.18c-.013.01-.727.332-1.14.921l.327.227c.159-.233.407-.435.614-.574.104-.07.197-.124.264-.16l.077-.04.026-.013.251-.118-.192-.2-.002-.003c-.038-.037-.407-.47-.403-1.02l.002-.064z" fill="#C2393C"/><path d="m208.656 63.538-6.699-.193-.034 1.194 6.699.192m1.702 2.179-3.171-.09-.034 1.193 3.17.09m-1.73 4.99-5.928-.17-.034 1.194 5.928.17m5.47 2.711-4.696-.135-.034 1.194 4.697.134" fill="#fff"/><path d="m216.047 76.086-3.421-.097-.034 1.193 3.42.098M199.9 69.85l5.633.162.034-1.194-5.633-.162" fill="#fff"/><path d="m199.254 69.831 3.102.09.034-1.194-3.102-.09" fill="#A5B5E2"/><path d="M104.66 80.644c-3.362 2.778-7.626 6.528-12.347 5.21-1.763-.492-4.895-2.827-6.072-4.231-5.36-6.394-7.853-14.642-11.645-22.077 2.569-1.447 5.105-3.183 7.73-4.484 3.452 4.942 7.06 9.922 10.772 14.714 3.115-1.44 6.013-2.845 9.216-4.075" fill="#F14E4D"/><path d="M92.927 69.877c.905 1.535 1.424 3.638 1.726 5.812.304 2.175.395 4.418.465 6.244l.397-.015c-.07-1.827-.161-4.084-.468-6.284s-.829-4.345-1.778-5.959z" fill="#040606"/><path d="M87.1 60.717a6.8 6.8 0 0 1-.495-2.265c-.043-1.075.048-2.154-.048-3.226-.22-2.478-1.554-5.054-3.393-6.724-.474-.43-1.01-.814-1.626-.99-.615-.175-1.322-.117-1.831.272-.572.435-.794 1.178-1.158 1.799-.931 1.594-2.776 2.368-4.182 3.564-.178.152-.357.321-.437.542-.113.317 0 .665.102.986a15.8 15.8 0 0 1 .743 4.768c0 1.339-.158 2.74.39 3.96.336.748.91 1.358 1.402 2.012a11 11 0 0 1 2.045 4.721c.033.191.071.4.221.523.156.126.378.115.577.094a19.1 19.1 0 0 0 6.536-1.917c1.845-.926 3.13-1.939 3.917-3.849-1.041-1.378-2.143-2.718-2.763-4.27" fill="#F2CFCF"/><path d="M68.522 68.205c-.829.704-2.336.29-3.366-.925-1.029-1.215-1.192-2.77-.364-3.476.83-.704 2.336-.29 3.366.924 1.03 1.216 1.193 2.772.364 3.477" fill="#F68540"/><path d="M93.755 39.176 64.167 65.528c-.705 1.31-.421 2.892.609 3.769.825.703 2.025.864 3.088.427L97.42 43.348z" fill="#3D1466" stroke="#3D1466" stroke-width=".681" stroke-miterlimit="10"/><path d="m98.625 46.355-7.022-8.448 37.466-31.459c.693.118 3.276.645 5.288 3.029 2.004 2.376 2.105 5.015 2.11 5.724z" fill="#EEC255" stroke="#EEC255" stroke-width=".584" stroke-miterlimit="10"/><path d="m97.82 43.68 14.584-11.846-3.671-4.64-14.681 11.784z" fill="#F0E3E4" stroke="#F0E3E4" stroke-width=".584" stroke-miterlimit="10"/><path d="M72.105 55.225a16 16 0 0 1 1.48-3.17c.239-.393.51-.789.908-1.019s.956-.244 1.276.086c.152-.551.31-1.118.657-1.572.346-.454.93-.775 1.485-.643a3.8 3.8 0 0 1 1.15-1.48c.161-.126.34-.242.542-.279.462-.084.886.25 1.228.573 1.602 1.509 3.081 3.416 3.12 5.618.008.423-.053.88-.338 1.192s-.858.38-1.11.04c.107.683.094 1.435-.305 2-.399.564-1.291.808-1.798.337-.147.46.168 1.042-.143 1.412-.142.167-.371.228-.589.257-.49.066-.996.014-1.464-.15.164.058.073 1.531-.01 1.713-.326.713-1.322.608-1.968.503a4.04 4.04 0 0 1-2.008-.963c-.991-.877-1.56-2.155-1.822-3.454" fill="#F2CFCF"/><path d="M80.26 47.627a5.53 5.53 0 0 1 2.595 2.57l.358-.173a5.92 5.92 0 0 0-2.784-2.757zm-2.42 1.659c1.703.776 2.756 2.549 3.706 4.261l.772 1.388.347-.194-.772-1.388c-.955-1.71-2.031-3.574-3.887-4.429zm-2.184 2.174a12.3 12.3 0 0 1 2.756 2.534c.871 1.087 1.557 2.376 1.576 3.727v.042c0 .155-.017.289-.071.382a.46.46 0 0 1-.262.205 1.3 1.3 0 0 1-.442.063q-.156-.001-.309-.016l-.733-.071-.038.396.733.07q.166.018.347.019c.192 0 .39-.02.577-.086a.86.86 0 0 0 .473-.385c.108-.195.121-.4.122-.577v-.047c-.023-1.486-.763-2.845-1.663-3.971a12.7 12.7 0 0 0-2.845-2.615z" fill="#040606"/><path d="M73.308 53.958c1.997.823 3.846 2.259 4.571 4.248.108.294.182.622.182.924 0 .33-.084.618-.285.835-.276.304-.76.404-1.244.403h-.046c-.284-.004-.581-.031-.887-.031-.235 0-.475.016-.716.077l.097.386a2.5 2.5 0 0 1 .619-.065c.281 0 .577.026.882.03h.051c.527 0 1.127-.095 1.535-.53.288-.31.392-.71.391-1.105 0-.365-.086-.733-.206-1.061-.785-2.14-2.732-3.628-4.793-4.48z" fill="#040606"/><path d="M72.702 58.019c1.302.455 2.624.861 3.847 1.449l.173-.359c-1.26-.605-2.597-1.013-3.89-1.466zm7.388-.867c.33.07.675.144 1.038.144q.071.001.142-.004c.417-.025.857-.172 1.155-.514l-.301-.26c-.199.233-.535.358-.876.377l-.12.003c-.306 0-.626-.065-.955-.135z" fill="#040606"/><path d="M86.047 55.2s-.616-2.197-1.502-3.523c-.428-.642-2.997-3.809-3.374-1.807-.175.934.063 1.9.42 2.78.22.541.487 1.073.573 1.65.26 1.736-1.151 3.363-1.018 5.113.02.26.09.542.303.69" fill="#F2CFCF"/><path d="M86.238 55.146c-.001-.003-.156-.557-.424-1.28-.268-.722-.646-1.612-1.104-2.3a11.6 11.6 0 0 0-1.213-1.444 6.4 6.4 0 0 0-.874-.755c-.295-.202-.584-.348-.881-.35a.67.67 0 0 0-.5.214c-.134.145-.217.345-.266.602q-.064.345-.063.69c0 .761.213 1.512.493 2.202.225.551.482 1.07.561 1.605q.03.205.03.409c.001.7-.252 1.41-.518 2.144-.263.733-.54 1.489-.541 2.293q-.001.125.01.252c.01.142.034.295.09.443a.84.84 0 0 0 .297.396l.227-.327a.44.44 0 0 1-.152-.212 1.2 1.2 0 0 1-.067-.33 3 3 0 0 1-.008-.222c-.001-.71.252-1.424.518-2.157.264-.733.54-1.484.542-2.28q0-.231-.035-.468c-.094-.62-.371-1.164-.585-1.695-.27-.663-.465-1.367-.465-2.054q0-.31.056-.615c.04-.213.105-.34.166-.405a.26.26 0 0 1 .21-.088c.15-.003.394.097.656.28.795.544 1.753 1.747 1.982 2.093.427.64.8 1.51 1.062 2.218a19 19 0 0 1 .413 1.249z" fill="#040606"/><path d="M118.39 56.497c-5.695-.163-9.167-.076-12.709 3.06-3.541 3.138-6.82 6.723-11.066 8.803 2.832 2.6 3.268 6.854 5.048 10.265a13.9 13.9 0 0 0 5.6 5.723 93.6 93.6 0 0 0 11.316-7.384" fill="#95DBC8"/><path d="M154.024 90.21c-1.622-1.443-2.195-2.007-4.307-6.433-1.633-3.424-2.929-12.319-6.703-19.934-.912-1.07-7.271-4.257-10.149-5.407-1.901 1.67-5.569 2.142-8.796 1.472s-4.703-1.594-5.678-3.41l-14.56 10.587c1.662 2.881 3.327 5.768 4.707 8.796 1.694 3.716 2.511 5.958 3.917 9.786 1.34 3.65 3.095 7.147 3.647 11.046.186 1.32.055 3.313.643 4.507 1.073 2.178 4.605 1.7 6.517 1.524 1.6-.147 3.219.282 4.821.348a27.6 27.6 0 0 0 5.514-.328c3.583-.577 6.693-2.135 10.061-3.362 9.495-3.458 13.564-7.111 10.366-9.192" fill="#95DBC8"/><path d="M116.624 57.844c.519.378 1.02.811 1.565 1.221a14.94 14.94 0 0 0 8.901 2.977c2.914 0 5.818-.877 8.243-2.496l-.44-.662a14.15 14.15 0 0 1-8.186 2.357 14.15 14.15 0 0 1-8.041-2.812c-.516-.388-1.02-.825-1.574-1.229z" fill="#fff"/><path d="M117.257 64.454s-9.077 2.125-10.652 1.879c-7.602-1.185-16.295-2.893-23.657-5.128l-4.115 8.85s17.842 9.031 26.863 10.753c11.637 2.222 25.237-3.497 25.237-3.497" fill="#F35C57"/><path d="M84.383 60.487c-.38-.427-1.336-2.045-1.707-2.78-.337-.67-.657-1.352-1.073-1.976-.305-.457-.66-.879-1.013-1.3-.166-.198-.335-.398-.544-.55-.223-.161-.484-.26-.743-.356a32 32 0 0 0-5.261-1.433c-.296-.054-.604-.104-.894-.02-.523.15-.838.688-.99 1.212-.242.834-.86 1.084-1.573 1.532-.554.349-1.095.908-1.011 1.558.038.29.193.614.023.854-.105.148-.298.198-.466.27a1.52 1.52 0 0 0-.874 1.6c.047.28.175.552.155.836-.06.811-1.074 1.461-.468 2.333.246.355.718.445 1.133.56 1.617.443 2.935 1.624 4.083 2.793 1.251 1.273 2.396 2.65 3.708 3.863.813.753 1.609 1.042 2.766 1.32 1.491.358 2.717 1.192 4.016 2.01 0 0 1.441-5.002 4.079-10.564-1.195-.5-2.695-1.032-3.346-1.762" fill="#fff"/><path d="M68.482 60.377q.22-.055.446-.055c.534 0 1.094.226 1.562.551.603.419 1.106.999 1.673 1.537 1.556 1.472 3.463 2.47 5.317 3.461 1.077.573 2.17 1.206 2.687 2.222.137.266.267.71.357 1.185a8 8 0 0 1 .144 1.408c0 .188-.01.356-.032.489l.392.063q.038-.246.038-.552c0-.45-.057-.982-.151-1.482-.096-.5-.227-.965-.394-1.292-.597-1.16-1.776-1.814-2.854-2.392-1.856-.991-3.73-1.977-5.23-3.4-.55-.518-1.063-1.116-1.721-1.574-.517-.358-1.143-.62-1.788-.621a2.2 2.2 0 0 0-.545.067z" fill="#F2CFCF"/><path d="M69.513 57.527c1.444.177 2.905.37 4.126 1.063l.196-.346c-1.314-.742-2.829-.932-4.274-1.112zm2.423-3.277q.051-.037.182-.037l.1.004a8.8 8.8 0 0 1 3.495.95l.18-.355a9.2 9.2 0 0 0-3.775-.997.7.7 0 0 0-.395.098z" fill="#040606"/><path d="M77.034 52.988c.568.356 1.02 1.004 1.39 1.74s.66 1.552.932 2.237c.355.893.779 1.76 1.265 2.589.513.874 1.122 1.745 1.994 2.333a3 3 0 0 0 1.627.487c.637.002 1.298-.233 1.705-.843l-.33-.221c-.32.476-.825.663-1.375.666a2.6 2.6 0 0 1-1.406-.42c-.79-.53-1.372-1.348-1.873-2.203q-.714-1.221-1.238-2.535c-.269-.674-.561-1.503-.947-2.269-.387-.765-.865-1.474-1.532-1.898z" fill="#F2CFCF"/><path d="M68.3 60.375h.074c1.717 0 3.434.456 4.925 1.31l.197-.346a10.4 10.4 0 0 0-5.122-1.362h-.077z" fill="#040606"/><path d="M82.645 72.182a64.4 64.4 0 0 1 4.264-10.25l-.352-.184a65 65 0 0 0-4.29 10.313z" fill="#F2CFCF"/><path d="M138.799 75.438c-5.64 2.726-7.989 4.166-14.002 5.918-3.753-1.508-4.948-2.814-7.344-4.838-2.39-2.019-4.026-5.905-5.085-8.851-.291-.81-.385-1.653-.926-2.321 4.204-1.126 8.053-3.26 12.002-5.09s8.167-3.394 12.515-3.255c4.09.131 6.847 4.696 7.997 8.63.676 2.316.676 4.766.943 7.165" fill="#95DBC8"/><path d="M112.732 65.016c.382.988.864 2.34 1.39 3.677.528 1.338 1.097 2.658 1.675 3.61 1.287 2.118 2.592 3.723 4.167 5.125 1.575 1.401 3.411 2.597 5.763 3.924l.39-.694c-2.33-1.313-4.114-2.48-5.625-3.825-1.512-1.347-2.759-2.877-4.017-4.944-.531-.872-1.094-2.168-1.614-3.488s-1-2.668-1.387-3.672z" fill="#5B50AC"/><path d="M114.181 64.575c.381.989.863 2.341 1.389 3.678.528 1.338 1.096 2.657 1.675 3.61 1.292 2.126 2.685 3.704 4.341 5.072 1.655 1.37 3.568 2.53 5.914 3.854l.39-.693c-2.335-1.317-4.206-2.457-5.798-3.775-1.593-1.318-2.915-2.814-4.168-4.873-.532-.872-1.095-2.168-1.614-3.487-.521-1.321-1.001-2.669-1.388-3.673z" fill="#5B50AC"/><path d="M113.557 64.768c.381.99.863 2.342 1.389 3.678.528 1.338 1.096 2.657 1.675 3.61 1.287 2.118 2.592 3.723 4.167 5.124 1.575 1.403 3.411 2.598 5.763 3.925l.39-.694c-2.329-1.313-4.113-2.48-5.625-3.826s-2.759-2.875-4.016-4.943c-.532-.873-1.096-2.168-1.614-3.488-.521-1.321-1.001-2.668-1.388-3.672z" fill="#fff"/><path d="M138.713 75.259c-5.65 2.73-7.975 4.158-13.971 5.906l.111.382c6.03-1.757 8.402-3.209 14.033-5.93zm13.905 14.728c-4.04 1.63-8.943 1.941-13.289 1.972l-.392.002a53.8 53.8 0 0 1-13.874-1.816l-.102.385a54.2 54.2 0 0 0 14.371 1.827c4.363-.032 9.307-.339 13.434-2zm-17.745-2.717c3.833.91 9.212 1.953 13.496 1.987l.003-.398c-4.225-.033-9.591-1.069-13.407-1.977zm-23.188-21.798a46.4 46.4 0 0 0 12.488-5.394l-.209-.339a46 46 0 0 1-12.381 5.348zm32.731 33.693a72 72 0 0 1 6.839-4.114l-.185-.352a72 72 0 0 0-6.878 4.137z" fill="#040606"/><path d="M167.367 44.4c-1.653 0-3.303-.126-4.951-.429a44 44 0 0 1-2.435-.524c-.399-1.575-.469-3.265-.436-4.9.016-.779.056-1.576.358-2.294.352-.837 1.031-1.492 1.742-2.057 2.502-1.987 5.03-3.053 7.694-3.053 1.694 0 3.443.431 5.274 1.329 3.545 1.738 8.821 4.366 10.931 7.78q.426.69.705 1.383c-2.05.306-4.098.705-6.142 1.104-4.26.83-8.506 1.661-12.74 1.661" fill="#B9C5E9"/><path d="M175.329 51.652c-2.422 0-4.868-.318-6.934-.883-2.823-.772-5.665-2.13-7.256-4.59-.545-.842-.914-1.765-1.159-2.732a43 43 0 0 0 2.436.524 27.3 27.3 0 0 0 4.951.43c4.233 0 8.48-.831 12.74-1.662 2.044-.399 4.092-.797 6.142-1.104 1.614 3.987-.367 7.86-4.724 9.193-1.849.566-4.013.824-6.196.824" fill="#CBD3EF"/><path d="M202.88 112.96c-1.33 0-2.659-.164-3.948-.495-2.836-.728-5.673-2.519-6.47-5.342-.583-2.063.052-4.329 1.269-6.093.439-.637.948-1.217 1.502-1.753a32.5 32.5 0 0 0 13.339 2.891 31 31 0 0 0 5.775-.541c.502 4.238-1.784 8.792-5.852 10.321a16 16 0 0 1-5.615 1.012" fill="#B9C5E9"/><path d="M208.572 102.168a32.5 32.5 0 0 1-13.339-2.891c.981-.948 2.108-1.758 3.258-2.499 2.152-1.386 4.995-2.34 7.695-2.34 2.909 0 5.651 1.11 7.172 3.982a9.2 9.2 0 0 1 .989 3.207 31 31 0 0 1-5.775.541" fill="#CBD3EF"/></g><defs><clipPath id="a"><path fill="#fff" d="M0 0h298v199H0z"/></clipPath></defs></svg>