<svg width="263" height="196" viewBox="0 0 263 196" fill="none" xmlns="http://www.w3.org/2000/svg"><path d="M140.987 179.599c-3.367 5.718-9.744 8.976-16.377 8.784-3.421-.1-8.991-.23-13.921-.201-11.77.069-18.792-18.127-3.558-21.067 13.375-2.582 11.114-6.405 16.74-9.009 7.735-3.581 16.991.936 19.007 9.219.982 4.035.376 8.008-1.372 11.334l-.042.079q-.229.438-.477.861" fill="#EDF6F7"/><path d="M42.702 142.257c-21.618-23.256-20.906-61.774-.594-86.18 12.447-14.956 30.05-22.697 47.828-23.065 7.98-.165 15.684-3.617 20.26-10.156 6.286-8.984 13.433-19.463 27.96-21.464 16.349-2.251 30.54 8.765 37.013 21.215 6.124 11.775 13.622 14.448 22.239 19.415a64.2 64.2 0 0 1 15.527 12.552c21.646 23.88 22.189 59.393 1.37 83.998-16.873 19.942-45.511 32.665-66.243 20.266-18.068-10.806-25.48-7.56-40.339-.214-21.567 10.663-45.587 4.539-65.02-16.367" fill="#EDF6F7"/><path d="M93.345 28.616c7.902 0 14.308-6.406 14.308-14.308S101.247 0 93.345 0 79.037 6.406 79.037 14.308s6.406 14.308 14.308 14.308" fill="#EDF6F7"/><path d="M79.662 106.3s-10.64-26.677-13.11-32.928c-3.077-7.787-9.439-17.738-5.497-19.982 4.45-2.534 5.967 8.72 9.014 19.737 1.27 4.593 11.061 32.221 11.14 32.453.193.574-1.246 1.477-1.547.72" fill="#F07D18"/><path d="M76.918 102.256c-.056.116-5.897 3.702-7.118 3.458s.83-4.446.953-4.519 2.662-1.794 2.662-1.794 4.269 1.254 3.502 2.855" fill="#FFB9A0"/><path d="M75.053 102.221c-.092-.082-2.224-2.536-1.906-5.027.317-2.492 1.124-3.792 1.454-4.93.15-.515 1.062-.535 1.136-.07.054.345.073 2.136.073 2.136l2.247-.732 1.295 6.791s-2.883 3.102-4.3 1.832" fill="#FFE5CF"/><path opacity=".5" d="M75.053 102.221c-.092-.082-2.224-2.536-1.906-5.027.317-2.492 1.124-3.792 1.454-4.93.15-.515 1.062-.535 1.136-.07.054.345.073 2.136.073 2.136l2.247-.732 1.295 6.791s-2.883 3.102-4.3 1.832" fill="#FFB9A0"/><path d="M77.512 97.865s-.928.44-1.108.847.228.814.814.765 2.069-.39 2.638-.586c.57-.196.31-1.287-.244-1.336-.553-.048-1.726.212-2.1.31" fill="#FFE5CF"/><path d="M76.197 97.166s-.883.558-.968.994c-.085.437.403.744.963.567.562-.177 2.745-.86 3.258-1.178.513-.316.006-1.396-.55-1.398-.855-.004-2.197.698-2.703 1.014" fill="#FFE5CF"/><path d="M75.905 95.675s-.9.565-.987 1.006c-.088.44.407.75.978.57.572-.179 2.795-.874 3.317-1.194s.039-1.49-.527-1.491c-.869-.002-2.266.79-2.781 1.11" fill="#FFE5CF"/><path d="M75.587 94.262s-.7.52-.748.963.465.706 1.013.48 2.26-.854 2.749-1.215c.487-.36-.089-1.472-.646-1.425-.859.071-1.888.838-2.368 1.197" fill="#FFE5CF"/><path d="M2.883 182.439s-1.29 1.112-2.076 2.314.051 3.876.762 5.311 4.674 4.252 5.977 4.257.798-4.231 1.195-5.826.9-2.876.9-2.876-2.18-3.53-6.758-3.18" fill="#070540"/><path d="M7.546 194.321c-1.302-.005-5.266-2.821-5.977-4.257-.642-1.296-1.382-3.598-.942-4.919q-.163.215-.31.438c-.786 1.202.051 3.876.762 5.312s4.675 4.251 5.977 4.256c.377.001.602-.353.742-.894a.5.5 0 0 1-.252.064" fill="#E6E8F4"/><path d="M63.785 188.473s.07.977.297 1.369 5.092 1.688 6.889 1.862c2.312.224 5.799-.219 5.996-.772s-.578-2.152-1.357-2.904-3.996-2.719-5.134-3.277c-1.138-.557-6.554 1.996-6.69 3.722" fill="#070540"/><path d="M70.97 191.704c-1.796-.174-6.662-1.47-6.888-1.862 0 0-.075.26.152.652s4.938 1.727 6.734 1.901c2.313.224 5.8-.219 5.997-.772.053-.149.034-.375-.036-.639-.388.528-3.72.937-5.958.72" fill="#E6E8F4"/><path d="M30.105 120.957s-4.494 6.449-5.374 10.651c-.88 4.201-2.67 21.058-2.964 22.596-.072.382-4.021 2.686-5.798 5.31-5.383 7.95-13.248 22.291-13.32 22.806-.099.684 5.956 1.785 6.81 3.868 1.527-1.263 18.623-24.457 20.646-26.733 2.16-2.432 9.77-13.443 9.77-13.443s14.99 14.616 15.732 15.69c.242.351.176 3.765 1.14 7.459 1.989 7.62 6.64 18.69 7.035 19.217 0 0 4.234-3.681 6.677-3.746 0 0-5.667-21.366-7.133-27.521s-13.19-27.374-14.461-28.979c-1.27-1.605-17.54-7.077-18.76-7.175" fill="#6B78B7"/><path d="M48.866 128.132c-1.27-1.605-17.54-7.077-18.76-7.175 0 0-4.495 6.449-5.375 10.651-.164.782-.36 2.004-.57 3.482.002-.004 4.381-7.178 26.559-3.914-.926-1.614-1.6-2.723-1.854-3.044m-4.104 11.016c-1.563 1.97-4.885 6.865-4.885 6.865s3.824 3.73 7.705 7.559c-4.084-5.233-1.256-16.394-2.82-14.424" opacity=".33" fill="#6B78B7"/><path d="M70.9 110.698s1.368.537 2.565-1.491 2.027-6.327 2.027-6.327l-5.57 1.539s-1.514 4.471.978 6.279" fill="#ACB3D8"/><path d="M49.576 89.958c-2.59.027-9.226 1.732-11.49 5.04-3.323 4.853-2.069 12.768-4.463 16.383-2.394 3.616-5.177 6.401-4.737 9.479s16.801 8.625 22.225 7.128c4.466-1.233 8.694-16.302 10.458-20.515 0 0 6.448 2.98 9.33 3.224 0 0-1.782-2.907.026-7.011s2.49-4.285 2.49-4.285-2.27.109-7.351-3.165-9.713-6.35-16.488-6.278" fill="#E6E8F4"/><path d="M66.063 96.236c-5.08-3.274-9.713-6.35-16.487-6.278-1.218.013-4.21-.173-1.48 3.287 4.16 5.27 15.416 7.145 13.473 14.228 0 0 6.448 2.98 9.33 3.224 0 0-1.782-2.907.026-7.011s2.49-4.285 2.49-4.285-2.271.108-7.352-3.165" fill="#E6E8F4"/><path d="M47.257 114.419s.778.577 6.421-4.943c5.643-5.521-2.882-4.519-5.08-2.785s-4.15 5.431-1.34 7.728" fill="#ACB3D8"/><path d="M56.615 104.346s15.442-.456 16.5-.619c1.059-.163 3.35-4.145 3.914-4.694s3.716-.11 4.106 0 .207 1.087.091 1.282c0 0 .887.326 1.074.693.138.269-.147 1.14-.147 1.14s.603.228.7.543c.05.161-.162.792-.162.792s.7.293.627.88c-.047.373-.962 1.358-1.38 1.257-.42-.101-1.55-.216-2.036.13-.484.345-.602.799-.501 1.121.085.271-1.091 1.531-2.556 1.482s-3.29-.709-6.67.806-10.536 2.761-13.37 2.785-6.864-2.785-6.913-2.785c-.05-.001 3.843-4.726 6.722-4.813" fill="#FFE5CF"/><path opacity=".5" d="M82.69 103.483s.213-.631.163-.792c-.098-.316-.7-.544-.7-.544s.284-.87.146-1.14c-.187-.366-1.073-.692-1.073-.692.115-.196.3-1.173-.091-1.283-.258-.073-1.712-.287-2.837-.268.266.022 1.341.155 1.567.428.232.28-.043 1.05.226 1.477s1.325 2.248 1.508 2.761.098 2.049-.671 2.087l-.002.001c.402-.004.799.05 1.01.102.42.101 1.335-.884 1.381-1.257.074-.587-.626-.88-.626-.88" fill="#FFB9A0"/><path d="M56.615 104.346c.01-.016-2.765-.831-6.332-4.348s-8.696-5.06-11.04-3.459c-2.346 1.602-4.058 6.589-.123 10.103 5.472 4.886 6.744 7.777 8.138 7.777 0 0-1.249-.278 2.513-3.746 3.76-3.469 5.504-4.324 6.844-6.327" fill="#F3F4FA"/><path d="M51.55 95.167s1.027.478 1.517.205c.49-.274-.353-3.318-1.151-3.899-.798-.58-.707 3.17-.365 3.694" fill="#ACB3D8"/><path d="M54.789 87.622s-.616 1.492-2.275 1.606.068-4.32.068-4.32h2.594s-.16 1.952-.387 2.714" fill="#070540"/><path d="M54.789 87.622s-.616 1.492-2.275 1.606.068-4.32.068-4.32h2.594s-.16 1.952-.387 2.714" fill="#070540"/><path d="M45.43 84.81s-.24-2.761.513-3.916c.696-1.068 6.688-1.546 7.74.218 1.398 2.343-.1 6.796-.1 6.796s-7.372 4.219-8.153-3.098" fill="#D14122"/><path d="M47.583 91.633s-.093.995-.07 1.177 3.218 2.015 4.039 2.357c0 0 2.12-7.09 2.029-7.068s-5.998 3.534-5.998 3.534" fill="#FFB9A0"/><path d="M45.43 84.81c.002.1.327 6.52.412 7.239.086.718 2.015.97 2.904.575.89-.392 3.006-1.897 3.247-2.257s.413-1.3.413-1.3-.035.473.65.33c.684-.142 1.354-1.06 1.384-1.612.086-1.568-1.555-1.818-2.017.313-.047.213-.63.33-.616.165s.167-1.898.186-2.206c.02-.307-.648-.65-.665-.94s.496-2.291.359-2.616-2.296.65-4.166.24-2.14.377-2.092 2.069" fill="#FFE5CF"/><path d="M45.568 87.51c1.742-.441 3.453 1.661 6.282.27.051-.585.13-1.505.144-1.721.02-.308-.648-.65-.665-.94-.017-.291.496-2.292.36-2.616-.138-.326-2.297.65-4.167.24s-2.142.376-2.093 2.068c.002.042.063 1.265.14 2.699" fill="#FFB9A0"/><path d="M54.789 87.622s.293-1.842-.922-1.692c-2.709.334-6.557-2.111-8.768-1.684 0 0-.412-3.075 1.824-4.446 2.416-1.482 7.244-.598 8.288 2.394 1.014 2.908-.422 5.428-.422 5.428" fill="#070540"/><path d="M52.583 86.399s-1.37.702-2.876.514c-1.507-.188-3.188-1.744-6.386-1.642l-.131-.273s1.541-.162 1.91-.265c.552-.154 1.785-.23 3.1.171 1.26.384 4.383 1.007 4.383 1.007z" fill="#070540"/><path d="M52.583 85.91s-1.37.815-2.876.627c-1.507-.189-3.32-1.642-6.517-1.54 0 0 1.357-.597 1.91-.752.552-.154 1.785-.23 3.1.171 1.401.428 3.67 1.348 4.383 1.495" fill="#6B78B7"/><path d="M81.738 105.626c-.245-.555-1.023-.75-1.74-.434-.716.315-1.099 1.022-.854 1.577s1.024.75 1.74.434c.717-.316 1.099-1.022.854-1.577" fill="#FF946E"/><path d="m235.833 118.323-1.861.691 3.385 9.124 1.861-.69 1.861-.691-3.385-9.124z" fill="#ACB3D8"/><path d="m239.218 127.447-2.71 1.006.629 1.696 2.71-1.006 2.71-1.006-.629-1.695zm-4.015-10.819-2.293.851.628 1.696 2.295-.852 2.294-.85-.629-1.697z" fill="#070540"/><path d="m221.184 102.63-.011-.01c.018.049.038.094.057.143z" fill="#6B78B7"/><path d="M236.982 97.64q-.076-.232-.162-.466c-1.997-5.38-7.091-8.453-11.38-6.862-4.288 1.591-6.146 7.243-4.15 12.624q.086.233.18.459l-.009.003c2.915 7.858 9.893 8.197 12.024 13.867l.968-.359-.407-.893c-1.158-2.331-3.074-3.749-5.088-5.241a62 62 0 0 1-1.477-1.117c1.696.671 3.504.768 5.188.143 1.685-.624 2.992-1.877 3.84-3.492-.12.611-.256 1.212-.391 1.81-.554 2.445-1.081 4.769-.439 7.292l.281.939.962-.357c-2.084-5.687 2.985-10.495.069-18.353zm-4.665 11.207c-3.758 1.394-8.277-1.416-10.076-6.264-1.799-4.847-.205-9.926 3.552-11.32s8.277 1.416 10.076 6.264c1.798 4.848.205 9.927-3.552 11.32" fill="#6B78B7"/><path d="m236.701 96.873.001-.015.051.147z" fill="#6B78B7"/><mask id="a" style="mask-type:luminance" maskUnits="userSpaceOnUse" x="221" y="90" width="16" height="20"><path d="M225.793 91.263c3.757-1.393 8.277 1.416 10.076 6.264 1.798 4.848.205 9.927-3.552 11.321-3.758 1.393-8.277-1.416-10.076-6.264-1.798-4.848-.205-9.927 3.552-11.32" fill="#fff"/></mask><g mask="url(#a)" fill="#070540"><path d="m234.051 90.044-15.318 5.682.13.351 15.318-5.682zm.435 1.174L219.168 96.9l.131.351 15.318-5.682zm.435 1.176-15.317 5.682.13.35 15.318-5.681zm.436 1.173-15.317 5.682.13.351 15.318-5.682zm.436 1.174-15.318 5.682.13.351 15.318-5.682zm.436 1.175-15.318 5.682.13.351 15.318-5.682zm.436 1.175-15.318 5.682.13.351 15.318-5.682zm.435 1.174-15.318 5.682.13.351 15.318-5.682zm.436 1.174-15.318 5.682.13.351 15.318-5.682zm.436 1.174-15.318 5.682.13.351 15.318-5.682zm.435 1.176-15.318 5.682.13.351 15.318-5.682zm.436 1.173-15.318 5.683.13.351 15.318-5.683zm.435 1.175-15.318 5.682.131.351 15.318-5.682z"/><path d="m219.393 89.288-.351.13 9.243 24.917.351-.13zm1.277-.476-.351.13 9.243 24.917.351-.13zm1.264-.497-.351.13 9.246 24.915.351-.13zm1.289-.45-.351.13 9.243 24.918.351-.13zm1.265-.501-.351.13 9.246 24.915.351-.13zm1.276-.472-.351.13 9.246 24.915.351-.13zm1.276-.472-.351.13 9.246 24.914.351-.13zm1.29-.45-.351.131 9.243 24.918.351-.131zm1.267-.476-.351.13 9.24 24.917.351-.13z"/></g><path d="M180.969 175.361s-1.134 2.807-2.106 2.807-3.726-.966-6.21-.753-12.418 5.289-17.494 5.235l-3.563 8.207s6.749-2.646 11.879-3.456c5.129-.81 20.031-1.188 22.461-2.052s7.56-12.203 7.56-12.203z" fill="#FFD2B3"/><path d="M180.969 175.361s-.404.997-.936 1.802c.693-.21 2.394.681 4.283 2.598 1.435 1.455 2.859 2.646 4.4 2.45 2.32-3.63 4.779-9.064 4.779-9.064z" fill="#FFB98B"/><path d="M154.764 182.308s2.447.756 9.783-2.332c0 0 3.823 3.052 1.483 7.3 0 0-5.039.72-8.351 1.872-3.311 1.152-6.479 2.088-6.479 2.088z" fill="#E6E8F4"/><path d="M154.008 180.652s2.465 1.8 2.537 3.744c.063 1.707-1.899 2.385-2.708 4.058s-.081 2.511-2.403 3.321-4.59.297-7.64 2.025c-3.051 1.728-6.669 0-6.669 0z" fill="#070540"/><path d="M143.455 192.408c4.322-2.967 4.832-5.157 6.695-6.399s4.158-3.32 3.888-5.156c-.072-.487-1.308-1.523-1.629-1.744-.891-.612-16.472 13.673-16.458 14.491.096.091 1.104.753 1.24.809 1.181.478 3.797-.309 6.264-2.001" fill="#E6E8F4"/><path d="M142.444 191.721c4.321-2.965 4.832-5.156 6.695-6.398s4.157-3.32 3.887-5.156-2.645-1.705-4.643-.164-1.458 2.972-5.237 4.16-5.724 4.049-6.642 5.777c-.386.728-1.345 2.932-.675 3.563.921.868 3.861.108 6.615-1.782" fill="#fff"/><path d="M215.021 164.418s7.846.072 10.15.432 3.816 5.4 5.904 6.912 6.263 2.591 10.583 8.135c4.319 5.543 4.031 6.191 4.031 6.191l6.479-.504s-21.957-27.429-23.757-28.868-10.87-3.456-10.87-3.456-1.872 9.215-2.52 11.158" fill="#FFD2B3"/><path d="M223.636 160.094c.334-1.222 1.336-3.744.772-5.034-3.148-.973-6.868-1.8-6.868-1.8s-1.872 9.215-2.519 11.159c0 0 3.524.032 6.543.162.84-1.421 1.626-2.85 2.072-4.487" fill="#FFB98B"/><path d="M244.984 184.54c.804 1.321.705 1.548.705 1.548l6.479-.504-.837-1.044z" fill="#FFD2B3"/><path d="M236.703 175.397c-.096-.135 3.731-3.743 4.522-3.707s8.027 10.007 8.963 10.979-5.215 1.68-5.991 1.128-2.179-2.894-4.232-4.98c-2.419-2.459-3.058-3.131-3.262-3.42" fill="#E6E8F4"/><path d="M243.201 182.71s1.804 1.453 4.099.751.449-2.708.337-3.631c-.111-.924.486-.979 1.341-.124.924.925 8.959 4.592 10.957 5.051s2.564 1.836 2.483 2.429c-.081.594-4.319 1.053-8.693 1.323s-11.041.189-11.311-.135-.068-5.557.787-5.664" fill="#070540"/><path d="m262.309 187.333-.003-.004c-.675.525-4.567.932-8.581 1.18-4.235.261-10.619.193-11.267-.105-.139.408-.075.916-.009.995.27.324 6.902.47 11.276.2s8.611-.729 8.692-1.323c.025-.175.002-.674-.108-.943" fill="#E6E8F4"/><path d="M181.904 152.252s-1.944 3.024-.792 8.711.36 13.761-1.08 15.052c0 0 2.088 2.381 6.407.936 4.32-1.446 7.272-3.389 9.863-3.605 0 0 .792-6.696.576-8.783 0 0 16.126 2.736 17.566 2.591 1.44-.144 7.723-9.071 7.723-12.742 0 0-11.173-4.536-17.727-6.695s-22.536 4.535-22.536 4.535" fill="#5BCFDE"/><g opacity=".4" fill="#5BCFDE"><path d="M204.44 147.717c-6.554-2.16-22.536 4.535-22.536 4.535s-1.944 3.024-.792 8.711c.298 1.472.465 3.103.525 4.736.842-3.347 25.571-1.568 24.869-17.277-.723-.254-1.417-.492-2.066-.705"/><path d="M196.583 170.692c.203-2.112.422-4.909.295-6.13 0 0-4.41-.72-6.551-.936-2.141-.215 6.537 4.413 6.256 7.066"/></g><path d="M219.468 124.877s13.092-1.161 14.225-1.512c1.134-.351 3.266-3.293 3.644-3.563s2.988-.09 3.438 0 .126 1.674.126 1.674.814 2.173.81 2.78c-.003.4-.396 1.485-.81 1.431s-.198-.576-.63-.666-1.062 1.494-1.584 1.782-1.224.342-2.376.18-8.72 3.645-10.907 3.996-8.315-.189-8.801-.189c-.485 0 1.029-5.747 2.865-5.913" fill="#FFD2B3"/><path d="m220.095 124.821-.627.056c-1.836.166-3.349 5.913-2.863 5.913.229 0 1.719.12 3.457.21-.249-.428.79-3.089.033-6.179m20.806.866c.414.054.807-1.031.81-1.431.004-.607-.81-2.78-.81-2.78s.324-1.584-.126-1.674c-.347-.07-1.977-.192-2.879-.12.234-.016.968-.019.953.588-.018.72.99 2.448 1.26 2.754s.378 1.373-.219 2.226l-.001.002c.137-.158.267-.254.382-.23.432.089.216.611.63.665" fill="#FFB98B"/><path d="M201.846 115.824c.149-.288 7.559-2.106 8.207-2.465.648-.36 1.152-1.899 1.611-2.52s2.546-2.189 2.726-2.639.208-.807.55-.807c.385 0 .639.795.517 1.635-.121.84-1.318 1.826-1.453 2.082 0 0 2.695-.203 3.167-.028s.251.66-.035.765c-.462.171-2.706.275-2.827.423s3.31-.03 3.634.09c.461.171.321.815-.07.896s-2.762.274-2.978.355 3.289-.099 3.694.009.391.837-.135.931-3.509.338-3.658.459c-.148.121 3.471.541 3.701.751.229.211.051.76-.488.814-.54.054-3.213-.202-3.442-.162s-2.079.891-2.876.851c-.089-.005-1.12-.188-1.362-.144-1.915.347-7.436 3.005-7.762 3.005-.369.001-1.032-3.7-.721-4.301" fill="#FF946E"/><path d="M208.352 113.902c-2.389.679-6.397 1.712-6.506 1.922-.312.601.353 4.302.72 4.302.278 0 4.314-1.923 6.692-2.71-.568-1.098-.896-2.301-.906-3.514" fill="#F07D18"/><path d="M198.642 109.237s-2.627-3.176-6.551-1.845-5.76 6.74-5.868 13.903c-.087 5.797 1.008 17.08-.612 20.806-1.62 3.725-5.291 8.639-5.885 10.853 0 0 5.759 9.156 15.172 6.911 12.904-3.077 10.097-20.248 11.537-27.985 2.659.212 7.307 1.421 8.981 1.583s4.537-6.156 4.051-8.585c-4.349-1.382-7.798-2.797-10.673-4.188a16.8 16.8 0 0 1-6.972-6.306z" fill="#6B78B7"/><path opacity=".33" d="M197.794 115.077c5.107 5.746 11.225 7.614 14.584 7.221a71 71 0 0 1-3.505-1.571 16.9 16.9 0 0 1-7.051-6.345l-.145-.235c-.364.414-4.003.795-3.883.93" fill="#6B78B7"/><path opacity=".44" d="M198.642 109.237s-1.539-1.851-4.015-2.13c1.062.202 1.845 2.524.218 2.867-1.663.352-3.299 1.333-2.74 1.103 1.932-.792 3.91-.873 2.937-.505-.98.371-1.567 1.024-1.263.965 1.827-.355 3.152.011 2.823.338 0 0 .726 1.06.8 1.06.033 0 .894-1.207 1.817-2.516z" fill="#6B78B7"/><path d="M201.76 132.043c-.975.501 4.045 5.43 3.917 9.759.269-3.771.282-7.362.759-9.921-.302-.065-3.7-.341-4.676.162" fill="#6B78B7"/><path d="M196.602 111.875s1.492-.201 2.041-1.24l8.201 4.131c-2.674-.3-4.308 1.975-4.904 2.646-.819.923-6.434-3.307-5.338-5.537" fill="#FFB98B"/><path d="M200.126 111.381s-1.124 1.193-1.369 1.098c-.246-.094-.597-1.002-.667-1.21s1.007-.963.875-3.382-.378-5.405-.189-5.877 9.309.109 9.852.403c.289.158-.407 3.617-.311 4.08s-4.552 5.992-4.552 5.992z" fill="#070540"/><path d="M200.681 109.243c-1.064.046-.897 1.178-.696 1.801.274.85 1.144 1.675 1.612 1.146 0 0 .215 1.033.593 1.865s4.157 2.47 5.165 1.94c.757-.397.693-4.749.806-5.606s.53-1.298.542-1.663c.013-.366-.34-2.016-.441-2.495s-1.146.466-2.532 0-3.565-1.676-3.439-1.449c.092.166 2.016 1.008 2.129 1.386.114.378-.592 2.041-.592 2.293s-.819.265-.907.529c-.088.265-.176 1.941-.202 2.142-.025.202-.68.089-.693-.088s-.186-1.852-1.345-1.801" fill="#FFD2B3"/><path d="M90.45 91.405s1.117 2.89 11.853 5.969 12.213-3.363 12.213-3.363l-.362-7.308s-20.49-2.798-20.628-2.981c-.137-.184-2.75 3.912-3.076 7.683" fill="#ACB3D8"/><path d="M90.553 121.789s-.91 8.307-.638 10.455c.271 2.148 12.144 12.957 13.986 13.878 0 0 4.232-4.044 4.019-4.584s-8.344-8.7-9.126-9.829c-.783-1.129.372-8.093.372-8.093z" fill="#450603"/><path d="M107.779 141.008c1.134 1.623 5.553 9.102 8.06 11.563 0 0-.728 3.437-2.299 4.436-.335.214-1.906-.925-2.181-.848 0 0-1.421-2.49-3.445-5.113-1.636-2.12-3.852-4.376-4.574-5.078-.703-.685 3.982-5.613 4.439-4.96" fill="#E6E8F4"/><path d="M120.654 154.143c.179.284-3.596 8.642-5.59 11.182-.831 1.058-3.013 3.026-3.123 2.836-.413-.716-.591-1.727-.529-2.206.098-.759.851-5.557.647-6.71s-1.311-3.175-2.28-3.811c0 0 .338-.056 1.018-.028.679.029 2.106 1.2 2.178.986.099-.293-1.066-1.866-1.133-2.664-.066-.797 2.562-2.697 2.121-3.393.364-.38.795.104 2.108 1.361.603.578 3.67 1 4.583 2.447" fill="#6B78B7"/><path d="M115.064 165.325c1.893-2.412 5.39-10.064 5.585-11.074.279.144.422.411.614.708.182.281-3.595 8.642-5.59 11.181-.831 1.058-3.013 3.026-3.123 2.836a4 4 0 0 1-.37-.905c.609-.396 2.202-1.877 2.884-2.746" fill="#070540"/><path opacity=".4" d="M110.797 155.406c.679.029 2.106 1.2 2.178.986.099-.293-1.066-1.866-1.133-2.664-.033-.393.588-1.053 1.174-1.705.479 3.716 3.83 7.463 5.794 8.654-1.068 2.16-2.27 4.361-3.137 5.463-.83 1.058-3.012 3.026-3.122 2.836a4 4 0 0 1-.37-.905c-.132.086-.22.123-.24.09-.413-.716-.591-1.727-.529-2.206.099-.759.852-5.557.648-6.71s-1.312-3.175-2.282-3.811c0 0 .339-.056 1.019-.028" fill="#6B78B7"/><path d="M106.585 130.016c.129.237-.218 2.133.111 3.381s4.366 13.324 4.623 18.852l-6.086 1.339s-7.648-17.126-7.999-19.249c-.35-2.124-.35-6.652-.35-6.652z" fill="#691813"/><path d="M97.104 133.284c-.22-2.287-.22-5.597-.22-5.597l9.701 2.329c.117.215-.156 1.794.038 3.017-2.948-.986-6.728-1.056-9.52.251" fill="#450603"/><path d="M111.859 151.782c.158 2.433.748 12.692 1.816 16.883 0 0-2.283 2.628-4.485 2.844-.837.082-1.992-1.782-2.521-1.929 0 0 .095-3.528-.36-7.58-.368-3.277-1.259-7.066-1.569-8.265-.305-1.171 7.056-2.932 7.119-1.953" fill="#fff"/><path d="M116.629 173.202c.007.413-2.313 2.143-4.394 4.166-1.405 1.366-3.565 4.285-7.286 5.684-1.55.583-5.34-.201-5.333-.47.022-1.018.48-2.195.852-2.66.588-.736 4.445-5.304 4.966-6.647s.138-4.099-.476-5.388c0 0 1.616-.176 2.313.289.696.464 1.662 2.413 1.875 2.235.291-.245.07-2.645.509-3.527s3.532-.708 3.387-1.691c.689-.25.856.539 1.435 2.701.266.993 2.115 3.202 2.152 5.308" fill="#6B78B7"/><path d="M104.949 183.052c3.721-1.399 5.881-4.319 7.287-5.684 1.878-1.825 3.944-3.409 4.325-4.005l.001.003c.099.346.188 1.054.149 1.428-.042.411-2.657 2.368-4.738 4.391-1.405 1.366-3.565 4.285-7.287 5.684-1.549.583-5.203-.195-5.197-.464.01-.46-.012-1.379.127-1.823-.005.27 3.783 1.053 5.333.47" fill="#070540"/><path d="M114.516 94.01s-.245 2.828-.001 3.778c0 0-16.532 2.382-17.518-5.146-.096-.74-.295-5.618-.552-5.716 0 0 17.42 3.28 18.071 7.085" fill="#691813"/><path d="M96.922 91.686c-.108-1.652-.275-4.683-.476-4.76 0 0 17.42 3.28 18.07 7.085 0 0-.023.27-.049.672-4.994-3.451-17.545-2.997-17.545-2.997" fill="#450603"/><path d="M96.926 91.745c.008 3.502-4.69 15.249-8.212 30.997.581 2.211 6.165 2.327 6.165 2.327s-.24 2.293-.295 3.431c1.186 2.735 11.208 3.602 12.711 2.248.714-2.366 2.713-11.585 3.397-14.05s4.025-6.71 4.764-10.695c.74-3.985.033-8.906-1.047-9.786-.309 2.18-17.154.21-17.483-4.472" fill="#6B78B7"/><path opacity=".3" d="M96.029 96.262c.56-2.041.9-3.578.897-4.516.329 4.68 17.174 6.651 17.482 4.471 1.009.823 1.692 5.174 1.174 8.991-2.034-3.322-11.684-8.376-19.553-8.946m-6.649 27.422c2.956 1.001 7.847-14.073 7.363-11.511-.773 4.089-1.863 12.896-1.863 12.896s-3.87-.081-5.5-1.385" fill="#6B78B7"/><path d="M115.303 20.927c-2.546-.184.567-7.765.732-9.282.08-.742-1.743-.235-2.831.5-1.088.733-1.149 2.864-1.149 2.864l-.868 6.596s3.881-.057 4.116-.678" fill="#450603"/><path d="M115.303 20.927c-2.546-.184.567-7.765.732-9.282.08-.742-1.743-.235-2.831.5-1.088.733-1.149 2.864-1.149 2.864l-.868 6.596s3.881-.057 4.116-.678" fill="#450603" opacity=".5"/><path d="M123.974 20.734a9.035 9.035 0 0 0 5.132-11.703 9.035 9.035 0 0 0-11.702-5.132 9.035 9.035 0 0 0-5.132 11.703 9.035 9.035 0 0 0 11.702 5.132" fill="#F07D18"/><path d="M116.316 7.527q.656-.967 1.448-1.747a16 16 0 0 1-1.986-1.05q.41-.266.847-.486c.622.362 1.235.66 1.835.906a10 10 0 0 1 1.639-1.093 9 9 0 0 1 1.742-.698l.132.015a9 9 0 0 1 1.931.503 8.15 8.15 0 0 0-3.409.93q-.575.306-1.102.694c1.329.449 2.599.692 3.797.92 2.079.397 3.994.764 5.67 2.06q.402.854.619 1.783c-1.77-2.115-3.915-2.526-6.448-3.01-1.382-.263-2.855-.545-4.407-1.123a10.5 10.5 0 0 0-1.464 1.664c4.028 1.353 8.579 4.127 11.669 8.432q-.206.427-.452.826c-3.04-4.447-7.671-7.258-11.679-8.558-.677 1.108-1.222 2.388-1.625 3.813 1.394.688 2.418 1.901 3.518 3.207 1.438 1.706 3.034 3.599 5.818 5.032a9 9 0 0 1-1.036.397c-2.556-1.474-4.116-3.322-5.43-4.882-1.064-1.263-1.953-2.317-3.084-2.93-.395 1.671-.603 3.526-.62 5.52a9 9 0 0 1-.824-.965c.071-1.75.29-3.392.657-4.893-.685-.22-1.471-.293-2.421-.18a9 9 0 0 1 .013-.85c1.015-.101 1.872-.009 2.621.227.4-1.385.929-2.64 1.579-3.747a16.4 16.4 0 0 0-2.946-.555 9 9 0 0 1 .517-.773 18.5 18.5 0 0 1 2.881.611" fill="#070540"/><path d="M109.804 48.283s-1.483-2.742-1.981-3.742 5.947-19.408 6.448-20.158c1.276-1.903 4.664-2.286 4.806-3.217.084-.545-.327-.748-.935-.826-1.089-.14-2.174.265-2.811.391s-2.317.347-2.764-.069c-.717-.667-.605-3.545-.568-4.304.037-.758.163-2.088-.156-2.329-.353-.266-.945.19-1.197 1.937-.252 1.746-.218 7.043-.575 8.01-.358.966-4.866 9.55-5.764 11.238s-2.951 6.98-3.191 7.89c-.241.911 4.512 10.304 5.116 11.41.603 1.104 4.01-5.19 3.572-6.232" fill="#450603"/><path opacity=".3" d="M108.771 46.356a368 368 0 0 0 1.034 1.926c.437 1.042-2.97 7.336-3.574 6.23-.254-.465-1.244-2.4-2.287-4.55 1.905-.763 3.638-1.923 4.827-3.606" fill="#450603"/><path d="M116.003 54.994c-.204-.081-4.894-4.731-6.316-7.347 0 0-3.209 2.2-4.123 5.504-.914 3.305 8.409 8.375 10.551 8.657s2.874-5.625-.112-6.815" fill="#FFB718"/><path d="M125.735 57.435s.715-1.25 3.256-2.317c1.933-.811 3.365-2.148 2.795-4.942s-3.491-4.514-4.645-4.719-1.984.926-1.984.926-3.057 9.114.578 11.052" fill="#330300"/><path d="M117.963 51.787c-.173.764 1.369 2.057 1.411 2.29s-.833 2.53-.833 2.53 6.078 3.13 6.283 3.294c0 0 .46-1.461.91-2.466 0 0-.614-1.96 1.462-3.47 1.07-.778-.062-1.062-.062-1.062s-8.127-2.651-9.171-1.116" fill="#450603"/><path d="M124.751 53.398c.44.53 2.054 1.334 2.874.154.819-1.18-.391-1.743-1.9-1.471-.239.043 1.47-1.785 1.488-1.975.012-.125-.006-.828.21-1.058.468-.496 1.043-.746.878-1.224-.371-1.073-1.561-1.541-2.229-1.587-.668-.044-2.648.617-4.137 1.675-.571.406-3.661 3.259-3.973 3.875.78-.639 2.487 1.257 4.426 1.976.976.361 1.954.049 2.363-.365" fill="#691813"/><path d="M127.051 63.194s-.732 3.498-5.895 13.554c-3.318 6.461-6.511 12.589-6.641 17.262.209-.905-23.266-7.402-24.065-2.605 0 0-.837-5.148 3.036-10.808s14.544-21.358 19.249-23.341 14.316 5.938 14.316 5.938" fill="#E6E8F4"/><path d="M121.996 67.542c-9.324-1.132-15.853 4.788-21.822 3.521 4.455-6.102 9.65-12.58 12.561-13.807 3.713-1.565 10.478 3.036 13.167 5.047-.088.016-1.964 5.474-3.906 5.239" fill="#ACB3D8"/><path d="M109.075 63.71s-1.211-.048-1.418-4.66 7.959 2.059 7.959 2.059-3.896 3.547-6.541 2.601" fill="#FFB718"/><path d="M110.404 53.755s-3.012-.68-3.953-1.526c-.941-.845-7.025-14.053-7.402-15.035s1.147-2.21 1.572-2.947c.449-.78 2.111-1.895 2.585-2.281s-.429-.976-.969-.85c-.527.124-2.298 1.178-2.75 1.167-.454-.01-.685-2.063-.73-2.888s.376-5.364.394-5.871-.8-.753-.997-.144c-.197.608-.896 4.817-1.062 5.084s-.428.192-.438.01c-.01-.184.147-5.417.17-5.832.023-.414-.778-.785-.98-.141-.202.643-.691 5.537-.826 5.718-.135.18-1.568-4.755-1.715-5.122s-.979-.269-.945.373c.035.641 1.412 5.205 1.292 5.533s-2.323-2.427-2.615-2.67-1.09-.011-.665.704c.424.716 1.922 2.806 2.206 3.356s.5 3.71.827 4.72c.245.759 1.222 1.74 1.48 2.087.26.347 4.262 16.564 5.07 18.272s11.943 7.208 12.827 7.881c.886.675 2.147-8.053-2.376-9.598" fill="#691813"/><path opacity=".5" d="M109.697 53.577c.421.114.707.178.707.178 4.523 1.545 3.262 10.274 2.377 9.6-.328-.25-2.066-1.164-4.164-2.301 2.068-1.069 1.119-7.36 1.08-7.477" fill="#450603"/><path d="M127.141 61.002c-.553-2.399-2.776-4.574-7.386-5.322s-9.351-1.925-9.351-1.925c2.314 1.919 1.974 11.1-1.33 9.956 0 0 9.112 3.58 12.922 3.83s5.616-4.501 5.145-6.539" fill="#FEDA00"/><path d="M127.221 163.565s-.828.182-1.146.26c-.187.046-.193.881-.073 1.074.122.198 1.323.351 1.323.351s.089-1.599-.104-1.685m.041 2.201s-.808.252-1.119.356c-.182.061-.117.893.019 1.076.139.187 1.348.237 1.348.237s-.047-1.6-.248-1.669m.818 7.591s-.793.001-1.1.008c-.181.004-.353.766-.283.968.072.205 1.14.586 1.14.586s.402-1.444.243-1.562m-.518 3.862s-.637.279-.88.392c-.143.067-.015.739.113.875.13.14 1.12.071 1.12.071s-.184-1.299-.353-1.338m.578 2.221s-.383.579-.526.807c-.084.133.433.607.633.605.191-.002.916-.481.916-.481s-.86-.991-1.023-.931" fill="#070540"/><path d="M148.453 154.272c.465 2.611-11.235 8.943-14.421 15.448-.27.552-1.909 3.667-2.463 3.887-1.503.597-2.28-1.678-2.405-2.544-.336-2.334-.046-7.4 2.304-9.147 2.453-1.822 5.325-6.292 6.742-9.139 1.144-2.299 4.303-6.768 6.7-6.808 2.396-.041 3.543 8.303 3.543 8.303" fill="#E6E8F4"/><path d="M140.512 149.222q.282-.358.58-.698c-.021.074-.045.146-.061.227-.843 4.307 1.555 8.6 3.575 9.662q.166.088.358.154l-.383.324c-.06-.027-.12-.052-.182-.084-2.051-1.08-4.467-5.271-3.887-9.585m-6.768 20.803c.677-1.44-1.094-2.722-2.493-1.081l-.133 3.31s1.831.416 1.798.364c-.034-.05.828-2.593.828-2.593" fill="#6B78B7"/><path d="M131.468 161.916c-.703.411-2.911-.242-4.306 1.041-1.219 1.122.755 7.144.494 8.569s-1.189 3.204-.805 6.032c.384 2.829 2.543 4.163 4.327 3.797 1.348-.277 1.362-4.726 1.816-7.524.501-3.089 1.718-4.532 1.718-4.532s-1.494-.066-2.447 2.362c0 0 .72-1.742-.624-2.996-1.343-1.253-2.195-4.466-.173-6.749" fill="#ACB3D8"/><path d="M143.267 133.77s1.514.876 8.621.5 4.364-3.89 1.364-4.151c-3-.262-10.041 1.712-9.985 3.651" fill="#070540"/><path d="M160.489 133.846s-2.005 7.037-3.904 10.34-2.24 5.415-3.34 6.48c-.893.865-2.325 1.761-4.985 4.474-1.463 1.491-5.125-3.432-4.271-7.8.337-1.722 2.198-1.518 2.459-3.147s-.338-10.415-.456-12.176 13.632-3.908 14.497 1.829" fill="#FFD2B3"/><path d="M146.267 136.378c-.112-1.956-.23-3.682-.275-4.362-.118-1.761 13.632-3.907 14.497 1.829 0 0-.17.596-.457 1.519-3.903-2.088-12.111-.084-13.765 1.014" fill="#FFB98B"/><path d="M159.01 105.993s3.348 11.017 3.12 16.585-1.523 11.429-1.678 11.429c.021-.188.486-1.94-5.013-2.192-6.259-.287-11.933.847-12.171 1.955-1.358-.142 2.063-5.282 1.251-13.914s-7.188-11.694-7.188-11.694 1.641-1.578 1.105-3.21c0 0 16.491 2.993 20.574 1.041" fill="#6B78B7"/><path opacity=".3" d="M159.01 105.993s3.348 11.017 3.12 16.585-1.523 11.429-1.678 11.429c.021-.188.486-1.94-5.013-2.192-6.259-.287-11.933.847-12.171 1.955-1.358-.142 2.063-5.282 1.251-13.914s-7.188-11.694-7.188-11.694 1.641-1.578 1.105-3.21c0 0 16.491 2.993 20.574 1.041" fill="#6B78B7"/><path d="M145.874 130.254s2.436 1.833 7.947-4.113c5.796-6.253-5.686-6.465-5.948-6.429-.262.037-4.567 7.37-1.999 10.542" fill="#070540"/><path d="M160.465 115.032s9.135 7.511 11.295 10.577c.707 1.003-.4 5.773-.556 10.947-1.527-.516-7.682-.174-9.529.419.431-2.285 1.298-4.204 1.295-4.748-.004-.884-11.41-5.62-14.512-7.739s2.65-12.961 12.007-9.456" fill="#FFD2B3"/><path d="M160.465 115.032s.364.3.96.8c-.041.012-.081.021-.123.035-5.036 1.702-7.092 6.536-7.637 11.405-2.176-1.06-4.164-2.071-5.208-2.784-3.102-2.119 2.651-12.961 12.008-9.456" fill="#FFB98B"/><path d="M160.465 115.032c1.073-.88-18.909-12.337-22.74-10.284-3.296 1.767-1.658 9.41-.534 13.068 1.926 6.268 5.861 8.325 8.683 12.438-.712-.848-.568-2.997 3.107-6.09 4.193-3.527 4.625-9.094 11.484-9.132" fill="#6B78B7"/><path d="M163.536 155.498c-.327-3.76-2.125-12.294-2.097-18.643.036-.197 4.552-2.406 9.918-.447-.297 7.203-1.296 15.605-1.537 21.351-.108 2.578 1.156 5.731 1.127 6.355 0 0-4.125 2.927-8.372-4.291.396-.329 1.241-1.103.961-4.325" fill="#E6E8F4"/><path d="m171.223 139.016-.028.458c-4.575-1.483-8.485-.186-9.655.368l-.029-.479c1.538-.691 5.374-1.715 9.712-.347m.885 28.071c-.602-2.483-.797-4.475-.794-5.112.003-.636-1.427-.044-1.368 1.267.046 1.055 2.518 5.313 2.162 3.845" fill="#6B78B7"/><path d="M163.713 166.115c.013.067-.95.559-1.25.725-.26.144-.951-.551-.83-.782s.587-1.44.744-1.431c.156.01 1.271 1.161 1.336 1.488m4.45 4.516c.001.061-.935.33-1.229.427-.254.083-.746-.65-.599-.834s.765-1.171.902-1.137c.137.036.924 1.244.926 1.544m1.739 1.614c.014.053-.74.503-.976.654-.202.13-.799-.397-.714-.59.087-.194.4-1.199.528-1.199.128-.001 1.092.873 1.162 1.135m2.115 1.888c.017.047-.616.502-.812.653-.169.131-.738-.29-.676-.467s.262-1.09.374-1.101c.113-.01 1.031.69 1.114.915m2.315.656c.027.036-.421.607-.556.793-.117.161-.734-.067-.726-.242s-.048-1.041.05-1.08c.098-.038 1.1.348 1.232.529m-12.08-10.373c.013.067-.95.559-1.251.726-.259.144-.951-.552-.83-.783.122-.231.588-1.44.744-1.431.157.01 1.271 1.161 1.337 1.488" fill="#070540"/><path d="M172.837 168.984c-.944-2.562-1.885-4.611-2.216-5.776-.301-1.059-3.343.358-4.883-.297-2.891-1.229-2.7-3.601-2.7-3.601-.097.019-2.592 1.058-2.603 3.56a.83.83 0 0 0 .198.533c.416.503 1.533 1.79 3.519 3.65 2.597 2.433 4.335 5.39 7.038 7.234 2.702 1.844 4.195 1.105 4.477.548.282-.559-2.251-4.277-2.83-5.851" fill="#ACB3D8"/><path d="M127.761 82.165s-3.198 1.174-3.946 1.51-2.356 3.013-4.368 4.974c-2.013 1.96-4.469 4.632-4.779 5.65-.311 1.017.462 3.126.219 4.076-.242.95-1.101 3.221-1.306 3.627-.206.407-.952.302-1.255-.345 0 0-1.978.392-2.701-.501-.47-.616-.717-2.298-.782-2.944s2.091-4.405 2.604-5.286 6.299-11.518 7.934-12.7c1.635-1.18 3.334-1.411 5.137-2.286 0 0 3.179 3.172 3.243 4.225" fill="#FFD2B3"/><path d="M109.625 101.156c-.175-.231-.32-.61-.436-1.028.399.048.954.059 1.581-.091 1.258-.3 2.408-2.96 1.806-1.265s-.25 2.885-.25 2.885-1.979.391-2.701-.501m14.894-23.216s3.178 3.172 3.241 4.225c0 0-3.197 1.174-3.946 1.51-.212.096-.496.384-.836.787l.002-.004c.867-1.096-.423-5.277-1.914-5.162 1.114-.477 2.26-.777 3.453-1.356" fill="#FFB98B"/><path d="M164.387 84.165s1.576.12 2.072-2.73-6.626-4.868-6.626-4.868 2.193 6.48 4.554 7.598" fill="#00B09D"/><path d="M166.196 74.744s7.789 3.77 8.959 4.081 2.666 6.795 1.983 6.762c-2.368-.116-14.856-4.22-15.236-4.502s.694-6.96 4.294-6.34" fill="#FFD2B3"/><path opacity=".4" d="M171.756 77.374c1.56.718 2.956 1.333 3.4 1.45 1.17.312 2.666 6.795 1.982 6.762-.81-.04-2.809-.547-5.1-1.209 1.845.097.354-5.493-.282-7.003" fill="#FFB98B"/><path d="m166.196 74.744.946.456c-1.03.139-2.042 6.328-1.864 7.08-1.882-.62-3.254-1.105-3.377-1.196-.38-.281.695-6.96 4.295-6.34" fill="#FFB98B"/><path d="M177.625 79.148s.124.663 1.238 2.119.519 3.644-.859 4.173c-1.377.528-3.257-.651-3.81-2.36s-.545-3.415-.545-3.415z" fill="#FFE5CF"/><path d="M178.385 76.137s-.138 2.763-.696 3.783c-.819 1.496-3.045 1.397-4.197.695-1.151-.701-1.684-2.945-1.699-3.488s.19-.814 1.04-.98 5.552-.01 5.552-.01" fill="#FFB98B"/><path d="M176.886 77.015s-.2.982.093 1.342c.293.359.864.174 1.097-.394s.417-1.626.506-2.248c.088-.621-.92-1.171-1.228-.68-.307.49-.381 1.586-.468 1.98" fill="#FFE5CF"/><path d="M175.366 78.214s-.008.813.569.96c.449.114.884-.174.985-.78.102-.605.472-2.791.421-3.417-.051-.627-1.228-.853-1.494-.338-.408.793-.535 2.957-.481 3.575" fill="#FFE5CF"/><path d="M173.801 77.874s-.004 1.027.691 1.192c.456.108.787-.314.891-.93.103-.615.511-3.01.46-3.646-.049-.636-1.365-.742-1.634-.217-.413.807-.461 2.97-.408 3.6" fill="#FFE5CF"/><path d="M172.459 77.008s.153.897.54 1.152c.388.254.876-.099.926-.715s.277-2.504.174-3.128-1.409-.615-1.63-.075c-.34.83-.117 2.15-.01 2.766" fill="#FFE5CF"/><path d="M152.917 59.47s.521-3.685-4.195-4.288c-3.971-.497-6.189 2.313-6.165 5.243.019 2.407-.615 2.74-3.579 2.15-2.965-.589-6.728.985-6.766 4.593-.066 6.153 2.728 7.834 9.142 9.034 6.415 1.201 10.269-6.6 9.264-10.08s.294-6.863 2.299-6.653" fill="#F07D18"/><path d="M159.011 105.993s3.334-1.412 2.665-3.724-3.854-7.81-3.017-12.832 1.597-4.017.597-8.3c0 0 3.35 2.663 5.131 3.027 0 0-1.524-.873-1.154-4.08.371-3.208 1.979-4.742 2.963-5.34 0 0-4.866-2.055-7.506-3.797-2.642-1.744-6.032-1.299-10.134-.699-5.505.805-11.867-.371-15.386.762-3.52 1.133-6.622 5.246-10.425 7.65-.921.583 3.384 6.44 6.905 5.098.635-.243 3.218-1.975 3.678-2.252s3.094 1.552 4.114 7.85c.575 3.557.281 11.959-.183 13.384-.465 1.424-.089 1.995 1.179 2.212 1.266.217 12.731 4.267 20.573 1.041" fill="#5BCFDE"/><path d="M162.739 83.485c-1.669-.907-3.484-2.348-3.484-2.348s-1.144-3.58-1.105-4.904c.041-1.314 3.22 6.555 4.589 7.252m.164.088-.125-.066c.301.132.303.142.125.066m-14.417-13.316.069-.008c2.684-.393 5.06-.714 7.123-.405-1.033-.107-4.001.093-1.789 1.128 2.382 1.114 3.785 4.228 1.881 4.89s-7.2-2.02-7.2-2.02c-.405-1.255-.349-2.486-.084-3.585" opacity=".5" fill="#00B09D"/><path d="M152.918 68.91c-.696.314-1.823.495-2.477.56.025.356.491 2.818.275 4.192-.282 1.787-6.783-1.83-6.549-3.113 0 0 1.749-3.224 1.1-5.57 0 0 8.346 3.616 7.651 3.93" fill="#FFB98B"/><path opacity=".33" d="m147.344 65.901-.003.004a.8.8 0 0 0-.449-.084c-.572.065-1.083.26-1.495.665.031-.516.002-1.03-.13-1.507 0 0 .897.39 2.077.922m-.484 1.392s6.618 1.363 6.058 1.616c-.695.315-1.823.497-2.477.562-2.484-.665-3.581-2.178-3.581-2.178" fill="#FFB98B"/><path d="M152.706 58.809c.752 1.5.693 9.01.596 9.764-.063.481-1.388.551-2.322.356-1.765-.368-3.722-1.32-3.992-1.51-.413-.292-.556-1.329-.6-1.874-.385.27-1.222-.149-1.474-1.02-.073-.368.984-.713 1.44-.573.345.379.583.819.631 1.017-.42-3.135 2.199-3.382 1.818-5.797-.185-1.178 2.43-.443 2.685-.577.255-.135.465-1.285 1.218.214" fill="#FFD2B3"/><path opacity=".5" d="M138.928 87.172c1.67 2.452 7.109 5.125 7.257 6.094.149.968-8.227-2.684-8.45-.038-.04-1.498-.133-2.875-.295-3.872-1.019-6.298-3.654-8.127-4.114-7.85 0 0 3.038-2.291 3.853-2.237s.078 5.45 1.749 7.903" fill="#00B09D"/><path d="m158.158 44.51 1.093-2.82-1.853-1.384-2.97 1.088-1.02 2.5 1.834 1.607z" fill="#F4F3F3"/><path d="m153.586 43.738.891-2.183c.02-.05.06-.09.111-.107l2.695-.987a.19.19 0 0 1 .18.026l1.543 1.154a.19.19 0 0 1 .064.221l-.961 2.48a.2.2 0 0 1-.116.112l-2.623.892a.19.19 0 0 1-.187-.038l-1.546-1.354a.19.19 0 0 1-.051-.217" fill="#fff"/><path d="m153.408 43.894-1.645 2.105.76 2.77 2.12-.247.599-3.022z" fill="#070540"/><path d="m159.251 41.69 3.034.446.67-.765a7.06 7.06 0 0 0-4.898-1.75l-.659.684z" fill="#F4F3F3"/><path d="M158.184 39.724a6.95 6.95 0 0 1 4.467 1.531.19.19 0 0 1 .022.275l-.362.413a.19.19 0 0 1-.172.063l-2.8-.411a.2.2 0 0 1-.086-.036l-1.523-1.138a.19.19 0 0 1-.023-.285l.34-.353a.2.2 0 0 1 .137-.059" fill="#fff"/><path d="m157.398 40.306.659-.684a7.07 7.07 0 0 0-4.02 1.41l.391.361z" fill="#070540"/><path d="m153.408 43.894 1.02-2.5-.391-.362q-.58.434-1.078 1a7.05 7.05 0 0 0-1.702 3.797l.505.17z" fill="#F4F3F3"/><path d="M151.527 45.807a.19.19 0 0 1-.129-.21 6.94 6.94 0 0 1 2.504-4.325.19.19 0 0 1 .249.01l.054.05a.19.19 0 0 1 .048.212l-.927 2.272a.2.2 0 0 1-.027.045l-1.49 1.907a.19.19 0 0 1-.211.064z" fill="#fff"/><path d="m151.763 45.999-.505-.17a7.1 7.1 0 0 0 1.26 4.978l.005-2.038z" fill="#F4F3F3"/><path d="M152.053 49.832a6.96 6.96 0 0 1-.726-3.618.19.19 0 0 1 .375-.035l.707 2.58a.2.2 0 0 1 .007.05l-.003.935c0 .2-.27.266-.36.088" fill="#fff"/><path d="m156.959 50.551-1.158-1.014-1.159-1.015-2.12.247-.004 2.038c.312.438.679.849 1.101 1.22.423.37.878.679 1.354.931l2.019-.272z" fill="#F4F3F3"/><path d="M153.69 51.946a7 7 0 0 1-1.028-1.122.2.2 0 0 1-.037-.115l.004-1.676a.19.19 0 0 1 .169-.19l1.727-.2a.2.2 0 0 1 .147.045l2.118 1.856a.2.2 0 0 1 .066.14l.027 1.739a.19.19 0 0 1-.165.192l-1.661.224a.2.2 0 0 1-.12-.021 7 7 0 0 1-1.247-.872" fill="#fff"/><path d="m160.475 46.539-1.158-1.015-1.159-1.015-2.916.992-.599 3.021 1.158 1.015 1.158 1.014 2.916-.99z" fill="#F4F3F3"/><path d="m154.78 48.374.533-2.685a.19.19 0 0 1 .126-.143l2.591-.881a.19.19 0 0 1 .187.037l2.059 1.803a.19.19 0 0 1 .061.181l-.533 2.685a.19.19 0 0 1-.126.143l-2.591.881a.19.19 0 0 1-.187-.037l-2.059-1.804a.19.19 0 0 1-.061-.18" fill="#fff"/><path d="m160.475 46.538 2.651-1.453 1.616 1.654-.688 3.087-2.344 1.34-1.835-1.606z" fill="#F4F3F3"/><path d="m160.013 49.412.539-2.716a.2.2 0 0 1 .095-.13l2.332-1.28a.19.19 0 0 1 .228.035l1.346 1.378a.19.19 0 0 1 .05.175l-.624 2.801a.2.2 0 0 1-.092.124l-2.047 1.17a.19.19 0 0 1-.22-.021l-1.546-1.355a.2.2 0 0 1-.061-.18" fill="#fff"/><path d="m162.285 42.135-3.034-.445-1.093 2.819 1.159 1.014 1.158 1.015 2.651-1.453zm-.575 9.032-1.871 1.907-2.846-.389-.034-2.134 2.916-.99z" fill="#070540"/><path d="m163.126 45.085-.84-2.95.669-.764a7.06 7.06 0 0 1 2.379 4.624l-.591.744z" fill="#F4F3F3"/><path d="m163.208 44.984-.776-2.722a.19.19 0 0 1 .04-.178l.363-.413a.19.19 0 0 1 .275-.014 6.95 6.95 0 0 1 2.106 4.227.2.2 0 0 1-.042.143l-.305.383a.19.19 0 0 1-.286.015l-1.328-1.36a.2.2 0 0 1-.047-.081" fill="#fff"/><path d="m164.742 46.74.591-.745a7.07 7.07 0 0 1-.869 4.171l-.41-.34z" fill="#070540"/><path d="m161.71 51.167 2.344-1.34.41.34a7.1 7.1 0 0 1-4.389 3.386l-.236-.479z" fill="#F4F3F3"/><path d="m160.062 52.998 1.694-1.727a.2.2 0 0 1 .042-.032l2.13-1.218a.19.19 0 0 1 .216.019l.057.047c.072.06.091.165.042.246a7 7 0 0 1-.709.964 6.94 6.94 0 0 1-3.249 2.087.19.19 0 0 1-.226-.1l-.033-.067a.19.19 0 0 1 .036-.22" fill="#fff"/><path d="m159.839 53.074.236.479a7.1 7.1 0 0 1-5.101-.595l2.019-.272z" fill="#F4F3F3"/><path d="m157.019 52.796 2.649.361a.19.19 0 0 1 .145.106.19.19 0 0 1-.131.271 6.96 6.96 0 0 1-3.678-.242c-.19-.066-.162-.345.038-.37l.925-.126a.2.2 0 0 1 .052 0" fill="#fff"/></svg>