<svg width="400" height="200" viewBox="0 0 460 230" fill="none" xmlns="http://www.w3.org/2000/svg"><path d="M137.529 168.037c-5.52.546-6.455 1.481-7.001 7.001-.021.21-.327.21-.348 0-.546-5.52-1.481-6.455-7.001-7.001-.21-.021-.21-.328 0-.348 5.52-.546 6.455-1.481 7.001-7.001.021-.21.327-.21.348 0 .546 5.52 1.481 6.455 7.001 7.001.21.02.21.327 0 .348M48.81 46.746c-5.52.546-6.456 1.48-7.002 7.001-.02.21-.327.21-.348 0-.546-5.52-1.48-6.455-7-7.001-.21-.02-.21-.328 0-.348 5.52-.546 6.455-1.481 7-7.001.02-.21.328-.21.348 0 .546 5.52 1.481 6.455 7.001 7 .21.021.21.328 0 .349m279.16-2.427c-5.52.546-6.455 1.48-7.001 7-.021.21-.328.21-.348 0-.546-5.52-1.481-6.455-7.001-7-.211-.02-.211-.328 0-.348 5.52-.546 6.455-1.481 7.001-7.001.02-.21.327-.21.348 0 .546 5.52 1.481 6.455 7.001 7 .21.021.21.328 0 .349m107.428 143.445c-5.52.546-6.455 1.481-7.001 7.002-.02.21-.327.21-.348 0-.546-5.52-1.481-6.456-7.001-7.002-.21-.02-.21-.327 0-.348 5.52-.546 6.455-1.481 7.001-7.001.021-.21.328-.21.348 0 .546 5.52 1.481 6.455 7.001 7.001.211.021.211.328 0 .348m-196.951-55.195c-5.52.545-6.455 1.48-7.001 7.001-.021.21-.327.21-.348 0-.546-5.52-1.481-6.455-7.001-7.001-.21-.021-.21-.328 0-.349 5.52-.546 6.455-1.48 7.001-7.001.021-.21.327-.21.348 0 .546 5.52 1.481 6.455 7.001 7.001.211.021.211.328 0 .349m-90.118-17.482c-2.76.273-3.227.741-3.5 3.501-.011.105-.164.105-.174 0-.273-2.76-.741-3.228-3.501-3.501-.105-.01-.105-.164 0-.174 2.76-.272 3.228-.74 3.501-3.5.01-.106.164-.106.174 0 .272 2.76.74 3.227 3.5 3.5.106.01.106.164 0 .174" fill="#64A07A"/><path d="M433.415 42.992c-2.76.273-3.227.74-3.5 3.5-.011.106-.164.106-.174 0-.273-2.76-.741-3.227-3.501-3.5-.105-.01-.105-.163 0-.174 2.76-.272 3.227-.74 3.501-3.5.01-.106.163-.106.174 0 .272 2.76.74 3.228 3.5 3.5.105.01.105.164 0 .174M78.958 185.125c-2.76.273-3.227.741-3.5 3.501-.011.105-.164.105-.174 0-.273-2.76-.74-3.228-3.5-3.501-.106-.01-.106-.163 0-.174 2.76-.273 3.226-.741 3.5-3.501.01-.105.163-.105.174 0 .272 2.76.74 3.228 3.5 3.501.106.011.106.164 0 .174m253.43-54.776c-2.76.272-3.227.74-3.501 3.5-.01.106-.163.106-.174 0-.272-2.76-.74-3.227-3.5-3.5-.106-.011-.106-.164 0-.174 2.76-.273 3.227-.741 3.5-3.501.011-.105.164-.105.174 0 .273 2.76.741 3.228 3.501 3.501.105.01.105.164 0 .174m-90.196-90.974c-2.76.273-3.228.74-3.501 3.5-.011.106-.164.106-.174 0-.273-2.76-.74-3.227-3.5-3.5-.106-.01-.106-.163 0-.174 2.76-.272 3.227-.74 3.5-3.5.011-.105.164-.105.174 0 .273 2.76.741 3.228 3.501 3.5.105.01.105.164 0 .174m-7.333 132.867c-2.76.273-3.228.74-3.501 3.5-.011.106-.164.106-.174 0-.273-2.76-.741-3.227-3.501-3.5-.105-.011-.105-.164 0-.174 2.76-.273 3.228-.741 3.501-3.501.011-.105.164-.105.174 0 .273 2.76.741 3.228 3.501 3.501.105.01.105.163 0 .174" fill="#F1976A"/><path d="M94.222 121.168s4.631 5.894 6.917 11.908c2.613 3.636.612 10.49-3.266 12.304-.549.257-1.094.521-1.601.854l-28.693 18.778c-5.65-1.047-5.9-3.869-1.623-8.179l1.482-.181a4.1 4.1 0 0 0 1.894-.736c1.279-.916 3.664-2.809 5.585-5.398 2.766-3.729 7.478-11.708 14.073-11.849 0 0-5.232-4.811-12.028-7.429z" fill="#FA9999"/><path d="M68.884 156.356a.389.389 0 0 0-.69-.261c-.227.279-.467.521-.757.557l-1.482.181c-4.277 4.31-4.027 7.131 1.624 8.179l2.088-.911a.52.52 0 0 0 .172-.83c-1.053-1.156-1.034-5.01-.955-6.915" fill="#FFF6E3"/><path d="m94.943 122.13-5.273 1.694-12.71 7.416c2.157.831 4.156 1.882 5.88 2.931 7.838-2.936 12.102-12.039 12.103-12.041" fill="#1B2236"/><path d="M85.26 104.809s2.234.684 2.137 3.242c-.022.588.245 1.175.736 1.497.6.393.92 1.212 1.089 1.93a3.15 3.15 0 0 0 1.148 1.798c.715.539 1.551 1.667 1.446 3.983a29 29 0 0 1 3.608 4.149s-7.818 13.131-21.29 10.986l7.138-27.949z" fill="#E4C8FF"/><path d="M86.584 111.425s-3.007 6.194-8.06 10.404m9.202-4.751s-4.871 4.631-9.502 6.195m7.999-1.143-8 2.639" stroke="#707074" stroke-width=".963" stroke-miterlimit="10" stroke-linecap="round" stroke-linejoin="round"/><path d="m81.742 132.013 1.008-2.045a8 8 0 0 1-.273-.844c-.196-.764-.239-1.589.031-2.331.28-.768.864-1.38 1.286-2.081.106-.176.205-.368.201-.574-.01-.548-.68-.813-.974-1.275-.392-.615-.03-1.456.514-1.941.161-.144.356-.314.326-.528-.026-.187-.221-.305-.407-.342s-.38-.022-.56-.079c-.306-.097-.517-.391-.601-.701-.148-.54.02-1.094-.01-1.637-.655.154-1.214.406-1.821-.027-.822-.586-1.035-1.444-2.32-.884l-.008.01-4 15.66a18.1 18.1 0 0 0 7.608-.381" fill="#707074"/><path d="M66.924 155.951a.61.61 0 0 1 .73.806c-.705 1.862-5.75 8.348-.738 6.706.513-.168 1.076-.059 1.443.336l.186.2a.748.748 0 0 1-.248 1.195l-1.23.539s-2.165 4.12-3.277 5.533c.06 2.737-.482 6.947-2.316 7.639-1.835.691-3.398-3.789-3.368-6.496.03-2.706 1.503-5.954.932-8.661s-3.338-7.036 1.804-10.825c0 0 2.769.914 4.758 2.766.326.303.785.413 1.214.292z" fill="#3353A4"/><path d="M61.475 178.905c.153-.058.295-.149.431-.254-2.65-1.095-2.145-5.64-2.145-5.64l1.357-5.454c.42-1.684.446-3.45.014-5.13-.732-2.847.63-6.177 2.442-8.224a15.7 15.7 0 0 0-2.73-1.28c-5.143 3.789-2.376 8.12-1.805 10.826.572 2.707-.902 5.954-.932 8.66s1.533 7.187 3.367 6.496" fill="#B5C4CD"/><path d="M88.99 138.669c-3.398.073-6.295 2.227-8.684 4.807 2.668-2.16 7.233-1.459 10.382-1.297.938.048 1.33-1.167.555-1.697-.854-.584-1.5-1.206-2.253-1.813" fill="#DE7373"/><path d="M94.943 137.244c-1.022 2.587-.601 5.126.963 6.232" stroke="#DE7373" stroke-width=".963" stroke-miterlimit="10" stroke-linecap="round" stroke-linejoin="round"/><path d="M53.204 123.974c-1.665 1.325 4.05 6.817 7.699 8.42l1.202-7.899s-7.337-1.764-8.9-.521" fill="#1B2236"/><path d="M76.02 127.963s-5.742 21.447-12.447 23.55c0 0-22.925 24.294-26.166 28.435-3.487 4.454-3.838 9.507-3.838 9.507s-3.947-.357-8.035-8.298c0 0 3.044.409 7.923-7.102 3.67-5.651 9.96-20.249 14.535-24.061a20.7 20.7 0 0 1 4.561-2.872 8.67 8.67 0 0 0 5.036-7.758l.194-14.595c6.59-.717 12.695.258 18.237 3.194" fill="#FA9999"/><path d="m57.784 124.769-.058 4.343c1.134.85 2.386 1.485 3.695 1.947a2.44 2.44 0 0 0 2.545-.604l1.718-1.751-.281 1.645c-.15.873.5 1.678 1.385 1.723 3.168.162 6.205-.349 8.327-1.032l.255-3.405c-5.369-2.676-11.253-3.555-17.587-2.866" fill="#DE7373"/><path d="m104.385 58.589-.711-.794a1.83 1.83 0 0 1-.469-1.202c-.013-1.956-.352-3.889-1.315-5.371-2.788-4.292-8.27-4.751-11.968-1.564-2.994 2.579-3.302 7.337-1.443 9.784.365.48.31 1.157-.114 1.585l-5.058 5.11 10.05 3.037 3.391-4.871q.334.12.66.219c2.376.733 4.85-.767 5.32-3.209.12-.624.229-1.295.313-1.99l1.092-.095a.384.384 0 0 0 .252-.64" fill="#FA9999"/><path d="M98.63 60.292a1.19 1.19 0 1 0 0-2.38 1.19 1.19 0 0 0 0 2.38" fill="#FA8787"/><path d="M99.486 52.51c.32-.562.909-.914 1.552-.853l1.169.11a7 7 0 0 0-.316-.546c-2.789-4.292-8.27-4.75-11.969-1.564-2.993 2.58-3.302 7.337-1.442 9.785.364.48.309 1.157-.115 1.584 1.595.196 5.605.326 7.71-2.868.444-.672.701-1.508.85-2.264.21-1.058.862-1.95 1.765-2.54.296-.194.58-.465.796-.844M59.099 98.193c-.891 1.383.962 4.21 5.974 6.014l4.49-6.014s-8.94-2.365-10.464 0" fill="#1B2236"/><path d="m66.877 98.514-1.684 4.21 11.147-.562z" fill="#DE7373"/><path d="M72.13 101.441h-6.715c-.658 0-1.192.533-1.192 1.191v.332s-5.34 4.204-4.627 12.975c.064.789-.35 1.527-.938 2.057-.979.88-1.546 1.986-1.69 3.174-.129 1.05-.936 1.864-1.973 2.072-1.113.224-1.79.732-1.79.732 1.62-.499 3.975 2.931 8.976 5.251a1.99 1.99 0 0 0 2.281-.428l2.855-3.018-.384 3.071a1.976 1.976 0 0 0 1.728 2.206c2.228.274 4.78.264 7.717-.185 0 0 5.694-11.708 6.977-25.741z" fill="#E4C8FF"/><path d="M67.519 101.441c5.608 2.197 11.546 9.28 18.801 3.992l-16.215-4.004z" fill="#D3D5F2"/><path d="M71.505 79.91s-5.249 1.864-11.865 2.105c.32 3.615-4.72 10.193-6.808 13.664a1.92 1.92 0 0 0 .138 2.184l1.98 2.496 1.614 3.817a.82.82 0 0 1-1.452.751l-1.02-1.645a.547.547 0 0 0-.832-.118l-.688.622c-.255.23-.441.526-.539.856l-1.471 4.973a1.25 1.25 0 0 1-1.366.882l-.682-.095-.166.48a1.05 1.05 0 0 1-2.021-.55l.082-.411-.682-.126a.883.883 0 0 1-.692-1.099l.351-1.301-.256-.037a.91.91 0 0 1-.75-1.128l.758-2.902c.105-.4.28-.778.516-1.118l1.635-2.348c.488-.7.824-1.493.989-2.33.764-3.878 3.167-15.649 5.1-20.458a3.65 3.65 0 0 1 1.606-1.831c4.462-2.492 14.58-6.34 14.58-6.34s3.067-3.067 7.999-2.225z" fill="#FA9999"/><path d="M64.34 81.576c4.238-.627 7.165-1.666 7.165-1.666l.75-1.637 1.399-9.711s-7.884 6.947-9.313 13.014" fill="#DE7373"/><path d="M99.996 82.015c-2.406 5.172-5.653 6.555-5.653 6.555s-1.264 3.428-5.053 6.496c.301 3.187-1.985 5.833-1.985 5.833 1.745 2.526-.42 5.697-5.172 5.593-4.754-.104-9.021-3.007-13.412-5.894-4.39-2.886-8.787-3.427-9.622-2.405 1.142-1.504 2.766-3.208 4.45-3.428-.3-5.112 1.263-9.563 5.834-12.21.42-6.795.601-14.133 7.879-16.418s18.78.324 23.343 2.447z" fill="#9AA194"/><path d="M90.977 89.419c-1.83 0-3.707-.642-5.43-1.88-2.684-1.928-4.515-4.982-4.778-7.97a.222.222 0 0 1 .442-.04c.252 2.864 2.012 5.796 4.595 7.65 2.186 1.572 4.622 2.138 6.86 1.597a.221.221 0 1 1 .104.43 7.6 7.6 0 0 1-1.793.213" fill="#505E43"/><path d="m99.996 82.015.112-2.476-3.572-1.776-1.639 9.088c.057.46.081.924.089 1.359 1.066-.678 3.258-2.43 5.01-6.195" fill="#1B2236"/><path d="M74.758 70.074c1.511-.326 5.319-.94 11.38-.57a1.25 1.25 0 0 1 1.1 1.666c-.741 2.091-2.067 5.862-2.918 8.473a1.817 1.817 0 0 1-2.087 1.22c-3.263-.661-7.642-1.065-9.677-1.23a1.14 1.14 0 0 1-1.045-1.244c.167-1.738.661-5.074 2.084-7.486a1.78 1.78 0 0 1 1.163-.829M28.426 179.486c.504-.329.859-.604 1.129-.894a.47.47 0 0 1 .786.17c.747 2.055 2.712 3.522 5.084 3.817a.47.47 0 0 1 .343.726c-.307.456-.668 1.078-.807 1.655-.26 1.082-3.08 2.53-5.152 1.182s-1.383-6.656-1.383-6.656" fill="#FFF6E3"/><path d="M58.069 138.73a.576.576 0 0 0-.75.53c-.13 3.265-1.682 6.442-4.734 7.848-1.184.545-2.629 1.179-3.955 2.127a.367.367 0 0 0 .03.623c3.25 1.763 7.312 5.412 9.446 7.469a2751 2751 0 0 1 5.467-5.815c2.684-.841 5.548-4.721 7.656-9.139a.62.62 0 0 0-.494-.887c-4.92-.45-10.312-2.01-12.666-2.756" fill="#2C2D66"/><path d="M81.211 79.53a.223.223 0 0 0-.24-.202.22.22 0 0 0-.202.24q.047.527.159 1.054.239.04.472.083a9 9 0 0 1-.189-1.175" fill="#D3D5F2"/><path d="M82.289 92.523a21 21 0 0 1-2.771-.185.222.222 0 0 1 .058-.44c6.681.879 10.691-1.8 10.73-1.827a.222.222 0 0 1 .25.365c-.141.1-3.106 2.087-8.267 2.087m-.434 11.832c-3.663 0-6.892-2.705-9.806-5.145-2.58-2.162-5.018-4.204-7.417-4.203a.222.222 0 0 1 0-.444c2.56 0 5.057 2.092 7.702 4.307 3.673 3.077 7.472 6.26 12.008 4.588a.222.222 0 0 1 .153.416 7.6 7.6 0 0 1-2.64.481" fill="#505E43"/><path d="M50.288 99.065c.691 1.594-1.044 4.393-3.329 4.573m-.492-.171 4.181 1.462m-3.69-1.291-1.13 3.095m1.032 2.466 1.698-4.991m.142 5.412 1.34-4.904" stroke="#DE7373" stroke-width=".963" stroke-miterlimit="10" stroke-linecap="round" stroke-linejoin="round"/><path d="m96.9 57.343-.991-1.18a1.58 1.58 0 0 0-2.79 1.016l-.054 2.03a1.015 1.015 0 0 0 .946 1.04l.512.034z" fill="#FA9999"/><path d="M101.754 56.983a.79.79 0 1 1-1.579-.002.79.79 0 0 1 1.579.002" fill="#1B2236"/><path d="M100.056 54.73q1.342.087 2.004.782" stroke="#1B2236" stroke-width="1.859" stroke-miterlimit="10" stroke-linecap="round" stroke-linejoin="round"/><path d="M94.142 56.875c.823-.395 1.372.143 1.675 1.004.103.29.01.598-.18.84-.307.39-.2 1.056.289 1.103m-1.243-1.539.993-.742m5.702 2.582c-.621.28-1.403.42-2.185-.401" stroke="#DE7373" stroke-width=".963" stroke-miterlimit="10" stroke-linecap="round" stroke-linejoin="round"/><path d="M96.748 64.302a3.84 3.84 0 0 1-1.902-1.312c-.317-.405-.971-.164-.942.349.086 1.502.808 2.591 1.52 2.866z" fill="#1B2236"/><path d="M99.173 67.933c3.15 1.275 5.284 3.039 5.834 5.361 0 0 7.698 1.764 10.024 6.496l9.322-15.998-.368-1.941a11.77 11.77 0 0 1 .578-6.419l.277-.72c.115-.3.174-.618.174-.939 0-.417.494-.638.805-.36.361.321.533.804.458 1.28l-.361 2.303 1.173-.842 3.099-5.547a.76.76 0 0 1 1.324.74l-.359.643 1.084-1.943a.76.76 0 0 1 1.363.666l-.823 1.949.132-.312a.648.648 0 1 1 1.19.51l-1.297 2.918.073-.164a.59.59 0 0 1 1.084.468l-1.045 2.49a12 12 0 0 1-1.433 2.506l-2.498 3.346s-1.116 17.943-6.198 24.582c-.374.488-.604 1.065-.752 1.662a4.7 4.7 0 0 1-.276.806c-.485 1.069-1.782 1.497-2.838.984l-20.007-9.72s-3.369 5.953-7.578 4.45c-3.772-1.347-4.535-11.06 2.02-18.013 1.486-1.574 3.815-2.054 5.82-1.242" fill="#FA9999"/><path d="M94.898 86.851c2.395-1.254 4.015-4.114 4.015-4.114l-2.745-1.413c-1.092-.562-2.297.469-1.947 1.647a18 18 0 0 1 .677 3.88" fill="#DE7373"/><path d="M94.982 72.19s.814 2.806 7.224 2.165m-.452 2.807c1.89 4.09 6.862 5.453 10.55 5.132m8.2 6.766s-.841 1.596-2.105 1.194m12.923-38.564-1.936 4.101m3.257-3.131-1.99 4.735m2.126-1.363-.995 2.215" stroke="#DE7373" stroke-width=".963" stroke-miterlimit="10" stroke-linecap="round" stroke-linejoin="round"/><path d="M82.975 107.67s1.175 4.335-1.985 9.408m-13.471 7.691s4.21-12.118 4.991-21.131" stroke="#D3D5F2" stroke-width=".963" stroke-miterlimit="10" stroke-linecap="round" stroke-linejoin="round"/><path d="M74.525 104.716c1.474 2.397-.9 6.011-3.306 6.872m.51.577 2.796-.12m-12.42-4.732h4.137c.501 0 .893.438.832.936-.289 2.337-1.548 8.185-6.893 7.284m5.012-12.229h4.822" stroke="#707074" stroke-width=".963" stroke-miterlimit="10" stroke-linecap="round" stroke-linejoin="round"/><path d="M27.942 179.317a.61.61 0 0 1 1.087-.014c.418.793.86 1.976.598 3.117-.453 1.967.54 3.205 2.023 3.07 1.061-.096 1.642-.555 1.917-1.194.214-.496.667-.845 1.207-.858l.273-.007a.747.747 0 0 1 .732.976l-.41 1.279s1.654 4.35 1.977 6.119c2.09 1.767 4.888 4.959 4.192 6.792s-5.09.039-7.098-1.775-3.468-5.068-5.874-6.432c-2.407-1.363-7.484-2.156-6.92-8.518 0 0 2.517-1.47 5.222-1.735.444-.043.83-.316 1.024-.717z" fill="#3353A4"/><path d="M41.538 198.597c.059-.153.084-.32.096-.491-2.575 1.261-5.648-2.126-5.648-2.126l-3.19-4.627c-.984-1.429-2.289-2.618-3.835-3.407-2.618-1.336-4.212-4.562-4.547-7.274-1.599.518-2.767 1.199-2.767 1.199-.564 6.362 4.513 7.155 6.92 8.519s3.865 4.617 5.874 6.432c2.008 1.814 6.401 3.608 7.097 1.775" fill="#B5C4CD"/><path d="M172.773 71.012c-3.632-.94-6.827 3.584-5.843 7.234-5.215 1.531-6.579 4.244-6.577 7.253-4.213 3.28-6.103 11.33.37 14.462 6.472 3.134 11.608.771 12.868-1.778 2.187.425 4.589-8.317 2.894-13.236 1.987-.927 2.224-3.843 1.522-4.815z" fill="#2C2D66"/><path d="m178.008 80.132-5.234-9.12-.027-.007c-1.41-.355-2.889.488-3.317 1.878-.642 2.086.265 3.871 1.31 4.852 3.263 3.061 5.528 2.015 7.58 3.265-.055-.352-.16-.657-.312-.868" fill="#1B2236"/><path d="M187.321 71.46c2.045-2.131 3.18-7.88-1.854-9.737-5.033-1.858-7.324 1.453-7.941 3.556-4.569 1.262-6.554 6.344-5.301 10.003s5.864 5.074 6.668 6.66z" fill="#2C2D66"/><path d="M190.089 82.695s5.17-1.046 8.82 1.672c1.634 1.217 3.529 1.995 5.492 2.424 4.651 1.015 12.164 2.865 14.846 4.73l-7.106 5.492-14.515-1.45z" fill="#FA9999"/><path d="M189.648 82.762s.52-.156 1.477-.264a4.5 4.5 0 0 1 2.67.524c1.202.655 2.983 1.787 3.996 3.188 2.182 1.17 2.413 3.527 2.413 3.527z" fill="#A33B82"/><path d="M179.623 139.835c0 1.12 2.803.216 3.45 0s-1.339-4.312-1.339-4.312-2.111 2.458-2.111 4.312m-3.524-21.072c-1.666 1.082 2.622 3.461 6.499 3.93l1.629-7.786s-5.722 2.292-8.128 3.856" fill="#1B2236"/><path d="M162.444 179.902c.138 1.891-1.925 2.791-4.199 2.456l-4.169 2.702-.111.478c-.492 2.131-3.075 2.846-4.477 1.217a4.4 4.4 0 0 1-.587-.869c-1.189-2.321-.437-4.951 1.092-6.762 1.528-1.811 2.813-2.986 3.348-5.219s3.703-4.693 5.324-3.711 2.444 2.956 2.444 2.956 1.307-.326 1.568.976c.26 1.301-.233 5.776-.233 5.776" fill="#FF861C"/><path d="M159.935 171.297c-.347-.404-.77-.8-1.27-1.103-1.621-.981-4.788 1.478-5.324 3.711s-1.82 3.409-3.348 5.219c-1.529 1.811-2.281 4.442-1.092 6.762.163.32.364.609.587.869.397.462.89.729 1.403.836-2.123-2.044-1.461-4.912-.271-6.819 1.193-1.911 3.322-1.836 3.447-4.542.11-2.376 3.253-5.365 5.868-4.933" fill="#FFF6E3"/><path d="M205.045 114.731s2.571 7.254 1.462 16.614c-.737 6.218-4.096 20.366-6.635 26.652-1.351 3.344-.715 9.105-7.607 12.929s-27.919 9.024-30.324 9.883c-2.406.858-4.035-.608-4.156-2.134-.121-1.527.914-2.551 1.847-2.62.934-.068 2.126-1.98 2.126-1.98s4.571-1.626 6.606-3.315 11.503-11.065 18.364-9.361l1.576-44.87z" fill="#DE7373"/><path d="M183.564 161.312c-2.494.386-5.113 1.711-7.481 3.267 2.467 1.711 10.362 6.812 16.181 6.347.496-.276.95-.563 1.372-.857.028-1.738-5.463-5.722-10.072-8.757" fill="#1B2236"/><path d="m188.304 116.529-.7 19.917c6.31 4.87 13.084 4.579 17.388 3.323.716-3.308 1.266-6.321 1.516-8.424 1.109-9.36-1.462-16.614-1.462-16.614z" fill="#FF861C"/><path d="M204.992 139.769q.223-1.035.423-2.023c-1.621.602-4.269 1.325-6.364.989-1.139-.182-1.301.733-1.153 1.755a19.9 19.9 0 0 0 7.094-.721" fill="#A33B82"/><path d="M200.71 137.296c.561 7.486.421 19.24.059 25.324-.363 6.084-6.614 11.779-15.202 5.824-7.33-5.083-18.722-12.007-21.902-13.927a2.45 2.45 0 0 1-1.134-1.655c-.204-1.087-.316-2.687.498-3.588.763-.842 1.722-.056 2.393.754a2.81 2.81 0 0 0 2.455 1.019l1.6-.164s1.62 1.381 5.084 1.397c3.465.015 8.54-.985 11.871 1.836 0 0-5.508-12.034-6.242-18.653s8.959-8.593 14.57-4.287c5.61 4.306 5.95 6.12 5.95 6.12" fill="#FA9999"/><path d="M194.759 131.176c-5.611-4.306-15.304-2.332-14.57 4.287.158 1.425.538 3.101 1.035 4.853.468-.624 1.061-1.175 1.746-1.66.897-.634 1.43-1.665 1.494-2.761l.109-1.85 1.246 1.163a4.07 4.07 0 0 0 3.499 1.025c4.521-.817 9.406-.331 11.391 1.063 0 0-.339-1.814-5.95-6.12" fill="#1B2236"/><path d="M169.476 150.882c.89-.036.862-.483.341-.989.9-1.182 2.283-3.595 1.418-4.828-.866-1.233-3.246-2.004-5.734-2.144-2.488-.139-3.551 1.466-5.743 1.081-2.191-.386-4.83.142-6.571 3.358s1.212 4.379 3.579 3.174c0 0 .938.919 2.727 1.458.907 2.609 3.501 4.938 5.841 2.922s4.142-4.032 4.142-4.032" fill="#FF861C"/><path d="M165.501 142.921c-2.489-.139-3.552 1.466-5.743 1.081-2.192-.386-4.831.142-6.572 3.358-.894 1.652-.548 2.761.318 3.286-.309-1.478 1.467-3.327 2.52-3.87 1.266-.654 1.924-1.38 4.149-.951 2.225.43 2.813-.184 3.942-.814 1.928-1.076 5.627-.165 7.014 2.628.391-.951.56-1.926.105-2.575-.865-1.232-3.245-2.003-5.733-2.143" fill="#FFF6E3"/><path d="M184.573 152.982c-3.172-1.367-7.143-.69-10.012-.702-3.465-.016-5.085-1.397-5.085-1.397l-1.6.164a2.81 2.81 0 0 1-2.455-1.019c-.671-.81-1.629-1.596-2.392-.754-.815.901-.703 2.501-.499 3.588a2.46 2.46 0 0 0 1.135 1.655c2.388 1.442 9.408 5.706 15.861 9.894-3.892-3.064.588-13.302 5.047-11.429m16.195 9.638c.155-2.611.27-6.267.306-10.181-2.62 1.773-8.354 4.118-16.049-1.571a117 117 0 0 0 1.406 3.248l.559 1.236c-3.551 2.871-3.877 8.62-1.963 12.719l.539.372c8.588 5.956 14.839.261 15.202-5.823" fill="#FFF6E3"/><path d="M186.991 155.353a7.4 7.4 0 0 0-1.035 1.034c1.673.729 2.236 3.527 2.013 4.278-.224.753.786 1.22 1.202.847.417-.373.512-.966-.037-1.758-.548-.792-1.645-3.162-2.143-4.401" fill="#D3D5F2"/><path d="M179.02 175.897c-5.627-.82-6.322-8.822-3.079-11.225-3.57 2.37-6.54 5.227-7.577 6.088-2.035 1.69-6.606 3.315-6.606 3.315s-1.192 1.912-2.126 1.981c-.933.068-1.968 1.092-1.847 2.619.121 1.526 1.75 2.993 4.156 2.134 1.426-.509 9.391-2.543 17.079-4.912" fill="#FFF6E3"/><path d="M198.704 126.061c-.448-.994-.646-2.085-.627-3.184.056-3.115-.851-5.87-.851-5.87l-15.451-1.866c-3.318 4.411-8.398 13.968-2.669 22.279.783.76.517 2.415.517 2.415.333-.773 1.4-1.887 2.426-2.602a3.93 3.93 0 0 0 1.627-2.711c.176-1.323.36-2.545.36-2.545l2.001 1.941c.682.661 1.614.971 2.531.817 3.891-.652 8.416-.169 12.142 2.561 0 0 .601-5.453-2.006-11.235" fill="#FF861C"/><path d="M175.18 86.564s-1.823-.583-3.089.07c0 0-5.868-5.119-10.925-7.818l10.578-21.532s2.726-1.323 3.747-2.893c.591-.908 1.173-3.262 1.559-5.085.125-.59-.633-.92-.942-.408-.485.802-.957 1.759-1.155 2.687-.592-.919-1.012-2.178-1.012-2.178s-.049-1.299-.162-2.445a1.74 1.74 0 0 1 .377-1.266c1.434-1.769 3.319-4.938 2.85-5.393-.523-.507-1.258.573-1.258.573s-.704-1.294-2.033.279c-1.092-.576-1.942.92-2.68 2.296a299 299 0 0 1-1.065 1.968s-.227-1.438.424-2.448-.235-1.359-.235-1.359l-.901 1.861a8 8 0 0 0-.79 3.485l.012 4.447a3.53 3.53 0 0 1-.72 2.154c-2.846 3.714-13.294 17.413-16.787 22.927a2.9 2.9 0 0 0 .109 3.262c2.298 3.108 8.11 10.299 16.486 15.991 1.405.956 2.679 2.12 3.691 3.519 1.626 2.246 3.239 3.267 3.239 3.267s3.296.854 5.19-3.056-.474-12.176-4.508-12.905" fill="#FA9999"/><path d="M173.936 95.06s2.967 2.052 6.284 2.815" stroke="#DE7373" stroke-width="1.036" stroke-miterlimit="10" stroke-linecap="round" stroke-linejoin="round"/><path d="M179.689 99.47c.626-1.293.784-3.062.572-4.879-1.374-2.93-3.213-6.46-4.315-6.993 2.624 3.46 1.702 11.713-2.804 13.818.794.752 1.357 1.11 1.357 1.11s3.295.854 5.19-3.056" fill="#1B2236"/><path d="m187.053 82.978 2.495-.208a6.87 6.87 0 0 1 4.684 1.356L199.425 88c2.752 2.054 3.945 5.718 2.963 9.104l-.058.2a5 5 0 0 0 .247 3.423c.684 1.523 1.591 3.948 1.737 6.361.04.65.228 1.277.564 1.825.517.845.683 1.646.727 2.202.036.462.2.892.436 1.283.204.337.332.751.406 1.205.46 2.818-1.449 5.47-4.132 6.004l-5.582 1.112c-3.514.7-7.124-.556-9.538-3.318l-.827-.946s-2.524 4.059-7.229 2.392c-2.415-.855-3.04-.084-3.04-.084s5.6-2.807 6.243-5.616c1.041-4.55-4.745-7.265-7.842-10.622 3.479.581 6.181-9.251.681-15.963z" fill="#FF861C"/><path d="M204.056 105.196c-.346-1.701-.95-3.28-1.448-4.399h-8.883l-1.904 3.921s2.086 1.137 4.028-.158a3.57 3.57 0 0 1 2.261-.578c1.595.124 4.136.436 5.946 1.214" fill="#1B2236"/><path d="M176.099 118.763s.172-.086.455-.242c-.336.095-.455.242-.455.242m28.027-1.453c-1.498 1.009-4.699 1.751-8.772 2.005-3.159.197-5.578-1.591-7.245-4.158-.604-.93-1.87-.961-2.561-.102-.762.949-1.742 1.736-2.838 2.088-1.302.418-2.155-.018-3.757-.116a25 25 0 0 1-2.398 1.495c.433-.121 1.225-.155 2.584.326 4.705 1.667 7.228-2.392 7.228-2.392l.827.946c2.415 2.762 6.024 4.018 9.538 3.318l5.583-1.112c2.602-.518 4.47-3.03 4.16-5.752-.443 1.634-1.141 2.641-2.349 3.454" fill="#A33B82"/><path d="m215.292 90.814-20.309 7.756-2.818-1.594a3.69 3.69 0 0 0-3.62-.018l-2.761 1.525c-.839.463-.893 1.742-.062 2.22l.03.017c.097 1.221 1.103 1.524 1.103 1.524s-.098 1.182 1.25 1.526c.47 1.508 1.77 2.346 3.716.949 1.923.897 4.272-1.54 4.272-1.54l17.804-.596c4.319-.144 7.609-4.33 6.66-8.74a8 8 0 0 0-.099-.403 3.914 3.914 0 0 0-5.166-2.626" fill="#FA9999"/><path d="M186.316 100.271s1.545-1.282 2.609-1.62m-1.405 2.956s1.544-1.282 2.608-1.619m-1.449 3.349s1.544-1.282 2.608-1.619m-.056 1.538s-.349.941-1.182 1.294m1.361-.168-.642-.373" stroke="#DE7373" stroke-width="1.036" stroke-miterlimit="10" stroke-linecap="round" stroke-linejoin="round"/><path d="M182.499 104.066s4.897 4.981 15.111 7.183m5.548-2.408s-.155 7.335-7.456 4.401" stroke="#B55F14" stroke-width=".94" stroke-miterlimit="10" stroke-linecap="round" stroke-linejoin="round"/><path d="M174.499 102.526c.312.338.651.669 1.008.996 5.111-1.93 5.085-11.603.812-17.303l-1.139.345c5.5 6.71 2.799 16.543-.681 15.962m12.555-19.548-7.98 2.41c.808.63.992 1.516 2.585 1.973 2.101.601 6.341 1.355 7.563 1.805.37-2.242.719-5.017.225-6.387z" fill="#A33B82"/><path d="M170.409 46.864c.204 1.294 2.956 2.533 1.649 6.004m1.544-11.122s-1.212 1.638-1.66 2.52c-.448.884-.677 1.915-.449 2.728m3.904-5.545s-1.517 2.387-2.274 3.414-.4 1.978-.4 1.978" stroke="#DE7373" stroke-width="1.036" stroke-miterlimit="10" stroke-linecap="round" stroke-linejoin="round"/><path d="M165.937 81.611c-1.285-.885-2.736-1.7-4.082-2.426a.764.764 0 0 1-.299-1.052l2.662-4.67a.265.265 0 0 0-.092-.358l-7.487-4.583a.48.48 0 0 0-.64.13c-2.157 3.008-3.859 5.993-5.025 7.835a2.9 2.9 0 0 0 .109 3.261c1.446 1.957 4.185 5.682 8.173 9.487.146.14.382.13.514-.023l6.222-7.14a.31.31 0 0 0-.055-.46" fill="#FFF6E3"/><path d="M201.961 120.623s-.696 1.165-1.618 2.385a5.11 5.11 0 0 0-.775 4.707 21.9 21.9 0 0 1 1.135 6.889m-10.968-12.698s4.189 1.139 7.051 3.892m-4.722 0s3.364.068 6.405 1.845" stroke="#B55F14" stroke-width=".94" stroke-miterlimit="10" stroke-linecap="round" stroke-linejoin="round"/><path d="M200.71 137.296s.065-.594.059-1.593c-2.228-2.55-7.864-3.175-11.495-2.719a3.73 3.73 0 0 1-2.852-.808 44 44 0 0 0-2.145-1.672.817.817 0 0 0-1.287.527l-.464 2.747a3.7 3.7 0 0 1-1.315 2.258 18.5 18.5 0 0 0-1.85 1.722c.463.826.263 2.077.263 2.077.333-.772 1.4-1.887 2.426-2.602a3.93 3.93 0 0 0 1.627-2.71c.176-1.324.36-2.545.36-2.545l2.001 1.94c.681.661 1.614.971 2.531.817 3.89-.652 8.415-.169 12.141 2.561" fill="#A33B82"/><path d="M203.158 95.448s6.868-3.617 11.871-3.309" stroke="#DE7373" stroke-width="1.036" stroke-miterlimit="10" stroke-linecap="round" stroke-linejoin="round"/><path d="M179.007 67.752c.671 1.91 1.21 5.153-1.412 7.735 0 0 1.493 2.224 1.105 4.322-.147.79-.074 1.606.286 2.316l1.425 2.814a2.52 2.52 0 0 0 1.639 1.32l6.264 1.527.337-3.059a3.27 3.27 0 0 0-.458-2.066l-2.063-3.363c1.775-.548 2.659-2.536 2.792-4.662a4.54 4.54 0 0 0-1.207-3.368l-.015-.016a3.6 3.6 0 0 1-.774-1.34 8 8 0 0 0-.56-1.302c-.69-1.26-2.082-1.94-3.438-1.637a5.97 5.97 0 0 1-3.042-.129c-.558-.166-1.072.358-.879.908" fill="#FA9999"/><path d="M184.463 73.285a1.2 1.2 0 1 1-2.4 0 1.2 1.2 0 0 1 2.4 0" fill="#FA8787"/><path d="M186.131 79.3c-1.259.548-3.103.702-4.612.113-.537-.21-.974.508-.547.908 1.56 1.458 4.045 1.562 6.286.814z" fill="#DE7373"/><path d="M182.772 70.46a.63.63 0 0 1-.688.57c-.34-.04-.584-.363-.545-.72a.63.63 0 0 1 .688-.57c.34.04.585.363.545.72m3.655-.376a.627.627 0 0 1-.687.571c-.341-.04-.585-.363-.545-.72a.627.627 0 0 1 .687-.57c.341.04.585.363.545.72" fill="#1B2236"/><path d="M184.157 69.157s-.007 1.288.688 1.884c.307.264.76.337 1.197.33.404-.007.614.497.326.793l-.424.438" stroke="#DE7373" stroke-width="1.036" stroke-miterlimit="10" stroke-linecap="round" stroke-linejoin="round"/><path d="M180.693 69.392c.178-.564.968-1.094 1.763-.615m2.664-.061s.51-.571 1.246-.105" stroke="#2C2D66" stroke-width="2" stroke-miterlimit="10" stroke-linecap="round" stroke-linejoin="round"/><path d="M187.096 73.51c-.625.428-2.228.845-3.246-.225" stroke="#DE7373" stroke-width="1.036" stroke-miterlimit="10" stroke-linecap="round" stroke-linejoin="round"/><path d="M178.117 76.453c.145.315.294.688.413 1.1.767-.392.987-1.59.987-1.59z" fill="#DE7373"/><path d="M179.341 76.287c-.581.82-1.836.874-2.803.123-.967-.75-1.28-2.024-.699-2.843.581-.82 1.836-.875 2.803-.124s1.28 2.025.699 2.844" fill="#FA9999"/><path d="M176.625 75.363c-.452-.582-.202-1.366.302-1.604.302-.142.671-.03.984.135a.92.92 0 0 1 .477 1.003c-.081.353-.041.742.566.682m-1.466-.652.424-1.033" stroke="#DE7373" stroke-width="1.036" stroke-miterlimit="10" stroke-linecap="round" stroke-linejoin="round"/><path d="M202.399 55.515a9.26 9.26 0 1 0-4.787-17.889 9.26 9.26 0 0 0 4.787 17.89" fill="#92A8B7"/><path d="M209.149 48.046c-1.995 1.655-4.42 3.09-7.368 4.099l-1.542.528a16.5 16.5 0 0 1-.206-2.261l1.034-.354c3.399-1.163 6.033-2.959 8.077-5a9 9 0 0 0-.198-.907q-.026-.095-.056-.189c-2.009 2.127-4.652 4.012-8.128 5.202l-.72.246q.044-1.178.27-2.427a17.7 17.7 0 0 0 5.609-3.244.5.5 0 0 0 .129-.101l.02-.029a18 18 0 0 0 1.835-1.874 9 9 0 0 0-.553-.806 17 17 0 0 1-1.671 1.76l-1.332-1.163a24.4 24.4 0 0 0-6.29-4.007 9 9 0 0 0-1.44.436c2.389.901 4.801 2.27 7.109 4.283l1.23 1.074c-.573.465-1.19.904-1.857 1.307l-.824-.719c-2.649-2.311-5.456-3.688-8.189-4.448q-.434.36-.817.767c2.789.69 5.676 2.03 8.385 4.393l.573.5q-1.043.552-2.238.981a17.7 17.7 0 0 0-5.607-3.233.5.5 0 0 0-.158-.064l-.036-.004a18 18 0 0 0-2.329-.615 9 9 0 0 0-.419.883q1.066.19 2.146.532l-.34 1.733a24.4 24.4 0 0 0-.357 7.169q.505.606 1.099 1.114c-.384-2.467-.39-5.173.185-8.101l.314-1.6c.689.263 1.378.577 2.061.953l-.211 1.072c-.671 3.415-.47 6.507.221 9.233q.527.211 1.08.358c-.786-2.75-1.062-5.902-.374-9.409l.147-.746q1 .627 1.969 1.447a17.7 17.7 0 0 0 .003 6.473.5.5 0 0 0 .024.169l.014.032c.163.815.381 1.595.639 2.343q.489-.002.982-.058a17 17 0 0 1-.627-2.163l1.671-.572a24.3 24.3 0 0 0 6.693-3.502q.245-.726.368-1.49" fill="#7D7D7D"/><path d="M252.512 62.337v-1.642a6.686 6.686 0 0 1 5.713-6.615l1.81-.266a6.685 6.685 0 0 1 7.328 4.54l.491 1.504z" fill="#304D96"/><path d="M267.363 58.355a7 7 0 0 0-.211-.56c-.776-.02-1.939.12-2.688.988 0 0-1.596-.923-4.959-.388-3.067.489-4.184 1.941-4.184 1.941s-1.558-.212-2.798.107c-.003.084-.011.167-.011.251v1.643l15.341-2.48z" fill="#1B2236"/><path d="m255.766 55.912 2.264 4.485 3.989-.539.647-4.98" stroke="#1B2236" stroke-width="1.036" stroke-miterlimit="10" stroke-linecap="round" stroke-linejoin="round"/><path d="m302.396 126.954.412 3.122q.07.535.263 1.039l.454 1.186a.37.37 0 0 1-.517.458l-2.55-1.343a2.75 2.75 0 0 1-.942-.811l-7.862-10.701 3.398-.5zm1.155-21.75c1.493 1.869-.051 5.951-2.895 7.762-2.844 1.812-9.543 6.534-13.179 4.916s-2.214-6.792-1.696-8.603c.517-1.811 12.704-10.415 17.77-4.075" fill="#1B2236"/><path d="m292.552 120.038 5.418 7.442a3.777 3.777 0 0 0 6.829-2.223 6.5 6.5 0 0 0-1.434-4.067l-3.569-4.429z" fill="#304D96"/><path d="m295.44 119.435 3.467 4.372a1.335 1.335 0 0 0 1.715.327l1.249-.721c.688-.397.88-1.303.411-1.945l-2.616-3.586z" fill="#FF861C"/><path d="m301.943 121-.274-.375-3.71 1.985.29.366zm.476.703-3.637 1.945.126.159q.087.107.191.193l3.433-1.836a1.3 1.3 0 0 0-.113-.461m-1.253-1.767-.273-.375-3.758 2.01.29.366zm-4.854.596.289.366 3.789-2.026-.274-.375z" fill="#1B2236"/><path d="M286.486 116.304c4.313 7.331 14.391 4.249 17.065.885 2.673-3.364 2.25-9.803-4.029-13.956 0 0-13.609-1.997-13.036 13.071m-33.208 19.432c.427 1.527 8.224 0 15.943-2.135s11.513-4.569 11.256-6.49-7.245-2.178-14.684.28-13.708 4.076-12.515 8.345" fill="#1B2236"/><path d="M259.373 129.549s-1.084 6.317 1.309 9.098c.388 3.688 1.164 5.434 3.234 6.922.841 4.205 7.051 14.296 11.644 17.53 1.165 6.145 7.763 4.852 10.674 2.005 2.911-2.846-.647-5.886-.647-5.886s-7.579-17.531-10.878-34.506c0 0-12.635-.143-15.336 4.837" fill="#1B2236"/><path d="m278.019 108.74 2.458 18.371c-6.555-2.157-25.703 5.175-27.199 8.625-1.237-3.623-.574-7.245.461-11.578-3.277-7.007.432-22.663.432-22.663l2.932-4.8 24.926-9s6.534-1.64 7.126 2.985c0 0 10.56 9.866 14.396 14.523-7.239-4.851-17.871 5.305-16.073 12.679 0 0-2.602.129-3.637-3.752-3.364-1.293-5.563-3.277-5.822-5.39" fill="#677A56"/><path d="M285.069 94.894s-9.491 1.054-12.312 3.631c-6.96.68-8.39 6.804-8.39 6.804 4.642-1.589 11.728-2.07 13.651 4.226q.091.297.186.577l-.186-1.392c.209 1.707 1.686 3.329 4.018 4.571-1.249-2.769-2.64-7.343-.709-11.366-2.66 1.977-3.359 4.94-3.359 4.94-.553-5.65 4.106-11.341 7.101-11.991m-28.945 11.991-3.094.888a67 67 0 0 0-.568 5.646c-.105 1.924 1.143 3.634 2.973 4.239 3.723 1.23 8.224 4.657 10.835 8.251 1.036 1.426 2.802 2.128 4.519 1.728a39 39 0 0 1 4.052-.737z" fill="#505E43"/><path d="M284.091 88.453c-.678 8.833-11.157 17.163-20.213 15.197v-3.906zm-38.287 21.667c-.185 2.586 11.299 2.415 11.299 2.415l-1.467-8.798s-9.487 1.553-9.832 6.383" fill="#1B2236"/><path d="M279.686 163.584a20.3 20.3 0 0 0 4.762-2.118 1.44 1.44 0 0 1 2.047.612l.884 1.861s5.48 6.907 6.869 14a2.588 2.588 0 0 1-2.543 3.078h-8.103a2.51 2.51 0 0 1-2.476-2.071 10 10 0 0 1-.017-3.258 3.58 3.58 0 0 0-.438-2.386c-.602-1.021-1.333-2.898-1.246-5.92l-.683-1.94a1.437 1.437 0 0 1 .944-1.858" fill="#304D96"/><path d="M284.699 175.043c2.303-1.595 5.4-1.117 7.068.023.213.146.485-.083.385-.322-.867-2.054-2.903-6.453-5.207-8.433l-5.132 1.855c.826 2.079 1.366 4.168 1.559 6.267a.846.846 0 0 0 1.327.61" fill="#FF861C"/><path d="M291.498 173.268a7.5 7.5 0 0 0-2.984-.804c-1.747-.096-3.511.412-5.198 1.475q.032.246.056.494l.003.013c1.664-1.095 3.405-1.621 5.115-1.523 1.177.064 2.298.429 3.329 1.054q-.149-.335-.321-.709m-9.24-3.89q.077.224.15.449c1.566-.955 3.193-1.409 4.794-1.32.653.036 1.287.17 1.9.382a17 17 0 0 0-.422-.611 7.4 7.4 0 0 0-1.453-.23c-1.668-.096-3.352.363-4.969 1.33m5.373.601a7 7 0 0 1 2.513.624 28 28 0 0 0-.372-.647 7.4 7.4 0 0 0-2.115-.436c-1.664-.092-3.34.361-4.95 1.319q.065.231.125.463c1.566-.959 3.195-1.414 4.799-1.323" fill="#1B2236"/><path d="M288.06 171.451a7.1 7.1 0 0 1 2.972.842 39 39 0 0 0-.339-.669 7.5 7.5 0 0 0-2.608-.633c-1.686-.095-3.388.373-5.021 1.361q.05.244.094.487c1.6-1 3.264-1.479 4.902-1.388m2.033 14.863c-.111-1.526-.409-3.37-.895-5.359h-1.82c.509 2.083 1.147 4.007 1.814 5.574.208.486.94.312.901-.215" fill="#1B2236"/><path d="M276.824 133.771a82.6 82.6 0 0 0-16.063 5.553c.413 3.23 1.216 4.851 3.155 6.244.122.607.358 1.339.682 2.153a72.8 72.8 0 0 1 14.857-5.085 183 183 0 0 1-2.631-8.865" fill="#304D96"/><path d="M277.642 136.711a76.2 76.2 0 0 0-16.201 5.665c.405 1.094.974 1.925 1.799 2.654a72.8 72.8 0 0 1 15.307-5.275q-.459-1.496-.905-3.044" fill="#677A56"/><path d="m265.814 106.454 12.205 15.87-1.079 9.143-19.349-15.94a15.4 15.4 0 0 1-4.612-6.435l-.835-2.207z" fill="#304D96"/><path d="M253.717 111.574c-.427-4.046 10.96-2.486 12.296-4.689-6.944-1.082-15.483 0-15.483 0z" fill="#1B2236"/><path d="M268.946 169.971a3.02 3.02 0 0 0 1.742-1.702l40.976-101.666a.931.931 0 1 1 1.728.697l-40.457 104.808a7.14 7.14 0 0 1-2.919 3.508l-11.937 7.346a2.966 2.966 0 0 1-4.24-1.268l-1.046-2.235a2.965 2.965 0 0 1 1.642-4.034z" fill="#4D4C4A"/><path d="m304.88 89.352-2.062-.802-2.507 6.22c.972-.174 1.173 1.503 1.138 3.469zm-15.884 33.492-6.462 16.032c1.214-.69 2.486-.674 3.422-.501l4.464-11.564c-.539-.933-1.252-2.416-1.424-3.967" fill="#D3D5F2"/><path d="M280.489 103.128s2.438-5.044 8.877-5.552" stroke="#505E43" stroke-width=".94" stroke-miterlimit="10" stroke-linecap="round" stroke-linejoin="round"/><path d="M274.442 114.819q-.654 0-1.126-.462c-1.737-1.705-1.166-8.071-.291-14.697l.457.06c-.819 6.196-1.441 12.741.156 14.308.279.274.618.376 1.037.312.557-.084.974-.371 1.273-.878 1.906-3.227-1.881-13.588-1.919-13.693l-.411-1.112.366.404v-.064c3.828 0 11.289 2.436 12.471 5.031.293.641.196 1.27-.28 1.819-.496.569-1.151.863-1.948.871h-.035c-3.097.001-7.609-4.282-9.377-6.092.925 2.751 3.197 10.246 1.529 13.07-.369.624-.907.994-1.6 1.099a2 2 0 0 1-.302.024m-.093-15.356.065.072c.062.068 6.138 6.723 9.777 6.723h.031c.669-.008 1.195-.241 1.605-.714.359-.413.428-.847.21-1.325-.997-2.187-7.647-4.613-11.688-4.756" fill="#FFF6E3"/><path d="m274.414 99.536-.066-.072c.915.032 1.963.182 3.05.42.15-.12.301-.238.448-.362-1.427-.333-2.788-.525-3.862-.525v.065l-.367-.405.411 1.113c.01.028.287.786.649 1.938q.208-.116.414-.237a77 77 0 0 0-.276-.844c.18.185.396.401.63.63q.202-.126.403-.256a38 38 0 0 1-1.434-1.465m-1.277 2.944c.106-.916.223-1.842.344-2.76l-.456-.06a180 180 0 0 0-.376 3.027q.246-.1.488-.207" fill="#677A56"/><path d="M297.23 84.892c.065 4.98-.149 6.63 3.419 9.04l.335-.832a1.134 1.134 0 0 1 1.213-.701c.733.073 1.18.847.915 1.534l-.1.258s3.469.754 4.245-2.817c2.523-2.213 1.941-5.123 1.941-5.123s1.229-3.494-5.046-5.37z" fill="#FF861C"/><path d="M286.494 162.078a1.44 1.44 0 0 0-2.046-.612 20.3 20.3 0 0 1-4.762 2.118 1.436 1.436 0 0 0-.944 1.858l.684 1.939c.792 1.949 3.595 2.337 5.838 1.518s2.534-3.384 1.957-5.293z" fill="#5A78C7"/><path d="m268.684 191.556.494 1.173c.416.988 2.692.971 5.085-.038s3.994-2.626 3.578-3.614l-.494-1.172z" fill="#1B2236"/><path d="M277.33 187.865c.416.988-1.186 2.606-3.578 3.614s-4.669 1.026-5.086.038c-.416-.988 1.186-2.606 3.578-3.614s4.669-1.026 5.086-.038" fill="#304D96"/><path d="m280.304 124.782 4.991-.578a7 7 0 0 1 1.914.047l1.116.186-.733 2.2 2.05 2.184c.726.774.851 1.937.304 2.848l-2.176 3.627a2.375 2.375 0 0 1-2.626 1.079l-.676-.173a4.5 4.5 0 0 1-1.998-1.113l-3.589-3.45z" fill="#FF861C"/><path d="m279.284 129.698-.403 1.941 2.997 2.881c.756-4.062-.403-9.253-.544-9.857l-.04.005z" fill="#1B2236"/><path d="m277.847 121.008 1.284 1.19.78.259a2.07 2.07 0 0 1 1.409 2.144l-.598 6.961a3.14 3.14 0 0 1-2.642 2.835l-2.189.345a1.022 1.022 0 0 1-1.131-1.325c1.21-3.784 1.866-7.778 2.013-11.964a.64.64 0 0 1 1.074-.445" fill="#FF861C"/><path d="m304.609 81.395-.966-.219-6.413 3.716c.017 1.297.017 2.365.068 3.282 5.226-.07 7.311-6.78 7.311-6.78" fill="#1B2236"/><path d="M293.371 81.221s2.329 3.089 3.752 4.383c1.337 1.216 6.159-1.12 8.961-4.843a1.38 1.38 0 0 0 .112-1.482l-1.785-3.324a.765.765 0 0 0-1.243-.149l-1.129 1.26s.453-3.235-1.747-3.623c-2.199-.389-9.574 3.59-6.921 7.778" fill="#FF861C"/><path d="M292.914 80.18c-.117-1.092 1.928-1.482 2.685-.068.849 1.585.978-1.973.978-1.973l-2.152-1.995c-1.166 1.146-1.901 2.555-1.511 4.037" fill="#1B2236"/><path d="M290.212 74.174s3.913 4.896 5.401 6.578c1.488 1.681 5.307-1.643 5.369-4.334.067-2.849-1.035-2.976-1.035-2.976s0-4.14-1.164-4.01c0 0-.831-7.744-3.52-6.88s-5.051 11.622-5.051 11.622" fill="#304D96"/><path d="m295.667 63.483-3.139 3.016c-1.373 3.38-2.316 7.676-2.316 7.676s.591.74 1.402 1.742c6.549-3.18 4.053-12.434 4.053-12.434" fill="#1B2236"/><path d="M288.239 60.31c3.752-1.358 7.18.389 7.762 4.593.604 4.358-1.997 11.045-9.116 10.698z" fill="#FF861C"/><path d="M253.741 72.042c4.957-4.072 12.505-9.213 22.017-12.462a15.9 15.9 0 0 1 6.643-.794c2.016.192 4.403.612 5.837 1.525 5.822-.647 8.313 7.905 3.235 12.808-3.752 3.623-6.987 2.33-6.987 2.33s1.294 3.234-.647 8.538c2.329 5.304-4.469 19.986-18.759 17.724-8.818-1.396-13.312-7.053-15.603-12.457-2.563-6.05-.813-13.042 4.264-17.212" fill="#FFF6E3"/><path d="M276.207 83.986s-2.911 4.917-8.927 6.275" stroke="#D3D5F2" stroke-width="1.036" stroke-miterlimit="10" stroke-linecap="round" stroke-linejoin="round"/><path d="M283.84 83.986c.789-2.155 1.039-3.962 1.063-5.355-2.646 8.31-15.412 19.177-28.779 13.115l-2.407 4.137c2.617 2.785 6.264 5.021 11.364 5.828 14.29 2.261 21.088-12.42 18.759-17.725" fill="#FF861C"/><path d="M282.985 85.214c-1.663 4.849-7.96 14.787-21.07 12.362" stroke="#B55F14" stroke-width=".94" stroke-miterlimit="10" stroke-linecap="round" stroke-linejoin="round"/><path d="M262.626 88.865s3.787 4.152 2.455 10.62c2.031 1.424 3.269 3.041 3.269 3.041l-5.246.602-2.719-1.766z" fill="#1B2236"/><path d="M269.198 66.416c1.94 4.62 2.697 10.282-.021 15.199-5.779.129-10.867-2.33-13.967-8.669z" fill="#FF861C"/><path d="M258.03 73.022c1.65 3.234 5.318 5.951 9.823 6.469 1.983-5.919-.152-10.35-.152-10.35z" fill="#1B2236"/><path d="m268.351 80.33 2.338 3.883a6.82 6.82 0 0 1 .947 4.172s1.38 1.984 1.079 4.27" stroke="#FF861C" stroke-width=".94" stroke-miterlimit="10" stroke-linecap="round" stroke-linejoin="round"/><path d="M279.959 59.577c4.614.604 6.9 6.34 4.269 13.585m5.175-8.841s.086 7.016-4.399 9.697" stroke="#D3D5F2" stroke-width="1.036" stroke-miterlimit="10" stroke-linecap="round" stroke-linejoin="round"/><path d="M247.157 81.839c-.484 2.31-.373 4.645.212 6.872.463 1.762.366 3.632-.217 5.358-.732 2.166-.891 4.086-.563 5.74.299 1.51.348 3.066-.045 4.555-.823 3.117-.74 5.756-.74 5.756 1.552-2.865 13.125-.994 19.378-2.72a1.71 1.71 0 0 0 1.225-2.008c-.315-1.478-1.053-3.748-2.749-5.363.906-4.787 0-8.668-1.811-11.385.844-1.882-.611-5.476-2.65-8.807-3.071-5.016-10.833-3.754-12.04 2.002" fill="#FFF6E3"/><path d="M266.407 105.391a13.5 13.5 0 0 0-.5-1.741c-5.636 2.674-14.992.383-19.744 2.445-.412 2.303-.359 4.025-.359 4.025 1.552-2.865 13.125-.994 19.377-2.72a1.71 1.71 0 0 0 1.226-2.009" fill="#FF861C"/><path d="M252.848 76.75c4.921.555 9.08 3.453 9.154 8.63a10.5 10.5 0 0 0 .501 3.072" stroke="#D3D5F2" stroke-width="1.036" stroke-miterlimit="10" stroke-linecap="round" stroke-linejoin="round"/><path d="m270.588 168.486-.007.014zm-1.642 1.485-14.512 5.454a2.966 2.966 0 0 0-1.642 4.034l1.046 2.235a2.965 2.965 0 0 0 4.24 1.268l1.482-.912a3.15 3.15 0 0 1-4.405-1.088 46 46 0 0 1-.701-1.243c-.647-1.207-.302-2.587.949-3.191s7.202-3.019 9.617-4.076c2.389-1.046 4.314-1.229 5.528-3.886a3.03 3.03 0 0 1-1.602 1.405" fill="#D3D5F2"/><path d="M255.757 91.566a3.72 3.72 0 1 0-5.26-5.261 3.72 3.72 0 0 0 5.26 5.26" fill="#677A56"/><path d="m254.171 63.933 1.868 6.832a7.13 7.13 0 0 0 3.387 4.337l.291.163a5.1 5.1 0 0 0 7.017-2.092l.314-.602a7.13 7.13 0 0 0 .764-4.058l-.877-8.116z" fill="#FA9999"/><path d="m266.893 64.653.625-.72a1.305 1.305 0 0 1 2.215 1.294l-.919 2.576c-.211.594-.773.99-1.404.99zM255.61 67.02l-.842-.45a1.305 1.305 0 0 0-1.606 2l1.778 2.079a1.49 1.49 0 0 0 1.665.423z" fill="#FA9999"/><path d="m255.098 66.747 1.025 2.953m11.236-5.379.292 3.058" stroke="#DE7373" stroke-width="1.036" stroke-miterlimit="10" stroke-linecap="round" stroke-linejoin="round"/><path d="M252.848 63.89c.417 1.643 1.458 3.261 2.771 4.87l-.893-5.277zm14.045-2.76.715 5.286c.727-1.864 1.005-3.642.579-5.286zm-8.082 6.08a.841.841 0 1 1-1.682 0 .841.841 0 0 1 1.682 0m5.108-.35a.841.841 0 1 0 0-1.682.841.841 0 0 0 0 1.683" fill="#1B2236"/><path d="m259.964 65.85.551.849c.147.226.225.489.225.758v1.812c0 .53.529.896 1.025.71l.738-.278" stroke="#DE7373" stroke-width="1.036" stroke-miterlimit="10" stroke-linecap="round" stroke-linejoin="round"/><path d="M261.143 71.25a6.5 6.5 0 0 0 2.299-.737c.384-.211.861-.026.97.397l.007.028a.67.67 0 0 1-.214.668c-.834.72-1.804 1.12-2.973 1.052a.67.67 0 0 1-.598-.45l-.035-.105a.654.654 0 0 1 .544-.854" fill="#1B2236"/><path d="m262.175 65.121 2.585-1.638m-8.636 2.171 2.687-.475" stroke="#1B2236" stroke-width="2" stroke-miterlimit="10" stroke-linecap="round" stroke-linejoin="round"/><path d="m252.23 64.321 16.466-2.674-.64-2.931s-2.285-.497-3.493.905c0 0-1.596-.924-4.959-.389-3.067.489-4.183 1.941-4.183 1.941s-2.2-.301-3.45.346z" fill="#304D96"/><path opacity=".69" d="m252.178 64.272.736 3.626c.242 1.192 1.191 2.128 2.393 2.316 4.3.67 8.449-.168 12.252-2.208a2.95 2.95 0 0 0 1.532-2.979l-.447-3.429z" fill="#D3D5F2"/><path d="m266.008 62.026-1.572.256-2.175 7.712a20 20 0 0 0 1.622-.432zm-7.942 8.41a18.6 18.6 0 0 0 3.22-.254l2.184-7.744-3.299.536z" opacity=".39" fill="#FFF6E3"/><path d="M373.562 64.843c4.154-3.237 10.191-3.321 11.732 0-1.755-1.597-5.437-.967-5.437-.967s5.309 0 5.608 3.784a1.977 1.977 0 0 1 2.377 1.219c3.489 0 4.731 2.816 3.875 6.096 1.97 1.766 1.413 6.81-2.227 6.558 1.028-.379 2.612-1.472 2.056-3.49-1.114 2.901-3.982 3.784-6.851 3.153s-12.246-5.045-12.246-5.045z" fill="#8A221E"/><path d="M373.208 68.447c.439 1.762.995 3.123 1.604 2.523 1.256-1.239 2.786-4.592 1.824-7.85a11.9 11.9 0 0 0-3.073 1.723z" fill="#1B2236"/><path d="m341.215 90.92-3.986-2.748a.59.59 0 0 0-.736.918l2.673 2.472-3.361-1.279a.491.491 0 0 0-.38.905l2.423 1.114-.694.835.368 2.697 2.451.784z" fill="#DE7373"/><path d="M349.417 50.692c-5.32-1.38-11.208 3.51-13.127 10.9-1.212 4.672-.744 10.164 1.276 13.798.259.466.46.972.617 1.497.45 1.504.731 4.668.866 6.545a8.8 8.8 0 0 1-.27 2.854 9257 9257 0 0 0-3.953 15.226c-.18.693 2.452 1.376 2.632.683.03-.117 2.931-11.27 3.949-15.228a8.8 8.8 0 0 1 1.152-2.625c1.03-1.574 2.814-4.202 3.938-5.298a7.5 7.5 0 0 1 1.266-1.008c3.534-2.193 6.613-6.765 7.825-11.436 1.918-7.39-.85-14.527-6.171-15.908m-5.597 29.523a25.5 25.5 0 0 0-2.139 3.282c-.192.347-.552.53-.891.443s-.565-.424-.564-.82a25.5 25.5 0 0 0-.274-3.909c-.063-.421.337-.766.674-.578a5.9 5.9 0 0 0 2.886.749c.387 0 .569.495.308.833m-1.454-2.348c-4.779-1.24-6.566-9.605-4.913-15.973 1.728-6.66 6.941-11.09 11.62-9.876 4.68 1.215 7.081 7.62 5.353 14.28-1.653 6.369-7.281 12.809-12.06 11.569" fill="#6E72A2"/><path d="m353.994 56.721-.208.8-.782-.202.232-.892.713.185q-.06-.134-.122-.267l-.534-.139.156-.599q-.07-.124-.143-.246l-.206.795-.782-.203.232-.892.68.176q-.091-.144-.185-.283l-.438-.114.093-.358q-.077-.097-.157-.192l-.129.5-.781-.203.231-.891.177.046a8 8 0 0 0-.354-.328l-.741-.193.082-.315q-.088-.06-.177-.114l-.098.38-.782-.204.149-.572q-.092-.045-.185-.086l-.158.608-.781-.203.174-.669-.096-.029-.098-.022-.173.67-.781-.203.157-.608c-.067-.008-.135-.01-.203-.015l-.148.572-.782-.203.099-.379q-.106.005-.21.014l-.082.315-.741-.193q-.235.05-.469.115l.177.046-.231.892-.782-.203.13-.5q-.116.044-.23.091l-.093.358-.438-.113q-.15.075-.3.158l.68.176-.231.892-.782-.203.207-.795q-.123.071-.245.145l-.155.6-.534-.14q-.119.086-.236.175l.713.185-.232.892-.781-.203.208-.801q-.132.104-.263.212l-.139.538-.362-.094q-.097.092-.192.187l.497.128-.232.891-.781-.202.101-.393a12 12 0 0 0-.29.324l-.005.018-.009-.002-.168.192.12.031-.232.892-.502-.13-.141.199.586.151-.232.892-.781-.203.085-.328q-.185.29-.361.595l-.206.796-.2-.052-.103.21.246.063-.232.89-.405-.104-.087.213.435.112-.232.892-.531-.138-.075.216.549.143-.231.892-.585-.152-.061.22.588.152-.231.891-.567-.147-.045.224.555.144-.232.892-.478-.125-.031.228.452.117-.231.892-.323-.084q-.01.117-.017.232l.282.073-.231.892-.1-.026-.005.234.047.013-.049.19q-.004.495.015.988l.721.187-.232.891-.426-.11.021.24.348.091-.226.87q.037.245.08.488l.051-.195.781.203-.231.891-.443-.115.057.251.328.085-.151.581q.091.314.193.617l.645.167-.231.892-.01-.003q.067.159.136.311l.01-.037.781.203-.228.879q.093.151.19.299l.725.188-.148.57q.079.091.16.18l.181-.7.782.203-.293 1.13q.084.068.172.133l.315-1.213.781.203-.38 1.464c.061.032.12.067.182.097l.392-1.51.781.203-.412 1.59.095.029.098.02.413-1.589.781.203-.392 1.51c.069.005.137.003.206.004l.38-1.464.781.203-.314 1.213q.107-.014.215-.033l.293-1.13.781.203-.181.7q.114-.037.227-.079l.149-.57.724.187q.156-.08.311-.169l.228-.878.782.203-.01.036q.136-.1.271-.205l-.011-.003.232-.891.645.167q.236-.216.468-.445l.15-.581.328.085q.087-.094.172-.192l-.443-.115.232-.891.781.203-.05.195q.155-.191.307-.387l.226-.87.348.09.136-.2-.427-.111.232-.892.721.188q.255-.421.493-.856l.049-.19.047.012.111-.208-.101-.025.232-.892.282.073.098-.21-.323-.084.231-.891.452.117q.043-.106.084-.214l-.478-.124.231-.892.555.144.069-.218-.567-.147.232-.891.588.153.053-.223-.584-.151.231-.892.549.143.039-.226-.531-.138.231-.891.436.113.026-.23-.405-.104.232-.891.245.064q.008-.117.012-.233l-.2-.052.207-.797a18 18 0 0 0-.026-.695l-.085.329-.782-.203.232-.891.585.151q-.011-.121-.026-.242l-.502-.13.232-.892.119.03q-.025-.125-.053-.25l-.009-.001.005-.019a14 14 0 0 0-.097-.424l-.101.392-.782-.202.231-.891.497.128q-.038-.128-.078-.255l-.362-.094.14-.538q-.06-.155-.125-.31m-16.347 10.86-.781-.203.231-.89.781.202zm.288-1.112-.781-.203.231-.892.781.203zm.289-1.112-.781-.203.231-.892.781.203zm.288-1.113-.781-.203.232-.891.781.202zm.289-1.112-.781-.203.232-.891.781.203zm.289-1.113-.781-.203.231-.891.781.203zm.289-1.112-.782-.202.232-.892.781.203zm.288-1.113-.781-.203.231-.89.781.202zm.289-1.112-.781-.202.231-.892.781.203zm-1.911 11.377-.782-.203.231-.891.782.203zm.288-1.113-.782-.203.232-.89.781.202zm.289-1.112-.782-.203.232-.89.781.202zm.288-1.112-.781-.203.231-.892.782.203zm.289-1.112-.781-.203.231-.892.782.203zm.289-1.113-.782-.203.231-.891.782.202zm.288-1.112-.781-.203.231-.891.782.203zm.289-1.113-.782-.203.232-.891.781.203zm.289-1.112-.782-.203.232-.891.781.203zm.288-1.113-.781-.203.231-.89.782.202zm.289-1.112-.781-.202.231-.892.781.203zm.289-1.112-.782-.203.231-.892.782.203zm.288-1.113-.781-.203.231-.89.782.202zm-3.066 15.827-.781-.203.231-.891.782.203zm.289-1.112-.782-.203.232-.891.781.202zm.288-1.113-.781-.203.231-.891.782.203zm.289-1.112-.781-.203.231-.891.782.202zm.289-1.113-.781-.203.231-.89.781.202zm.288-1.112-.781-.203.231-.892.782.203zm.289-1.112-.782-.203.232-.892.781.203zm.289-1.113-.782-.203.232-.891.781.202zm.289-1.112-.782-.203.232-.891.781.203zm.288-1.113-.781-.203.231-.891.781.203zm.289-1.112-.782-.203.232-.891.781.203zm.288-1.113-.781-.203.231-.89.782.202zm.289-1.112-.782-.202.232-.892.781.203zm.289-1.112-.782-.203.232-.892.781.203zm.288-1.113-.781-.203.231-.89.782.202zm.289-1.112-.782-.203.232-.891.781.203zm-3.643 18.051-.782-.202.232-.892.781.203zm.288-1.112-.781-.203.231-.891.782.203zm.289-1.112-.781-.203.231-.891.781.202zm.289-1.113-.782-.203.231-.891.782.203zm.288-1.112-.781-.203.231-.891.782.202zm.289-1.113-.782-.203.232-.89.781.202zm.289-1.112-.782-.203.232-.891.781.203zm.288-1.112-.781-.203.231-.892.781.203zm.289-1.113-.782-.203.232-.891.781.203zm.288-1.112-.781-.203.231-.891.782.203zm.289-1.113-.781-.203.231-.891.782.203zm.289-1.112-.782-.203.232-.891.781.203zm.289-1.113-.782-.203.231-.89.782.202zm.288-1.112-.782-.202.232-.892.781.203zm.289-1.112-.782-.203.232-.892.781.203zm.288-1.113-.781-.203.231-.89.782.202zm.289-1.112-.781-.203.231-.891.782.203zm.289-1.112-.782-.203.231-.892.782.203zm-4.221 20.276-.781-.203.231-.892.781.203zm.289-1.113-.782-.202.232-.892.781.203zm.288-1.112-.781-.203.231-.891.781.202zm.289-1.113-.781-.202.231-.892.781.203zm.288-1.112-.781-.203.232-.891.781.203zm.289-1.113-.781-.203.231-.89.782.202zm.289-1.112-.782-.203.232-.89.781.202zm.288-1.112-.781-.203.232-.892.781.203zm.289-1.112-.781-.203.231-.891.781.203zm.289-1.113-.781-.203.231-.891.781.202zm.289-1.112-.781-.203.231-.891.781.203zm.288-1.113-.781-.203.231-.891.781.203zm.288-1.112-.781-.203.232-.891.781.203zm.289-1.113-.781-.203.232-.89.781.202zm.289-1.112-.781-.202.231-.892.781.203zm.289-1.112-.781-.203.231-.891.781.202zm.288-1.113-.781-.203.231-.89.781.202zm.289-1.112-.781-.203.231-.891.781.202zm.288-1.113-.781-.202.232-.892.781.203zm.289-1.112-.781-.203.232-.891.781.203zm-4.509 21.389-.782-.203.232-.892.781.203zm.289-1.113-.782-.202.232-.892.781.203zm.288-1.112-.781-.203.231-.891.782.203zm.289-1.112-.781-.203.231-.891.781.202zm.288-1.113-.781-.203.231-.891.782.203zm.289-1.113-.781-.203.231-.89.782.202zm.289-1.112-.782-.203.232-.89.781.202zm.289-1.112-.782-.203.231-.892.782.203zm.288-1.112-.781-.203.231-.892.781.203zm.289-1.113-.782-.203.232-.891.781.202zm.288-1.112-.781-.203.231-.891.782.203zm.289-1.113-.781-.203.231-.891.782.203zm.289-1.112-.782-.203.231-.891.782.203zm.289-1.113-.782-.203.231-.89.782.202zm.288-1.112-.782-.202.232-.892.781.203zm.289-1.112-.782-.203.232-.892.781.203zm.288-1.113-.781-.203.231-.89.782.202zm.289-1.112-.781-.203.231-.891.782.203zm.289-1.113-.782-.203.231-.891.782.203zm.288-1.112-.781-.203.231-.891.782.203zm.289-1.113-.782-.203.232-.891.781.203zm-4.798 22.502-.781-.203.231-.892.781.203zm.288-1.112-.781-.203.231-.892.782.203zm.289-1.113-.781-.203.231-.891.782.203zm.289-1.112-.782-.203.232-.891.781.202zm.289-1.113-.782-.203.232-.891.781.203zm.289-1.112-.782-.203.231-.891.782.202zm.288-1.113-.782-.203.232-.89.781.202zm.288-1.112-.781-.203.231-.891.782.203zm.289-1.112-.781-.203.231-.892.782.203zm.289-1.113-.781-.203.231-.891.782.202zm.289-1.112-.782-.203.231-.891.782.203zm.288-1.113-.782-.203.232-.891.781.203zm.289-1.112-.782-.203.232-.891.781.202zm.289-1.113-.782-.203.232-.89.781.202zm.288-1.112-.781-.202.231-.892.782.203zm.289-1.112-.782-.203.231-.892.782.203zm.288-1.113-.781-.203.231-.89.782.202zm.289-1.112-.781-.203.231-.891.782.203zm.289-1.112-.782-.203.232-.892.781.203zm.288-1.113-.781-.203.231-.891.782.203zm.289-1.113-.781-.203.231-.891.781.203zm-4.798 22.502-.781-.203.231-.892.782.203zm.289-1.113-.782-.202.232-.892.781.203zm.289-1.112-.782-.203.231-.891.782.203zm.288-1.112-.782-.203.232-.891.781.202zm.289-1.113-.782-.203.232-.891.781.203zm.288-1.112-.781-.203.231-.891.782.202zm.289-1.113-.781-.203.231-.89.782.202zm.289-1.112-.782-.203.231-.891.782.203zm.288-1.112-.781-.203.231-.892.782.203zm.289-1.113-.782-.203.232-.891.781.202zm.289-1.112-.782-.203.232-.891.781.203zm.288-1.113-.781-.203.231-.891.782.203zm.289-1.112-.781-.203.231-.891.781.202zm.288-1.113-.781-.203.231-.89.782.202zm.289-1.112-.781-.202.231-.892.782.203zm.289-1.112-.782-.203.232-.892.781.203zm.289-1.113-.782-.203.231-.89.782.202zm.288-1.112-.781-.203.231-.891.781.203zm.289-1.112-.782-.203.232-.892.781.203zm.288-1.113-.781-.203.231-.891.782.203zm.289-1.112-.781-.203.231-.892.782.203zm-4.798 22.5-.781-.202.231-.892.781.203zm.288-1.112-.781-.202.232-.892.781.203zm.289-1.112-.781-.203.232-.89.781.202zm.289-1.113-.781-.202.231-.891.781.202zm.289-1.112-.781-.202.231-.892.781.203zm.288-1.112-.781-.203.231-.891.781.202zm.289-1.113-.781-.203.231-.89.781.202zm.288-1.112-.781-.203.232-.892.781.203zm.289-1.112-.781-.203.232-.892.781.203zm.289-1.113-.781-.203.231-.891.781.202zm.288-1.112-.781-.203.232-.891.781.202zm.289-1.113-.781-.202.231-.892.781.203zm.289-1.112-.781-.202.231-.892.781.203zm.288-1.113-.781-.203.232-.89.781.202zm.289-1.112-.781-.202.231-.892.781.203zm.289-1.112-.782-.203.232-.892.781.203zm.288-1.113-.781-.203.232-.89.781.202zm.289-1.112-.781-.203.231-.89.781.202zm.289-1.112-.781-.203.231-.892.781.203zm.288-1.113-.781-.202.231-.892.781.203zm.289-1.113-.781-.203.231-.891.781.203zm-4.798 22.502-.781-.203.231-.892.782.203zm.289-1.113-.782-.202.231-.892.782.203zm.288-1.112-.781-.203.231-.891.782.203zm.289-1.112-.782-.203.232-.891.781.202zm.289-1.113-.782-.203.232-.891.781.203zm.288-1.112-.781-.203.231-.892.782.203zm.289-1.113-.781-.203.231-.89.781.202zm.288-1.112-.781-.203.231-.892.782.203zm.289-1.112-.781-.203.231-.892.782.203zm.289-1.113-.782-.203.232-.891.781.202zm.289-1.112-.782-.203.232-.891.781.203zm.288-1.113-.781-.203.231-.891.781.203zm.289-1.112-.782-.203.232-.891.781.202zm.288-1.113-.781-.203.231-.89.782.202zm.289-1.112-.781-.202.231-.892.782.203zm.289-1.112-.782-.203.232-.892.781.203zm.289-1.113-.782-.203.231-.89.782.202zm.288-1.112-.782-.203.232-.891.781.203zm.289-1.113-.782-.203.232-.891.781.203zm.288-1.112-.781-.203.231-.891.782.203zm.289-1.113-.781-.203.231-.891.782.203zm-4.798 22.502-.781-.203.231-.892.782.203zm.289-1.113-.782-.202.232-.892.781.203zm.289-1.112-.782-.203.232-.891.781.203zm.288-1.112-.781-.203.231-.891.781.202zm.289-1.113-.782-.203.231-.891.782.203zm.288-1.112-.781-.203.231-.892.782.203zm.289-1.113-.781-.203.231-.89.782.202zm.289-1.112-.782-.203.232-.892.781.203zm.288-1.112-.781-.203.231-.892.781.203zm.289-1.113-.782-.203.232-.891.781.203zm.289-1.112-.782-.203.232-.891.781.203zm.288-1.113-.781-.203.231-.891.782.203zm.289-1.112-.782-.203.232-.891.781.202zm.289-1.113-.782-.203.231-.89.782.202zm.288-1.112-.781-.202.231-.892.781.203zm.289-1.112-.782-.203.232-.892.781.203zm.289-1.113-.782-.203.232-.89.781.202zm.288-1.112-.781-.203.231-.891.782.203zm.289-1.112-.782-.203.231-.892.782.203zm.289-1.113-.782-.203.231-.891.782.203zm.288-1.112-.781-.203.231-.892.782.203zm-4.798 22.5-.781-.202.231-.891.781.202zm.289-1.111-.782-.203.232-.891.781.202zm.288-1.113-.781-.203.232-.891.781.203zm.289-1.112-.781-.203.231-.891.781.202zm.288-1.113-.781-.203.232-.891.781.203zm.289-1.113-.781-.203.231-.89.782.202zm.289-1.112-.781-.203.231-.89.781.202zm.288-1.112-.781-.203.232-.892.781.203zm.289-1.112-.781-.203.231-.892.781.203zm.289-1.113-.781-.203.231-.891.781.203zm.289-1.112-.781-.203.231-.891.781.203zm.288-1.113-.781-.203.231-.891.781.203zm.288-1.112-.781-.203.232-.891.781.203zm.289-1.113-.781-.203.232-.89.781.202zm.289-1.112-.781-.202.231-.892.781.203zm.289-1.112-.781-.203.231-.892.781.203zm.289-1.113-.782-.203.232-.89.781.202zm.288-1.112-.781-.203.231-.89.781.202zm.289-1.113-.781-.203.231-.891.781.202zm.288-1.112-.781-.203.232-.891.781.203zm-4.22 20.276-.782-.202.232-.892.781.203zm.288-1.112-.781-.203.231-.891.782.203zm.289-1.112-.781-.203.231-.891.781.202zm.288-1.113-.781-.203.231-.891.782.203zm.289-1.112-.781-.203.231-.892.782.203zm.289-1.113-.782-.203.232-.89.781.202zm.289-1.112-.782-.203.231-.892.782.203zm.288-1.112-.781-.203.231-.892.781.203zm.289-1.113-.782-.203.232-.891.781.202zm.288-1.112-.781-.203.231-.891.782.203zm.289-1.113-.781-.203.231-.891.782.203zm.289-1.112-.782-.203.232-.891.781.203zm.289-1.113-.782-.203.231-.89.782.202zm.288-1.112-.782-.202.232-.892.781.203zm.289-1.112-.782-.203.232-.892.781.203zm.288-1.113-.781-.203.231-.89.782.202zm.289-1.112-.781-.203.231-.891.782.203zm.289-1.113-.782-.203.231-.891.782.203zm-3.644 18.052-.781-.203.231-.891.782.203zm.289-1.112-.781-.203.231-.891.782.202zm.289-1.113-.782-.203.232-.891.781.203zm.289-1.112-.782-.203.231-.892.782.203zm.288-1.113-.782-.203.232-.89.781.202zm.289-1.112-.782-.203.232-.891.781.203zm.288-1.112-.781-.203.231-.892.782.203zm.289-1.113-.781-.203.231-.891.782.202zm.289-1.112-.782-.203.231-.891.782.203zm.288-1.113-.781-.203.231-.891.782.203zm.289-1.112-.782-.203.232-.891.781.203zm.289-1.113-.782-.203.232-.89.781.202zm.288-1.112-.781-.202.231-.892.782.203zm.289-1.112-.781-.203.231-.892.781.203zm.288-1.113-.781-.203.231-.89.782.202zm.289-1.112-.781-.203.231-.891.782.203zm.534 2.75.781.202-.231.891-.781-.202zm-.288 1.112.781.202-.232.891-.781-.203zm-.289 1.112.781.202-.231.891-.781-.202zm-.288 1.112.781.203-.232.892-.781-.203zm-.289 1.113.781.203-.231.89-.782-.202zm-.289 1.112.781.203-.231.891-.781-.203zm-.288 1.112.781.203-.232.892-.781-.203zm-.289 1.113.781.203-.232.891-.781-.203zm-.289 1.112.781.203-.231.891-.781-.203zm-1.002 3.066-.782-.203.232-.891.781.203zm.289-1.112-.782-.203.232-.892.781.203zm.288-1.113-.781-.203.231-.89.782.202zm.289-1.112-.782-.203.231-.892.782.203zm.288-1.112-.781-.203.231-.892.782.203zm.289-1.113-.781-.203.231-.891.782.203zm.289-1.112-.782-.203.232-.891.781.203zm.288-1.113-.781-.203.231-.891.782.203zm.289-1.112-.781-.203.231-.891.781.203zm.289-1.113-.782-.203.232-.89.781.202zm.288-1.112-.781-.202.231-.892.782.203zm.289-1.112-.781-.203.231-.892.782.203zm.52-2.004-.231.891-.782-.203.232-.89z" fill="#569ADD" opacity=".46"/><path d="M372.236 75.36c-3.723-.99-8.996 2.73-10.235 7.731a9.3 9.3 0 0 1-.627 1.773l-6.093 12.769s-10.02-2.795-11.432-3.549-1.606-4.736-2.762-5.571-1.517-1.284-1.626-.578.919 1.605.984 2.762c.064 1.156-.677 1.741-.114 3.857.228.854.478 1.824.696 2.677a4.32 4.32 0 0 0 2.798 3.021l11.426 3.89a5.47 5.47 0 0 0 6.626-2.668l4.643-8.98z" fill="#FA9999"/><path d="M366.611 82.364s-3.639 6.01-2.27 14.343l2.127-3.804z" fill="#1B2236"/><path d="M384.609 123.771s3.426 11.026 7.75 18.647c4.325 7.622 7.236 8.821 11.005 7.536 3.767-1.284 18.902-17.242 21.151-18.454 2.783-1.498 5.181-.342 5.181-.342s1.241-6.91-3.896-8.435c0 0-1.371 2.398-2.998 3.425s-15.885 3.511-19.267 8.478l-1.129-11.903z" fill="#FA9999"/><path d="m403.22 131.308-.814-8.585-17.797 1.048s3.426 11.026 7.75 18.648q.313.55.618 1.058c1.825-5.242 6.353-9.42 10.243-12.169" fill="#DE7373"/><path d="m402.406 122.723-17.797 1.048s1.857 5.973 4.56 12.165c3.087-4.713 9.244-8.37 13.574-9.663z" fill="#1B2236"/><path d="M374.692 122.364s-7.666 14.959-9.107 19.841c-1.442 4.881-1.956 9.505-1.956 9.505s-3.853 24.406-5.523 30.186-5.909 9.248-5.909 9.248 5.909 3.853 12.717 1.927c0 0-.899-1.67-.386-4.881.514-3.211 3.597-14.772 6.809-19.653 2.931-4.456 5.032-13.728 3.801-19.121a2.73 2.73 0 0 1 .82-2.597c4.072-3.786 16.797-15.908 20.672-23.047z" fill="#FA9999"/><path d="m396.63 123.771-20.949-1.343-2.127 2.185-.03.06c3.661-1.795 13.697 4.175 19.294 4.585 1.59-1.981 2.931-3.863 3.812-5.487" fill="#DE7373"/><path d="M365.184 185.143c-3.337.564-8.066.207-8.002-.757l-.014.014c-1.946 4.259-4.971 6.745-4.971 6.745s5.909 3.853 12.717 1.926c0 0-.899-1.669-.386-4.881.11-.684.337-1.75.656-3.047m60.615-62.42s-1.046 1.831-2.396 2.979c2.121.686 2.847 2.994 2.205 5.332 2.289-.74 4.088.124 4.088.124s1.241-6.909-3.897-8.435" fill="#FFF6E3"/><path d="M378.102 107.566s-1.798 5.138-.514 9.248l-4.11 7.879c5.651-2.484 10.618 3.853 22.436 2.397s14.985-10.789 15.328-15.756c0 0-5.052-1.456-7.107-3.254s-3.576-6.31-8.564-7.694z" fill="#FFB98B"/><path d="M387.31 126.821c1.173-5.953 1.936-14.759.214-18.241a.356.356 0 0 1 .637-.315c1.79 3.622 1.036 12.616-.153 18.68q-.354-.059-.698-.124m-7.321-2.064c3.381-5.33 5.548-14.934 5.652-15.401a.354.354 0 1 0-.692-.154c-.026.115-2.291 10.155-5.678 15.358q.354.092.718.197m17.199 2.137c-1.399-7.606-5.347-20.495-5.388-20.631a.355.355 0 1 0-.678.209c.041.135 3.973 12.974 5.366 20.534q.355-.052.7-.112m4.878-16.661c-.704-1.785-2.764-6.157-6.673-8.205a.356.356 0 0 0-.329.629c3.698 1.937 5.667 6.125 6.343 7.836 1.053 2.668 3.697 4.913 8.253 6.992q.148-.327.281-.653c-4.323-1.983-6.908-4.15-7.875-6.599m-2.389 3.508c-1.532-4.846-3.909-8.355-6.52-9.626a.353.353 0 0 0-.474.164.354.354 0 0 0 .164.474c2.438 1.186 4.681 4.54 6.153 9.203 1.113 3.522 3.63 7.361 5.661 9.816q.286-.215.557-.437c-1.984-2.39-4.452-6.148-5.541-9.594" fill="#A33B82"/><path d="M396.63 101.644c.068-1.453-1.541-.419-2.875-.511l-15.654 6.433s-1.798 5.138-.514 9.248c2.464-4.602 11.795-1.525 15.879-4.007 3.341-2.03 2.966-6.898 3.164-11.163" fill="#D3D5F2"/><path d="M388.16 108.265a.355.355 0 1 0-.636.315c.609 1.23.906 3.127.985 5.327q.35-.018.692-.042c-.083-2.303-.397-4.299-1.041-5.6m3.639-2.002a.355.355 0 0 0-.678.208c.02.063.871 2.846 1.919 6.565a5 5 0 0 0 .426-.229c.074-.045.136-.098.206-.145a321 321 0 0 0-1.873-6.399m1.359-2.147a.355.355 0 1 0-.311.638c1.201.584 2.354 1.697 3.392 3.23q.083-.5.137-1.02c-.995-1.322-2.084-2.297-3.218-2.848m1.906-1.459c.537.281 1.034.614 1.5.976l.025-.864c-.379-.268-.775-.52-1.196-.741a.355.355 0 1 0-.329.629m-10.657 11.38a77 77 0 0 0 1.234-4.681.354.354 0 1 0-.692-.155c-.012.052-.483 2.136-1.306 4.882q.377-.027.764-.046" fill="#304D96"/><path d="M354.599 189.51c.506.385 1.151.946 1.775 1.685.53.626 1.312.999 2.132.984 2.075-.036 3.661-.553 4.714-1.05a1.3 1.3 0 0 1 1.822.906c.174.789.435 1.677.814 2.321.553.94.892 2.239 1.085 3.375a1.406 1.406 0 0 1-1.393 1.634h-15.449c-3.513 0-7.761-.904-9.966-1.703a1.464 1.464 0 0 1 .03-2.768c1.388-.461 4.353-1.399 7.27-2.036a9.05 9.05 0 0 0 4.341-2.312c.39-.374.749-.7 1.046-.962a1.4 1.4 0 0 1 1.779-.074" fill="#FF861C"/><path d="M365.549 199.365c.868 0 1.539-.778 1.393-1.634a14 14 0 0 0-.443-1.866c-3.662.008-10.676.763-14.045 1.488-3.982.856-8.563.471-11.132-.343-1.124-.356-1.74-.794-2.077-1.174-.018.056-.044.108-.055.166-.14.711.262 1.413.943 1.66 2.205.798 6.453 1.703 9.966 1.703z" fill="#FFF6E3"/><path d="M427.658 130.302a9 9 0 0 1 .614-1.844 2.18 2.18 0 0 0-.01-1.864c-.725-1.481-1.631-2.447-2.342-3.037a1.03 1.03 0 0 1 .038-1.615c.509-.391 1.059-.878 1.395-1.368.49-.714 1.31-1.395 2.061-1.917a1.118 1.118 0 0 1 1.645.452l5.202 11.111c1.183 2.527 1.963 5.887 2.131 7.741a1.164 1.164 0 0 1-2.001.911c-.798-.843-2.472-2.659-3.912-4.543a7.2 7.2 0 0 0-3.125-2.344c-.4-.154-.755-.302-1.044-.428a1.116 1.116 0 0 1-.652-1.255" fill="#FF861C"/><path d="M431.06 119.108a1.12 1.12 0 0 0-1.645-.452c-.398.277-.815.599-1.192.946 1.238 2.632 4.143 7.422 5.799 9.601 1.957 2.576 3.222 6 3.502 8.122.122.928.015 1.518-.145 1.889.046-.006.092-.005.137-.016.559-.139.929-.665.877-1.238-.168-1.855-.948-5.214-2.131-7.741z" fill="#FFF6E3"/><path d="M371.385 75.473a3.44 3.44 0 0 1 1.889.039c2.569.788 10.801 3.578 14.568 7.99 4.495 5.267 4.624 12.9 4.624 12.9s1.334 1.262 2.898 1.905a2.03 2.03 0 0 1 1.255 2.079c-.429 4.135-2.469 7.075-6.208 9.977-4.482 3.477-12.075 3.325-12.589-.978-3.596-1.284-3.981-3.981-3.981-3.981l-3.752-2.912a11.57 11.57 0 0 1-4.472-8.913c-.062-2.997-.057-6.55.195-8.92.468-4.388 2.003-8.243 5.573-9.186" fill="#A33B82"/><path d="m373.544 105.174 5.443-7.981-8.081 5.934z" fill="#1B2236"/><path d="M375.019 71.539s1.145-2.734 1.064-4.494c-.139-3.032-1.932-5.52-5.04-5.573l-.862-.063s-3.937-2.654-6.422-1.027c1.326.085 3.039.856 3.039.856-5.952 1.756-7.493 6.077-4.196 10.574l3.463 1.016z" fill="#8A221E"/><path d="m367.227 77.423 2.611 4.41c-1.731 5.903-1.883 7.447-.385 7.984 1.499.537 3.168-2.889 3.982-5.201.655-1.863 1.478-4.227 2.736-5.724a1.25 1.25 0 0 0-.159-1.788c-.806-.644-1.831-1.528-2.363-2.25z" fill="#FA9999"/><path d="m374.144 75.59.008-.147a7 7 0 0 1-.503-.589l-6.422 2.57 1.6 2.702a4.53 4.53 0 0 0 3.719-1.147 4.98 4.98 0 0 0 1.598-3.389" fill="#DE7373"/><path d="M386.823 90.963c0-3.597-.578-8.028-3.757-8.927-3.499-.99-7.431 2.757-8.6 5.811-.304.796-.703 1.552-1.246 2.207l-9.647 11.634-20.423-2.954-1.014-2.746a2.88 2.88 0 0 0-2.005-1.798l-2.703-.675a1.333 1.333 0 0 0-1.594.889l-.946 2.973a1.487 1.487 0 0 0 1.033 1.888l1.384.369s.257 2.312 3.725 2.376c0 0 10.941 4.555 19.582 7.357a8.76 8.76 0 0 0 9.073-2.319s7.012-7.457 9.302-9.855c4.732 1.97 7.836-2.633 7.836-6.23" fill="#FA9999"/><path d="m336.647 94.729 2.307.537m-2.819.784 2.307.537m-2.671.83 2.113.492" stroke="#DE7373" stroke-width=".954" stroke-miterlimit="10" stroke-linecap="round" stroke-linejoin="round"/><path d="m382.393 95.72.671-1.705c.163-.414-.364-.749-.67-.426l-3.407 3.604.029.012c1.33.546 2.85-.148 3.377-1.486" fill="#DE7373"/><path d="M382.46 86.924c-2.046 3.218-6.694 3.993-6.694 3.993m-35.635 3.273s2.527.203 3.018 4.544l17.671 2.556" stroke="#DE7373" stroke-width=".954" stroke-miterlimit="10" stroke-linecap="round" stroke-linejoin="round"/><path d="M355.28 97.632c1.205.397 2.297.76 2.689 2.195a.72.72 0 0 0 1.417-.233c-.074-.857-.328-2.158-1.155-3.094-.744-.842-2.124-.6-2.608.414z" fill="#DE7373"/><path d="m363.93 71.96.862 3.133a4.97 4.97 0 0 0 2.602 3.146l.262.13a4.53 4.53 0 0 0 5.061-.733 4.97 4.97 0 0 0 1.598-3.388l.222-4.07a2.06 2.06 0 0 0-1.382-2.045c-.846-.3-1.847-.905-2.411-2.119-.472 2.184-3.519 4.762-5.39 4.603 1.871-1.247 2.267-1.954 2.364-3.066-.565 1.055-1.614 1.647-2.539 1.976-.988.353-1.527 1.42-1.249 2.433" fill="#FA9999"/><path d="m363.953 72.042-.67-.888a.915.915 0 0 0-1.579.892l.614 1.527c.218.542.733.906 1.316.931l1.008.043zm10.415 1.241.151-2.76.453-.498a.947.947 0 0 1 1.587.977l-.671 1.753a.95.95 0 0 1-1.019.6z" fill="#FA9999"/><path d="m370.638 83.15-.8-1.317c-.278.95-.515 1.786-.712 2.525.317-.073.614-.099.883-.096a.731.731 0 0 0 .629-1.111" fill="#DE7373"/><path d="M389.201 107.366c2.463-.436 4.792-5.782 5.511-9.368-1.265-.67-2.246-1.596-2.246-1.596.304 4.13-1.351 8.898-3.265 10.964m-10.935-.729c-2.587 0-3.791-.949-3.864-1.009a.219.219 0 0 1 .276-.34c.026.021 2.623 2.035 8.477-.037a.22.22 0 0 1 .147.414c-2.056.728-3.724.972-5.036.972m.791 2.527c-.355 0-.562-.02-.574-.022a.219.219 0 1 1 .047-.436c.017.002 1.766.18 3.921-.51 1.982-.635 4.728-2.159 6.554-5.81a.219.219 0 1 1 .392.196c-3.033 6.066-8.553 6.582-10.34 6.582" opacity=".45" fill="#1B2236"/><path d="m364.024 72.302.379 1.376m10.101-2.888-.094 1.731m1.534-1.731c-.059-.644-1.177-.033-1.46.653m-12.169.305c.299-.36 1.898 1.242 1.898 1.242" stroke="#DE7373" stroke-width=".954" stroke-miterlimit="10" stroke-linecap="round" stroke-linejoin="round"/><path d="M366.81 72.8a.679.679 0 1 0 0-1.357.679.679 0 0 0 0 1.358m4.747-.466a.679.679 0 1 0 0-1.358.679.679 0 0 0 0 1.358" fill="#1B2236"/><path d="m370.532 70.282 1.917-.253m-6.947.489h2.218" stroke="#8A221E" stroke-width="1.843" stroke-miterlimit="10" stroke-linecap="round" stroke-linejoin="round"/><path d="m368.977 70.93.068.81a1.85 1.85 0 0 1-.461 1.384.337.337 0 0 0 .343.548l.825-.23" stroke="#DE7373" stroke-width=".954" stroke-miterlimit="10" stroke-linecap="round" stroke-linejoin="round"/><path d="m368.38 74.44 1.903-.45c.3-.071.595.145.61.453.038.815-.041 2.204-1.013 2.33-.955.124-1.563-.977-1.849-1.669a.495.495 0 0 1 .349-.664" fill="#1B2236"/><path d="M373.251 73.917a1.015 1.015 0 1 1-2.03 0 1.015 1.015 0 0 1 2.03 0m-5.625.462a1.015 1.015 0 1 1-2.03 0 1.015 1.015 0 0 1 2.03 0" fill="#FA8787"/></svg>