<svg width="400" height="200" viewBox="0 0 460 230" fill="none" xmlns="http://www.w3.org/2000/svg"><g clip-path="url(#a)"><path d="M90.51 73.759s1.796 6.116-3.234 6.116l.428-6.116z" fill="#151E30"/><path d="m50.847 86.71-7.404 4.79a2.4 2.4 0 0 0-2.778.554 7.24 7.24 0 0 0-.924 8.553 5.75 5.75 0 0 0 8.24 1.827l9.69-6.713z" fill="#FEF4D9"/><path d="m53.455 98.642 4.216-2.921-4.847-6.4-3.277-.688s-.844 5.867 3.908 10.009m58.941 91.564 5.373 2.295a5.9 5.9 0 0 0 2.038.467c1.711.089 5.225.554 6.938 2.833.762 1.014.2 2.483-1.035 2.774l-.699.164a16.8 16.8 0 0 1-3.842.446h-14.317c-3.565 0-5.48-4.37-2.917-6.847q.136-.13.286-.255z" fill="#151E30"/><path d="m101.856 160.694 9.064 28.389c.194.607.141 1.276-.19 1.82-.889 1.462-1.111 3.592-3.561 3.592-2.882 0-2.948-2.412-2.948-2.412l-3.822-7.297a12.1 12.1 0 0 0-2.578-3.353c-2.65-2.405-7.916-7.902-7.983-13.65zm-72.748 1.056-4.423 31.485h6.635l4.917-12.692a16.3 16.3 0 0 1 1.524-2.976c1.6-2.469 4.97-8.436 5.658-15.817z" fill="#B8DBF6"/><path d="M84.723 118.044s1.742 1.407 1.474 4.49c1.742.938 1.206 3.551 1.206 3.551s8.04 13.802 7.973 21.977c2.882.201 2.279 6.03 2.279 6.03s3.819 1.139 3.417 5.025c2.278 2.479-.469 6.767-3.752 8.174-3.284 1.408-9.515 3.284-9.448-1.071-3.015-4.824-20.168-31.827-20.168-31.827l-22.177 25.126s.15 1.621-.538 2.856c-.364.654-1.083 1.03-1.832 1.03H29.044c-2.01 0-.603-6.097 2.01-6.633-.804-3.082 2.144-5.896 2.144-5.896s8.71-18.895 15.142-24.925c-1.071-1.675 2.753-3.484 2.753-3.484s-.675-4.355 3.546-5.695z" fill="#3451A3"/><path d="M101.287 163.596c-.296-.92-.88-1.912-1.784-2.627-.014-1.319-.988-3.296-2.14-4.309-.467-.41-.934-.631-1.368-.651.023-2.31-.67-4.695-1.688-5.747q-.414-.428-.85-.516c-.608-8.05-6.004-20.494-8.06-22.892.198-.857-.361-2.391-1.564-3.449.282-3.345-1.746-5.159-1.834-5.236a.238.238 0 0 0-.314.359c.02.017 1.98 1.783 1.663 4.954a.24.24 0 0 0 .084.206c1.23 1.028 1.696 2.548 1.476 3.143a.24.24 0 0 0 .05.245c1.965 2.103 7.503 14.828 8.037 22.902a.24.24 0 0 0 .238.223q.353.001.731.391c.959.992 1.624 3.426 1.55 5.661a.24.24 0 0 0 .277.243c.46-.075.938.241 1.257.521 1.08.95 2.022 2.884 1.977 4.058a.24.24 0 0 0 .095.201c1.018.763 1.618 1.939 1.83 2.9a7 7 0 0 0 .337-.58m-46.374-45.478c-.098.026-2.385.677-2.561 4.352l-.336.174c-1.269.651-3.169 1.625-2.626 3.609-2.447 2.026-13.728 20.214-15.011 24.942-2.1.66-2.244 5.042-2.254 5.811-.474.439-2.704 2.71-2.484 6.399h.481c-.23-3.813 2.368-6.087 2.396-6.111a.24.24 0 0 0 .083-.182c-.006-1.4.345-5.114 2.026-5.491a.24.24 0 0 0 .18-.176c1.16-4.781 13.28-23.819 14.987-24.9a.24.24 0 0 0 .099-.277c-.527-1.579.748-2.383 2.34-3.2q.252-.127.466-.243a.24.24 0 0 0 .123-.201c.113-3.426 2.129-4.022 2.214-4.045a.238.238 0 0 0-.123-.461" fill="#5872C1"/><path d="M54.639 116.772c-.5.158-.928.36-1.3.591.553 4.29 7.071 7.677 15.035 7.677 7.577 0 13.846-3.064 14.916-7.056z" fill="#151E30"/><path d="M85.131 115.237c0 4.567-6.75 8.269-15.078 8.269s-15.078-3.702-15.078-8.269c0-4.566 6.75-8.268 15.078-8.268s15.078 3.702 15.078 8.268" fill="#FEF4D9"/><path d="m63.24 122.616-1.205-.375v-3.37h1.206zm14.83-.375-1.206.375v-3.745h1.206z" fill="#3451A3"/><path d="m90.285 105.582-4.423 10.72.01.016a1.86 1.86 0 0 1-1.077 2.777c-5.004 1.405-17.315 3.86-29.89-1.3a1.84 1.84 0 0 1-.864-2.687l.732-1.15L56.44 97.48s-7.443-2.15-7.428-10.074c.005-2.866 2.077-3.734 3.216-3.13 3.015-1.877 6.164-4.624 6.164-4.624s1.82-3.572 5.964-3.91c6.163-.501 21.137 2.622 31.473 8.76z" fill="#5872C1"/><path d="m72.303 87.406-3.475 9.507a.855.855 0 1 0 1.606.582l3.43-9.552zm17.607 16.153c3.053.803 6.538 1.42 5.824 2.671s-6.968.536-6.968.536zm-22.095 29.654-.094.053.095-.052zl-.095.053.095-.052c-.008-.012-.374-.694-.372-1.662 0-.501.095-1.079.383-1.698a.36.36 0 0 0 .033-.172l-.002-.041a13 13 0 0 1-.012-.599c-.003-1.072.112-3.293.855-4.956a.358.358 0 0 0-.653-.29c-.816 1.845-.914 4.124-.917 5.246 0 .42.015.677.016.683l.357-.022-.324-.151a4.7 4.7 0 0 0-.45 2c0 1.184.445 1.979.462 2.011a.358.358 0 0 0 .623-.35" fill="#151E30"/><path d="M65.815 124.195c-.002.014-.351 1.498-.352 3.104 0 .727.07 1.482.292 2.15.112.334.263.647.468.921.205.273.469.506.79.664a.357.357 0 0 0 .317-.641 1.5 1.5 0 0 1-.536-.453c-.222-.294-.38-.696-.48-1.157a7.2 7.2 0 0 1-.136-1.484c0-.752.083-1.492.167-2.041a15 15 0 0 1 .153-.84l.013-.061a.357.357 0 1 0-.696-.162" fill="#151E30"/><path d="M59.818 128.127c.963 1.122 2.047 2.021 3.362 2.633s2.853.934 4.714.934c2.205-.001 4.868-.449 8.195-1.402a.357.357 0 1 0-.196-.687c-3.287.942-5.891 1.374-8 1.374-1.78 0-3.204-.305-4.412-.868s-2.205-1.384-3.121-2.45a.358.358 0 0 0-.542.466m9.441 4.947 10.14.894a.358.358 0 0 0 .062-.713l-10.14-.893a.358.358 0 0 0-.062.712m-18.272-4.069.066.022c.677.221 6.418 2.232 10.716 7.012a.357.357 0 1 0 .532-.478c-4.746-5.264-11.071-7.226-11.101-7.238a.357.357 0 0 0-.213.682m1.606 6.706h.073c.563-.001 4.238.074 8.262 1.846a.358.358 0 0 0 .288-.655c-4.165-1.83-7.928-1.905-8.55-1.906l-.09.001a.357.357 0 1 0 .017.714" fill="#151E30"/><path d="M108.971 193.9c1.013-.678 2.018-.075 3.157-.411 1.139-.334 3.082-2.21 2.747-3.484-.335-1.273-2.579-1.68-4.003-1.074s-1.901 4.969-1.901 4.969" fill="#5872C1"/><path d="M23.065 199.185c-1.176 0-2.008-1.174-1.592-2.274.755-1.998 2.512-4.576 6.55-4.494 4.263.088 5.363 2.914 5.61 4.886.126 1.002-.674 1.882-1.684 1.882z" fill="#151E30"/><path d="M24.56 191.487c2.274-.903 5.664-.853 7.54.261a.82.82 0 0 1 .267 1.136l-.128.204a.996.996 0 0 1-1.241.386c-1.08-.463-3.199-1.088-5.639-.3a1 1 0 0 1-1.312-.838.82.82 0 0 1 .512-.849" fill="#5872C1"/><path d="M33.296 158.471c.516.458 1.174.757 1.901.945s1.53.264 2.351.264c1.332 0 2.718-.202 3.92-.488 1.205-.288 2.217-.652 2.834-1.016a.358.358 0 0 0-.364-.615c-.502.3-1.481.663-2.635.936-1.155.275-2.495.469-3.755.468-.777.001-1.523-.073-2.173-.241s-1.2-.428-1.605-.787a.358.358 0 0 0-.474.534m63.69-2.445.005.053c.007.11.025.385.025.764 0 .885-.097 2.338-.59 3.568-.245.616-.586 1.172-1.048 1.589-.463.416-1.044.703-1.825.784a.358.358 0 0 0 .073.711c.922-.092 1.665-.452 2.23-.965.85-.77 1.308-1.852 1.565-2.902.255-1.052.309-2.084.31-2.785 0-.534-.032-.875-.033-.884a.357.357 0 1 0-.712.067" fill="#151E30"/><path d="m89.123 71.746.153 3.402c.023.524.278 1.01.696 1.327l.398.302c.396.3.29.923-.184 1.075l-1.137.365c-.474 4.576-2.205 6.706-6.94 6.215 0 0-4.823 6.566-9.067 4.064-4.497-2.65-.938-9.067 2.01-10.184l1.296-5.986z" fill="#F46A64"/><path d="M85.085 77.727a1.487 1.487 0 1 1-2.974 0 1.487 1.487 0 0 1 2.974 0" fill="#F03F4F"/><path d="m74.482 79.825-.722 3.332a.239.239 0 0 0 .466.1l.721-3.332a.238.238 0 1 0-.466-.1" fill="#A13D3A"/><path d="M76.831 83.11c.41 1.612 1.354 3.172 2.33 4.296a16.7 16.7 0 0 0 2.95-2.974c-1.406-.035-2.993-.873-4.03-2.014-.51-.562-1.437-.046-1.25.691m-.473-6.175c-.052-.555.088-1.121.463-1.535a1.897 1.897 0 0 1 2.995.209l.453.475c.32-.528.645-.898.882-1.284.233-.379.611-.632 1.031-.776 1.222-.42 1.927-1.75 1.927-1.75l-7.761.053-1.53 7.068a7.9 7.9 0 0 0 2.307-.567c-.517-.547-.71-1.275-.767-1.893m9.159-2.475 2.278.709a.476.476 0 1 0 .283-.91l-2.278-.71a.476.476 0 1 0-.283.91" fill="#151E30"/><path d="M76.08 101.83s-1.477.535-1.475 2.546c-1.606-.134-2.076 1.742-2.076 1.742s-1.54-1.541-3.015 0c-1.675-.67-4.355.737-4.355.737v10.385s1.943 1.072 4.355 0c1.943 1.408 4.043 1.475 5.539.202 1.965 1.004 5.718 0 6.723-2.48 2.747-.67 3.752-3.015 3.886-3.886 2.68-.938 3.216-2.546 3.752-3.685 1.876-.67 3.015-4.355 3.015-4.355s-9.581-3.35-16.349-1.206" fill="#B8DBF6"/><path d="M76.08 101.83c5.156-.335 9.986.472 13.83 1.728 2.367.774 6.472 1.287 5.824 2.671 0 0 1.34-1 1.608-4.475 2.055-2.672 1.787-4.816 1.787-4.816s3.34-7.08-2.234-11.702c-3.662-3.038-11.345-3.038-14.293 4.466-3.127 3.306-3.523 6.79-3.523 6.79s-2.999 2.122-2.999 5.338m-1.243-5.646s-.124.094-.354.262a78 78 0 0 1-5.462 3.633c-2.541 1.537-5.525 3.104-8.048 3.819a.357.357 0 0 0 .196.688c3.013-.858 6.52-2.814 9.294-4.556a76 76 0 0 0 4.804-3.275.358.358 0 0 0-.43-.57M59.932 85.75c.487-3.311 2.532-7.757 5.54-10.056-.397.005-.773.02-1.117.049-4.145.336-5.964 3.91-5.964 3.91s-3.15 2.746-6.164 4.622c-1.139-.603-3.21.265-3.216 3.131-.015 7.925 7.428 10.075 7.428 10.075.478-4.562 1.617-10.074 3.493-11.732M45.763 83.05a128 128 0 0 0 3.597-19.694l1.724-16.785c.293-2.846-6.416-3.536-6.708-.69L42.65 62.666a128 128 0 0 0-.484 20.014l.067 1.227a48.5 48.5 0 0 1-.183 7.587l-2.288 22.269a12.1 12.1 0 0 1-1.732 5.105.766.766 0 0 0-.157 1.525l4.422.454a.766.766 0 1 0 .157-1.525 12.1 12.1 0 0 1-.657-5.351l2.288-22.269c.259-2.52.715-5.016 1.364-7.465z" fill="#3451A3"/><path d="m44.69 99.378.627-4.83c.111-.862.78-1.404 1.43-1.16.58.218.924.987.782 1.746l-.602 3.205c-.131.7-.634 1.177-1.19 1.13z" fill="#A13D3A"/><path d="m65.159 106.855-15.835 2.323-3.488-4.334a3.9 3.9 0 0 0-2.887-1.453l-2.57-.099c-1.102-.043-1.895 1.076-1.459 2.089l.04.09c-.893.625-.7 2.009-.238 2.456-.789.581-.789 1.966-.163 2.412l-.021.03c-.574.82.009 1.957 1.006 2.044l2.856.249s2.055 2.546 6.075 1.072l16.684 3.506z" fill="#F46A64"/><path d="M39.664 105.753h3.518a.238.238 0 1 0 0-.476h-3.518a.238.238 0 0 0 0 .476m-.167 2.379h3.518a.238.238 0 0 0 0-.477h-3.518a.239.239 0 0 0 0 .477m-.268 2.372h3.517a.238.238 0 0 0 0-.477h-3.518a.239.239 0 0 0 0 .477" fill="#A13D3A"/><path d="M91.197 103.926c1.229-2.789.924-5.257.92-5.282l-.015-.124.063-.107c1.311-2.189 1.468-4.792 1.47-4.816l.006-.106.063-.085c2.932-3.985 1.797-7.72.968-9.45a9 9 0 0 0-.975-.315c.64 1.068 2.6 5.035-.57 9.342l-.125.17a.36.36 0 0 0-.068.19l-.013.211c-.001.025-.168 2.486-1.37 4.493l-.127.215a.36.36 0 0 0-.046.227l.03.246c.004.025.275 2.386-.91 5.001q.339.096.7.19" fill="#5872C1"/><path d="M96.56 84.975a8 8 0 0 0-.958-.596c.781 2.068 1.407 5.615-1.206 9.289a.36.36 0 0 0-.064.173c-.06.62-.34 2.795-1.438 4.74a.36.36 0 0 0-.045.203c.049.651.107 2.853-.95 5.32l.7.179c1.025-2.454 1.018-4.65.97-5.444 1.074-1.953 1.385-4.085 1.465-4.834 2.416-3.453 2.188-6.779 1.526-9.03" fill="#5872C1"/><path d="m88.74 93.09.243.02a29 29 0 0 1 3.543.558c1.556.349 3.238.906 4.26 1.7a.358.358 0 0 0 .437-.567c-1.356-1.038-3.447-1.62-5.216-1.973a29 29 0 0 0-3.216-.45.357.357 0 1 0-.05.712M65.16 117.24v-10.385l-1.71 10.026zm-9.094-29.735a.358.358 0 0 0-.576.424l2.106 2.854q.117-.448.242-.876zm.698 7.443q.058-.382.122-.765c-3.968-2.42-4.366-6.017-4.37-6.056a.357.357 0 0 0-.712.065c.016.179.433 4.159 4.96 6.756m1.781-12.442a.357.357 0 0 0-.708-.1c-.028.194-.581 4.255.142 7.046q.223-.706.475-1.323c-.33-2.537.085-5.584.09-5.623" fill="#151E30"/><path d="M75.723 72.684h14.875s.133-7.789-8.488-7.375c-6.464.31-6.387 7.375-6.387 7.375" fill="#3451A3"/><path d="M84.11 72.684h9.457c.506 0 .582.729.087.832l-3.278.684a7.52 7.52 0 0 1-6.267-1.516" fill="#3451A3"/><path d="M87.801 75.929a.715.715 0 1 1-1.43 0 .715.715 0 0 1 1.43 0" fill="#151E30"/><path d="m80.49 76.094-.485-.631-.19.145.199-.133a2.13 2.13 0 0 0-3.073-.51 2.14 2.14 0 0 0-.832 1.835c.038.609.19 1.363.668 1.988.477.627 1.29 1.09 2.532 1.102a.238.238 0 1 0 .007-.476c-1.134-.02-1.767-.409-2.161-.916-.394-.51-.537-1.172-.57-1.727l-.004-.105a1.663 1.663 0 0 1 1.656-1.664c.535 0 1.06.256 1.38.738l.01.013.485.632a.238.238 0 1 0 .378-.29" fill="#A13D3A"/><path d="M77.59 77.071c0-.3.09-.513.211-.651a.6.6 0 0 1 .45-.207c.167 0 .352.067.528.231.177.165.343.432.448.825l.23-.061-.18-.156c-.007.009-.095.111-.186.273a1.34 1.34 0 0 0-.19.642.89.89 0 0 0 .423.754.238.238 0 1 0 .267-.395c-.18-.128-.207-.228-.213-.359a.9.9 0 0 1 .128-.409c.034-.06.069-.111.094-.146l.03-.039.007-.009h.001a.24.24 0 0 0 .05-.218c-.124-.462-.329-.811-.582-1.05a1.25 1.25 0 0 0-.854-.36c-.306 0-.6.132-.808.369-.21.236-.331.571-.33.966a.238.238 0 1 0 .475 0" fill="#A13D3A"/><path d="M78.642 77.48v-.02c0-.061.009-.255.08-.43.076-.176.182-.318.416-.38a.239.239 0 0 0-.118-.462 1.07 1.07 0 0 0-.74.664 1.7 1.7 0 0 0-.115.608l.001.044a.239.239 0 0 0 .476-.025" fill="#A13D3A"/><path d="m84.829 78.08 2.13.44a.67.67 0 0 1 .436 1.004c-.607.999-1.727 2.526-2.767 2.266-1.112-.278-.824-2.193-.587-3.21a.667.667 0 0 1 .788-.5" fill="#151E30"/><path d="m72.043 84.288.012.005c.155.063 1.577.692 2.228 2.38a.238.238 0 1 0 .445-.172 4.85 4.85 0 0 0-1.541-2.075c-.529-.413-.96-.577-.976-.584a.238.238 0 0 0-.168.446" fill="#A13D3A"/><path d="M84.62 81.788h-.002z" fill="#F25059"/><path d="M84.866 81.82a1 1 0 0 1-.237-.03l-.01-.002h-.001l-.008-.003-.01-.002-.009-.003-.009-.002v-.001l-.01-.002q-.008-.004-.017-.006l-.018-.006-.018-.007c-.705-.268-.761-1.28-.653-2.193.489.07 1.522.39 2.073 1.776-.345.288-.711.48-1.073.48" fill="#882D42"/><path d="m42.399 92.881 2.136.43c.785.159 1.323.847 1.254 1.605l-.506 5.515c-.072.779-.76 1.377-1.584 1.377h-2.098c-1.288 0-2.308-1.034-2.222-2.253l.335-4.75c.09-1.282 1.358-2.19 2.685-1.924" fill="#F46A64"/><path d="m41.085 94.896 3.835.842a.238.238 0 0 0 .103-.466l-3.836-.842a.238.238 0 1 0-.102.466m-.185 2.495 3.88.334a.239.239 0 0 0 .041-.474l-3.88-.335a.239.239 0 0 0-.04.475m-.184 2.492 3.923-.174a.238.238 0 1 0-.021-.475l-3.923.173a.239.239 0 0 0 .02.476" fill="#A13D3A"/><path d="M145.802 78.312c-3.963-3.082-12.999 2.177-8.041 10.318 0 0-2.211-.469-2.992 1.586.647-.692 2.3-.722 2.3-.722-2.3 1.794-2.501 6.328.447 8.07-1.296.246-2.457-.826-2.457-.826.558 2.725 3.774 3.841 6.03 2.925-.648.782-2.792.944-2.792.944s2.826 2.698 5.338 1.469c2.301 1.719 5.996.603 5.996.603z" fill="#613232"/><path d="m152.227 89.386 3.89 5.207-2.302 7.237-6.439-1.675 1.312-1.776-1.982-6.13z" fill="#FA9999"/><path d="m152.227 89.386-5.521 2.862.972 3.005q.222.013.449.004a4.635 4.635 0 0 0 4.451-4.292l.074-1.01zm-6.426-11.074c-1.021-.794-2.378-1.03-3.747-.81-1.491 1.21-2.358 3.377-1.386 6.706-.402 3.752 1.419 3.983 1.419 3.983l5.205-.394z" fill="#151E30"/><path d="M143.977 86.292c-.06-.017-.397-.285-.784-.605a1.353 1.353 0 0 0-1.929 1.874l1.133 1.461c.286.368.756.542 1.213.446zm8.522 0c.06-.017.397-.285.784-.605a1.354 1.354 0 0 1 1.929 1.874l-1.132 1.461a1.22 1.22 0 0 1-1.213.446z" fill="#FA9999"/><path d="M143.669 89.33s-1.821-.23-1.419-3.983c-1.574-5.394 1.676-7.739 4.59-7.906-.536-1.106-3.149-1.575-3.149-1.575s3.283-1.775 4.657 1.575l.435-2.045s1.038.504.335 2.179c3.283-.034 5.748 1.913 5.614 5.464-.134 3.55-1.809 5.59-1.809 5.59z" fill="#613232"/><path d="M142.384 138.011c-1.504.229-3.037-9.693-3.037-9.693l5.27-.714s1.296 9.872-2.233 10.407" fill="#151E30"/><path d="m142.454 125.247-2.109-.527a1.7 1.7 0 0 1-1.242-1.183c-.212-.773-.748-1.825-2.102-2.254l-2.417-1.828a.854.854 0 0 0-1.082 1.32l1.556 1.379-4.33-.019a1.102 1.102 0 0 0-.059 2.204l.079.004s.312 1.831 1.921 1.853c.133 1.028.692 1.385 1.429 1.407.173 1.156.982 1.519 1.675 1.475.839.486 1.725.61 2.707.291.858-.278 1.797-.15 2.575.308l3.373 1.984z" fill="#FA9999"/><path d="M179.52 85.615s-9.303.657-14.696 1.072c-6.092.47-9.779 4.422-9.779 4.422l-1.673 9.783-6.164-1.876-1.943 3.35s-5.695 3.015-3.953 10.72l3.953 12.865-4.284-1.072c1.824.457 3.748 13.132 1.403 13.132 3.551.134 3.953.737 5.896-.402 2.01.536 4.02.794 5.628-.876 2.747 1.145 5.159-.397 5.762-2.072s-.804-8.911-.804-8.911l4.021-1.307s3.301 1.151 4.62-1.355z" fill="#FFB778"/><path d="M170.185 86.287c-2.335 5.297-3.482 12.769-.396 19.053a34 34 0 0 0 2.183 3.822l7.549-23.547s-4.687.331-9.336.672m-24.004 23.792c0 .004-.012.3-.012.777 0 .827.036 2.196.239 3.535.101.671.244 1.334.45 1.925.208.589.475 1.111.859 1.492.856.841 1.991 1.288 3.052 1.536 1.063.246 2.062.291 2.666.291.362 0 .582-.016.59-.016a.357.357 0 0 0-.054-.713l-.033.002a11.4 11.4 0 0 1-3.007-.26c-.986-.228-1.998-.644-2.712-1.349-.265-.258-.502-.689-.686-1.219-.279-.795-.445-1.803-.537-2.758a27 27 0 0 1-.106-3.015l.005-.199a.357.357 0 0 0-.714-.029" fill="#FFE2A4"/><path d="m152.16 117.335.025.031c.126.153.717.885 1.36 1.856.643.969 1.338 2.184 1.675 3.273a.357.357 0 0 0 .682-.212c-.4-1.284-1.197-2.621-1.893-3.653-.697-1.029-1.295-1.746-1.3-1.752a.358.358 0 0 0-.549.457" fill="#FFE2A4"/><path d="M155.472 119.674c.045.177.067.4.067.653.001.665-.153 1.522-.314 2.331-.158.814-.324 1.57-.327 2.134.003.222.019.422.13.622.215.377.523.63.848.774.325.146.662.191.969.191.685-.001 1.236-.222 1.259-.23a.358.358 0 1 0-.262-.665l-.001.001a3.1 3.1 0 0 1-.996.18c-.235 0-.473-.037-.676-.128a1.13 1.13 0 0 1-.522-.479.7.7 0 0 1-.034-.266c-.002-.424.152-1.184.314-1.996.16-.818.326-1.701.327-2.469a3.4 3.4 0 0 0-.09-.829.357.357 0 1 0-.692.176m-2.839-13.348.043-.028c.457-.296 4.447-2.793 10.334-4.12a.356.356 0 1 0-.157-.696c-6.407 1.444-10.593 4.235-10.617 4.249a.358.358 0 1 0 .397.595m7.952 4.514.007-.019c.085-.216.905-2.203 2.582-4.26 1.68-2.06 4.202-4.174 7.705-4.723a.36.36 0 0 0 .298-.409.36.36 0 0 0-.409-.298c-3.858.607-6.573 2.985-8.314 5.185-1.743 2.204-2.528 4.246-2.536 4.267a.358.358 0 0 0 .667.257m4.6-19.555c0 .008-.007.112-.007.294 0 .618.08 2.145.784 3.934.702 1.788 2.036 3.838 4.518 5.463a.358.358 0 0 0 .392-.598c-2.348-1.539-3.584-3.45-4.245-5.127-.66-1.676-.735-3.116-.735-3.672q0-.124.003-.186l.003-.045v-.012a.358.358 0 0 0-.713-.05" fill="#FFE2A4"/><path d="m153.016 101.815-.402 9.716a.36.36 0 0 0 .364.372l.18-.003.515-.003c1.118 0 3.459.035 6.045.278 2.584.241 5.419.696 7.497 1.513a.358.358 0 0 0 .261-.666c-2.195-.859-5.071-1.312-7.691-1.559a68 68 0 0 0-6.112-.281c-.451 0-.708.006-.71.006l.008.357.357.015.402-9.715a.358.358 0 0 0-.714-.03m-10.297 8.515c.008.01.463.523 1.156 1.09.695.566 1.621 1.193 2.626 1.405a.357.357 0 1 0 .144-.7c-.804-.163-1.672-.726-2.317-1.258a11 11 0 0 1-1.001-.931l-.056-.06-.017-.019a.358.358 0 1 0-.535.473m3.222 9.767 4.394-.909a.357.357 0 0 0-.145-.7l-4.393.91a.357.357 0 1 0 .144.699" fill="#FFE2A4"/><path d="M186.964 173.299c.204 1.561-8.666 5.719-8.666 5.719v-5.45s8.308-2.993 8.666-.269" fill="#151E30"/><path d="m169.387 175.198-1.992 10.953a8.8 8.8 0 0 1-2.9 5.077l-1.25 1.08a13.74 13.74 0 0 1-7.655 3.279 3.2 3.2 0 0 0-.916.23l-1.964.819a.895.895 0 0 0-.489 1.156 2.2 2.2 0 0 0 2.046 1.393h6.246a9 9 0 0 0 3.17-.575l.319-.121a3.51 3.51 0 0 1 2.969.236 3.5 3.5 0 0 0 1.736.46h2.204a3.286 3.286 0 0 0 3.207-4.005l-.326-1.459a10.35 10.35 0 0 1 .777-6.759l6.61-13.707z" fill="#FA9999"/><path d="M168.615 179.438c2.097.907 6.549.611 10.123-1.12l2.441-5.063-11.792 1.943z" fill="#A13D3A"/><path d="M191.162 47.692c.738-1.903 12.329 6.9 12.731 9.38.402 2.479-3.953 3.015-3.953 3.015l-6.164-4.02s-3.887-5.092-2.614-8.375" fill="#151E30"/><path d="m192.011 51.176 4.601-9.157.905-2.942a25.6 25.6 0 0 1 4.413-8.383l3.169-3.997.098-.381a.777.777 0 0 1 1.246-.407c.632.52.844 1.395.519 2.147l-.504 1.164a2.5 2.5 0 0 0-.13 1.502c.128.621.105 1.713-.774 3.337-.81 1.497-.988 3.256-.441 4.867l.288.848a3.39 3.39 0 0 1-2.225 4.334l-.643.195a3.94 3.94 0 0 0-2.772 3.33l-1.095 9.707z" fill="#FA9999"/><path d="m214.915 84.677 6.072.39a.542.542 0 0 1-.035 1.084h-1.347l-.313.642c-.2.41-.607.679-1.062.7l-3.646.178 2.202.542a.447.447 0 0 1 .269.675l-.331.513-5.595-.972s1.139-3.216 3.786-3.752" fill="#A13D3A"/><path d="M202.329 97.452c1.396 0 2.278-5.896 2.367-8.353l-4.824 1.206s-.536 7.147 2.457 7.147" fill="#151E30"/><path d="M205.009 84.945h2.859l4.779-.893 8.965-1.179a.574.574 0 0 1 .211 1.127l-6.227 1.526-2.657 1.504a.537.537 0 0 0 .095.977l.998.333 2.406.448a.817.817 0 0 1-.255 1.615l-2.821-.366s-4.154.581-6.298-.67l-6.298 1.162s1.786-5.137 4.243-5.584" fill="#FA9999"/><path d="m194.735 85.124 10.274-.179c-2.011.035-3.439 8.755-2.68 12.507 0 0-1.882.125-3.172 0-2.323-.223-5.985.96-5.985.96z" fill="#FFB778"/><path d="m194.735 85.124-1.53 13.006.326.173c.456-.134 1.3-.367 2.262-.56.243-.921.425-2.271.207-4.04 2.274-2.4 2.876-6.472 3.035-8.654z" fill="#FFE2A4"/><path d="M174.411 89.3c1.461 1.693 1.475 7.639 1.475 7.639l-3.351 9.715s-2.546-5.025-2.01-10.117 2.544-8.793 3.886-7.237m-7.65 43.217c.627 2.147 4.658-2.077 4.658-2.077l-1.698-3.886s-3.977 2.479-2.96 5.963" fill="#151E30"/><path d="m173.072 102.768 5.57-24.73a34.6 34.6 0 0 1 3.673-9.492l1.343-2.362s.67-3.35 2.546-3.886c.756-2.687 2.512-6.216 3.717-8.477.633-1.185.851-2.53.723-3.866a3.64 3.64 0 0 1 .518-2.263c-.503 1.417 2.647 3.45 5.595 5.863 2.948 2.411 7.628 5.617 7.136 3.517.357.938-.625 2.368-2.234 3.261 0 4.11-2.144 10.23-4.154 13.088 1.698 3.573-1.295 7.102-1.295 7.102s1.027 7.549-1.296 13.088c1.162 4.422-.446 13.668-3.171 17.867 3.127 8.889-2.278 36.003-5.003 42.57 1.787 7.146-.581 13.936-1.161 14.919-.581.982-.536 2.769.178 3.171.715.402 1.162.626 1.207 1.161-.402-1.697-2.415-.138-11.034 4.11-3.979 1.962-7.995 2.323-10.095 0-.784-.867.179-1.385.849-1.251l3.842-16.349s-.804-3.484 1.072-8.576c.089-7.593-.268-18.671-.268-18.671s-2.591-3.574-2.77-6.7 1.429-16.081 1.429-16.081z" fill="#FFB778"/><path d="M181.379 120.884c-6.328-1.136-8.844-6.198-8.844-6.198s4.056-2.244 8.545-3.401c-3.743-2.81-6.288-9.181-6.902-13.432l-1.107 4.915-3.082 7.013s-1.608 12.954-1.429 16.081c.129 2.262 1.518 4.752 2.278 5.959 2.168-2.705 6.702-8.098 10.541-10.937m12.833-42.941-.065-.042a20 20 0 0 1-3.294-2.789c-.716-.762-1.407-1.643-1.914-2.592s-.829-1.964-.829-3.001q0-.18.013-.36a.358.358 0 0 0-.713-.052 6 6 0 0 0-.014.412c0 1.266.416 2.464 1.025 3.54.914 1.618 2.263 2.98 3.383 3.947a19 19 0 0 0 2.025 1.54.357.357 0 1 0 .383-.603m-.276 2.837-.109.025c-.512.116-2.763.59-5.249.59-1.42 0-2.916-.156-4.199-.606-.451-.157-.758-.306-.926-.423a.6.6 0 0 1-.149-.13l-.009-.011v-.001l-.08.034h.085l-.005-.034-.08.034h.085-.116l.109.04.007-.04h-.116l.109.04-.047-.017.041.03.006-.013-.047-.017.041.03c0-.006.075-.072.215-.128.21-.09.547-.172.948-.227.403-.055.872-.086 1.362-.086 1.128-.002 2.376.166 3.19.513a.357.357 0 1 0 .278-.658c-.967-.406-2.27-.567-3.468-.57-.789.001-1.526.073-2.094.211-.285.07-.527.155-.729.277a1 1 0 0 0-.27.234.63.63 0 0 0-.133.38.7.7 0 0 0 .145.408c.127.166.299.292.529.42.229.127.519.25.883.378 1.397.488 2.963.645 4.435.646 2.942 0 5.512-.632 5.528-.636a.357.357 0 1 0-.17-.694" fill="#FFE2A4"/><path d="M171.171 112.733c.043.043 1.969 1.86 6.008 1.859q.631 0 1.331-.063a.357.357 0 0 0-.066-.712q-.667.062-1.265.061c-1.911-.001-3.297-.427-4.203-.847a6.5 6.5 0 0 1-1.003-.572 4 4 0 0 1-.239-.183l-.055-.047-.011-.011-.002-.001-.096.102.097-.101-.001-.001-.096.102.097-.101a.358.358 0 0 0-.496.515m10.629.942c.038.019 1.205.594 3.284.594 1.038 0 2.304-.144 3.766-.571a.358.358 0 0 0-.201-.686c-1.397.407-2.593.542-3.565.542a8.8 8.8 0 0 1-2.226-.267 5 5 0 0 1-.701-.235l-.032-.014-.006-.003-.018.038.019-.038h-.001l-.018.038.019-.038a.358.358 0 0 0-.32.64m2.921 37.024c-.435.041-.862.212-1.294.461-.755.439-1.535 1.127-2.356 1.915-1.228 1.183-2.541 2.596-3.875 3.724-1.333 1.132-2.685 1.956-3.924 2.029a.357.357 0 1 0 .046.713c1.155-.076 2.268-.64 3.342-1.412 1.611-1.163 3.152-2.82 4.559-4.2.702-.69 1.37-1.31 1.979-1.76.609-.453 1.16-.722 1.589-.759a.357.357 0 1 0-.066-.711m-2.922 8.378-.037.111c-.187.558-1.099 3.124-2.694 5.556-.796 1.216-1.764 2.397-2.883 3.279-1.121.883-2.383 1.465-3.798 1.525a.357.357 0 1 0 .029.714c1.707-.071 3.195-.819 4.45-1.872 1.884-1.58 3.274-3.85 4.208-5.725.932-1.876 1.402-3.361 1.406-3.373a.357.357 0 0 0-.681-.215m-8.91-27.513.017-.107c.091-.544.565-3.081 1.865-5.932 1.3-2.854 3.422-6.008 6.779-7.837a.356.356 0 1 0-.342-.627c-3.789 2.069-6.036 5.678-7.343 8.75-1.308 3.075-1.68 5.63-1.683 5.65a.357.357 0 1 0 .707.103m2.379-.719.007-.014c.083-.164.882-1.7 2.376-3.348 1.495-1.649 3.678-3.401 6.523-4.046a.358.358 0 0 0-.159-.697c-3.142.716-5.484 2.669-7.041 4.429-1.558 1.762-2.337 3.341-2.347 3.36a.358.358 0 0 0 .641.316m-.209-32.423c.02.68.213 1.561.558 2.579 1.038 3.045 3.455 7.291 6.951 9.993a.356.356 0 0 0 .501-.065.356.356 0 0 0-.065-.501c-2.224-1.714-4.027-4.133-5.272-6.425a21 21 0 0 1-1.439-3.232c-.331-.971-.506-1.808-.52-2.368a.358.358 0 0 0-.714.02" fill="#FFE2A4"/><path d="M170.19 103.84c-5.092 4.02-7.507 14.472-2.962 21.039l2.627-3.686z" fill="#151E30"/><path d="M165.97 118.849c-1.944 2.479-2.258 10.787.479 18.492 2.737 7.706 1.933 12.865 1.933 12.865l-6.165 3.819c3.484-7.17 1.608-14.807.671-18.761s-2.277-13.791 2.774-17.476z" fill="#151E30"/><path d="M165.661 117.788c-4.719.761-6.058 7.091-7.58 16.295-1.633 9.872-8.503 15.125-8.503 15.125s-1.144-3.597-5.15-4.415c6.458-2.943 9.565-6.402 11.037-12.276s3.58-15.93 10.196-15.93z" fill="#151E30"/><path d="m155.045 91.11-1.754-.5-.668 4.747c-.122.87.051 1.755.494 2.513l.597 1.024zm-7.837 7.906v-1.921l3.113.967a2.62 2.62 0 0 1 1.614 1.431l.499 1.114zm-1.942 26.935 7.237 1.61c.755.168 1.128-.911.418-1.218-.459-.199-1.115-.285-2.05-.124-2.747-2.613-6.209-2.232-6.209-2.232zm2.246 3.023.005.002c.152.046 3.281 1.015 6.733 4.723a.358.358 0 0 0 .523-.487c-3.673-3.945-7.02-4.912-7.065-4.925a.357.357 0 0 0-.196.687" fill="#FFE2A4"/><path d="M131.463 124.339h3.121c.319 0 .612-.117.828-.312s.354-.474.354-.782-.139-.587-.354-.782a1.23 1.23 0 0 0-.828-.312h-3.009a.238.238 0 1 0 0 .476h3.009a.75.75 0 0 1 .507.189.58.58 0 0 1 .199.429.58.58 0 0 1-.199.429.76.76 0 0 1-.507.189h-3.121a.238.238 0 1 0 0 .476" fill="#A13D3A"/><path d="m133.454 126.206 2.772-.581a1.177 1.177 0 0 0-.476-2.305l-.319.065a.238.238 0 0 0 .095.467l.319-.065a.702.702 0 0 1 .84.688.7.7 0 0 1-.557.684l-2.771.581a.238.238 0 1 0 .097.466" fill="#A13D3A"/><path d="m134.99 127.526 1.768-.786a1.215 1.215 0 0 0 .598-1.643l-.219-.448a.238.238 0 1 0-.428.21l.219.447a.74.74 0 0 1-.363.999l-1.769.786c-.121.054-.174.194-.121.314a.237.237 0 0 0 .315.121" fill="#A13D3A"/><path d="m136.474 128.475.823-.539a1.11 1.11 0 0 0 .251-1.633l-.262-.32a.238.238 0 1 0-.369.301l.262.32a.64.64 0 0 1-.144.933l-.822.54a.238.238 0 1 0 .261.398" fill="#A13D3A"/><path d="m200.022 57.378.036-.004zl.036-.004zl.002.077a1.77 1.77 0 0 1-.901 1.548.36.36 0 0 0-.175.32q.005.127.005.265c.002 1.89-.657 4.755-1.506 7.306a33 33 0 0 1-1.344 3.449 14 14 0 0 1-.654 1.258c-.206.347-.4.614-.554.771a.36.36 0 0 0-.098.204c-.129 1.017-.403 2.035-.788 2.84-.383.81-.881 1.385-1.385 1.584a.36.36 0 0 0-.219.378c.043.32.072.699.072 1.096 0 .504-.047 1.038-.165 1.529s-.309.935-.579 1.268a.36.36 0 0 0-.059.344c.176.496.384 1.364.542 2.449s.272 2.39.272 3.783c0 1.928-.217 4.022-.818 5.93a.36.36 0 0 0 .003.222c.265.77.387 1.765.387 2.887 0 2.565-.634 5.786-1.467 8.61a37 37 0 0 1-1.338 3.814c-.454 1.086-.907 1.948-1.269 2.43a.36.36 0 0 0-.046.346c.393.984.781 2.638 1.064 4.697s.466 4.533.466 7.186c0 3.925-.4 8.245-1.453 12.213-2.505 9.435-4.247 17.568-4.248 17.572a.34.34 0 0 0-.001.146l.018.093c.082.443.419 2.412.419 4.88 0 1.828-.185 3.93-.786 5.884-.771 2.512-1.009 4.318-1.01 5.579 0 .661.066 1.171.157 1.556.092.386.203.641.322.813a.356.356 0 1 0 .585-.41c-.041-.056-.137-.247-.212-.567-.076-.322-.137-.779-.137-1.392 0-1.17.223-2.909.978-5.369.63-2.052.817-4.218.818-6.094-.001-2.894-.449-5.1-.451-5.116l-.351.072.35.074c0-.001.108-.506.31-1.414a431 431 0 0 1 3.929-16.123c1.074-4.049 1.477-8.423 1.477-12.397 0-2.686-.184-5.188-.472-7.283-.29-2.098-.679-3.783-1.108-4.864l-.332.132.286.214c.426-.571.886-1.463 1.357-2.581 1.402-3.35 2.855-8.685 2.859-12.701-.001-1.173-.123-2.236-.425-3.118l-.338.116.341.107c.63-2.003.851-4.162.851-6.144 0-1.43-.116-2.769-.28-3.887-.164-1.12-.374-2.015-.576-2.584l-.336.12.278.224c.36-.446.582-.988.717-1.55a7.4 7.4 0 0 0 .186-1.696c0-.432-.032-.84-.079-1.19l-.354.047.134.33c.768-.317 1.332-1.046 1.76-1.937.427-.896.714-1.975.853-3.057l-.355-.046.257.25c.217-.225.43-.529.655-.904.779-1.309 1.668-3.51 2.377-5.834.705-2.326 1.226-4.758 1.227-6.545q0-.148-.005-.29l-.357.012.183.308a2.49 2.49 0 0 0 1.251-2.163c0-.087-.005-.14-.006-.152a.358.358 0 0 0-.711.076" fill="#B2BEE0"/><path d="M169.855 107.123s-3.886 5.159-2.948 14.741c-.938 4.355-.146 10.653-.146 10.653-1.395-2.948 9.057-7.303 10.464-11.792-2.68.067-6.432-6.231-6.432-6.231s3.216-4.021 6.432-4.222c0 0-4.479-4.891-5.389-10.988-.909-6.098 1.144-11.15 2.575-9.984-1.474-2.01-5.561 3.619-4.556 17.823" fill="#FFB778"/><path d="M170.793 114.493c-.902-1.481-1.02-4.862-1.002-6.473.301 3.082 2.046 5.613 2.046 5.613z" fill="#B2BEE0"/><path d="m143.235 86 .434 3.33a4.636 4.636 0 0 0 9.221-.258l.257-3.487c.07-.956-.497-1.854-1.402-2.17-.615-.216-1.272-.57-1.678-1.15-.402 1.295-1.932 1.742-1.932 1.742s.994-1.474.905-2.501c-1.43 2.278-3.172 3.35-4.199 3.305 1.43-.67 1.697-2.456 1.697-2.456s-1.014.929-2.105 1.437A2.13 2.13 0 0 0 143.235 86" fill="#FA9999"/><path d="M151.679 89.386a1.085 1.085 0 1 1-2.17 0 1.085 1.085 0 0 1 2.17 0m-4.635-.401a1.084 1.084 0 1 1-2.168 0 1.084 1.084 0 0 1 2.168 0" fill="#F03F4F"/><path d="M146.737 86.639a.737.737 0 1 1-1.468.122.737.737 0 0 1 1.468-.122m4.388 0a.737.737 0 1 1-1.469.122.737.737 0 0 1 1.469-.122" fill="#151E30"/><path d="M148.153 85.875v.51c0 .432.148.852.419 1.189l.103.128q.071.091.07.197a.31.31 0 0 1-.125.252l-.194.147a.239.239 0 0 0 .288.38l.194-.148a.79.79 0 0 0 .139-1.126l-.103-.13a1.4 1.4 0 0 1-.314-.89v-.51a.238.238 0 0 0-.477 0" fill="#A13D3A"/><path d="m146.987 88.991 2.353.441a.356.356 0 0 1 .277.449c-.183.645-.656 1.887-1.583 1.854-.911-.033-1.312-1.524-1.463-2.33a.355.355 0 0 1 .416-.414" fill="#151E30"/><path d="m145.094 85.64-.111-.216.107.22zl-.111-.217.107.22s.068-.034.189-.068a2 2 0 0 1 .496-.065c.288 0 .639.061 1.035.283a.477.477 0 0 0 .467-.83 3.05 3.05 0 0 0-1.502-.406c-.65.001-1.072.213-1.115.235a.477.477 0 0 0 .434.848m4.466.036 2.234-.392a.476.476 0 0 0-.165-.938l-2.234.391a.477.477 0 1 0 .165.939" fill="#613232"/><path d="M238.521 61.606c-3.306-.09-4.199-2.68-2.368-4.958-1.429-3.26.447-6.12 4.021-5.226 1.92-3.306 8.308-5.762 8.843-1.519 4.78-4.065 9.649 2.055 5.763 4.958 4.288 2.233-.358 5.092-.358 5.092s2.921 3.089-2.233 4.557c.425 2.271-2.457 2.501-2.457 2.501z" fill="#151E30"/><path d="M289.124 126.891s1.658 2.91 2.328 14.754l7.173 7.745a32 32 0 0 1 5.692 8.591l10.05 22.309-4.02 4.847-22.123-27.95a16.1 16.1 0 0 0-4.183-3.721c-1.982-1.222-4.866-3.661-6.123-7.968-2.011-6.884-5.552-16.318-5.552-16.318z" fill="#F46A64"/><path d="m301.264 173.66 9.084 11.477 4.02-4.847-6.936-15.396z" fill="#95DBC8"/><path d="m304.896 159.266-.579-1.285a32 32 0 0 0-5.692-8.591l-7.173-7.745c-.67-11.844-2.328-14.754-2.328-14.754l-16.758 2.289s3.541 9.434 5.552 16.318c1.257 4.307 4.141 6.746 6.123 7.968 1.318.813 2.5 1.818 3.531 2.967 2.748-1.639 10.85-1.275 17.324 2.833" fill="#A13D3A"/><path d="M287.968 104.041s1.658 3.957 1.274 8.888a5.2 5.2 0 0 0 .225 1.97c.474 1.497.638 3.48.692 4.884a6.3 6.3 0 0 0 1.063 3.283l1.219 1.811c.816 1.212.445 2.881-.833 3.59-5.964 3.31-16.201 3.039-20.387 2.509l-3.555-9.983z" fill="#3451A3"/><path d="m292.442 124.877-1.22-1.811-.072-.115c-1.466 3.229-8.255 7.599-21.006 4.997l1.077 3.028c4.186.53 14.424.801 20.388-2.509 1.277-.709 1.648-2.378.833-3.59" fill="#53AA36"/><path d="M319.762 108.441c0 6.663-5.401 12.064-12.064 12.064s-12.064-5.401-12.064-12.064 5.401-12.065 12.064-12.065 12.064 5.402 12.064 12.065" fill="#EB4D33"/><path d="m316.896 102.053.324-.087-4.556-4.52a12 12 0 0 0-4.966-1.07 12.02 12.02 0 0 0-8.194 3.213l.579.491a5.9 5.9 0 0 0 3.115 1.355l3.926.463a3 3 0 0 1 1.082.344l.686.371c.401.217.862.297 1.312.226l.645-.102-1.742-2.346 3.92-.201 2.173 1.556a2.01 2.01 0 0 0 1.696.307" fill="#151E30"/><path d="M305.965 96.503q-.324.046-.644.11l-.078.017q-.256.053-.508.116l-.065.017c2.363.372 4.513 1.643 6.234 3.536l.675-.034c-1.556-1.821-3.479-3.145-5.614-3.763" fill="#EB4D33"/><path d="m253.798 108.441.354.138a1.594 1.594 0 0 1 .977 1.845l-.754 3.262a.9.9 0 0 1-.95.692.89.89 0 0 1-.792-1.095z" fill="#A13D3A"/><path d="M245.422 72.75c.671-.527 1.273-.435 1.976 0l9.749-3.35s-.569-4.489.604-5.092c1.172-.603 2.277 1.642 3.751 2.747 1.475 1.106 13.745 8.405 14.942 9.984s.57 3.82.57 3.82l5.125 12.428s12.267-2.557 12.463.971c.067 1.207-2.412 2.848-4.154 3.82-1.742.971-5.293 3.149-5.293 3.149l-22.882-3.082-17.387-21.877s.055-2.13.536-3.517" fill="#151E30"/><path d="m276.75 76.103 13.187 3.49 10.913 14.74c.31.418.493.916.529 1.436l.14 2.06a3.04 3.04 0 0 0 2.082 2.687c.891.295 2.106.57 3.685.673.611.04 1.203.249 1.695.615l1.349 1a.735.735 0 0 0 .948-1.118l-2.047-1.978-1.519-.67 4.661.162c.31.011.609.116.857.301l3.514 2.618a.817.817 0 0 0 1.135-1.154l-.831-1.078-2.685-2.88a2.1 2.1 0 0 0-.959-.582l-6.809-1.899-7.097-19.922a9.42 9.42 0 0 0-6.629-5.99l-7.983-1.96s-7.472 5.498-8.136 9.45" fill="#F46A64"/><path d="m249.107 64.51 3.908 2.531c.523.34 1.19.363 1.736.064l9.803-5.379a8.22 8.22 0 0 1 8.629.448l1.572 1.09a8.7 8.7 0 0 0 2.628 1.231 449 449 0 0 1 7.503 2.158s-5.494 5.897-5.359 10.185l-4.557-1.206 1.608 8.04-21.173 16.751-10.318-8.309-3.619 9.649h-10.854c.537-3.484 2.397-10.989 2.397-10.989l.401-4.312a9.9 9.9 0 0 1 6.061-8.227l.567-.235a10 10 0 0 0 3.233-2.162l3.421-3.422-4.019-3.35z" fill="#3451A3"/><path d="m246.695 72.416-2.629 2.628c.741-.173 2.575-.265 3.903-.31a.562.562 0 0 0 .337-.997z" fill="#151E30"/><path d="M249.744 70.205c1.774-1.377 2.311-3.786 1.64-4.22l-2.277-1.475-6.432 4.555 2.557 2.132c1.212.814 2.947.221 4.512-.992" fill="#F46A64"/><path d="M247.99 66.073s-.621 3.43-3.504 4.502l-1.179-.982z" fill="#151E30"/><path d="M314.362 97.008a2.07 2.07 0 0 0-.958-.583l-4.734-1.32 3.241 1.61 5.136 3.172z" fill="#A13D3A"/><path d="M237.806 60.068v3.28c-1.117 3.53.38 6.847 5.181 6.576 2.546-.144 4.11-2.109 5.003-3.85 0 0 1.965.133 3.281-2.15.868-1.508-.645-4.328-3.058-1.737 0 0-1.219-.626-1.042-2.582a1.076 1.076 0 0 0-.942-1.168c-1.238-.17-2.393-1.075-2.393-1.075s-1.653 1.966-3.44.447c-.198.515-.729.705-1.259.757-.761.075-1.331.736-1.331 1.502" fill="#F46A64"/><path d="M245.649 64.265a1.37 1.37 0 1 1-2.74-.002 1.37 1.37 0 0 1 2.74.002" fill="#F03F4F"/><path d="M245.422 72.75c-.513 1.453 3.373 6.768 6.7 4.49 2.189-1.498 3.121-5.38 2.967-9.896a2.46 2.46 0 0 1 1.242-2.239l1.42-.797c-.897.504.134 5.025 4.489 10.118 4.355 5.092 12.797 6.13 14.204 4.757 1.046-1.02 0-2.144 0-2.144s1.944 1.564 1.675 4.2c1.408 1.63 1.14 2.835 1.14 2.835s3.618 1.14 3.819 4.624c3.551-.067 4.288 2.68 4.288 2.68 5.561-.135 7.036 1.406 7.236 2.88 0-1.407-2.415-1.293-7.37.939-9.023 4.064-16.482 2.345-25.059 14.874 0 0-2.278.402-2.144-3.283-2.479-1.943-2.278-3.953-2.278-3.953l-5.597-3.748a10.7 10.7 0 0 1-3.419-3.73c-1.9-3.452-4.968-10.39-5.426-19.827a1.46 1.46 0 0 1 .547-1.207c.506-.405 1.214-1.023 1.566-1.572" fill="#53AA36"/><path d="M262.03 107.803c.681-1.556 2.071-2.939 3.744-4.339 1.67-1.401 3.611-2.819 5.356-4.492 2.04-1.958 3.897-4.087 5.649-5.766.876-.84 1.725-1.567 2.549-2.103s1.619-.88 2.388-.979a.357.357 0 1 0-.092-.709c-.915.118-1.804.516-2.686 1.09-2.637 1.724-5.282 5.058-8.303 7.951-1.699 1.631-3.624 3.038-5.321 4.461-1.694 1.422-3.171 2.86-3.938 4.598a.358.358 0 0 0 .654.288m14.004-22.169c-1.832 1.559-3.175 3.107-4.23 5.054-1.055 1.946-1.822 4.28-2.541 7.422a.358.358 0 0 0 .696.16c.712-3.112 1.464-5.38 2.473-7.242 1.011-1.86 2.279-3.328 4.065-4.85a.357.357 0 0 0-.463-.544" fill="#151E30"/><path d="m241.468 101.763-2.529 6.745 4.604 1.719a1.98 1.98 0 0 0 2.317-.715c.62-.894 1.309-1.76 1.887-2.452a2.79 2.79 0 0 1 3.119-.827l3.084 1.15c.493.184.796.693.698 1.209-.078.409-.252.881-.628 1.256.268.849-.491 1.876-.491 1.876s.089 1.251-.536 2.01c.223 1.117-.536 1.832-.849 2.055s-1.742.357-2.903-.313c-.817.779-2.649.726-3.759.277a1.98 1.98 0 0 0-1.389-.018c-1.864.65-6.755 2.098-12.865 1.921-1.934-.056-3.553-1.489-3.884-3.395a4.1 4.1 0 0 1 .122-1.912c.708-2.285 2.478-6.744 3.148-10.586z" fill="#F46A64"/><path d="M236.689 112.617c.982-2.533 3.075-3.878 4.286-3.349l-2.036-.759 1.1-2.934c-3.358.444-7.877.271-10.379.119-.776 2.633-1.721 5.129-2.194 6.656a4.1 4.1 0 0 0-.122 1.911c.331 1.906 1.95 3.339 3.884 3.395a37 37 0 0 0 6.759-.433c-2.233.292-2.184-2.323-1.298-4.606" fill="#95DBC8"/><path d="M238.939 108.508c-1.152-.467-4.854-.03-6.861 2.536a.831.831 0 1 1-.888-1.307l8.182-2.381z" fill="#B2BEE0"/><path d="M247.748 107.06a35 35 0 0 0-1.888 2.452c-.319.46-.811.746-1.34.82-.047.668-.008 1.287.114 1.816.207.898 1.488.856 1.613-.057.264-1.922 1.113-4.494 1.612-5.144z" fill="#A13D3A"/><path d="M286.833 122.433c.398 2.379-8.826 6.086-16.687 3.674l3.216-5.36s12.736-2.71 13.471 1.686" fill="#151E30"/><path d="m274.571 121.107-5.027 6.586c12.797 2.546 18.827 15.344 26.666 18.895l-1.206 7.906-38.399-18.583a7.91 7.91 0 0 1-4.381-8.254l.011-.071a13.2 13.2 0 0 1 1.693-4.814l1.681-2.854s9.518-7.944 18.962 1.189" fill="#F46A64"/><path d="M274.456 129.279a22.7 22.7 0 0 0-4.912-1.586l5.027-6.586c-9.444-9.133-18.962-1.189-18.962-1.189l-1.681 2.854a13.2 13.2 0 0 0-1.693 4.815l-.011.07a7.91 7.91 0 0 0 4.381 8.254l11.848 5.734c-2.864-4.505 1.418-12.056 6.003-12.366" fill="#95DBC8"/><path d="m271.048 125.721 3.523-4.614c-9.445-9.133-18.963-1.189-18.963-1.189 6.06-2.149 10.657 4.657 15.44 5.803" fill="#B2BEE0"/><path d="m286.271 95.609.973 1.387a10.77 10.77 0 0 1 1.531 9.196l-2.603 8.973a7.66 7.66 0 0 0 .065 4.549c.29.877.558 1.888.596 2.719-.954-1.387-3.903-.867-6.592.521s-6.071 2.602-10.148.52c-4.076-2.081-7.979-6.765-14.485-3.556 0 0 12.317-25.413 30.663-24.309" fill="#3451A3"/><path d="M248.735 95.357a10.7 10.7 0 0 0 2.179 2.754c-5.483-8.797-7.034-20.027-7.058-23.788a1.46 1.46 0 0 0-.547 1.207c.458 9.436 3.526 16.375 5.426 19.827m28.441-15.927a2.6 2.6 0 0 0 .489-.762c-.503-1.047-1.221-1.63-1.221-1.63s1.045 1.125 0 2.145c-1.407 1.373-9.849.335-14.204-4.757-4.356-5.093-5.387-9.614-4.489-10.118l-.603.338c-.983 3.169 1.74 8.042 6.03 12.013 4.253 3.938 12.05 4.871 13.998 2.771" fill="#FEF4D9"/><path d="M296.209 146.588c-4.005-1.815-7.54-6.043-11.746-10.085-1.256 1.025-3.542 3.75-4.854 10.541l15.394 7.45z" fill="#95DBC8"/><path d="m294.334 150.474.672-4.186a.936.936 0 0 1 1.332-.695l1.567.756a3.7 3.7 0 0 0 2.118.326c1.738-.249 5.263-.552 7.98.516l-.695 11.43q-.043.698.038 1.391l.423 3.649c.172 1.486.066 2.99-.324 4.435-.53 1.966-1.457 4.741-2.86 6.767l-3.417-.536-.511-6.531a5.4 5.4 0 0 0-.667-2.202l-4.41-7.871a8.37 8.37 0 0 0-3.52-3.376l-3.019-1.528v-1.782a1.64 1.64 0 0 1 2.134-1.563zm11.725 31.111.833-.938a1.218 1.218 0 0 1 1.96.19l1.495 2.535s1.187-3.496 2.777-5.27c.388-.434 1.106-.244 1.239.323l.228.971 5.941 2.502 2.769 2.993-10.606 12.569a4.85 4.85 0 0 1-3.71 1.725h-5.908a9.7 9.7 0 0 1-2.481-.322l-2.845-.75.312-2.68s2.1-1.385 6.835-2.368l1.863-4.689a6.17 6.17 0 0 0 .141-4.163z" fill="#3451A3"/><path d="M239.897 61.785a.682.682 0 1 1-1.364.001.682.682 0 0 1 1.364 0m3.893-.391a.682.682 0 1 1-1.365-.001.682.682 0 0 1 1.365.001" fill="#151E30"/><path d="M240.493 60.891v1.094a.65.65 0 0 1-.202.468l-.566.534a.62.62 0 0 0-.198.451c.001.16.06.312.168.429.107.118.27.197.451.198l1.208.013a.238.238 0 1 0 .005-.477l-1.208-.012a.14.14 0 0 1-.106-.045l-.041-.106.047-.105.567-.533c.224-.212.351-.507.352-.815V60.89a.238.238 0 0 0-.477 0" fill="#A13D3A"/><path d="m240.349 64.99 2.664-.935a.67.67 0 0 1 .881.504c.216 1.149.436 3.253-.733 3.707-1.156.45-2.483-1.255-3.155-2.28a.67.67 0 0 1 .343-.996" fill="#151E30"/><path d="M251.854 78.247c1.976-.754 2.854-3.02 3.574-5.528.743-2.593-.081-6.089.909-7.618l-.006.004a2.46 2.46 0 0 0-1.242 2.239c.154 4.515-.778 8.398-2.967 9.896-3.328 2.278-7.214-3.037-6.7-4.49a4.4 4.4 0 0 1-.536.652c.537 2.782 3.673 6.102 6.968 4.845" fill="#FEF4D9"/><path d="m274.97 75.632-7.319-1.975c-1.193-.322-1.795 1.448-.632 1.866a2.8 2.8 0 0 0 .665.151c.668.07 1.314.3 1.864.685 2.292 1.604 6.075 2.535 6.075 2.535zm-29.883 16.483s-2.077-1.34-3.611-3.39c-.482-.643-1.507-.21-1.364.58.119.66.508 1.111.899 1.409.655.499 1.075 1.243 1.272 2.042.126.509.292 1.083.503 1.624.258.665 1.208.65 1.458-.018z" fill="#151E30"/><path d="M258.63 98.925a672 672 0 0 1 2.856-1.816l-.488-.648-.964.606a145 145 0 0 1-8.029-11.753l-.329.19q-.66.953-1.3 1.906l.445.693a127 127 0 0 1 1.217-1.84 146 146 0 0 0 7.622 11.04l-1.533.973q.25.325.503.648m.152 1.57q-1.18-1.476-2.309-2.956l1.608-1.015a148 148 0 0 1-5.752-8.242q-.603.902-1.186 1.804a138 138 0 0 1-2.12-3.262q.86-1.186 1.754-2.371l1.249-.718a143 143 0 0 0 7.773 11.712l1.068-.664a156 156 0 0 0 2.21 2.963 587 587 0 0 0-4.295 2.749m4.964-7.488 1.671-1.022a64 64 0 0 1-.056-.873 143 143 0 0 1-3.195-4.899q.65 3.396 1.58 6.794m-3.125-2.979a88 88 0 0 1-1.285-6.508q-.845.483-1.683.965a64 64 0 0 0-.021.876 138 138 0 0 0 2.989 4.667m3.307 4.483-.682-.352a90 90 0 0 1-2.776-11.523l.565.25a138 138 0 0 0 5.318 8.397q.044.834.104 1.668-1.272.78-2.529 1.56m-1.828-1.005a143 143 0 0 1-5.525-8.37q.015-.831.047-1.662a674 674 0 0 1 2.724-1.548l.611.348a90 90 0 0 0 2.715 11.483zm2.103 1.762q1.419-.885 2.856-1.769a83 83 0 0 1-.154-2.165 138 138 0 0 1-5.772-9.171l-1.925-1a563 563 0 0 0-3.121 1.765q-.049 1.08-.068 2.161a143 143 0 0 0 6.099 9.178zm.607 1.384a875 875 0 0 1-2.856-1.371 143 143 0 0 1-6.939-10.361 82 82 0 0 1 .102-2.942 586 586 0 0 1 3.826-2.143q1.294.682 2.598 1.366c1.94 3.44 4.096 6.898 6.47 10.353q.094 1.475.241 2.948a590 590 0 0 0-3.442 2.15" fill="#3451A3"/><path d="m250.034 108.666 3.686 1.276a.238.238 0 1 0 .155-.451l-3.685-1.275a.238.238 0 1 0-.156.45m-.564 2.003 3.685 1.276a.238.238 0 0 0 .156-.45l-3.685-1.275a.237.237 0 0 0-.303.147.237.237 0 0 0 .147.302m-.236 2.028 3.211 1.112a.239.239 0 0 0 .156-.451l-3.212-1.112a.237.237 0 0 0-.302.148.237.237 0 0 0 .147.303m-.057 1.792c.025.017.686.462 1.859.533a.239.239 0 0 0 .028-.476 4 4 0 0 1-1.216-.255 3 3 0 0 1-.309-.141l-.074-.042-.017-.011-.003-.002-.032.049.033-.048-.001-.001-.032.049.033-.048a.239.239 0 0 0-.269.393" fill="#A13D3A"/><path d="m249.097 113.993.08-.039-.081.037zl.08-.039-.081.037c.002.005.082.186.081.445 0 .139-.021.3-.088.475a.238.238 0 1 0 .445.169c.089-.234.12-.455.12-.644-.001-.379-.118-.627-.127-.648a.238.238 0 1 0-.43.205" fill="#A13D3A"/><path d="m240.211 81.995-.003.014c-.032.163-.357 1.71-1.252 3.34-.446.817-1.034 1.654-1.792 2.355s-1.682 1.267-2.819 1.559a.357.357 0 0 0 .177.692c1.306-.334 2.365-1 3.207-1.801 1.265-1.204 2.053-2.706 2.533-3.907.479-1.201.648-2.105.651-2.12a.357.357 0 0 0-.702-.132m24.191-15.049c.044.032 1.341.922 3.86.922.988 0 2.163-.137 3.521-.513a.357.357 0 1 0-.191-.689c-1.299.36-2.408.487-3.33.487-1.175 0-2.047-.207-2.622-.408a5 5 0 0 1-.637-.274 3 3 0 0 1-.151-.085l-.034-.021-.006-.004-.037.053.037-.053-.037.053.037-.053a.356.356 0 0 0-.497.087.36.36 0 0 0 .087.498" fill="#151E30"/><path d="M286.833 122.433c-.038-.831-.306-1.842-.596-2.719a7 7 0 0 1-.234-.909c-2.617-1.247-7.491 1.836-10.899 2.254-3.819.47-5.361-1.808-8.175-3.886-2.529-1.866-4.902-2.481-9.246-.984-1.351 2.24-2.075 3.729-2.075 3.729 6.506-3.209 10.409 1.475 14.485 3.556 4.077 2.082 7.46.868 10.148-.52 2.689-1.388 5.638-1.908 6.592-.521" fill="#53AA36"/><path d="M269.543 127.693c-1.391-.34-3.829-.154-5.724.523-1.112.398-1.783-1.278-.683-1.709a2.8 2.8 0 0 1 1.676-.082c.83.217 1.691.211 2.502-.064 1.622-.55 3.606-.472 3.606-.472z" fill="#B2BEE0"/><path d="m287.72 107.541-2.032 5.832a7.4 7.4 0 0 0-.251 3.977l.084.394a.358.358 0 0 0 .699-.148l-.083-.394a6.7 6.7 0 0 1 .226-3.594l2.032-5.832a.357.357 0 0 0-.675-.235m-6.353 2.354-.039.063a24.5 24.5 0 0 1-2.696 3.376c-1.506 1.582-3.539 3.259-5.805 3.995a.358.358 0 0 0 .222.68c2.609-.854 4.825-2.791 6.403-4.505 1.578-1.716 2.514-3.218 2.522-3.231a.358.358 0 0 0-.606-.378m26.4 53.766-.423-3.649a8 8 0 0 1-.037-1.391l.694-11.43c-.959-.377-2.02-.581-3.067-.679l-.746 10.87a8.6 8.6 0 0 0 .115 2.117l.958 5.377c.395 2.212.091 4.517-.995 6.484-.678 1.227-1.667 2.389-3.099 2.967l3.417.536c1.403-2.026 2.33-4.801 2.86-6.767.389-1.445.495-2.949.323-4.435m-7.172 35.202c.81.214 1.644.322 2.481.322h5.908c1.43 0 2.788-.631 3.71-1.725l10.606-12.569-2.769-2.993s-4.512 6.254-6.433 9.113-2.233 5.36-6.298 5.494-9.738-1.072-9.738-1.072l-.312 2.68z" fill="#151E30"/><path d="M248.234 66.31c.01 0 .274-.023.624-.116.349-.093.786-.253 1.141-.552a.239.239 0 0 0-.308-.363c-.266.226-.644.373-.955.455a4 4 0 0 1-.505.098l-.037.004a.238.238 0 1 0 .04.474m2.284-2.42a1.5 1.5 0 0 0 .409-1.026c0-.217-.05-.434-.169-.62a.92.92 0 0 0-.552-.398 1 1 0 0 0-.285-.035c-.378.002-.752.164-1.047.41-.291.245-.518.586-.52.984q0 .088.016.178c.059.307.124.59.123.794-.001.145-.028.238-.083.308-.054.07-.157.144-.378.197a.238.238 0 1 0 .107.464c.286-.066.506-.186.648-.368a.95.95 0 0 0 .182-.601c-.001-.293-.077-.589-.13-.882l-.009-.09c-.002-.2.13-.436.35-.62.217-.182.508-.3.741-.297q.089 0 .165.02c.13.035.209.1.271.192.059.093.094.22.094.364a1.03 1.03 0 0 1-.276.695.238.238 0 0 0 .343.33" fill="#A13D3A"/><path d="m249.799 63.177-.654-.855a.238.238 0 0 0-.378.29l.654.855a.238.238 0 1 0 .378-.29" fill="#A13D3A"/><path d="M243.178 68.259h.002z" fill="#F24F58"/><path d="M242.767 68.34c-.483 0-.978-.306-1.431-.723.236-.943 1.245-1.652 2.454-1.652.092 0 .18.015.271.023.034.971-.133 1.965-.881 2.27l-.002.001-.007.003-.002.001-.008.003a1.1 1.1 0 0 1-.394.074" fill="#8E2F44"/><path d="m242.091 60.654 2.296-.536a.476.476 0 1 0-.216-.928l-2.297.536a.477.477 0 0 0 .217.928m-3.336.146c.027-.013.173-.046.319-.044.107 0 .22.014.308.04a.44.44 0 0 1 .184.096.477.477 0 0 0 .662-.687 1.4 1.4 0 0 0-.577-.323 2.2 2.2 0 0 0-.983-.041 1.3 1.3 0 0 0-.357.116.478.478 0 0 0 .444.843" fill="#151E30"/><path d="M286.75 76.047c-.308.891-.488 1.828-.592 2.546l3.78 1c-.752-.912-1.115-2.13-1.19-3.275-.075-1.133-1.627-1.344-1.998-.27" fill="#A13D3A"/><path d="M365.663 71.337c0 3.269-2.583 5.919-5.768 5.919-3.186 0-5.769-2.65-5.769-5.92 0-3.268 2.583-5.918 5.769-5.918s5.768 2.65 5.768 5.919" fill="#831C24"/><path d="M360.922 72.582c-2.453-1.883-4.986-1.294-6.734-.419.393 2.877 2.794 5.093 5.706 5.093a5.64 5.64 0 0 0 3.203-.997c-.244-1.362-.874-2.68-2.175-3.677" fill="#151E30"/><path d="m366.315 83.773 2.677-2.115a10.35 10.35 0 0 1 8.464-2.027c1.327.267 2.693.274 4.023.02l12.102-2.306 1.251-12.329s-3.127-3.037-3.753-5.985c0 0-1.289-3.575-1.606-7.848a.743.743 0 0 1 1.462-.223l.949 3.872s.982-2.233 3.573-.804c1.876-1.161 6.075 1.072 4.824 2.948 0 0 2.323 1.608 1.787 2.055s-2.233-.893-2.233-.893l-.983.893s1.429 2.055.357 4.02c0 0 3.273 6.379 4.912 14.346.805 3.907-1.711 7.725-5.628 8.48l-18.313 3.529z" fill="#FA9999"/><path d="M392.122 55.717c.003.005.638 1.512 1.187 2.441a.238.238 0 1 0 .41-.243 18 18 0 0 1-.776-1.523 33 33 0 0 1-.382-.86.238.238 0 1 0-.439.185m3.873-.932 1.971 1.306a.44.44 0 0 1 .149.57v-.001a.44.44 0 0 1-.567.203l-3.371-1.457a.24.24 0 0 0-.313.124.24.24 0 0 0 .124.313l3.371 1.457a.917.917 0 0 0 1.179-.421l.001-.001a.923.923 0 0 0-.31-1.185l-1.971-1.305a.238.238 0 1 0-.263.397" fill="#A13D3A"/><path d="m394.405 55.788-.415 1.276a.238.238 0 1 0 .453.147l.415-1.275a.238.238 0 0 0-.453-.148m5.173.805h-.025c-.125 0-.704-.05-1.012-.285a.239.239 0 0 0-.282.384c.276.2.601.286.858.332.258.045.452.045.461.045a.238.238 0 0 0 0-.476m-3.312-.009-.341.936a.238.238 0 1 0 .447.163l.342-.936a.239.239 0 0 0-.448-.163m1.254 1.332.363-.669a.238.238 0 1 0-.419-.227l-.363.67a.238.238 0 1 0 .419.226m-.977 5.598c.109-.293.153-.596.153-.895-.001-.693-.23-1.362-.454-1.863-.225-.5-.448-.834-.453-.842l-.198.133-.003.238 1.781.026h.012a.816.816 0 0 0 .14-1.62l-1.472-.257a2.65 2.65 0 0 0-2.181.597l-1.095.936a.238.238 0 1 0 .31.362l1.094-.936a2.18 2.18 0 0 1 1.791-.49l1.471.257c.162.028.282.17.282.335a.34.34 0 0 1-.34.339h-.005l-1.782-.025a.24.24 0 0 0-.212.124.24.24 0 0 0 .011.247l.008.011c.043.066.25.396.445.85.195.452.374 1.03.373 1.578 0 .253-.037.498-.122.728a.237.237 0 1 0 .446.167" fill="#A13D3A"/><path d="M404.121 77.397a54 54 0 0 0-.48-2.115c-2.559 2.76-7.708 1.802-9.823-.27l-.237 2.333-3.22.613c-1.18 4.085.245 7.665 1.714 9.155l6.418-1.236c3.916-.755 6.432-4.573 5.628-8.48" fill="#3451A3"/><path d="m378.023 81.417-.007.013c-.079.155-.854 1.555-2.474 2.146a.238.238 0 1 0 .164.447c1.924-.71 2.731-2.374 2.745-2.397a.238.238 0 1 0-.428-.21" fill="#A13D3A"/><path d="M397.065 95.592c1.751.858-.089 9.179-5.003 14.629s-14.293-3.216-14.293-3.216 9.73-3.574 11.61-5.539c1.879-1.966 5.685-6.855 7.686-5.874" fill="#151E30"/><path d="m389.379 102.985 5.453 6.343-11.882-.804z" fill="#A13D3A"/><path d="M385.674 107.838c5.214 0 7.907-13.385 11.391-12.246-1.407-1.34-6.902 3.752-6.902 3.752s-.87-3.082-4.489-3.015c.068-4.49-.556-7.102-4.566-8.51-3.119-1.093-6.244-2.39-9.023-4.553-1.558-1.21-3.757-1.14-5.287.107-3.227 2.63-8.498 7.724-12.95 15.77-1.467 2.651-2.355 5.559-2.173 10.855.182 5.295 9.878 12.797 9.878 12.797s24.591-.634 24.121-14.957" fill="#A33B82"/><path d="M370.264 97.066c2.1-2.97.785-10.518-4.301-12.992-3.18 2.725-7.812 7.47-11.837 14.584 2.077-1.453 5.472.258 7.896.954 2.882.827 5.875.804 8.242-2.546" fill="#53AA36"/><path d="m378.662 117.368-18.148-1.889a6.92 6.92 0 0 0-7.403 5.105l2.013 33.931a15.64 15.64 0 0 1-1.264 7.147l-.123.285 9.291 3.484-.69-2.714a14.5 14.5 0 0 1-.257-5.881l3.806-23.387 6.342 1.875a14.8 14.8 0 0 0 14.586-3.655l4.354-4.295z" fill="#FA9999"/><path d="m364.847 139.835-11.258-11.201 1.534 25.881a15.6 15.6 0 0 1-1.043 6.597l8.615 3.011-.357-1.406a14.5 14.5 0 0 1-.257-5.881z" fill="#FEF4D9"/><path d="m353.589 128.634.683 11.516c2.471-1.521 8.2 1.967 10.011 3.151l.564-3.466z" fill="#B2BEE0"/><path d="M344.193 163.561c.565-2.775 3.156-4.116 7.176-3.044l2.368-.368s1.161-1.776 2.948-1.284c1.787.491 1.921 3.439 4.378 3.261 2.456-.179 3.273 2.818 3.273 2.818l-3.05 2.274z" fill="#EB4D33"/><path d="M361.286 166.637c-4.646-.581-10.81-4.467-14.562-4.511s-3.663 4.556 1.34 5.449c3.427.612 4.866-.549 7.192 1.564 2.325 2.112 6.03-2.502 6.03-2.502" fill="#151E30"/><path d="M374.964 106.957c5.016-3.861 14.664.897 18.282 1.5 1.545-.445 4.087-.469 4.489 1.943 3.082-.536 3.082 2.68 3.082 2.68 5.293 3.685 3.551 17.153-5.427 17.421s-20.426-23.544-20.426-23.544" fill="#FA9999"/><path d="M382.95 107.647c1.242-.309 2.053-.039 2.506.468.388.434.774.875 1.253 1.206 1.431.987 2.726 2.773 1.891 5.486-1.005 3.268-5.65-7.16-5.65-7.16" fill="#A13D3A"/><path d="M400.817 113.08s0-3.217-3.083-2.681c-.402-2.411-2.944-2.387-4.489-1.943-.623-.104-1.43-.333-2.358-.618 2.065 1.664 3.76 4.118 4.547 6.771.126.423.405.785.765 1.039l2.34 1.653-.627-.022c-1.035-.036-1.953.703-2.091 1.729-.427 3.183-2.534 6.203-7.226 8.096 2.277 2.097 4.609 3.461 6.795 3.396 8.978-.268 10.72-13.736 5.427-17.42" fill="#3451A3"/><path d="m391.168 127.373-12.507-10.005-7.613-.793c6.738.702 10.867 17.102.664 18.596l.516.153a14.8 14.8 0 0 0 14.586-3.656z" fill="#3451A3"/><path d="M375.767 117.066c4.447 4.297 8.351 10.932 5.262 18.127a14.8 14.8 0 0 0 5.785-3.524l4.354-4.295-12.507-10.006z" fill="#151E30"/><path d="M374.964 106.957a6.2 6.2 0 0 1 7.489-.124c5.366 3.93 9.56 9.275 11.977 15.47 1.575 4.036 2.976 8.426 4.287 13.005a10.7 10.7 0 0 0 2.164 4.022l4.091 4.772-8.309 4.02-1.734-5.98a4.7 4.7 0 0 0-.631-1.34c-6.102-8.923-12.822-17.393-20.076-25.473-2.223-2.475-1.875-6.319.742-8.372" fill="#FA9999"/><path d="M400.881 139.33a10.7 10.7 0 0 1-2.165-4.022c-1.311-4.579-2.712-8.969-4.286-13.005a34.5 34.5 0 0 0-6.016-9.961c-5.229-.28-10.371 3.287-10.243 7.501 5.754 6.709 11.149 13.681 16.126 20.959.28.41.493.863.632 1.34l1.733 5.98 8.309-4.02z" fill="#FEF4D9"/><path d="M395.444 148.279c-1.852-6.679 5.183-8.756 11.683-2.792.918.842 1.836 2.383 1.836 2.383z" fill="#EB4D33"/><path d="M397.478 152.388c-5.158-5.829-.41-12.562 11.485-4.518z" fill="#151E30"/><path d="M405.305 145.74a23 23 0 0 0-.599-.283l-9.148 3.458q.054.228.128.46zm-9.678.761q-.099.272-.152.567l6.694-2.53q-.434-.115-.841-.191zm8.223-1.406q-.349-.136-.684-.25l-7.748 2.929q0 .245.028.498zm4.018 2.063c-.178-.111-.349-.208-.523-.312l-10.914 4.126q.123.204.263.41zm-1.234-.727a31 31 0 0 0-.554-.3l-10.168 3.843q.093.216.203.433z" fill="#3451A3"/><path d="m340.876 169.218.934.272c2.698.787 5.577.685 8.211-.293l64.676-23.992c3.309-1.227 6.012-3.657 7.672-6.77 1.02-1.912 2.355-3.688 3.463-3.021 1.853 1.117.626 10.233-5.191 13.156-4.528 2.276-61.198 22.398-65.385 23.384-4.735 1.115-9.556.33-14.958-1.301-.899-.272-.323-1.698.578-1.435" fill="#3451A3"/><path d="M352.397 169.362c3.798-1.335 50.475-18.85 55.483-20.547 5.007-1.698 9.509-3.395 12.279-5.628 2.172-1.753 4.169-7.467 5.673-7.773-1.107-.667-2.443 1.109-3.463 3.021-1.66 3.114-4.363 5.543-7.672 6.771l-64.676 23.991a13.07 13.07 0 0 1-8.211.293l-.934-.272c-.544-.159-.966.298-1.021.744 6.325 2.119 8.6.786 12.542-.6" fill="#5872C1"/><path d="m381.297 157.596 2.075.417c.435.088.832.308 1.137.63l.34.36a2.67 2.67 0 0 0 2.978.622l4.361-1.853-3.325-3.374z" fill="#151E30"/><path d="M368.488 96.744c2.643-2.727 1.188-9.632-3.522-11.79-2.824 2.564-6.481 6.506-9.846 12.014 5.213-.967 8.857 4.429 13.368-.225" fill="#FA9999"/><path d="m358.983 84.86 6.144 3.786-4.824 6.209-4.824-4.2z" fill="#FA9999"/><path d="m358.596 85.501-3.117 5.155 1.994 1.735c.484-.62.912-1.373 1.287-2.25.611-1.433.547-3.065-.093-4.484zm50.213 69.184c0 1.846-1.388 3.343-3.1 3.343s-3.101-1.497-3.101-3.343 1.389-3.343 3.101-3.343 3.1 1.497 3.1 3.343m6.776.137c-.081 1.416-1.212 2.502-2.524 2.426s-2.311-1.285-2.229-2.7 1.211-2.502 2.524-2.426 2.311 1.284 2.229 2.7" fill="#151E30"/><path d="m406.412 155.324 6.465-.368.167-.904h-2.294c-.443 0-.7-.5-.444-.86l.349-.491c.145-.204.347-.36.582-.447a1.03 1.03 0 0 0 .367-1.695l-.665-.661a2 2 0 0 0-2.174-.433l-3.426 1.404zm-49.748 17.152c0 1.759-1.236 3.184-2.762 3.184-1.524 0-2.761-1.425-2.761-3.184s1.237-3.185 2.761-3.185c1.526 0 2.762 1.425 2.762 3.185m7.672.667c0 1.39-.977 2.517-2.183 2.517s-2.182-1.127-2.182-2.517c0-1.391.977-2.518 2.182-2.518s2.183 1.127 2.183 2.518" fill="#151E30"/><path d="M354.374 172.476c0 .71-.499 1.286-1.115 1.286s-1.116-.576-1.116-1.286.5-1.287 1.116-1.287 1.115.576 1.115 1.287" fill="#FEF4D9"/><path d="m355.959 173.047 5.562.67.2-1.039-1.224-.155a.597.597 0 0 1-.443-.888l.847-1.483.542-.184a.532.532 0 0 0 .095-.965l-1.873-1.082a.95.95 0 0 0-.84-.053l-3.387 1.418 1.395.447c.582.187.918.794.767 1.386l-.012.053a.993.993 0 0 1-1.11.737l-.682-.101z" fill="#151E30"/><path d="M360.302 83.8s3.306-7.08-1.118-10.475c-4.363-3.348-8.976 1.116-8.976 1.116-4.467-1.295-7.416-.178-8.711 1.162 2.055-.626 5.584-.312 5.584-.312-7.013 2.59-5.578 12.146 1.588 12.148 0 0 8.551 1.565 11.633-3.64" fill="#831C24"/><path d="M406.377 154.893c0 .837-.629 1.515-1.405 1.515s-1.406-.678-1.406-1.515.63-1.515 1.406-1.515 1.405.678 1.405 1.515" fill="#FEF4D9"/><path d="M406.073 151.663c.542.104 1.15.367 1.623.812.472.447.818 1.067.863 1.935a.238.238 0 1 0 .475-.024c-.047-.987-.459-1.74-1.012-2.258a3.8 3.8 0 0 0-1.859-.932.238.238 0 1 0-.09.467" fill="#5872C1"/><path d="M351.704 111.873c-.201-4.89.536-6.566 5.36-5.828s10.184 5.293 9.983 7.169-3.617 2.01-3.617 2.01l.871 13.534 17.299 19.463c.529.597 1.259.98 2.051 1.078l3.55.44a5.65 5.65 0 0 1 3.503 1.824l2.997 3.322a1.42 1.42 0 0 1-.32 2.167l-1.193.72a1.42 1.42 0 0 1-1.665-.143l-2.539-2.206c-.151-.131-.37.047-.273.222l1.203 2.156a.796.796 0 0 1-.438 1.141l-1.212.414a1.37 1.37 0 0 1-1.458-.375l-1.188-1.307c-.424-.466-.994-.793-1.62-.862-.951-.105-2.528-.806-3.421-4.067l-21.061-14.018a13.7 13.7 0 0 1-6.097-10.797z" fill="#FA9999"/><path d="m388.357 152.548 3.662 4.021a.239.239 0 0 0 .353-.321l-3.663-4.02a.238.238 0 1 0-.352.32m-3.638 2.343 2.412 3.484a.238.238 0 1 0 .392-.271l-2.412-3.484a.24.24 0 0 0-.332-.061.24.24 0 0 0-.06.332" fill="#A13D3A"/><path d="M373.734 139.615c-2.709.268-5.644 2.137-5.201 6.023l9.343 6.04c.308-1.973 1.885-3.375 3.42-3.798z" fill="#FEF4D9"/><path d="M344.335 163.243a1.9 1.9 0 0 0-.214.59l4.06-1.534a9 9 0 0 0-.978-.139zm5.682-.445a20 20 0 0 0-.747-.227l-5.156 1.949q.036.232.119.464zm1.625.58a48 48 0 0 0-.679-.253l-6.439 2.434q.131.202.301.396zm3.074 1.225-.651-.263-7.46 2.82q.331.136.709.241zm3.166 1.19a33 33 0 0 1-.703-.243l-5.906 2.232c.435-.001.838.003 1.229.045zm-4.694-1.806-.654-.262-7.189 2.717q.219.173.476.329zm3.076 1.225q-.333-.127-.668-.257l-7.106 2.685c.376.055.728.089 1.059.11z" fill="#3451A3"/><path d="m362.923 111.072 1.14 17.702a.24.24 0 0 0 .059.143l4.364 4.909a.238.238 0 1 0 .356-.316l-4.309-4.849-1.134-17.62a.238.238 0 0 0-.476.031" fill="#A13D3A"/><path d="M393.58 77.345c-.087 1.01.096 2.07.554 2.973.451.885-.76 1.715-1.413.967-.747-.855-1.16-2.101-1.13-3.56z" fill="#151E30"/><path d="M352.546 79.77c.98 1.395 2.691 2.764 5.612 2.627l.509 1.125c.64 1.42.703 3.05.093 4.484-1.248 2.927-3.085 4.5-5.693 4.213-2.486-.272-3.423-2.265-3.758-3.404a4.9 4.9 0 0 0-.807-1.615l-.312-.404a4.36 4.36 0 0 1 .223-5.6c.483-.529.937-1.04 1.342-1.546.732-.914 2.118-.839 2.791.12" fill="#FA9999"/><path d="M356.894 86.57a1.25 1.25 0 1 1-2.501 0 1.25 1.25 0 0 1 2.501 0" fill="#F03F4F"/><path d="m357.977 84.437-.34-1.987a2.066 2.066 0 1 1 3.966.39l-.412 1.078a1.67 1.67 0 0 1-2.207.943z" fill="#FA9999"/><path d="M365.324 87.622c-.001.009-.122.767-.122 1.868 0 .55.03 1.187.122 1.859.017.13.137.221.267.204a.24.24 0 0 0 .205-.268 13 13 0 0 1-.117-1.795c0-.533.029-.984.058-1.3q.024-.238.04-.367l.018-.126a.239.239 0 0 0-.471-.075m1.603 7.003.05.005c.235.022 1.278.156 2.08.633a.238.238 0 1 0 .242-.41c-1.05-.616-2.32-.7-2.338-.703a.238.238 0 0 0-.034.475m-8.736-1.295 2.406 1.719a.239.239 0 1 0 .277-.388l-2.406-1.718a.238.238 0 1 0-.277.388m.89-8.929c.11-.075.207-.157.281-.262a.65.65 0 0 0 .116-.37c-.006-.296-.164-.561-.429-.917l-.19.144.232-.055a3 3 0 0 1-.09-.686c.001-.399.11-.642.249-.79a.7.7 0 0 1 .519-.214.86.86 0 0 1 .54.192.6.6 0 0 1 .229.471.8.8 0 0 1-.049.264.238.238 0 1 0 .448.162q.079-.218.078-.425a1.08 1.08 0 0 0-.401-.839 1.33 1.33 0 0 0-.845-.301 1.17 1.17 0 0 0-.865.364c-.239.252-.381.63-.38 1.116q-.001.355.103.796l.042.09c.251.324.339.542.332.629l-.031.098a.6.6 0 0 1-.153.136.238.238 0 1 0 .264.397" fill="#A13D3A"/><path d="m359.819 82.376-1.007-.212a.238.238 0 1 0-.098.466l1.007.212a.238.238 0 0 0 .098-.466" fill="#A13D3A"/><path d="M350.373 85.87a.715.715 0 1 1-1.43 0 .715.715 0 0 1 1.43 0m3.573-1.796a.715.715 0 1 1-1.43 0 .715.715 0 0 1 1.43 0" fill="#151E30"/><path d="m350.421 84.55.529.779c.111.163.175.355.184.552l.054 1.197c.014.323.158.605.371.799a1.15 1.15 0 0 0 1.359.155l.432-.245a.238.238 0 0 0-.236-.414l-.432.245a.67.67 0 0 1-.801-.092.67.67 0 0 1-.217-.47l-.054-1.196a1.55 1.55 0 0 0-.266-.8l-.529-.779a.238.238 0 0 0-.394.268m2.875 4.507c.019-.006.403-.115.851-.449.448-.333.96-.9 1.202-1.795a.238.238 0 1 0-.459-.125 2.8 2.8 0 0 1-1.028 1.538 2.7 2.7 0 0 1-.648.356l-.038.013-.008.003h-.001a.239.239 0 0 0 .129.46" fill="#A13D3A"/><path d="m354.529 86.82.907.164a.238.238 0 1 0 .085-.469l-.908-.164a.237.237 0 0 0-.276.192.237.237 0 0 0 .192.277" fill="#A13D3A"/><path d="m352.042 83.633.942-1.344a.476.476 0 0 0-.78-.547l-.943 1.344a.476.476 0 1 0 .781.547m-3.387 1.608 1.042-.786a.477.477 0 0 0-.574-.761l-1.042.786a.476.476 0 1 0 .574.761" fill="#831C24"/><path d="M404.017 181.365c-5.52.546-6.456 1.481-7.001 7.001-.021.211-.328.211-.348 0-.546-5.52-1.482-6.455-7.002-7.001-.21-.02-.21-.327 0-.348 5.52-.546 6.456-1.481 7.002-7.001.02-.21.327-.21.348 0 .545 5.52 1.481 6.455 7.001 7.001.21.021.21.328 0 .348m-185.713-62.842c-5.52.546-6.456 1.48-7.001 7-.021.211-.328.211-.348 0-.546-5.52-1.481-6.454-7.001-7-.211-.021-.211-.327 0-.349 5.52-.546 6.455-1.48 7.001-7.001.02-.21.327-.21.348 0 .545 5.521 1.481 6.455 7.001 7.001.21.022.21.328 0 .349m-84.038 45.775c-5.52.546-6.456 1.481-7.001 7.001-.021.21-.328.21-.348 0-.546-5.52-1.481-6.455-7.002-7.001-.21-.021-.21-.328 0-.349 5.521-.545 6.456-1.48 7.002-7 .02-.21.327-.21.348 0 .545 5.52 1.481 6.455 7.001 7 .21.021.21.328 0 .349m150.214 17.774c-5.52.546-6.456 1.481-7.002 7.001-.02.211-.327.211-.347 0-.546-5.52-1.482-6.455-7.002-7.001-.21-.021-.21-.327 0-.348 5.52-.546 6.456-1.481 7.002-7.001.02-.211.327-.211.347 0 .546 5.52 1.482 6.455 7.002 7.001.21.021.21.327 0 .348M169.249 69.075c-2.76.274-3.228.741-3.5 3.501-.011.105-.164.105-.175 0-.273-2.76-.74-3.227-3.5-3.5-.105-.01-.105-.164 0-.174 2.76-.273 3.227-.741 3.5-3.501.011-.105.164-.105.175 0 .272 2.76.74 3.228 3.5 3.5.105.01.105.164 0 .174" fill="#F1976A"/><path d="M106.346 50.482c-2.76.272-3.228.74-3.501 3.5-.01.105-.164.105-.174 0-.273-2.76-.741-3.228-3.5-3.5-.105-.01-.105-.164 0-.175 2.759-.273 3.227-.74 3.5-3.5.01-.105.164-.105.174 0 .273 2.76.741 3.227 3.501 3.5.105.01.105.164 0 .175m196.746-6.334c-2.76.272-3.228.74-3.501 3.5-.01.105-.164.105-.174 0-.273-2.76-.74-3.228-3.5-3.5-.105-.01-.105-.164 0-.175 2.76-.273 3.227-.74 3.5-3.5.01-.105.164-.105.174 0 .273 2.76.741 3.227 3.501 3.5.105.01.105.164 0 .175m20.257 90.563c-2.76.273-3.227.741-3.5 3.501-.01.105-.164.105-.174 0-.273-2.76-.74-3.228-3.5-3.501-.106-.01-.106-.164 0-.174 2.76-.273 3.227-.74 3.5-3.5.01-.105.164-.105.174 0 .273 2.76.74 3.227 3.5 3.5.106.01.106.164 0 .174m99.744-70.973c-2.76.273-3.228.74-3.501 3.5-.01.106-.164.106-.174 0-.273-2.76-.74-3.227-3.5-3.5-.106-.01-.106-.164 0-.174 2.76-.273 3.227-.74 3.5-3.5.01-.106.164-.106.174 0 .273 2.76.741 3.227 3.501 3.5.105.01.105.163 0 .174M66.225 181.279c-2.76.272-3.227.74-3.5 3.5-.01.105-.163.105-.174 0-.273-2.76-.74-3.228-3.5-3.5-.105-.01-.105-.164 0-.175 2.76-.272 3.227-.74 3.5-3.5.01-.105.164-.105.174 0 .273 2.76.74 3.228 3.5 3.5.106.011.106.165 0 .175" fill="#64A07A"/></g><defs><clipPath id="a"><path fill="#fff" d="M0 0h460v230H0z"/></clipPath></defs></svg>