<svg width="417" height="165" viewBox="0 0 417 165" fill="none" xmlns="http://www.w3.org/2000/svg"><path d="M115.926 132.805c-5.52.546-6.455 1.481-7 7.002-.021.21-.328.21-.349 0-.545-5.52-1.48-6.456-7-7.002-.211-.02-.211-.327 0-.348 5.52-.545 6.455-1.481 7-7.001.021-.21.328-.21.349 0 .545 5.52 1.48 6.456 7 7.001.211.021.211.328 0 .348M27.207 11.514c-5.52.547-6.456 1.481-7.001 7.002-.02.21-.328.21-.348 0-.546-5.52-1.481-6.455-7.001-7.002-.21-.02-.21-.327 0-.348 5.52-.546 6.455-1.48 7-7 .021-.21.328-.21.349 0 .546 5.52 1.48 6.455 7 7 .21.02.21.328 0 .348m279.161-2.427c-5.52.546-6.456 1.481-7.002 7.001-.02.21-.327.21-.348 0-.546-5.52-1.48-6.455-7.001-7-.21-.021-.21-.328 0-.349 5.52-.546 6.455-1.48 7.001-7 .021-.21.328-.21.348 0 .546 5.52 1.481 6.455 7.002 7 .21.02.21.328 0 .348m107.428 143.446c-5.52.546-6.455 1.481-7.001 7.001-.021.21-.328.21-.348 0-.546-5.52-1.481-6.455-7.001-7.001-.21-.021-.21-.328 0-.348 5.52-.546 6.455-1.481 7.001-7.001.02-.211.327-.211.348 0 .546 5.52 1.48 6.455 7.001 7.001.21.02.21.327 0 .348M216.844 97.337c-5.52.546-6.455 1.48-7.001 7.001-.021.211-.328.211-.349 0-.545-5.52-1.48-6.455-7-7-.211-.021-.211-.328 0-.35 5.52-.545 6.455-1.48 7-7 .021-.21.328-.21.349 0 .545 5.52 1.48 6.455 7.001 7 .21.022.21.329 0 .35m-90.118-17.482c-2.76.273-3.228.74-3.501 3.5-.01.106-.164.106-.174 0-.273-2.76-.74-3.227-3.5-3.5-.106-.01-.106-.164 0-.174 2.76-.273 3.227-.74 3.5-3.5.011-.106.164-.106.174 0 .273 2.76.741 3.227 3.501 3.5.105.01.105.164 0 .174" fill="#64A07A"/><path d="M411.813 7.76c-2.76.274-3.228.741-3.501 3.501-.011.106-.164.106-.174 0-.273-2.76-.74-3.227-3.5-3.5-.106-.01-.106-.164 0-.174 2.76-.273 3.227-.74 3.5-3.5.011-.106.164-.106.174 0 .273 2.76.741 3.227 3.501 3.5.105.01.105.163 0 .174M57.356 149.894c-2.76.273-3.228.74-3.5 3.5-.012.106-.165.106-.175 0-.273-2.76-.74-3.227-3.5-3.5-.106-.011-.106-.164 0-.175 2.76-.272 3.227-.74 3.5-3.5.01-.105.164-.105.174 0 .273 2.76.74 3.227 3.5 3.5.106.011.106.165 0 .175m253.43-54.777c-2.76.273-3.227.74-3.5 3.5-.011.106-.164.106-.174 0-.273-2.76-.741-3.227-3.501-3.5-.105-.01-.105-.163 0-.174 2.76-.272 3.228-.74 3.501-3.5.01-.106.164-.106.174 0 .273 2.76.74 3.228 3.5 3.5.105.011.105.164 0 .174M220.589 4.144c-2.76.273-3.228.74-3.501 3.5-.01.106-.163.106-.173 0-.273-2.76-.741-3.227-3.501-3.5-.105-.01-.105-.164 0-.174 2.76-.273 3.228-.74 3.501-3.5.01-.106.163-.106.173 0 .273 2.76.741 3.227 3.501 3.5.105.01.105.164 0 .174m-7.333 132.866c-2.76.273-3.228.741-3.501 3.501-.01.105-.163.105-.173 0-.273-2.76-.741-3.227-3.501-3.501-.105-.01-.105-.163 0-.174 2.76-.272 3.228-.74 3.501-3.5.01-.105.163-.105.173 0 .273 2.76.741 3.228 3.501 3.5.105.011.105.164 0 .174" fill="#F1976A"/><path d="M72.62 85.936s4.63 5.894 6.916 11.909c2.613 3.635.612 10.489-3.266 12.303-.549.257-1.094.522-1.6.854l-28.693 18.779c-5.65-1.048-5.9-3.87-1.624-8.18l1.482-.18a4.1 4.1 0 0 0 1.895-.737c1.278-.915 3.663-2.809 5.584-5.398 2.767-3.729 7.478-11.708 14.074-11.848 0 0-5.233-4.812-12.029-7.43z" fill="#FA9999"/><path d="M47.282 121.124c.016-.373-.454-.55-.69-.261-.228.279-.468.522-.758.557l-1.482.181c-4.276 4.31-4.026 7.132 1.624 8.179l2.089-.911a.52.52 0 0 0 .171-.83c-1.053-1.156-1.034-5.009-.954-6.915" fill="#FFF6E3"/><path d="m73.34 86.899-5.272 1.693-12.71 7.416c2.157.831 4.155 1.883 5.88 2.932 7.837-2.936 12.101-12.04 12.102-12.041" fill="#1B2236"/><path d="M63.658 69.577s2.234.684 2.137 3.243c-.022.588.244 1.174.736 1.497.6.393.919 1.211 1.088 1.93a3.15 3.15 0 0 0 1.148 1.797c.715.54 1.552 1.668 1.446 3.983 2.165 2.045 3.609 4.15 3.609 4.15s-7.819 13.131-21.29 10.986l7.138-27.95z" fill="#E4C8FF"/><path d="M64.981 76.193s-3.007 6.195-8.06 10.405m9.203-4.752s-4.872 4.631-9.503 6.195m7.999-1.142-7.999 2.639" stroke="#707074" stroke-width=".963" stroke-miterlimit="10" stroke-linecap="round" stroke-linejoin="round"/><path d="m60.14 96.782 1.008-2.046a8 8 0 0 1-.274-.843c-.195-.765-.238-1.59.032-2.331.279-.769.864-1.38 1.286-2.081.106-.176.204-.369.2-.575-.01-.548-.679-.812-.974-1.275-.392-.614-.03-1.456.514-1.94.162-.144.356-.314.326-.529-.026-.187-.22-.304-.406-.341s-.38-.022-.561-.08c-.306-.096-.516-.39-.6-.7-.148-.54.02-1.095-.011-1.637-.655.154-1.214.406-1.82-.027-.822-.587-1.035-1.444-2.32-.885l-.009.01-4 15.661c2.785.444 5.327.23 7.608-.381" fill="#707074"/><path d="M45.322 120.72a.61.61 0 0 1 .73.806c-.705 1.862-5.75 8.347-.739 6.705.513-.168 1.076-.059 1.444.337l.185.2a.747.747 0 0 1-.247 1.194l-1.23.539s-2.165 4.12-3.278 5.534c.06 2.736-.481 6.946-2.316 7.638s-3.398-3.789-3.368-6.496c.03-2.706 1.504-5.954.933-8.66-.572-2.706-3.338-7.037 1.804-10.826 0 0 2.768.914 4.757 2.766.326.304.786.413 1.215.293z" fill="#3353A4"/><path d="M39.872 143.673c.154-.058.295-.149.431-.253-2.65-1.095-2.145-5.641-2.145-5.641l1.358-5.454c.419-1.684.446-3.449.014-5.13-.732-2.847.63-6.176 2.441-8.223a15.6 15.6 0 0 0-2.73-1.28c-5.142 3.789-2.376 8.119-1.804 10.826.571 2.706-.902 5.954-.933 8.66-.03 2.706 1.534 7.187 3.368 6.495" fill="#B5C4CD"/><path d="M67.387 103.438c-3.398.072-6.294 2.226-8.684 4.807 2.669-2.16 7.234-1.46 10.382-1.298.939.049 1.33-1.166.555-1.697-.854-.583-1.5-1.206-2.253-1.812" fill="#DE7373"/><path d="M73.34 102.013c-1.022 2.586-.6 5.126.963 6.232" stroke="#DE7373" stroke-width=".963" stroke-miterlimit="10" stroke-linecap="round" stroke-linejoin="round"/><path d="M31.602 88.743c-1.666 1.324 4.05 6.816 7.698 8.42l1.203-7.899s-7.338-1.764-8.901-.521" fill="#1B2236"/><path d="M54.418 92.732s-5.742 21.447-12.448 23.549c0 0-22.925 24.295-26.166 28.435-3.486 4.454-3.838 9.508-3.838 9.508s-3.947-.357-8.034-8.298c0 0 3.044.409 7.922-7.102 3.67-5.651 9.96-20.25 14.536-24.061a20.7 20.7 0 0 1 4.56-2.872 8.68 8.68 0 0 0 5.036-7.758l.195-14.595c6.59-.717 12.694.257 18.237 3.194" fill="#FA9999"/><path d="m36.181 89.538-.058 4.343c1.135.85 2.387 1.484 3.695 1.946a2.44 2.44 0 0 0 2.545-.603l1.719-1.751-.282 1.644c-.15.873.5 1.679 1.385 1.724 3.168.162 6.205-.35 8.327-1.033l.256-3.405c-5.37-2.675-11.253-3.554-17.587-2.865" fill="#DE7373"/><path d="m82.783 23.357-.712-.793a1.82 1.82 0 0 1-.468-1.202c-.014-1.956-.353-3.89-1.315-5.371-2.789-4.293-8.27-4.752-11.969-1.565-2.993 2.58-3.302 7.337-1.442 9.785.364.48.309 1.157-.115 1.585l-5.058 5.11 10.05 3.037 3.392-4.872q.333.12.659.22c2.376.733 4.85-.767 5.32-3.209.12-.624.23-1.296.313-1.99l1.092-.096a.385.385 0 0 0 .253-.639" fill="#FA9999"/><path d="M77.027 25.06a1.19 1.19 0 1 0 0-2.38 1.19 1.19 0 0 0 0 2.38" fill="#FA8787"/><path d="M77.884 17.278c.32-.562.909-.913 1.552-.853l1.168.111a6 6 0 0 0-.316-.546c-2.788-4.292-8.27-4.751-11.968-1.564-2.994 2.579-3.303 7.337-1.443 9.784.365.48.31 1.157-.114 1.585 1.594.196 5.605.326 7.71-2.868.443-.673.7-1.508.85-2.264.21-1.058.862-1.95 1.764-2.541.296-.194.58-.464.797-.844M37.497 62.962c-.892 1.383.962 4.21 5.974 6.014l4.49-6.014s-8.941-2.366-10.465 0" fill="#1B2236"/><path d="m45.274 63.283-1.683 4.21 11.146-.562z" fill="#DE7373"/><path d="M50.527 66.21h-6.715c-.657 0-1.191.533-1.191 1.19v.333s-5.34 4.203-4.628 12.974c.064.79-.349 1.527-.938 2.057-.978.88-1.545 1.986-1.69 3.175-.128 1.05-.935 1.864-1.973 2.072-1.112.224-1.79.732-1.79.732 1.62-.5 3.976 2.93 8.976 5.25.776.36 1.695.193 2.282-.428l2.855-3.018-.384 3.071a1.977 1.977 0 0 0 1.727 2.207c2.229.274 4.78.264 7.718-.185 0 0 5.693-11.708 6.976-25.742z" fill="#E4C8FF"/><path d="M45.916 66.21c5.608 2.197 11.547 9.28 18.802 3.992l-16.216-4.004z" fill="#D3D5F2"/><path d="M49.903 44.678s-5.25 1.865-11.865 2.105c.32 3.616-4.721 10.194-6.808 13.665a1.92 1.92 0 0 0 .137 2.184l1.98 2.495 1.614 3.817a.82.82 0 0 1-1.452.752l-1.02-1.645a.547.547 0 0 0-.832-.118l-.687.621a1.87 1.87 0 0 0-.54.856l-1.47 4.974a1.25 1.25 0 0 1-1.366.881l-.683-.094-.166.48a1.05 1.05 0 0 1-2.02-.55l.081-.411-.682-.127a.883.883 0 0 1-.692-1.099l.352-1.3-.256-.037a.91.91 0 0 1-.75-1.128l.758-2.902a3.5 3.5 0 0 1 .515-1.118l1.635-2.349a6.2 6.2 0 0 0 .99-2.33c.764-3.877 3.166-15.648 5.099-20.457a3.65 3.65 0 0 1 1.607-1.832c4.462-2.492 14.58-6.339 14.58-6.339s3.067-3.067 7.998-2.225z" fill="#FA9999"/><path d="M42.738 46.345c4.237-.627 7.165-1.666 7.165-1.666l.75-1.638 1.398-9.71s-7.884 6.946-9.313 13.014" fill="#DE7373"/><path d="M78.393 46.783c-2.406 5.173-5.653 6.556-5.653 6.556s-1.263 3.428-5.052 6.495c.3 3.188-1.985 5.834-1.985 5.834 1.744 2.526-.421 5.697-5.172 5.593-4.755-.104-9.022-3.007-13.412-5.894s-8.787-3.428-9.623-2.406c1.143-1.503 2.767-3.207 4.45-3.428-.3-5.112 1.264-9.562 5.834-12.209.421-6.796.602-14.133 7.88-16.418 7.276-2.286 18.78.324 23.343 2.447z" fill="#9AA194"/><path d="M69.374 54.188c-1.83 0-3.706-.643-5.43-1.88-2.683-1.928-4.515-4.983-4.777-7.97a.222.222 0 1 1 .441-.04c.252 2.864 2.013 5.795 4.595 7.65 2.186 1.571 4.623 2.138 6.86 1.597a.221.221 0 1 1 .104.43 7.6 7.6 0 0 1-1.793.212" fill="#505E43"/><path d="m78.393 46.784.112-2.477-3.572-1.775-1.638 9.088c.056.46.08.924.088 1.358 1.067-.677 3.259-2.429 5.01-6.195" fill="#1B2236"/><path d="M53.156 34.843c1.51-.326 5.318-.94 11.38-.57a1.25 1.25 0 0 1 1.1 1.665c-.742 2.092-2.067 5.862-2.919 8.473a1.817 1.817 0 0 1-2.087 1.221c-3.263-.661-7.641-1.066-9.676-1.23a1.14 1.14 0 0 1-1.045-1.244c.167-1.739.66-5.075 2.083-7.487a1.78 1.78 0 0 1 1.164-.828M6.824 144.255c.504-.329.858-.604 1.128-.894a.47.47 0 0 1 .786.169c.747 2.056 2.712 3.522 5.084 3.818a.47.47 0 0 1 .343.726c-.307.455-.667 1.077-.806 1.654-.26 1.083-3.081 2.531-5.152 1.183s-1.383-6.656-1.383-6.656" fill="#FFF6E3"/><path d="M36.466 103.499a.576.576 0 0 0-.75.53c-.13 3.265-1.681 6.441-4.733 7.847-1.184.545-2.63 1.18-3.955 2.127a.368.368 0 0 0 .03.624c3.25 1.762 7.312 5.411 9.446 7.468 3.203-3.416 5.466-5.814 5.466-5.814 2.684-.842 5.549-4.721 7.656-9.139a.62.62 0 0 0-.493-.887c-4.92-.451-10.312-2.011-12.667-2.756" fill="#2C2D66"/><path d="M59.609 44.298a.222.222 0 0 0-.442.039q.047.526.158 1.053.239.04.472.084a9 9 0 0 1-.188-1.176" fill="#D3D5F2"/><path d="M60.687 57.292c-.864 0-1.788-.056-2.772-.185a.222.222 0 0 1 .058-.44c6.682.878 10.692-1.8 10.731-1.827a.221.221 0 1 1 .25.365c-.142.099-3.106 2.087-8.267 2.087m-.435 11.832c-3.663 0-6.892-2.705-9.806-5.146-2.58-2.161-5.017-4.203-7.417-4.203a.222.222 0 0 1 0-.443c2.56 0 5.058 2.092 7.702 4.306 3.674 3.077 7.473 6.26 12.009 4.589a.221.221 0 1 1 .153.415 7.6 7.6 0 0 1-2.64.482" fill="#505E43"/><path d="M28.686 63.834c.69 1.594-1.044 4.392-3.33 4.573m-.492-.172 4.182 1.463m-3.69-1.291-1.131 3.095m1.032 2.466 1.698-4.992m.143 5.413 1.339-4.905" stroke="#DE7373" stroke-width=".963" stroke-miterlimit="10" stroke-linecap="round" stroke-linejoin="round"/><path d="m75.298 22.112-.992-1.18a1.58 1.58 0 0 0-2.79 1.016l-.054 2.03a1.015 1.015 0 0 0 .947 1.04l.511.034z" fill="#FA9999"/><path d="M80.151 21.751a.789.789 0 1 1-1.578 0 .789.789 0 0 1 1.578 0" fill="#1B2236"/><path d="M78.453 19.499q1.344.087 2.005.782" stroke="#1B2236" stroke-width="1.859" stroke-miterlimit="10" stroke-linecap="round" stroke-linejoin="round"/><path d="M72.54 21.643c.822-.395 1.371.144 1.675 1.004.102.291.01.599-.18.841-.308.39-.2 1.055.288 1.103m-1.243-1.54.994-.741m5.702 2.581c-.622.281-1.404.421-2.185-.4" stroke="#DE7373" stroke-width=".963" stroke-miterlimit="10" stroke-linecap="round" stroke-linejoin="round"/><path d="M75.146 29.071a3.84 3.84 0 0 1-1.903-1.313c-.316-.405-.97-.164-.941.35.085 1.502.807 2.591 1.52 2.865z" fill="#1B2236"/><path d="M77.57 32.701c3.15 1.276 5.285 3.04 5.835 5.362 0 0 7.698 1.764 10.023 6.495l9.322-15.998-.368-1.94a11.76 11.76 0 0 1 .579-6.419l.276-.72c.116-.3.175-.618.175-.94 0-.416.493-.638.805-.36.36.322.533.804.458 1.281l-.361 2.302 1.172-.842 3.1-5.546a.758.758 0 0 1 1.324.74l-.359.643 1.084-1.943a.758.758 0 0 1 1.362.665l-.823 1.95.132-.313a.648.648 0 1 1 1.191.51l-1.297 2.919.073-.164a.59.59 0 0 1 1.083.468l-1.045 2.49a12 12 0 0 1-1.433 2.506l-2.497 3.345s-1.117 17.943-6.198 24.582c-.374.489-.605 1.066-.752 1.663a5 5 0 0 1-.277.806c-.485 1.069-1.781 1.497-2.837.984l-20.008-9.721s-3.368 5.954-7.578 4.45c-3.771-1.347-4.534-11.06 2.02-18.012 1.486-1.575 3.815-2.055 5.82-1.243" fill="#FA9999"/><path d="M73.295 51.62c2.396-1.255 4.016-4.115 4.016-4.115l-2.745-1.412c-1.093-.562-2.297.468-1.948 1.646.362 1.221.584 2.517.677 3.88" fill="#DE7373"/><path d="M73.38 36.958s.814 2.807 7.224 2.166m-.453 2.806c1.89 4.09 6.862 5.453 10.55 5.133m8.201 6.765s-.842 1.597-2.105 1.194m12.923-38.563-1.937 4.1m3.257-3.129-1.989 4.733m2.126-1.363-.995 2.215" stroke="#DE7373" stroke-width=".963" stroke-miterlimit="10" stroke-linecap="round" stroke-linejoin="round"/><path d="M61.373 72.439s1.174 4.335-1.985 9.408m-13.472 7.691s4.21-12.118 4.992-21.131" stroke="#D3D5F2" stroke-width=".963" stroke-miterlimit="10" stroke-linecap="round" stroke-linejoin="round"/><path d="M52.923 69.484c1.473 2.397-.901 6.012-3.307 6.872m.51.577 2.797-.12m-12.42-4.731h4.136c.502 0 .894.438.833.935-.29 2.338-1.548 8.186-6.894 7.284m5.012-12.229h4.822" stroke="#707074" stroke-width=".963" stroke-miterlimit="10" stroke-linecap="round" stroke-linejoin="round"/><path d="M6.34 144.086a.61.61 0 0 1 1.087-.014c.418.793.86 1.976.597 3.117-.453 1.967.54 3.205 2.023 3.07 1.062-.097 1.642-.556 1.917-1.194.214-.496.668-.845 1.207-.859l.274-.007a.748.748 0 0 1 .731.977l-.41 1.279s1.654 4.349 1.977 6.119c2.09 1.766 4.888 4.959 4.192 6.792-.696 1.832-5.09.038-7.098-1.775-2.008-1.815-3.467-5.069-5.874-6.432s-7.484-2.157-6.92-8.519c0 0 2.518-1.469 5.223-1.734.443-.044.83-.316 1.023-.717z" fill="#3353A4"/><path d="M19.936 163.366c.058-.154.084-.32.095-.492-2.574 1.262-5.647-2.125-5.647-2.125l-3.19-4.628c-.985-1.429-2.29-2.618-3.835-3.407-2.619-1.336-4.212-4.561-4.548-7.274-1.598.519-2.767 1.2-2.767 1.2-.564 6.362 4.513 7.155 6.92 8.518s3.865 4.618 5.874 6.432 6.402 3.608 7.098 1.776" fill="#B5C4CD"/><path d="M151.171 35.78c-3.633-.94-6.828 3.585-5.844 7.235-5.214 1.53-6.579 4.244-6.577 7.252-4.213 3.28-6.102 11.33.37 14.463s11.608.77 12.868-1.779c2.187.426 4.589-8.316 2.894-13.236 1.987-.926 2.224-3.843 1.523-4.814z" fill="#2C2D66"/><path d="m156.405 44.9-5.234-9.12-.026-.007c-1.41-.354-2.89.489-3.317 1.878-.642 2.086.265 3.872 1.309 4.852 3.264 3.062 5.528 2.016 7.581 3.266-.056-.353-.161-.658-.313-.868" fill="#1B2236"/><path d="M165.719 36.23c2.045-2.132 3.179-7.881-1.854-9.738-5.034-1.858-7.325 1.453-7.942 3.556-4.568 1.262-6.554 6.344-5.301 10.002s5.864 5.074 6.669 6.661z" fill="#2C2D66"/><path d="M168.486 47.463s5.171-1.046 8.821 1.673c1.634 1.217 3.528 1.995 5.491 2.423 4.652 1.016 12.165 2.866 14.846 4.732l-7.106 5.49-14.515-1.45z" fill="#FA9999"/><path d="M168.046 47.531s.52-.156 1.476-.265a4.5 4.5 0 0 1 2.671.524c1.201.656 2.982 1.788 3.995 3.188 2.182 1.17 2.414 3.527 2.414 3.527z" fill="#A33B82"/><path d="M158.021 104.604c0 1.119 2.803.215 3.45 0 .646-.216-1.339-4.313-1.339-4.313s-2.111 2.458-2.111 4.313m-3.525-21.072c-1.665 1.082 2.623 3.461 6.5 3.93l1.628-7.786s-5.722 2.292-8.128 3.856" fill="#1B2236"/><path d="M140.842 144.671c.138 1.891-1.926 2.79-4.2 2.456l-4.169 2.701-.11.479c-.493 2.131-3.076 2.846-4.477 1.216a4.4 4.4 0 0 1-.588-.869c-1.189-2.32-.437-4.95 1.092-6.761s2.813-2.986 3.349-5.219c.535-2.234 3.702-4.693 5.324-3.711s2.443 2.956 2.443 2.956 1.307-.326 1.569.975c.26 1.301-.233 5.777-.233 5.777" fill="#FF861C"/><path d="M138.332 136.065c-.347-.403-.77-.8-1.269-1.102-1.621-.982-4.789 1.477-5.324 3.711s-1.82 3.408-3.349 5.219-2.281 4.441-1.092 6.761c.164.321.364.609.588.869.397.462.89.729 1.402.836-2.122-2.044-1.46-4.911-.27-6.818 1.192-1.912 3.322-1.836 3.447-4.542.11-2.377 3.253-5.365 5.867-4.934" fill="#FFF6E3"/><path d="M183.443 79.5s2.571 7.254 1.462 16.613c-.737 6.219-4.097 20.367-6.636 26.652-1.351 3.345-.715 9.106-7.607 12.929s-27.918 9.025-30.324 9.884c-2.406.858-4.035-.608-4.156-2.135s.914-2.55 1.848-2.619c.933-.069 2.126-1.981 2.126-1.981s4.57-1.625 6.605-3.314 11.504-11.065 18.365-9.361l1.576-44.87z" fill="#DE7373"/><path d="M161.962 126.08c-2.494.386-5.114 1.711-7.482 3.267 2.467 1.711 10.362 6.813 16.181 6.347.497-.275.95-.562 1.372-.856.029-1.738-5.462-5.723-10.071-8.758" fill="#1B2236"/><path d="m166.702 81.297-.7 19.917c6.309 4.87 13.084 4.58 17.387 3.324.716-3.308 1.267-6.321 1.516-8.425 1.109-9.36-1.462-16.613-1.462-16.613z" fill="#FF861C"/><path d="M183.389 104.538q.223-1.035.424-2.024c-1.621.603-4.27 1.325-6.365.99-1.138-.182-1.301.732-1.153 1.755a19.9 19.9 0 0 0 7.094-.721" fill="#A33B82"/><path d="M179.107 102.065c.562 7.486.422 19.24.059 25.324-.362 6.084-6.614 11.779-15.202 5.824-7.329-5.083-18.721-12.008-21.901-13.927a2.45 2.45 0 0 1-1.134-1.655c-.204-1.087-.317-2.687.498-3.588.762-.843 1.721-.056 2.392.753a2.81 2.81 0 0 0 2.455 1.019l1.601-.164s1.619 1.381 5.084 1.397c3.465.015 8.539-.984 11.871 1.836 0 0-5.508-12.033-6.242-18.652s8.958-8.593 14.57-4.288c5.61 4.306 5.949 6.121 5.949 6.121" fill="#FA9999"/><path d="M173.156 95.944c-5.611-4.305-15.303-2.332-14.57 4.288.158 1.425.538 3.1 1.036 4.852a7.8 7.8 0 0 1 1.746-1.659c.897-.634 1.43-1.665 1.494-2.762l.109-1.85 1.245 1.164a4.06 4.06 0 0 0 3.5 1.024c4.521-.816 9.405-.33 11.39 1.064 0 0-.339-1.815-5.95-6.12" fill="#1B2236"/><path d="M147.874 115.651c.89-.037.862-.483.34-.99.901-1.181 2.284-3.594 1.418-4.828-.865-1.233-3.245-2.004-5.733-2.143-2.489-.14-3.552 1.466-5.743 1.08s-4.831.142-6.572 3.359 1.212 4.379 3.579 3.173c0 0 .939.92 2.728 1.458.907 2.609 3.5 4.938 5.841 2.923 2.34-2.015 4.142-4.032 4.142-4.032" fill="#FF861C"/><path d="M143.898 107.69c-2.488-.14-3.551 1.466-5.743 1.08-2.191-.385-4.83.142-6.571 3.359-.894 1.652-.549 2.76.318 3.286-.309-1.479 1.466-3.327 2.52-3.871 1.265-.653 1.923-1.38 4.149-.95s2.813-.185 3.941-.814c1.929-1.076 5.628-.165 7.014 2.628.392-.951.561-1.926.106-2.575-.865-1.233-3.246-2.004-5.734-2.143" fill="#FFF6E3"/><path d="M162.971 117.751c-3.173-1.367-7.144-.69-10.013-.703-3.464-.015-5.084-1.397-5.084-1.397l-1.6.164a2.8 2.8 0 0 1-2.455-1.019c-.672-.81-1.63-1.596-2.393-.753-.815.9-.702 2.5-.498 3.588a2.46 2.46 0 0 0 1.134 1.655c2.389 1.441 9.409 5.705 15.861 9.893-3.892-3.064.589-13.302 5.048-11.428m16.194 9.637c.156-2.611.27-6.267.306-10.181-2.62 1.773-8.354 4.119-16.049-1.571.817 1.96 1.406 3.248 1.406 3.248l.56 1.237c-3.551 2.871-3.877 8.619-1.964 12.719q.274.187.54.372c8.587 5.956 14.839.26 15.201-5.824" fill="#FFF6E3"/><path d="M165.388 120.121a7.4 7.4 0 0 0-1.034 1.034c1.673.729 2.235 3.527 2.012 4.279-.224.753.786 1.22 1.203.847s.511-.967-.037-1.758c-.549-.793-1.645-3.162-2.144-4.402" fill="#D3D5F2"/><path d="M157.417 140.666c-5.626-.82-6.321-8.823-3.078-11.225-3.57 2.37-6.541 5.227-7.578 6.088-2.035 1.689-6.605 3.314-6.605 3.314s-1.193 1.912-2.126 1.981c-.934.069-1.968 1.093-1.848 2.619.121 1.527 1.75 2.993 4.156 2.135 1.426-.51 9.392-2.544 17.079-4.912" fill="#FFF6E3"/><path d="M177.102 90.83c-.448-.995-.646-2.085-.627-3.184.055-3.115-.852-5.87-.852-5.87l-15.451-1.867c-3.318 4.412-8.397 13.969-2.669 22.28.783.76.518 2.415.518 2.415.332-.773 1.4-1.888 2.425-2.603a3.93 3.93 0 0 0 1.628-2.71c.175-1.324.36-2.545.36-2.545l2.001 1.94c.681.661 1.614.971 2.531.818 3.89-.653 8.415-.17 12.141 2.561 0 0 .601-5.454-2.005-11.236" fill="#FF861C"/><path d="M153.578 51.332s-1.823-.583-3.09.07c0 0-5.868-5.119-10.924-7.817l10.577-21.532s2.727-1.323 3.748-2.893c.59-.909 1.172-3.263 1.558-5.085.125-.59-.632-.92-.941-.409-.486.803-.957 1.76-1.156 2.687-.592-.918-1.011-2.178-1.011-2.178s-.05-1.298-.162-2.444c-.046-.46.091-.915.376-1.267 1.434-1.768 3.319-4.937 2.85-5.393-.522-.506-1.257.574-1.257.574s-.705-1.295-2.034.278c-1.092-.575-1.941.921-2.68 2.297-.63 1.173-1.064 1.968-1.064 1.968s-.227-1.439.424-2.448c.65-1.01-.236-1.36-.236-1.36l-.9 1.862a7.96 7.96 0 0 0-.791 3.484l.012 4.447a3.52 3.52 0 0 1-.72 2.155c-2.846 3.714-13.293 17.413-16.787 22.927a2.9 2.9 0 0 0 .11 3.261c2.297 3.109 8.11 10.3 16.485 15.992 1.405.955 2.68 2.12 3.692 3.518 1.625 2.247 3.239 3.267 3.239 3.267s3.295.854 5.19-3.055c1.894-3.91-.475-12.177-4.508-12.906" fill="#FA9999"/><path d="M152.333 59.829s2.967 2.051 6.284 2.814" stroke="#DE7373" stroke-width="1.036" stroke-miterlimit="10" stroke-linecap="round" stroke-linejoin="round"/><path d="M158.086 64.239c.627-1.293.785-3.063.572-4.879-1.374-2.93-3.212-6.46-4.314-6.994 2.624 3.46 1.701 11.713-2.805 13.818.794.752 1.357 1.11 1.357 1.11s3.296.855 5.19-3.055" fill="#1B2236"/><path d="m165.451 47.747 2.495-.209a6.87 6.87 0 0 1 4.684 1.357l5.192 3.874c2.753 2.054 3.946 5.718 2.963 9.103l-.058.201a5 5 0 0 0 .248 3.422c.684 1.523 1.59 3.949 1.736 6.362.04.65.229 1.277.564 1.825.517.845.684 1.645.727 2.202.037.461.201.891.437 1.283.203.337.332.75.406 1.205.459 2.817-1.45 5.47-4.132 6.004l-5.583 1.111c-3.514.7-7.123-.556-9.538-3.317l-.827-.946s-2.523 4.058-7.228 2.392c-2.416-.856-3.04-.085-3.04-.085s5.6-2.806 6.243-5.615c1.041-4.55-4.746-7.265-7.843-10.622 3.48.581 6.181-9.251.682-15.963z" fill="#FF861C"/><path d="M182.453 69.965c-.345-1.702-.949-3.28-1.448-4.4h-8.882l-1.904 3.921s2.085 1.137 4.028-.157a3.58 3.58 0 0 1 2.261-.579c1.595.124 4.136.436 5.945 1.215" fill="#1B2236"/><path d="M154.496 83.532s.173-.087.456-.242c-.337.094-.456.242-.456.242m28.028-1.453c-1.498 1.008-4.7 1.75-8.772 2.005-3.16.197-5.579-1.592-7.246-4.159-.604-.929-1.87-.96-2.56-.101-.763.949-1.743 1.736-2.839 2.088-1.301.418-2.155-.018-3.756-.116a25 25 0 0 1-2.399 1.494c.433-.12 1.225-.155 2.584.327 4.705 1.666 7.229-2.392 7.229-2.392l.826.945c2.415 2.763 6.025 4.019 9.539 3.318l5.583-1.111c2.602-.519 4.469-3.03 4.16-5.752-.443 1.634-1.141 2.64-2.349 3.454" fill="#A33B82"/><path d="m193.689 55.582-20.309 7.756-2.817-1.593a3.69 3.69 0 0 0-3.62-.019l-2.762 1.526c-.838.463-.893 1.742-.062 2.22l.031.017c.096 1.22 1.103 1.524 1.103 1.524s-.099 1.181 1.25 1.525c.469 1.508 1.77 2.347 3.715.95 1.924.897 4.272-1.54 4.272-1.54l17.804-.596c4.319-.144 7.609-4.33 6.66-8.741a7 7 0 0 0-.099-.402 3.914 3.914 0 0 0-5.166-2.627" fill="#FA9999"/><path d="M164.714 65.04s1.545-1.283 2.608-1.62m-1.405 2.956s1.544-1.282 2.608-1.62m-1.449 3.35s1.544-1.282 2.608-1.62m-.055 1.539s-.349.94-1.183 1.293m1.362-.168-.643-.372" stroke="#DE7373" stroke-width="1.036" stroke-miterlimit="10" stroke-linecap="round" stroke-linejoin="round"/><path d="M160.896 68.835s4.898 4.98 15.111 7.182m5.548-2.407s-.155 7.334-7.455 4.4" stroke="#B55F14" stroke-width=".94" stroke-miterlimit="10" stroke-linecap="round" stroke-linejoin="round"/><path d="M152.896 67.295c.312.338.652.669 1.008.996 5.112-1.93 5.086-11.604.813-17.303l-1.139.344c5.5 6.711 2.798 16.544-.682 15.963m12.555-19.548-7.979 2.41c.807.63.991 1.515 2.585 1.972 2.1.602 6.341 1.356 7.562 1.806.37-2.243.72-5.018.226-6.388z" fill="#A33B82"/><path d="M148.807 11.632c.203 1.295 2.956 2.534 1.649 6.005M152 6.515s-1.213 1.637-1.661 2.52c-.448.884-.677 1.914-.449 2.728m3.905-5.545s-1.518 2.386-2.275 3.414c-.757 1.027-.4 1.977-.4 1.977" stroke="#DE7373" stroke-width="1.036" stroke-miterlimit="10" stroke-linecap="round" stroke-linejoin="round"/><path d="M144.335 46.38c-1.286-.885-2.737-1.7-4.083-2.426a.764.764 0 0 1-.299-1.052l2.663-4.67a.266.266 0 0 0-.092-.359l-7.488-4.582a.48.48 0 0 0-.639.13c-2.158 3.008-3.859 5.993-5.026 7.834a2.9 2.9 0 0 0 .11 3.262c1.446 1.956 4.185 5.682 8.173 9.487.146.14.381.129.514-.023l6.222-7.14a.312.312 0 0 0-.055-.461" fill="#FFF6E3"/><path d="M180.359 85.391s-.697 1.166-1.618 2.386a5.11 5.11 0 0 0-.775 4.707 22 22 0 0 1 1.134 6.888m-10.967-12.697s4.188 1.139 7.051 3.891m-4.722 0s3.364.069 6.404 1.846" stroke="#B55F14" stroke-width=".94" stroke-miterlimit="10" stroke-linecap="round" stroke-linejoin="round"/><path d="M179.106 102.065s.065-.594.06-1.594c-2.228-2.55-7.864-3.174-11.495-2.719a3.73 3.73 0 0 1-2.853-.807 43 43 0 0 0-2.145-1.672.817.817 0 0 0-1.287.527l-.463 2.747a3.7 3.7 0 0 1-1.316 2.258 18.5 18.5 0 0 0-1.849 1.721c.463.826.262 2.078.262 2.078.333-.773 1.401-1.887 2.426-2.602a3.93 3.93 0 0 0 1.628-2.71c.175-1.324.36-2.546.36-2.546l2.001 1.94c.681.662 1.613.972 2.531.818 3.889-.653 8.414-.17 12.14 2.561" fill="#A33B82"/><path d="M181.556 60.217s6.868-3.617 11.87-3.31" stroke="#DE7373" stroke-width="1.036" stroke-miterlimit="10" stroke-linecap="round" stroke-linejoin="round"/><path d="M157.404 32.52c.671 1.91 1.21 5.154-1.412 7.735 0 0 1.494 2.224 1.105 4.322-.146.79-.074 1.606.286 2.316l1.426 2.814a2.51 2.51 0 0 0 1.638 1.32l6.265 1.528.337-3.06a3.28 3.28 0 0 0-.458-2.065l-2.064-3.363c1.776-.549 2.66-2.537 2.792-4.663a4.54 4.54 0 0 0-1.207-3.368l-.014-.015a3.6 3.6 0 0 1-.775-1.34 8 8 0 0 0-.56-1.303c-.69-1.26-2.081-1.94-3.438-1.636a5.97 5.97 0 0 1-3.042-.13c-.558-.166-1.072.359-.879.909" fill="#FA9999"/><path d="M162.86 38.053a1.2 1.2 0 1 1-2.4 0 1.2 1.2 0 0 1 2.4 0" fill="#FA8787"/><path d="M164.528 44.068c-1.258.549-3.102.703-4.611.114-.537-.21-.975.508-.547.907 1.56 1.459 4.044 1.563 6.285.815z" fill="#DE7373"/><path d="M161.17 35.228a.63.63 0 0 1-.688.57c-.34-.04-.585-.363-.545-.719a.63.63 0 0 1 .688-.57c.34.04.584.362.545.719m3.655-.375a.63.63 0 0 1-.688.57c-.34-.04-.584-.363-.545-.719a.63.63 0 0 1 .688-.57c.34.04.584.362.545.719" fill="#1B2236"/><path d="M162.555 33.925s-.007 1.288.687 1.885c.307.263.761.337 1.197.33.404-.007.614.496.327.793l-.425.438" stroke="#DE7373" stroke-width="1.036" stroke-miterlimit="10" stroke-linecap="round" stroke-linejoin="round"/><path d="M159.091 34.16c.178-.564.968-1.093 1.763-.614m2.664-.061s.509-.572 1.246-.106" stroke="#2C2D66" stroke-width="2" stroke-miterlimit="10" stroke-linecap="round" stroke-linejoin="round"/><path d="M165.493 38.278c-.625.428-2.228.846-3.246-.225" stroke="#DE7373" stroke-width="1.036" stroke-miterlimit="10" stroke-linecap="round" stroke-linejoin="round"/><path d="M156.515 41.221c.145.315.294.689.413 1.1.767-.392.986-1.59.986-1.59z" fill="#DE7373"/><path d="M157.738 41.056c-.581.819-1.836.874-2.803.123s-1.28-2.025-.699-2.844c.581-.82 1.836-.874 2.803-.123s1.28 2.024.699 2.843" fill="#FA9999"/><path d="M155.023 40.132c-.453-.582-.203-1.366.301-1.604.303-.143.672-.03.985.135.362.19.568.604.476 1.003-.081.352-.041.742.566.682m-1.465-.653.424-1.032" stroke="#DE7373" stroke-width="1.036" stroke-miterlimit="10" stroke-linecap="round" stroke-linejoin="round"/><path d="M180.797 20.284a9.26 9.26 0 0 0 6.551-11.339 9.26 9.26 0 1 0-6.551 11.339" fill="#92A8B7"/><path d="M187.547 12.815c-1.995 1.654-4.42 3.09-7.368 4.098l-1.543.528a16.5 16.5 0 0 1-.205-2.26l1.034-.354c3.399-1.164 6.033-2.96 8.077-5a10 10 0 0 0-.198-.908l-.056-.188c-2.009 2.127-4.652 4.012-8.129 5.201l-.719.247q.044-1.18.269-2.428a17.7 17.7 0 0 0 5.609-3.244.5.5 0 0 0 .129-.1l.02-.03a18 18 0 0 0 1.835-1.873 9 9 0 0 0-.553-.806c-.503.609-1.057 1.2-1.67 1.76l-1.333-1.163a24.4 24.4 0 0 0-6.29-4.007 9 9 0 0 0-1.44.436c2.39.9 4.801 2.269 7.109 4.283l1.23 1.073a17 17 0 0 1-1.856 1.308l-.825-.72c-2.649-2.31-5.456-3.687-8.189-4.447a9 9 0 0 0-.817.767c2.79.69 5.676 2.03 8.385 4.393l.574.5q-1.044.552-2.238.98a17.7 17.7 0 0 0-5.607-3.233.5.5 0 0 0-.159-.064l-.035-.003a18 18 0 0 0-2.33-.615 10 10 0 0 0-.418.882 17 17 0 0 1 2.146.532l-.341 1.733a24.4 24.4 0 0 0-.357 7.17 9.4 9.4 0 0 0 1.099 1.114c-.383-2.468-.39-5.174.185-8.101l.314-1.6q1.036.391 2.061.952l-.21 1.072c-.671 3.416-.471 6.507.22 9.234q.529.21 1.081.357c-.786-2.75-1.063-5.901-.374-9.408l.147-.747c.665.42 1.323.9 1.968 1.448a17.7 17.7 0 0 0 .003 6.472.5.5 0 0 0 .024.17l.015.032c.163.814.38 1.595.638 2.343q.49-.003.982-.058a17 17 0 0 1-.627-2.164l1.671-.572a24.3 24.3 0 0 0 6.694-3.501 9.4 9.4 0 0 0 .368-1.491" fill="#7D7D7D"/><path d="M230.909 27.106v-1.643a6.686 6.686 0 0 1 5.714-6.614l1.809-.266a6.69 6.69 0 0 1 7.329 4.54l.49 1.504z" fill="#304D96"/><path d="M245.76 23.123a7 7 0 0 0-.21-.559c-.776-.02-1.94.119-2.689.988 0 0-1.595-.924-4.959-.388-3.067.488-4.183 1.94-4.183 1.94s-1.559-.211-2.798.108c-.004.084-.012.166-.012.25v1.644l15.342-2.48z" fill="#1B2236"/><path d="m234.163 20.68 2.264 4.486 3.989-.54.647-4.98" stroke="#1B2236" stroke-width="1.036" stroke-miterlimit="10" stroke-linecap="round" stroke-linejoin="round"/><path d="m280.794 91.723.411 3.122q.071.535.264 1.039l.454 1.185a.37.37 0 0 1-.517.458l-2.551-1.342a2.8 2.8 0 0 1-.942-.811l-7.861-10.701 3.398-.5zm1.154-21.751c1.493 1.87-.051 5.952-2.894 7.763s-9.544 6.533-13.18 4.916-2.213-6.792-1.696-8.603 12.705-10.415 17.77-4.076" fill="#1B2236"/><path d="m270.949 84.807 5.418 7.442a3.777 3.777 0 0 0 6.829-2.223c0-1.48-.506-2.915-1.434-4.067l-3.568-4.43z" fill="#304D96"/><path d="m273.838 84.203 3.466 4.373a1.34 1.34 0 0 0 1.716.327l1.248-.721c.688-.398.88-1.304.411-1.946l-2.616-3.585z" fill="#FF861C"/><path d="m280.34 85.768-.273-.374-3.711 1.984.29.366zm.477.704-3.637 1.945.125.158q.088.108.192.194l3.432-1.836a1.3 1.3 0 0 0-.112-.461m-1.254-1.768-.273-.374-3.758 2.01.29.366zm-4.854.596.29.367 3.788-2.026-.273-.375z" fill="#1B2236"/><path d="M264.884 81.073c4.312 7.33 14.391 4.248 17.064.884 2.674-3.363 2.251-9.802-4.029-13.956 0 0-13.608-1.996-13.035 13.072m-33.208 19.432c.427 1.526 8.223 0 15.943-2.135s11.512-4.57 11.255-6.49c-.257-1.922-7.245-2.178-14.684.28s-13.708 4.075-12.514 8.345" fill="#1B2236"/><path d="M237.77 94.318s-1.084 6.316 1.31 9.098c.388 3.687 1.164 5.434 3.234 6.921.841 4.205 7.051 14.296 11.644 17.531 1.164 6.145 7.762 4.851 10.673 2.005s-.647-5.887-.647-5.887-7.578-17.53-10.877-34.506c0 0-12.636-.142-15.337 4.837" fill="#1B2236"/><path d="m256.416 73.508 2.458 18.371c-6.555-2.156-25.702 5.176-27.198 8.625-1.237-3.622-.574-7.245.461-11.577-3.278-7.007.431-22.664.431-22.664l2.933-4.8 24.926-9s6.533-1.639 7.125 2.985c0 0 10.561 9.866 14.397 14.524-7.24-4.852-17.871 5.304-16.074 12.679 0 0-2.601.129-3.636-3.752-3.365-1.294-5.564-3.277-5.823-5.39" fill="#677A56"/><path d="M263.467 59.662s-9.492 1.054-12.312 3.632c-6.961.68-8.39 6.803-8.39 6.803 4.642-1.588 11.727-2.07 13.651 4.227q.09.297.186.576l-.186-1.392c.208 1.707 1.685 3.33 4.018 4.572-1.249-2.77-2.64-7.344-.71-11.366-2.659 1.977-3.359 4.94-3.359 4.94-.553-5.65 4.107-11.341 7.102-11.992m-28.946 11.992-3.094.888a67 67 0 0 0-.567 5.645c-.105 1.925 1.143 3.635 2.973 4.24 3.723 1.23 8.224 4.657 10.834 8.25 1.036 1.426 2.803 2.128 4.52 1.729a39 39 0 0 1 4.051-.737z" fill="#505E43"/><path d="M262.488 53.221c-.677 8.834-11.157 17.163-20.213 15.198v-3.906zm-38.287 21.667c-.184 2.587 11.299 2.415 11.299 2.415l-1.466-8.797s-9.488 1.552-9.833 6.382" fill="#1B2236"/><path d="M258.084 128.352a20.2 20.2 0 0 0 4.761-2.118 1.44 1.44 0 0 1 2.047.612l.884 1.862s5.481 6.906 6.869 13.999c.313 1.596-.917 3.079-2.543 3.079h-8.103a2.51 2.51 0 0 1-2.475-2.071 10 10 0 0 1-.017-3.258 3.6 3.6 0 0 0-.438-2.387c-.603-1.021-1.334-2.898-1.246-5.92l-.684-1.939a1.44 1.44 0 0 1 .945-1.859" fill="#304D96"/><path d="M263.096 139.812c2.304-1.595 5.401-1.118 7.068.023.213.146.486-.083.385-.322-.866-2.055-2.902-6.453-5.206-8.433l-5.132 1.854c.825 2.08 1.366 4.168 1.559 6.268.059.644.794.978 1.326.61" fill="#FF861C"/><path d="M269.895 138.037a7.5 7.5 0 0 0-2.983-.805c-1.748-.095-3.512.413-5.198 1.475q.03.248.056.495l.003.012c1.664-1.095 3.404-1.62 5.114-1.522 1.178.064 2.298.428 3.33 1.054q-.15-.336-.322-.709m-9.24-3.89q.078.224.151.449c1.566-.956 3.193-1.409 4.793-1.32.653.035 1.287.17 1.901.381a20 20 0 0 0-.422-.611 7.5 7.5 0 0 0-1.453-.23c-1.669-.095-3.353.363-4.97 1.331m5.374.601a7 7 0 0 1 2.513.623 33 33 0 0 0-.372-.647 7.5 7.5 0 0 0-2.116-.436c-1.663-.091-3.34.362-4.95 1.32q.066.23.125.463c1.567-.959 3.195-1.415 4.8-1.323" fill="#1B2236"/><path d="M266.458 136.22a7.05 7.05 0 0 1 2.971.842 53 53 0 0 0-.338-.67 7.5 7.5 0 0 0-2.608-.632c-1.687-.096-3.389.373-5.021 1.361q.05.243.094.487c1.599-1 3.263-1.479 4.902-1.388m2.033 14.863c-.112-1.526-.41-3.371-.896-5.359h-1.82c.51 2.083 1.148 4.007 1.815 5.574.207.486.94.312.901-.215" fill="#1B2236"/><path d="M255.221 98.54a82.6 82.6 0 0 0-16.063 5.553c.413 3.23 1.217 4.851 3.156 6.244.121.607.357 1.339.682 2.152a73 73 0 0 1 14.857-5.084 183 183 0 0 1-2.632-8.866" fill="#304D96"/><path d="M256.04 101.48a76 76 0 0 0-16.201 5.664c.404 1.095.974 1.925 1.799 2.655a72.8 72.8 0 0 1 15.306-5.276q-.458-1.495-.904-3.043" fill="#677A56"/><path d="m244.212 71.223 12.204 15.87-1.078 9.142-19.35-15.94a15.4 15.4 0 0 1-4.612-6.435l-.835-2.207z" fill="#304D96"/><path d="M232.114 76.343c-.426-4.046 10.96-2.486 12.296-4.69-6.943-1.081-15.482 0-15.482 0z" fill="#1B2236"/><path d="M247.344 134.739a3.03 3.03 0 0 0 1.742-1.701l40.975-101.666a.932.932 0 0 1 1.728.697l-40.457 104.807a7.15 7.15 0 0 1-2.918 3.509l-11.937 7.346a2.967 2.967 0 0 1-4.241-1.268l-1.046-2.236a2.965 2.965 0 0 1 1.643-4.033z" fill="#4D4C4A"/><path d="m283.277 54.12-2.062-.801-2.507 6.22c.972-.175 1.173 1.503 1.138 3.468zm-15.884 33.493-6.461 16.032c1.214-.69 2.485-.674 3.421-.502l4.464-11.563c-.538-.933-1.251-2.416-1.424-3.967" fill="#D3D5F2"/><path d="M258.887 67.897s2.438-5.044 8.876-5.552" stroke="#505E43" stroke-width=".94" stroke-miterlimit="10" stroke-linecap="round" stroke-linejoin="round"/><path d="M252.84 79.587q-.655 0-1.126-.462c-1.737-1.705-1.167-8.07-.291-14.696l.456.06c-.819 6.196-1.441 12.74.157 14.308.278.273.617.376 1.036.312.558-.085.974-.372 1.274-.878 1.905-3.227-1.882-13.588-1.92-13.693l-.411-1.113.367.405v-.065c3.828 0 11.288 2.437 12.471 5.032.292.641.195 1.27-.281 1.818-.495.57-1.151.863-1.948.872h-.035c-3.097 0-7.609-4.283-9.376-6.092.925 2.75 3.196 10.245 1.528 13.07-.368.624-.907.994-1.6 1.099a2 2 0 0 1-.301.023m-.094-15.355.066.072c.061.067 6.137 6.722 9.776 6.722h.031c.67-.007 1.195-.24 1.606-.713.359-.414.428-.847.21-1.326-.998-2.186-7.648-4.612-11.689-4.755" fill="#FFF6E3"/><path d="m252.811 64.304-.065-.072c.914.032 1.963.183 3.049.42q.228-.178.448-.361c-1.427-.333-2.788-.525-3.862-.525v.064l-.366-.404.41 1.112c.011.029.287.786.65 1.939q.207-.117.413-.238c-.1-.314-.194-.598-.276-.844.181.185.397.401.63.63q.203-.125.404-.256a39 39 0 0 1-1.435-1.465m-1.277 2.944c.107-.916.223-1.841.345-2.76l-.457-.06a169 169 0 0 0-.375 3.028q.245-.1.487-.208" fill="#677A56"/><path d="M275.628 49.66c.065 4.981-.149 6.63 3.419 9.04l.335-.831a1.13 1.13 0 0 1 1.213-.702c.732.073 1.179.847.914 1.534l-.1.258s3.469.755 4.246-2.817c2.522-2.212 1.94-5.123 1.94-5.123s1.229-3.493-5.045-5.37z" fill="#FF861C"/><path d="M264.892 126.847a1.44 1.44 0 0 0-2.047-.612 20.2 20.2 0 0 1-4.762 2.117 1.437 1.437 0 0 0-.944 1.858l.684 1.94c.793 1.948 3.596 2.337 5.838 1.517 2.243-.819 2.534-3.384 1.957-5.293z" fill="#5A78C7"/><path d="m247.081 156.325.494 1.173c.416.987 2.693.97 5.085-.038s3.995-2.627 3.578-3.614l-.494-1.173z" fill="#1B2236"/><path d="M255.727 152.634c.416.987-1.185 2.605-3.578 3.614s-4.669 1.025-5.085.038c-.416-.988 1.185-2.606 3.578-3.615 2.392-1.008 4.669-1.025 5.085-.037" fill="#304D96"/><path d="m258.702 89.55 4.991-.578a6.8 6.8 0 0 1 1.913.048l1.117.186-.734 2.2 2.05 2.184c.726.774.851 1.936.305 2.847l-2.177 3.628a2.375 2.375 0 0 1-2.626 1.078l-.675-.173a4.5 4.5 0 0 1-1.999-1.113l-3.589-3.45z" fill="#FF861C"/><path d="m257.681 94.466-.403 1.942 2.998 2.88c.756-4.061-.403-9.253-.544-9.856l-.041.004z" fill="#1B2236"/><path d="m256.244 85.777 1.285 1.19.779.259a2.07 2.07 0 0 1 1.41 2.144l-.598 6.96a3.14 3.14 0 0 1-2.642 2.835l-2.189.345a1.022 1.022 0 0 1-1.131-1.324c1.209-3.785 1.865-7.779 2.012-11.964a.64.64 0 0 1 1.074-.445" fill="#FF861C"/><path d="m283.007 46.163-.966-.218-6.413 3.716c.017 1.296.016 2.364.067 3.281 5.226-.069 7.312-6.779 7.312-6.779" fill="#1B2236"/><path d="M271.768 45.99s2.329 3.088 3.752 4.382c1.337 1.216 6.16-1.12 8.962-4.842.323-.43.366-1.01.112-1.483l-1.786-3.324a.764.764 0 0 0-1.242-.148l-1.13 1.259s.453-3.234-1.746-3.623c-2.199-.388-9.574 3.59-6.922 7.779" fill="#FF861C"/><path d="M271.311 44.95c-.116-1.094 1.928-1.484 2.685-.07.85 1.585.979-1.973.979-1.973l-2.153-1.994c-1.165 1.145-1.901 2.555-1.511 4.036" fill="#1B2236"/><path d="M268.609 38.943s3.914 4.896 5.402 6.577 5.306-1.642 5.369-4.334c.066-2.848-1.035-2.976-1.035-2.976s0-4.14-1.164-4.01c0 0-.831-7.743-3.521-6.88s-5.051 11.623-5.051 11.623" fill="#304D96"/><path d="m274.065 28.252-3.14 3.015c-1.372 3.38-2.316 7.676-2.316 7.676s.592.74 1.402 1.743c6.55-3.181 4.054-12.434 4.054-12.434" fill="#1B2236"/><path d="M266.636 25.08c3.752-1.36 7.181.387 7.763 4.592.603 4.357-1.997 11.045-9.117 10.698z" fill="#FF861C"/><path d="M232.139 36.81c4.956-4.071 12.504-9.212 22.016-12.462a15.9 15.9 0 0 1 6.643-.793c2.016.192 4.403.611 5.838 1.525 5.822-.647 8.312 7.905 3.234 12.808-3.752 3.622-6.986 2.329-6.986 2.329s1.294 3.234-.647 8.538c2.328 5.305-4.47 19.986-18.759 17.725-8.819-1.396-13.312-7.054-15.603-12.458-2.563-6.05-.814-13.041 4.264-17.211" fill="#FFF6E3"/><path d="M254.604 48.755s-2.91 4.916-8.926 6.275" stroke="#D3D5F2" stroke-width="1.036" stroke-miterlimit="10" stroke-linecap="round" stroke-linejoin="round"/><path d="M262.238 48.755c.788-2.156 1.039-3.962 1.063-5.356-2.647 8.31-15.412 19.178-28.78 13.115l-2.407 4.137c2.618 2.785 6.265 5.021 11.364 5.828 14.291 2.262 21.089-12.42 18.76-17.724" fill="#FF861C"/><path d="M261.383 49.983c-1.664 4.848-7.96 14.787-21.071 12.362" stroke="#B55F14" stroke-width=".94" stroke-miterlimit="10" stroke-linecap="round" stroke-linejoin="round"/><path d="M241.024 53.633s3.787 4.153 2.454 10.621c2.032 1.423 3.27 3.04 3.27 3.04l-5.247.603-2.719-1.767z" fill="#1B2236"/><path d="M247.595 31.185c1.941 4.62 2.697 10.282-.02 15.198-5.779.13-10.868-2.329-13.968-8.668z" fill="#FF861C"/><path d="M236.428 37.79c1.649 3.235 5.317 5.952 9.823 6.47 1.982-5.92-.153-10.35-.153-10.35z" fill="#1B2236"/><path d="m246.748 45.1 2.339 3.881a6.82 6.82 0 0 1 .947 4.172s1.38 1.985 1.078 4.27" stroke="#FF861C" stroke-width=".94" stroke-miterlimit="10" stroke-linecap="round" stroke-linejoin="round"/><path d="M258.356 24.346c4.615.604 6.9 6.34 4.27 13.584m5.174-8.84s.087 7.016-4.399 9.696" stroke="#D3D5F2" stroke-width="1.036" stroke-miterlimit="10" stroke-linecap="round" stroke-linejoin="round"/><path d="M225.554 46.607c-.484 2.31-.373 4.646.212 6.873.464 1.762.367 3.632-.217 5.358-.732 2.165-.891 4.085-.563 5.74.3 1.51.349 3.066-.044 4.554-.823 3.117-.74 5.756-.74 5.756 1.551-2.864 13.125-.994 19.377-2.719a1.71 1.71 0 0 0 1.225-2.008c-.315-1.479-1.053-3.749-2.748-5.364.905-4.786 0-8.668-1.811-11.384.843-1.882-.612-5.476-2.651-8.807-3.071-5.016-10.832-3.754-12.04 2.001" fill="#FFF6E3"/><path d="M244.804 70.16a14 14 0 0 0-.499-1.742c-5.637 2.675-14.993.384-19.744 2.446-.412 2.303-.36 4.024-.36 4.024 1.552-2.865 13.125-.994 19.377-2.72a1.71 1.71 0 0 0 1.226-2.008" fill="#FF861C"/><path d="M231.245 41.518c4.922.556 9.08 3.454 9.155 8.63a10.5 10.5 0 0 0 .5 3.072" stroke="#D3D5F2" stroke-width="1.036" stroke-miterlimit="10" stroke-linecap="round" stroke-linejoin="round"/><path d="m248.985 133.255-.006.013zm-1.642 1.485-14.511 5.454a2.965 2.965 0 0 0-1.643 4.034l1.047 2.235a2.966 2.966 0 0 0 4.24 1.268l1.482-.912a3.15 3.15 0 0 1-4.405-1.088 45 45 0 0 1-.702-1.243c-.646-1.208-.301-2.588.949-3.192s7.202-3.019 9.617-4.076c2.39-1.046 4.314-1.228 5.528-3.885a3.02 3.02 0 0 1-1.602 1.405" fill="#D3D5F2"/><path d="M234.155 56.334a3.72 3.72 0 1 0-5.26-5.26 3.72 3.72 0 0 0 5.26 5.26" fill="#677A56"/><path d="m232.568 28.702 1.868 6.832a7.14 7.14 0 0 0 3.387 4.336l.291.163a5.1 5.1 0 0 0 7.017-2.091l.314-.603c.65-1.247.916-2.66.765-4.057l-.877-8.116z" fill="#FA9999"/><path d="m245.29 29.422.625-.72a1.306 1.306 0 0 1 2.216 1.293l-.919 2.576a1.49 1.49 0 0 1-1.404.99zm-11.283 2.366-.841-.45a1.306 1.306 0 0 0-1.607 2.001l1.778 2.078c.41.48 1.077.649 1.666.423z" fill="#FA9999"/><path d="m233.495 31.515 1.026 2.954m11.236-5.379.292 3.058" stroke="#DE7373" stroke-width="1.036" stroke-miterlimit="10" stroke-linecap="round" stroke-linejoin="round"/><path d="M231.245 28.659c.418 1.643 1.459 3.261 2.772 4.869l-.893-5.276zm14.045-2.761.715 5.287c.728-1.864 1.005-3.642.579-5.287zm-8.082 6.082a.84.84 0 1 1-1.681 0 .84.84 0 0 1 1.681 0m5.108-.351a.84.84 0 1 0 0-1.681.84.84 0 0 0 0 1.681" fill="#1B2236"/><path d="m238.361 30.618.552.85c.147.225.224.488.224.758v1.812c0 .53.53.896 1.026.709l.738-.278" stroke="#DE7373" stroke-width="1.036" stroke-miterlimit="10" stroke-linecap="round" stroke-linejoin="round"/><path d="M239.541 36.018a6.5 6.5 0 0 0 2.299-.736c.383-.212.861-.027.97.397l.007.027a.67.67 0 0 1-.214.668c-.834.721-1.804 1.12-2.974 1.052a.67.67 0 0 1-.597-.449l-.035-.106a.654.654 0 0 1 .544-.853" fill="#1B2236"/><path d="m240.572 29.89 2.585-1.638m-8.636 2.17 2.687-.475" stroke="#1B2236" stroke-width="2" stroke-miterlimit="10" stroke-linecap="round" stroke-linejoin="round"/><path d="m230.627 29.09 16.467-2.674-.64-2.932s-2.286-.496-3.493.905c0 0-1.596-.923-4.96-.388-3.066.488-4.183 1.94-4.183 1.94s-2.199-.3-3.45.346z" fill="#304D96"/><path opacity=".69" d="m230.575 29.04.737 3.626c.242 1.192 1.191 2.129 2.392 2.316 4.3.671 8.449-.167 12.252-2.207a2.95 2.95 0 0 0 1.533-2.98l-.447-3.428z" fill="#D3D5F2"/><path d="m244.406 26.795-1.572.255-2.176 7.713a20 20 0 0 0 1.622-.432zm-7.942 8.41a18.6 18.6 0 0 0 3.219-.255l2.184-7.743-3.298.536z" opacity=".39" fill="#FFF6E3"/><path d="M351.96 29.612c4.153-3.237 10.19-3.321 11.732 0-1.756-1.598-5.438-.967-5.438-.967s5.309 0 5.609 3.783a1.976 1.976 0 0 1 2.376 1.22c3.49 0 4.731 2.816 3.875 6.095 1.97 1.766 1.413 6.811-2.226 6.558 1.027-.378 2.612-1.471 2.055-3.49-1.113 2.902-3.982 3.784-6.851 3.154s-12.245-5.045-12.245-5.045z" fill="#8A221E"/><path d="M351.605 33.215c.439 1.762.996 3.124 1.604 2.524 1.256-1.24 2.786-4.592 1.824-7.85a11.9 11.9 0 0 0-3.073 1.723z" fill="#1B2236"/><path d="m319.612 55.69-3.986-2.75a.59.59 0 0 0-.735.919l2.672 2.472-3.361-1.28a.491.491 0 0 0-.379.905l2.422 1.114-.694.835.369 2.698 2.451.784z" fill="#DE7373"/><path d="M327.815 15.46c-5.32-1.38-11.209 3.51-13.127 10.901-1.212 4.671-.744 10.163 1.276 13.798.259.465.459.972.616 1.497.45 1.503.732 4.668.866 6.544a8.8 8.8 0 0 1-.269 2.855 9170 9170 0 0 0-3.953 15.226c-.18.692 2.451 1.375 2.631.682.031-.116 2.932-11.27 3.949-15.227a8.8 8.8 0 0 1 1.152-2.625c1.03-1.574 2.815-4.203 3.939-5.298a7.5 7.5 0 0 1 1.266-1.008c3.533-2.193 6.612-6.766 7.824-11.436 1.919-7.39-.85-14.528-6.17-15.908m-5.597 29.524a25.5 25.5 0 0 0-2.14 3.282c-.191.346-.552.53-.891.442s-.564-.424-.563-.82a25.5 25.5 0 0 0-.274-3.908c-.064-.422.337-.766.673-.579a5.9 5.9 0 0 0 2.886.75c.387 0 .57.495.309.833m-1.454-2.349c-4.779-1.24-6.566-9.604-4.914-15.972 1.728-6.66 6.941-11.09 11.621-9.876 4.679 1.214 7.081 7.62 5.352 14.28-1.652 6.368-7.28 12.808-12.059 11.568" fill="#6E72A2"/><path d="m332.391 21.49-.208.8-.781-.203.231-.89.713.184q-.06-.135-.122-.268l-.533-.138.155-.6q-.07-.124-.143-.246l-.206.795-.781-.203.231-.891.68.176a8 8 0 0 0-.185-.284l-.437-.113.093-.358-.157-.192-.13.5-.781-.203.231-.892.177.046a7 7 0 0 0-.354-.328l-.74-.192.082-.315-.178-.114-.098.379-.782-.203.149-.573c-.062-.028-.122-.059-.184-.085l-.158.608-.781-.203.174-.67q-.048-.015-.097-.028-.048-.012-.097-.022l-.173.67-.782-.204.158-.608q-.101-.009-.203-.015l-.149.573-.781-.203.098-.38-.21.014-.082.315-.74-.192q-.235.049-.469.115l.176.046-.231.891-.781-.203.13-.5q-.116.044-.231.092l-.093.358-.438-.114q-.15.076-.299.159l.68.176-.232.891-.781-.203.206-.795q-.122.07-.244.146l-.156.599-.533-.139q-.12.085-.237.175l.713.185-.231.891-.782-.203.208-.8q-.132.104-.262.212l-.139.538-.362-.094q-.098.091-.192.186l.496.129-.231.891-.782-.203.102-.393q-.148.159-.291.324l-.004.018-.01-.002-.167.193.119.03-.231.892-.502-.13-.141.2.585.151-.231.892-.781-.203.085-.329q-.186.291-.361.595l-.207.796-.2-.052-.103.21.246.063-.231.891-.405-.105-.088.213.435.113-.231.891-.531-.138-.075.217.548.143-.231.891-.585-.152-.061.22.588.153-.231.891-.566-.147-.046.224.555.144-.231.891-.478-.124-.031.228.452.117-.232.892-.323-.084-.016.232.282.073-.232.891-.1-.026-.005.235.048.012-.049.19q-.005.495.014.988l.721.187-.231.892-.427-.111.021.242.348.09-.226.87q.038.246.08.487l.051-.194.782.202-.232.892-.443-.115.058.25.328.086-.151.58q.09.314.192.617l.646.168-.232.891-.01-.002q.066.157.137.31l.009-.036.782.203-.228.878q.092.153.19.3l.724.187-.148.571q.078.091.161.179l.181-.7.781.203-.293 1.13q.085.069.172.134l.315-1.213.782.203-.38 1.464c.06.031.12.067.181.096l.392-1.51.782.203-.413 1.59.095.03c.033.008.066.012.099.02l.412-1.59.781.204-.391 1.51c.068.004.137.002.205.004l.38-1.464.782.203-.315 1.213q.108-.014.215-.034l.293-1.13.782.204-.181.699q.113-.037.227-.078l.148-.571.724.188q.156-.081.311-.17l.229-.878.781.203-.009.037q.135-.1.27-.205l-.01-.003.231-.892.645.168q.237-.216.468-.446l.151-.58.327.084.173-.191-.443-.115.231-.892.782.203-.051.195q.155-.19.308-.387l.225-.87.349.09.135-.2-.426-.11.231-.892.721.187q.256-.42.493-.855l.049-.191.048.012.11-.207-.1-.026.231-.891.282.073.098-.21-.323-.084.232-.892.451.118.084-.215-.478-.124.232-.891.554.144.069-.218-.566-.148.231-.89.588.152.054-.222-.585-.152.231-.891.549.142.04-.225-.532-.138.232-.892.435.113.027-.229-.405-.105.231-.89.246.063.012-.233-.2-.052.206-.796a15 15 0 0 0-.026-.695l-.085.329-.781-.203.231-.892.586.152-.026-.243-.502-.13.231-.892.119.031-.052-.25-.009-.002.004-.018a14 14 0 0 0-.096-.425l-.102.393-.782-.203.232-.89.496.128q-.037-.13-.077-.256l-.362-.094.139-.537q-.06-.155-.125-.31m-16.347 10.86-.781-.203.231-.891.782.203zm.289-1.113-.782-.202.232-.892.781.203zm.288-1.112-.781-.203.232-.891.781.203zm.289-1.113-.781-.203.231-.891.781.203zm.289-1.112-.781-.203.231-.89.781.202zm.288-1.112-.781-.203.231-.892.782.203zm.289-1.113-.781-.202.231-.891.781.203zm.288-1.112-.781-.203.232-.891.781.203zm.289-1.112-.781-.203.232-.891.781.202zm-1.911 11.377-.782-.203.232-.892.781.203zm.288-1.113-.781-.203.231-.891.782.203zm.289-1.112-.781-.203.231-.891.782.203zm.289-1.113-.782-.202.232-.892.781.203zm.289-1.112-.782-.203.231-.891.782.203zm.288-1.113-.782-.203.232-.891.781.203zm.289-1.112-.782-.203.232-.89.781.202zm.288-1.112-.781-.203.231-.892.782.203zm.289-1.113-.781-.202.231-.892.782.203zm.289-1.112-.782-.203.231-.891.782.203zm.289-1.112-.782-.203.231-.891.782.203zm.288-1.113-.782-.203.232-.891.781.203zm.289-1.112-.782-.203.232-.891.781.202zm-3.066 15.826-.782-.203.232-.89.781.202zm.288-1.112-.781-.202.231-.892.782.203zm.289-1.112-.782-.203.232-.892.781.203zm.289-1.113-.782-.202.231-.892.782.203zm.289-1.112-.782-.203.231-.891.782.203zm.288-1.113-.782-.202.232-.892.781.203zm.288-1.112-.781-.203.231-.891.782.203zm.289-1.113-.781-.203.231-.891.782.203zm.289-1.112-.781-.203.231-.89.782.202zm.289-1.112-.782-.203.231-.892.782.203zm.288-1.113-.781-.202.231-.892.782.203zm.289-1.112-.782-.203.232-.891.781.203zm.288-1.112-.781-.203.231-.891.782.203zm.289-1.113-.781-.203.231-.891.782.203zm.289-1.112-.782-.203.231-.891.782.202zm.288-1.113-.781-.203.231-.89.782.202zm-3.643 18.052-.781-.203.231-.891.782.203zm.289-1.113-.782-.203.232-.89.781.202zm.289-1.112-.782-.202.231-.892.782.203zm.288-1.112-.782-.203.232-.892.781.203zm.289-1.113-.782-.202.232-.892.781.203zm.288-1.112-.781-.203.231-.891.782.203zm.289-1.112-.781-.203.231-.892.782.203zm.289-1.113-.782-.203.231-.891.782.203zm.288-1.112-.781-.203.231-.892.782.203zm.289-1.113-.782-.203.232-.89.781.202zm.289-1.112-.782-.203.232-.892.781.203zm.288-1.113-.781-.202.231-.892.782.203zm.289-1.112-.782-.203.232-.891.781.203zm.288-1.112-.781-.203.231-.891.782.203zm.289-1.113-.781-.203.231-.891.782.203zm.289-1.112-.782-.203.232-.891.781.203zm.289-1.113-.782-.203.231-.89.782.202zm.288-1.112-.781-.203.231-.89.781.202zm-4.221 20.276-.781-.203.231-.891.781.203zm.289-1.112-.781-.203.231-.891.781.203zm.288-1.113-.781-.203.232-.89.781.202zm.289-1.112-.781-.203.232-.891.781.203zm.289-1.112-.781-.203.231-.892.781.203zm.289-1.113-.781-.203.231-.891.781.202zm.288-1.112-.781-.203.231-.891.781.203zm.289-1.113-.781-.203.231-.89.781.202zm.288-1.112-.781-.202.232-.892.781.203zm.289-1.113-.781-.203.231-.891.782.203zm.289-1.112-.781-.203.231-.89.781.202zm.289-1.112-.782-.203.232-.892.781.203zm.288-1.113-.781-.202.231-.892.781.203zm.289-1.112-.781-.203.231-.891.781.203zm.288-1.112-.781-.203.231-.891.782.203zm.289-1.113-.781-.202.231-.892.781.203zm.289-1.112-.782-.203.232-.891.781.202zm.288-1.113-.781-.203.232-.89.781.202zm.289-1.112-.781-.203.231-.89.781.202zm.289-1.112-.781-.203.231-.892.781.203zm-4.51 21.388-.781-.203.231-.891.782.203zm.289-1.112-.781-.203.231-.891.782.203zm.289-1.113-.782-.203.231-.89.782.202zm.288-1.112-.781-.202.231-.892.782.203zm.289-1.112-.782-.203.232-.892.781.203zm.289-1.113-.782-.203.232-.891.781.203zm.288-1.112-.781-.203.231-.891.782.203zm.289-1.113-.781-.203.231-.89.781.202zm.289-1.112-.782-.203.231-.891.782.203zm.288-1.113-.781-.203.231-.891.782.203zm.289-1.112-.782-.203.232-.89.781.202zm.289-1.112-.782-.203.232-.892.781.203zm.288-1.113-.781-.202.231-.892.782.203zm.289-1.112-.782-.203.232-.891.781.203zm.288-1.112-.781-.203.231-.891.782.203zm.289-1.113-.781-.203.231-.891.782.203zm.289-1.112-.782-.203.232-.891.781.203zm.289-1.113-.782-.203.231-.89.782.202zm.288-1.112-.782-.203.232-.891.781.203zm.289-1.112-.782-.203.232-.892.781.203zm.288-1.113-.781-.203.231-.891.782.202zm-4.797 22.501-.782-.203.231-.891.782.203zm.288-1.112-.782-.203.232-.891.781.203zm.289-1.113-.782-.203.232-.89.781.202zm.288-1.112-.781-.202.231-.892.782.203zm.289-1.112-.781-.203.231-.892.781.203zm.289-1.113-.782-.202.232-.892.781.203zm.288-1.112-.781-.203.231-.891.782.203zm.289-1.112-.782-.203.232-.891.781.202zm.289-1.113-.782-.203.232-.891.781.203zm.289-1.113-.782-.203.231-.891.782.203zm.288-1.112-.782-.203.232-.89.781.202zm.288-1.112-.781-.203.231-.892.782.203zm.289-1.113-.781-.202.231-.892.782.203zm.289-1.112-.781-.203.231-.891.782.203zm.289-1.112-.782-.203.231-.891.782.203zm.288-1.113-.782-.203.232-.891.781.203zm.289-1.112-.782-.203.232-.891.781.203zm.289-1.113-.782-.203.232-.89.781.202zm.288-1.112-.781-.202.231-.892.782.203zm.289-1.112-.782-.203.231-.892.782.203zm.289-1.113-.782-.203.231-.891.782.202zm-4.798 22.501-.782-.203.232-.891.781.203zm.288-1.112-.781-.203.231-.891.782.203zm.289-1.113-.782-.203.232-.89.781.202zm.288-1.112-.781-.202.231-.892.782.203zm.289-1.112-.781-.203.231-.892.782.203zm.289-1.113-.782-.202.232-.892.781.203zm.289-1.112-.782-.203.231-.891.782.203zm.288-1.112-.782-.203.232-.891.781.202zm.289-1.113-.782-.203.232-.891.781.203zm.288-1.113-.781-.203.231-.891.782.203zm.289-1.112-.781-.203.231-.89.782.202zm.289-1.112-.782-.203.231-.892.782.203zm.289-1.113-.782-.202.231-.892.782.203zm.288-1.112-.782-.203.232-.891.781.203zm.289-1.112-.782-.203.232-.891.781.203zm.288-1.113-.781-.203.231-.891.782.203zm.289-1.112-.781-.203.231-.891.782.203zm.289-1.113-.782-.203.231-.89.782.202zm.288-1.112-.781-.202.231-.892.782.203zm.289-1.112-.782-.203.232-.892.781.203zm.289-1.113-.782-.203.232-.891.781.203zm-4.799 22.501-.781-.203.232-.891.781.203zm.289-1.112-.781-.203.231-.891.781.202zm.289-1.113-.781-.202.231-.891.781.203zm.288-1.112-.781-.202.231-.892.782.203zm.289-1.112-.781-.203.231-.891.781.203zm.288-1.113-.781-.202.232-.892.781.203zm.289-1.112-.781-.203.232-.891.781.203zm.289-1.113-.781-.203.231-.89.781.202zm.289-1.112-.781-.203.231-.891.781.203zm.288-1.113-.781-.203.231-.891.781.203zm.289-1.112-.781-.203.231-.89.781.202zm.288-1.112-.781-.203.232-.891.781.202zm.289-1.113-.781-.202.232-.891.781.202zm.289-1.112-.781-.203.231-.891.781.203zm.289-1.112-.782-.203.232-.891.781.203zm.288-1.113-.781-.203.231-.891.781.203zm.289-1.112-.781-.203.231-.891.781.203zm.288-1.113-.781-.202.232-.891.781.203zm.289-1.112-.781-.202.231-.892.782.203zm.289-1.112-.782-.203.232-.891.781.203zm.288-1.113-.781-.203.232-.891.781.202zm-4.797 22.5-.782-.203.232-.891.781.203zm.288-1.112-.781-.203.231-.891.781.203zm.289-1.113-.782-.203.232-.89.781.202zm.288-1.112-.781-.202.231-.892.782.203zm.289-1.112-.781-.203.231-.892.782.203zm.289-1.113-.782-.202.232-.892.781.203zm.289-1.112-.782-.203.231-.891.782.203zm.288-1.113-.782-.203.232-.89.781.202zm.289-1.112-.782-.203.232-.891.781.203zm.288-1.113-.781-.203.231-.891.782.203zm.289-1.112-.781-.203.231-.89.782.202zm.289-1.112-.782-.203.231-.891.782.202zm.288-1.113-.781-.202.231-.892.782.203zm.289-1.112-.782-.203.232-.891.781.203zm.289-1.112-.782-.203.232-.891.781.203zm.288-1.113-.781-.203.231-.891.782.203zm.289-1.112-.781-.203.231-.891.781.203zm.288-1.113-.781-.203.231-.89.782.202zm.289-1.112-.781-.203.231-.891.782.203zm.289-1.112-.782-.203.232-.892.781.203zm.289-1.113-.782-.203.231-.891.782.202zm-4.798 22.501-.782-.203.232-.891.781.203zm.288-1.112-.781-.203.231-.891.782.203zm.289-1.113-.781-.203.231-.89.782.202zm.289-1.112-.782-.202.231-.892.782.203zm.288-1.112-.782-.203.232-.892.781.203zm.289-1.113-.782-.202.232-.892.781.203zm.289-1.112-.782-.203.232-.891.781.203zm.288-1.113-.781-.203.231-.89.782.202zm.289-1.112-.782-.203.231-.891.782.203zm.288-1.112-.781-.203.231-.892.782.203zm.289-1.113-.781-.203.231-.89.782.202zm.289-1.112-.782-.203.232-.891.781.202zm.288-1.113-.781-.202.231-.892.782.203zm.289-1.112-.781-.203.231-.891.781.203zm.288-1.112-.781-.203.231-.891.782.203zm.289-1.113-.781-.203.231-.891.782.203zm.289-1.112-.781-.203.231-.891.782.203zm.289-1.113-.782-.203.232-.89.781.202zm.288-1.112-.781-.203.231-.89.781.202zm.289-1.112-.782-.203.232-.892.781.203zm.289-1.113-.782-.203.232-.891.781.203zm-4.799 22.501-.781-.202.231-.892.781.203zm.289-1.112-.781-.202.231-.892.781.203zm.289-1.113-.781-.203.231-.89.781.202zm.288-1.112-.781-.202.232-.892.781.203zm.289-1.112-.781-.203.231-.892.781.203zm.289-1.113-.781-.203.231-.891.781.202zm.288-1.112-.781-.203.232-.891.781.203zm.289-1.113-.781-.203.231-.89.781.202zm.288-1.112-.781-.203.232-.891.781.202zm.289-1.113-.781-.202.232-.892.781.203zm.289-1.112-.781-.203.231-.89.781.202zm.289-1.112-.782-.203.232-.891.781.202zm.288-1.113-.781-.202.231-.892.781.203zm.289-1.112-.781-.203.231-.891.781.203zm.288-1.112-.781-.203.232-.891.781.203zm.289-1.113-.781-.203.231-.891.781.203zm.289-1.112-.781-.203.231-.891.781.202zm.288-1.113-.781-.202.232-.891.781.203zm.289-1.112-.781-.203.232-.891.781.202zm.289-1.112-.781-.203.231-.892.781.203zm-4.221 20.276-.781-.203.231-.891.782.203zm.289-1.113-.782-.203.231-.89.782.202zm.288-1.112-.781-.202.231-.892.782.203zm.289-1.112-.782-.203.232-.892.781.203zm.289-1.113-.782-.202.232-.892.781.203zm.288-1.112-.781-.203.231-.891.782.203zm.289-1.113-.781-.203.231-.89.781.202zm.289-1.112-.782-.203.231-.891.782.203zm.288-1.113-.781-.203.231-.891.782.203zm.289-1.112-.782-.203.232-.89.781.202zm.289-1.112-.782-.203.232-.891.781.202zm.288-1.113-.781-.202.231-.892.782.203zm.289-1.112-.782-.203.232-.891.781.203zm.288-1.112-.781-.203.231-.891.782.203zm.289-1.113-.781-.203.231-.891.782.203zm.289-1.112-.782-.203.232-.891.781.203zm.289-1.113-.782-.203.231-.89.782.202zm.288-1.112-.782-.203.232-.891.781.202zm-3.643 18.051-.782-.203.232-.89.781.202zm.289-1.112-.782-.202.232-.892.781.203zm.288-1.112-.781-.203.231-.892.781.203zm.289-1.113-.782-.202.232-.892.781.203zm.288-1.112-.781-.203.231-.891.782.203zm.289-1.112-.781-.203.231-.892.782.203zm.289-1.113-.782-.203.232-.891.781.203zm.289-1.113-.782-.203.231-.891.782.203zm.288-1.112-.781-.203.231-.89.781.202zm.289-1.112-.782-.203.232-.891.781.202zm.288-1.113-.781-.202.231-.892.782.203zm.289-1.112-.781-.203.231-.891.782.203zm.289-1.112-.782-.203.231-.891.782.203zm.289-1.113-.782-.203.231-.891.782.203zm.288-1.112-.782-.203.232-.891.781.203zm.289-1.113-.782-.203.232-.89.781.202zm.534 2.75.781.203-.231.891-.781-.202zm-.289 1.112.781.203-.231.89-.781-.202zm-.288 1.112.781.203-.232.891-.781-.203zm-.289 1.113.781.203-.231.891-.781-.203zm-.289 1.112.781.203-.231.891-.781-.203zm-.288 1.113.781.202-.231.892-.782-.203zm-.289 1.112.781.203-.231.891-.781-.203zm-.289 1.112.781.203-.231.892-.781-.203zm-.288 1.113.781.203-.232.89-.781-.202zm-1.003 3.066-.781-.203.231-.892.782.203zm.289-1.113-.781-.202.231-.892.782.203zm.289-1.112-.782-.203.231-.891.782.203zm.288-1.113-.781-.203.231-.89.781.202zm.289-1.112-.782-.203.232-.891.781.203zm.289-1.112-.782-.203.232-.891.781.202zm.288-1.113-.781-.203.231-.89.782.202zm.289-1.112-.782-.203.232-.892.781.203zm.289-1.112-.782-.203.231-.892.782.203zm.288-1.113-.781-.203.231-.891.782.203zm.289-1.112-.782-.203.232-.891.781.203zm.289-1.113-.782-.203.232-.891.781.203zm.52-2.003-.232.891-.781-.203.231-.891z" fill="#569ADD" opacity=".46"/><path d="M350.633 40.128c-3.722-.989-8.995 2.73-10.235 7.732a9.3 9.3 0 0 1-.626 1.773L333.678 62.4s-10.019-2.795-11.432-3.548-1.605-4.737-2.762-5.571c-1.156-.835-1.517-1.285-1.625-.579-.109.707.919 1.606.983 2.762s-.676 1.742-.113 3.857c.227.854.478 1.825.696 2.677a4.32 4.32 0 0 0 2.797 3.022l11.427 3.89a5.47 5.47 0 0 0 6.625-2.668l4.644-8.98z" fill="#FA9999"/><path d="M345.008 47.132s-3.639 6.01-2.269 14.344l2.126-3.804z" fill="#1B2236"/><path d="M363.007 88.54s3.425 11.026 7.75 18.647c4.324 7.621 7.236 8.82 11.004 7.536s18.902-17.243 21.151-18.454c2.783-1.499 5.181-.343 5.181-.343s1.242-6.909-3.896-8.435c0 0-1.37 2.398-2.997 3.425-1.627 1.028-15.886 3.512-19.268 8.478l-1.128-11.903z" fill="#FA9999"/><path d="m381.618 96.076-.814-8.584-17.797 1.048s3.425 11.026 7.749 18.647c.21.369.415.719.618 1.058 1.825-5.242 6.353-9.42 10.244-12.169" fill="#DE7373"/><path d="m380.804 87.492-17.797 1.048s1.856 5.973 4.56 12.165c3.086-4.713 9.243-8.37 13.573-9.663z" fill="#1B2236"/><path d="M353.089 87.133s-7.666 14.959-9.107 19.84c-1.442 4.881-1.955 9.506-1.955 9.506s-3.854 24.405-5.524 30.185c-1.669 5.781-5.908 9.248-5.908 9.248s5.908 3.854 12.716 1.927c0 0-.899-1.669-.385-4.881.514-3.211 3.597-14.772 6.808-19.653 2.931-4.455 5.032-13.727 3.801-19.12a2.73 2.73 0 0 1 .82-2.597c4.073-3.787 16.797-15.908 20.672-23.048z" fill="#FA9999"/><path d="m375.027 88.54-20.948-1.344-2.127 2.186-.03.06c3.66-1.795 13.697 4.175 19.293 4.585 1.59-1.982 2.931-3.864 3.812-5.487" fill="#DE7373"/><path d="M343.582 149.911c-3.338.565-8.067.208-8.003-.756l-.013.014c-1.946 4.258-4.971 6.744-4.971 6.744s5.908 3.854 12.716 1.927c0 0-.899-1.67-.385-4.881.11-.684.337-1.75.656-3.048m60.615-62.419s-1.047 1.83-2.396 2.978c2.121.686 2.846 2.994 2.205 5.333 2.289-.74 4.087.123 4.087.123s1.242-6.909-3.896-8.434" fill="#FFF6E3"/><path d="M356.499 72.335s-1.798 5.138-.513 9.248l-4.111 7.878c5.652-2.483 10.619 3.854 22.436 2.398s14.986-10.79 15.329-15.756c0 0-5.053-1.456-7.108-3.254s-3.575-6.31-8.563-7.694z" fill="#FFB98B"/><path d="M365.707 91.59c1.174-5.954 1.937-14.76.215-18.241a.355.355 0 0 1 .636-.316c1.791 3.622 1.037 12.617-.153 18.68q-.354-.06-.698-.123m-7.321-2.064c3.381-5.33 5.549-14.934 5.653-15.401a.355.355 0 0 0-.693-.154c-.025.114-2.291 10.155-5.677 15.357q.354.092.717.198m17.2 2.136c-1.4-7.606-5.348-20.495-5.389-20.63a.353.353 0 0 0-.443-.235.354.354 0 0 0-.235.444c.041.135 3.973 12.974 5.366 20.534q.355-.051.701-.113m4.878-16.66c-.704-1.785-2.765-6.157-6.674-8.206a.355.355 0 0 0-.329.629c3.699 1.937 5.667 6.126 6.343 7.837 1.053 2.667 3.697 4.913 8.253 6.991q.148-.327.281-.652c-4.323-1.983-6.907-4.15-7.874-6.6m-2.389 3.508c-1.532-4.847-3.909-8.355-6.52-9.626a.354.354 0 1 0-.311.638c2.438 1.186 4.681 4.54 6.153 9.202 1.114 3.523 3.63 7.362 5.661 9.816q.286-.214.557-.436c-1.983-2.39-4.452-6.149-5.54-9.594" fill="#A33B82"/><path d="M375.028 66.413c.067-1.454-1.542-.42-2.876-.512l-15.653 6.434s-1.798 5.138-.514 9.248c2.464-4.603 11.794-1.525 15.878-4.007 3.341-2.03 2.967-6.899 3.165-11.163" fill="#D3D5F2"/><path d="M366.558 73.034a.355.355 0 0 0-.636.314c.608 1.23.905 3.128.984 5.327q.35-.017.693-.042c-.084-2.303-.398-4.299-1.041-5.6m3.639-2.002a.355.355 0 1 0-.678.209c.019.063.871 2.846 1.919 6.565q.221-.106.426-.23c.073-.044.135-.097.205-.145a328 328 0 0 0-1.872-6.399m1.358-2.147a.354.354 0 1 0-.31.638c1.201.585 2.354 1.697 3.392 3.231q.082-.501.137-1.02c-.996-1.322-2.085-2.297-3.219-2.849m1.906-1.459a10 10 0 0 1 1.5.977l.025-.864a10.5 10.5 0 0 0-1.196-.742.354.354 0 1 0-.329.629m-10.656 11.381a78 78 0 0 0 1.234-4.682.354.354 0 1 0-.693-.154 79 79 0 0 1-1.306 4.882q.378-.028.765-.046" fill="#304D96"/><path d="M332.997 154.279c.505.385 1.151.945 1.775 1.684a2.74 2.74 0 0 0 2.131.985c2.076-.036 3.661-.554 4.714-1.05a1.298 1.298 0 0 1 1.822.906c.174.789.436 1.676.814 2.32.554.941.893 2.239 1.086 3.375a1.408 1.408 0 0 1-1.393 1.635h-15.449c-3.514 0-7.762-.905-9.966-1.703a1.466 1.466 0 0 1 .03-2.769c1.388-.46 4.352-1.398 7.269-2.035a9.06 9.06 0 0 0 4.342-2.312 33 33 0 0 1 1.045-.963 1.405 1.405 0 0 1 1.78-.073" fill="#FF861C"/><path d="M343.946 164.134c.868 0 1.54-.779 1.393-1.635a14 14 0 0 0-.442-1.865c-3.663.008-10.677.763-14.045 1.487-3.982.857-8.564.471-11.133-.343-1.124-.355-1.739-.793-2.076-1.173-.018.056-.045.107-.056.165a1.465 1.465 0 0 0 .944 1.66c2.204.799 6.452 1.703 9.966 1.703z" fill="#FFF6E3"/><path d="M406.056 95.07a9 9 0 0 1 .613-1.843 2.18 2.18 0 0 0-.01-1.865c-.725-1.48-1.631-2.446-2.342-3.036a1.03 1.03 0 0 1 .038-1.616c.509-.39 1.059-.878 1.395-1.367.49-.715 1.31-1.396 2.062-1.917a1.117 1.117 0 0 1 1.644.452l5.202 11.11c1.183 2.528 1.964 5.887 2.132 7.742a1.164 1.164 0 0 1-2.001.91c-.799-.843-2.472-2.659-3.912-4.543a7.2 7.2 0 0 0-3.125-2.344c-.4-.154-.756-.302-1.045-.427a1.116 1.116 0 0 1-.651-1.256" fill="#FF861C"/><path d="M409.457 83.877a1.117 1.117 0 0 0-1.644-.452c-.399.276-.815.599-1.193.946 1.239 2.631 4.144 7.422 5.799 9.6 1.957 2.576 3.223 6 3.502 8.122.123.928.015 1.518-.145 1.889.046-.006.092-.004.138-.015.558-.14.928-.665.876-1.238-.168-1.855-.948-5.215-2.131-7.742z" fill="#FFF6E3"/><path d="M349.783 40.242a3.43 3.43 0 0 1 1.888.039c2.569.788 10.801 3.577 14.568 7.99 4.496 5.267 4.624 12.9 4.624 12.9s1.335 1.261 2.899 1.904a2.03 2.03 0 0 1 1.254 2.08c-.429 4.135-2.469 7.075-6.208 9.976-4.481 3.477-12.074 3.326-12.588-.977-3.597-1.284-3.982-3.982-3.982-3.982l-3.751-2.911a11.58 11.58 0 0 1-4.473-8.914c-.061-2.997-.057-6.55.196-8.92.468-4.387 2.002-8.242 5.573-9.185" fill="#A33B82"/><path d="m351.942 69.942 5.443-7.98-8.081 5.933z" fill="#1B2236"/><path d="M353.416 36.308s1.145-2.734 1.065-4.494c-.139-3.032-1.932-5.521-5.04-5.573l-.863-.063s-3.936-2.655-6.421-1.028c1.326.086 3.038.857 3.038.857-5.951 1.755-7.493 6.076-4.196 10.574l3.464 1.016z" fill="#8A221E"/><path d="m345.624 42.191 2.612 4.41c-1.731 5.903-1.884 7.448-.386 7.985 1.499.536 3.169-2.89 3.982-5.202.656-1.863 1.478-4.227 2.736-5.724a1.247 1.247 0 0 0-.159-1.787c-.806-.644-1.831-1.529-2.362-2.25z" fill="#FA9999"/><path d="m352.541 40.359.008-.148a6 6 0 0 1-.502-.588l-6.423 2.569 1.601 2.703a4.53 4.53 0 0 0 3.718-1.147 4.98 4.98 0 0 0 1.598-3.39" fill="#DE7373"/><path d="M365.221 55.731c0-3.596-.579-8.028-3.758-8.927-3.499-.99-7.431 2.758-8.599 5.812-.304.795-.703 1.551-1.247 2.207l-9.646 11.634-20.424-2.954-1.014-2.747a2.88 2.88 0 0 0-2.004-1.797l-2.704-.676a1.334 1.334 0 0 0-1.594.89l-.946 2.973a1.49 1.49 0 0 0 1.034 1.888l1.384.368s.256 2.312 3.725 2.377c0 0 10.94 4.555 19.582 7.357a8.76 8.76 0 0 0 9.073-2.32s7.011-7.456 9.302-9.854c4.732 1.969 7.836-2.634 7.836-6.23" fill="#FA9999"/><path d="m315.045 59.498 2.307.537m-2.82.785 2.307.536m-2.67.829 2.113.492" stroke="#DE7373" stroke-width=".954" stroke-miterlimit="10" stroke-linecap="round" stroke-linejoin="round"/><path d="m360.79 60.488.671-1.704c.164-.414-.364-.75-.67-.426l-3.406 3.604.028.012c1.331.546 2.85-.148 3.377-1.486" fill="#DE7373"/><path d="M360.858 51.692c-2.047 3.218-6.695 3.993-6.695 3.993m-35.635 3.274s2.527.203 3.019 4.544l17.67 2.556" stroke="#DE7373" stroke-width=".954" stroke-miterlimit="10" stroke-linecap="round" stroke-linejoin="round"/><path d="M333.678 62.4c1.204.397 2.296.76 2.688 2.195.076.28.306.493.593.535a.72.72 0 0 0 .824-.768c-.073-.857-.327-2.157-1.154-3.094-.744-.842-2.125-.6-2.609.414z" fill="#DE7373"/><path d="m342.328 36.729.861 3.133a4.97 4.97 0 0 0 2.602 3.146l.262.129a4.525 4.525 0 0 0 5.061-.732 4.97 4.97 0 0 0 1.598-3.389l.223-4.07a2.06 2.06 0 0 0-1.383-2.044c-.845-.301-1.847-.905-2.411-2.119-.471 2.184-3.519 4.762-5.389 4.602 1.87-1.246 2.267-1.953 2.364-3.066-.565 1.056-1.614 1.648-2.54 1.977-.988.353-1.526 1.42-1.248 2.433" fill="#FA9999"/><path d="m342.351 36.81-.671-.888a.915.915 0 0 0-1.579.893l.615 1.527c.218.541.732.905 1.316.93l1.008.044zm10.415 1.241.151-2.76.453-.498a.947.947 0 0 1 1.586.977l-.671 1.753a.95.95 0 0 1-1.019.6z" fill="#FA9999"/><path d="m349.035 47.92-.799-1.318c-.279.95-.516 1.786-.713 2.525.317-.073.614-.1.883-.096a.73.73 0 0 0 .629-1.112" fill="#DE7373"/><path d="M367.599 72.134c2.462-.436 4.792-5.781 5.511-9.367a11.6 11.6 0 0 1-2.246-1.596c.304 4.13-1.352 8.897-3.265 10.963m-10.936-.728c-2.587 0-3.79-.949-3.864-1.01a.22.22 0 0 1 .277-.34c.026.022 2.623 2.036 8.477-.036a.22.22 0 1 1 .146.414c-2.056.727-3.724.972-5.036.972m.791 2.527a6 6 0 0 1-.574-.022.22.22 0 0 1-.194-.242.217.217 0 0 1 .241-.194c.018.002 1.766.18 3.922-.51 1.982-.636 4.727-2.16 6.553-5.81a.22.22 0 0 1 .294-.099.22.22 0 0 1 .098.294c-3.032 6.066-8.553 6.583-10.34 6.583" opacity=".45" fill="#1B2236"/><path d="m342.422 37.07.378 1.376m10.102-2.886-.094 1.73m1.534-1.731c-.06-.644-1.177-.033-1.46.652m-12.169.305c.298-.36 1.897 1.242 1.897 1.242" stroke="#DE7373" stroke-width=".954" stroke-miterlimit="10" stroke-linecap="round" stroke-linejoin="round"/><path d="M345.207 37.57a.679.679 0 1 0 0-1.359.679.679 0 0 0 0 1.358m4.747-.466a.679.679 0 1 0 0-1.358.679.679 0 0 0 0 1.358" fill="#1B2236"/><path d="m348.93 35.05 1.917-.252m-6.948.488h2.218" stroke="#8A221E" stroke-width="1.843" stroke-miterlimit="10" stroke-linecap="round" stroke-linejoin="round"/><path d="m347.375 35.698.067.81a1.85 1.85 0 0 1-.46 1.385c-.223.25.019.638.342.548l.826-.23" stroke="#DE7373" stroke-width=".954" stroke-miterlimit="10" stroke-linecap="round" stroke-linejoin="round"/><path d="m346.777 39.208 1.903-.45a.495.495 0 0 1 .61.454c.039.814-.04 2.204-1.012 2.33-.955.123-1.564-.977-1.849-1.669a.494.494 0 0 1 .348-.665" fill="#1B2236"/><path d="M351.649 38.686a1.016 1.016 0 1 1-2.032-.001 1.016 1.016 0 0 1 2.032 0m-5.625.463a1.016 1.016 0 1 1-2.032-.001 1.016 1.016 0 0 1 2.032 0" fill="#FA8787"/></svg>