<svg width="437" height="166" viewBox="0 0 437 166" fill="none" xmlns="http://www.w3.org/2000/svg"><mask id="a" style="mask-type:luminance" maskUnits="userSpaceOnUse" x="0" y="-25" width="437" height="220"><path d="M0-24.04h437v218.543H0z" fill="#fff"/></mask><g mask="url(#a)"><g clip-path="url(#b)"><path d="M303.642 76.907c.422 1.857.403 3.79-.056 5.638a12.2 12.2 0 0 1-2.012 4.298 12 12 0 0 1-3.489 3.174 11.7 11.7 0 0 1-3.355 1.354 11.6 11.6 0 0 1-4.261.199 11.8 11.8 0 0 1-5.056-1.972 12 12 0 0 1-3.674-4.046 12.2 12.2 0 0 1-1.236-3.242 12.18 12.18 0 0 1 1.154-8.493 12 12 0 0 1 3.243-3.832 11.75 11.75 0 0 1 4.505-2.14l.01-.003a11.6 11.6 0 0 1 6.795.452c.174.063.342.135.513.206a11.99 11.99 0 0 1 6.744 7.737q.1.328.175.67" fill="#E9725B"/><path d="M298.023 77.558c.749 1.29 1.834 2.31 3.075 3.1.831.53 1.71.965 2.606 1.36a7 7 0 0 1-.118.527c-2.436-1.069-4.736-2.465-6.083-4.829a53 53 0 0 0-2.255.735q.102.268.2.535a78 78 0 0 1 2.318 7.29 61 61 0 0 1 .796 3.44 9 9 0 0 1-.478.3c-.762-3.887-1.937-7.695-3.335-11.387q-.675.244-1.342.513c.031.085.066.169.094.257.814 2.533.185 5.236-.712 7.649-.575 1.538-1.219 3.044-1.772 4.582a11 11 0 0 1-.548-.06c.555-1.556 1.204-3.072 1.787-4.626.892-2.378 1.543-5.041.689-7.535-.008-.023-.021-.045-.03-.069q-1.314.54-2.594 1.158c-2.998 1.463-5.822 3.289-8.304 5.528a10 10 0 0 1-.28-.475 34 34 0 0 1 3.341-2.632c2.386-1.646 4.96-2.98 7.631-4.077-.985-2.095-3.125-3.257-5.258-3.923a14.4 14.4 0 0 0-6.085-.528q.136-.292.289-.575c2.245-.234 4.539.04 6.665.828 2.056.758 3.936 1.99 4.879 3.998q.675-.268 1.357-.517c-1.405-3.638-3.15-7.224-5.733-10.13q.29-.083.582-.151c1.254 1.442 2.318 3.05 3.23 4.736.936 1.726 1.715 3.532 2.423 5.366a54 54 0 0 1 2.186-.72q-.032-.06-.059-.12c-1.295-2.763-1.264-5.825-.975-8.814.173.063.342.135.512.206-.13 1.35-.199 2.703-.107 4.057.105 1.558.452 3.122 1.152 4.518a59 59 0 0 1 5.543-1.358q.087.255.158.52l-.542.11q-2.474.51-4.903 1.213" fill="#000"/></g><path d="M85.985 46.045s1.707 5.812-3.072 5.812l.407-5.812z" fill="#151E30"/><path d="m48.305 58.351-7.034 4.552a2.28 2.28 0 0 0-2.64.526 6.88 6.88 0 0 0-.877 8.127 5.465 5.465 0 0 0 7.828 1.736l9.206-6.379z" fill="#FEF4D9"/><path d="m50.783 69.689 4.005-2.776-4.604-6.08-3.113-.654s-.802 5.574 3.712 9.51m55.994 87.003 5.105 2.181a5.6 5.6 0 0 0 1.936.443c1.625.085 4.963.527 6.591 2.692.724.964.19 2.359-.983 2.636l-.664.156a16 16 0 0 1-3.65.424H101.51c-3.386 0-5.206-4.153-2.77-6.506a5 5 0 0 1 .271-.243z" fill="#2E4A9C"/><path d="m96.764 128.65 8.61 26.975c.185.577.134 1.212-.18 1.729-.845 1.389-1.056 3.413-3.383 3.413-2.738 0-2.8-2.292-2.8-2.292l-3.632-6.933a11.5 11.5 0 0 0-2.449-3.186c-2.517-2.285-7.52-7.509-7.584-12.97zm-69.111 1.003-4.202 29.917h6.303l4.672-12.06c.384-.99.87-1.937 1.447-2.828 1.52-2.346 4.722-8.015 5.376-15.029z" fill="#B8DBF6"/><path d="M80.488 88.124s1.655 1.337 1.4 4.267c1.655.891 1.146 3.374 1.146 3.374s7.638 13.114 7.574 20.882c2.738.191 2.165 5.73 2.165 5.73s3.628 1.082 3.246 4.774c2.165 2.356-.445 6.43-3.564 7.767s-9.04 3.121-8.975-1.017c-2.865-4.584-19.16-30.242-19.16-30.242l-21.068 23.874s.142 1.541-.511 2.714c-.346.622-1.03.979-1.74.979H27.592c-1.91 0-.573-5.793 1.91-6.303-.764-2.928 2.036-5.602 2.036-5.602s8.275-17.954 14.385-23.683c-1.017-1.592 2.615-3.31 2.615-3.31s-.64-4.139 3.37-5.412z" fill="#3451A3"/><path d="M96.224 131.407c-.282-.874-.836-1.816-1.695-2.496-.013-1.253-.939-3.132-2.033-4.094-.444-.39-.887-.6-1.3-.619.022-2.195-.636-4.461-1.603-5.461q-.394-.406-.808-.49c-.577-7.649-5.704-19.473-7.657-21.751.188-.815-.343-2.272-1.486-3.278.268-3.178-1.658-4.902-1.742-4.975a.23.23 0 0 0-.25-.032.227.227 0 0 0-.048.373c.019.016 1.88 1.694 1.58 4.707a.23.23 0 0 0 .08.196c1.168.977 1.61 2.421 1.402 2.987a.23.23 0 0 0 .047.233c1.867 1.998 7.128 14.089 7.635 21.761a.227.227 0 0 0 .226.212q.335 0 .695.371c.91.943 1.543 3.255 1.472 5.379a.227.227 0 0 0 .263.231c.438-.071.892.229 1.195.495 1.026.903 1.92 2.74 1.878 3.856a.2.2 0 0 0 .021.106q.025.051.069.085c.967.725 1.537 1.842 1.738 2.755a7 7 0 0 0 .32-.551M52.168 88.195c-.093.024-2.265.643-2.433 4.135l-.319.165c-1.205.619-3.01 1.544-2.494 3.43-2.325 1.925-13.042 19.207-14.26 23.699-1.996.627-2.133 4.791-2.142 5.522-.45.417-2.569 2.575-2.36 6.08h.457c-.219-3.623 2.25-5.784 2.276-5.807a.23.23 0 0 0 .079-.173c-.006-1.33.328-4.859 1.925-5.217a.23.23 0 0 0 .17-.167c1.103-4.543 12.617-22.633 14.238-23.66a.23.23 0 0 0 .094-.263c-.5-1.5.711-2.265 2.223-3.04q.24-.121.443-.232a.23.23 0 0 0 .117-.19c.107-3.256 2.023-3.822 2.103-3.844a.226.226 0 1 0-.117-.438" fill="#5872C1"/><path d="M51.908 86.916c-.475.15-.882.342-1.235.561.525 4.077 6.717 7.295 14.283 7.295 7.198 0 13.154-2.912 14.17-6.705z" fill="#151E30"/><path d="M80.875 85.457c0 4.34-6.413 7.857-14.324 7.857-7.912 0-14.324-3.517-14.324-7.857 0-4.338 6.412-7.856 14.324-7.856 7.911 0 14.324 3.518 14.324 7.856" fill="#FEF4D9"/><path d="m60.08 92.469-1.145-.357V88.91h1.145zm14.088-.357-1.146.357V88.91h1.146z" fill="#3451A3"/><path d="m85.77 76.283-4.2 10.186.01.015a1.768 1.768 0 0 1-1.024 2.639c-4.753 1.335-16.449 3.668-28.395-1.235a1.75 1.75 0 0 1-.82-2.553l.694-1.093 1.584-15.657s-7.07-2.043-7.056-9.573c.004-2.723 1.973-3.548 3.055-2.974 2.864-1.783 5.855-4.393 5.855-4.393s1.73-3.394 5.666-3.716c5.855-.476 20.08 2.492 29.9 8.324z" fill="#5872C1"/><path d="m68.689 59.013-3.301 9.033a.812.812 0 1 0 1.525.553l3.259-9.076zM85.416 74.36c2.9.763 6.21 1.35 5.532 2.538-.678 1.189-6.62.51-6.62.51zm-20.99 28.177-.09.05zm0 0-.09.05za3.6 3.6 0 0 1-.354-1.58c0-.476.09-1.025.364-1.613a.34.34 0 0 0 .031-.163l-.002-.04q-.012-.284-.011-.569c-.003-1.018.106-3.129.812-4.709a.34.34 0 0 0-.62-.275c-.776 1.753-.869 3.918-.871 4.984 0 .4.014.644.015.65l.339-.022-.308-.143a4.5 4.5 0 0 0-.427 1.9c0 1.125.422 1.881.439 1.911a.34.34 0 0 0 .592-.332" fill="#151E30"/><path d="M62.525 93.969c-.002.013-.334 1.423-.335 2.95 0 .69.067 1.407.278 2.042.106.317.25.615.444.875.195.26.446.481.75.631a.337.337 0 0 0 .456-.154.34.34 0 0 0 .017-.259.34.34 0 0 0-.17-.196 1.4 1.4 0 0 1-.51-.43c-.211-.28-.361-.662-.456-1.1a7 7 0 0 1-.13-1.41c0-.714.08-1.418.16-1.94q.06-.4.145-.797l.012-.058a.34.34 0 1 0-.661-.154" fill="#151E30"/><path d="M56.828 97.705c.915 1.066 1.944 1.92 3.194 2.502s2.71.888 4.478.888c2.095-.001 4.625-.427 7.785-1.333a.338.338 0 0 0 .072-.623.34.34 0 0 0-.258-.03c-3.123.896-5.596 1.306-7.6 1.306-1.69 0-3.044-.29-4.191-.825-1.148-.535-2.095-1.315-2.965-2.328a.34.34 0 0 0-.515.443m8.969 4.701 9.633.849a.34.34 0 0 0 .059-.677l-9.633-.849a.34.34 0 0 0-.06.677m-17.359-3.867.063.021c.643.21 6.097 2.121 10.18 6.663q.046.05.106.08a.34.34 0 0 0 .26.013.35.35 0 0 0 .226-.302.34.34 0 0 0-.086-.245c-4.509-5.002-10.518-6.866-10.546-6.878a.339.339 0 1 0-.203.648m1.526 6.372h.07c.534 0 4.026.071 7.848 1.755a.338.338 0 0 0 .445-.434.34.34 0 0 0-.171-.189c-3.957-1.739-7.532-1.81-8.123-1.811l-.085.001a.338.338 0 0 0-.302.477.35.35 0 0 0 .188.179.3.3 0 0 0 .13.022" fill="#151E30"/><path d="M103.523 160.202c.963-.645 1.918-.072 3-.391 1.082-.317 2.927-2.1 2.609-3.31s-2.45-1.597-3.803-1.021-1.806 4.722-1.806 4.722" fill="#5872C1"/><path d="M21.913 165.223c-1.118 0-1.908-1.115-1.513-2.16.717-1.899 2.387-4.348 6.223-4.27 4.05.083 5.094 2.768 5.33 4.642.119.952-.641 1.788-1.6 1.788z" fill="#2E4A9C"/><path d="M23.334 157.909c2.16-.858 5.38-.81 7.163.248a.8.8 0 0 1 .352.487.78.78 0 0 1-.099.592l-.121.194a.95.95 0 0 1-1.179.367c-1.026-.44-3.04-1.034-5.357-.285a.94.94 0 0 1-.814-.1.95.95 0 0 1-.433-.696.78.78 0 0 1 .488-.807" fill="#5872C1"/><path d="M31.631 126.538c.49.435 1.115.719 1.806.897.69.179 1.454.251 2.234.251 1.265 0 2.582-.192 3.724-.463 1.144-.274 2.106-.62 2.692-.966a.342.342 0 0 0-.096-.608.34.34 0 0 0-.25.024c-.477.285-1.407.63-2.503.889-1.097.262-2.37.446-3.567.445-.739.001-1.447-.069-2.065-.229s-1.14-.407-1.525-.748a.341.341 0 0 0-.546.278.34.34 0 0 0 .096.23m60.506-2.324.004.051c.007.104.024.366.024.726 0 .841-.092 2.221-.56 3.39-.233.585-.557 1.114-.996 1.51-.44.395-.992.668-1.734.745a.34.34 0 0 0 .07.675c.876-.087 1.582-.429 2.118-.917.808-.731 1.243-1.759 1.487-2.757.242-1 .294-1.98.294-2.646 0-.508-.03-.832-.03-.84a.34.34 0 0 0-.37-.307.34.34 0 0 0-.307.37" fill="#151E30"/><path d="m84.668 44.133.146 3.232c.022.498.264.96.66 1.261l.379.287a.584.584 0 0 1-.175 1.021l-1.08.347c-.45 4.348-2.095 6.372-6.593 5.906 0 0-4.582 6.239-8.614 3.861-4.272-2.518-.89-8.615 1.91-9.677l1.231-5.687z" fill="#F46A64"/><path d="M80.831 49.816a1.413 1.413 0 1 1-2.826 0 1.413 1.413 0 0 1 2.826 0" fill="#F03F4F"/><path d="m70.758 51.809-.686 3.166a.228.228 0 0 0 .341.226.23.23 0 0 0 .102-.13l.685-3.167a.227.227 0 0 0-.408-.176.2.2 0 0 0-.034.081" fill="#A13D3A"/><path d="M72.99 54.93c.39 1.532 1.287 3.014 2.214 4.083a16 16 0 0 0 2.803-2.826c-1.336-.034-2.844-.83-3.829-1.914-.484-.534-1.365-.043-1.187.657m-.449-5.868c-.05-.527.084-1.065.44-1.458a1.802 1.802 0 0 1 2.845.198l.43.452c.305-.502.613-.854.838-1.22.222-.36.58-.601.98-.738 1.16-.399 1.83-1.663 1.83-1.663l-7.372.05-1.454 6.717a7.5 7.5 0 0 0 2.192-.54c-.491-.519-.675-1.21-.729-1.798m8.701-2.352 2.164.674a.453.453 0 0 0 .27-.865l-2.165-.674a.452.452 0 0 0-.424.78.5.5 0 0 0 .155.085" fill="#151E30"/><path d="M72.276 72.718s-1.403.508-1.4 2.42c-1.527-.128-1.973 1.654-1.973 1.654s-1.463-1.464-2.864 0c-1.592-.636-4.138.7-4.138.7v9.868s1.846 1.019 4.138 0c1.846 1.338 3.84 1.402 5.262.192 1.866.954 5.432 0 6.386-2.356 2.61-.637 3.565-2.865 3.692-3.692 2.546-.892 3.055-2.42 3.565-3.502 1.782-.637 2.864-4.138 2.864-4.138s-9.102-3.183-15.532-1.146" fill="#B8DBF6"/><path d="M72.277 72.718c4.898-.318 9.486.449 13.138 1.642 2.249.735 6.148 1.223 5.533 2.538 0 0 1.273-.95 1.527-4.252 1.953-2.539 1.698-4.576 1.698-4.576s3.173-6.728-2.122-11.12c-3.48-2.886-10.778-2.886-13.579 4.244-2.97 3.141-3.346 6.452-3.346 6.452s-2.85 2.016-2.85 5.072m-1.181-5.365s-.118.09-.337.25a74 74 0 0 1-5.189 3.451c-2.413 1.46-5.248 2.95-7.645 3.63a.34.34 0 0 0-.234.419.34.34 0 0 0 .42.234c2.862-.816 6.194-2.674 8.83-4.33a72 72 0 0 0 4.563-3.111.34.34 0 0 0-.408-.543m-14.16-9.914c.462-3.146 2.405-7.37 5.263-9.555a15 15 0 0 0-1.061.047c-3.938.319-5.666 3.715-5.666 3.715s-2.993 2.609-5.856 4.392c-1.082-.573-3.05.251-3.055 2.975-.014 7.53 7.057 9.573 7.057 9.573.454-4.335 1.536-9.571 3.318-11.147m-13.46-2.565a122 122 0 0 0 3.416-18.713l1.638-15.95c.279-2.704-6.095-3.36-6.372-.655l-1.64 15.949a121.6 121.6 0 0 0-.46 19.017l.064 1.166c.13 2.404.072 4.814-.174 7.209l-2.174 21.16a11.5 11.5 0 0 1-1.645 4.85.728.728 0 1 0-.15 1.45l4.202.43a.728.728 0 0 0 .149-1.448 11.5 11.5 0 0 1-.624-5.085l2.173-21.16a46 46 0 0 1 1.296-7.093z" fill="#3451A3"/><path d="m42.456 70.388.596-4.59c.105-.818.74-1.333 1.358-1.101.551.207.878.938.743 1.659l-.572 3.045c-.124.665-.602 1.118-1.13 1.074z" fill="#A13D3A"/><path d="M61.902 77.493 46.858 79.7l-3.313-4.118a3.7 3.7 0 0 0-2.743-1.38l-2.441-.095c-1.047-.04-1.8 1.022-1.387 1.985l.038.086c-.848.593-.665 1.909-.226 2.333-.75.552-.75 1.868-.154 2.292l-.02.029c-.546.779.008 1.86.955 1.942l2.713.236s1.953 2.42 5.772 1.019l15.85 3.331z" fill="#F46A64"/><path d="M37.681 76.446h3.342a.226.226 0 0 0 0-.453h-3.342a.226.226 0 1 0 0 .453m-.158 2.26h3.342a.227.227 0 0 0 0-.453h-3.342a.227.227 0 0 0 0 .453m-.255 2.254h3.341a.227.227 0 1 0 0-.453h-3.342a.227.227 0 0 0 .001.453" fill="#A13D3A"/><path d="M86.638 74.71c1.167-2.65.877-4.995.874-5.02l-.015-.117.06-.102c1.246-2.08 1.395-4.553 1.397-4.576l.006-.1.06-.081c2.785-3.787 1.707-7.336.919-8.98a9 9 0 0 0-.926-.299c.608 1.015 2.47 4.784-.542 8.877l-.119.161a.34.34 0 0 0-.064.18l-.013.201c0 .024-.16 2.362-1.301 4.27l-.12.204a.34.34 0 0 0-.044.215l.028.234c.004.024.261 2.267-.864 4.752q.32.09.664.18" fill="#5872C1"/><path d="M91.733 56.703q-.435-.316-.91-.567c.742 1.965 1.336 5.335-1.146 8.827a.34.34 0 0 0-.061.164c-.057.589-.323 2.656-1.366 4.504a.34.34 0 0 0-.043.193c.047.618.102 2.71-.902 5.055l.665.17c.973-2.332.967-4.419.921-5.173 1.02-1.856 1.316-3.882 1.392-4.593 2.295-3.281 2.079-6.442 1.45-8.58" fill="#5872C1"/><path d="m84.304 64.414.23.019q1.7.16 3.366.53c1.478.331 3.076.86 4.047 1.615a.34.34 0 0 0 .415-.539c-1.288-.986-3.274-1.539-4.955-1.874q-1.516-.3-3.055-.428a.34.34 0 0 0-.371.314.337.337 0 0 0 .323.362M61.903 87.36v-9.868l-1.625 9.526zm-8.64-28.254a.34.34 0 0 0-.547.403l2 2.711q.112-.424.23-.832zm.663 7.072q.056-.363.116-.727c-3.77-2.3-4.148-5.717-4.151-5.754a.34.34 0 0 0-.677.062c.016.17.412 3.951 4.712 6.419m1.692-11.822a.34.34 0 1 0-.672-.095c-.027.184-.552 4.043.135 6.695q.21-.671.45-1.257c-.313-2.411.083-5.306.087-5.343" fill="#151E30"/><path d="M71.938 45.024h14.13s.127-7.401-8.063-7.008c-6.14.295-6.067 7.008-6.067 7.008m7.967 0h8.984c.481 0 .553.693.083.79l-3.114.65a7.14 7.14 0 0 1-5.953-1.44" fill="#3451A3"/><path d="M83.411 48.107a.68.68 0 1 1-1.358 0 .68.68 0 0 1 1.358 0" fill="#151E30"/><path d="m76.467 48.264-.46-.6-.181.138.189-.126a2.026 2.026 0 0 0-3.71 1.259c.036.578.18 1.295.635 1.889.453.596 1.225 1.035 2.405 1.047a.226.226 0 1 0 .007-.453c-1.078-.018-1.679-.388-2.053-.87-.375-.484-.51-1.114-.542-1.64l-.004-.1a1.58 1.58 0 0 1 1.574-1.582c.508 0 1.007.243 1.31.702l.01.012.46.6a.22.22 0 0 0 .239.081.227.227 0 0 0 .121-.357" fill="#A13D3A"/><path d="M73.712 49.192c0-.285.085-.487.2-.618a.57.57 0 0 1 .427-.197c.16 0 .335.064.502.22.168.156.326.41.426.783l.218-.058-.17-.148c-.007.009-.091.106-.178.26-.11.184-.172.394-.18.61a.85.85 0 0 0 .402.716.226.226 0 1 0 .253-.375c-.17-.122-.196-.217-.202-.341a.85.85 0 0 1 .122-.389c.032-.057.065-.105.089-.139l.029-.037.006-.008a.23.23 0 0 0 .049-.207c-.118-.44-.313-.771-.553-.998a1.2 1.2 0 0 0-.812-.342c-.29 0-.57.125-.767.35-.2.225-.315.543-.314.918a.227.227 0 0 0 .226.241.226.226 0 0 0 .227-.24" fill="#A13D3A"/><path d="M74.71 49.581v-.019c0-.058.009-.242.076-.408.072-.168.173-.303.395-.362a.228.228 0 0 0-.112-.439 1.02 1.02 0 0 0-.703.631q-.107.28-.11.578l.002.042a.227.227 0 0 0 .452-.024" fill="#A13D3A"/><path d="m80.588 50.151 2.024.418a.638.638 0 0 1 .414.954c-.577.95-1.64 2.4-2.629 2.153-1.056-.264-.782-2.084-.557-3.05a.634.634 0 0 1 .748-.475" fill="#151E30"/><path d="m68.442 56.05.01.004c.148.06 1.499.658 2.118 2.262a.225.225 0 0 0 .206.145.226.226 0 0 0 .216-.309 4.6 4.6 0 0 0-1.464-1.971c-.502-.393-.912-.548-.927-.555a.227.227 0 0 0-.306.22.23.23 0 0 0 .147.204" fill="#A13D3A"/><path d="M80.623 53.705a1 1 0 0 1-.225-.029l-.01-.002-.008-.003-.01-.002-.008-.002-.008-.002-.01-.003-.016-.006-.017-.005-.017-.007c-.67-.255-.723-1.216-.62-2.084.464.067 1.445.37 1.969 1.688-.328.273-.676.457-1.02.457" fill="#882D42"/><path d="m40.28 64.215 2.028.408c.746.151 1.257.805 1.192 1.525l-.481 5.24c-.069.74-.722 1.31-1.505 1.31h-1.993c-1.224 0-2.193-.983-2.11-2.142l.317-4.513c.086-1.218 1.29-2.081 2.551-1.828" fill="#F46A64"/><path d="m39.032 66.13 3.643.8a.226.226 0 1 0 .098-.443l-3.645-.8a.227.227 0 0 0-.096.442m-.176 2.37 3.686.317a.227.227 0 0 0 .039-.45l-3.686-.318a.227.227 0 0 0-.04.451m-.174 2.368 3.727-.165a.226.226 0 0 0 .07-.442.2.2 0 0 0-.09-.01l-3.727.165a.227.227 0 0 0 .02.452" fill="#A13D3A"/><path d="M138.513 50.372c-3.765-2.929-12.349 2.068-7.639 9.804 0 0-2.101-.446-2.843 1.507.615-.658 2.185-.686 2.185-.686-2.185 1.704-2.376 6.012.425 7.668-1.231.233-2.334-.785-2.334-.785.53 2.589 3.585 3.65 5.728 2.779-.615.743-2.652.897-2.652.897s2.685 2.564 5.071 1.396c2.186 1.633 5.696.573 5.696.573z" fill="#613232"/><path d="m144.617 60.894 3.696 4.947-2.187 6.877-6.117-1.592 1.246-1.687-1.883-5.825z" fill="#FA9999"/><path d="m144.616 60.894-5.245 2.72.923 2.855q.211.013.427.004a4.4 4.4 0 0 0 4.228-4.079l.071-.96zm-6.105-10.522c-.97-.755-2.259-.98-3.559-.77-1.417 1.15-2.241 3.209-1.317 6.372-.382 3.565 1.348 3.785 1.348 3.785l4.945-.375z" fill="#151E30"/><path d="M136.779 57.954c-.057-.016-.377-.27-.745-.575a1.285 1.285 0 0 0-1.832 1.78l1.076 1.39c.272.349.718.514 1.152.423zm8.096 0c.057-.016.377-.27.745-.575a1.285 1.285 0 0 1 2.094.905c.023.314-.07.626-.262.876l-1.075 1.388a1.16 1.16 0 0 1-1.152.424z" fill="#FA9999"/><path d="M136.487 60.84s-1.73-.218-1.348-3.784c-1.496-5.125 1.592-7.354 4.36-7.512-.509-1.051-2.991-1.497-2.991-1.497s3.118-1.686 4.424 1.497l.413-1.943s.986.479.318 2.07c3.119-.032 5.461 1.818 5.334 5.192s-1.719 5.311-1.719 5.311z" fill="#613232"/><path d="M135.265 107.097c-1.429.217-2.885-9.21-2.885-9.21l5.006-.679s1.232 9.38-2.121 9.889" fill="#151E30"/><path d="m135.332 94.969-2.003-.501a1.61 1.61 0 0 1-1.18-1.124c-.202-.735-.711-1.734-1.997-2.142l-2.296-1.737a.813.813 0 0 0-1.299.712.8.8 0 0 0 .271.542l1.478 1.31-4.114-.017a1.047 1.047 0 0 0-.056 2.094l.075.004s.297 1.74 1.825 1.76c.127.977.658 1.316 1.358 1.337.164 1.099.933 1.444 1.591 1.402.797.462 1.639.58 2.572.276.815-.264 1.707-.142 2.446.293l3.204 1.885z" fill="#FA9999"/><path d="M170.545 57.31s-8.838.625-13.961 1.02c-5.788.446-9.29 4.201-9.29 4.201l-1.59 9.296-5.855-1.783-1.846 3.183s-5.411 2.865-3.756 10.186l3.756 12.225-4.07-1.02c1.733.435 3.561 12.479 1.333 12.479 3.373.127 3.755.7 5.601-.382 1.909.509 3.819.754 5.347-.833 2.609 1.088 4.901-.377 5.473-1.968.573-1.592-.763-8.467-.763-8.467l3.82-1.242s3.136 1.093 4.389-1.288z" fill="#FFB778"/><path d="M161.677 57.95c-2.219 5.032-3.308 12.132-.377 18.103a32 32 0 0 0 2.074 3.632l7.172-22.374s-4.453.314-8.869.638m-22.804 22.606c0 .004-.012.285-.012.739 0 .785.035 2.086.227 3.358.096.638.232 1.268.428 1.83.197.56.451 1.055.816 1.417.813.8 1.891 1.224 2.899 1.46a11.5 11.5 0 0 0 2.533.276c.344 0 .553-.015.561-.015a.343.343 0 0 0 .313-.364.34.34 0 0 0-.365-.314l-.031.002a10.8 10.8 0 0 1-2.857-.247c-.936-.216-1.898-.612-2.576-1.281-.252-.246-.477-.655-.652-1.159-.265-.755-.423-1.713-.51-2.62a26 26 0 0 1-.101-2.865l.005-.19a.339.339 0 0 0-.678-.027" fill="#FFE2A4"/><path d="m144.553 87.45.023.03c.12.145.682.84 1.292 1.763.611.921 1.272 2.076 1.592 3.11a.337.337 0 0 0 .624.057.34.34 0 0 0 .024-.258c-.38-1.22-1.138-2.49-1.799-3.471a23 23 0 0 0-1.235-1.665.34.34 0 0 0-.463-.026.34.34 0 0 0-.058.46" fill="#FFE2A4"/><path d="M147.699 89.673c.043.168.064.38.064.62.001.632-.145 1.447-.298 2.215-.15.774-.308 1.492-.311 2.028.003.211.018.401.123.591.205.358.497.599.806.736.309.138.629.181.921.181.65 0 1.174-.21 1.196-.218a.34.34 0 1 0-.249-.632h-.001a3 3 0 0 1-.946.172c-.224 0-.45-.035-.643-.122a1.07 1.07 0 0 1-.495-.455.7.7 0 0 1-.033-.253c-.002-.403.145-1.125.299-1.896.152-.778.309-1.617.31-2.346a3.3 3.3 0 0 0-.085-.788.338.338 0 0 0-.532-.188.34.34 0 0 0-.126.355m-2.697-12.683.041-.027c.434-.28 4.225-2.653 9.817-3.914a.33.33 0 0 0 .212-.15.3.3 0 0 0 .048-.123.35.35 0 0 0-.153-.345.34.34 0 0 0-.256-.044c-6.086 1.372-10.063 4.024-10.086 4.038a.35.35 0 0 0-.156.217.34.34 0 0 0 .533.348m7.555 4.29.006-.019c.081-.205.86-2.093 2.453-4.048 1.596-1.957 3.992-3.966 7.32-4.487a.34.34 0 0 0-.105-.672c-3.666.577-6.245 2.836-7.899 4.927-1.656 2.094-2.401 4.034-2.409 4.054a.35.35 0 0 0 .017.25.343.343 0 0 0 .436.169.34.34 0 0 0 .181-.175m4.37-18.582c0 .008-.007.107-.007.28 0 .587.076 2.038.745 3.738.667 1.699 1.934 3.647 4.292 5.19a.34.34 0 0 0 .456-.107.34.34 0 0 0-.084-.46c-2.23-1.463-3.405-3.279-4.032-4.872s-.699-2.961-.699-3.49q0-.117.003-.176l.003-.043v-.011a.339.339 0 0 0-.555-.267.33.33 0 0 0-.122.218" fill="#FFE2A4"/><path d="m145.365 72.704-.382 9.232a.35.35 0 0 0 .211.328.4.4 0 0 0 .135.025l.171-.002.489-.003c1.062 0 3.286.033 5.743.264 2.455.229 5.148.661 7.122 1.437a.34.34 0 0 0 .248-.632c-2.085-.817-4.818-1.247-7.307-1.482a65 65 0 0 0-5.806-.267c-.428 0-.673.006-.674.006l.007.34.339.013.382-9.23a.339.339 0 0 0-.678-.028m-9.782 8.09c.007.01.44.498 1.098 1.036.66.538 1.54 1.134 2.495 1.335a.34.34 0 0 0 .349-.142.34.34 0 0 0 .003-.377.34.34 0 0 0-.216-.146c-.763-.155-1.588-.69-2.201-1.195q-.502-.412-.951-.885l-.053-.057-.016-.018a.34.34 0 0 0-.237-.132.34.34 0 0 0-.342.195.35.35 0 0 0-.007.271.3.3 0 0 0 .078.116m3.061 9.281 4.174-.864a.34.34 0 0 0 .264-.401.34.34 0 0 0-.402-.264l-4.173.865a.338.338 0 1 0 .137.664" fill="#FFE2A4"/><path d="M177.616 140.627c.194 1.483-8.232 5.434-8.232 5.434v-5.178s7.892-2.844 8.232-.256" fill="#151E30"/><path d="m160.918 142.431-1.892 10.408a8.36 8.36 0 0 1-2.755 4.824l-1.188 1.026a13.05 13.05 0 0 1-7.272 3.116 3 3 0 0 0-.87.218l-1.866.779a.847.847 0 0 0-.465 1.098 2.09 2.09 0 0 0 1.944 1.324h5.934a8.6 8.6 0 0 0 3.011-.547l.303-.115a3.34 3.34 0 0 1 2.821.224 3.3 3.3 0 0 0 1.649.438h2.094a3.13 3.13 0 0 0 2.437-1.171 3.13 3.13 0 0 0 .61-2.635l-.31-1.386a9.83 9.83 0 0 1 .738-6.423l6.28-13.024z" fill="#FA9999"/><path d="M160.185 146.46c1.992.862 6.221.581 9.616-1.064l2.319-4.811-11.202 1.846z" fill="#A13D3A"/><path d="M181.605 21.277c.701-1.808 11.712 6.556 12.094 8.913.382 2.355-3.755 2.865-3.755 2.865l-5.856-3.82s-3.693-4.838-2.483-7.958" fill="#151E30"/><path d="m182.411 24.587 4.371-8.7.86-2.796a24.3 24.3 0 0 1 4.192-7.965l3.011-3.798.093-.362a.738.738 0 0 1 1.184-.387c.6.494.801 1.325.493 2.04l-.479 1.106a2.4 2.4 0 0 0-.124 1.427c.122.59.1 1.628-.735 3.17-.77 1.423-.939 3.095-.419 4.625l.274.806a3.23 3.23 0 0 1-.185 2.507 3.2 3.2 0 0 1-1.929 1.611l-.611.186a3.74 3.74 0 0 0-2.633 3.164l-1.041 9.223z" fill="#FA9999"/><path d="m204.17 56.42 5.768.37a.516.516 0 0 1-.033 1.03h-1.28l-.297.61c-.19.39-.577.645-1.009.665l-3.464.17 2.092.514a.425.425 0 0 1 .256.641l-.315.488-5.315-.924s1.082-3.055 3.597-3.565" fill="#A13D3A"/><path d="M192.213 68.558c1.327 0 2.164-5.602 2.249-7.937l-4.583 1.146s-.509 6.791 2.334 6.791" fill="#151E30"/><path d="M194.758 56.674h2.716l4.54-.848 8.517-1.12a.546.546 0 0 1 .201 1.07l-5.916 1.45-2.524 1.43a.51.51 0 0 0-.257.493.51.51 0 0 0 .347.435l.948.316 2.286.426a.777.777 0 0 1-.242 1.534l-2.68-.347s-3.947.552-5.983-.637l-5.983 1.104s1.696-4.881 4.03-5.306" fill="#FA9999"/><path d="m184.999 56.844 9.76-.17c-1.911.033-3.267 8.319-2.546 11.884 0 0-1.788.119-3.014 0-2.206-.212-5.685.912-5.685.912z" fill="#FFB778"/><path d="m184.999 56.844-1.453 12.358.31.165a26 26 0 0 1 2.148-.532c.231-.875.404-2.158.197-3.84 2.16-2.28 2.732-6.149 2.883-8.222z" fill="#FFE2A4"/><path d="M165.691 60.812c1.388 1.609 1.401 7.259 1.401 7.259l-3.183 9.23S161.49 72.528 162 67.69c.509-4.839 2.416-8.355 3.691-6.877m-7.267 41.064c.595 2.04 4.425-1.973 4.425-1.973l-1.613-3.693s-3.778 2.356-2.812 5.666" fill="#151E30"/><path d="m164.419 73.61 5.292-23.499a32.9 32.9 0 0 1 3.489-9.019l1.276-2.244s.636-3.183 2.419-3.693c.718-2.553 2.386-5.906 3.531-8.055.601-1.125.808-2.403.687-3.673a3.46 3.46 0 0 1 .492-2.15c-.478 1.346 2.514 3.278 5.315 5.57s7.247 5.338 6.779 3.343c.339.89-.594 2.25-2.122 3.098 0 3.905-2.037 9.72-3.946 12.436 1.613 3.395-1.231 6.748-1.231 6.748s.976 7.173-1.231 12.437c1.104 4.201-.424 12.987-3.012 16.976 2.97 8.447-2.164 34.21-4.753 40.45 1.698 6.79-.552 13.242-1.103 14.176-.552.933-.509 2.631.169 3.013.679.382 1.104.595 1.147 1.103-.382-1.612-2.295-.131-10.483 3.905-3.78 1.865-7.595 2.208-9.59 0-.745-.824.17-1.316.807-1.188l3.65-15.535s-.764-3.31 1.018-8.149c.085-7.215-.255-17.741-.255-17.741s-2.461-3.396-2.631-6.366 1.357-15.28 1.357-15.28z" fill="#FFB778"/><path d="M172.311 90.823c-6.011-1.08-8.401-5.89-8.401-5.89s3.853-2.132 8.117-3.231c-3.556-2.67-5.973-8.724-6.557-12.763l-1.051 4.67-2.928 6.664s-1.528 12.309-1.358 15.28c.123 2.15 1.442 4.515 2.164 5.662 2.06-2.57 6.367-7.695 10.014-10.392m12.192-40.802-.062-.04a19 19 0 0 1-3.129-2.65c-.681-.724-1.337-1.561-1.819-2.463-.481-.902-.787-1.866-.787-2.852q0-.171.012-.342a.34.34 0 0 0-.089-.235.337.337 0 0 0-.466-.034.34.34 0 0 0-.122.22q-.014.195-.013.392c0 1.202.395 2.34.973 3.363.869 1.537 2.15 2.832 3.214 3.75q.913.797 1.924 1.464a.34.34 0 0 0 .364-.573m-.262 2.696-.104.023c-.486.11-2.625.56-4.987.56-1.349 0-2.77-.147-3.989-.575-.428-.15-.72-.29-.879-.402a.6.6 0 0 1-.142-.123l-.008-.01-.076.03h.08l-.004-.03-.076.03h.08-.11l.104.038.006-.038h-.11l.104.038-.045-.016.039.029.006-.013-.045-.016.039.029c0-.006.071-.069.204-.122.2-.085.52-.163.901-.215a10 10 0 0 1 1.294-.082c1.071-.002 2.257.158 3.03.487a.34.34 0 0 0 .264-.625c-.918-.386-2.156-.539-3.294-.541-.75 0-1.45.069-1.99.2-.27.067-.5.147-.692.263a1 1 0 0 0-.257.222.6.6 0 0 0-.126.362c.004.14.052.276.138.387.12.158.284.278.502.4.218.12.493.237.839.358 1.327.464 2.815.613 4.213.614 2.795 0 5.237-.6 5.252-.604a.34.34 0 0 0 .249-.41.34.34 0 0 0-.41-.248" fill="#FFE2A4"/><path d="M162.613 83.078c.041.04 1.871 1.767 5.708 1.766q.599 0 1.264-.06a.34.34 0 0 0 .307-.37.34.34 0 0 0-.37-.306q-.634.059-1.201.058c-1.816-.001-3.132-.406-3.993-.805a6 6 0 0 1-.953-.544 4 4 0 0 1-.227-.173l-.052-.045-.011-.01-.002-.001-.091.097.093-.097h-.002l-.091.097.093-.097a.343.343 0 0 0-.468.022.34.34 0 0 0-.004.468m10.098.895c.036.018 1.144.564 3.119.564.987 0 2.189-.137 3.578-.542a.34.34 0 0 0 .213-.416.343.343 0 0 0-.404-.236c-1.327.387-2.463.515-3.387.515a8.4 8.4 0 0 1-2.114-.254 5 5 0 0 1-.666-.223l-.031-.013-.005-.003a.34.34 0 0 0-.445.157.34.34 0 0 0-.02.254.34.34 0 0 0 .162.197m2.775 35.18c-.414.039-.819.201-1.23.438-.717.417-1.458 1.071-2.238 1.819-1.166 1.124-2.414 2.467-3.681 3.539-1.266 1.075-2.551 1.858-3.728 1.928a.338.338 0 0 0-.202.593.33.33 0 0 0 .246.084c1.097-.072 2.154-.608 3.175-1.341 1.53-1.106 2.994-2.68 4.331-3.991.667-.656 1.301-1.245 1.88-1.673.578-.43 1.102-.686 1.509-.721a.4.4 0 0 0 .127-.037.35.35 0 0 0 .166-.2.34.34 0 0 0-.224-.425q-.064-.02-.131-.013m-2.776 7.96-.035.106c-.178.53-1.044 2.968-2.56 5.279-.756 1.155-1.676 2.278-2.739 3.116-1.065.839-2.263 1.392-3.608 1.449a.338.338 0 1 0 .028.678c1.622-.067 3.035-.778 4.227-1.779 1.79-1.501 3.111-3.658 3.998-5.439.885-1.783 1.332-3.194 1.336-3.205a.35.35 0 0 0-.023-.259.3.3 0 0 0-.083-.103.34.34 0 0 0-.374-.042.35.35 0 0 0-.167.199m-8.465-26.142.016-.102c.087-.517.537-2.927 1.772-5.636 1.235-2.712 3.251-5.71 6.44-7.447a.34.34 0 0 0 .175-.334.4.4 0 0 0-.039-.126.343.343 0 0 0-.461-.135c-3.599 1.965-5.734 5.394-6.976 8.313-1.242 2.922-1.596 5.35-1.598 5.369a.34.34 0 0 0 .671.098m2.26-.683.007-.014c.079-.156.838-1.615 2.257-3.18 1.42-1.568 3.494-3.232 6.197-3.845a.34.34 0 0 0 .238-.403.34.34 0 0 0-.389-.26c-2.985.68-5.21 2.536-6.689 4.209-1.48 1.674-2.22 3.174-2.23 3.192a.342.342 0 0 0 .413.457.34.34 0 0 0 .196-.156m-.198-30.808c.019.646.202 1.483.53 2.45.986 2.894 3.282 6.928 6.603 9.495a.35.35 0 0 0 .251.069.34.34 0 0 0 .225-.13.3.3 0 0 0 .059-.119.3.3 0 0 0 .009-.132.33.33 0 0 0-.13-.225c-2.112-1.629-3.825-3.928-5.008-6.105a20 20 0 0 1-1.367-3.071c-.314-.923-.481-1.718-.494-2.25a.338.338 0 0 0-.577-.209.33.33 0 0 0-.101.227" fill="#FFE2A4"/><path d="M161.681 74.628c-4.837 3.82-7.131 13.751-2.814 19.99l2.496-3.501z" fill="#151E30"/><path d="M157.672 88.89c-1.847 2.355-2.145 10.249.455 17.57 2.6 7.322 1.836 12.224 1.836 12.224l-5.856 3.629c3.31-6.813 1.527-14.069.637-17.826s-2.163-13.105 2.635-16.606z" fill="#151E30"/><path d="M157.378 87.881c-4.483.723-5.755 6.738-7.201 15.483-1.551 9.381-8.077 14.372-8.077 14.372s-1.087-3.418-4.893-4.195c6.135-2.796 9.087-6.083 10.485-11.665 1.399-5.58 3.401-15.136 9.686-15.136z" fill="#151E30"/><path d="m147.293 62.532-1.667-.475-.634 4.51a3.7 3.7 0 0 0 .469 2.388l.567.973zm-7.446 7.512V68.22l2.958.919a2.5 2.5 0 0 1 1.533 1.36l.474 1.058zm-1.844 25.593 6.875 1.53c.717.16 1.071-.865.397-1.157-.436-.19-1.059-.27-1.948-.118-2.609-2.483-5.898-2.12-5.898-2.12zm2.133 2.873.005.002c.144.043 3.117.964 6.396 4.487a.34.34 0 0 0 .466.003.34.34 0 0 0 .031-.465c-3.489-3.749-6.669-4.668-6.712-4.68a.34.34 0 0 0-.186.653" fill="#FFE2A4"/><path d="M124.891 94.106h2.965c.303 0 .581-.111.787-.297.205-.185.336-.45.336-.743s-.132-.558-.336-.743a1.17 1.17 0 0 0-.787-.296h-2.858a.226.226 0 0 0-.227.226.226.226 0 0 0 .227.226h2.858a.72.72 0 0 1 .482.18.56.56 0 0 1 .189.407.56.56 0 0 1-.189.408.72.72 0 0 1-.482.18h-2.965a.227.227 0 0 0-.226.225.23.23 0 0 0 .226.227" fill="#A13D3A"/><path d="m126.782 95.88 2.633-.552a1.118 1.118 0 0 0-.452-2.19l-.303.061a.227.227 0 1 0 .09.444l.303-.062a.664.664 0 0 1 .734.369.67.67 0 0 1-.085.704.67.67 0 0 1-.38.23l-2.633.553a.23.23 0 0 0-.144.097.22.22 0 0 0-.032.17.22.22 0 0 0 .18.177.2.2 0 0 0 .089-.001" fill="#A13D3A"/><path d="m128.241 97.134 1.679-.747a1.155 1.155 0 0 0 .568-1.56l-.208-.427a.23.23 0 0 0-.13-.114.225.225 0 0 0-.287.14.22.22 0 0 0 .011.174l.208.425a.7.7 0 0 1 .028.547.7.7 0 0 1-.373.402l-1.681.747a.226.226 0 1 0 .185.413" fill="#A13D3A"/><path d="m129.651 98.036.782-.512a1.05 1.05 0 0 0 .465-.723 1.06 1.06 0 0 0-.227-.829l-.249-.304a.227.227 0 0 0-.4.12c-.006.06.012.12.05.166l.249.304a.62.62 0 0 1 .038.708.6.6 0 0 1-.175.178l-.781.514a.22.22 0 0 0-.101.232.23.23 0 0 0 .095.146.23.23 0 0 0 .172.034.2.2 0 0 0 .082-.034" fill="#A13D3A"/><path d="m190.021 30.48.002.073a1.68 1.68 0 0 1-.856 1.471.34.34 0 0 0-.166.304q.005.12.005.252c.002 1.796-.624 4.518-1.431 6.942a31 31 0 0 1-1.277 3.277q-.28.615-.621 1.196c-.196.33-.38.583-.526.732a.34.34 0 0 0-.093.194c-.123.967-.383 1.934-.749 2.699-.364.77-.837 1.316-1.316 1.505a.34.34 0 0 0-.208.36c.041.303.069.663.069 1.04 0 .48-.045.987-.157 1.453s-.294.889-.55 1.205a.34.34 0 0 0-.056.327c.167.471.365 1.296.515 2.327s.258 2.27.258 3.594c0 1.832-.206 3.822-.777 5.635a.35.35 0 0 0 .003.211c.252.732.368 1.677.368 2.743 0 2.437-.603 5.498-1.394 8.181a35 35 0 0 1-1.271 3.624c-.432 1.032-.862 1.851-1.206 2.31a.35.35 0 0 0-.064.158.33.33 0 0 0 .021.17c.373.935.741 2.507 1.01 4.463s.443 4.307.443 6.828c0 3.73-.38 7.834-1.38 11.605-2.38 8.965-4.035 16.693-4.036 16.696a.3.3 0 0 0-.001.139l.017.089c.078.42.398 2.291.398 4.636 0 1.737-.175 3.735-.746 5.591-.733 2.387-.959 4.103-.96 5.301 0 .629.063 1.113.149 1.479.088.367.193.609.306.772a.34.34 0 0 0 .352.137.4.4 0 0 0 .121-.053.35.35 0 0 0 .139-.22.34.34 0 0 0-.056-.253c-.039-.053-.13-.235-.202-.539a6 6 0 0 1-.13-1.323c0-1.111.212-2.764.929-5.101.599-1.95.777-4.008.778-5.791-.001-2.749-.427-4.845-.429-4.861l-.333.069.332.07c0-.001.103-.481.295-1.344a409 409 0 0 1 3.732-15.319c1.02-3.848 1.403-8.004 1.403-11.78 0-2.552-.174-4.93-.448-6.92-.276-1.994-.645-3.595-1.053-4.622l-.315.126.272.203c.404-.543.841-1.39 1.289-2.453 1.332-3.183 2.712-8.252 2.716-12.068-.001-1.114-.117-2.124-.404-2.962l-.321.11.324.101c.598-1.903.808-3.954.808-5.838 0-1.358-.11-2.63-.266-3.693-.155-1.064-.355-1.914-.547-2.455l-.319.114.264.213c.342-.424.553-.94.681-1.473.121-.529.18-1.07.177-1.612 0-.41-.03-.798-.075-1.13l-.336.044.127.314c.729-.301 1.265-.994 1.672-1.84.406-.852.678-1.877.81-2.905l-.337-.044.244.238c.206-.214.409-.503.622-.86.74-1.243 1.585-3.335 2.259-5.543.669-2.21 1.164-4.52 1.165-6.219q0-.14-.005-.275l-.339.011.174.293a2.37 2.37 0 0 0 1.189-2.056c0-.082-.005-.133-.006-.144a.34.34 0 0 0-.372-.285.34.34 0 0 0-.304.357" fill="#B2BEE0"/><path d="M161.363 77.747s-3.692 4.902-2.801 14.007c-.891 4.138-.138 10.122-.138 10.122-1.325-2.8 8.604-6.939 9.941-11.204-2.546.063-6.111-5.92-6.111-5.92s3.055-3.822 6.111-4.012c0 0-4.255-4.648-5.12-10.441-.864-5.794 1.087-10.595 2.446-9.487-1.4-1.91-5.283 3.439-4.328 16.935" fill="#FFB778"/><path d="M162.254 84.75c-.857-1.407-.969-4.62-.952-6.15.286 2.928 1.944 5.333 1.944 5.333z" fill="#B2BEE0"/><path d="m136.074 57.677.412 3.164a4.406 4.406 0 0 0 7.411 2.617 4.4 4.4 0 0 0 1.349-2.862l.244-3.314a2.02 2.02 0 0 0-1.332-2.062c-.584-.205-1.208-.541-1.594-1.092-.382 1.23-1.835 1.655-1.835 1.655s.944-1.4.859-2.376c-1.358 2.164-3.013 3.183-3.989 3.14 1.359-.637 1.613-2.334 1.613-2.334s-.964.883-2 1.366a2.02 2.02 0 0 0-1.138 2.098" fill="#FA9999"/><path d="M144.096 60.894a1.03 1.03 0 0 1-.637.952 1.03 1.03 0 0 1-1.123-1.681 1.031 1.031 0 0 1 1.76.729m-4.404-.381a1.03 1.03 0 1 1-2.06.001 1.03 1.03 0 0 1 2.06-.001" fill="#F03F4F"/><path d="M139.401 58.284a.7.7 0 0 1-.153.525.697.697 0 0 1-1.004.084.7.7 0 0 1-.064-.988.697.697 0 0 1 .969-.08.7.7 0 0 1 .252.459m4.169 0a.7.7 0 0 1-.164.51.7.7 0 1 1 .164-.51" fill="#151E30"/><path d="M140.746 57.558v.484c0 .411.141.81.398 1.13l.098.122a.3.3 0 0 1 .066.187.3.3 0 0 1-.118.24l-.185.14a.23.23 0 0 0-.031.307.227.227 0 0 0 .305.053l.184-.14a.74.74 0 0 0 .293-.507.76.76 0 0 0-.161-.563l-.097-.124a1.33 1.33 0 0 1-.299-.846v-.484a.227.227 0 0 0-.453.001" fill="#A13D3A"/><path d="m139.638 60.519 2.236.419a.34.34 0 0 1 .263.426c-.174.613-.623 1.793-1.504 1.762-.866-.032-1.246-1.448-1.39-2.214a.34.34 0 0 1 .009-.162.35.35 0 0 1 .224-.223.34.34 0 0 1 .162-.008" fill="#151E30"/><path d="m137.841 57.334-.106-.205.102.21zm0 0-.106-.206.102.21s.064-.033.179-.066q.232-.06.472-.061c.273 0 .607.058.983.269a.452.452 0 0 0 .443-.789 2.9 2.9 0 0 0-1.426-.386c-.618.001-1.019.203-1.06.224a.456.456 0 0 0-.175.598.454.454 0 0 0 .588.207m4.242.034 2.123-.372a.453.453 0 0 0-.157-.891l-2.122.371a.45.45 0 0 0-.379.347.44.44 0 0 0 .061.349.45.45 0 0 0 .294.198.5.5 0 0 0 .18-.002" fill="#613232"/><path d="M226.595 34.498c-3.141-.086-3.989-2.547-2.25-4.711-1.357-3.098.425-5.815 3.82-4.966 1.824-3.141 7.893-5.475 8.401-1.443 4.541-3.863 9.167 1.952 5.475 4.71 4.074 2.122-.34 4.84-.34 4.84s2.775 2.934-2.121 4.33c.403 2.157-2.334 2.375-2.334 2.375z" fill="#151E30"/><path d="M274.669 96.53s1.575 2.766 2.212 14.02l6.814 7.359a30.4 30.4 0 0 1 5.407 8.163l9.548 21.198-3.819 4.605-21.017-26.558a15.3 15.3 0 0 0-3.974-3.535c-1.883-1.161-4.622-3.479-5.817-7.571-1.91-6.541-5.274-15.505-5.274-15.505z" fill="#F46A64"/><path d="m286.201 140.97 8.63 10.905 3.819-4.605-6.589-14.629z" fill="#95DBC8"/><path d="m289.653 127.293-.551-1.221a30.4 30.4 0 0 0-5.407-8.163l-6.814-7.359c-.637-11.254-2.212-14.02-2.212-14.02l-15.92 2.175s3.364 8.965 5.274 15.506c1.195 4.092 3.934 6.41 5.817 7.571a15.3 15.3 0 0 1 3.355 2.819c2.61-1.557 10.307-1.212 16.458 2.692" fill="#A13D3A"/><path d="M273.571 74.819s1.575 3.76 1.21 8.445a5 5 0 0 0 .214 1.872c.45 1.422.606 3.307.658 4.64a6 6 0 0 0 1.009 3.12l1.158 1.72c.776 1.153.423 2.738-.791 3.412-5.666 3.145-15.391 2.888-19.368 2.384l-3.377-9.486z" fill="#3451A3"/><path d="m277.821 94.617-1.159-1.72-.069-.11c-1.392 3.068-7.842 7.22-19.955 4.748l1.023 2.877c3.977.504 13.703.761 19.368-2.384 1.214-.674 1.566-2.26.792-3.411" fill="#53AA36"/><path d="m301.052 72.93.308-.083-4.329-4.295a11.4 11.4 0 0 0-4.717-1.016 11.42 11.42 0 0 0-7.785 3.053l.55.466a5.6 5.6 0 0 0 2.96 1.288l3.729.44c.361.042.709.153 1.028.326l.652.353c.381.206.819.282 1.246.215l.613-.097-1.655-2.23 3.724-.19 2.065 1.478a1.91 1.91 0 0 0 1.611.292" fill="#151E30"/><path d="M290.668 67.657q-.308.043-.612.104l-.074.016q-.243.05-.483.11l-.061.016c2.244.354 4.287 1.562 5.922 3.36l.641-.032c-1.478-1.73-3.305-2.987-5.333-3.575" fill="#EB4D33"/><path d="m241.109 79 .336.13a1.515 1.515 0 0 1 .928 1.754l-.716 3.1a.86.86 0 0 1-.903.657.843.843 0 0 1-.752-1.04z" fill="#A13D3A"/><path d="M233.151 45.087c.637-.501 1.209-.414 1.877 0l9.262-3.184s-.541-4.265.573-4.838 2.164 1.56 3.564 2.61c1.401 1.051 13.058 7.987 14.195 9.487s.541 3.63.541 3.63l4.869 11.808s11.654-2.43 11.84.923c.063 1.147-2.292 2.706-3.947 3.63-1.654.922-5.028 2.992-5.028 2.992l-21.738-2.928-16.517-20.788s.052-2.025.509-3.343" fill="#151E30"/><path d="m262.913 48.273 12.528 3.316 10.367 14.005c.295.398.468.87.503 1.365l.133 1.957a2.89 2.89 0 0 0 1.978 2.553c.846.28 2 .542 3.5.64a3.03 3.03 0 0 1 1.611.584l1.281.95a.7.7 0 0 0 .901-1.062l-1.945-1.88-1.443-.636 4.428.154c.294.01.578.11.814.286l3.338 2.488a.778.778 0 0 0 1.239-.576.78.78 0 0 0-.16-.52l-.79-1.025-2.551-2.737a2 2 0 0 0-.911-.553l-6.468-1.804-6.742-18.93a8.95 8.95 0 0 0-6.298-5.691l-7.584-1.863s-7.098 5.223-7.729 8.979" fill="#F46A64"/><path d="m236.652 37.257 3.713 2.405c.497.323 1.13.345 1.649.06l9.313-5.11a7.81 7.81 0 0 1 8.198.425l1.493 1.036a8.3 8.3 0 0 0 2.497 1.17q3.572.994 7.127 2.05s-5.219 5.604-5.091 9.678l-4.329-1.146 1.528 7.64-20.115 15.916-9.802-7.895-3.438 9.168h-10.311c.51-3.31 2.277-10.441 2.277-10.441l.381-4.097a9.4 9.4 0 0 1 5.758-7.818l.539-.223a9.5 9.5 0 0 0 3.071-2.054l3.25-3.252-3.818-3.183z" fill="#3451A3"/><path d="m234.361 44.769-2.498 2.497c.704-.164 2.447-.252 3.708-.294a.532.532 0 0 0 .32-.948z" fill="#151E30"/><path d="M237.258 42.668c1.685-1.308 2.195-3.597 1.558-4.01l-2.164-1.401-6.11 4.328 2.429 2.026c1.152.773 2.8.21 4.287-.943" fill="#F46A64"/><path d="M235.59 38.742s-.59 3.26-3.328 4.278l-1.12-.933z" fill="#151E30"/><path d="M298.645 68.136a1.97 1.97 0 0 0-.91-.554l-4.498-1.254 3.079 1.53 4.879 3.014z" fill="#A13D3A"/><path d="M225.916 33.036v3.117c-1.061 3.354.361 6.506 4.922 6.248 2.419-.137 3.904-2.004 4.753-3.658 0 0 1.867.127 3.117-2.043.824-1.433-.613-4.112-2.905-1.65 0 0-1.158-.595-.99-2.454a1.026 1.026 0 0 0-.895-1.11c-1.176-.161-2.274-1.02-2.274-1.02s-1.57 1.867-3.268.424c-.188.49-.692.67-1.196.72-.723.07-1.264.699-1.264 1.426" fill="#F46A64"/><path d="M233.368 37.024a1.306 1.306 0 0 1-1.303 1.301 1.302 1.302 0 1 1 1.303-1.3" fill="#F03F4F"/><path d="M233.151 45.087c-.487 1.38 3.205 6.43 6.365 4.266 2.08-1.423 2.965-5.112 2.819-9.403a2.33 2.33 0 0 1 1.18-2.128l1.349-.757c-.852.48.127 4.775 4.264 9.614 4.138 4.838 12.158 5.825 13.494 4.52.994-.969 0-2.037 0-2.037s1.847 1.486 1.591 3.99c1.338 1.55 1.084 2.695 1.084 2.695s3.437 1.083 3.628 4.393c3.373-.063 4.073 2.547 4.073 2.547 5.283-.129 6.684 1.336 6.874 2.736 0-1.337-2.294-1.228-7.001.892-8.572 3.862-15.658 2.229-23.806 14.134 0 0-2.164.382-2.037-3.12-2.355-1.846-2.164-3.756-2.164-3.756l-5.317-3.561a10.16 10.16 0 0 1-3.248-3.544c-1.805-3.28-4.72-9.873-5.155-18.84a1.39 1.39 0 0 1 .52-1.147c.48-.385 1.153-.973 1.487-1.494" fill="#53AA36"/><path d="M248.929 78.393c.647-1.478 1.968-2.792 3.557-4.122 1.587-1.332 3.431-2.679 5.088-4.269 1.938-1.86 3.702-3.883 5.367-5.478.832-.799 1.639-1.49 2.421-1.999.783-.509 1.538-.836 2.269-.93a.342.342 0 0 0 .251-.506.34.34 0 0 0-.338-.168c-.87.112-1.714.49-2.552 1.036-2.505 1.638-5.018 4.806-7.888 7.555-1.614 1.55-3.443 2.887-5.055 4.239-1.609 1.351-3.012 2.717-3.741 4.369a.339.339 0 0 0 .432.438.34.34 0 0 0 .189-.165m13.304-21.064c-1.74 1.481-3.016 2.952-4.018 4.802-1.003 1.85-1.731 4.067-2.414 7.052a.337.337 0 0 0 .26.384.34.34 0 0 0 .401-.232c.676-2.957 1.391-5.112 2.349-6.881.961-1.767 2.165-3.162 3.862-4.608a.34.34 0 0 0-.44-.517" fill="#151E30"/><path d="m229.395 72.654-2.402 6.41 4.374 1.633a1.88 1.88 0 0 0 2.201-.68 34 34 0 0 1 1.792-2.33 2.65 2.65 0 0 1 2.963-.785l2.93 1.092c.469.175.756.659.663 1.15-.074.388-.239.836-.596 1.193.254.806-.467 1.782-.467 1.782s.085 1.189-.509 1.91c.212 1.061-.509 1.74-.807 1.953-.297.212-1.654.339-2.757-.298-.777.74-2.517.69-3.571.263a1.88 1.88 0 0 0-1.32-.017c-1.771.618-6.417 1.994-12.222 1.826-1.837-.054-3.375-1.415-3.69-3.226a3.9 3.9 0 0 1 .116-1.817c.673-2.171 2.354-6.408 2.991-10.059z" fill="#F46A64"/><path d="M224.856 82.968c.933-2.407 2.921-3.685 4.072-3.183l-1.934-.72 1.045-2.789c-3.191.422-7.484.258-9.86.113-.738 2.502-1.635 4.874-2.085 6.325a3.9 3.9 0 0 0-.116 1.816c.315 1.81 1.853 3.172 3.69 3.226 2.149.06 4.298-.079 6.421-.412-2.121.278-2.075-2.207-1.233-4.376" fill="#95DBC8"/><path d="M226.993 79.063c-1.094-.443-4.611-.028-6.518 2.41a.79.79 0 0 1-1.004.209.78.78 0 0 1-.403-.594.79.79 0 0 1 .564-.857l7.772-2.262z" fill="#B2BEE0"/><path d="M235.361 77.687q-.948 1.126-1.793 2.33a1.86 1.86 0 0 1-1.273.78c-.045.634-.008 1.222.108 1.725.197.853 1.414.813 1.532-.054.251-1.826 1.058-4.27 1.532-4.888z" fill="#A13D3A"/><path d="M272.492 92.295c.378 2.26-8.384 5.783-15.852 3.49l3.055-5.092s12.099-2.575 12.797 1.602" fill="#151E30"/><path d="m260.844 91.035-4.776 6.258c12.157 2.419 17.886 14.579 25.333 17.954l-1.146 7.512-36.479-17.658a7.52 7.52 0 0 1-4.162-7.842l.01-.068c.234-1.615.78-3.169 1.609-4.574l1.597-2.712s9.042-7.548 18.014 1.13" fill="#F46A64"/><path d="M260.734 98.8a21.6 21.6 0 0 0-4.666-1.507l4.776-6.258c-8.972-8.678-18.014-1.13-18.014-1.13l-1.597 2.712a12.6 12.6 0 0 0-1.609 4.575l-.01.067a7.52 7.52 0 0 0 4.162 7.842l11.255 5.449c-2.72-4.281 1.347-11.456 5.703-11.75" fill="#95DBC8"/><path d="m257.497 95.419 3.347-4.384c-8.973-8.678-18.015-1.13-18.015-1.13 5.757-2.042 10.124 4.425 14.668 5.514" fill="#B2BEE0"/><path d="m271.959 66.807.924 1.318a10.23 10.23 0 0 1 1.455 8.738l-2.473 8.526a7.27 7.27 0 0 0 .062 4.322c.275.834.53 1.794.566 2.584-.906-1.318-3.708-.824-6.263.495s-5.767 2.472-9.64.494c-3.872-1.978-7.58-6.428-13.761-3.379 0 0 11.701-24.147 29.13-23.098" fill="#3451A3"/><path d="M236.299 66.568a10.2 10.2 0 0 0 2.07 2.616c-5.209-8.358-6.683-19.029-6.705-22.603a1.4 1.4 0 0 0-.52 1.147c.435 8.966 3.35 15.56 5.155 18.84m27.019-15.134c.196-.212.353-.457.464-.724a4.9 4.9 0 0 0-1.16-1.549s.993 1.069 0 2.038c-1.336 1.305-9.356.319-13.494-4.52-4.138-4.84-5.117-9.135-4.264-9.614l-.573.321c-.934 3.011 1.653 7.642 5.729 11.415 4.04 3.742 11.447 4.628 13.298 2.633" fill="#FEF4D9"/><path d="M281.399 115.246c-3.805-1.724-7.163-5.742-11.159-9.582-1.193.974-3.365 3.563-4.611 10.016l14.624 7.079z" fill="#95DBC8"/><path d="m279.618 118.939.639-3.977a.88.88 0 0 1 .864-.749.9.9 0 0 1 .401.088l1.489.719a3.5 3.5 0 0 0 2.012.309c1.651-.236 5-.524 7.581.491l-.66 10.86q-.042.663.036 1.322l.401 3.467a11.2 11.2 0 0 1-.307 4.214c-.504 1.868-1.385 4.505-2.717 6.43l-3.246-.509-.486-6.206a5.1 5.1 0 0 0-.634-2.092l-4.189-7.479a7.96 7.96 0 0 0-3.344-3.208l-2.868-1.452v-1.693a1.56 1.56 0 0 1 .637-1.256 1.56 1.56 0 0 1 1.39-.229zm11.139 29.561.791-.891a1.17 1.17 0 0 1 .977-.383 1.14 1.14 0 0 1 .885.564l1.421 2.408s1.127-3.322 2.638-5.007c.368-.413 1.05-.232 1.177.307l.216.922 5.644 2.378 2.631 2.844-10.076 11.943a4.6 4.6 0 0 1-3.524 1.639h-5.613a9.2 9.2 0 0 1-2.357-.306l-2.703-.713.297-2.546s1.995-1.316 6.493-2.251l1.77-4.455a5.86 5.86 0 0 0 .134-3.956z" fill="#FF861C"/><path d="M227.902 34.668a.65.65 0 0 1-.647.648.646.646 0 0 1-.649-.647.65.65 0 0 1 .648-.648.646.646 0 0 1 .648.647m3.699-.37a.64.64 0 0 1-.191.458.64.64 0 0 1-.458.19.648.648 0 1 1 .649-.649" fill="#151E30"/><path d="M228.469 33.818v1.04a.6.6 0 0 1-.191.444l-.538.508a.6.6 0 0 0-.188.429.6.6 0 0 0 .159.407.6.6 0 0 0 .429.188l1.147.012a.226.226 0 0 0 .229-.224.225.225 0 0 0-.224-.229l-1.147-.011a.13.13 0 0 1-.101-.043l-.039-.1.045-.1.538-.507c.213-.201.334-.482.335-.774v-1.04a.23.23 0 0 0-.067-.161.225.225 0 0 0-.32 0 .23.23 0 0 0-.067.161" fill="#A13D3A"/><path d="m228.332 37.713 2.531-.888a.635.635 0 0 1 .837.479c.205 1.091.414 3.09-.697 3.522-1.098.428-2.359-1.193-2.997-2.166a.65.65 0 0 1-.067-.553.63.63 0 0 1 .393-.394" fill="#151E30"/><path d="M239.261 50.31c1.877-.717 2.711-2.87 3.395-5.253.706-2.464-.076-5.786.864-7.238l-.006.003a2.34 2.34 0 0 0-1.18 2.128c.147 4.29-.739 7.98-2.818 9.403-3.162 2.164-6.854-2.886-6.365-4.266q-.225.334-.509.62c.51 2.642 3.489 5.797 6.619 4.603" fill="#FEF4D9"/><path d="m261.222 47.825-6.953-1.877c-1.134-.306-1.706 1.376-.601 1.773q.307.111.632.144a3.8 3.8 0 0 1 1.771.65c2.177 1.525 5.771 2.41 5.771 2.41zm-28.389 15.662s-1.973-1.273-3.431-3.221c-.457-.611-1.431-.2-1.295.55.113.628.482 1.056.854 1.34.622.474 1.021 1.18 1.208 1.94.12.484.277 1.029.478 1.543.245.632 1.148.618 1.385-.017z" fill="#151E30"/><path d="M245.699 69.958q1.354-.867 2.713-1.726l-.463-.616-.916.576a138 138 0 0 1-7.628-11.167l-.312.18q-.627.906-1.235 1.811l.422.659q.571-.88 1.157-1.749a139 139 0 0 0 7.24 10.49l-1.456.925q.238.31.478.617m.144 1.49a158 158 0 0 1-2.193-2.808l1.527-.965a141 141 0 0 1-5.464-7.831q-.573.857-1.127 1.714a132 132 0 0 1-2.014-3.1q.817-1.126 1.667-2.252l1.186-.683a136 136 0 0 0 7.384 11.129l1.015-.631q1.034 1.42 2.1 2.815a571 571 0 0 0-4.081 2.612m4.716-7.114 1.588-.972q-.03-.414-.054-.83a137 137 0 0 1-3.035-4.654 85 85 0 0 0 1.501 6.456m-2.969-2.831a84 84 0 0 1-1.22-6.184l-1.599.917q-.013.416-.02.832a132 132 0 0 0 2.839 4.435m3.142 4.26-.648-.335a85 85 0 0 1-2.637-10.949l.537.238q2.381 4.08 5.052 7.978.042.793.099 1.585-1.209.742-2.403 1.483m-1.737-.955a136 136 0 0 1-5.248-7.953q.014-.79.044-1.58 1.292-.738 2.588-1.47l.581.33a85 85 0 0 0 2.579 10.911zm1.998 1.674q1.348-.84 2.713-1.681a83 83 0 0 1-.146-2.057 131 131 0 0 1-5.483-8.714l-1.829-.95q-1.485.833-2.965 1.677a78 78 0 0 0-.065 2.053c1.819 2.98 3.752 5.89 5.795 8.72zm.577 1.315q-1.358-.65-2.713-1.303a136 136 0 0 1-6.592-9.845q.023-1.398.097-2.795 1.813-1.025 3.634-2.036l2.468 1.298a131 131 0 0 0 6.147 9.837q.089 1.401.229 2.801a584 584 0 0 0-3.27 2.043" fill="#3451A3"/><path d="m237.533 79.214 3.501 1.212a.226.226 0 1 0 .147-.429l-3.5-1.211a.23.23 0 0 0-.173.01.227.227 0 0 0-.052.373q.034.03.077.044m-.536 1.903 3.5 1.212a.23.23 0 0 0 .173-.01.23.23 0 0 0 .127-.217.23.23 0 0 0-.151-.2l-3.501-1.212a.226.226 0 1 0-.148.427m-.224 1.927 3.05 1.056a.227.227 0 0 0 .148-.428l-3.051-1.057a.23.23 0 0 0-.243.064.24.24 0 0 0-.057.164.23.23 0 0 0 .076.156q.033.03.077.045m-.055 1.702c.024.017.652.44 1.766.507a.23.23 0 0 0 .225-.214.23.23 0 0 0-.198-.239 3.8 3.8 0 0 1-1.155-.242q-.15-.059-.294-.134l-.07-.04-.016-.01-.003-.002-.03.047.031-.046h-.001l-.03.046.031-.046a.227.227 0 0 0-.256.373" fill="#A13D3A"/><path d="m236.642 84.275.076-.037-.077.035zm0 0 .076-.037-.077.035c.002.005.078.177.077.423 0 .132-.02.285-.083.451a.226.226 0 0 0 .304.287.23.23 0 0 0 .119-.126c.084-.222.114-.432.114-.612-.001-.36-.113-.596-.121-.616a.23.23 0 0 0-.129-.116.23.23 0 0 0-.243.062.22.22 0 0 0-.058.163.2.2 0 0 0 .021.086" fill="#A13D3A"/><path d="m228.201 53.87-.003.014c-.03.155-.339 1.625-1.189 3.174-.424.776-.983 1.572-1.703 2.237a6.16 6.16 0 0 1-2.678 1.482.34.34 0 0 0-.244.413.34.34 0 0 0 .412.244c1.241-.317 2.247-.95 3.047-1.71 1.202-1.145 1.95-2.572 2.406-3.713.455-1.141.616-2 .619-2.015a.34.34 0 0 0-.667-.125m22.981-14.298c.042.03 1.274.876 3.667.876.939 0 2.055-.13 3.345-.488a.34.34 0 1 0-.181-.654c-1.234.342-2.288.462-3.164.462-1.116 0-1.944-.196-2.49-.387a5 5 0 0 1-.606-.26 3 3 0 0 1-.143-.082l-.032-.02-.006-.003a.34.34 0 0 0-.472.082.345.345 0 0 0 .082.474" fill="#151E30"/><path d="M272.493 92.295c-.036-.79-.291-1.75-.566-2.584a7 7 0 0 1-.223-.864c-2.486-1.184-7.116 1.745-10.354 2.142-3.628.447-5.093-1.718-7.766-3.692-2.403-1.773-4.657-2.358-8.784-.935-1.283 2.128-1.971 3.543-1.971 3.543 6.181-3.05 9.889 1.401 13.761 3.379 3.873 1.978 7.087.825 9.64-.494 2.555-1.32 5.357-1.813 6.263-.495" fill="#53AA36"/><path d="M256.066 97.293c-1.321-.323-3.637-.147-5.437.497-1.057.378-1.694-1.215-.649-1.624a2.66 2.66 0 0 1 1.592-.078 4.13 4.13 0 0 0 2.377-.06c1.541-.524 3.426-.45 3.426-.45z" fill="#B2BEE0"/><path d="m273.335 78.144-1.931 5.542a7.03 7.03 0 0 0-.238 3.779l.08.374a.34.34 0 0 0 .398.241.34.34 0 0 0 .266-.381l-.079-.375a6.37 6.37 0 0 1 .215-3.415l1.93-5.541a.339.339 0 0 0-.468-.418.34.34 0 0 0-.173.194m-6.036 2.237-.037.06a23 23 0 0 1-2.561 3.208c-1.431 1.503-3.362 3.097-5.515 3.796a.34.34 0 0 0 .211.646c2.479-.811 4.584-2.652 6.083-4.28 1.499-1.631 2.388-3.058 2.396-3.07a.344.344 0 0 0-.12-.449.34.34 0 0 0-.456.09m25.08 51.087-.402-3.467a7.7 7.7 0 0 1-.035-1.322l.66-10.861c-.911-.358-1.919-.552-2.914-.645l-.709 10.329a8.2 8.2 0 0 0 .11 2.011l.91 5.109c.375 2.102.086 4.292-.946 6.161-.644 1.166-1.583 2.27-2.944 2.82l3.246.509c1.333-1.925 2.214-4.562 2.718-6.43.369-1.373.47-2.802.306-4.214m-6.813 33.448a9.2 9.2 0 0 0 2.357.306h5.612a4.6 4.6 0 0 0 3.525-1.639l10.076-11.943-2.631-2.844s-4.286 5.943-6.111 8.66c-1.825 2.716-2.122 5.093-5.983 5.22-3.862.127-9.251-1.019-9.251-1.019l-.297 2.547z" fill="#FFF0CF"/><path d="M235.822 38.967c.01 0 .261-.022.593-.11s.747-.24 1.084-.524a.225.225 0 0 0 .011-.307.225.225 0 0 0-.304-.038c-.252.214-.611.354-.907.432a4 4 0 0 1-.48.093l-.035.004a.22.22 0 0 0-.159.077.227.227 0 0 0 .197.374m2.17-2.3c.249-.263.388-.611.389-.974 0-.206-.048-.412-.161-.59a.88.88 0 0 0-.524-.377 1 1 0 0 0-.271-.034c-.359.002-.714.156-.995.39-.276.233-.492.557-.494.935q0 .084.016.17c.056.29.117.56.116.754-.001.137-.026.226-.078.292-.052.067-.15.137-.36.187a.23.23 0 0 0-.141.1.227.227 0 0 0 .243.341c.272-.062.481-.176.616-.35a.9.9 0 0 0 .173-.57c-.001-.279-.074-.56-.124-.839l-.008-.085c-.002-.19.123-.414.332-.59.206-.172.483-.284.704-.281q.085 0 .157.019a.42.42 0 0 1 .257.182.65.65 0 0 1 .089.346.98.98 0 0 1-.262.66.22.22 0 0 0-.061.16.224.224 0 0 0 .229.221c.06 0 .116-.024.158-.066" fill="#A13D3A"/><path d="m237.309 35.99-.621-.812a.226.226 0 1 0-.359.276l.621.812a.22.22 0 0 0 .15.087.226.226 0 0 0 .248-.284.2.2 0 0 0-.039-.079" fill="#A13D3A"/><path d="M230.629 40.896c-.459 0-.929-.29-1.359-.687.224-.896 1.182-1.57 2.331-1.57.087 0 .171.015.257.022.033.923-.126 1.868-.837 2.157l-.002.001-.006.003-.002.001-.008.003a1 1 0 0 1-.374.07" fill="#8E2F44"/><path d="m229.987 33.593 2.181-.51a.455.455 0 0 0 .338-.543.455.455 0 0 0-.543-.338l-2.182.51a.455.455 0 0 0-.125.815.45.45 0 0 0 .331.066m-3.169.139a1 1 0 0 1 .303-.042c.101 0 .209.013.292.038a.4.4 0 0 1 .175.091.455.455 0 0 0 .768-.335.46.46 0 0 0-.139-.318 1.34 1.34 0 0 0-.548-.306 2.1 2.1 0 0 0-.934-.04q-.178.031-.339.11a.453.453 0 0 0 .422.802" fill="#151E30"/><path d="M272.413 48.22c-.293.846-.464 1.736-.562 2.419l3.591.95c-.715-.867-1.06-2.024-1.131-3.112-.071-1.077-1.546-1.278-1.898-.258" fill="#A13D3A"/><path d="M347.381 43.744c0 3.106-2.454 5.624-5.48 5.624s-5.48-2.518-5.48-5.625c0-3.105 2.454-5.623 5.48-5.623s5.48 2.518 5.48 5.624" fill="#831C24"/><path d="M342.877 44.927c-2.331-1.79-4.737-1.23-6.398-.398.374 2.733 2.655 4.839 5.421 4.839a5.36 5.36 0 0 0 3.043-.947c-.232-1.294-.83-2.547-2.066-3.494" fill="#151E30"/><path d="m348 55.56 2.543-2.01a9.84 9.84 0 0 1 8.041-1.925 9.9 9.9 0 0 0 3.822.019l11.497-2.191 1.188-11.715s-2.97-2.886-3.565-5.687c0 0-1.225-3.397-1.526-7.457a.707.707 0 0 1 1.389-.212l.902 3.68s.932-2.123 3.394-.765c1.782-1.103 5.771 1.019 4.583 2.801 0 0 2.207 1.528 1.697 1.953s-2.121-.849-2.121-.849l-.934.849s1.358 1.953.339 3.82c0 0 3.11 6.061 4.667 13.631.764 3.712-1.626 7.34-5.347 8.058l-17.397 3.353z" fill="#FA9999"/><path d="M372.517 28.902c.003.005.606 1.437 1.127 2.32a.227.227 0 0 0 .39-.23q-.404-.708-.737-1.449-.187-.405-.363-.817a.227.227 0 0 0-.417.176m3.679-.886 1.873 1.241a.418.418 0 0 1-.398.734l-3.202-1.384a.23.23 0 0 0-.297.117.23.23 0 0 0 .117.297l3.203 1.385a.87.87 0 0 0 1.12-.4h.001a.873.873 0 0 0-.295-1.127l-1.872-1.24a.23.23 0 0 0-.17-.033.23.23 0 0 0-.144.097.24.24 0 0 0-.033.17q.01.044.034.081a.2.2 0 0 0 .063.062" fill="#A13D3A"/><path d="m374.685 28.97-.394 1.212a.2.2 0 0 0-.01.088q.003.045.024.085a.23.23 0 0 0 .219.122.23.23 0 0 0 .197-.155l.395-1.212a.23.23 0 0 0-.014-.173.225.225 0 0 0-.304-.099.23.23 0 0 0-.113.132m4.915.765h-.024c-.119 0-.669-.048-.962-.271a.23.23 0 0 0-.302.059.227.227 0 0 0 .035.305c.262.19.57.272.815.316s.429.043.438.043c.06 0 .117-.024.159-.067a.224.224 0 0 0 0-.32.22.22 0 0 0-.159-.066m-3.147-.01-.324.89a.2.2 0 0 0-.016.089.2.2 0 0 0 .02.087.22.22 0 0 0 .129.12.225.225 0 0 0 .292-.14l.325-.89a.23.23 0 0 0-.017-.166.225.225 0 0 0-.29-.105.23.23 0 0 0-.119.116m1.191 1.267.345-.636a.227.227 0 0 0-.175-.333.23.23 0 0 0-.223.117l-.345.637a.23.23 0 0 0 .092.306.226.226 0 0 0 .306-.091m-.928 5.319c.104-.279.146-.567.146-.85-.001-.66-.219-1.295-.432-1.77s-.425-.793-.43-.801l-.188.126-.003.227 1.692.024h.011a.775.775 0 0 0 .133-1.539l-1.398-.244a2.51 2.51 0 0 0-2.072.567l-1.04.89a.227.227 0 0 0-.025.319.227.227 0 0 0 .319.024l1.04-.889a2.06 2.06 0 0 1 1.701-.466l1.398.245a.324.324 0 0 1 .172.546.32.32 0 0 1-.228.094h-.004l-1.693-.024a.227.227 0 0 0-.191.353l.007.01c.041.063.238.377.423.808.185.43.355.979.355 1.5 0 .24-.036.473-.116.691a.226.226 0 0 0 .423.159" fill="#A13D3A"/><path d="M383.916 49.502a53 53 0 0 0-.456-2.01c-2.431 2.623-7.323 1.713-9.332-.256l-.225 2.217-3.059.582c-1.121 3.882.233 7.283 1.628 8.7l6.097-1.175c3.721-.718 6.111-4.346 5.347-8.058" fill="#3451A3"/><path d="m359.122 53.322-.006.012c-.075.147-.812 1.478-2.351 2.04a.23.23 0 0 0-.148.203.24.24 0 0 0 .06.162.22.22 0 0 0 .157.073.2.2 0 0 0 .087-.014c1.828-.675 2.595-2.256 2.608-2.278a.226.226 0 0 0-.277-.314.23.23 0 0 0-.13.116" fill="#A13D3A"/><path d="M377.212 66.79c1.663.816-.084 8.722-4.753 13.901-4.668 5.179-13.578-3.056-13.578-3.056s9.243-3.396 11.029-5.263c1.785-1.868 5.401-6.513 7.302-5.581" fill="#151E30"/><path d="m369.91 73.815 5.181 6.028-11.288-.764z" fill="#A13D3A"/><path d="M366.391 78.427c4.953 0 7.511-12.719 10.821-11.636-1.336-1.273-6.557 3.565-6.557 3.565s-.826-2.929-4.264-2.865c.064-4.266-.528-6.748-4.338-8.086-2.963-1.039-5.932-2.271-8.572-4.326-1.48-1.15-3.569-1.084-5.022.101-3.066 2.5-8.074 7.34-12.303 14.985-1.394 2.519-2.237 5.282-2.064 10.314.173 5.031 9.384 12.16 9.384 12.16s23.361-.603 22.915-14.212" fill="#A33B82"/><path d="M351.752 68.191c1.995-2.822.746-9.994-4.086-12.345-3.021 2.59-7.421 7.098-11.245 13.858 1.973-1.38 5.198.245 7.501.906 2.738.786 5.581.764 7.83-2.419" fill="#53AA36"/><path d="m359.729 87.482-17.24-1.795a6.575 6.575 0 0 0-7.033 4.85l1.912 32.242a14.86 14.86 0 0 1-1.2 6.791l-.117.27 8.826 3.311-.655-2.579a13.8 13.8 0 0 1-.244-5.588l3.615-22.222 6.025 1.782a14.06 14.06 0 0 0 13.857-3.473l4.136-4.081z" fill="#FA9999"/><path d="M346.605 108.83 335.91 98.187l1.457 24.592a14.8 14.8 0 0 1-.99 6.268l8.184 2.861-.339-1.336a13.8 13.8 0 0 1-.244-5.588z" fill="#FEF4D9"/><path d="m335.91 98.187.649 10.942c2.347-1.445 7.79 1.869 9.51 2.994l.536-3.293z" fill="#B2BEE0"/><path d="M326.984 131.374c.537-2.637 2.999-3.911 6.818-2.892l2.249-.35s1.103-1.688 2.801-1.22c1.697.466 1.825 3.268 4.159 3.098s3.109 2.678 3.109 2.678l-2.897 2.161z" fill="#EB4D33"/><path d="M343.222 134.297c-4.414-.552-10.27-4.245-13.834-4.286-3.564-.042-3.48 4.329 1.273 5.177 3.256.582 4.623-.522 6.832 1.486s5.729-2.377 5.729-2.377" fill="#151E30"/><path d="M356.216 77.59c4.765-3.67 13.931.852 17.368 1.425 1.467-.423 3.882-.446 4.264 1.846 2.928-.51 2.928 2.547 2.928 2.547 5.029 3.501 3.374 16.298-5.155 16.553-8.53.254-19.405-22.371-19.405-22.371" fill="#FA9999"/><path d="M363.803 78.245c1.18-.293 1.95-.037 2.38.445.369.412.736.831 1.191 1.146 1.359.938 2.589 2.635 1.796 5.213-.955 3.105-5.367-6.804-5.367-6.804" fill="#A13D3A"/><path d="M380.777 83.408s0-3.057-2.929-2.548c-.382-2.29-2.797-2.268-4.264-1.846-.592-.099-1.359-.316-2.241-.587 1.962 1.58 3.572 3.913 4.32 6.433.12.402.385.746.727.988l2.223 1.57-.596-.02c-.983-.035-1.855.668-1.986 1.642-.406 3.025-2.408 5.894-6.865 7.693 2.163 1.993 4.379 3.289 6.455 3.227 8.529-.255 10.184-13.052 5.156-16.552" fill="#3451A3"/><path d="m371.61 96.989-11.882-9.507-7.232-.754c6.401.668 10.324 16.251.631 17.67l.49.146a14.06 14.06 0 0 0 13.857-3.474z" fill="#3451A3"/><path d="M356.979 87.195c4.224 4.083 7.933 10.388 4.998 17.224a14.05 14.05 0 0 0 5.496-3.348l4.136-4.081-11.881-9.508z" fill="#151E30"/><path d="M356.216 77.59a5.89 5.89 0 0 1 7.114-.118c5.098 3.734 9.082 8.813 11.378 14.699 1.497 3.835 2.828 8.006 4.073 12.357a10.2 10.2 0 0 0 2.056 3.822l3.886 4.534-7.893 3.82-1.648-5.682a4.4 4.4 0 0 0-.599-1.273c-5.797-8.479-12.181-16.527-19.072-24.205-2.112-2.351-1.781-6.004.705-7.955" fill="#FA9999"/><path d="M380.837 108.35a10.2 10.2 0 0 1-2.056-3.822c-1.246-4.351-2.577-8.522-4.072-12.357a32.8 32.8 0 0 0-5.715-9.465c-4.968-.266-9.853 3.124-9.731 7.128 5.466 6.374 10.592 12.999 15.32 19.915.266.389.468.82.6 1.273l1.646 5.682 7.894-3.82z" fill="#FEF4D9"/><path d="M375.672 116.853c-1.76-6.346 4.924-8.32 11.099-2.653.872.8 1.744 2.265 1.744 2.265z" fill="#EB4D33"/><path d="M377.605 120.758c-4.9-5.539-.389-11.937 10.911-4.293z" fill="#151E30"/><path d="M385.04 114.441a20 20 0 0 0-.569-.269l-8.691 3.286q.052.216.122.437zm-9.194.723a3 3 0 0 0-.144.539l6.359-2.404a11 11 0 0 0-.799-.182zm7.812-1.336a18 18 0 0 0-.65-.238l-7.361 2.783q0 .233.027.474zm3.817 1.96c-.169-.105-.332-.197-.497-.296l-10.368 3.92q.117.194.25.39zm-1.172-.691q-.262-.144-.527-.285l-9.659 3.652q.088.206.193.411z" fill="#3451A3"/><path d="m323.833 136.749.888.259c2.563.748 5.298.651 7.8-.279l61.442-22.797c3.144-1.165 5.712-3.474 7.289-6.432.969-1.817 2.237-3.505 3.289-2.871 1.761 1.061.595 9.723-4.931 12.501-4.302 2.162-58.138 21.282-62.116 22.219-4.498 1.059-9.078.314-14.21-1.236-.854-.259-.307-1.614.549-1.364" fill="#3451A3"/><path d="M334.778 136.886c3.608-1.268 47.951-17.911 52.709-19.523 4.757-1.614 9.034-3.226 11.665-5.348 2.063-1.666 3.961-7.095 5.389-7.386-1.051-.634-2.32 1.054-3.289 2.871-1.577 2.959-4.145 5.267-7.289 6.433l-61.442 22.796a12.4 12.4 0 0 1-7.8.279l-.888-.259c-.517-.151-.917.283-.97.707 6.009 2.014 8.17.747 11.915-.57" fill="#5872C1"/><path d="m362.232 125.706 1.972.396c.413.084.79.293 1.08.599l.323.342a2.535 2.535 0 0 0 2.829.591l4.143-1.761-3.159-3.206z" fill="#151E30"/><path d="M350.065 67.885c2.511-2.59 1.128-9.152-3.346-11.202-2.683 2.436-6.157 6.182-9.354 11.415 4.953-.919 8.414 4.209 12.7-.214" fill="#FA9999"/><path d="m341.034 56.594 5.837 3.597-4.583 5.9-4.583-3.991z" fill="#FA9999"/><path d="m340.666 57.202-2.961 4.899 1.894 1.648q.69-.885 1.223-2.138c.58-1.361.52-2.912-.088-4.26zm47.703 65.738c0 1.754-1.319 3.177-2.945 3.177-1.627 0-2.946-1.423-2.946-3.177s1.319-3.176 2.946-3.176c1.626 0 2.945 1.422 2.945 3.176m6.437.13c-.077 1.346-1.152 2.378-2.398 2.305s-2.195-1.221-2.118-2.565c.078-1.345 1.151-2.377 2.398-2.305s2.196 1.22 2.118 2.565" fill="#151E30"/><path d="m386.092 123.547 6.142-.349.159-.859h-2.179a.517.517 0 0 1-.422-.817l.331-.467c.138-.194.33-.342.553-.425a.97.97 0 0 0 .615-.71.98.98 0 0 0-.266-.9l-.632-.628a1.895 1.895 0 0 0-2.065-.412l-3.255 1.334zm-47.26 16.298c0 1.671-1.174 3.025-2.624 3.025-1.448 0-2.623-1.354-2.623-3.025s1.175-3.026 2.623-3.026c1.45 0 2.624 1.354 2.624 3.026m7.288.634c0 1.32-.928 2.391-2.074 2.391s-2.073-1.071-2.073-2.391c0-1.322.929-2.393 2.073-2.393 1.145 0 2.074 1.071 2.074 2.393" fill="#151E30"/><path d="M336.656 139.845c0 .675-.474 1.222-1.06 1.222-.585 0-1.06-.547-1.06-1.222s.475-1.223 1.06-1.223 1.06.547 1.06 1.223" fill="#FEF4D9"/><path d="m338.162 140.388 5.284.636.19-.987-1.163-.147a.57.57 0 0 1-.436-.31.57.57 0 0 1 .015-.534l.805-1.409.515-.175a.51.51 0 0 0 .341-.429.51.51 0 0 0-.251-.488l-1.779-1.028a.9.9 0 0 0-.798-.05l-3.218 1.347 1.325.425c.553.177.872.754.729 1.317l-.011.05a.94.94 0 0 1-1.055.7l-.648-.096z" fill="#151E30"/><path d="M342.288 55.586s3.14-6.727-1.063-9.953c-4.144-3.181-8.527 1.06-8.527 1.06-4.243-1.23-7.045-.169-8.275 1.104 1.952-.594 5.305-.296 5.305-.296-6.663 2.46-5.299 11.54 1.508 11.543 0 0 8.124 1.488 11.052-3.458" fill="#831C24"/><path d="M386.059 123.138c0 .795-.597 1.439-1.335 1.439-.737 0-1.335-.644-1.335-1.439 0-.796.598-1.44 1.335-1.44.738 0 1.335.644 1.335 1.44" fill="#FEF4D9"/><path d="M385.77 120.069a3.17 3.17 0 0 1 1.542.771c.448.425.777 1.014.819 1.839a.3.3 0 0 0 .019.089q.02.041.052.074.035.031.077.047a.22.22 0 0 0 .177-.009.2.2 0 0 0 .072-.055.2.2 0 0 0 .045-.079.3.3 0 0 0 .01-.09c-.045-.938-.436-1.653-.962-2.145a3.6 3.6 0 0 0-1.766-.886.23.23 0 0 0-.175.03.24.24 0 0 0-.099.147.23.23 0 0 0 .189.267" fill="#5872C1"/><path d="M334.12 82.26c-.191-4.646.509-6.238 5.092-5.537s9.674 5.03 9.483 6.812-3.436 1.91-3.436 1.91l.828 12.86 16.434 18.493a3.1 3.1 0 0 0 1.948 1.024l3.373.419a5.36 5.36 0 0 1 3.328 1.733l2.847 3.156c.133.148.232.323.289.514a1.34 1.34 0 0 1-.168 1.138c-.11.165-.255.304-.425.407l-1.134.684a1.35 1.35 0 0 1-1.581-.135l-2.412-2.097c-.144-.124-.352.045-.26.211l1.143 2.049a.758.758 0 0 1-.416 1.084l-1.151.394a1.31 1.31 0 0 1-1.386-.357l-1.128-1.242c-.403-.442-.944-.753-1.539-.819-.904-.1-2.402-.766-3.25-3.864l-20.008-13.32a13.01 13.01 0 0 1-5.792-10.259z" fill="#FA9999"/><path d="m368.939 120.91 3.479 3.82a.227.227 0 0 0 .385-.145.23.23 0 0 0-.049-.16l-3.48-3.819a.22.22 0 0 0-.247-.068.2.2 0 0 0-.078.046.227.227 0 0 0-.01.326m-3.456 2.226 2.292 3.31a.23.23 0 0 0 .315.058.23.23 0 0 0 .094-.146.23.23 0 0 0-.037-.169l-2.291-3.311a.23.23 0 0 0-.316-.058.23.23 0 0 0-.057.316" fill="#A13D3A"/><path d="M355.048 108.621c-2.574.254-5.362 2.03-4.941 5.723l8.876 5.739c.292-1.875 1.79-3.207 3.249-3.609z" fill="#FEF4D9"/><path d="M327.119 131.072a1.8 1.8 0 0 0-.203.56l3.857-1.457a9 9 0 0 0-.929-.132zm5.398-.423a19 19 0 0 0-.71-.216l-4.898 1.852q.035.22.113.441zm1.544.551q-.322-.123-.645-.24l-6.117 2.312q.124.192.286.377zm2.92 1.164-.618-.25-7.087 2.68q.314.129.673.229zm3.008 1.131a38 38 0 0 1-.668-.231l-5.611 2.121c.413-.001.796.003 1.168.042zm-4.46-1.716-.621-.249-6.829 2.581q.207.165.452.313zm2.923 1.164q-.317-.121-.635-.245l-6.751 2.552q.536.076 1.006.104z" fill="#3451A3"/><path d="m344.778 81.5 1.083 16.82a.23.23 0 0 0 .056.136l4.146 4.664a.22.22 0 0 0 .155.076.22.22 0 0 0 .164-.057.23.23 0 0 0 .019-.319l-4.094-4.607-1.077-16.743a.226.226 0 1 0-.452.03" fill="#A13D3A"/><path d="M373.902 49.453c-.083.96.091 1.966.526 2.825.428.84-.722 1.63-1.342.918-.71-.812-1.102-1.996-1.074-3.382z" fill="#151E30"/><path d="M334.92 51.757c.931 1.326 2.556 2.626 5.331 2.496l.484 1.07c.608 1.348.667 2.897.088 4.26-1.186 2.78-2.931 4.276-5.408 4.003-2.362-.259-3.252-2.152-3.571-3.235a4.7 4.7 0 0 0-.766-1.534l-.297-.384a4.145 4.145 0 0 1 .212-5.321c.459-.503.89-.988 1.275-1.47.696-.867 2.012-.796 2.652.115" fill="#FA9999"/><path d="M339.05 58.218a1.188 1.188 0 1 1-2.375 0 1.188 1.188 0 0 1 2.375 0" fill="#F03F4F"/><path d="m340.079 56.192-.323-1.888a1.95 1.95 0 0 1 .498-1.67 1.97 1.97 0 0 1 1.628-.615 1.962 1.962 0 0 1 1.641 2.655l-.391 1.024a1.58 1.58 0 0 1-.859.893 1.58 1.58 0 0 1-1.238.003z" fill="#FA9999"/><path d="M347.059 59.218c-.001.008-.116.728-.116 1.775 0 .522.028 1.128.116 1.766a.225.225 0 0 0 .403.107.23.23 0 0 0 .045-.168 12.5 12.5 0 0 1-.111-1.705 14 14 0 0 1 .093-1.584l.017-.12a.225.225 0 0 0-.19-.245.227.227 0 0 0-.257.174m1.523 6.654.047.005c.223.02 1.214.148 1.976.601a.23.23 0 0 0 .171.024.23.23 0 0 0 .139-.104.23.23 0 0 0-.014-.25.2.2 0 0 0-.066-.06c-.998-.585-2.204-.665-2.221-.667a.225.225 0 0 0-.242.21q-.003.043.011.087a.225.225 0 0 0 .199.154m-8.3-1.23 2.286 1.633a.23.23 0 0 0 .33-.043.2.2 0 0 0 .037-.085.22.22 0 0 0-.104-.24l-2.285-1.633a.227.227 0 0 0-.355.221c.009.06.043.111.091.146m.846-8.484c.104-.071.197-.149.267-.249a.6.6 0 0 0 .11-.351c-.006-.282-.156-.533-.408-.872l-.18.137.22-.052a3 3 0 0 1-.085-.652c.001-.38.104-.61.236-.75a.67.67 0 0 1 .493-.204c.187 0 .368.065.513.182a.57.57 0 0 1 .218.448.7.7 0 0 1-.047.25.23.23 0 0 0 .008.174.226.226 0 0 0 .418-.02q.075-.206.074-.403a1.02 1.02 0 0 0-.381-.797 1.26 1.26 0 0 0-.803-.286 1.1 1.1 0 0 0-.821.346c-.227.24-.362.598-.361 1.06q-.001.337.098.756l.039.086c.239.308.323.515.316.598l-.03.093a.6.6 0 0 1-.145.129.23.23 0 0 0-.097.144.226.226 0 0 0 .348.233" fill="#A13D3A"/><path d="m341.828 54.233-.957-.201a.226.226 0 0 0-.093.443l.957.2a.225.225 0 0 0 .268-.174.227.227 0 0 0-.175-.268" fill="#A13D3A"/><path d="M332.855 57.553a.68.68 0 0 1-.68.68.678.678 0 0 1-.48-1.16.68.68 0 0 1 .961 0 .68.68 0 0 1 .199.48m3.394-1.706a.681.681 0 0 1-1.16.48.681.681 0 0 1 .481-1.16.68.68 0 0 1 .679.68" fill="#151E30"/><path d="m332.901 56.299.502.74c.106.155.166.337.175.524l.051 1.138c.013.307.15.575.353.759a1.09 1.09 0 0 0 1.291.147l.41-.233a.227.227 0 0 0-.052-.415.23.23 0 0 0-.172.022l-.411.233a.635.635 0 0 1-.76-.087.63.63 0 0 1-.207-.447l-.051-1.136a1.47 1.47 0 0 0-.253-.76l-.502-.74a.227.227 0 1 0-.374.255m2.731 4.281c.018-.005.383-.109.808-.426a3.1 3.1 0 0 0 1.142-1.706.227.227 0 0 0-.246-.29.23.23 0 0 0-.19.171 2.66 2.66 0 0 1-.977 1.462q-.284.211-.615.338l-.036.012-.008.003h-.001a.226.226 0 0 0 .123.436" fill="#A13D3A"/><path d="m336.803 58.456.862.155a.225.225 0 0 0 .231-.1.2.2 0 0 0 .032-.082.22.22 0 0 0-.036-.17.23.23 0 0 0-.146-.093l-.863-.156a.225.225 0 0 0-.262.183.22.22 0 0 0 .1.231.2.2 0 0 0 .082.032" fill="#A13D3A"/><path d="m334.44 55.428.895-1.277a.45.45 0 0 0-.111-.631.45.45 0 0 0-.63.11l-.896 1.278a.457.457 0 0 0 .111.63.46.46 0 0 0 .503.012.4.4 0 0 0 .128-.122m-3.218 1.527.99-.746a.452.452 0 0 0-.545-.724l-.99.747a.457.457 0 0 0-.089.635.46.46 0 0 0 .299.175.45.45 0 0 0 .335-.087" fill="#831C24"/><path d="M383.817 148.291c-5.244.519-6.133 1.407-6.651 6.652-.02.201-.312.201-.331 0-.518-5.245-1.407-6.133-6.651-6.652-.2-.019-.2-.311 0-.331 5.244-.518 6.133-1.407 6.651-6.652.019-.199.311-.199.331 0 .518 5.245 1.407 6.134 6.651 6.652.2.02.2.312 0 .331M207.39 88.58c-5.244.518-6.134 1.406-6.651 6.65-.02.201-.312.201-.331 0-.519-5.244-1.407-6.132-6.651-6.65-.2-.02-.2-.311 0-.332 5.244-.519 6.132-1.406 6.651-6.652.019-.2.311-.2.331 0 .517 5.246 1.407 6.133 6.651 6.652.199.02.199.311 0 .331m-79.836 43.494c-5.244.519-6.134 1.408-6.651 6.653-.02.199-.312.199-.331 0-.519-5.245-1.407-6.134-6.652-6.653-.199-.02-.199-.311 0-.331 5.245-.518 6.133-1.407 6.652-6.652.019-.199.311-.199.331 0 .517 5.245 1.407 6.134 6.651 6.652.199.02.199.311 0 .331m142.703 16.889c-5.244.519-6.133 1.407-6.652 6.652-.019.201-.311.201-.33 0-.518-5.245-1.408-6.133-6.652-6.652-.199-.02-.199-.311 0-.331 5.244-.519 6.134-1.407 6.652-6.652.019-.2.311-.2.33 0 .519 5.245 1.408 6.133 6.652 6.652.199.02.199.311 0 .331M160.787 41.595c-2.622.26-3.066.704-3.325 3.326-.01.1-.155.1-.166 0-.259-2.622-.703-3.066-3.325-3.325-.1-.01-.1-.156 0-.166 2.622-.26 3.066-.704 3.325-3.326.011-.1.156-.1.166 0 .259 2.622.703 3.067 3.325 3.325.1.01.1.156 0 .166" fill="#F1976A"/><path d="M101.029 23.928c-2.621.258-3.066.703-3.325 3.325-.01.1-.156.1-.166 0-.26-2.622-.704-3.067-3.325-3.325-.1-.01-.1-.156 0-.166 2.621-.26 3.066-.704 3.325-3.326.01-.1.156-.1.166 0 .259 2.622.704 3.066 3.325 3.326.1.009.1.155 0 .166m186.909-6.019c-2.622.259-3.066.703-3.326 3.326-.009.1-.156.1-.165 0-.259-2.623-.703-3.067-3.325-3.326-.1-.01-.1-.155 0-.166 2.622-.26 3.066-.703 3.325-3.326.009-.1.156-.1.165 0 .26 2.623.704 3.067 3.326 3.326.1.01.1.156 0 .166m19.244 86.052c-2.622.259-3.065.704-3.325 3.327-.009.099-.156.099-.165 0-.259-2.623-.703-3.068-3.325-3.327-.101-.009-.101-.156 0-.165 2.622-.26 3.066-.703 3.325-3.326.009-.1.156-.1.165 0 .26 2.623.703 3.066 3.325 3.326.101.009.101.156 0 .165m94.757-67.437c-2.622.259-3.066.703-3.326 3.325-.009.1-.156.1-.165 0-.26-2.622-.703-3.066-3.325-3.325-.101-.01-.101-.156 0-.166 2.622-.26 3.065-.703 3.325-3.325.009-.101.156-.101.165 0 .26 2.622.704 3.066 3.326 3.325.1.01.1.155 0 .166M62.914 148.209c-2.622.259-3.065.704-3.325 3.326-.009.1-.154.1-.165 0-.26-2.622-.703-3.067-3.325-3.326-.1-.009-.1-.155 0-.166 2.622-.258 3.066-.703 3.325-3.326.01-.099.156-.099.166 0 .259 2.623.702 3.068 3.324 3.326.101.011.101.157 0 .166" fill="#64A07A"/></g><defs><clipPath id="b"><path fill="#fff" d="M280 67h24v25h-24z"/></clipPath></defs></svg>