<svg width="300" height="200" viewBox="0 0 300 200" fill="none" xmlns="http://www.w3.org/2000/svg"><g clip-path="url(#a)"><path d="M300 0H0v200h300z" fill="#F0EFEF"/><path d="M255.858 23.69v9.047c7.795 0 14.114 6.319 14.114 14.113 0 7.795-6.319 14.114-14.114 14.114v9.047c12.792 0 23.161-10.37 23.161-23.16 0-12.792-10.369-23.161-23.161-23.161" fill="#F9CAAA"/><path d="M247.979 73.979a4.175 4.175 0 1 0-8.165-1.743 4.175 4.175 0 0 0 8.165 1.743" fill="#F2D4FF"/><path d="M43.48 153.299a4.174 4.174 0 1 0-8.24-1.338 4.174 4.174 0 0 0 8.24 1.338" fill="#FFE978"/><path d="M25.608 97.853a2.087 2.087 0 1 1-4.174 0 2.087 2.087 0 0 1 4.174 0" fill="#B5F4E1"/><path d="M150.885 158.492c-20.146-9.56-43.723-18.488-66.47-12.172-7.016 1.948-13.526 6.299-16.809 12.578s-2.796 14.521 2.1 19.735c5.52 5.879 14.733 6.698 22.955 6.289 19.209-.954 37.924-5.487 56.894-8.183a185 185 0 0 1 27.967-1.851c9.955.094 19.842 1.344 29.466 3.804 9.473 2.42 19.156 5.492 29.094 4.818 5.951-.404 11.96-2.365 16.228-6.377s6.476-10.273 4.625-15.731c-1.103-3.254-3.875-6.198-7.405-6.617-4.306-.511-8.012 2.639-11.433 5.21-25.171 18.916-60.991 10.94-87.212-1.503Z" stroke="#B5F4E1" stroke-width="1.5" stroke-miterlimit="10"/><path d="M171.936 179.118c17.962 2.042 34.032 13.941 52.109 14.102 3.702.032 7.538-.484 10.682-2.439 3.143-1.956 5.433-5.609 4.917-9.275-.54-3.842-3.976-6.759-7.68-7.91-3.706-1.152-7.68-.893-11.554-.689-21.871 1.151-42.66-.815-63.606-7.056-12.467-3.715-24.895-7.677-36.869-12.794-11.302-4.829-33.43-25.125-45.641-14.705-1.797 1.533-3.063 3.607-3.99 5.78-5.179 12.136.46 27.046 10.868 35.155 8.91 6.941 21.641 10.096 32.81 9.679 9.864-.368 18.596-5.428 27.922-8.028 8.589-2.394 21.126-2.833 30.032-1.82M37.563 112.207c-1.025 5.222.6 10.592 3.247 15.408 2.642 4.806 9.153 10.698 15.908 11.441 10.29 1.131 12.288-10.913 9.238-16.623-1.63-3.051-4.37-5.555-7.354-7.752-3.738-2.754-9.836-15.789-15.768-11.94-3.04 1.972-4.676 6.439-5.27 9.466" fill="#A29DF1"/><path d="M93.728 17.764a1.358 1.358 0 1 0 0 2.715 1.358 1.358 0 0 0 0-2.715" fill="#B5F4E1"/><path opacity=".65" d="M249.423 106.902a1.358 1.358 0 1 0 0 2.716 1.358 1.358 0 0 0 0-2.716" fill="#9A8AED"/><path d="M114.689 102.448a1.164 1.164 0 1 1-2.328.002 1.164 1.164 0 0 1 2.328-.002" fill="#F2D4FF"/><path d="M176.34 152.507a1.975 1.975 0 1 1-3.95 0 1.975 1.975 0 0 1 3.95 0" fill="#F9CAAA"/><path opacity=".65" d="M83.477 56.24a1.165 1.165 0 1 0 0-2.33 1.165 1.165 0 0 0 0 2.33" fill="#9A8AED"/><path d="M38.34 105.031c-.57 4.475.65 9.056 2.826 13.009 1.207 2.19 2.742 4.258 4.807 5.668s4.72 2.094 7.124 1.408c3.182-.908 5.355-4.076 5.85-7.347.496-3.271-.427-6.604-1.766-9.63-1.795-4.057-4.997-10.205-9.468-11.85-5.275-1.94-8.818 4.393-9.373 8.742Z" stroke="#B5F4E1" stroke-width="1.5" stroke-miterlimit="10"/><mask id="b" style="mask-type:luminance" maskUnits="userSpaceOnUse" x="255" y="23" width="25" height="48"><path d="M255.858 23.69v9.047c7.795 0 14.114 6.319 14.114 14.113 0 7.795-6.319 14.114-14.114 14.114v9.047c12.792 0 23.161-10.37 23.161-23.16 0-12.792-10.369-23.161-23.161-23.161" fill="#fff"/></mask><g mask="url(#b)" stroke="#fff" stroke-width="1.5" stroke-miterlimit="10"><path d="M251.283 28.215h31.689m-31.689 5.643h31.689m-31.689 5.644h31.689m-31.689 5.643h31.689m-31.689 5.643h31.689m-31.689 5.644h31.689m-31.689 5.643h31.689m-31.689 5.643h31.689"/></g><path d="m253.063 88.42 2.233-2.233a4.925 4.925 0 1 1 6.965-6.965l2.232-2.232a8.082 8.082 0 1 0-11.43 11.43Z" stroke="#7F52F8" stroke-width="1.5" stroke-miterlimit="10"/><path d="m65.985 49.62-2.233 2.233a4.925 4.925 0 1 1-6.965 6.966l-2.232 2.232a8.083 8.083 0 1 0 11.43-11.43Zm175.083 83.931-2.233-2.232a4.924 4.924 0 0 1-6.965 0 4.927 4.927 0 0 1 0-6.966l-2.232-2.232a8.08 8.08 0 0 0 0 11.43 8.08 8.08 0 0 0 11.43 0Z" stroke="#FFE978" stroke-width="1.5" stroke-miterlimit="10" stroke-linejoin="round"/><path d="M40.306 171.054v-6.08a9.484 9.484 0 0 1-9.484-9.484c0-5.237 4.246-9.484 9.484-9.484v-6.079c-8.595 0-15.563 6.968-15.563 15.563s6.968 15.564 15.563 15.564" fill="#F2D4FF"/><mask id="c" style="mask-type:luminance" maskUnits="userSpaceOnUse" x="24" y="139" width="17" height="33"><path d="M40.306 171.054v-6.08a9.484 9.484 0 0 1-9.484-9.484c0-5.237 4.246-9.484 9.484-9.484v-6.079c-8.595 0-15.563 6.968-15.563 15.563s6.968 15.564 15.563 15.564" fill="#fff"/></mask><g mask="url(#c)" stroke="#fff" stroke-width="1.5" stroke-miterlimit="10"><path d="m19.503 156.871 23.132-23.133m-23.132 27.787 23.132-23.132M19.503 166.18l23.132-23.133m-23.132 27.787 23.132-23.133m-23.132 27.787 23.132-23.133m-23.132 27.787 23.132-23.133m-23.132 27.787 23.132-23.132M19.503 189.45l23.132-23.132"/></g><path d="M219.387 44.417h4.7m-2.35-2.35v4.7M86.645 106.886h4.7m-2.35-2.35v4.699m25.986-80.066h4.7m-2.35-2.351v4.7M94.77 44.417h4.7m-2.35-2.35v4.7m95.571 36.329h4.7m-2.35-2.349v4.7m-7.322-70.178h3.537m-1.769-1.769v3.538M23.84 68.144h3.537m-1.769-1.768v3.537" stroke="#fff" stroke-width="1.5" stroke-miterlimit="10"/><path d="M270.73 42.057A9.104 9.104 0 1 0 253 37.915a9.104 9.104 0 1 0 17.73 4.142" fill="#B5F4E1"/><path d="M52.143 31.266H29.435v4.013h22.708z" stroke="#B5F4E1" stroke-width="1.5" stroke-miterlimit="10"/><path d="M48.194 26.88h25.057m5.565 0h7.829M28.699 87.226h12.494m201.982-33.564h12.495m-20.849-6.473h9.07m25.024 77.36h9.07M60.104 146.837h12.495m.977 6.737h9.9m9.218 27.357h9.901m-19.118-2.905h15.292m-6.864-3.94h5.74" stroke="#7F52F8" stroke-width="1.5" stroke-miterlimit="10"/><path d="M197.371 114.828c-1.577-2.564-5.755-3.38-9.772-1.576s-9.888 4.357-11.802 7.671-2.452 5.864-1.691 7.829 6.189 3.6 10.968-1.683 5.823-5.74 8.05-7.129 5.823-2.546 4.247-5.112" fill="#000"/><path d="M170.724 115.495s10.126 10.256 11.784 14.425c1.446 3.638 2.14 7.523 3.142 11.307 2.625 9.927 7.397 18.786 13.939 26.699l17.421 1.368a236 236 0 0 1-12.357-33.842c-2.369-8.441-4.392-17.279-9.675-24.276" fill="#E9725B"/><path d="M155.691 92.373c-.029 6.44 2.111 12.87 5.995 18.006.898 1.188 1.884 2.306 2.834 3.453 3.783 4.561 6.082 9.629 9.586 14.92.557-7.186 5.179-11.663 15.424-14.676 2.614-.769 5.774-.295 7.841.752-5.425-9.146-13.871-23.286-23.178-33.024" fill="#FFE978"/><path d="M163.727 109.213c3.788 4.907 7.926 11.003 10.516 16.634m-9.408-19.033c3.788 4.907 7.926 11.003 10.517 16.634" stroke="#fff" stroke-width="2" stroke-miterlimit="10"/><path d="M113.862 120.87c-.551-2.718-3.11-3.779-5.499-4.408-2.181-.575-4.336-.2-6.084.914-1.637 1.044-2.829 3.478-3.254 5.385-.42 1.877-.484 3.818-.858 5.705-.636 3.215-2.15 6.188-3.056 9.338s-1.135 6.748.653 9.528c1.391 2.163 3.954 3.55 6.546 3.541.64-.002 1.298-.089 1.849-.406 1.004-.578 1.435-1.766 1.753-2.868.956-3.317 1.358-6.755 2.018-10.135.661-3.388 1.957-6.201 3.225-9.372.496-1.242 1.439-2.115 2.155-3.222.769-1.188.833-2.612.552-4" fill="#fff"/><path d="M109.882 119.09c-1.33-.583-2.834-.772-4.254-.46-3.313.73-4.973 3.564-5.586 6.659-.406 2.047-.448 4.162-1.236 6.101-.882 2.171-1.856 4.291-2.456 6.566-.66 2.498-.89 5.168-.201 7.658s2.392 4.776 4.781 5.758c2.39.983 5.443.425 7.04-1.605 1.322-1.679 1.488-3.971 1.494-6.108.008-2.859.692-5.181 1.222-7.929.51-2.644.818-5.355 1.742-7.9.358-.985 1.019-1.933 1.327-2.908.321-1.011-.219-2.302-.742-3.155-.732-1.191-1.851-2.116-3.131-2.677" fill="#432572"/><path d="M111.952 121.059c-1.651-.58-3.557-.109-4.949.952-1.393 1.062-2.316 2.644-2.874 4.304" stroke="#000" stroke-miterlimit="10"/><path d="M99.55 128.535c.242-.408.692-.635 1.081-.908a4.4 4.4 0 0 0 1.827-3.138c.061-.634-.019-1.274.014-1.909.067-1.298 1.688-2.865 2.591-3.8m-7.418 15.557c.508.291.856.814 1.035 1.372.302.941.207 1.992.157 2.964-.078 1.509.037 3.242 1.22 4.182.552.438 1.226.767 1.581 1.406.402.726.415 1.612.815 2.356.541 1.01 1.654 1.651 2.78 1.2 1.466-.587 1.314-2.218 2.165-3.299.405-.514 1.474-.746 2.063-.46" stroke="#FFE978" stroke-miterlimit="10"/><path d="M102.491 140.481a7.5 7.5 0 0 0 5.873 1.318m-4.793-4.428a7.5 7.5 0 0 0 5.341.974m-4.698-4.163c1.484 1.006 3.39 1.622 5.253 1.698" stroke="#fff" stroke-width="3" stroke-miterlimit="10" stroke-linecap="round"/><path d="M130.539 121.215a32 32 0 0 0-1.808 3.548c-2.525-.711-5.486-.71-6.814-.872-5.033-.617-6.761-1.278-10.626-1.512-4.465.609-8.172 7.931-4.361 11.873 7.773 4.394 7.543 5 14.047 7.975 4.354 1.992 8.763 4.781 13.727 4.603 4.018-.145 7.933-2.077 10.437-5.139a61.5 61.5 0 0 0 9.264-15.541z" fill="#E9725B"/><path d="M128.822 124.549a32 32 0 0 0-1.314 3.512c.033.004.044.006.011.005-.032 0-.055.032-.072.061q-.515.917-.894 1.898c-.29.753-.915 2.102-.355 5.025m63.289-7.344a12.3 12.3 0 0 0 2.91 2.629" stroke="#000" stroke-miterlimit="10"/><path d="M210.377 153.121a21.25 21.25 0 0 1-9.146 4.195 21.2 21.2 0 0 1-9.313-.325 71.3 71.3 0 0 0 7.702 11.421l17.39.882a236 236 0 0 1-6.633-16.173m-90.504-29.619c-3.123-.486-6.008-.968-8.582-1.124-4.465.61-8.172 7.932-4.361 11.874 4.255 2.405 6.111 3.674 7.987 4.82-2.505-3.332-2.018-7.567-.936-10.343 1.005-2.579 3.044-4.793 5.892-5.227" fill="#fff"/><path d="M111.952 137.089c-1.784-4.884-.258-11.521 4.53-14.112" stroke="#FFE978" stroke-miterlimit="10"/><path d="M144.627 83.883c-4.589 7.084-5.039 12.273-6.921 19.358-2.028 7.635-5.063 10.897-8.518 18.051 1.543 3.152 3.484 5.229 8.267 7.451 3.269 1.519 14.196 1.951 18.186.836.342-.096 4.645-10.001 5.147-10.978 1.8-3.506 3.5-6.995 5.286-10.499.711-1.396 2.956-3.669 2.956-3.669" fill="#FFE978"/><path d="M139.844 122.024a2 2 0 0 0-.402-.022q.114-.084.234-.149c.492-.267 1.073-.31 1.677-.132l.195.059.257-.855-.195-.058c-.838-.252-1.654-.182-2.36.202-.833.451-1.454 1.308-1.796 2.477l-.05.196.008.002-.015.085a2.146 2.146 0 0 0 1.724 2.434l.08.014a2.154 2.154 0 0 0 2.447-1.804 2.16 2.16 0 0 0-1.804-2.449m-.087.891q.108.021.212.06a1.257 1.257 0 0 1-.634 2.417h-.001a1.23 1.23 0 0 1-.823-.496 1.25 1.25 0 0 1-.231-.934c.05-.332.227-.625.497-.824a1.25 1.25 0 0 1 .98-.223m55.518 54.24c.068 1.725 1.196 3.364 2.783 4.044.867.37 1.822.466 2.75.63 3.838.68 7.348 2.588 10.593 4.747 1.107.737 2.199 1.509 3.402 2.077 3.183 1.503 6.876 1.45 10.365.989 1.558-.206 3.114-.489 4.599-1.003 1.292-.446 2.628-1.174 3.125-2.448.687-1.759-.595-3.762-2.253-4.666s-3.606-1.049-5.451-1.454c-4.425-.971-8.466-3.378-12.683-5.071-4.498-1.807-9.299-2.443-14.101-1.638-1.996.335-3.209 1.744-3.129 3.793" fill="#fff"/><path d="M209.944 165.058q-.32.033-.639.073c-1.106.14-2.327.425-2.941 1.357-.211.321-.333.699-.58.994-.458.545-1.233.684-1.944.736-.988.071-1.99.047-2.972-.088-.272-.037-1.643-.192-1.814-.412l-1.319-1.702c-2.47 1.207-.013 3.507-.103 5.498-.048 1.045-.49 2.055-.437 3.1.093 1.86 1.735 3.303 3.469 3.984 1.733.68 3.632.827 5.4 1.411 3.43 1.133 6.125 3.815 9.408 5.321 2.477 1.137 5.165 1.814 7.891 1.917 2.623.099 5.595-.155 7.816-1.689 1.138-.785 2.227-1.985 1.585-3.446-.705-1.604-3.24-2.98-4.604-4.079-2.894-2.332-6.287-4.609-8.892-7.338-.891-.933-1.368-1.753-1.698-2.967-.273-1.007-.737-2.093-1.767-2.52-1.752-.727-4.025-.339-5.859-.15" fill="#432572"/><path d="M210.163 172.434c2.811-1.848 6.436-2.404 9.672-1.486m-5.45 3.972c2.49-1.612 5.704-2.092 8.577-1.28m-3.952 4.386c2.263-1.465 5.185-1.902 7.796-1.164" stroke="#fff" stroke-width="3" stroke-miterlimit="10" stroke-linecap="round"/><path d="M197.555 172.187c.263.569.944 1.21 1.536 1.42 1.487.529 3.405.226 4.587 1.446 1.099 1.135 1.406 3.153 1.203 4.657m6.621 3.262c.163-.362.516-.614.895-.731.379-.118.785-.116 1.18-.086 2.095.161 4.533 1.484 6.452.046.328-.246.609-.552.939-.796.562-.417 1.297-.495 1.974-.366 1.585.3 2.967 1.482 4.646 1.304.887-.093 1.78-.633 1.96-1.56.123-.632-.03-1.287-.251-1.893m-36.208-19.557c1.881.767 3.983.724 6.01.604 4.182-.247 9.143-.857 12.163-4.447" stroke="#FFE978" stroke-miterlimit="10"/><path d="M163.69 112.842s2.306-4.729 2.881-5.54 3.433-3.623 3.433-3.623" stroke="#000" stroke-miterlimit="10"/><path d="M131.191 123.745c1.546-3.39 2.734-6.842 4.406-10.034 1.53-2.922 3.321-5.79 4.292-8.954 1.9-6.194 2.375-13.038 6.096-18.535m-12.611 39.816c1.632-3.374 2.871-6.817 4.645-9.989 1.624-2.905 3.534-5.75 4.541-8.907 1.97-6.181 2.365-13.04 6.343-18.488" stroke="#fff" stroke-width="3" stroke-miterlimit="10"/><path d="M136.791 108.056a94 94 0 0 1 7.97-5.056m-6.081 1.183a14.4 14.4 0 0 0 3.576-3.22m23.306 8.259c3.82 1.65 7.737 3.073 11.724 4.261m-9.348-1.045c1.764 1.322 5.369 3.386 7.604 4.534" stroke="#000" stroke-miterlimit="10"/><path d="M127.542 50.308c-2.305 2.569-10.856 10.918-13.715 12.853-1.591 1.076-3.393 1.8-5.021 2.82-7.726 4.84-15.111 10.358-15.111 10.358l4.33 8.93c5.994-1.997 15.041-4.66 20.664-7.145 8.606-3.803 22.321-14.527 22.321-14.527" fill="#E9725B"/><path d="M150.105 41.207c-8.889 1.364-13.706.782-18.936 4.92-5.278 4.175-9.441 9.804-13.739 12.899.841 3.646 3.71 6.928 4.835 7.98 2.499 2.337 6.003 3.19 9.009 4.825 5.016-2.802 6.121-3.855 11.706-7.81" fill="#fff"/><path d="M117.836 65.75a10.53 10.53 0 0 0 4.076 4.261" stroke="#000" stroke-miterlimit="10"/><path d="M101.87 83.228c-1.101.797-1.752 2.056-2.579 3.135-1.107 1.444-2.551 2.588-3.98 3.715l-4.116 3.247c-.317.25-.787.5-1.084.225-.174-.16-.185-.43-.163-.665.092-.992.547-1.922 1.141-2.72.416-.561.935-1.18.796-1.865-.096-.471-.485-.822-.878-1.1-1.973-1.394-3.892-1.97-6.28-2.346-1.463-.23-3.399-.505-4.862-.735-.6-.094-1.235-.204-1.695-.601s-.728-.98-.289-1.4c.255-.243.631-.296.98-.337l3.126-.371c-1.556.049-3.096.13-4.579-.348-.36-.116-.877-.326-1.125-.613-.248-.286-.202-.993.056-1.27.4-.428 1.146-.082 1.684-.313-.31-.062-.357-.535-.14-.765.554-.584 1.525-.538 2.268-.647-.455.067-1.12-.486-.64-.875.643-.522 1.816-.676 2.63-.83.813-.155 1.734-.511 2.562-.53 1.103-.026 5.155.235 6.294.216.799-.013 4.166-.477 4.96-.575 1.147-.14 5.206-3.192 5.206-3.192" fill="#E9725B"/><path d="M79.823 81.522s3.24.072 4.441.046c.901-.02 1.802.049 2.865.25m-9.323-2.85c3.048-.068 6.094-.244 9.127.165m-6.824-1.763c1.347-.129 2.372-.341 4.118-.477.67-.052 2.491.17 3.337.32" stroke="#000" stroke-miterlimit="10"/><path d="M186.915 44.579s11.171 2.122 17.436 7.532c1.864 1.61 3.874 3.43 5.346 5.404 5.34 7.169 7.84 11.878 12.04 19.768l-9.497 4.677s-10.717-10.85-14.913-17.13c-.278-.416-.564-.84-.968-1.135-.572-.416-1.307-.52-2.009-.612l-6.967-.91" fill="#E9725B"/><path d="M157.629 39.384c4.7-.9 7.514-1.12 11.538-.314 6.168 1.234 14.818 4.147 21.086 6.143 1.266 6.719 1.634 13.937-1.431 20.07-5.776-1.138-15.855-4.117-17.501-3.878" fill="#fff"/><path d="M176.952 47.148c-.794 4.277-.329 8.686.139 13.026l1.303 12.088c.326 3.031.715 7.611 2.914 10.234.867 1.033 1.044 4.113-1.162 6.221-3.384.332-7.243 2.091-9.514 3.657-5.504 3.794-13.82 5.216-19.839 3.359-3.658-1.129-7.346-3.312-11.053-2.355-.202.052-.421.112-.614.034-.175-.072-.288-.242-.377-.409-1.104-2.067-.042-4.473-.193-6.65-.18-2.587.022-5.139-.404-7.717-.756-4.573-1.192-11.05-2.126-15.59-.366-1.778-1.44-3.44-2.84-4.667.494-1.675.894-3.049 1.726-4.591 2.288-4.247 5.775-7.743 9.648-10.566.887-.647 1.804-1.265 2.808-1.73 1.214-.56 2.535-.885 3.863-1.126 10.547-1.913 17.078 1.006 21.234 3.119" fill="#fff"/><path d="M219.943 74.49c2.633 3.823 6.008 6.681 6.195 12.243.013.405-.147 1.648-.353 1.997-.205.35-.683.57-1.03.36-.042 1.65-1.369 2.514-2.036 1.737.122.588-.476 1.655-1.053 1.821-.576.166-1.025-.101-1.52-.657-.657.76-1.514 1.165-2.214.966-.904-.258-2.007-2.173-2.007-2.173s-1.798.001-2.637-.333c-1.768-.705-1.991-2.177-2.152-3.74-.137-1.345-.125-2.7-.133-4.05-.004-.827.041-1.276-.364-2.006l-1.259-2.271" fill="#E9725B"/><path d="M215.872 90.778q-.458-.66-.964-1.282c-.431-.53-.916-1.06-1.561-1.283m6.736 3.849a9.36 9.36 0 0 0-1.311-5.255m3.97 4.181q.04-.514.07-1.03c.073-1.228.094-2.528-.5-3.605m2.406 2.896c.252-1.378.389-2.75-.139-4.047m-28.503-21.545a8.43 8.43 0 0 0 3.55-2.658m-58.519 29.834c1.428.22 2.807.748 4.016 1.539m2.647-29.145c3.371 4.95 8.581 8.342 13.928 11.04 5.346 2.7 10.623 6.755 15.701 9.93m-10.053-20.83a61.7 61.7 0 0 0 11.155 15.422m-41.418-9.654-.668-5.642c-.087-.742-.176-1.49-.398-2.203-.446-1.438-1.407-2.67-1.895-4.094m43.237 5.575s-.364-3.273-.214-4.673c.141-1.315.354-2.388 1.529-4.343" stroke="#000" stroke-miterlimit="10"/><path d="M118.057 60.853c3.723-2.733 7.567-6.95 10.741-10.306 3.173-3.357 5.141-4.966 9.609-6.14 2.063-.54 4.945-.777 7.565-1.145" stroke="#FFE978" stroke-width="2" stroke-miterlimit="10"/><path d="M118.872 62.457c3.723-2.733 7.567-6.95 10.741-10.306 3.173-3.357 5.141-4.966 9.609-6.14 2.063-.54 4.945-.777 7.565-1.145m12.07-4.312c3.888-.343 7.171-1.008 10.968-.106 3.661.87 5.67 2.273 10.808 3.633 2.461.652 9.888 2.645 9.888 2.645" stroke="#FFE978" stroke-width="2" stroke-miterlimit="10"/><path d="M158.469 42.595c3.964-.486 7.321-1.325 11.162-.388 3.703.903 5.713 2.456 10.907 3.883 2.488.683 9.996 2.776 9.996 2.776" stroke="#FFE978" stroke-width="2" stroke-miterlimit="10"/><path d="M171.311 56.856a2 2 0 0 0-.373.14q.07-.121.152-.228c.34-.44.849-.71 1.469-.79l.2-.024-.109-.878-.2.024c-.861.108-1.573.496-2.06 1.126-.574.742-.795 1.768-.639 2.964l.033.198.008-.002q.009.042.021.083c.149.55.503 1.008.996 1.291a2.12 2.12 0 0 0 1.618.208 2.134 2.134 0 0 0 1.498-2.614 2.14 2.14 0 0 0-2.614-1.498m.278.842q.106-.025.216-.03a1.25 1.25 0 0 1 1.266.918 1.246 1.246 0 0 1-.876 1.528 1.22 1.22 0 0 1-.945-.121 1.24 1.24 0 0 1-.583-.755 1.24 1.24 0 0 1 .122-.946 1.24 1.24 0 0 1 .8-.594" fill="#FFE978"/><path d="m145.25 41.818.323 3.1s1.115 4.079 6.214 3.938c8.806-.243 8.422-7.446 8.422-7.446l-3.071-9.683z" fill="#E9725B"/><path d="M156.217 28.167c-.181-2.969-1.184-6.639-3.696-8.28-2.436-1.592-5.688-1.853-8.523-1.546-2.423.262-4.815 1.256-6.036 3.486-.759 1.387-.692 3.109-.443 4.627.586 3.567 1.176 7.236 2.278 10.687.742 2.324 2.156 4.406 4.64 4.997 4.262 1.015 7.848-1.916 9.84-5.373 1.614-2.8 2.141-5.3 1.94-8.598" fill="#E9725B"/><path d="M151.916 24.779q.036.131.08.247c.306.832.868 1.542 1.273 2.33.521 1.017.774 2.15.967 3.275.132.774.294 1.645.946 2.082a.44.44 0 0 0 .245.092c.103-.002.194-.063.275-.126 1.203-.943 1.568-2.664 1.886-4.072.654-2.89 1.125-6.265-.298-9.015-.509-.985-1.936-2.142-3.679-2.037-2.519.44-2.292 5.111-1.695 7.224" fill="#64180A"/><path d="M142.91 30.218c.199 1.466-.031 2.897-.085 4.36-.049 1.293 1.184.931 2.091.636" stroke="#000" stroke-miterlimit="10"/><path d="m148.644 35.656-3.69 1.391s.92 1.346 2.165 1.05c1.246-.298 1.794-1.09 1.525-2.44" fill="#fff"/><path d="M145.274 42.26c3.288.337 5.742-1.17 7.54-3.416" stroke="#000" stroke-miterlimit="10"/><path d="M150.635 15.576c-4.222-1.23-9.127 1.437-11.899 4.53-.757.844-1.369 1.835-1.727 2.915-.197.595-.97 3.647.548 3.137.27-.09.482-.296.685-.496.42.804 1.526 1.03 2.386.742.859-.289 1.528-.958 2.163-1.606.664.75 1.833.867 2.783.549.95-.319 1.734-.99 2.492-1.645.031.426.1.917.465 1.141 1.29.794 2.912-1.078 3.618-1.93 1.071-1.29 2.248-3.023 1.71-4.787-.426-1.4-1.849-2.15-3.224-2.55" fill="#64180A"/><path d="M150.45 25.21a7.4 7.4 0 0 0 1.743-2.603" stroke="#64180A" stroke-miterlimit="10"/><path d="M149.429 23.8a20 20 0 0 0 3.75-3.945m-5.115 3.827a19.4 19.4 0 0 0 2.39-2.983m-5.352 3.393a12.8 12.8 0 0 0 3.549-3.178m-6.073 4.108a19.4 19.4 0 0 0 2.762-3.952m-5.317 4.466a9.7 9.7 0 0 0 2.509-2.422m-4.421 2.448c.261-.128.459-.352.651-.57l2.801-3.184m11.579.941a10.54 10.54 0 0 0 1.493 5.442m.098-4.92a12.2 12.2 0 0 0 1.001 5.602m.083-4.745c-.104 1.3.013 2.618.344 3.88" stroke="#42120C" stroke-miterlimit="10"/><path d="M152.691 28.638a3.14 3.14 0 0 1 2.537-1.334 3.14 3.14 0 0 1 2.539 1.33c.506.733.673 1.662.608 2.55-.114 1.57-.999 3.126-2.422 3.798-1.424.67-2.856.328-3.419-1.36" fill="#E9725B"/><path d="M158.383 31.51c-.847 3.231-2.506 3.694-3.502 3.763-1.138.078-1.989-.576-2.347-1.65m.157-4.985c.262-.381 1.247-1.449 3.385-1.163m1.064 3.081a2.12 2.12 0 0 0-1.145-1.217c-.547-.226-1.169-.13-1.648.21-.487.345-.852.906-1.063 1.46" stroke="#000" stroke-miterlimit="10"/><path d="M155.404 29.335c.336.58.577 1.237.549 1.916-.03.722-.386 1.442-.788 2.029m-10.198-5.315c.711-.673 1.69-1.023 2.668-1.078.977-.054 1.955.17 2.865.532m-12.184 2.254c.394-.462.999-.7 1.602-.771.602-.07 1.211.01 1.812.09" stroke="#000" stroke-miterlimit="10"/><path d="M149.146 30.4c.083.54-.14 1.022-.499 1.078-.359.055-.717-.337-.801-.876-.083-.54.141-1.021.499-1.077.359-.055.717.337.801.876m-7.509 1.361c.084.539-.14 1.02-.498 1.077-.359.055-.718-.337-.801-.876-.083-.54.14-1.022.499-1.077.358-.055.717.337.8.876" fill="#000"/><path d="M145.152 43.585s1.536 5.412 6.635 5.27c8.806-.242 8.616-8.52 8.616-8.52" stroke="#FFE978" stroke-width="3" stroke-miterlimit="10" stroke-linecap="round"/><path d="M120.679 179.994c6.283-3.948 8.176-12.24 4.229-18.523s-12.24-8.176-18.523-4.229-8.176 12.24-4.229 18.523 12.24 8.176 18.523 4.229" fill="#fff"/><mask id="d" style="mask-type:luminance" maskUnits="userSpaceOnUse" x="100" y="155" width="27" height="28"><path d="M120.679 179.994c6.283-3.948 8.176-12.24 4.229-18.523s-12.24-8.176-18.523-4.229-8.176 12.24-4.229 18.523 12.24 8.176 18.523 4.229" fill="#fff"/></mask><g mask="url(#d)"><path d="m126.337 175.422 1.1-4.036-1.516-3.148-.019.025-1.645-5.699-.155-3.719-3.581-2.581-2.703.619-6.667.267.024-.046-4.38-.809-3.112 2.135s.093 3.14.106 4.186l-2.013 6.264-2.519 3.094 1.887 3.875s3.289 1.124 4.149 1.427l4.543 3.351 2.342 3.065 3.681.326s2.289-3.049 2.968-3.92l4.662-3.982zm-2.644-4.143-3.592-.575-2.028-5.611 2.198-3.79 3.568 1.256 1.764 6.112zm-6.541-13.969 2.797 3.751-2.201 3.794-5.971.196-2.788-3.684 1.953-3.807zm-8.47 4.315 2.78 3.674-1.661 5.747-4.707.851-2.869-3.108 1.896-5.895c.971-.23 3.779-1.042 4.561-1.269m1.327 18.633-4.496-3.316c-.02-1.064-.196-3.894-.245-4.67l4.707-.85 4.926 3.337-.624 3.859zm4.678-1.67.628-3.886 4.647-3.615 3.588.575-.209 4.053-4.692 4.009c-.913-.294-3.27-.946-3.962-1.136" fill="#2C2935"/></g><path opacity=".15" d="M114.133 176.943c-6.879-1.643-11.124-8.552-9.482-15.431a12.8 12.8 0 0 1 2.024-4.454 13.4 13.4 0 0 0-6.218 8.433c-1.723 7.217 2.73 14.464 9.947 16.187 6.51 1.555 13.043-1.918 15.526-7.911-3.037 2.881-7.422 4.22-11.797 3.176" fill="#26217F"/></g><defs><clipPath id="a"><path fill="#fff" d="M0 0h300v200H0z"/></clipPath></defs></svg>