<svg width="470" height="146" viewBox="0 0 470 146" fill="none" xmlns="http://www.w3.org/2000/svg"><path fill="#009d88" d="M0 0h470v146H0z"/><path fill="#7ed0a4" d="M0 0h46v146H0z"/><path fill="#008272" d="M345 0h125v146H345z"/><path d="M307.4 142v-22.304h14.72v2.912h-11.456v6.528h9.952v2.912h-9.952V142zm27.285.416q-3.103 0-5.472-1.44-2.336-1.44-3.648-4.032-1.312-2.624-1.312-6.08 0-3.488 1.312-6.08 1.313-2.624 3.648-4.064 2.369-1.44 5.472-1.44 3.169 0 5.536 1.44 2.369 1.44 3.68 4.064 1.312 2.592 1.312 6.08 0 3.456-1.344 6.08-1.311 2.592-3.68 4.032-2.367 1.44-5.504 1.44m0-3.104q2.241 0 3.84-1.024 1.6-1.056 2.496-2.944.897-1.92.896-4.48 0-2.592-.896-4.48-.895-1.92-2.496-2.944-1.599-1.056-3.84-1.056-2.175 0-3.808 1.024-1.599 1.024-2.496 2.944-.864 1.888-.864 4.512 0 2.592.864 4.512.897 1.888 2.496 2.912 1.632 1.024 3.808 1.024m23.938 3.104q-3.105 0-5.472-1.44-2.337-1.44-3.648-4.032-1.312-2.624-1.312-6.08 0-3.488 1.312-6.08 1.311-2.624 3.648-4.064 2.367-1.44 5.472-1.44 3.168 0 5.536 1.44t3.68 4.064q1.312 2.592 1.312 6.08 0 3.456-1.344 6.08-1.313 2.592-3.68 4.032-2.369 1.44-5.504 1.44m0-3.104q2.24 0 3.84-1.024 1.599-1.056 2.496-2.944.896-1.92.896-4.48 0-2.592-.896-4.48-.897-1.92-2.496-2.944-1.6-1.056-3.84-1.056-2.176 0-3.808 1.024-1.6 1.024-2.496 2.944-.864 1.888-.864 4.512 0 2.592.864 4.512.895 1.888 2.496 2.912 1.632 1.024 3.808 1.024m18.59 2.688v-19.392h-7.296v-2.912h17.856v2.912h-7.264V142zm13.406 0v-22.304h7.36q3.231 0 5.056 1.472 1.856 1.472 1.856 4.128 0 1.6-.704 2.848a4.84 4.84 0 0 1-1.984 1.888q1.92.576 2.88 2.016.96 1.408.96 3.584 0 3.007-1.888 4.704-1.889 1.664-5.312 1.664zm3.264-3.008h4.736q4.191 0 4.192-3.52 0-1.696-.992-2.624-.96-.928-2.72-.928h-5.216zm0-9.984h4.48q1.471 0 2.368-.864.928-.864.928-2.368 0-1.472-.96-2.272t-2.72-.8h-4.096zM407.979 142l8.672-22.304h2.528l8.64 22.304h-3.552l-6.336-17.568L411.563 142zm5.12-4.96.992-2.912h7.616l1.088 2.912zm17.614 4.96v-22.304h3.264v19.392h9.824V142zm15.937 0v-22.304h3.264v19.392h9.824V142z" fill="#99e2c8"/></svg>