<svg width="470" height="147" viewBox="0 0 470 147" fill="none" xmlns="http://www.w3.org/2000/svg">
<rect width="470" height="146" fill="#DCD0FE"/>
<path d="M252.537 94.9408C266.48 80.9976 266.48 58.3911 252.537 44.4478C238.594 30.5046 215.987 30.5046 202.044 44.4478C188.101 58.3911 188.101 80.9976 202.044 94.9408C215.987 108.884 238.594 108.884 252.537 94.9408Z" fill="#C9B7FE"/>
<path d="M56 143L282 106" stroke="white" stroke-miterlimit="10" stroke-linecap="round" stroke-linejoin="round"/>
<path d="M178 143L312 112" stroke="white" stroke-miterlimit="10" stroke-linecap="round" stroke-linejoin="round"/>
<path d="M246 143L332 117" stroke="white" stroke-miterlimit="10" stroke-linecap="round" stroke-linejoin="round"/>
<path d="M35.4272 37C35.4272 37 195.488 57.8899 276.412 61.5139C357.335 65.1378 456 47.3109 456 47.3109" stroke="white" stroke-miterlimit="10" stroke-linecap="round" stroke-linejoin="round"/>
<path d="M12 86.8937C12 86.8937 314.188 48.7944 450.422 140" stroke="white" stroke-miterlimit="10" stroke-linecap="round" stroke-linejoin="round"/>
<path d="M12 94.2217C12 94.2217 235.847 69.6687 395.555 138.988C396.641 139.459 397.863 139.66 399 140" stroke="white" stroke-miterlimit="10" stroke-linecap="round" stroke-linejoin="round"/>
<path d="M143.427 13.7191C141.981 13.2089 140.78 11.3463 140.78 9.5709C140.78 7.79554 141.981 6.84771 143.427 7.43989L144.657 7.94388V14.1533L143.427 13.7191Z" fill="#161616"/>
<path d="M147.127 11.9902C147.127 13.666 146.035 14.6395 144.657 14.1533C143.243 13.6546 142.07 11.8179 142.07 10.0627C142.07 8.30748 143.243 7.3649 144.657 7.94394C146.035 8.50837 147.127 10.3141 147.127 11.9902Z" fill="white"/>
<path d="M153.752 17.3613C152.565 16.9426 151.582 15.2937 151.582 13.6877C151.582 12.0817 152.565 11.1823 153.752 11.6685L154.765 12.0831V17.7184L153.752 17.3613Z" fill="#161616"/>
<path d="M156.804 15.6779C156.804 17.2022 155.901 18.1194 154.765 17.7184C153.601 17.3082 152.638 15.68 152.638 14.0903C152.638 12.5007 153.601 11.6066 154.765 12.0831C155.901 12.5486 156.804 14.1537 156.804 15.6779Z" fill="white"/>
<path d="M162.314 20.3812C161.322 20.0314 160.502 18.5533 160.502 17.0871C160.502 15.621 161.322 14.7681 162.314 15.1745L163.162 15.5217V20.6802L162.314 20.3812Z" fill="#161616"/>
<path d="M164.873 18.7532C164.873 20.1507 164.115 21.0165 163.162 20.6801C162.188 20.3367 161.383 18.8753 161.383 17.4229C161.383 15.9705 162.188 15.1225 163.162 15.5214C164.115 15.9121 164.873 17.3557 164.873 18.7532Z" fill="white"/>
<path d="M169.529 22.9259C168.687 22.6293 167.993 21.2907 167.993 19.942C167.993 18.5932 168.687 17.7841 169.529 18.1287L170.249 18.4236V23.1797L169.529 22.9259Z" fill="#161616"/>
<path d="M171.706 21.357C171.706 22.6476 171.06 23.4658 170.249 23.1797C169.422 22.888 168.739 21.5635 168.739 20.2264C168.739 18.8893 169.422 18.0849 170.249 18.4236C171.06 18.7559 171.706 20.0667 171.706 21.357Z" fill="white"/>
<path d="M143.427 22.0742C141.981 21.6733 140.78 19.9015 140.78 18.1261C140.78 16.3508 141.981 15.3121 143.427 15.7951L144.657 16.2062V22.4156L143.427 22.0742Z" fill="#161616"/>
<path d="M147.127 20.0656C147.127 21.7417 146.035 22.7976 144.657 22.4156C143.243 22.0238 142.07 20.2756 142.07 18.5203C142.07 16.7651 143.243 15.7341 144.657 16.2062C146.035 16.6664 147.127 18.3898 147.127 20.0656Z" fill="white"/>
<path d="M153.752 24.9361C152.565 24.607 151.582 23.0325 151.582 21.4265C151.582 19.8205 152.565 18.8467 153.752 19.2432L154.765 19.5814V25.2167L153.752 24.9361Z" fill="#161616"/>
<path d="M156.804 23.0218C156.804 24.546 155.901 25.5315 154.765 25.2165C153.601 24.8941 152.638 23.3386 152.638 21.749C152.638 20.1593 153.601 19.1925 154.765 19.5809C155.901 19.9605 156.804 21.4976 156.804 23.0218Z" fill="white"/>
<path d="M162.314 27.3092C161.322 27.0341 160.502 25.6182 160.502 24.1521C160.502 22.6859 161.322 21.7711 162.314 22.1025L163.162 22.3857V27.5442L162.314 27.3092Z" fill="#161616"/>
<path d="M164.873 25.488C164.873 26.8855 164.115 27.8085 163.162 27.5443C162.188 27.2745 161.383 25.874 161.383 24.4216C161.383 22.9692 162.188 22.0605 163.162 22.3858C164.115 22.7041 164.873 24.0902 164.873 25.488Z" fill="white"/>
<path d="M169.529 24.5116C168.687 24.2307 167.993 25.0921 167.993 26.4408C167.993 27.7896 168.687 29.0756 169.529 29.3086L170.249 29.508V24.7519L169.529 24.5116Z" fill="#161616"/>
<path d="M171.706 27.5753C171.706 28.866 171.06 29.7329 170.249 29.5081C169.422 29.2789 168.739 28.0057 168.739 26.6687C168.739 25.3316 169.422 24.4758 170.249 24.752C171.06 25.0227 171.706 26.2847 171.706 27.5753Z" fill="white"/>
<path d="M143.427 30.429C141.981 30.1375 140.78 28.4562 140.78 26.6805C140.78 24.9049 141.981 23.776 143.427 24.1495L144.657 24.4675V30.6769L143.427 30.429Z" fill="#161616"/>
<path d="M147.127 28.1408C147.127 29.8165 146.035 30.9551 144.657 30.6774C143.243 30.3924 142.07 28.7329 142.07 26.9777C142.07 25.2225 143.243 24.1027 144.657 24.468C146.035 24.8239 147.127 26.4647 147.127 28.1408Z" fill="white"/>
<path d="M153.752 32.511C152.565 32.2716 151.582 30.7716 151.582 29.1653C151.582 27.5593 152.565 26.5113 153.752 26.8179L154.765 27.0795V32.7149L153.752 32.511Z" fill="#161616"/>
<path d="M156.804 30.3665C156.804 31.8907 155.901 32.9443 154.765 32.7153C153.601 32.4809 152.638 30.9981 152.638 29.4087C152.638 27.8191 153.601 26.7796 154.765 27.08C155.901 27.3735 156.804 28.8422 156.804 30.3665Z" fill="white"/>
<path d="M162.314 29.0306C161.322 28.7742 160.502 29.751 160.502 31.2171C160.502 32.6832 161.322 34.0372 162.314 34.2373L163.162 34.4081V29.2496L162.314 29.0306Z" fill="#161616"/>
<path d="M164.873 32.2226C164.873 33.6204 164.115 34.6003 163.162 34.4082C162.188 34.212 161.383 32.8723 161.383 31.4199C161.383 29.9675 162.188 28.998 163.162 29.2497C164.115 29.4962 164.873 30.8251 164.873 32.2226Z" fill="white"/>
<path d="M169.529 35.6913C168.687 35.5216 167.993 34.2882 167.993 32.9395C167.993 31.5907 168.687 30.6768 169.529 30.8943L170.249 31.0803V35.8364L169.529 35.6913Z" fill="#161616"/>
<path d="M171.706 33.7938C171.706 35.0844 171.06 36.0001 170.249 35.8366C169.422 35.6699 168.739 34.4484 168.739 33.1114C168.739 31.7743 169.422 30.8668 170.249 31.0805C171.06 31.2902 171.706 32.5031 171.706 33.7938Z" fill="white"/>
<path d="M351 146L217.383 106.22L131.144 116.866L186.18 145.998" stroke="#161616" stroke-miterlimit="10" stroke-linecap="round" stroke-linejoin="round"/>
<path d="M250.498 133.824C250.96 131.858 294.395 131.785 294.24 133.824C294.087 135.862 250.036 135.789 250.498 133.824Z" fill="#161616"/>
<path d="M156.237 133.824C156.698 131.858 200.133 131.785 199.979 133.824C199.825 135.862 155.775 135.789 156.237 133.824Z" fill="#161616"/>
<path d="M244.903 67.9659L242.719 68.1294L205.519 70.9303C208.394 65.0362 209.297 59.9975 209.297 59.9975L196.956 52.2621C196.956 52.2621 200.297 50.5297 204.278 48.5616C208.813 46.3211 214.177 43.7731 216.37 43.1336C218.197 42.6007 222.636 42.0231 227.211 41.7507C232.942 41.4088 238.888 41.5425 240.196 42.8364C242.551 45.1636 244.903 67.9659 244.903 67.9659Z" fill="#EE5DA0"/>
<path d="M242.719 68.1295L205.519 70.9303C208.394 65.0363 209.296 59.9976 209.296 59.9976C209.296 59.9976 226.123 65.889 240.659 67.6512C241.661 67.7726 242.335 67.9362 242.719 68.1295Z" fill="#CC3C7E"/>
<path d="M229.385 46.3008C229.385 46.3008 229.458 49.2164 229.385 50.8834" stroke="#161616" stroke-miterlimit="10" stroke-linecap="round" stroke-linejoin="round"/>
<path d="M236.789 63.7573C236.789 63.7573 241.329 64.1165 244.55 64.8044" stroke="#161616" stroke-miterlimit="10" stroke-linecap="round" stroke-linejoin="round"/>
<path d="M218.854 46.1721C218.594 49.0843 217.258 52.475 209.297 59.9972L196.956 52.2618C196.956 52.2618 200.297 50.5294 204.278 48.5613C208.813 46.3208 214.177 43.7728 216.37 43.1333C216.37 43.1333 219.117 43.2574 218.854 46.1721Z" fill="white"/>
<path d="M199.648 50.8828C199.648 50.8828 206.712 53.6282 207.913 55.0009C209.114 56.3736 207.186 56.1286 206.075 55.0499" stroke="#161616" stroke-miterlimit="10" stroke-linecap="round" stroke-linejoin="round"/>
<path d="M196.956 52.2622C200.254 50.5803 209.296 59.9976 209.296 59.9976C209.296 59.9976 209.066 61.3414 208.565 62.9795C208.565 62.9795 192.772 54.3956 196.956 52.2622Z" fill="#161616"/>
<path d="M205.519 70.93C206.379 66.6586 244.021 63.672 244.903 67.9653C245.785 72.2586 204.343 76.7741 205.519 70.93Z" fill="#161616"/>
<path d="M227.211 41.751C227.087 42.4699 226.583 42.9888 225.727 43.1216C222.035 43.6939 218.103 44.4274 218.103 44.4274C216.142 45.5081 210.873 48.8422 208.902 49.3526C206.934 49.8607 204.277 48.5619 204.277 48.5619C208.813 46.3214 214.176 43.7734 216.37 43.1339C218.197 42.601 222.636 42.0234 227.211 41.751Z" fill="#CC3C7E"/>
<path d="M230.84 42.9825C230.84 42.9825 233.229 43.0544 236.063 43.274C236.063 43.274 233.039 44.4446 229.7 48.8436C229.7 48.8436 234.118 48.5302 235.588 48.1381C237.059 47.7459 240.197 42.8371 240.197 42.8371C240.197 42.8371 239.263 41.3024 230.693 41.55C230.693 41.5494 229.948 42.3702 230.84 42.9825Z" fill="#CC3C7E"/>
<path d="M225.446 54.4915L240.491 62.9794C240.491 62.9794 249.547 47.3437 240.196 42.8367C234.666 40.171 225.446 54.4915 225.446 54.4915Z" fill="white"/>
<path d="M240.491 62.979C240.206 63.301 239.636 63.4202 238.875 63.3732C235.675 63.1799 229.115 60.0917 226.418 57.3504C225.362 56.2796 224.899 55.2634 225.447 54.4926C225.769 54.0391 226.892 54.148 228.388 54.614C232.066 55.7493 238.012 59.0133 239.995 61.2591C240.62 61.9678 240.85 62.5725 240.491 62.979Z" fill="#161616"/>
<path d="M244.223 52.7427C244.223 52.7427 243.731 55.218 243.385 56.2601C243.04 57.302 235.779 54.0996 234.948 54.5014C234.117 54.9032 238.922 57.5049 241.177 59.685" stroke="#161616" stroke-miterlimit="10" stroke-linecap="round" stroke-linejoin="round"/>
<path d="M286.071 119.055H268.005L262.586 104.213L259.276 95.1513C257.109 93.8873 251.159 92.5613 229.114 83.9155C229.114 83.9155 222.797 95.9765 218.366 100.557C218.363 100.559 218.363 100.559 218.361 100.562C213.93 105.137 195.74 119.239 195.74 119.239L177.673 119.055C177.673 119.055 186.797 107.143 192.734 99.9568C194.926 97.3002 196.684 95.2892 197.385 94.7627C198.819 93.6849 202.499 85.7904 205.507 78.9325C205.507 78.9325 205.507 78.9325 205.509 78.9302C207.948 73.3661 209.947 68.4871 209.947 68.4871C225.361 64.5249 238.176 66.2463 238.555 66.2968L238.564 66.2991C238.564 66.2991 270.797 83.2553 273.782 87.3348C274.033 87.6773 274.324 88.1828 274.653 88.824C278.257 95.8454 286.071 119.055 286.071 119.055Z" fill="#430071"/>
<path d="M238.565 66.2996C221.197 70.4066 205.751 78.7995 205.51 78.9306C207.948 73.3666 209.948 68.4876 209.948 68.4876C225.362 64.5254 238.177 66.2467 238.556 66.2973L238.565 66.2996Z" fill="#310054"/>
<path d="M286.071 119.055H268.005L262.586 104.213C267.364 99.4422 272.225 92.4809 274.654 88.8242C278.258 95.8454 286.071 119.055 286.071 119.055Z" fill="#310054"/>
<path d="M218.366 100.557C218.364 100.559 218.364 100.559 218.361 100.562C213.931 105.137 195.74 119.239 195.74 119.239L177.674 119.055C177.674 119.055 186.798 107.144 192.734 99.957C198.087 101.012 208.029 102.352 218.366 100.557Z" fill="#310054"/>
<path d="M229.115 83.9156C229.115 83.9156 230.961 77.1941 233.181 74.4061C235.4 71.6181 233.181 68.6113 233.181 68.6113" stroke="#161616" stroke-miterlimit="10" stroke-linecap="round" stroke-linejoin="round"/>
<path d="M259.276 95.151C259.276 95.151 261.16 91.256 262.524 89.8921" stroke="#161616" stroke-miterlimit="10" stroke-linecap="round" stroke-linejoin="round"/>
<path d="M198.976 92.5605C198.976 92.5605 196.528 94.893 197.386 96.8932C198.245 98.8934 199.717 103.258 199.39 103.53C199.063 103.803 196.767 100.114 195.915 100.413" stroke="white" stroke-miterlimit="10" stroke-linecap="round" stroke-linejoin="round"/>
<path d="M181.118 114.593C181.118 114.593 186.243 113.618 190.153 113.711" stroke="white" stroke-miterlimit="10" stroke-linecap="round" stroke-linejoin="round"/>
<path d="M252.562 73.8921C252.562 73.8921 255.426 75.496 255.974 75.8067C256.523 76.1174 255.16 83.1207 255.523 83.9153C255.887 84.7098 259.763 77.9734 260.357 78.3197C260.95 78.666 259.705 82.0733 259.887 83.3462C260.069 84.619 262.524 81.5279 262.524 81.5279" stroke="white" stroke-miterlimit="10" stroke-linecap="round" stroke-linejoin="round"/>
<path d="M266.946 116.154C266.946 116.154 268.373 114.018 273.707 113.123" stroke="white" stroke-miterlimit="10" stroke-linecap="round" stroke-linejoin="round"/>
<path d="M286.071 119.055C286.009 120.179 283.886 120.914 281.116 121.266C277.297 121.751 272.247 121.507 269.671 120.549C268.639 120.165 268.005 119.666 268.005 119.055C268.005 118.602 268.478 118.209 269.274 117.883C271.576 116.941 276.568 116.555 280.514 116.874C283.658 117.127 286.138 117.83 286.071 119.055Z" fill="#161616"/>
<path d="M195.74 119.055C195.682 120.101 193.837 120.811 191.343 121.19C187.56 121.762 182.288 121.565 179.528 120.615C178.386 120.225 177.673 119.703 177.673 119.055C177.673 118.237 179.227 117.616 181.422 117.226C185.069 116.582 190.49 116.582 193.508 117.395C194.901 117.77 195.781 118.317 195.74 119.055Z" fill="#161616"/>
<path d="M193.509 117.396L192.84 118.564L191.344 121.19L191.188 121.464L189.14 125.059L178.106 123.167L179.529 120.616L179.979 119.812L180.519 118.846L181.422 117.226C185.07 116.582 190.491 116.582 193.509 117.396Z" fill="#FE8F8C"/>
<path d="M193.509 117.396L192.84 118.564C186.851 118.642 179.979 119.812 179.979 119.812L180.519 118.846L181.422 117.226C185.069 116.582 190.491 116.582 193.509 117.396Z" fill="#F56961"/>
<path d="M192.357 100.413L208.287 110.711L205.091 113.711L190.493 102.704L192.357 100.413Z" fill="#CBD4DF"/>
<path d="M189.493 103.947L204.18 114.963L200.983 117.964L187.65 106.258L189.493 103.947Z" fill="#CBD4DF"/>
<path d="M208.14 113.008C197.622 122.667 189.506 128.738 189.506 128.738L185.566 126.183L182.74 124.352C182.74 124.352 203.458 101.739 206.686 98.8213C209.915 95.9037 222.045 93.0543 223.239 96.5481C223.767 98.0907 216.461 105.366 208.14 113.008Z" fill="white"/>
<path d="M208.139 113.008C197.622 122.667 189.506 128.738 189.506 128.738L185.565 126.183C189.818 121.291 196.622 114.45 208.139 113.008Z" fill="#CBD4DF"/>
<path d="M184.07 125.415C184.07 125.415 205.304 102.547 207.448 100.601C210.973 97.4024 218.121 95.4746 223.239 96.5474" stroke="#161616" stroke-miterlimit="10" stroke-linecap="round" stroke-linejoin="round"/>
<path d="M205.642 102.418L213.328 108.154" stroke="#161616" stroke-miterlimit="10" stroke-linecap="round" stroke-linejoin="round"/>
<path d="M203.859 104.274L211.383 109.996" stroke="#161616" stroke-miterlimit="10" stroke-linecap="round" stroke-linejoin="round"/>
<path d="M202.426 105.778L209.478 111.773" stroke="#161616" stroke-miterlimit="10" stroke-linecap="round" stroke-linejoin="round"/>
<path d="M202.895 131.165H170.894C170.894 131.165 170.077 132.387 169.471 133.824C169.471 133.824 191.512 133.824 194.206 133.824C196.9 133.824 202.269 132.638 202.632 132.495C202.994 132.351 202.895 131.165 202.895 131.165Z" fill="white"/>
<path d="M202.895 131.165C202.895 131.165 199.295 132.171 194.891 132.314C190.489 132.458 170.895 131.165 170.895 131.165C171.158 130.751 171.427 130.346 171.706 129.951C173.613 127.23 175.792 124.985 177.154 123.686C177.966 122.912 178.487 122.475 178.487 122.475C178.487 122.475 180.804 123.9 182.432 123.757C184.06 123.613 189.883 120.023 190.934 120.956C191.985 121.891 192.064 125.382 194.409 126.917C196.016 127.968 199.919 128.77 201.703 129.34C202.055 129.455 202.325 129.56 202.479 129.655C203.395 130.232 202.895 131.165 202.895 131.165Z" fill="#EE5DA0"/>
<path d="M187.396 123.687C187.396 123.687 192.184 122.593 192.487 122.836C192.79 123.078 188.721 124.715 188.665 125.321C188.608 125.927 193.258 124.533 193.509 124.836C193.76 125.139 190.848 126.884 189.76 127.321" stroke="white" stroke-miterlimit="10" stroke-linecap="round" stroke-linejoin="round"/>
<path d="M185.509 122.585C185.509 122.585 187.99 127.585 190.598 129.951" stroke="#161616" stroke-miterlimit="10" stroke-linecap="round" stroke-linejoin="round"/>
<path d="M201.705 129.344C199.242 131.67 195.898 129.563 195.001 129.199C194.103 128.837 191.926 130.413 190.278 130.654C188.626 130.898 188.665 129.684 188.665 129.684L194.409 126.917C196.017 127.968 199.919 128.77 201.703 129.34L201.705 129.344Z" fill="#430071"/>
<path d="M180.425 125.858C180.425 125.858 177.112 129.2 176.289 129.443C175.466 129.685 175.196 129.252 174.415 128.802C173.803 128.45 172.325 129.482 171.706 129.951C173.614 127.23 175.793 124.985 177.154 123.686C177.154 123.686 177.739 125.667 180.425 125.858Z" fill="white"/>
<path d="M179.344 126.917C179.344 126.917 183.471 127.866 184.731 128.23C185.991 128.594 179.249 131.68 179.249 131.68" stroke="#161616" stroke-miterlimit="10" stroke-linecap="round" stroke-linejoin="round"/>
<path d="M281.61 124.851H270.31L269.814 121.509L269.671 120.549L269.273 117.883C271.576 116.941 276.568 116.555 280.514 116.874L280.718 118.375L281.116 121.266L281.61 124.851Z" fill="#FE8F8C"/>
<path d="M280.719 118.375C275.309 119.377 269.814 121.51 269.814 121.51L269.671 120.549L269.273 117.883C271.576 116.941 276.568 116.555 280.514 116.874L280.719 118.375Z" fill="#F56961"/>
<path d="M263.34 106.325L279.181 96.4883L280.452 100.684L264.249 108.815L263.34 106.325Z" fill="#CBD4DF"/>
<path d="M264.845 110.346L281.215 102.079L282.487 106.274L265.859 113.124L264.845 110.346Z" fill="#CBD4DF"/>
<path d="M281.973 99.7821C285.965 113.493 287.806 123.459 287.806 123.459L283.768 125.858L280.874 127.578C280.874 127.578 269.797 98.9794 268.614 94.7918C267.431 90.6039 270.258 78.4684 273.919 78.9479C275.535 79.159 278.815 88.934 281.973 99.7821Z" fill="white"/>
<path d="M281.973 99.7822C285.965 113.493 287.806 123.459 287.806 123.459L283.768 125.858C281.27 119.877 278.157 110.744 281.973 99.7822Z" fill="#CBD4DF"/>
<path d="M282.416 126.857C282.416 126.857 271.339 97.6833 270.547 94.8991C269.244 90.3203 270.686 83.0591 273.918 78.9478" stroke="#161616" stroke-miterlimit="10" stroke-linecap="round" stroke-linejoin="round"/>
<path d="M271.375 97.3234L279.924 92.979" stroke="#161616" stroke-miterlimit="10" stroke-linecap="round" stroke-linejoin="round"/>
<path d="M272.247 99.7447L280.712 95.5391" stroke="#161616" stroke-miterlimit="10" stroke-linecap="round" stroke-linejoin="round"/>
<path d="M272.959 101.696L281.459 98.0347" stroke="#161616" stroke-miterlimit="10" stroke-linecap="round" stroke-linejoin="round"/>
<path d="M299.019 131.165H267.018C267.018 131.165 266.855 132.386 267.018 133.824C267.018 133.824 289.059 133.824 291.753 133.824C294.447 133.824 299.182 132.638 299.468 132.494C299.754 132.35 299.019 131.165 299.019 131.165Z" fill="white"/>
<path d="M299.019 131.164C299.019 131.164 295.958 132.171 291.631 132.313C287.305 132.458 267.019 131.164 267.019 131.164C267.061 130.75 267.113 130.346 267.18 129.95C267.63 127.229 268.607 124.984 269.274 123.686C269.671 122.911 269.958 122.474 269.958 122.474C269.958 122.474 273.038 123.899 274.589 123.757C276.141 123.612 280.04 120.022 281.592 120.955C283.143 121.891 285.092 125.382 288.259 126.917C290.429 127.967 294.761 128.769 296.85 129.339C297.264 129.454 297.59 129.56 297.794 129.654C299.019 130.231 299.019 131.164 299.019 131.164Z" fill="#EE5DA0"/>
<path d="M280.68 124.32C280.68 124.32 285.02 122.02 285.375 122.175C285.731 122.331 282.227 124.968 282.33 125.569C282.433 126.169 286.561 123.614 286.882 123.842C287.203 124.069 284.845 126.511 283.907 127.216" stroke="white" stroke-miterlimit="10" stroke-linecap="round" stroke-linejoin="round"/>
<path d="M277.039 122.584C277.039 122.584 282.198 127.584 286.073 129.951" stroke="#161616" stroke-miterlimit="10" stroke-linecap="round" stroke-linejoin="round"/>
<path d="M296.855 129.344C295.637 131.67 291.164 129.562 290.073 129.199C288.981 128.836 287.648 130.413 286.129 130.654C284.608 130.897 283.996 129.684 283.996 129.684L288.259 126.917C290.429 127.967 294.761 128.769 296.85 129.339L296.855 129.344Z" fill="#430071"/>
<path d="M273.707 125.857C273.707 125.857 272.183 129.199 271.492 129.443C270.797 129.684 270.296 129.252 269.274 128.801C268.474 128.45 267.548 129.482 267.18 129.95C267.631 127.229 268.607 124.984 269.274 123.686C269.274 123.686 270.919 125.667 273.707 125.857Z" fill="white"/>
<path d="M273.194 126.917C273.194 126.917 277.829 127.866 279.284 128.23C280.738 128.593 275.649 131.679 275.649 131.679" stroke="#161616" stroke-miterlimit="10" stroke-linecap="round" stroke-linejoin="round"/>
<path d="M207.288 66.8267C207.288 66.8267 215.744 63.7575 226.672 63.9239C233.57 64.0291 233.314 63.2115 228.776 62.9793C224.239 62.7472 218.871 62.9779 222.532 60.688" stroke="white" stroke-miterlimit="10" stroke-linecap="round" stroke-linejoin="round"/>
<path d="M190.247 62.7371C192.422 64.0138 197.831 65.3374 197.831 65.3374L196.524 54.2435C196.524 54.2435 191.948 53.9637 191.164 53.7354C190.379 53.5073 187.764 52.1332 186.213 52.4623C184.661 52.7913 181.358 57.2318 181.489 58.6997C181.62 60.1673 183.45 60.0753 183.45 60.0753C183.45 60.0753 183.058 60.5676 183.189 62.1508C183.319 63.734 185.022 62.7371 185.022 62.7371C185.022 62.7371 184.512 64.8471 185.346 65.3374C186.179 65.8277 187.84 66.0084 187.867 65.3543C187.895 64.7003 187.356 64.1119 187.356 64.1119C187.356 64.1119 189.001 62.0054 190.247 62.7371Z" fill="#CBD4DF"/>
<path d="M196.524 54.2433C195.319 54.4097 195.398 65.3784 197.831 65.3372C200.265 65.2961 198.814 53.9271 196.524 54.2433Z" fill="#161616"/>
<path d="M196.25 65.4637C196.25 65.4637 205.089 69.5716 209.348 67.2709C216.541 63.3844 202.975 54.4375 202.975 54.4375L196.095 54.5391C196.095 54.5391 194.981 60.0421 196.25 65.4637Z" fill="#F56961"/>
<path d="M183.749 53.8039C183.749 53.8039 182.936 53.1145 182.042 52.3582C181.238 51.6747 180.373 50.9382 179.976 50.5951C179.976 50.5951 170.426 28.6332 166.8 7.65713C166.8 7.65713 168.426 6.60038 170.825 6.17669C172.144 5.939 173.7 5.89725 175.347 6.32824C175.347 6.32824 182.26 39.3123 186.393 48.0918C186.578 48.4851 186.163 50.4404 186.711 52.6707L185.231 53.2383L183.749 53.8039Z" fill="#EE5DA0"/>
<path d="M182.042 52.3583C181.238 51.6747 180.373 50.9383 179.976 50.5952C179.976 50.5952 170.426 28.6333 166.8 7.6572C166.8 7.6572 168.426 6.60045 170.825 6.17676C172.439 13.1506 179.194 42.1815 180.974 47.1537C181.669 49.0946 181.959 50.8662 182.042 52.3583Z" fill="#CC3C7E"/>
<path d="M183.75 53.8043L186.712 52.6714L194.111 71.5141C194.111 71.5141 193.227 72.9192 191.149 72.6471L183.75 53.8043Z" fill="#CDF463"/>
<path d="M184.285 63.3807C184.285 63.3807 182.389 63.5475 182.102 61.6795C182.102 61.6795 180.547 60.8856 180.493 59.8691C180.479 59.5894 180.479 59.5894 180.479 59.5894C180.479 59.5894 179.84 59.5894 179.447 58.8051C179.055 58.0208 182.551 53.2136 183.81 53.983C185.069 54.7524 184.605 55.9464 184.605 55.9464C184.605 55.9464 185.862 55.5315 186.119 56.5146C186.377 57.4978 185.889 58.0882 185.889 58.0882C185.889 58.0882 187.227 57.7591 187.423 59.1318C187.619 60.5048 186.05 63.0537 184.285 63.3807Z" fill="#CBD4DF"/>
<path d="M180.479 59.5893C180.479 59.5893 181.892 56.4503 184.604 55.9463" stroke="#161616" stroke-miterlimit="10" stroke-linecap="round" stroke-linejoin="round"/>
<path d="M182.103 61.6792C182.103 61.6792 182.789 58.2824 185.889 58.0879" stroke="#161616" stroke-miterlimit="10" stroke-linecap="round" stroke-linejoin="round"/>
<path d="M191.164 53.7354C191.164 53.7354 188.352 52.2252 186.129 52.0605C183.907 51.8958 184.954 55.6235 188.647 55.6226C192.339 55.622 191.623 54.3982 191.164 53.7354Z" fill="#CBD4DF"/>
<path d="M187.861 55.5605C187.861 55.5605 189.897 56.5385 191.543 55.6224" stroke="#161616" stroke-miterlimit="10" stroke-linecap="round" stroke-linejoin="round"/>
<path d="M192.665 67.7948C194.84 69.0714 200.249 70.395 200.249 70.395L198.941 59.3011C198.941 59.3011 194.365 59.0213 193.581 58.793C192.797 58.5649 190.182 57.1908 188.63 57.5199C187.078 57.849 183.776 62.2894 183.907 63.7573C184.037 65.2249 185.868 65.1329 185.868 65.1329C185.868 65.1329 185.476 65.6252 185.606 67.2084C185.737 68.7916 187.439 67.7948 187.439 67.7948C187.439 67.7948 186.93 69.9048 187.763 70.395C188.597 70.8853 190.257 71.066 190.285 70.412C190.313 69.7579 189.773 69.1695 189.773 69.1695C189.773 69.1695 191.418 67.063 192.665 67.7948Z" fill="white"/>
<path d="M201.432 68.9352C201.264 69.9193 200.889 70.524 200.248 70.3949C199.601 70.2662 199.068 69.5224 198.661 68.4742C197.425 65.2917 197.368 59.3135 198.932 59.3013H198.944C200.52 59.3211 201.948 65.9162 201.432 68.9352Z" fill="#161616"/>
<path d="M185.868 65.1331C185.868 65.1331 187.323 61.1295 188.303 60.6883C189.284 60.2471 190.853 60.6883 190.853 60.6883" stroke="#161616" stroke-miterlimit="10" stroke-linecap="round" stroke-linejoin="round"/>
<path d="M187.44 67.7951C187.44 67.7951 188.843 64.4961 189.98 64.014C190.721 63.6998 192.176 64.5776 192.52 64.4958" stroke="#161616" stroke-miterlimit="10" stroke-linecap="round" stroke-linejoin="round"/>
<path d="M189.773 69.1696C189.773 69.1696 191.391 67.4915 192.519 67.4238C193.647 67.356 194.48 67.7853 194.48 67.7853" stroke="#161616" stroke-miterlimit="10" stroke-linecap="round" stroke-linejoin="round"/>
<path d="M239.995 61.2588C239.849 61.5514 239.629 61.9874 239.344 62.5203C239.202 62.7831 239.046 63.068 238.875 63.3729C237.966 64.9839 236.652 67.0883 235.148 68.8231C233.931 70.2258 232.587 71.3909 231.229 71.8616C230.277 72.1913 228.21 72.2211 225.534 72.0576C218.68 71.6435 207.822 69.9832 201.433 68.9346C200.372 68.7612 199.437 68.605 198.661 68.4736C197.425 65.291 197.368 59.3129 198.932 59.3007H198.944L225.214 59.023L226.418 57.3501L226.834 56.7725L228.388 54.6138C232.067 55.7491 238.013 59.0133 239.995 61.2588Z" fill="#FE8F8C"/>
<path d="M239.996 61.2588C239.849 61.5514 239.629 61.9874 239.344 62.5203C232.897 58.7231 226.835 56.7725 226.835 56.7725L228.389 54.6138C232.067 55.7491 238.013 59.0133 239.996 61.2588Z" fill="#F56961"/>
<path d="M235.148 68.8236C233.931 70.2264 232.588 71.3914 231.229 71.8622C230.278 72.1918 228.21 72.2216 225.534 72.0581C226.074 71.0121 227.427 69.1533 230.468 68.2933C232.345 67.7628 233.941 68.1765 235.148 68.8236Z" fill="#F56961"/>
<path d="M225.214 59.0234C225.214 59.0234 227.431 61.0543 228.776 62.9795" stroke="#7B1732" stroke-width="0.75" stroke-miterlimit="10" stroke-linecap="round"/>
<path d="M232.859 41.5902C232.492 41.1041 230.236 40.4126 230.236 40.4126H226.119C226.119 40.4126 223.863 41.1041 223.495 41.5902C223.128 42.0764 223.864 46.7326 223.941 47.1248C224.018 47.517 227.466 45.1833 227.466 45.1833H228.888C228.888 45.1833 232.336 47.5172 232.413 47.1248C232.49 46.7326 233.227 42.0764 232.859 41.5902Z" fill="white"/>
<path d="M225.727 43.1216C225.727 43.1216 225.088 42.0806 224.774 41.7512C224.459 41.4216 226.502 40.552 228.177 40.5701C229.852 40.5882 230.882 40.9807 231.298 41.2256C231.715 41.4706 230.839 42.9829 230.839 42.9829L225.727 43.1216Z" fill="#161616"/>
<path d="M222.069 36.9221C222.069 36.9221 222.636 35.4566 226.941 34.4235C231.245 33.3904 236.315 34.5271 236.315 34.5271C235.883 36.2426 234.811 34.9914 234.294 36.8897C234.004 37.9549 234.339 39.7288 231.726 40.349C228.71 41.0644 223.405 42.9146 222.069 36.9221Z" fill="#161616"/>
<path d="M231.01 38.2489C231.01 38.2489 233.237 37.111 233.444 36.9156C233.652 36.7203 232.787 35.8761 232.787 35.8761C232.787 35.8761 233.905 35.7351 233.864 34.6625C233.845 34.1562 233.101 33.7857 233.101 33.7857C233.639 31.3913 231.307 31.4199 230.538 31.0452C229.546 30.5617 229.807 29.6361 229.518 29.5412C228.89 29.335 226.376 31.8842 226.376 31.8842C226.376 31.8842 226.74 30.6884 226.343 30.5573C225.713 30.3491 222.823 32.8349 222.629 33.677C222.383 34.7446 222.445 37.3571 224.72 39.6111C224.72 39.6111 224.097 40.8316 224.411 40.9835C224.726 41.135 225.724 40.3904 225.724 40.3904C225.724 40.3904 225.619 41.3126 225.902 41.3292C226.184 41.3458 226.904 40.3609 226.904 40.3609C226.904 40.3609 227.366 41.6408 228.239 41.545C229.112 41.4486 231.01 38.2489 231.01 38.2489Z" fill="#FEDB62"/>
<path d="M230.839 42.9827L230.32 38.3866L225.446 38.0029L225.726 43.1217C225.726 43.1217 227.961 46.3401 229.385 46.3013C229.968 46.2849 230.839 42.9827 230.839 42.9827Z" fill="#FE8F8C"/>
<path d="M227.96 38.3257C227.96 38.3257 226.541 39.8479 226.889 40.7989C227.237 41.75 229.462 42.8882 230.718 41.9071L230.32 38.3864L227.96 38.3257Z" fill="#F56961"/>
<path d="M228.218 33.7489C230.087 33.1477 231.475 34.5081 232.069 36.3801C232.588 38.0127 232.805 40.1656 230.212 40.8188C228.127 41.3441 226.1 39.1813 225.788 37.4395C225.476 35.6974 226.161 34.4109 228.218 33.7489Z" fill="#FE8F8C"/>
<path d="M231.78 33.778C231.78 33.778 229.492 35.8147 226.992 35.4267C226.753 35.3896 228.247 34.2216 228.247 34.2216C228.247 34.2216 226.395 34.7329 225.971 35.7572C225.867 36.0104 226.936 37.0213 226.223 38.2243C226.223 38.2243 224.002 39.1281 223.941 35.9088C223.928 35.262 225.097 32.9724 226.355 32.5417C229.047 31.6196 231.031 32.2284 231.78 33.778Z" fill="#FEDB62"/>
<path d="M230.924 34.402C230.924 34.402 231.597 34.0346 231.672 33.5776" stroke="#161616" stroke-width="0.75" stroke-miterlimit="10" stroke-linecap="round"/>
<path d="M227.896 36.9703C227.945 37.1247 227.914 37.2719 227.828 37.2994C227.741 37.3268 227.632 37.2237 227.583 37.0693C227.534 36.9148 227.564 36.7676 227.651 36.7402C227.737 36.713 227.847 36.8161 227.896 36.9703Z" fill="#7B1732"/>
<path d="M230.624 36.1066C230.673 36.2611 230.643 36.4085 230.556 36.4357C230.47 36.4631 230.36 36.36 230.311 36.2056C230.263 36.0511 230.293 35.9039 230.379 35.8765C230.466 35.849 230.576 35.9521 230.624 36.1066Z" fill="#7B1732"/>
<path d="M226.669 38.6008C226.587 37.4766 224.235 37.4526 224.284 38.373C224.365 39.8719 226.743 39.6108 226.669 38.6008Z" fill="#FE8F8C"/>
<path d="M224.773 38.5445C225.243 38.3947 225.795 38.5489 226.118 38.9203" stroke="#7B1732" stroke-width="0.75" stroke-miterlimit="10" stroke-linecap="round"/>
<path d="M227.292 39.9404C227.292 39.9404 228.877 41.7009 231.229 40.4108" stroke="#7B1732" stroke-width="0.75" stroke-miterlimit="10" stroke-linecap="round"/>
<path d="M228.91 35.5454C228.91 35.5454 228.628 35.5708 228.729 36.0351C228.83 36.4994 229.74 37.2081 230.363 37.4206C230.985 37.6329 230.684 38.4009 229.814 38.1238" stroke="#7B1732" stroke-width="0.75" stroke-miterlimit="10" stroke-linecap="round"/>
<path d="M228.609 39.2041C228.934 39.367 229.431 39.2575 229.673 39.2061" stroke="#7B1732" stroke-width="0.75" stroke-miterlimit="10" stroke-linecap="round"/>
<path d="M224.285 38.3737C224.285 38.3737 226.133 40.4807 227.211 40.9415C228.289 41.4023 234.18 40.2766 234.37 39.9411C234.948 38.9212 233.442 34.4121 233.442 34.4121" stroke="white" stroke-miterlimit="10" stroke-linecap="round" stroke-linejoin="round"/>
<path d="M226.201 34.6157C226.201 34.6157 227.693 40.0095 229.056 41.0511" stroke="white" stroke-miterlimit="10" stroke-linecap="round" stroke-linejoin="round"/>
<path d="M225.215 39.4284C225.215 39.4284 226.694 39.0687 227.525 38.4885C227.525 38.4885 232.715 38.0347 234.229 37.2524" stroke="white" stroke-miterlimit="10" stroke-linecap="round" stroke-linejoin="round"/>
<path d="M226.119 40.4129C226.119 40.4129 227.41 40.1437 228.177 39.8759C228.177 39.8759 233.393 39.3462 234.502 38.9214" stroke="white" stroke-miterlimit="10" stroke-linecap="round" stroke-linejoin="round"/>
<path d="M236.315 34.526C236.01 34.7988 233.386 34.107 230.179 34.5211C228.025 34.7988 225.11 35.7851 223.425 36.4021C222.599 36.707 222.069 36.9228 222.069 36.9228C221.972 32.9548 222.877 30.7239 226.669 29.6978C226.669 29.6952 226.672 29.6952 226.672 29.6952C226.996 29.6058 227.341 29.529 227.708 29.4572C232.372 28.5599 233.242 32.932 233.636 33.066C234.033 33.2024 235.381 33.6486 235.956 33.775C236.531 33.9015 236.62 34.2559 236.315 34.526Z" fill="#EE5DA0"/>
<path d="M226.668 29.6978C224.106 31.2021 223.546 34.7663 223.424 36.4021C222.599 36.7069 222.068 36.9227 222.068 36.9227C221.972 32.9547 222.876 30.7238 226.668 29.6978Z" fill="#CC3C7E"/>
<path d="M222.069 36.922C222.069 36.922 222.381 41.0138 224.226 41.231C226.071 41.4483 226.895 40.5036 225.5 35.6851C225.5 35.6851 222.928 36.3149 222.069 36.922Z" fill="#430071"/>
<path d="M359.368 69.2371C363.917 69.112 367.504 65.3226 367.379 60.7733C367.254 56.224 363.464 52.6375 358.915 52.7626C354.366 52.8878 350.779 56.6772 350.904 61.2265C351.03 65.7758 354.819 69.3623 359.368 69.2371Z" fill="#EE5DA0"/>
<path d="M353.966 59.1192C353.621 57.5529 353.669 55.9924 354.039 54.5371C351.641 56.4322 350.395 59.5922 351.096 62.7776C352.074 67.2225 356.47 70.0333 360.914 69.0556C362.503 68.7064 363.88 67.9192 364.953 66.8507C359.893 67.5057 355.083 64.1965 353.966 59.1192Z" fill="#CC3C7E"/>
<path d="M355.556 53.5898C355.556 53.5898 357.377 62.5034 366.9 63.7897" stroke="white" stroke-miterlimit="10" stroke-linecap="round" stroke-linejoin="round"/>
<path d="M351.959 56.9751C351.959 56.9751 353.008 68.0939 363.93 67.7149" stroke="white" stroke-miterlimit="10" stroke-linecap="round" stroke-linejoin="round"/>
<path d="M354.039 54.5371C354.039 54.5371 354.071 54.6907 354.145 54.9611" stroke="white" stroke-linecap="round" stroke-linejoin="round"/>
<path d="M354.402 55.792C355.302 58.4273 358.11 64.3651 365.306 65.221" stroke="white" stroke-linecap="round" stroke-linejoin="round" stroke-dasharray="2.98 2.98"/>
<path d="M365.74 65.2661C365.884 65.279 366.03 65.2895 366.177 65.2982" stroke="white" stroke-linecap="round" stroke-linejoin="round"/>
<path d="M352.642 55.9448C352.642 55.9448 352.666 56.0999 352.729 56.3729" stroke="white" stroke-linecap="round" stroke-linejoin="round"/>
<path d="M352.961 57.2241C353.763 59.8057 356.382 65.4979 364.08 66.7328" stroke="white" stroke-linecap="round" stroke-linejoin="round" stroke-dasharray="3.02 3.02"/>
<path d="M364.518 66.7974C364.661 66.8166 364.806 66.8344 364.952 66.8508" stroke="white" stroke-linecap="round" stroke-linejoin="round"/>
<path d="M159.582 81.4842C159.485 80.8562 166.626 80.0529 166.722 80.8579C166.818 81.6628 159.749 82.5749 159.582 81.4842Z" fill="#161616"/>
<path d="M167.154 80.8144C167.058 80.1864 173.879 79.2892 173.975 80.0941C174.071 80.8993 167.321 81.9054 167.154 80.8144Z" fill="#161616"/>
<path d="M163.928 112.377L162.084 112.465L159.763 91.1087L159.67 90.2478L159.432 88.0695L159.339 87.2086L158.818 82.4186L160.725 82.2613L161.23 87.0082L161.32 87.8693L161.551 90.0449L161.645 90.9087L163.928 112.377Z" fill="#161616"/>
<path d="M161.23 87.0081L161.32 87.8691L159.432 88.0694L159.339 87.2085L161.23 87.0081Z" fill="#CC3C7E"/>
<path d="M161.552 90.0447L161.645 90.9085L159.763 91.1084L159.67 90.2475L161.552 90.0447Z" fill="#CC3C7E"/>
<path d="M170.983 111.6L169.139 111.687L166.819 90.3571L166.726 89.4933L166.489 87.3208L166.396 86.457L165.873 81.6408L167.78 81.4835L168.289 86.2565L168.38 87.1205L168.611 89.2932L168.701 90.1571L170.983 111.6Z" fill="#161616"/>
<path d="M168.289 86.2565L168.379 87.1204L166.489 87.3208L166.395 86.457L168.289 86.2565Z" fill="#CC3C7E"/>
<path d="M168.611 89.2931L168.701 90.157L166.819 90.357L166.726 89.4932L168.611 89.2931Z" fill="#CC3C7E"/>
<path d="M178.038 110.822L176.195 110.909L173.879 89.6088L173.785 88.7421L173.548 86.5725L173.455 85.7058L172.928 80.8635L174.835 80.7062L175.345 85.5054L175.439 86.3721L175.667 88.5421L175.761 89.4088L178.038 110.822Z" fill="#161616"/>
<path d="M175.439 86.3724L173.548 86.5728L173.455 85.7061L175.346 85.5057L175.439 86.3724Z" fill="#CC3C7E"/>
<path d="M175.761 89.4089L173.879 89.6089L173.786 88.7422L175.667 88.5422L175.761 89.4089Z" fill="#CC3C7E"/>
<path d="M48 52.5294C50.6539 48.4676 57.9965 44.5221 70.2164 41.7808C82.4364 39.0396 99.7866 37.6365 115.744 38.568C133.354 39.5961 146.613 43.124 159.132 46.4012C184.005 52.9125 210.488 59.1254 240.857 63.9451C271.226 68.7649 305.81 72.1594 341.681 72.6318C355.835 72.8184 370.443 72.5267 383.274 71.0135C396.104 69.5004 406.928 66.6 409.287 63.0884" stroke="#161616" stroke-miterlimit="10" stroke-linecap="round" stroke-linejoin="round"/>
<path d="M375.062 81.7202C389.512 80.172 402.457 75.7161 410 69.6938" stroke="#161616" stroke-miterlimit="10" stroke-linecap="round" stroke-linejoin="round"/>
<path d="M199.968 17.0661C202.117 17.1123 204.283 16.6062 205.783 15.7077C206.961 15.0014 207.945 14.001 209.624 13.8903C211.599 13.7601 213.342 14.988 215.29 14.7608C217.522 14.5006 217.857 12.7323 219.272 11.6933C220.279 10.9546 222.009 10.5773 223.6 10.7499C225.191 10.9222 226.573 11.637 227.058 12.5372C227.471 13.3055 227.602 14.3888 228.967 14.5129C230.368 14.6402 231.7 13.4783 232.908 13.9114C233.671 14.185 233.579 14.8799 234.207 15.2516C235.255 15.8713 240.807 15.5039 242.297 15.4528C243.917 15.3974 251.779 16.0395 251.371 16.9552C250.948 17.905 228.464 18.0297 226.752 18.0692C221.797 18.183 216.836 18.1173 211.88 18.1854C209.366 18.2198 194.77 18.3539 194.783 17.618C194.803 16.4509 198.862 17.0422 199.968 17.0661Z" stroke="white" stroke-miterlimit="10" stroke-linecap="round" stroke-linejoin="round"/>
<path d="M261.699 30.0837C261.793 29.6816 262.318 29.4793 262.786 29.3949C265.219 28.9549 268.041 29.9182 270.091 28.7102C270.931 28.2158 271.544 27.3921 272.529 27.1704C273.886 26.8647 275.188 27.8479 276.59 27.9194C278.583 28.021 279.997 26.3572 281.12 24.9401C282.242 23.5228 284.021 21.9997 285.923 22.5236C287.19 22.8728 287.888 23.9982 288.56 24.9842C289.231 25.9703 290.223 27.0145 291.554 26.9906C292.571 26.9722 293.599 26.3152 294.524 26.6755C294.866 26.8084 295.119 27.0607 295.409 27.2642C296.836 28.2666 298.907 28.0044 300.743 27.859C302.579 27.7139 304.823 27.9375 305.622 29.3634C305.704 29.5105 305.768 29.6752 305.73 29.8352C305.64 30.2052 305.104 30.3243 304.667 30.3696C299.666 30.887 261.095 32.6679 261.699 30.0837Z" stroke="white" stroke-miterlimit="10" stroke-linecap="round" stroke-linejoin="round"/>
<path d="M17.1856 13.3576C19.3339 13.4038 21.5005 12.8977 22.9999 11.9993C24.1787 11.2929 25.1622 10.2925 26.8415 10.1818C28.816 10.0516 30.5589 11.2795 32.5075 11.0523C34.7389 10.7921 35.0739 9.02377 36.4898 7.98483C37.4966 7.24607 39.2267 6.86881 40.8175 7.04138C42.4083 7.21366 43.7906 7.92848 44.2751 8.82871C44.6885 9.59697 44.8196 10.6803 46.1839 10.8044C47.5852 10.9317 48.9176 9.76983 50.1256 10.2029C50.888 10.4765 50.796 11.1714 51.4247 11.5431C52.4724 12.1628 58.0248 11.7954 59.5143 11.7443C61.134 11.6889 68.9964 12.331 68.5884 13.2467C68.1653 14.1965 45.6813 14.3212 43.9696 14.3607C39.0144 14.4745 34.0536 14.4088 29.0969 14.4769C26.5834 14.5113 11.9875 14.6454 12 13.9095C12.0199 12.7424 16.0792 13.3337 17.1856 13.3576Z" stroke="white" stroke-miterlimit="10" stroke-linecap="round" stroke-linejoin="round"/>
<path d="M78.9167 26.3752C79.0107 25.9731 79.5355 25.7708 80.0029 25.6864C82.4368 25.2464 85.2584 26.2097 87.3088 25.0017C88.148 24.5073 88.7609 23.6836 89.7458 23.4619C91.1036 23.1562 92.4056 24.1394 93.8072 24.2109C95.8007 24.3125 97.2143 22.6487 98.337 21.2317C99.4595 19.8143 101.238 18.2912 103.14 18.8151C104.407 19.1643 105.106 20.2897 105.777 21.2757C106.448 22.2618 107.441 23.306 108.771 23.2821C109.788 23.2637 110.816 22.6067 111.742 22.967C112.083 23.0999 112.337 23.3522 112.627 23.5557C114.053 24.5581 116.125 24.2959 117.961 24.1505C119.797 24.0054 122.04 24.229 122.839 25.6549C122.922 25.802 122.985 25.9667 122.947 26.1267C122.857 26.4967 122.321 26.6158 121.884 26.6611C116.884 27.1785 78.312 28.9594 78.9167 26.3752Z" stroke="white" stroke-miterlimit="10" stroke-linecap="round" stroke-linejoin="round"/>
<path d="M358.186 15.3576C360.334 15.4038 362.501 14.8977 364 13.9993C365.179 13.2929 366.162 12.2925 367.841 12.1818C369.816 12.0516 371.559 13.2795 373.507 13.0523C375.739 12.7921 376.074 11.0238 377.49 9.98483C378.497 9.24607 380.227 8.86881 381.817 9.04138C383.408 9.21366 384.791 9.92848 385.275 10.8287C385.689 11.597 385.82 12.6803 387.184 12.8044C388.585 12.9317 389.918 11.7698 391.126 12.2029C391.888 12.4765 391.796 13.1714 392.425 13.5431C393.472 14.1628 399.025 13.7954 400.514 13.7443C402.134 13.6889 409.996 14.331 409.588 15.2467C409.165 16.1965 386.681 16.3212 384.97 16.3607C380.014 16.4745 375.054 16.4088 370.097 16.4769C367.583 16.5113 352.987 16.6454 353 15.9095C353.02 14.7424 357.079 15.3337 358.186 15.3576Z" stroke="white" stroke-miterlimit="10" stroke-linecap="round" stroke-linejoin="round"/>
<path d="M419.917 28.3752C420.011 27.9731 420.535 27.7708 421.003 27.6864C423.437 27.2464 426.258 28.2097 428.309 27.0017C429.148 26.5073 429.761 25.6836 430.746 25.4619C432.104 25.1562 433.406 26.1394 434.807 26.2109C436.801 26.3125 438.214 24.6487 439.337 23.2317C440.459 21.8143 442.238 20.2912 444.14 20.8151C445.407 21.1643 446.106 22.2897 446.777 23.2757C447.448 24.2618 448.441 25.306 449.771 25.2821C450.788 25.2637 451.816 24.6067 452.742 24.967C453.083 25.0999 453.337 25.3522 453.627 25.5557C455.053 26.5581 457.125 26.2959 458.961 26.1505C460.797 26.0054 463.04 26.229 463.839 27.6549C463.922 27.802 463.985 27.9667 463.947 28.1267C463.857 28.4967 463.321 28.6158 462.884 28.6611C457.884 29.1785 419.312 30.9594 419.917 28.3752Z" stroke="white" stroke-miterlimit="10" stroke-linecap="round" stroke-linejoin="round"/>
</svg>
