<svg width="325" height="229" viewBox="0 0 325 229" fill="none" xmlns="http://www.w3.org/2000/svg"><path d="M252.062 172.749a21 21 0 0 0-.894-.032c-9.759-.138-19.051 5.665-27.351 11.188-8.678 5.776-17.103 12.405-23.782 21.187-1.4 1.841-2.744 4.691-1.403 6.594.87 1.234 2.52 1.278 3.727.555 1.208-.724 2.083-2.03 2.941-3.276 4.162-6.037 8.912-11.618 14.585-15.523 5.755-3.963 12.644-6.039 19.288-5.154 7.228.963 13.598 6.08 21.028 6.081 5.716.002 8.704-3.757 7.678-10.409-1.223-7.936-9.822-10.872-15.817-11.211" fill="#FAB799"/><path d="m245.882 168.331-.03-.42c-1 .101-1.971.238-2.9.41-1.967.364-4.145 1.174-5.866 2.449-.859.639-1.605 1.395-2.144 2.286a5.84 5.84 0 0 0-.863 3.058q-.001.62.13 1.276c.366 1.81 1.369 3.356 2.769 4.648 2.104 1.94 5.117 3.346 8.437 4.283 3.319.935 6.943 1.394 10.262 1.394 3.36-.002 6.402-.466 8.522-1.413 1.646-.738 2.87-1.818 3.679-3.093.81-1.275 1.201-2.741 1.201-4.219-.002-3.113-1.718-6.256-4.755-7.996-4.049-2.317-9.406-3.277-14.508-3.279-1.349 0-2.68.068-3.964.196zl.031.42a39 39 0 0 1 3.903-.194c5.024-.002 10.301.96 14.194 3.195 2.831 1.623 4.354 4.497 4.353 7.238a6.9 6.9 0 0 1-1.059 3.715c-.719 1.131-1.82 2.119-3.36 2.81-1.981.889-4.966 1.359-8.267 1.358-4.35.001-9.26-.807-13.22-2.443-1.98-.816-3.722-1.84-5.037-3.054-1.316-1.217-2.197-2.61-2.514-4.18a5.5 5.5 0 0 1-.111-1.082 4.9 4.9 0 0 1 .731-2.57c.699-1.161 1.87-2.138 3.228-2.88 1.357-.742 2.895-1.251 4.309-1.511a35 35 0 0 1 2.85-.402z" fill="#FEE75A"/><path d="M0 93.5c0 6.904 5.82 12.5 13 12.5s13-5.596 13-12.5C26 86.597 20.18 81 13 81S0 86.597 0 93.5" fill="#FAB799"/><path d="M38.635 94.364v-.35H10.73v-3.598h27.54v3.948zH39v-4.65H10v5h29v-.35zm247.017-83.756v-.392h-23.956V5.784h23.608v4.825zH286V5h-25v6h25v-.392zM277 15h36v-1h-36zM27.652 132.608v-.391H3.696v-4.434h23.607v4.825zH28V127H3v6h25v-.392zM19 136h36v-1H19z" fill="#5B50AC"/><path d="M34.079 217.715h37v-1h-37zM64 213h20v-2H64z" fill="#FFA061"/><path d="m104.206 193.475-.113.276 6.802 2.788a2.6 2.6 0 0 0 1.456.151l7.228-1.328q.193-.035.376-.035a1.98 1.98 0 0 1 1.417.602c.361.369.581.872.581 1.406 0 .25-.048.508-.153.767l-2.784 6.813a2.6 2.6 0 0 0-.151 1.458l1.326 7.241q.035.192.035.376a2 2 0 0 1-.601 1.42 2 2 0 0 1-1.403.582 2 2 0 0 1-.766-.154l-6.802-2.788a2.6 2.6 0 0 0-1.456-.151l-7.228 1.328a1.98 1.98 0 0 1-1.793-.567 2.02 2.02 0 0 1-.581-1.406c0-.25.048-.508.153-.767l2.784-6.813a2.6 2.6 0 0 0 .151-1.458l-1.326-7.241a1.99 1.99 0 0 1 .565-1.796 2 2 0 0 1 1.405-.582c.249 0 .507.048.765.154zl.113-.277a2.6 2.6 0 0 0-.991-.198 2.615 2.615 0 0 0-2.601 2.599q0 .238.045.484l1.326 7.24a2.03 2.03 0 0 1-.117 1.125l-2.783 6.813c-.135.33-.198.666-.198.993.001 1.397 1.139 2.601 2.594 2.604q.237 0 .484-.044l7.228-1.328a2 2 0 0 1 1.122.117l6.802 2.788c.329.135.665.198.992.198 1.394-.002 2.597-1.141 2.6-2.599q0-.237-.045-.484l-1.326-7.24a2.03 2.03 0 0 1 .117-1.125l2.783-6.813c.135-.33.198-.666.198-.993-.002-1.397-1.138-2.602-2.594-2.605q-.238 0-.483.045l-7.229 1.328a2 2 0 0 1-1.123-.117l-6.801-2.788z" fill="#5B50AC"/><path d="m100.097 214.031 21.693-18.06-.381-.459-21.693 18.059" fill="#5B50AC"/><path d="m101.811 193.892 17.833 21.877.461-.378-17.833-21.876" fill="#5B50AC"/><path d="m111.637 196.397-2.017 16.735.592.072 2.016-16.735" fill="#5B50AC"/><path d="m119.197 205.146-16.763-1.472-.052.595 16.763 1.472" fill="#5B50AC"/><path d="M240.275 28.772c-16.256-13.247-37.004-21.19-59.608-21.19-52.15 0-94.426 42.275-94.426 94.426 0 6.427.642 12.703 1.866 18.77zm6.117-3.462L92.181 123.326c4.554 14.214 12.384 26.961 22.602 37.354l161.634-61.21q.13-2.476.13-4.984c0-27.323-11.605-51.936-30.155-69.178M135.353 153.975c16.751 15.16 38.966 24.394 63.337 24.394 47.009 0 85.994-34.352 93.224-79.323-35.018 12.215-124.804 43.561-156.561 54.929" fill="#FBD872"/><path d="m156.65 158.844 43.903 57.828h7.039s-4.71-52.685-33.662-64.027z" fill="#FA704E"/><mask id="a" style="mask-type:luminance" maskUnits="userSpaceOnUse" x="156" y="152" width="52" height="65"><path d="m156.651 158.844 43.903 57.828h7.039s-4.71-52.685-33.662-64.027z" fill="#fff"/></mask><g mask="url(#a)"><path d="M187.979 163.445s8.627 2.343 5.169 43.472L154.2 159.718l4.165-13.308s23.24 1.579 29.614 17.035" fill="#EF92C8"/></g><path d="M166.326 118.837s-9.413 18.564-11.199 25.853c-1.106 4.514-1.702 13.69-1.702 13.69s9.935 2.569 14.938.589l10.214-21.783z" fill="#4182FF"/><path d="M187.978 163.446s-1.573 2.982-8.547-.278l5.072-6.204s3.645 3.228 3.475 6.482" fill="#19283F"/><path d="M167.603 150.677s-5.386 10.691-4.166 14.625c1.221 3.933 15.557 51.37 15.557 51.37h6.647s7.595-36.622-4.205-49.779l6.611-9.63s-8.913-19.14-20.444-6.586" fill="#FA704E"/><path d="M209.507 75.308s-4.604 17.361-14.169 18.106-4.348-25.837-4.348-25.837l-3.531-1.136s-11.761 23.542-16.452 14.251l-3.403 30.263s4.47 9.493 31.409 4.078c0 0 10.567-24.403 12.462-38.482z" fill="#4182FF"/><mask id="b" style="mask-type:luminance" maskUnits="userSpaceOnUse" x="167" y="66" width="45" height="51"><path d="M209.509 75.308s-4.605 17.361-14.17 18.106-4.347-25.837-4.347-25.837l-3.532-1.136s-11.76 23.542-16.452 14.251l-3.403 30.263s4.471 9.493 31.41 4.078c0 0 10.566-24.403 12.462-38.482z" fill="#fff"/></mask><g mask="url(#b)"><path d="m173.516 81.388-4.61 32.587-2.249-1.698.946-33.833h4.842z" fill="#6ECEB3"/></g><path d="m166.326 118.837 7.046 20.427-5.769 11.414s15.345 3.192 20.375 12.768c0 0 6.082-12.178 11.035-24.413 3.89-9.61-.818-18.191-.818-18.191z" fill="#4182FF"/><mask id="c" style="mask-type:luminance" maskUnits="userSpaceOnUse" x="166" y="118" width="35" height="46"><path d="m166.326 118.837 7.046 20.427-5.769 11.414s15.345 3.192 20.375 12.768c0 0 6.082-12.178 11.035-24.413 3.89-9.61-.818-18.191-.818-18.191z" fill="#fff"/></mask><g mask="url(#c)"><path d="M181.436 159.718s14.029-22.927 14.405-25.183-.502-15.698-.502-15.698l6.432-.759s2.21 15.204 1.022 21.721c-1.187 6.518-14.269 28.325-14.747 27.824s-6.61-7.905-6.61-7.905" fill="#6ECEB3"/></g><path d="m167.603 110.955-1.277 7.882s12.241 7.597 31.868 2.005l.818-5.808s-23.696 3.763-31.409-4.079" fill="#fff"/><path d="M188.903 108.756c.274-.013 11.397 2.513 15.321 8.363s-3.131 10.517-6.857 10.272-13.929-13.465-13.929-13.465z" fill="#FA704E"/><mask id="d" style="mask-type:luminance" maskUnits="userSpaceOnUse" x="183" y="108" width="23" height="20"><path d="M188.901 108.756c.275-.013 11.397 2.513 15.322 8.363s-3.131 10.517-6.857 10.272-13.929-13.465-13.929-13.465z" fill="#fff"/></mask><g mask="url(#d)"><path d="M188.236 111.974s.058.182.172.507c.923 2.617 5.525 14.492 13.135 14.919 0 0-2.281 1.937-4.689.86-2.408-1.078-10.963-10.182-10.963-10.182z" fill="#EF92C8"/></g><path d="M194.133 110.022c-2.557-1.224-4.075-3.893-3.877-6.721.218-3.125-.172-6.37-1.427-9.018-3.069-6.477-14.754-2.857-14.754-2.857-7.661 2.587-9.405 6.492-8.171 9.651 1.325 3.393 8.327 9.328 13.91 12.01 2.842 1.365 5.377 3.293 7.407 5.706l.037.044c4.853-1.334 6.876-8.814 6.876-8.814z" fill="#19283F"/><path d="M211.475 76.552s15.383 4.721 13.648 16.538-21.031 30.951-21.031 30.951l-4.26-10.946s-.019-.733.015-1.913a30.43 30.43 0 0 1 7.943-19.61s3.33-13.288 3.685-15.02" fill="#FA704E"/><path d="m167.603 150.678 5.63-12.571a3.23 3.23 0 0 0-.034-2.713l-4.148-8.657 3.071 9.307a2.54 2.54 0 0 1-.119 1.893l-5.225 10.991a1.25 1.25 0 0 0 .825 1.75m38.153-32.434a.17.17 0 0 1-.16-.124c-1.137-4.383-5.733-4.856-5.779-4.86a.165.165 0 1 1 .03-.329c.048.004 4.874.501 6.069 5.106a.166.166 0 0 1-.16.207m2.034-26.507a.165.165 0 0 1-.134-.262c.072-.1 1.828-2.469 5.975-2.52h.002a.165.165 0 0 1 .002.33c-3.981.05-5.695 2.36-5.711 2.384a.17.17 0 0 1-.134.068" fill="#19283F"/><path d="m171.006 80.692-22.12 1.618-37.9 2.743v-7.057s21.517-12.55 39.304-7.843c0 0 18.384-14.47 37.167-3.712 0 0-11.81 24.963-16.451 14.251" fill="#FA704E"/><mask id="e" style="mask-type:luminance" maskUnits="userSpaceOnUse" x="110" y="62" width="78" height="24"><path d="m171.004 80.692-22.12 1.618-37.899 2.743v-7.057s21.516-12.55 39.304-7.843c0 0 18.383-14.47 37.167-3.712 0 0-11.81 24.963-16.452 14.251" fill="#fff"/></mask><g mask="url(#e)"><path d="M171.005 80.692s4.911-.36 8.832-6.624c0 0-1.203 10.39-6.075 10.985s-2.757-4.361-2.757-4.361" fill="#EF92C8"/></g><mask id="f" style="mask-type:luminance" maskUnits="userSpaceOnUse" x="110" y="62" width="78" height="24"><path d="m171.004 80.692-22.12 1.618-37.899 2.743v-7.057s21.516-12.55 39.304-7.843c0 0 18.383-14.47 37.167-3.712 0 0-11.81 24.963-16.452 14.251" fill="#fff"/></mask><g mask="url(#f)"><path d="M121.365 78.93s15.78 2.59 18.369 2.71 20.125-.133 20.125-.133L119.558 86.7l-.422-2.409z" fill="#EF92C8"/></g><path d="M113.91 74.939s4.047-1.968 6.258-.696c2.212 1.27 8.22 11.011-2.704 11.103 0 0-3.722 11.537-10.956 6.377 0 0-11.414.752-14.51-5.68-3.094-6.434 2.794-12.882 8.388-12.912s13.524 1.808 13.524 1.808" fill="#19283F"/><path d="M199.487 60.978c.133-.937.204-1.916.204-2.923 0-6.757-3.17-12.235-7.08-12.235s-7.079 5.478-7.079 12.235c0 4.145 1.193 7.809 3.018 10.021-1.918 4.641-8.252 22.21 4.061 25.886 14.218 4.245 16.895-18.653 16.895-18.653l-.084-.055a22.92 22.92 0 0 1-9.935-14.277" fill="#FA704E"/><mask id="g" style="mask-type:luminance" maskUnits="userSpaceOnUse" x="185" y="45" width="25" height="50"><path d="M199.487 60.978c.133-.937.204-1.916.204-2.923 0-6.757-3.17-12.235-7.08-12.235s-7.079 5.478-7.079 12.235c0 4.145 1.193 7.809 3.018 10.021-1.918 4.641-8.252 22.21 4.061 25.886 14.218 4.245 16.895-18.653 16.895-18.653l-.084-.055a22.92 22.92 0 0 1-9.935-14.277" fill="#fff"/></mask><g mask="url(#g)"><path d="M194.352 67.41s3.452 3.723 3.337 6.9-12.634 7.16-12.634 7.16 1.947-11.897 3.273-13.674c0 0 .936 1.247 3.312 1.091 0 0 2.115-.565 2.712-1.476" fill="#EF92C8"/></g><path d="M191.008 69.042c-1.508 0-2.515-.869-2.532-.884a.11.11 0 0 1-.009-.155.11.11 0 0 1 .156-.01c.113.1 2.797 2.404 6.026-1.036a.11.11 0 1 1 .16.15c-1.404 1.496-2.729 1.935-3.801 1.935m-5.051-15.173 8.297-.315s-.778 3.849.475 4.686.696-2.845 1.867-1.73c.85.81.79 2.82.459 3.823a1.34 1.34 0 0 0 .303 1.36l1.295 1.322a.724.724 0 0 0 1.173-.201s2.069-11.1-1.779-15.842c-3.849-4.741-12.082-1.433-12.09 6.897m.715 9.639a.3.3 0 0 1-.071-.01c-1.197-.32-1.394-1.338-1.402-1.38l-.041-.23.22-.08c2.041-.728 2.22-4.363 2.221-4.4a.276.276 0 0 1 .551.023c-.007.159-.183 3.767-2.337 4.792.107.23.361.591.931.743.146.04.234.19.195.337a.28.28 0 0 1-.267.205" fill="#19283F"/><path d="M190.919 57.197c0 .439-.212.794-.473.794-.262 0-.474-.355-.474-.794s.212-.794.474-.794c.261 0 .473.355.473.794m-3.773-.214c0 .439-.212.795-.474.795-.261 0-.473-.356-.473-.795 0-.438.212-.794.473-.794.262 0 .474.355.474.794m-.224 8.628a.276.276 0 0 1-.105-.53l2.812-1.156a.275.275 0 1 1 .209.509l-2.811 1.157a.3.3 0 0 1-.105.02m3.013-9.901c-.4 0-.675-.084-.7-.092a.275.275 0 0 1 .165-.526 2.22 2.22 0 0 0 2.054-.529.276.276 0 1 1 .37.408 2.76 2.76 0 0 1-1.889.738m-2.25-.166c-.109 0-.406-.029-.882-.077-.397-.04-.941-.095-1.056-.091a.275.275 0 0 1-.014-.55c.138-.004.536.034 1.125.093.347.035.741.075.827.075a.275.275 0 0 1 0 .55m8.594 4.632a.42.42 0 0 1-.28-.102.165.165 0 0 1 .221-.246c.034.03.115.02.167-.021.061-.05.109-.136.149-.27.134-.45.095-.94.056-1.412-.009-.118-.019-.241-.067-.335-.038-.074-.108-.127-.164-.122q-.119.008-.233.304c-.115.295-.233.599-.222.905a.165.165 0 0 1-.33.012c-.014-.375.123-.726.244-1.036.052-.134.19-.49.515-.514.187-.016.384.106.484.3.078.153.092.323.103.46.039.479.083 1.022-.069 1.532-.038.127-.107.311-.26.434a.5.5 0 0 1-.314.111m-70.632 27.086a.166.166 0 0 1-.046-.324c.03-.009 3.026-.884 6.031-2.713 2.753-1.676 6.078-4.52 6.285-8.553a.165.165 0 0 1 .174-.156.164.164 0 0 1 .156.173c-.169 3.308-2.4 6.358-6.449 8.822-3.042 1.85-6.075 2.736-6.105 2.744a.2.2 0 0 1-.046.007" fill="#19283F"/><path d="M185.641 216.672h-6.646l-12.086 4.716a12.96 12.96 0 0 0-5.901 4.634l-.633.904h26.136z" fill="#4182FF"/><mask id="h" style="mask-type:luminance" maskUnits="userSpaceOnUse" x="160" y="216" width="27" height="11"><path d="M185.641 216.672h-6.646l-12.086 4.716a12.96 12.96 0 0 0-5.901 4.634l-.633.904h26.136z" fill="#fff"/></mask><g mask="url(#h)"><path d="M177.974 228.424a.275.275 0 0 1-.271-.231c-.314-1.947.954-4.099 3.769-6.398 2.058-1.68 4.234-2.828 4.255-2.84a.275.275 0 1 1 .256.488c-.084.044-8.413 4.466-7.737 8.662a.275.275 0 0 1-.272.319" fill="#19283F"/></g><mask id="i" style="mask-type:luminance" maskUnits="userSpaceOnUse" x="160" y="216" width="27" height="11"><path d="M185.641 216.672h-6.646l-12.086 4.716a12.96 12.96 0 0 0-5.901 4.634l-.633.904h26.136z" fill="#fff"/></mask><g mask="url(#i)"><path d="M165.003 223.791q-.108 0-.214-.017c-.578-.099-.974-.551-1.33-1.005l-.38-.484a.275.275 0 0 1 .433-.34l.38.484c.302.385.604.736.99.802.241.04.517-.042.739-.221.203-.166.371-.416.485-.724s.124-.71.025-.958l.499-.231c.187.355.557.628.989.73.403.094.866.046 1.304-.136.136-.057.241-.114.328-.179a1.06 1.06 0 0 0 .418-.743.5.5 0 0 0-.031-.195 3 3 0 0 1-.192-.241l-.771-1.111 1.144.721c.125.079.22.195.287.325a1.78 1.78 0 0 0 1.086.529c.515.047 1.044-.172 1.348-.561.311-.399.376-.978.158-1.407l-.979-1.929 1.431 1.622c.341.387.645.641.958.799.375.19.778.238 1.107.131.345-.112.611-.423.633-.739.016-.234-.099-.494-.21-.745l-.729-1.654 1.171 1.325c.159.179.409.308.705.362.3.055.614.035.909.005.303-.031.635-.09.799-.293.187-.23.143-.61.081-.979a.277.277 0 0 1 .227-.317.274.274 0 0 1 .316.227c.078.471.134 1.007-.196 1.415-.291.361-.755.453-1.171.495-.32.032-.696.056-1.065-.012a2 2 0 0 1-.301-.078q.022.14.013.287c-.037.539-.454 1.043-1.012 1.225-.466.151-1.022.092-1.526-.164a3 3 0 0 1-.484-.311 1.93 1.93 0 0 1-.401 1.073c-.416.534-1.136.836-1.833.771a2.3 2.3 0 0 1-.957-.321 1.62 1.62 0 0 1-.605.931c-.123.09-.268.17-.444.244-.544.226-1.127.285-1.641.164a2.2 2.2 0 0 1-.762-.345c-.022.169-.06.327-.109.459-.149.401-.375.733-.655.96-.282.229-.63.354-.965.354" fill="#19283F"/></g><path d="M186.511 226.926h-26.136v1.565h26.136z" fill="#19283F"/><path d="m209.811 220.663-2.22-3.991h-7.039l-.137 3.582c-5.746-.787-5.63 8.237-5.63 8.237h17.853a26 26 0 0 0-2.827-7.828" fill="#4182FF"/><mask id="j" style="mask-type:luminance" maskUnits="userSpaceOnUse" x="194" y="216" width="19" height="13"><path d="m209.811 220.663-2.22-3.991h-7.039l-.137 3.582c-5.746-.787-5.63 8.237-5.63 8.237h17.853a26 26 0 0 0-2.827-7.828" fill="#fff"/></mask><g mask="url(#j)"><path d="M213.246 226.926h-19.01v2.228h19.01z" fill="#19283F"/></g><path d="M206.368 224.647a.28.28 0 0 1-.222-.112c-2.03-2.753-5.645-3.989-5.681-4.001a.277.277 0 0 1-.174-.349.277.277 0 0 1 .349-.174c.154.052 3.813 1.301 5.949 4.197a.276.276 0 0 1-.221.439m-22.929-57.066a.16.16 0 0 1-.078-.02c-2.479-1.333-4.917-2.033-7.248-2.08-1.872-.038-3.163.357-3.782.546-.233.072-.331.1-.406.1a.165.165 0 0 1-.001-.33c.038-.002.176-.045.31-.086.636-.194 1.957-.599 3.886-.56 2.384.048 4.872.761 7.398 2.119a.166.166 0 0 1-.079.311m-28.22-94.604a.17.17 0 0 1-.101-.035c-2.145-1.657-4.855-2.623-4.882-2.633a.166.166 0 0 1 .11-.312c.027.01 2.786.993 4.974 2.684a.165.165 0 0 1-.101.296" fill="#19283F"/><path d="m68.023 197.105-32.108-8.191c-6.335-1.616-10.16-8.062-8.545-14.397L58.65 51.904c1.615-6.335 8.061-10.16 14.397-8.545l32.107 8.191c6.336 1.617 10.162 8.063 8.545 14.398L82.421 188.56c-1.617 6.335-8.063 10.161-14.398 8.545" fill="#4182FF"/><mask id="k" style="mask-type:luminance" maskUnits="userSpaceOnUse" x="27" y="42" width="88" height="156"><path d="m68.023 197.105-32.108-8.191c-6.335-1.616-10.16-8.062-8.545-14.397L58.65 51.904c1.615-6.335 8.061-10.16 14.397-8.545l32.107 8.191c6.336 1.617 10.162 8.063 8.545 14.398L82.421 188.56c-1.617 6.335-8.063 10.161-14.398 8.545" fill="#fff"/></mask><g mask="url(#k)"><path opacity=".5" d="M107.481 48.834s-43.637 55.889-32.524 64.26 21.868 7.296-.717 21.636-41.944 21.924-24.019 29.962-29.755 22.02-29.755 22.02 58.954 19 63.534 15.773c4.58-3.226 39.816-147.718 39.816-147.718z" fill="#19283F"/></g><path d="M112.667 70.01 57.615 55.964l-2.279 8.934 55.052 14.044z" fill="#19283F"/><path d="m101.47 29.04-2.965-17.26-10.87 13.73-.019-.004-31.728 39.53 1.105.282 31.729-39.53a5.723 5.723 0 0 1 4.13 6.96L82.86 71.917l1.105.282 10.133-39.721a5.153 5.153 0 0 1 6.267-3.72l8.915 49.899 1.105.282z" fill="#19283F"/><path d="M97.912 14.28a.547.547 0 0 1-.48-.808c.116-.211 2.889-5.223 8.897-9.105A27 27 0 0 1 117.964.193c5.218-.607 10.873.217 16.808 2.448 13.949 5.245 25.452 8.07 35.166 8.638 11.079.647 19.746-1.615 26.492-6.914a.546.546 0 1 1 .675.86c-3.547 2.785-7.71 4.791-12.376 5.962-4.399 1.104-9.398 1.502-14.855 1.183-9.825-.574-21.433-3.422-35.487-8.706-5.77-2.17-11.253-2.972-16.297-2.385a25.9 25.9 0 0 0-11.168 4.005c-5.777 3.733-8.503 8.662-8.53 8.71a.55.55 0 0 1-.48.286m-.546 159.059a.41.41 0 0 1-.15-.792l51.858-20.283a.41.41 0 1 1 .298.763L97.515 173.31a.4.4 0 0 1-.149.029m108.391-37.94a.41.41 0 0 1-.145-.793l111.447-41.994a.41.41 0 1 1 .289.766l-111.447 41.995a.4.4 0 0 1-.144.026m7.876-80.976a.41.41 0 0 1-.218-.757l51.715-32.535a.41.41 0 0 1 .437.693L213.851 54.36a.4.4 0 0 1-.218.063m-109.166 68.884a.409.409 0 0 1-.213-.76l58.791-35.8a.41.41 0 1 1 .426.7l-58.791 35.8a.4.4 0 0 1-.213.06M47.641 228.902H29.808a.41.41 0 0 1 0-.82H47.64a.41.41 0 1 1 0 .82m38.51 0H54.476a.41.41 0 0 1 0-.82H86.15a.41.41 0 1 1 0 .82m66.96 0H92.182a.41.41 0 0 1 0-.82h60.928a.41.41 0 1 1 0 .82" fill="#19283F"/><path d="M191.435 228.492h110.67c-4.915-.395-10.893-2.342-13.617-6.452-.845-1.274-1.314-2.755-1.757-4.218-1.145-3.778-2.208-7.633-4.198-11.043s-5.073-6.387-8.914-7.297-8.407.749-10.009 4.357c-.935 2.105-.791 4.508-.676 6.809.115 2.3.156 4.73-.945 6.753s-3.753 3.387-5.782 2.297c-.827-.444-1.426-1.212-1.945-1.993-1.908-2.879-3.661-6.672-7.099-6.994-2.981-.279-5.394 2.355-6.903 4.94s-2.848 5.566-5.534 6.885c-.697.342-1.498.552-2.25.363-.836-.211-1.475-.874-2.02-1.541-1.16-1.42-2.13-3.009-3.475-4.255s-3.211-2.127-4.998-1.713c-3.781.877-4.329 6.295-7.497 8.539-2.365 1.675-5.618 1.182-8.361.248-2.744-.935-5.492-2.26-8.382-2.034-2.889.227-7.069 3.552-6.308 6.349" fill="#FBD872"/><path d="M324.59 228.902h-18.326a.41.41 0 1 1 0-.82h18.326a.41.41 0 1 1 0 .82" fill="#19283F"/><path d="m245.696 139.842.206.214 2.976-2.877c.22-.212.374-.483.445-.781l.956-4.03a.98.98 0 0 1 .367-.568c.175-.131.393-.203.611-.203a.98.98 0 0 1 .714.307l2.872 2.981c.212.22.482.374.779.445l4.025.957c.247.06.434.193.566.368s.203.394.203.613a.98.98 0 0 1-.306.714l-2.976 2.878a1.6 1.6 0 0 0-.445.78l-.956 4.031a.98.98 0 0 1-.367.567 1.02 1.02 0 0 1-.611.204.98.98 0 0 1-.714-.307l-2.872-2.981a1.6 1.6 0 0 0-.779-.445l-4.024-.958a.98.98 0 0 1-.567-.368 1.03 1.03 0 0 1-.203-.612.98.98 0 0 1 .306-.715zl-.207-.215c-.332.319-.49.738-.489 1.144 0 .348.112.69.323.971.209.281.522.499.905.59l4.024.957c.186.045.356.142.488.279l2.873 2.981c.319.332.737.491 1.142.49.348 0 .689-.113.969-.324.281-.21.499-.522.589-.906l.956-4.031c.044-.186.141-.356.278-.489l2.976-2.877c.332-.32.49-.739.489-1.144 0-.349-.112-.69-.322-.971s-.523-.5-.906-.59l-4.024-.958a1 1 0 0 1-.488-.279l-2.872-2.981a1.58 1.58 0 0 0-1.143-.489c-.347 0-.688.113-.969.323a1.58 1.58 0 0 0-.589.907l-.956 4.03a1 1 0 0 1-.278.489l-2.976 2.878z" fill="#C2393C"/><path d="m255.459 146.587-4.367-15.288-.573.164 4.367 15.288" fill="#C2393C"/><path d="m245.402 141.298 15.293-4.241-.159-.575-15.294 4.241" fill="#C2393C"/><path d="m248.816 136.783 8.149 4.836.304-.514-8.149-4.835" fill="#C2393C"/><path d="m254.983 134.69-4.558 8.316.522.287 4.558-8.315" fill="#C2393C"/><path d="m125.633 138.265-.298-.013-.131 2.943-.001.054c0 .215.056.427.164.613l1.475 2.548c.06.105.085.21.086.313a.64.64 0 0 1-.178.437.6.6 0 0 1-.446.19l-.03-.001-2.938-.131-.054-.001c-.215 0-.426.056-.612.165l-2.545 1.477a.6.6 0 0 1-.311.086.64.64 0 0 1-.437-.178.6.6 0 0 1-.189-.447l.001-.031.131-2.942.001-.055c0-.215-.057-.426-.165-.613l-1.474-2.548a.6.6 0 0 1-.086-.313c0-.161.066-.321.178-.437a.6.6 0 0 1 .445-.19l.031.001 2.937.131.055.002c.214 0 .426-.057.612-.165l2.544-1.477a.616.616 0 0 1 .749.092.6.6 0 0 1 .189.447l-.001.03zl.298.014.001-.057A1.226 1.226 0 0 0 124.71 137c-.205 0-.416.053-.611.166l-2.544 1.477a.6.6 0 0 1-.313.085l-.028-.001-2.937-.131-.058-.002a1.23 1.23 0 0 0-1.219 1.224c0 .205.053.417.166.612l1.475 2.548a.63.63 0 0 1 .084.314l-.001.028-.131 2.943-.001.057c-.001.351.147.662.372.877.225.216.528.344.85.345.204 0 .416-.054.61-.167l2.544-1.477a.63.63 0 0 1 .314-.084l.028.001 2.937.131.057.001c.35.001.661-.148.876-.373a1.22 1.22 0 0 0 .178-1.463l-1.475-2.548a.63.63 0 0 1-.084-.314l.001-.028.131-2.943z" fill="#5B50AC"/><path d="M136.987 43.009A5 5 0 0 1 132 38.308l1.654-.29a1.17 1.17 0 0 0 .971-1.162 1.16 1.16 0 0 0-.311-.79l-1.163-1.269A4.98 4.98 0 0 1 136.987 33a5 5 0 0 1 4.996 5.004 5 5 0 0 1-4.996 5.005M132 37.702a5 5 0 0 1 .791-2.415l1.085 1.182c.107.118.152.25.153.387a.6.6 0 0 1-.129.368.56.56 0 0 1-.349.205z" fill="#988CCE"/></svg>