<svg width="300" height="300" viewBox="0 0 750 500" fill="none" xmlns="http://www.w3.org/2000/svg"><g clip-path="url(#a)"><path d="M750 0H0v500h750z" fill="#F0EFEF"/><path d="M473.571 365.137c-30.525 14.774-60.083 32.049-93.073 39.331-24.414 5.389-49.517 5.008-74.35 6.305-22.103 1.155-50.806 1.775-68.919 16.546-5.696 4.645-9.817 11.92-8.696 19.184 1.956 12.675 17.286 17.951 30.068 18.997 16.853 1.38 33.799-.055 50.707.099 66.42.606 131.996 25.679 197.927 17.606 22.237-2.723 44.408-9.434 62.512-22.63s31.756-33.44 33.816-55.747c1.816-19.669-6.715-40.088-22.581-52.026-19.371-14.576-45.046-11.384-66.802-4.453-13.957 4.447-27.373 10.382-40.609 16.788" fill="#9A8AED"/><path d="M500.808 368.33c-18.865-.979-37.897.675-56.205 4.885-22.379 5.147-43.515 14.04-65.845 19.358-11.806 2.812-24.081 6.828-36.165 6.909-16.744.113-33.495-.072-50.24-.107-14.902-.032-29.931-.051-44.522 2.98s-28.9 9.38-39.004 20.334c-4.184 4.536-7.687 10.103-8.05 16.264-.711 12.081 10.724 21.613 22.264 25.258 24.763 7.823 51.201-1.603 76.942-5.042 59.174-7.906 116.535 19.706 175.738 14.866 24.412-1.996 50.859-12.495 69.339-28.639 13.392-11.699 22.925-33.436 15.775-51.146-9.33-23.103-38.927-24.825-60.027-25.92Z" stroke="#B5F4E1" stroke-width="1.5" stroke-miterlimit="10"/><path d="M466.328 306.114c-5.701-.659-38.391 2.508-38.68 7.872s17.409 8.329 35.668 10.245 31.823 4.916 29.204-2.009-4.586-13.61-26.192-16.108" fill="#000"/><path d="M398.172 332.87c-8.564-17.548-18.093-27.455-17.803-28.383s42.755-36.042 42.755-36.042l-53.082-28.978s-13.191 11.283-32.673 29.943c-6.079 5.823-14.542 23.545-6.147 39.429 7.424 14.048 21.631 33.663 25.901 39.526 7.81 10.724 32.309 42.063 32.309 42.063l30.249-20.307s-12.945-19.702-21.509-37.251" fill="#E9725B"/><path d="m414.709 202.086-10.512 11.22s-42.85 28.372-63.009 51.376c5.723 4.331 9.103 10.671 13.919 15.992 2.865 3.165 5.981 5.88 9.392 8.448 7.986 6.011 12.557 6.641 27.463 9.998 4.478-3.311 11.57-8.15 12.647-9.007 4.178-3.324 8.363-6.642 12.567-9.934 7.991-6.256 16.505-11.967 24.178-18.496 4.646-3.953 9.762-7.32 14.458-11.212 4.09-3.39 7.671-7.44 10.31-12.062 2.852-4.995 3.916-10.239 4.987-15.814.863-4.492 1.53-9.065 1.248-13.65" fill="#FFE978"/><path d="M380.881 296.161c21.233-17.7 43.28-34.745 64.513-52.445" stroke="#fff" stroke-width="3" stroke-miterlimit="10"/><path d="M483.527 363.666c-5.21-18.819-12.767-30.301-12.312-31.16s17.756-61.759 17.756-61.759l-56.953 22.15c-.794 11.851-3.895 23.455-4.057 35.36-.215 15.836 5.703 29.164 12.375 43.135 5.717 11.971 24.04 45.987 24.04 45.987l33.484-13.156s-9.123-21.738-14.333-40.557" fill="#E9725B"/><path d="M497.939 215.665c-.383 5.816 2.647 11.081 3.502 16.712.815 5.37-.059 10.66-.506 15.989-1.438 17.138-4.286 34-6.741 51.011-1.092 7.562.081 16.51-1.384 24.728-.702-4.339-19.162-9.893-29.278-11.2-11.801-1.525-28.094-2.388-35.883 1.082 0 0 3.109-23.285 4.106-33.335a555 555 0 0 1 1.702-15.052c.551-4.341.72-11.441.701-15.814-.023-5.152-1.079-7.678-4.735-11.308-.856-3.446-.297-7.984.725-11.385a187 187 0 0 1 13.7-33.434" fill="#FFE978"/><path d="M433.07 268.711s1.156-20.565.903-21.969-2.148-8.614-2.148-8.614" stroke="#000" stroke-miterlimit="10"/><path d="M489.203 203.837c2.964 5.487 4.578 25.47 4.633 31.706.447 50.728-7.626 48.284-6.603 83.143" stroke="#fff" stroke-width="3" stroke-miterlimit="10"/><path d="M489.249 381.664s-6.108 5.818-18.48 10.039-18.794 2.854-18.794 2.854c6.03 11.727 12.209 22.994 16.914 34.426l31.365-20.164zm27.912 49.692c-.429-2.457-2.38-4.707-4.853-5.034l-78.619 30.72c-.492 1.529.295 3.218 1.445 4.34 1.748 1.705 4.048 2.954 6.356 3.692 4.8 1.535 9.932 2.213 14.943 1.471 5.188-.769 9.635-3.48 14.471-5.314 4.503-1.707 9.62-2.545 13.334-5.833 1.691-1.497 2.966-3.49 4.913-4.634 1.516-.891 3.305-1.182 5.055-1.356 1.36-.135 2.732-.211 4.064-.514 1.462-.332 2.849-.932 4.202-1.579a60 60 0 0 0 7.148-4.035c2.084-1.371 4.114-2.902 5.597-4.908s2.373-4.558 1.944-7.016" fill="#fff"/><path d="M505.19 436.613c2.847-1.328 7.463-3.518 8.31-6.84.797-3.126-.678-7.067-2.468-9.6-1.866-2.64-3.74-5.407-5.844-7.816-2.307-2.641-4.546-5.505-5.444-8.961-.206-.793-.344-1.62-.75-2.331-2.133-3.737-5.426 1.654-6.275 3.503-1.206 2.625-1.471 5.731-3.316 7.954-1.817 2.189-4.77 3.033-7.571 3.53-4.153.736-8.528 1.535-12.76.909-1.561-.231-3.061-.783-4.623-1.01s-3.286-.078-4.501.93c-2.326 1.929.487 5.52.13 7.932-.204 1.383-1.45 3.085-2.144 4.281-1.635 2.821-3.597 5.447-5.762 7.882-4.327 4.868-9.424 8.983-14.584 12.956-2.998 2.308-5.017 6.805-2.808 9.12 1.074 1.125 7.606 2.39 10.477 2.373 9.124-.052 18.501-1.458 26.466-6.168 4.305-2.546 8.037-5.955 12.24-8.666 6.577-4.243 14.132-6.669 21.227-9.978" fill="#D1402C"/><path d="m443.124 445.918-1.572 2.073c-.484.639-.991 1.337-1.003 2.139-.014.936.658 1.747 1.407 2.308 1.374 1.029 3.1 1.516 4.814 1.606 1.714.089 3.427-.198 5.097-.596 3.856-.919 7.551-2.429 11.408-3.343s8.026-1.197 11.694.306c.699.286 1.381.641 1.933 1.156m30.409-36.214c-1.818 2.452-4.262 4.36-6.317 6.618-2.054 2.258-3.78 5.098-3.627 8.147.075 1.489.596 2.968.366 4.441-.254 1.622-1.372 2.956-2.446 4.198l-3.031 3.505" stroke="#000" stroke-miterlimit="10"/><path d="M449.959 437.596c2.59.488 5.191.978 7.684 1.833s4.893 2.093 6.799 3.913m-9.784-11.02c5.926-1.154 12.318.343 17.116 4.009m-12.694-11.365a42.3 42.3 0 0 1 16.01 2.241" stroke="#fff" stroke-width="3" stroke-miterlimit="10" stroke-linecap="round"/><path d="M454.239 398.803c6.581.893 13.32-.447 19.486-2.915s11.828-6.029 17.344-9.729" stroke="#FFE978" stroke-miterlimit="10"/><path d="M408.852 352.007s-5.047 6.759-16.536 12.994-18.24 5.966-18.24 5.966c7.909 10.551 16.078 20.62 22.633 31.102l27.543-25.134zm35.843 44.313c-.835-2.351-3.135-4.242-5.628-4.15l-72.361 43.458c-.229 1.59.83 3.123 2.152 4.036 2.009 1.388 4.486 2.234 6.885 2.575 4.99.709 10.163.518 14.978-1.054 4.986-1.627 8.915-5.045 13.376-7.663 4.153-2.438 9.058-4.121 12.168-7.985 1.416-1.759 2.339-3.937 4.067-5.391 1.346-1.132 3.06-1.719 4.756-2.184 1.318-.361 2.658-.666 3.921-1.188 1.386-.573 2.652-1.396 3.878-2.26a60 60 0 0 0 6.371-5.176c1.825-1.701 3.57-3.55 4.695-5.776 1.127-2.226 1.577-4.891.742-7.242" fill="#fff"/><path d="M433.773 403.508c2.585-1.786 6.768-4.718 7.046-8.135.262-3.216-1.852-6.854-4.041-9.051-2.282-2.29-4.594-4.704-7.072-6.726-2.716-2.217-5.403-4.666-6.868-7.922-.336-.747-.611-1.539-1.131-2.173-2.729-3.327-5.072 2.539-5.6 4.505-.749 2.79-.49 5.897-1.936 8.398-1.424 2.463-4.194 3.79-6.872 4.748-3.971 1.421-8.15 2.942-12.428 3.034-1.578.034-3.149-.259-4.727-.222s-3.251.473-4.28 1.67c-1.97 2.292 1.404 5.36 1.457 7.798.03 1.398-.914 3.284-1.397 4.58-1.139 3.055-2.634 5.972-4.36 8.736-3.45 5.524-7.786 10.435-12.207 15.217-2.569 2.778-3.806 7.549-1.241 9.462 1.247.93 7.898 1.082 10.726.585 8.986-1.58 17.995-4.537 25.058-10.515 3.818-3.231 6.926-7.218 10.615-10.594 5.776-5.286 12.818-8.944 19.258-13.395" fill="#D1402C"/><path d="m374.145 423.081-1.203 2.307c-.371.711-.753 1.484-.63 2.277.143.925.941 1.612 1.774 2.04 1.527.784 3.31.975 5.015.776s3.346-.77 4.925-1.442c3.647-1.552 7.038-3.66 10.687-5.207s7.712-2.525 11.58-1.657c.737.165 1.469.401 2.1.816m23.911-40.798c-1.381 2.722-3.472 5.013-5.119 7.583s-2.872 5.659-2.211 8.639c.323 1.455 1.085 2.826 1.105 4.317.022 1.642-.857 3.144-1.708 4.548l-2.401 3.964" stroke="#000" stroke-miterlimit="10"/><path d="M379.489 413.732c2.635.047 5.281.095 7.883.519 2.601.425 5.175 1.243 7.359 2.719m-11.493-9.226c5.649-2.131 12.202-1.725 17.546 1.085m-14.419-9.078a42.3 42.3 0 0 1 16.159-.473" stroke="#fff" stroke-width="3" stroke-miterlimit="10" stroke-linecap="round"/><path d="M376.936 374.753c6.638-.223 13.33-2.656 18.996-6.122s10.651-7.926 15.469-12.497" stroke="#FFE978" stroke-miterlimit="10"/><path d="M380.438 304.095a29.6 29.6 0 0 1-5.257 6.764m96.338 22.164a16.6 16.6 0 0 1-1.721 7.19m-79.07-69.947c11.823.353 23.498-2.368 35.013-5.071m-14.599-5.598 15.322.36m66.206 44.932c-3.394-10.894-4.412-22.11-3.01-33.152" stroke="#000" stroke-miterlimit="10"/><path d="M491.191 111.766s8.824-5.377 12.056-5.29 6.87 11.294 6.214 23.102-5.062 29.07-11.783 26.332-12.191-16.367-12.943-22.487c-.752-6.121 3.113-13.213 6.456-21.657" fill="#000"/><path d="m348.317 142.041-32.19 20.161-67.55 1.164 2.603 25.503s43.803 9.002 59.271 9.003c12.998 0 24.771-1.837 34.811-5.901s42.809-18.615 42.809-18.615z" fill="#E9725B"/><path d="M396.37 121.319c-7.956-.506-15.903 1.562-23.204 4.764s-14.049 7.517-20.802 11.753c-8.037 5.042-23.926 15.149-23.926 15.149 8.745 14.852 18.896 25.771 33.838 34.361 15.445-5.343 28.513-11.238 47.624-13.544" fill="#432572"/><mask id="b" style="mask-type:luminance" maskUnits="userSpaceOnUse" x="328" y="121" width="82" height="67"><path d="M396.37 121.319c-7.956-.506-15.903 1.562-23.204 4.764s-14.049 7.517-20.802 11.753c-8.037 5.042-23.926 15.149-23.926 15.149 8.745 14.852 18.896 25.771 33.838 34.361 15.445-5.343 28.513-11.238 47.624-13.544" fill="#fff"/></mask><g mask="url(#b)"><path d="M331.796 148.278c9.456 15.386 22.064 29.719 38.248 38.198" stroke="#FFE978" stroke-width="2" stroke-miterlimit="10"/></g><path d="M488.469 105.886c14.057 1.962 29.874 2.146 42.52 7.89 8.955 4.068 17.55 10.021 24.892 16.567 16.155 14.405 38.232 36.4 38.232 36.4l-22.195 16.943s-47.655-30.788-57.185-33.961c-5.487-1.827-15.342-2.415-30.304-3.214" fill="#E9725B"/><path d="M569.188 184.407c2.732 1.975 6.017 8.503 7.597 12.941 1.321 3.709 2.528 6.45 7.248 7.112 2.241.314 4.947-.676 4.947-.676s3.823 4.003 6.175 4.092c1.822.068 3.665-1.429 4.811-3.668 1.536 1.058 2.787 1.441 4.09.694s2.123-3.7 1.476-5.056c2.086 1.491 4.802-1.398 3.921-5.44.967.304 2-.516 2.292-1.488.292-.971-.057-4.092-.331-5.068-3.765-13.42-13.677-18.368-22.359-26.102" fill="#E9725B"/><path d="M507.48 210.871c-.774-7.995-2.919-9.443-6.794-16.189-1.758-3.06-10.563-17.36-12.211-20.734-4.015-8.222-12.292-23.077-16.068-31.367-1.583-3.476-2.193-7.451-3.718-11.016a58.2 58.2 0 0 0-5.936-10.635 57 57 0 0 0-3.295-4.236c-2.098-2.45-4.45-4.759-7.315-6.242-3.203-1.657-6.857-2.187-10.445-2.547a134 134 0 0 0-18.744-.556c-4.395.179-8.411 3.295-12.269 5.408-4.091 2.241-7.936 4.9-11.772 7.553l-13.564 9.383c-2.881 1.993-5.774 3.996-8.315 6.407-6.897 6.546-10.729 15.615-14.131 24.494l1.036 4.797c5.553-.438 10.019 4.256 13.577 8.541 5.236 6.306 10.475 12.615 15.445 19.136 2.314 3.037 4.78 6.092 6.893 9.262 1.812 2.718 1.123 7.178 1.253 10.385.02.484.041.976.193 1.436.618 1.874 2.985 2.282 4.925 2.641 17.779 3.292 30.542 5.227 63.72 2.464 4.467-.062 25.466 3.284 29.632 4.896 4.39-3.273 8.423-7.913 7.903-13.281" fill="#432572"/><path d="m382.628 120.398 6.441 10.487s13.115 14.466 19.196 13.766c6.081-.701 12.783-34.597 12.783-34.597l-16.433-14.792z" fill="#E9725B"/><path d="m423.837 165.977-6.079 1.857-12.699-23.799 6.078-1.857z" fill="#FFE978"/><path d="M455.98 155.982c3.62-2.136 7.402-1.934 12.635-1.904 8.732.05 19.871 1.206 29.064 1.832-4.463-12.145-5.303-25.617-1.658-38.031 1.297-4.417 3.323-8.962 7.226-11.403-13.526-1.257-31.435-3.816-45.007-4.392-5.551-.235-11.136-.355-16.639.406-7.063.977-13.87 3.387-20.936 4.338" fill="#432572"/><mask id="c" style="mask-type:luminance" maskUnits="userSpaceOnUse" x="420" y="101" width="84" height="55"><path d="M455.98 155.982c3.62-2.136 7.402-1.934 12.635-1.904 8.732.05 19.871 1.206 29.064 1.832-4.463-12.145-5.303-25.617-1.658-38.031 1.297-4.417 3.323-8.962 7.226-11.403-13.526-1.257-31.435-3.816-45.007-4.392-5.551-.235-11.136-.355-16.639.406-7.063.977-13.87 3.387-20.936 4.338" fill="#fff"/></mask><g mask="url(#c)"><path d="M498.465 103.234c-6.673 5.562-8.601 15.94-9.32 24.186-1.041 11.934.319 24.213 4.385 35.488" stroke="#FFE978" stroke-width="2" stroke-miterlimit="10"/></g><path d="M588.846 203.8a54 54 0 0 0-3.108-2.545c-1.362-1.033-2.859-2.033-4.561-2.191m18.68 5.356a23.44 23.44 0 0 0-6.318-12.006m12.145 7.81q-.21-1.275-.442-2.548c-.553-3.032-1.276-6.206-3.363-8.474m7.578 5.614c-.206-3.502-.69-6.921-2.747-9.762" stroke="#000" stroke-miterlimit="10"/><path d="M556.973 173.289c-.525 1.232-.953 2.721-.089 3.793.724.898 2.08 1.14 3.077 1.792.758.496 1.288 1.217 1.893 1.861 1.73 1.838 3.868 4.281 6.504 4.678.228.034.466.062.688.004.523-.137.754-.668.952-1.124 1.135-2.611 3.733-5.837 5.783-7.945 4.767-4.904 8.595-9.913 14.797-13.281.288-.156.114-.447.01-1.378-.079-.71-1.247-1.492-1.859-1.974-1.214-.956-3.017-2.574-4.605-4.67-1.099-1.45-2.583-3.587-4.655-3.961-3.029-.547-5.747 2.616-7.816 4.118-4.215 3.061-7.852 6.765-10.709 10.906a40.7 40.7 0 0 0-3.971 7.181" fill="#7F52F8"/><path d="M562.825 181.631c6.327-10.095 12.787-17.358 22.951-24.451" stroke="#fff" stroke-width="2" stroke-miterlimit="10"/><path d="m427.234 104.447-10.048 1.096c-.351 11.581-2.165 22.371-6.519 36.948 6.869-1.031 17.294-.511 23.963 1.578-1.111-9.737-3.455-30.944-7.396-39.622m-22.171 39.4s-12.553-7.432-20.203-19.816l-5.452 1.458s4.778 22.244 15.341 33.555c4.399-9.866 10.314-15.197 10.314-15.197" fill="#FFE978"/><path d="M478.634 155.019s-13.785-1.11-15.908-.883-5.223 1.088-5.223 1.088m-74.823 24.668s-9.045-10.913-11.709-12.352-7.394-3.842-7.394-3.842m45.256-14.949 4.036-1.241m-.443 8.255 4.037-1.241m-.444 8.254 4.036-1.24" stroke="#000" stroke-miterlimit="10"/><path d="M423.991 104.852c4.67 12.503 6.193 37.878 6.193 37.878m-48.35-19.114c1.759 9.106 8.826 23.721 14.871 30.755" stroke="#fff" stroke-width="2" stroke-miterlimit="10"/><path d="M470.667 217.791a67.5 67.5 0 0 1 25.126-1.199m-61.923-2.715c15.659-1.926 30.822-7.766 43.728-16.841" stroke="#000" stroke-miterlimit="10"/><path d="m259.784 163.486-2.605-.835-20.975-6.726c-1.344-.431-2.726-.867-4.136-.789-1.708.095-3.279.934-4.741 1.823a54 54 0 0 0-5.255 3.638c-1.378 1.079-2.666 2.447-2.742 4.293-.051 1.248.545 1.518.924 2.708.878 2.754 1.837 3.832 2.391 6.669.216 1.106 1.002 3.315 1.282 4.406.456 1.779 2.378 2.885 3.423 4.395 1.087 1.57.221 3.24 1.931 3.572 1.936.376 3.823 1.479 5.765 1.876 3.014.617 8.767 1.332 11.648 2.41.8.299 1.607.594 2.448.741 3.841.673 6.301-.21 11.152-1.563" fill="#E9725B"/><path d="m157.083 67.509 15.156 36.248m-12.531-46.583 23.57 56.372m-20.295-65.153 28.633 68.483M167.663 42.97l31.706 75.831m-26.284-79.474 33.455 80.013m-27.541-82.485 33.148 79.28m-26.746-80.581 32.081 76.728m-7.693-68.245 17.134 40.98m-26.578-46.952L224.904 96.8m-32.357-60.768 29.151 69.718m-57.62-59.27 27.135-11.345m-32.046 20.068 41.149-17.205m-43.545 24.875 50.385-21.067m-50.783 27.903 55.789-23.327m-54.772 29.57 59.81-25.008m-57.885 30.871 60.11-25.133m-57.247 30.605 59.916-25.051m-57.543 30.728 59.622-24.93M168.239 98.09l56.896-23.79M172 103.186l54.061-22.603m-49.848 27.51 49.929-20.876m-43.482 24.85 43.507-18.191m-37.902 22.516 35.57-14.872m-27.511 18.171 24.03-10.047" stroke="#E6EBFF" stroke-width=".75" stroke-miterlimit="10"/><path d="m226.07 141.269-11.234 4.698 24.315 58.146 11.233-4.698z" fill="#D1402C"/><path d="M250.31 199.27c.564 1.348-1.494 3.493-4.596 4.79s-6.074 1.255-6.637-.093c-.564-1.348 1.494-3.493 4.596-4.79s6.073-1.255 6.637.093m-28.836-53.21c3.102-1.298 5.16-3.442 4.596-4.79-.564-1.349-3.536-1.39-6.638-.093s-5.16 3.442-4.596 4.79 3.536 1.39 6.638.093" fill="#D1402C"/><path d="m222.308 137.991-7.162 2.995 1.453 3.472 7.161-2.994z" fill="#432572"/><path d="M223.711 141.376c.359.86-.952 2.227-2.93 3.053s-3.872.8-4.231-.059.952-2.227 2.93-3.053 3.872-.8 4.231.059m-1.409-3.374c.359.86-.952 2.227-2.93 3.053-1.977.827-3.872.8-4.231-.059-.359-.86.952-2.227 2.93-3.053 1.977-.827 3.871-.8 4.231.059" fill="#432572"/><path d="M221.453 61.115c9.293 22.227 4.972 49.911-11.719 56.89s-39.432-9.391-48.725-31.618-1.62-41.893 15.071-48.872c16.691-6.98 36.08 1.373 45.373 23.6Z" stroke="#D1402C" stroke-width="2.5" stroke-miterlimit="10"/><path d="M194.461 118.677s7.355 1.377 14.666 9.731c5.555 6.347 7.896 11.801 7.896 11.801m3.932-32.562s-4.186 6.202-3.375 17.274c.617 8.412 2.854 13.909 2.854 13.909" stroke="#D1402C" stroke-width="2.5" stroke-miterlimit="10"/><path d="M230.05 151.24a18.7 18.7 0 0 1-2.861 4.297c-.52.585-1.081 1.143-1.498 1.806-.986 1.567-.31 3.352.993 4.553.731.674 1.615 1.155 2.441 1.709 1.445.968 2.766 2.221 3.438 3.825 1.199 2.862.124 6.096-.285 9.172-.152 1.144-.197 2.364.327 3.392.701 1.376 2.235 2.084 3.677 2.637s2.997 1.12 3.896 2.376c2.287 3.199-.582 7.178-1.584 10.28-.592 1.831-.753 3.961.298 5.573" stroke="#A0372B" stroke-miterlimit="10"/><path d="M215.999 141.557c1.821.316 3.781-.316 5.074-1.637.28-.286.535-.611.654-.993m-6.34 7.904c3.974.813 8.354-.932 10.68-4.255" stroke="#000" stroke-width=".75" stroke-miterlimit="10"/><path d="M220.345 162.031c-1.153.731-1.849 2.417-2.036 3.769-.222 1.608.583 2.979 1.896 3.938-1.009.846-1.213 2.96-.79 4.051a4.45 4.45 0 0 0 2.378 2.456c.07.03-.231 2.076-.229 2.293.025 2.405 2.298 3.433 4.171 4.299-.418 1.494.454 3.126 1.74 3.995 2.441 1.65 5.328 1.095 7.881.07 1.998-.802 4.274-1.489 6.001-2.809 1.133-.866 2.039-2.137 2.13-3.56.049-.772-.209-1.64-.889-2.008.38-.796.695-1.646.714-2.528.018-.882-.302-1.807-.999-2.348-.58-.45-1.35-.588-2.083-.559a3.97 3.97 0 0 0 .549-3.554 3.97 3.97 0 0 0-2.591-2.494c.528-1.042.603-2.14-.018-3.14-.669-1.076-2.082-1.68-3.307-1.304-1.454.447-2.852.968-4.366 1.273a35.3 35.3 0 0 1-9.943.571" fill="#E9725B"/><path d="M220.165 169.698c1.344.616 2.852.754 4.328.827 1.745.087 3.503.095 5.232-.158 3.029-.443 5.884-1.736 8.356-3.52.503-.363.542-1.083.533-1.703-.003-.202-.006-.409-.074-.6-.07-.196-.202-.363-.336-.522-.694-.827-1.544-1.61-2.603-1.817" stroke="#000" stroke-miterlimit="10"/><path d="M221.604 176.326c3.072.764 6.314.822 9.416.197 1.836-.37 3.641-.9 5.393-1.563 1.113-.421 2.276-.866 3.325-1.428.57-.306.65-.688.91-1.221.172-.352.346-.708.439-1.089.22-.904-.042-1.881-.566-2.649s-1.288-1.346-2.106-1.789" stroke="#000" stroke-miterlimit="10"/><path d="M225.399 182.739c2.493.424 5.06.283 7.542-.2 2.015-.393 4.021-.91 5.907-1.734 1.548-.677 3.524-1.342 4.141-3.108.187-.537.2-1.116.212-1.684.009-.457.015-.929-.159-1.351-.204-.493-.638-.862-1.116-1.097s-1.006-.351-1.527-.465" stroke="#000" stroke-miterlimit="10"/><path d="M243.196 181.966c.903-1.361.327-2.858-.352-4.157" stroke="#000" stroke-miterlimit="10"/><path d="M236.882 157.3c-3.039 1.273-6.969 2.743-8.851 5.629-1.716 2.631-1.731 6.796-2.298 9.829-.129.689-.243 1.458.141 2.045.749 1.144 3.214.907 4.276.047 1.54-1.246 2.079-3.22 2.782-5.073.179-.472.374-1.01.838-1.21.264-.114.565-.091.852-.066l5.015.442c1.824 3.44 5.176 7.052 8.553 8.99s4.153 1.326 7.933 2.261" fill="#E9725B"/><path d="M236.882 157.3c-3.039 1.273-6.969 2.743-8.851 5.629-1.716 2.631-1.731 6.796-2.298 9.829-.129.689-.243 1.458.141 2.045.749 1.144 3.214.907 4.276.047 1.54-1.246 2.079-3.22 2.782-5.073.179-.472.374-1.01.838-1.21.264-.114.565-.091.852-.066l5.015.442c1.824 3.44 5.176 7.052 8.553 8.99s4.153 1.326 7.933 2.261m60.137-17.811a19.5 19.5 0 0 1 5.288 6.7m193.282-19.519a29.5 29.5 0 0 1-.023-7.24" stroke="#000" stroke-miterlimit="10"/><path d="M400.058 94.469c-.805-6.384-3.481-14.17-9.135-17.365-5.481-3.097-12.539-3.208-18.619-2.15-5.197.904-10.223 3.384-12.549 8.369-1.446 3.099-1.061 6.809-.312 10.052 1.761 7.623 3.547 15.461 6.408 22.761 1.926 4.915 5.267 9.214 10.715 10.145 9.345 1.597 16.68-5.231 20.501-12.972 3.095-6.272 3.885-11.747 2.991-18.84" fill="#E9725B"/><path d="M408.757 82.177q-.09-.2-.174-.403c-.66-1.603-.858-3.343-1.458-4.967-.728-1.973-1.657-3.888-2.927-5.573-1.504-1.994-3.814-3.687-6.575-4.106-2.374-.36-4.779.239-7.075.833l.542 5.942a30.2 30.2 0 0 0 1.705 8.1c.612 1.71 1.475 3.489 3.228 4.506.374.217.785.397 1.106.668.73.616.848 1.552 1.077 2.397.541 1.998 1.656 4.083 3.145 5.527 1.447 1.405 2.546 3.134 4.091 4.489.792.695 2.357 1.962 3.491 1.33.308-.172.543-.451.733-.749 1.195-1.873 1.594-4.762 1.828-6.938.249-2.31.206-4.783-.701-6.958-.587-1.41-1.411-2.705-2.036-4.098" fill="#38121F"/><path d="M396.243 95.512c1.103-1.846 3.147-3.095 5.293-3.235s4.334.833 5.668 2.52c1.195 1.512 1.684 3.494 1.668 5.422-.028 3.406-1.722 6.889-4.702 8.537s-6.122 1.107-7.573-2.458" fill="#E9725B"/><path d="M408.933 100.921c-1.377 7.095-4.896 8.326-7.038 8.613-2.446.328-4.375-.965-5.299-3.236m-.353-10.786c.513-.86 2.491-3.302 7.146-2.981m2.727 6.504c-.507-1.13-1.468-2.069-2.642-2.468-1.213-.413-2.542-.119-3.529.681-1.004.814-1.715 2.077-2.093 3.301" stroke="#000" stroke-miterlimit="10"/><path d="M402.197 96.64c.807 1.203 1.418 2.59 1.452 4.059.036 1.565-.632 3.169-1.418 4.492" stroke="#000" stroke-miterlimit="10"/><path d="M392.49 63.033a21.85 21.85 0 0 0-13.388-1.456c-4.682.986-8.839 3.473-12.829 6.01-2.006 1.276-3.994 2.583-6.054 3.773-1.914 1.105-6.433 1.429-7.028 4.005-.305 1.32 2.491 1.999 3.364 2.195-.327.652-.905 1.146-1.278 1.773-.898 1.51-.284 3.713 1.265 4.542.789.422 1.712.5 2.606.519a22.7 22.7 0 0 0 11.382-2.817c.179-.1.371-.204.575-.185.425.039.85.592 1.217.805.606.352 1.352.569 2.022.76 1.765.502 3.621.59 5.444.456 3.127-.23 6.245-1.225 8.795-3.078 3.119-2.267 3.97-5.376 5.722-8.627l3.406-4.548c-1.21-1.898-3.171-3.201-5.221-4.127" fill="#38121F"/><path d="M370.162 98.404s1.518 5.835 1.046 10.709c-.129 1.335.253 2.803 1.546 3.309 1.44.564 3.885-.259 5.284-.907" stroke="#000" stroke-miterlimit="10"/><path d="m384.749 111.698-7.776 3.518s2.174 2.778 4.823 1.964c2.648-.815 3.722-2.602 2.953-5.482" fill="#fff"/><path d="M385.848 125.64c5.053-2.622 9.074-7.566 11.577-12.679" stroke="#000" stroke-miterlimit="10"/><path d="M352.046 76.895c2.783.943 5.881.929 8.656-.039m-7.283-7.112c4.32 1.238 8.98-.141 13.043-2.016s7.936-4.277 12.329-5.251a20.2 20.2 0 0 1 9.398.168" stroke="#38121F" stroke-miterlimit="10"/><path d="M371.31 80.985c2.421-1.257 4.912-2.57 6.645-4.676m13.556.649a40 40 0 0 0 5.592-8.334m-38.85 12.349c1.514.023 2.987-.465 4.401-1.007a53.7 53.7 0 0 0 14.374-8.237m2.282 10.17a26.36 26.36 0 0 0 11.513-10.264" stroke="#68374A" stroke-miterlimit="10"/><path d="M381.565 80.809c-1.48.359-21.285 5.506-22.948 6.899-1.663 1.394-5.581 6.84-5.118 10.137s5.664 7.988 9.924 8.96 23.546-1.188 25.529-2.616c1.328-.956 5.634-1.806 5.773-7.041.103-3.861-1.948-8.855-3.054-11.628-2.136-5.354-5.362-5.861-10.106-4.711" fill="#14131C"/><path d="M378.473 85.527c-1.48.359-21.285 5.506-22.948 6.899-1.663 1.394-2.354 4.389-1.892 7.686s2.438 10.438 6.698 11.411 26.637-5.906 28.62-7.334c2.691-1.937 1.811-8.478-.372-13.951-2.136-5.354-5.362-5.862-10.106-4.711" fill="#46415B"/><path d="M361.662 108.612c-.484.018-.667-.014-.674-.016-1.903-.435-3.841-5.04-4.382-8.9-.368-2.62.237-4.322.756-4.882 2.437-1.242 18.286-5.514 21.82-6.371 1.052-.255 1.91-.392 2.622-.418 1.487-.054 2.726.157 3.991 3.326 2.194 5.499 2.017 9.033.825 10.551-1.193 1.519-19.19 6.5-24.958 6.71" fill="#B5F4E1"/><mask id="d" style="mask-type:luminance" maskUnits="userSpaceOnUse" x="356" y="88" width="32" height="21"><path d="M361.662 108.612c-.484.018-.667-.014-.674-.016-1.903-.435-3.841-5.04-4.382-8.9-.368-2.62.237-4.322.756-4.882 2.437-1.242 18.286-5.514 21.82-6.371 1.052-.255 1.91-.392 2.622-.418 1.487-.054 2.726.157 3.991 3.326 2.194 5.499 2.017 9.033.825 10.551-1.193 1.519-19.19 6.5-24.958 6.71" fill="#fff"/></mask><g mask="url(#d)"><path d="m365.251 78.91-12.139 42.895 3.849 1.089L369.1 79.999zm19.459-.634-12.139 42.896 3.849 1.09 12.139-42.897zm-12.195.917-12.143 42.895 7.696 2.179 12.144-42.895z" fill="#fff" opacity=".75"/><path d="M355.91 99.9s.082-1.48 4.292-2.952 17.729-4.827 20.059-5.333c3.431-.745 6.218-.752 6.218-.752" stroke="#000" stroke-miterlimit="10"/></g><path d="M406.979 75.696c-3.864 4.949-9.873 8.698-16.667 10.399l2.749 6.688c6.797-1.834 12.813-5.86 16.685-11.167z" fill="#14131C"/><path d="M391.819 85.868c.839 2.154 1.662 4.932 2.147 6.589" stroke="#646072" stroke-miterlimit="10"/><path opacity=".25" d="M385.794 91.35c-1.264-3.17-2.503-3.38-3.99-3.326-.712.026-1.57.163-2.622.418-3.533.856-19.366 5.125-21.816 6.369-4.072 2.068-8.33 3.949-12.295 6.189-6.28 3.548-9.049 9.795-14.256 14.743-6.951 6.606-17.042 8.396-26.499 9.983-47.083 7.901-95.471 18.827-133.549 47.625-14.642 11.073-27.786 25.207-33.42 42.679-5.634 17.471-2.287 38.647 11.581 50.676 12.558 10.893 29.656 14.931 45.943 12.603 17.95-2.566 30.943-14.773 46.007-23.531 14.197-8.255 31.447-8.49 47.578-11.573 12.905-2.467 25.643-6.999 36.057-15.01s18.323-19.795 19.836-32.847c.819-7.06-.215-14.192-.199-21.299s1.272-14.623 5.893-20.023c3.063-3.58 7.404-5.983 10.075-9.865 6.074-8.827 8.527-19.222 15.149-28.076 3.781-5.056 7.456-10.217 11.353-15.183 1.191-1.519 1.368-5.052-.826-10.552M230.969 297.086c2.846 4.755 8.506 7.135 13.994 7.905 3.339.469 6.799.448 10.016-.561s6.179-3.081 7.823-6.025c.956-1.712 1.441-3.651 1.707-5.594 1.577-11.514-8.208-20.056-19.514-20.087-11-.03-19.707 14.871-14.026 24.362" fill="#fff"/><path opacity=".25" d="M274.552 106.528c-7.11 3.175-14.4 6.97-18.679 13.476s-4.265 16.457 2.007 21.074c5.878 4.327 13.503 2.716 20.242 2.539 9.57-.251 22.698.838 28.213-8.816 3.486-6.103 3.969-14.004.608-20.177-6.192-11.374-21.867-12.796-32.391-8.096" fill="#fff"/><path d="M208.721 214.57c4.25 8.61.715 19.035-7.895 23.285s-19.035.715-23.285-7.895-.715-19.035 7.895-23.285 19.035-.715 23.285 7.895" fill="#7F52F8"/><path d="M176.908 216.567c4.646.953 8.783 4.133 10.898 8.378s2.163 9.463.125 13.746m7.037-33.206c.092 4.895 1.847 10.683 5.778 14.683 2.547 2.592 5.812 4.312 9.114 4.802" stroke="#000" stroke-miterlimit="10"/><path d="M178.365 224.97h-9.952m-2.953-6.966h-9.952m58.858 0h-6.996m-51.862 20.687h-6.996" stroke="#7F52F8" stroke-width="3" stroke-miterlimit="10"/><path d="M175.952 224.97h5.004m8.471-14.423h10.743m5.018 7.457h4.671" stroke="#BDCDF4" stroke-width="3" stroke-miterlimit="10"/><path d="M634.228 351.07c6.744-19.318-3.449-40.446-22.768-47.19-19.318-6.744-40.446 3.449-47.19 22.767-6.745 19.318 3.449 40.446 22.767 47.191 19.318 6.744 40.446-3.449 47.191-22.768Z" stroke="#B5F4E1" stroke-width="1.5" stroke-miterlimit="10"/><path d="M582.429 372.188a31.48 31.48 0 0 1 18.144-6.784c6.559-.278 13.192 1.578 18.654 5.222m-42.486-2.367c2.002-3.702 4.268-5.992 7.972-7.992 5.232-2.825 11.375-3.391 17.321-3.404 7.03-.015 14.662.839 21.388-1.688 7.299-2.742 11.765-9.632 12.857-17.166m-64.388 25.812c-.38-3.225.364-6.339 2.263-8.973 4.098-5.685 11.423-7.987 18.02-9.189 6.03-1.099 12.278-1.646 17.827-4.249 10.928-5.126 17.77-13.681 13.494-30.59m-22.544-9.138c6.056 7.106 5.09 17.087-2.212 22.774-6.252 4.869-14.438 6.159-20.66 11.178-8.156 6.58-10.826 12.605-10.119 23.061m9.437-50.009c2.35 3.743 1.285 8.525-.823 12.101-1.882 3.194-4.71 5.667-6.843 8.675a32 32 0 0 0-4.921 10.707c-.869 3.469-.812 8.308-.214 11.829" stroke="#B5F4E1" stroke-width="1.5" stroke-miterlimit="10"/><path d="m287.054 349.085 2.081 18.614 13.558-12.922-10.371 15.596 18.692-1.184-17.97 5.281 15.08 11.109-17.16-7.506 4.411 18.203-8.321-16.78-8.321 16.78 4.412-18.203-17.16 7.506 15.079-11.109-17.969-5.281 18.692 1.184-10.371-15.596 13.558 12.922z" fill="#F9CAAA"/><path d="m251.703 325.168-4.078 9.325 9.891-2.397-9.118 4.522 9.118 4.521-9.891-2.397 4.078 9.325-6.036-8.194-2.87 9.765.643-10.158-8.475 5.636 7.022-7.368-10.115-1.13 10.115-1.131-7.022-7.367 8.475 5.635-.643-10.157 2.87 9.765zM485.644 49.67l-4.078 9.324 9.891-2.397-9.118 4.521 9.118 4.522-9.891-2.397 4.078 9.325-6.036-8.195-2.87 9.765.643-10.157-8.475 5.636 7.022-7.368-10.115-1.13 10.115-1.13-7.022-7.369 8.475 5.636-.643-10.157 2.87 9.765zm179.877 367.406-4.079 9.325 9.892-2.397-9.118 4.522 9.118 4.521-9.892-2.397 4.079 9.325-6.037-8.194-2.869 9.765.643-10.158-8.475 5.636 7.022-7.368-10.115-1.13 10.115-1.131-7.022-7.367 8.475 5.635-.643-10.157 2.869 9.765z" fill="#B5F4E1"/><path d="m682.474 279.879 1.169 10.458 7.617-7.26-5.827 8.763 10.502-.666-10.096 2.967 8.473 6.241-9.641-4.216 2.478 10.226-4.675-9.427-4.675 9.427 2.479-10.226-9.641 4.216 8.472-6.241-10.096-2.967 10.502.666-5.827-8.763 7.617 7.26zM70.5 308.319l-4.057 7.691 8.578-1.425-8.052 3.283 7.487 4.422-8.279-2.66 2.893 8.2-4.632-7.359-3.055 8.141 1.183-8.615-7.574 4.273 6.444-5.839-8.548-1.595 8.69-.332-5.524-6.716 6.87 5.332.086-8.696 1.835 8.5z" fill="#FFE978"/><path d="M156.496 162.638c-3.531 7.751-32.846 1.984-65.478-12.882s-56.221-33.2-52.69-40.951 32.846-1.984 65.477 12.882 56.222 33.2 52.691 40.951Z" stroke="#fff" stroke-width="2" stroke-miterlimit="10" stroke-linejoin="round"/><path d="M103.738 167.687c18.724-3.004 31.467-20.617 28.463-39.34s-20.616-31.466-39.34-28.463c-18.723 3.004-31.466 20.617-28.463 39.34s20.617 31.467 39.34 28.463" fill="#EBB0FF"/><path d="M66.618 148.665c2.604-2.051 6.243-2.151 9.18-3.688 4.383-2.294 6.584-8.053 4.85-12.686-1.309-3.491-4.36-5.965-6.94-8.655s-3.897-6.416-3.167-10.072m10.843-9.301c-1.955 7.449.623 15.9 6.401 20.99 2.66 2.342 5.981 4.086 7.81 7.121 1.075 1.786 1.53 3.864 2.175 5.846a30.3 30.3 0 0 0 2.711 6c1.53 2.59 4.043 5.208 7.02 4.776 1.946-.282 3.51-1.883 4.233-3.711s.736-3.857.588-5.817c-.603-8.001-3.669-15.583-6.727-23.001-.484-1.175-.976-2.382-1.009-3.652s.494-2.636 1.609-3.245c.637-.348 1.386-.414 2.08-.628 2.518-.776 4.094-3.787 3.297-6.298" stroke="#9A8AED" stroke-width="1.5" stroke-miterlimit="10"/><path d="M125.553 112.465c-2.64 3.106-5.373 6.395-6.185 10.389-1.539 7.566 4.233 15.242 2.569 22.782-.858 3.889-3.664 7.159-7.063 9.233s-7.355 3.065-11.302 3.596c-5.854.787-12.37.845-16.715 4.846-.83.765-1.595 1.824-1.375 2.932" stroke="#9A8AED" stroke-width="1.5" stroke-miterlimit="10"/><path d="M156.496 162.638c-3.531 7.751-32.846 1.984-65.478-12.882s-56.221-33.2-52.69-40.951" stroke="#fff" stroke-width="2" stroke-miterlimit="10" stroke-linejoin="round"/><path d="M665.369 231.43c16.926-10.495 28.625-22.262 26.132-26.282s-18.234 1.228-35.159 11.723-28.625 22.262-26.132 26.282 18.234-1.228 35.159-11.723Z" stroke="#D1402C" stroke-width="1.5" stroke-miterlimit="10"/><path d="M678.836 227.442c2.374-10.26-4.018-20.503-14.278-22.878s-20.504 4.018-22.878 14.278c-2.375 10.261 4.018 20.504 14.278 22.878 10.26 2.375 20.503-4.018 22.878-14.278" fill="#F9CAAA"/><path d="M691.483 205.163c2.493 4.02-9.207 15.787-26.132 26.281s-32.666 15.743-35.159 11.722" stroke="#D1402C" stroke-width="1.5" stroke-miterlimit="10"/><path opacity=".65" d="M564.343 242.775c6.134 0 11.106-4.972 11.106-11.106s-4.972-11.106-11.106-11.106-11.106 4.972-11.106 11.106 4.972 11.106 11.106 11.106" fill="#9A8AED"/><path d="M575.012 416.645a2.913 2.913 0 1 0 0-5.826 2.913 2.913 0 0 0 0 5.826m-28.553-148.537a2.913 2.913 0 1 0 0-5.826 2.913 2.913 0 0 0 0 5.826m-208.636-37.14a2.913 2.913 0 1 0 0-5.826 2.913 2.913 0 0 0 0 5.826" fill="#FFE978"/><path d="M274.035 69.709a2.913 2.913 0 1 1-5.826 0 2.913 2.913 0 0 1 5.826 0m395.881 257.308a2.913 2.913 0 1 0 0-5.826 2.913 2.913 0 0 0 0 5.826" fill="#B5F4E1"/><path opacity=".65" d="M164.661 310.391a2.913 2.913 0 1 0 0-5.826 2.913 2.913 0 0 0 0 5.826" fill="#9A8AED"/><path d="M200.305 400.605c2.123-5.853.291-13.033-4.578-16.975-5.343-4.325-13.749-4.277-19.042.109 1.079-7.051.138-11.26-.614-16.826-.619-4.585-3.23-8.743-6.469-12.257-8.023-8.702-22.954-6.151-32.04-1.129-20.297 11.219-30.555 29.545-30.555 29.545s-2.643-12.049-20.312-4.677c-9.449 3.942-21.316 12.296-29.246 22.211zM671.207 90.557c5.392-17.22-9.836-28.273-23.278-28.412-10.723-.11-21.654 1.745-30.857 8.126 1.447-9.003.614-16.094-4.993-20.043-5.607-3.95-15.523-3.502-22.096-1.544-14.667 4.368-34.315 14.125-57.38 41.873z" fill="#fff"/><path d="M145.579 322.942a9.024 9.024 0 1 0-16.97-6.143 9.024 9.024 0 0 0 16.97 6.143Z" stroke="#B5F4E1" stroke-width="1.5" stroke-miterlimit="10"/><path d="M655.635 105.507h41.548M242.321 36.855h41.548M39.6 421.849h41.547m115.562-58.028h18.678m-1.021 6.999h12.721m387.628-265.313h18.499m57.968 233.312h18.499m-49.918 33.862h31.224m-4.85-8.86h11.046M85.222 191.898h22.309m413.372 90.179h20.282" stroke="#7F52F8" stroke-width="1.5" stroke-miterlimit="10"/><path d="M318.325 46.382h-34.361v5.958h34.361zm-192.51 368.476h-20.539v5.958h20.539zm530.576-288.394h-20.538v5.958h20.538z" fill="#FFE978"/></g><defs><clipPath id="a"><path fill="#fff" d="M0 0h750v500H0z"/></clipPath></defs></svg>