<svg width="300" height="203" viewBox="0 0 300 203" fill="none" xmlns="http://www.w3.org/2000/svg"><path d="M194.898 148.905c-13.587 6.577-26.745 14.266-41.43 17.508-10.867 2.399-22.042 2.229-33.096 2.806-9.839.515-22.615.791-30.678 7.366-2.536 2.067-4.37 5.306-3.871 8.539.87 5.642 7.695 7.991 13.384 8.456 7.502.615 15.045-.024 22.572.044 29.566.27 58.756 11.431 88.105 7.838 9.898-1.213 19.767-4.2 27.826-10.074 8.058-5.874 14.136-14.885 15.053-24.815.808-8.755-2.989-17.845-10.052-23.159-8.623-6.488-20.052-5.067-29.736-1.982-6.213 1.98-12.185 4.622-18.077 7.473" fill="#9A8AED"/><path d="M207.023 150.327c-8.398-.436-16.87.3-25.019 2.174-9.962 2.291-19.37 6.25-29.31 8.617-5.256 1.252-10.72 3.04-16.099 3.076-7.453.05-14.91-.032-22.363-.048-6.634-.014-13.324-.023-19.819 1.327s-12.864 4.175-17.362 9.051c-1.862 2.019-3.422 4.497-3.583 7.24-.317 5.377 4.773 9.62 9.91 11.243 11.023 3.482 22.792-.714 34.25-2.244 26.34-3.52 51.874 8.772 78.227 6.617 10.867-.888 22.64-5.562 30.866-12.748 5.961-5.208 10.205-14.884 7.022-22.767-4.153-10.284-17.328-11.051-26.72-11.538Z" stroke="#B5F4E1" stroke-width="1.5" stroke-miterlimit="10"/><path d="M191.674 122.632c-2.538-.294-17.089 1.116-17.218 3.504s7.75 3.707 15.877 4.56 14.166 2.188 13-.894-2.041-6.058-11.659-7.17" fill="#000"/><path d="M161.336 134.542c-3.812-7.811-8.054-12.221-7.925-12.634s19.032-16.044 19.032-16.044l-23.629-12.9s-5.872 5.023-14.544 13.33c-2.706 2.592-6.473 10.48-2.736 17.551 3.304 6.253 9.628 14.985 11.529 17.594 3.477 4.774 14.382 18.724 14.382 18.724l13.465-9.039s-5.762-8.77-9.574-16.582" fill="#E9725B"/><path d="m168.698 76.325-4.68 4.995s-19.074 12.63-28.047 22.869c2.547 1.928 4.052 4.75 6.196 7.119 1.275 1.408 2.662 2.617 4.18 3.76 3.555 2.676 5.59 2.956 12.225 4.451 1.993-1.474 5.151-3.628 5.63-4.01a961 961 0 0 1 5.594-4.422c3.557-2.785 7.347-5.327 10.762-8.233 2.068-1.76 4.346-3.258 6.436-4.99 1.821-1.51 3.415-3.313 4.59-5.37 1.269-2.224 1.743-4.558 2.219-7.04.385-1.999.681-4.035.556-6.076" fill="#FFE978"/><path d="M153.639 118.202c9.452-7.879 19.266-15.467 28.717-23.346" stroke="#fff" stroke-width="3" stroke-miterlimit="10"/><path d="M199.331 148.25c-2.319-8.377-5.683-13.488-5.48-13.87s7.904-27.491 7.904-27.491l-25.352 9.859c-.354 5.276-1.734 10.441-1.806 15.74-.096 7.05 2.538 12.982 5.508 19.201 2.545 5.329 10.701 20.471 10.701 20.471l14.905-5.856s-4.061-9.677-6.38-18.054" fill="#E9725B"/><path d="M205.745 82.37c-.17 2.588 1.179 4.932 1.559 7.438.363 2.39-.026 4.746-.225 7.118-.64 7.629-1.908 15.135-3.001 22.707-.486 3.366.036 7.349-.616 11.007-.312-1.931-8.53-4.404-13.033-4.985-5.253-.679-12.505-1.063-15.972.481 0 0 1.383-10.365 1.827-14.838q.333-3.356.758-6.701c.245-1.932.32-5.093.312-7.04-.01-2.292-.48-3.417-2.108-5.033-.381-1.534-.132-3.554.323-5.068a83 83 0 0 1 6.098-14.882" fill="#FFE978"/><path d="M176.87 105.982s.515-9.154.402-9.779-.956-3.834-.956-3.834" stroke="#000" stroke-miterlimit="10"/><path d="M201.857 77.105c1.32 2.442 2.038 11.337 2.063 14.113.199 22.581-3.395 21.493-2.94 37.01" stroke="#fff" stroke-width="3" stroke-miterlimit="10"/><path d="M201.877 156.261s-2.719 2.59-8.226 4.469-8.366 1.27-8.366 1.27c2.684 5.221 5.435 10.236 7.529 15.325l13.962-8.976zm12.425 22.121c-.191-1.094-1.059-2.095-2.16-2.241l-34.996 13.675c-.219.68.131 1.432.643 1.932.778.759 1.802 1.315 2.829 1.643 2.137.683 4.421.985 6.652.655 2.309-.342 4.289-1.549 6.441-2.366 2.005-.759 4.283-1.132 5.936-2.596.753-.666 1.32-1.554 2.187-2.063.675-.396 1.471-.526 2.25-.603.605-.061 1.216-.094 1.809-.229.651-.148 1.268-.415 1.87-.703a27 27 0 0 0 3.182-1.796c.928-.611 1.832-1.292 2.492-2.185s1.056-2.029.865-3.123" fill="#fff"/><path d="M208.973 180.721c1.267-.591 3.322-1.566 3.699-3.045.355-1.391-.302-3.146-1.099-4.273-.83-1.175-1.664-2.407-2.601-3.479-1.027-1.176-2.024-2.451-2.423-3.989-.092-.353-.153-.721-.334-1.038-.95-1.663-2.415.736-2.793 1.56-.537 1.168-.655 2.551-1.476 3.54-.809.975-2.124 1.35-3.371 1.571-1.848.328-3.796.684-5.68.405-.694-.103-1.362-.348-2.057-.45-.696-.101-1.463-.034-2.004.414-1.035.859.217 2.458.058 3.531-.091.616-.646 1.374-.954 1.906a21.7 21.7 0 0 1-2.565 3.509c-1.926 2.166-4.195 3.998-6.492 5.767-1.335 1.027-2.233 3.029-1.25 4.059.478.501 3.386 1.064 4.664 1.057 4.061-.023 8.235-.649 11.781-2.746 1.916-1.133 3.577-2.651 5.448-3.858 2.928-1.888 6.291-2.968 9.449-4.441" fill="#D1402C"/><path d="m181.346 184.864-.7.923c-.216.284-.441.595-.447.952-.006.416.293.777.627 1.027.611.458 1.38.675 2.143.715s1.525-.088 2.268-.265c1.717-.409 3.362-1.082 5.078-1.488 1.717-.407 3.573-.533 5.206.136.311.127.615.285.86.514m13.537-16.12c-.809 1.091-1.897 1.941-2.812 2.946s-1.683 2.269-1.615 3.626c.034.663.266 1.321.163 1.977-.113.722-.61 1.316-1.088 1.869l-1.35 1.56" stroke="#000" stroke-miterlimit="10"/><path d="M184.388 181.159c1.153.217 2.31.436 3.42.816 1.11.381 2.178.932 3.027 1.742m-4.356-4.905c2.638-.514 5.484.152 7.619 1.784m-5.65-5.059c2.41-.129 4.844.212 7.126.998" stroke="#fff" stroke-width="3" stroke-miterlimit="10" stroke-linecap="round"/><path d="M186.293 163.891c2.929.397 5.929-.199 8.674-1.298s5.265-2.684 7.72-4.331" stroke="#FFE978" stroke-miterlimit="10"/><path d="M166.089 143.06s-2.247 3.009-7.361 5.784-8.119 2.656-8.119 2.656c3.52 4.697 7.157 9.179 10.075 13.845l12.26-11.189zm15.956 19.726c-.372-1.046-1.396-1.888-2.506-1.847l-32.21 19.345c-.102.707.369 1.39.958 1.796.894.618 1.997.995 3.065 1.146 2.221.316 4.524.231 6.667-.469 2.219-.724 3.968-2.245 5.954-3.411 1.849-1.085 4.032-1.834 5.416-3.554.631-.783 1.042-1.753 1.811-2.4.599-.504 1.362-.765 2.117-.972.587-.161 1.183-.297 1.745-.529.617-.255 1.181-.621 1.727-1.006a27 27 0 0 0 2.835-2.304c.813-.757 1.59-1.58 2.09-2.571.502-.991.702-2.177.331-3.224" fill="#fff"/><path d="M177.183 165.985c1.151-.795 3.013-2.1 3.137-3.621.116-1.431-.825-3.051-1.799-4.029-1.016-1.019-2.045-2.094-3.148-2.994-1.209-.987-2.405-2.077-3.058-3.526-.149-.333-.271-.685-.503-.967-1.214-1.481-2.257 1.13-2.492 2.005-.334 1.242-.218 2.625-.862 3.738-.634 1.097-1.867 1.687-3.059 2.114-1.768.632-3.628 1.309-5.532 1.35-.703.015-1.402-.115-2.104-.099-.703.017-1.448.211-1.906.744-.877 1.02.625 2.386.648 3.471.014.622-.406 1.462-.621 2.039a21.6 21.6 0 0 1-1.941 3.888c-1.535 2.459-3.466 4.645-5.434 6.774-1.143 1.237-1.694 3.36-.552 4.212.555.414 3.516.482 4.775.26 4-.703 8.01-2.019 11.154-4.68 1.699-1.439 3.083-3.213 4.725-4.716 2.571-2.353 5.706-3.981 8.572-5.963" fill="#D1402C"/><path d="m150.64 174.697-.535 1.027c-.165.317-.335.661-.281 1.014.064.412.419.718.79.908.68.349 1.474.434 2.232.345.759-.088 1.49-.342 2.193-.641 1.623-.691 3.133-1.63 4.757-2.318s3.433-1.124 5.155-.738c.328.074.654.179.934.363m10.644-18.159c-.614 1.211-1.545 2.231-2.278 3.375s-1.279 2.519-.985 3.846c.144.647.483 1.258.492 1.921.01.731-.381 1.4-.76 2.025l-1.069 1.764" stroke="#000" stroke-miterlimit="10"/><path d="M153.02 170.537c1.172.021 2.35.042 3.509.231 1.157.189 2.303.553 3.275 1.21m-5.116-4.107c2.514-.949 5.431-.768 7.81.483m-6.418-4.041a18.9 18.9 0 0 1 7.193-.21" stroke="#fff" stroke-width="3" stroke-miterlimit="10" stroke-linecap="round"/><path d="M151.882 153.186c2.955-.099 5.934-1.182 8.456-2.725s4.741-3.528 6.886-5.563" stroke="#FFE978" stroke-miterlimit="10"/><path d="M153.441 121.734a13.2 13.2 0 0 1-2.34 3.011m42.883 9.865a7.4 7.4 0 0 1-.766 3.201m-35.195-31.136c5.263.157 10.46-1.054 15.586-2.258m-6.5-2.491 6.821.16m29.47 20.001c-1.511-4.85-1.964-9.842-1.34-14.757" stroke="#000" stroke-miterlimit="10"/><path d="M202.742 36.12s3.928-2.393 5.367-2.354c1.438.038 3.058 5.027 2.766 10.283s-2.253 12.94-5.245 11.721-5.427-7.285-5.762-10.01 1.386-5.88 2.874-9.64" fill="#000"/><path d="m139.143 49.597-14.329 8.974-30.069.518 1.159 11.353s19.498 4.007 26.384 4.007c5.785 0 11.026-.818 15.495-2.627s19.056-8.286 19.056-8.286z" fill="#E9725B"/><path d="M160.534 40.374c-3.542-.226-7.079.695-10.329 2.12s-6.254 3.346-9.26 5.232c-3.577 2.244-10.65 6.743-10.65 6.743 3.893 6.612 8.411 11.472 15.062 15.296 6.876-2.379 12.693-5.003 21.2-6.03" fill="#432572"/><mask id="a" style="mask-type:luminance" maskUnits="userSpaceOnUse" x="130" y="40" width="37" height="30"><path d="M160.534 40.374c-3.542-.226-7.079.695-10.329 2.12s-6.254 3.346-9.26 5.232c-3.577 2.244-10.65 6.743-10.65 6.743 3.893 6.612 8.411 11.472 15.062 15.296 6.876-2.379 12.693-5.003 21.2-6.03" fill="#fff"/></mask><g mask="url(#a)"><path d="M131.79 52.374c4.209 6.848 9.821 13.229 17.025 17.003" stroke="#FFE978" stroke-width="2" stroke-miterlimit="10"/></g><path d="M201.53 33.503c6.258.873 13.298.955 18.928 3.512 3.986 1.81 7.812 4.46 11.08 7.375 7.191 6.412 17.018 16.203 17.018 16.203l-9.879 7.542s-21.213-13.705-25.456-15.118c-2.442-.813-6.829-1.075-13.489-1.43" fill="#E9725B"/><path d="M237.461 68.456c1.217.879 2.679 3.784 3.382 5.76.588 1.651 1.125 2.871 3.226 3.166.998.14 2.203-.301 2.203-.301s1.701 1.782 2.748 1.821c.811.03 1.632-.636 2.142-1.632.684.47 1.24.641 1.82.309.58-.333.946-1.647.657-2.251.929.664 2.138-.622 1.746-2.422.43.136.89-.23 1.02-.662s-.025-1.821-.147-2.256c-1.676-5.974-6.088-8.176-9.953-11.619" fill="#E9725B"/><path d="M209.993 80.235c-.344-3.558-1.299-4.203-3.024-7.206-.782-1.362-4.702-7.727-5.435-9.23-1.788-3.66-5.472-10.272-7.153-13.962-.705-1.547-.976-3.317-1.655-4.904a26 26 0 0 0-2.642-4.734q-.69-.976-1.467-1.885c-.934-1.09-1.981-2.119-3.256-2.779-1.426-.737-3.053-.973-4.65-1.134a59.5 59.5 0 0 0-8.343-.247c-1.957.08-3.744 1.467-5.462 2.407-1.821.998-3.532 2.181-5.24 3.362l-6.038 4.177c-1.282.887-2.57 1.779-3.701 2.852-3.07 2.914-4.776 6.95-6.29 10.903l.461 2.136c2.472-.195 4.46 1.894 6.044 3.801 2.33 2.808 4.662 5.616 6.875 8.519 1.03 1.351 2.127 2.711 3.068 4.122.807 1.21.5 3.196.558 4.623.009.216.018.435.086.64.275.834 1.328 1.015 2.192 1.175 7.914 1.466 13.595 2.327 28.364 1.097 1.989-.028 11.336 1.462 13.19 2.18 1.955-1.458 3.75-3.523 3.518-5.913" fill="#432572"/><path d="m154.417 39.962 2.867 4.668s5.838 6.44 8.544 6.128 5.691-15.4 5.691-15.4l-7.315-6.585z" fill="#E9725B"/><path d="m172.76 60.252-2.706.826-5.653-10.594 2.706-.826z" fill="#FFE978"/><path d="M187.068 55.802c1.611-.95 3.295-.86 5.624-.847 3.887.022 8.845.537 12.937.815-1.986-5.406-2.36-11.403-.738-16.929.578-1.966 1.48-3.989 3.217-5.075-6.021-.56-13.993-1.7-20.034-1.956-2.471-.104-4.957-.158-7.407.181-3.144.435-6.174 1.508-9.319 1.931" fill="#432572"/><mask id="b" style="mask-type:luminance" maskUnits="userSpaceOnUse" x="171" y="31" width="38" height="25"><path d="M187.068 55.802c1.611-.95 3.295-.86 5.624-.847 3.887.022 8.845.537 12.937.815-1.986-5.406-2.36-11.403-.738-16.929.578-1.966 1.48-3.989 3.217-5.075-6.021-.56-13.993-1.7-20.034-1.956-2.471-.104-4.957-.158-7.407.181-3.144.435-6.174 1.508-9.319 1.931" fill="#fff"/></mask><g mask="url(#b)"><path d="M205.979 32.323c-2.97 2.476-3.828 7.096-4.149 10.766-.463 5.313.142 10.778 1.952 15.797" stroke="#FFE978" stroke-width="2" stroke-miterlimit="10"/></g><path d="M246.212 77.088a24 24 0 0 0-1.384-1.133c-.606-.46-1.273-.905-2.03-.975m8.316 2.384a10.44 10.44 0 0 0-2.813-5.344m5.406 3.477a73 73 0 0 0-.196-1.134c-.247-1.35-.568-2.763-1.497-3.772m3.373 2.499c-.092-1.56-.307-3.082-1.223-4.346" stroke="#000" stroke-miterlimit="10"/><path d="M232.023 63.507c-.233.548-.424 1.21-.039 1.688.322.4.926.507 1.37.798.337.22.573.541.842.828.77.818 1.722 1.906 2.895 2.082a.8.8 0 0 0 .307.002c.232-.06.335-.297.423-.5.506-1.162 1.662-2.599 2.575-3.537 2.122-2.183 3.826-4.412 6.586-5.912.129-.07.051-.199.005-.613-.035-.316-.555-.664-.828-.879a11.8 11.8 0 0 1-2.05-2.079c-.489-.645-1.149-1.596-2.072-1.763-1.348-.243-2.558 1.165-3.479 1.833a20.2 20.2 0 0 0-4.767 4.855 18.2 18.2 0 0 0-1.768 3.197" fill="#7F52F8"/><path d="M234.628 67.219c2.817-4.494 5.692-7.727 10.217-10.884" stroke="#fff" stroke-width="2" stroke-miterlimit="10"/><path d="m174.273 32.862-4.473.488c-.156 5.155-.964 9.958-2.902 16.447 3.058-.459 7.698-.227 10.667.703-.495-4.335-1.538-13.775-3.292-17.638m-9.87 17.538s-5.587-3.308-8.993-8.82l-2.427.649s2.127 9.901 6.829 14.936c1.958-4.392 4.591-6.765 4.591-6.765" fill="#FFE978"/><path d="M197.152 55.374s-6.136-.494-7.081-.393-2.325.484-2.325.484m-33.306 10.98s-4.026-4.857-5.212-5.498c-1.186-.64-3.291-1.71-3.291-1.71m20.145-6.654 1.797-.553m-.198 3.675 1.797-.552m-.198 3.673 1.797-.552" stroke="#000" stroke-miterlimit="10"/><path d="M172.829 33.042c2.078 5.566 2.756 16.86 2.756 16.86m-21.522-8.507c.783 4.053 3.929 10.56 6.62 13.69" stroke="#fff" stroke-width="2" stroke-miterlimit="10"/><path d="M193.606 83.315a30.1 30.1 0 0 1 11.184-.534m-27.564-1.207a43.2 43.2 0 0 0 19.465-7.497" stroke="#000" stroke-miterlimit="10"/><path d="m99.734 59.143-1.16-.372-9.337-2.994c-.598-.192-1.213-.386-1.84-.351-.761.042-1.46.416-2.111.811a24 24 0 0 0-2.34 1.62c-.613.48-1.186 1.09-1.22 1.91-.023.556.243.676.411 1.206.391 1.226.818 1.706 1.065 2.969.096.492.446 1.476.57 1.961.203.792 1.059 1.284 1.524 1.956.484.7.098 1.443.86 1.59.861.168 1.701.659 2.566.836 1.341.274 3.902.593 5.185 1.072.356.133.715.265 1.09.33 1.71.3 2.804-.093 4.964-.695" fill="#E9725B"/><path d="m54.018 16.42 6.747 16.135m-5.579-20.736 10.492 25.093M56.646 7.91 69.39 38.395M58.728 5.497l14.114 33.755m-11.7-35.377 14.892 35.617M63.774 2.774l14.755 35.29M66.623 2.196l14.28 34.154M77.48 5.973l7.626 18.241M73.275 3.313l10.932 26.146M69.805 2.41 82.78 33.442M57.132 7.06 69.21 2.008m-14.265 8.933 18.317-7.658M53.878 14.357l22.428-9.378M53.702 17.4 78.536 7.015M54.155 20.178 80.778 9.046M55.012 22.789 81.769 11.6M56.286 25.223l26.671-11.15M57.343 27.75l26.54-11.096M58.984 30.033l25.326-10.59M60.658 32.3l24.065-10.06M62.534 34.485l22.225-9.293M65.404 36.255l19.366-8.098M67.898 38.18l15.834-6.62m-12.247 8.087 10.697-4.472" stroke="#E6EBFF" stroke-width=".75" stroke-miterlimit="10"/><path d="m84.726 49.254-5 2.09 10.823 25.884 5-2.091z" fill="#D1402C"/><path d="M95.516 75.072c.251.6-.665 1.555-2.046 2.132s-2.703.559-2.954-.041.665-1.555 2.046-2.132 2.703-.56 2.954.04M82.681 51.386c1.38-.577 2.297-1.532 2.046-2.132s-1.574-.619-2.955-.041c-1.38.577-2.297 1.532-2.046 2.132s1.574.619 2.955.041" fill="#D1402C"/><path d="m83.053 47.795-3.188 1.333.646 1.546L83.7 49.34z" fill="#432572"/><path d="M83.676 49.301c.16.383-.423.991-1.304 1.36-.88.367-1.723.355-1.883-.027-.16-.383.423-.992 1.304-1.36.88-.367 1.724-.355 1.883.027m-.627-1.503c.16.383-.424.991-1.304 1.36-.88.367-1.724.355-1.884-.027-.16-.383.424-.991 1.305-1.36.88-.367 1.723-.355 1.883.027" fill="#432572"/><path d="M82.67 13.574c4.137 9.894 2.214 22.217-5.216 25.324-7.43 3.106-17.553-4.18-21.69-14.075-4.136-9.894-.72-18.648 6.71-21.755s16.06.612 20.196 10.506Z" stroke="#D1402C" stroke-width="2.5" stroke-miterlimit="10"/><path d="M70.657 39.197s3.274.613 6.528 4.331c2.473 2.826 3.515 5.254 3.515 5.254m1.75-14.495s-1.863 2.76-1.502 7.689c.274 3.744 1.27 6.191 1.27 6.191" stroke="#D1402C" stroke-width="2.5" stroke-miterlimit="10"/><path d="M86.498 53.692a8.3 8.3 0 0 1-1.273 1.913c-.232.26-.481.508-.667.804-.439.697-.138 1.492.442 2.026.325.3.719.514 1.087.761.643.43 1.23.989 1.53 1.703.534 1.274.055 2.713-.127 4.082-.067.51-.088 1.053.146 1.51.312.613.995.928 1.636 1.174.642.246 1.334.499 1.735 1.058 1.018 1.424-.26 3.195-.705 4.576-.264.815-.336 1.763.132 2.48" stroke="#A0372B" stroke-miterlimit="10"/><path d="M80.243 49.382a2.6 2.6 0 0 0 2.259-.729c.124-.127.238-.272.29-.442m-2.822 3.518c1.77.362 3.72-.415 4.755-1.894" stroke="#000" stroke-width=".75" stroke-miterlimit="10"/><path d="M82.178 58.495c-.513.325-.823 1.076-.906 1.677-.1.716.26 1.326.844 1.753-.45.377-.54 1.318-.352 1.803.188.486.58.89 1.059 1.094.03.013-.103.924-.102 1.02.01 1.071 1.022 1.529 1.856 1.914-.186.665.202 1.392.775 1.778 1.086.735 2.371.488 3.508.032.89-.357 1.903-.663 2.671-1.25.505-.386.908-.952.948-1.585.022-.344-.093-.73-.395-.894.169-.355.309-.733.317-1.126s-.134-.804-.444-1.045c-.258-.2-.601-.261-.927-.249a1.77 1.77 0 0 0 .244-1.582 1.77 1.77 0 0 0-1.153-1.11c.235-.464.268-.952-.008-1.398-.298-.478-.927-.747-1.472-.58-.648.199-1.27.43-1.944.567a15.7 15.7 0 0 1-4.426.254" fill="#E9725B"/><path d="M82.098 61.907c.598.274 1.27.336 1.926.368.777.039 1.56.043 2.33-.07 1.347-.197 2.618-.773 3.719-1.567.224-.161.241-.482.237-.758a.8.8 0 0 0-.033-.267.8.8 0 0 0-.15-.232c-.308-.368-.687-.717-1.158-.81" stroke="#000" stroke-miterlimit="10"/><path d="M82.74 64.858c1.367.34 2.81.366 4.19.088.818-.165 1.621-.4 2.401-.696.496-.187 1.013-.385 1.48-.635.254-.137.29-.307.405-.544a2.4 2.4 0 0 0 .195-.485c.098-.402-.018-.837-.251-1.179s-.573-.599-.937-.796" stroke="#000" stroke-miterlimit="10"/><path d="M84.428 67.713c1.11.189 2.253.126 3.358-.089.896-.175 1.79-.405 2.629-.772.689-.301 1.569-.597 1.843-1.383.083-.24.09-.497.095-.75.004-.203.006-.413-.071-.601-.091-.22-.284-.384-.497-.489s-.448-.156-.68-.207" stroke="#000" stroke-miterlimit="10"/><path d="M92.35 67.369c.402-.606.146-1.273-.157-1.85" stroke="#000" stroke-miterlimit="10"/><path d="M89.54 56.389c-1.353.566-3.102 1.22-3.94 2.505-.764 1.172-.77 3.026-1.023 4.376-.057.306-.108.649.063.91.333.51 1.43.404 1.903.02.686-.554.926-1.433 1.239-2.257.08-.21.166-.45.373-.539.117-.05.251-.04.38-.03l2.231.197c.812 1.532 2.304 3.14 3.808 4.002 1.503.863 1.848.59 3.531 1.007" fill="#E9725B"/><path d="M89.54 56.389c-1.353.566-3.102 1.22-3.94 2.505-.764 1.172-.77 3.026-1.023 4.376-.057.306-.108.649.063.91.333.51 1.43.404 1.903.02.686-.554.926-1.433 1.239-2.257.08-.21.166-.45.373-.539.117-.05.251-.04.38-.03l2.231.197c.812 1.532 2.304 3.14 3.808 4.002 1.503.863 1.848.59 3.531 1.007m26.769-7.928a8.7 8.7 0 0 1 2.353 2.982m86.038-8.689a13 13 0 0 1-.01-3.222" stroke="#000" stroke-miterlimit="10"/><path d="M162.176 28.42c-.359-2.84-1.55-6.307-4.067-7.729-2.439-1.379-5.581-1.428-8.288-.957-2.313.402-4.55 1.506-5.586 3.725-.643 1.38-.472 3.031-.139 4.475.784 3.393 1.579 6.882 2.853 10.132.857 2.188 2.344 4.101 4.769 4.515 4.16.711 7.425-2.328 9.126-5.774 1.378-2.792 1.73-5.229 1.332-8.386" fill="#E9725B"/><path d="m166.047 22.949-.078-.18c-.293-.713-.381-1.487-.649-2.21-.324-.879-.737-1.731-1.302-2.481-.67-.888-1.698-1.641-2.927-1.828-1.057-.16-2.128.107-3.15.37l.242 2.646a13.4 13.4 0 0 0 .759 3.606c.272.761.656 1.553 1.437 2.005.166.097.349.177.492.298.325.274.377.69.479 1.067.241.889.737 1.817 1.4 2.46.644.625 1.134 1.395 1.821 1.998.353.31 1.049.874 1.554.592a1 1 0 0 0 .327-.333c.531-.834.709-2.12.813-3.089.111-1.028.092-2.129-.312-3.097-.261-.627-.628-1.204-.906-1.824" fill="#38121F"/><path d="M160.477 28.884a3.02 3.02 0 0 1 2.356-1.44 3.02 3.02 0 0 1 2.523 1.122c.532.673.75 1.556.743 2.414-.013 1.516-.767 3.066-2.093 3.8-1.327.733-2.725.493-3.371-1.094" fill="#E9725B"/><path d="M166.126 31.292c-.613 3.158-2.179 3.706-3.132 3.834-1.089.146-1.948-.43-2.359-1.44m-.158-4.801c.228-.383 1.109-1.47 3.181-1.327m1.214 2.895c-.225-.503-.653-.921-1.176-1.099a1.66 1.66 0 0 0-1.57.303c-.447.363-.764.925-.932 1.47" stroke="#000" stroke-miterlimit="10"/><path d="M163.127 29.387c.36.536.632 1.154.647 1.808.016.696-.282 1.41-.631 1.999" stroke="#000" stroke-miterlimit="10"/><path d="M158.807 14.427a9.73 9.73 0 0 0-5.96-.648c-2.084.439-3.934 1.546-5.71 2.675-.893.568-1.778 1.15-2.695 1.68-.852.492-2.864.636-3.128 1.783-.136.588 1.108.89 1.497.977-.146.29-.403.51-.569.789-.4.672-.126 1.653.563 2.022.351.188.762.223 1.16.23 1.76.036 3.527-.401 5.067-1.253.079-.044.165-.091.256-.082.189.017.378.263.541.358.27.157.602.253.901.338.785.224 1.611.263 2.423.203 1.392-.102 2.78-.545 3.915-1.37 1.388-1.01 1.767-2.393 2.547-3.84l1.516-2.025c-.539-.845-1.412-1.425-2.324-1.837" fill="#38121F"/><path d="M148.867 30.172s.676 2.597.466 4.767c-.058.594.112 1.248.688 1.473.641.25 1.729-.115 2.352-.404" stroke="#000" stroke-miterlimit="10"/><path d="m155.361 36.09-3.462 1.566s.968 1.236 2.147.874c1.179-.363 1.657-1.158 1.315-2.44" fill="#fff"/><path d="M155.85 42.296c2.249-1.167 4.039-3.368 5.153-5.644" stroke="#000" stroke-miterlimit="10"/><path d="M140.804 20.598a5.98 5.98 0 0 0 3.853-.017m-3.243-3.166c1.923.55 3.997-.063 5.806-.898 1.809-.834 3.533-1.903 5.488-2.337a9 9 0 0 1 4.183.075" stroke="#38121F" stroke-miterlimit="10"/><path d="M149.378 22.418c1.078-.56 2.186-1.143 2.958-2.081m6.035.289a17.7 17.7 0 0 0 2.489-3.71m-17.293 5.497c.674.01 1.33-.206 1.959-.448a24 24 0 0 0 6.398-3.667m1.015 4.528a11.73 11.73 0 0 0 5.125-4.57" stroke="#68374A" stroke-miterlimit="10"/><path d="M153.943 22.34c-.659.16-9.475 2.451-10.215 3.071s-2.484 3.045-2.278 4.513 2.521 3.555 4.417 3.988c1.897.433 10.482-.529 11.364-1.164.592-.426 2.508-.804 2.57-3.135.046-1.718-.867-3.941-1.359-5.176-.951-2.383-2.387-2.609-4.499-2.097" fill="#14131C"/><path d="M152.567 24.44c-.658.16-9.474 2.451-10.215 3.072-.74.62-1.047 1.953-.842 3.42.206 1.468 1.085 4.647 2.982 5.08 1.896.433 11.857-2.629 12.74-3.264 1.197-.863.806-3.774-.166-6.21-.951-2.384-2.387-2.61-4.499-2.097" fill="#46415B"/><path d="M145.084 34.715a1.6 1.6 0 0 1-.3-.007c-.848-.194-1.71-2.243-1.951-3.962-.164-1.166.105-1.923.337-2.173 1.084-.553 8.139-2.454 9.712-2.836a6 6 0 0 1 1.168-.186c.661-.024 1.213.07 1.776 1.48.977 2.449.898 4.022.367 4.697-.531.677-8.542 2.894-11.109 2.987" fill="#B5F4E1"/><mask id="c" style="mask-type:luminance" maskUnits="userSpaceOnUse" x="142" y="25" width="15" height="10"><path d="M145.084 34.715a1.6 1.6 0 0 1-.3-.007c-.848-.194-1.71-2.243-1.951-3.962-.164-1.166.105-1.923.337-2.173 1.084-.553 8.139-2.454 9.712-2.836a6 6 0 0 1 1.168-.186c.661-.024 1.213.07 1.776 1.48.977 2.449.898 4.022.367 4.697-.531.677-8.542 2.894-11.109 2.987" fill="#fff"/></mask><g mask="url(#c)"><path d="m146.682 21.495-5.404 19.095 1.714.485 5.403-19.095zm8.662-.282-5.404 19.095 1.713.484 5.404-19.094zm-5.429.407-5.406 19.094 3.426.97 5.406-19.094z" fill="#fff" opacity=".75"/><path d="M142.523 30.838s.037-.66 1.911-1.314c1.874-.656 7.892-2.15 8.929-2.374 1.527-.332 2.768-.335 2.768-.335" stroke="#000" stroke-miterlimit="10"/></g><path d="M165.256 20.064c-1.72 2.203-4.395 3.872-7.42 4.629l1.224 2.977c3.026-.816 5.704-2.609 7.427-4.97z" fill="#14131C"/><path d="M158.508 24.592c.373.96.74 2.196.956 2.933" stroke="#646072" stroke-miterlimit="10"/><path opacity=".25" d="M155.826 27.032c-.563-1.41-1.114-1.505-1.776-1.48a6 6 0 0 0-1.167.185c-1.573.381-8.621 2.282-9.711 2.835-1.813.92-3.708 1.758-5.473 2.755-2.796 1.58-4.028 4.36-6.346 6.563-3.094 2.94-7.586 3.737-11.796 4.444-20.958 3.517-42.498 8.38-59.448 21.2-6.517 4.929-12.368 11.22-14.876 18.997s-1.018 17.204 5.155 22.558c5.59 4.849 13.201 6.647 20.45 5.61 7.991-1.142 13.775-6.576 20.48-10.474 6.32-3.675 13.999-3.78 21.179-5.152 5.745-1.098 11.415-3.115 16.05-6.681s8.157-8.812 8.83-14.622c.365-3.142-.096-6.317-.088-9.48.007-3.164.566-6.51 2.623-8.914 1.363-1.593 3.296-2.663 4.485-4.391 2.703-3.93 3.795-8.556 6.743-12.498 1.683-2.25 3.319-4.548 5.054-6.758.53-.676.609-2.249-.368-4.697m-68.919 91.581c1.267 2.116 3.787 3.176 6.23 3.518 1.486.209 3.026.2 4.458-.249 1.432-.45 2.751-1.372 3.482-2.682.426-.762.642-1.626.76-2.49.702-5.126-3.653-8.928-8.686-8.942-4.897-.013-8.772 6.62-6.244 10.845" fill="#fff"/><path opacity=".25" d="M106.308 33.788c-3.165 1.413-6.41 3.102-8.315 5.999s-1.899 7.325.893 9.38c2.617 1.926 6.011 1.21 9.011 1.13 4.26-.111 10.103.373 12.558-3.924 1.552-2.716 1.767-6.233.271-8.981-2.756-5.063-9.734-5.696-14.418-3.604" fill="#fff"/><path d="M77.004 81.882a7.739 7.739 0 1 1-13.88 6.85 7.739 7.739 0 0 1 13.88-6.85" fill="#7F52F8"/><path d="M62.843 82.772a7.1 7.1 0 0 1 4.851 3.729 7.1 7.1 0 0 1 .056 6.119m3.132-14.782c.041 2.18.822 4.756 2.572 6.536 1.134 1.154 2.588 1.92 4.057 2.138" stroke="#000" stroke-miterlimit="10"/><path d="M63.492 86.512h-4.43m-1.315-3.101h-4.43m26.2 0h-3.115M53.317 92.62h-3.114" stroke="#7F52F8" stroke-width="3" stroke-miterlimit="10"/><path d="M62.418 86.512h2.227m3.771-6.422h4.782m2.234 3.321h2.079" stroke="#BDCDF4" stroke-width="3" stroke-miterlimit="10"/><path d="M266.412 142.643c3.002-8.599-1.535-18.004-10.134-21.006s-18.005 1.535-21.007 10.134 1.536 18.005 10.135 21.007 18.004-1.536 21.006-10.135Z" stroke="#B5F4E1" stroke-width="1.5" stroke-miterlimit="10"/><path d="M243.354 152.044a14 14 0 0 1 8.077-3.02c2.92-.124 5.872.702 8.304 2.324m-18.912-1.053c.891-1.648 1.9-2.667 3.549-3.558 2.329-1.257 5.063-1.509 7.71-1.515 3.129-.006 6.527.374 9.521-.751 3.249-1.221 5.237-4.288 5.723-7.641m-28.662 11.489c-.169-1.436.162-2.822 1.008-3.994 1.824-2.531 5.085-3.556 8.021-4.091 2.684-.489 5.466-.732 7.936-1.891 4.864-2.282 7.91-6.09 6.006-13.617m-10.034-4.068c2.695 3.163 2.265 7.606-.985 10.138-2.783 2.167-6.427 2.741-9.197 4.975-3.63 2.929-4.819 5.611-4.504 10.266m4.199-22.261c1.046 1.666.572 3.795-.366 5.386-.838 1.422-2.097 2.523-3.046 3.862a14.3 14.3 0 0 0-2.191 4.766c-.386 1.544-.361 3.698-.095 5.266" stroke="#B5F4E1" stroke-width="1.5" stroke-miterlimit="10"/><path d="m111.873 141.76.926 8.286 6.036-5.753-4.617 6.943 8.321-.527-8 2.351 6.713 4.945-7.638-3.342 1.963 8.103-3.704-7.469-3.704 7.469 1.964-8.103-7.639 3.342 6.713-4.945-7.999-2.351 8.321.527-4.617-6.943 6.035 5.753z" fill="#F9CAAA"/><path d="m96.137 131.114-1.816 4.151 4.403-1.067-4.059 2.013 4.06 2.012-4.404-1.067 1.816 4.151-2.687-3.647-1.278 4.346.286-4.521-3.772 2.508 3.126-3.279-4.503-.503 4.503-.504-3.126-3.279 3.772 2.508-.286-4.521 1.278 4.347zM200.274 8.479l-1.815 4.15 4.402-1.066-4.058 2.012 4.058 2.013-4.402-1.067 1.815 4.15-2.687-3.647-1.278 4.347.287-4.521-3.773 2.508 3.126-3.28-4.503-.503 4.503-.503-3.126-3.28 3.773 2.509-.287-4.521 1.278 4.347zm80.069 163.545-1.816 4.151 4.404-1.067-4.059 2.013 4.059 2.012-4.404-1.067 1.816 4.151-2.687-3.647-1.277 4.347.286-4.522-3.773 2.509 3.126-3.28-4.502-.503 4.502-.504-3.126-3.279 3.773 2.508-.286-4.521 1.277 4.347z" fill="#B5F4E1"/><path d="m287.889 110.954.52 4.655 3.391-3.232-2.594 3.901 4.675-.297-4.494 1.321 3.772 2.778-4.292-1.876 1.103 4.552-2.081-4.197-2.081 4.197 1.103-4.552-4.291 1.876 3.771-2.778-4.494-1.321 4.675.297-2.594-3.901 3.391 3.232zm-272.412 12.66-1.806 3.423 3.818-.634-3.584 1.461 3.332 1.969-3.685-1.185 1.288 3.651-2.062-3.276-1.36 3.624.527-3.835-3.372 1.902 2.869-2.599-3.805-.71 3.868-.148-2.459-2.99 3.058 2.374.038-3.871.817 3.784z" fill="#FFE978"/><path d="M53.757 58.765c-1.572 3.45-14.621.883-29.147-5.734S-.416 38.252 1.156 34.802s14.62-.883 29.146 5.734c14.525 6.618 25.027 14.78 23.455 18.23Z" stroke="#fff" stroke-width="2" stroke-miterlimit="10" stroke-linejoin="round"/><path d="M30.272 61.014c8.335-1.337 14.007-9.178 12.67-17.512-1.337-8.335-9.177-14.007-17.511-12.67-8.335 1.337-14.007 9.177-12.67 17.512 1.337 8.334 9.177 14.007 17.511 12.67" fill="#EBB0FF"/><path d="M13.749 52.546c1.159-.913 2.778-.958 4.085-1.642 1.952-1.021 2.932-3.585 2.16-5.647-.583-1.554-1.941-2.655-3.09-3.853-1.148-1.197-1.734-2.856-1.41-4.483m4.828-4.14c-.87 3.316.278 7.078 2.85 9.344 1.183 1.042 2.662 1.819 3.476 3.17.479.794.68 1.72.968 2.602.304.93.71 1.828 1.207 2.67.681 1.154 1.8 2.319 3.125 2.127.866-.126 1.563-.839 1.884-1.652.322-.814.328-1.717.262-2.59-.268-3.561-1.633-6.936-2.994-10.238-.216-.523-.435-1.06-.45-1.626-.014-.565.22-1.173.717-1.444.283-.155.617-.185.926-.28 1.12-.345 1.822-1.686 1.467-2.803" stroke="#9A8AED" stroke-width="1.5" stroke-miterlimit="10"/><path d="M39.984 36.432c-1.176 1.382-2.392 2.846-2.754 4.624-.685 3.368 1.885 6.785 1.144 10.141-.382 1.731-1.631 3.187-3.144 4.11s-3.274 1.365-5.031 1.6c-2.606.351-5.506.377-7.44 2.158-.37.34-.71.812-.613 1.305" stroke="#9A8AED" stroke-width="1.5" stroke-miterlimit="10"/><path d="M53.757 58.765c-1.572 3.45-14.621.883-29.147-5.734S-.416 38.252 1.156 34.802" stroke="#fff" stroke-width="2" stroke-miterlimit="10" stroke-linejoin="round"/><path d="M280.276 89.387c7.534-4.671 12.742-9.91 11.632-11.699-1.11-1.79-8.117.547-15.651 5.218s-12.742 9.91-11.632 11.7 8.117-.547 15.651-5.219Z" stroke="#D1402C" stroke-width="1.5" stroke-miterlimit="10"/><path d="M286.27 87.613a8.489 8.489 0 1 0-16.54-3.828 8.489 8.489 0 0 0 16.54 3.828" fill="#F9CAAA"/><path d="M291.899 77.695c1.11 1.79-4.098 7.027-11.632 11.699-7.534 4.67-14.541 7.007-15.651 5.217" stroke="#D1402C" stroke-width="1.5" stroke-miterlimit="10"/><path opacity=".65" d="M235.305 94.437a4.944 4.944 0 1 0 0-9.888 4.944 4.944 0 0 0 0 9.888" fill="#9A8AED"/><path d="M240.054 171.834a1.297 1.297 0 1 0 0-2.595 1.297 1.297 0 0 0 0 2.595m-12.71-66.121a1.297 1.297 0 1 0 0-2.593 1.297 1.297 0 0 0 0 2.593m-92.871-16.531a1.297 1.297 0 1 0 0-2.594 1.297 1.297 0 0 0 0 2.594" fill="#FFE978"/><path d="M106.078 17.4a1.297 1.297 0 1 1-2.594-.001 1.297 1.297 0 0 1 2.594 0M282.3 131.937a1.296 1.296 0 1 0 0-2.592 1.296 1.296 0 0 0 0 2.592" fill="#B5F4E1"/><path opacity=".65" d="M57.391 124.536a1.297 1.297 0 1 0 0-2.594 1.297 1.297 0 0 0 0 2.594" fill="#9A8AED"/><path d="M73.258 164.693c.945-2.606.13-5.802-2.038-7.556-2.378-1.926-6.12-1.904-8.476.048.48-3.139.061-5.012-.273-7.49-.276-2.041-1.438-3.892-2.88-5.456-3.571-3.873-10.218-2.738-14.262-.502-9.035 4.994-13.601 13.151-13.601 13.151s-1.177-5.363-9.042-2.082c-4.206 1.755-9.489 5.474-13.019 9.887zM282.874 26.68c2.4-7.667-4.379-12.586-10.362-12.648-4.774-.05-9.639.777-13.736 3.617.644-4.008.273-7.164-2.223-8.922s-6.909-1.559-9.835-.687c-6.529 1.944-15.275 6.287-25.542 18.64z" fill="#fff"/><path d="M48.897 130.124a4.017 4.017 0 1 0-7.553-2.734 4.017 4.017 0 0 0 7.553 2.734Z" stroke="#B5F4E1" stroke-width="1.5" stroke-miterlimit="10"/><path d="M275.942 33.334h18.494M91.96 2.774h18.495M1.722 174.149h18.494m51.441-25.83h8.315m-.455 3.116h5.662M257.728 33.334h8.234m25.804 103.855H300m-22.22 15.074h13.899m-2.159-3.944h4.917M22.03 71.79h9.93m184.008 40.142h9.028" stroke="#7F52F8" stroke-width="1.5" stroke-miterlimit="10"/><path d="M125.792 7.016h-15.295v2.652h15.295zM40.1 171.037h-9.144v2.652H40.1zM276.279 42.662h-9.142v2.652h9.142z" fill="#FFE978"/></svg>