<svg xmlns="http://www.w3.org/2000/svg" version="1.1" xmlns:xlink="http://www.w3.org/1999/xlink" width="64" height="64" x="0" y="0" viewBox="0 0 512 512" style="enable-background:new 0 0 512 512" xml:space="preserve"><g><path d="M38.345 423.724h102.898l70.621-20.966-70.621-20.966 70.621-20.966-70.621-20.966 70.621-20.966-70.621-20.966 70.621-20.966L141.242 256l70.621-20.966-70.621-20.966 70.621-20.966-70.621-20.966 70.621-20.966-70.621-20.966 70.621-20.966-70.621-20.966H38.345C17.167 88.276 0 105.443 0 126.621V385.38c0 21.177 17.167 38.344 38.345 38.344z" style="" fill="#f5f5f5" data-original="#f5f5f5"></path><path d="m141.241 130.207 70.621 20.966-70.621 20.966 70.621 20.966-70.621 20.966 70.621 20.966L141.241 256l70.621 20.966-70.621 20.966 70.621 20.966-70.621 20.966 70.621 20.966-70.621 20.966 70.621 20.966-70.621 20.966h332.414c21.177 0 38.345-17.167 38.345-38.345V126.621c0-21.177-17.167-38.345-38.345-38.345H141.242l70.621 20.966-70.622 20.965z" style="" fill="#ff4b55" data-original="#ff4b55"></path></g></svg>