<svg xmlns="http://www.w3.org/2000/svg" version="1.1" xmlns:xlink="http://www.w3.org/1999/xlink" width="64" height="64" x="0" y="0" viewBox="0 0 511.9 511.9" style="enable-background:new 0 0 512 512" xml:space="preserve"><g><path d="M473.7 423.65H38.3c-21.1 0-38.3-17.1-38.3-38.3v-258.8c0-21.2 17.2-38.3 38.3-38.3h435.3c21.2 0 38.3 17.2 38.3 38.3v258.8c.1 21.2-17.1 38.3-38.2 38.3z" style="" fill="#ffe15a" data-original="#ffe15a"></path><path d="M38.3 88.25c-21.1 0-38.3 17.1-38.3 38.3v258.8c0 21.2 17.2 38.3 38.3 38.3h132.3V88.25H38.3z" style="" fill="#464655" data-original="#464655"></path><path d="M473.7 88.25H341.3v335.4h132.3c21.2 0 38.3-17.2 38.3-38.3v-258.8c.1-21.2-17.1-38.3-38.2-38.3z" style="" fill="#ff4b55" data-original="#ff4b55"></path></g></svg>