<svg xmlns="http://www.w3.org/2000/svg" width="64" height="64" viewBox="0 0 512 512" xml:space="preserve"><path d="M473.655 423.724H38.345C17.167 423.724 0 406.557 0 385.379V126.621c0-21.177 17.167-38.345 38.345-38.345h435.31c21.177 0 38.345 17.167 38.345 38.345V385.38c0 21.177-17.167 38.344-38.345 38.344" fill="#41479b" data-original="#41479b"/><path d="M441.378 88.276v335.448L105.93 88.276z" fill="#ffe15a" data-original="#ffe15a"/><path d="m207.351 213.176 5.088 15.254 16.079.125c1.246.01 1.762 1.599.76 2.339l-12.936 9.553 4.851 15.331c.376 1.187-.977 2.17-1.991 1.446l-13.082-9.351-13.082 9.351c-1.013.724-2.366-.258-1.991-1.446l4.851-15.331-12.936-9.553c-1.002-.74-.486-2.329.76-2.339l16.079-.125 5.088-15.254c.397-1.182 2.068-1.182 2.462 0m-36.781-36.782 5.088 15.254 16.079.125c1.246.01 1.762 1.6.76 2.339l-12.936 9.553 4.851 15.331c.376 1.187-.977 2.17-1.991 1.446l-13.082-9.351-13.082 9.351c-1.013.725-2.366-.258-1.991-1.446l4.851-15.331-12.936-9.553c-1.002-.74-.486-2.329.76-2.339l16.079-.125 5.088-15.254c.396-1.182 2.068-1.182 2.462 0m-36.781-36.781 5.088 15.254 16.079.125c1.246.01 1.762 1.599.76 2.339l-12.936 9.553 4.851 15.331c.376 1.187-.977 2.17-1.991 1.446l-13.082-9.351-13.082 9.351c-1.013.725-2.366-.258-1.991-1.446l4.851-15.331-12.936-9.553c-1.002-.74-.486-2.329.76-2.339l16.079-.125 5.088-15.254c.395-1.182 2.067-1.182 2.462 0m-36.783-36.782 5.088 15.254 16.079.125c1.246.01 1.762 1.599.76 2.339l-12.936 9.553 4.851 15.331c.376 1.187-.977 2.17-1.991 1.446l-13.082-9.351-13.082 9.351c-1.013.724-2.366-.258-1.991-1.446l4.851-15.331-12.936-9.553c-1.002-.74-.486-2.329.76-2.339l16.079-.125 5.088-15.254c.397-1.181 2.068-1.181 2.462 0m257.472 257.471 5.088 15.254 16.079.125c1.246.01 1.762 1.599.76 2.339l-12.936 9.553 4.851 15.331c.376 1.187-.977 2.171-1.99 1.446l-13.082-9.351-13.082 9.351c-1.013.724-2.366-.258-1.99-1.446l4.851-15.331-12.936-9.553c-1.002-.74-.486-2.329.76-2.339l16.079-.125 5.088-15.254c.395-1.181 2.066-1.181 2.46 0m-36.782-36.781 5.088 15.254 16.079.125c1.246.01 1.762 1.599.76 2.339l-12.936 9.553 4.851 15.331c.376 1.187-.977 2.171-1.99 1.446l-13.082-9.351-13.082 9.351c-1.013.724-2.366-.258-1.991-1.446l4.851-15.331-12.936-9.553c-1.002-.74-.486-2.329.76-2.339l16.079-.125 5.088-15.254c.395-1.182 2.067-1.182 2.461 0m-36.781-36.781 5.088 15.254 16.079.125c1.246.01 1.762 1.599.76 2.339l-12.936 9.553 4.851 15.331c.376 1.187-.977 2.171-1.99 1.446l-13.082-9.351-13.082 9.351c-1.013.724-2.366-.258-1.991-1.446l4.851-15.331-12.936-9.553c-1.002-.74-.486-2.329.76-2.339l16.079-.125 5.088-15.254c.395-1.182 2.067-1.182 2.461 0m-36.781-36.782 5.088 15.254 16.079.125c1.246.01 1.762 1.599.76 2.339l-12.936 9.553 4.851 15.331c.376 1.187-.977 2.17-1.991 1.445l-13.082-9.351-13.082 9.351c-1.013.725-2.366-.258-1.991-1.445l4.851-15.331-12.936-9.553c-1.002-.74-.486-2.329.76-2.339l16.079-.125 5.088-15.254c.396-1.182 2.066-1.182 2.462 0M41.942 88.276l6.83 5.044-4.851 15.331c-.375 1.187.977 2.17 1.991 1.447l13.081-9.351 13.082 9.351c1.013.724 2.366-.258 1.99-1.447l-4.85-15.331 6.833-5.044zm370.485 324.187-16.079-.125-5.087-15.254c-.394-1.182-2.066-1.182-2.46 0l-5.087 15.254-16.079.125c-1.246.01-1.762 1.6-.76 2.339l12.083 8.921h22.151l12.082-8.921c.998-.74.482-2.33-.764-2.339" fill="#f5f5f5" data-original="#f5f5f5"/></svg>