<svg xmlns="http://www.w3.org/2000/svg" version="1.1" xmlns:xlink="http://www.w3.org/1999/xlink" width="64" height="64" x="0" y="0" viewBox="0 0 512 512" style="enable-background:new 0 0 512 512" xml:space="preserve" class=""><g><path d="M473.655 423.724H38.345C17.167 423.724 0 406.557 0 385.379V126.621c0-21.177 17.167-38.345 38.345-38.345h435.31c21.177 0 38.345 17.167 38.345 38.345V385.38c0 21.177-17.167 38.344-38.345 38.344z" style="" fill="#f5f5f5" data-original="#f5f5f5" class=""></path><path d="M244.426 360.546c4.884-3.648 9.128-4.841 15.694-6.034 6.569-1.193 13.506-3.228 17.144-4.21 3.67-1.016-12.328 4.841-16.403 5.999-4.007 1.227-16.435 4.245-16.435 4.245zM270.865 350.274c-1.314-8.252 1.952-16.94 9.429-20.41 1.752 5.996-3.604 16.166-9.429 20.41zM283.629 345.997c-4.008-6.904 2.728-15.763 7.746-20.074 2.324 4.143-1.752 16.503-7.746 20.074zM295.383 340.675c-4.244-5.894.809-16.201 6.198-20.276 2.088 5.828-.001 16.267-6.198 20.276zM307.171 333.266c-3.906-5.558-1.177-14.18 4.446-19.805 4.009 4.649.572 14.686-4.446 19.805zM316.637 325.856c-3.267-5.255.739-17.816 5.994-21.287 2.256 4.648.572 17.785-5.994 21.287zM324.146 323.87c-.943-7.511 12.192-15.83 17.548-15.594-.573 6.128-6.198 12.864-17.548 15.594zM316.803 332.355c6.198-6.33 18.155-6.33 22.397-5.018-1.11 3.706-15.255 11.756-22.397 5.018z" style="" fill="#73af00" data-original="#73af00"></path><path d="M308.316 338.722c8.69-2.325 14.314-4.211 19.501 1.177-3.671 4.649-17.749 3.269-19.501-1.177zM295.923 344.348c8.319-4.447 18.389 2.121 19.905 5.927-9.262 3.872-20.074-4.952-19.905-5.927zM284.537 350.712c7.578-2.897 16.268.943 19.703 5.187-4.041 1.954-14.617 4.075-19.703-5.187zM274.166 353.978c8.69-.975 17.007 5.625 18.827 9.364-11.049 1.077-15.326-2.256-18.827-9.364zM271.37 360.546c-4.817-3.648-9.06-4.841-15.628-6.034-6.569-1.193-13.506-3.228-17.209-4.21-3.604-1.016 12.393 4.841 16.468 5.999 4.041 1.227 16.369 4.245 16.369 4.245zM244.931 350.274c1.379-8.252-1.887-16.94-9.431-20.41-1.684 5.996 3.672 16.166 9.431 20.41zM232.233 345.997c4.076-6.904-2.728-15.763-7.746-20.074-2.325 4.143 1.752 16.503 7.746 20.074zM220.412 340.675c4.311-5.894-.742-16.201-6.131-20.276-2.121 5.828.001 16.267 6.131 20.276zM208.657 333.266c3.873-5.558 1.18-14.18-4.412-19.805-4.007 4.649-.572 14.686 4.412 19.805zM199.228 325.856c3.334-5.255-.742-17.816-5.996-21.287-2.324 4.648-.573 17.785 5.996 21.287zM191.649 323.87c1.011-7.511-12.125-15.83-17.481-15.594.573 6.128 6.098 12.864 17.481 15.594zM199.059 332.355c-6.198-6.33-18.153-6.33-22.397-5.018 1.177 3.706 15.255 11.756 22.397 5.018z" style="" fill="#73af00" data-original="#73af00"></path><path d="M207.546 338.722c-8.69-2.325-14.314-4.211-19.501 1.177 3.604 4.649 17.749 3.269 19.501-1.177zM219.872 344.348c-8.285-4.447-18.322 2.121-19.838 5.927 9.263 3.872 20.007-4.952 19.838-5.927zM231.222 350.712c-7.544-2.897-16.2.943-19.635 5.187 4.075 1.954 14.652 4.075 19.635-5.187zM241.731 353.978c-8.757-.975-17.075 5.625-18.86 9.364 11.114 1.077 15.358-2.256 18.86-9.364z" style="" fill="#73af00" data-original="#73af00"></path><path d="M147.966 229.194s-2.412 3.146 1.685 11.114 1.154 17.164 5.568 20.106c4.414 2.943.185 8.778 5.242 12.664 5.056 3.887 18.345 12.831 27.517 13.877 9.172 1.045 18.082-8.222 23.374-1.382s4.136 11.661 9.128 12.193 4.992-1.675 4.625-4.985 3.31-12.505 11.77-12.505 17.422-1.007 31.7-6.389c14.278-5.382 21.266-7.956 23.105-16.416 1.839-8.46 7.068-18.462 17.143-13.828 10.076 4.633 9.398 2.46 12.495.236s13.482 4.209 15.83.809c2.348-3.401-18.377-20.224-17.209-29.1 1.166-8.875 3.961-16.247 12.495-16.975 8.534-.728 6.327-10.291 15.155-15.073 8.828-4.781 12.894-5.329 19.872-12.412s25.329-21.421 25.329-21.421-35.701 17.097-42.841 18.66c-7.14 1.564-10.087 11.863-29.949 17.38s-20.966 7.724-36.046 11.034c-13.581 2.982-44.26 1.98-62.408-3.843a3.648 3.648 0 0 0-4.768 3.793c.747 8.821.538 24.681-10.176 27.142 0 0-14.603-10.906-23.798-6.125-9.195 4.781-15.735 21.834-22.58 19.192-6.845-2.642-7.741-13.587-12.258-7.746z" style="" fill="#ffc850" data-original="#ffc850"></path></g></svg>