<svg xmlns="http://www.w3.org/2000/svg" version="1.1" xmlns:xlink="http://www.w3.org/1999/xlink" width="64" height="64" x="0" y="0" viewBox="0 0 512 512" style="enable-background:new 0 0 512 512" xml:space="preserve"><g><path d="M13.7 97.251C5.326 104.286 0 114.829 0 126.621V385.38c0 11.791 5.326 22.335 13.7 29.369L256 256 13.7 97.251z" style="" fill="#41479b" data-original="#41479b"></path><path d="M13.7 414.749a38.18 38.18 0 0 0 24.644 8.975h435.31c21.177 0 38.345-17.167 38.345-38.345V256H256L13.7 414.749z" style="" fill="#ff4b55" data-original="#ff4b55"></path><path d="M473.655 88.276H38.345a38.188 38.188 0 0 0-24.644 8.975L256 256h256V126.621c0-21.178-17.167-38.345-38.345-38.345z" style="" fill="#f5f5f5" data-original="#f5f5f5"></path></g></svg>