<svg xmlns="http://www.w3.org/2000/svg" width="64" height="64" viewBox="0 0 512 512" xml:space="preserve"><path d="M0 385.379c0 21.177 17.167 38.345 38.345 38.345h435.31c21.177 0 38.345-17.167 38.345-38.345v-45.517H0z" fill="#ff4b55" data-original="#ff4b55"/><path d="M473.655 88.276H38.345C17.167 88.276 0 105.443 0 126.621V256h512V126.621c0-21.178-17.167-38.345-38.345-38.345" fill="#ffe15a" data-original="#ffe15a"/><path d="M0 256h512v83.86H0z" fill="#41479b" data-original="#41479b"/><path d="m246.788 260.953 64.48-55.268v79.987c0 13.481-10.929 24.408-24.408 24.408a24.4 24.4 0 0 1-16.329-6.265l-23.743-21.368z" fill="#ffe15a" data-original="#ffe15a"/><path d="m280.801 292.404-18.66-16.794v-27.815l33.775-28.95v66.828c0 4.994-4.063 9.056-9.056 9.056a9.05 9.05 0 0 1-6.059-2.325" fill="#ff4b55" data-original="#ff4b55"/><path d="M271.352 239.9v31.617l15.352 13.862v-58.636l9.212-7.896v66.828c0 4.994-4.063 9.056-9.056 9.056a9.04 9.04 0 0 1-6.059-2.325l-18.66-16.794v-27.815z" fill="#41479b" data-original="#41479b"/><path d="m265.212 260.953-64.48-55.268v79.987c0 13.481 10.929 24.408 24.408 24.408 6.03 0 11.847-2.232 16.329-6.265l23.743-21.368z" fill="#ffe15a" data-original="#ffe15a"/><path d="m231.199 292.404 18.66-16.794v-27.815l-33.775-28.95v66.828c0 4.994 4.063 9.056 9.056 9.056a9.05 9.05 0 0 0 6.059-2.325" fill="#ff4b55" data-original="#ff4b55"/><path d="M240.648 239.9v31.617l-15.352 13.862v-58.636l-9.212-7.896v66.828c0 4.994 4.063 9.056 9.056 9.056a9.04 9.04 0 0 0 6.059-2.325l18.66-16.794v-27.815zm68.392-33.94h4.414v26.449h-4.414zm-110.53 0h4.414v26.449h-4.414z" fill="#41479b" data-original="#41479b"/><path d="M246.788 193.404s6.141-29.17-15.352-25.331c-21.493 3.838-21.493 9.978-46.057 22.261 0 0 27.635 6.141 39.916 3.071 0 0 9.212 12.281 18.423 15.352h9.212zm18.424 0s-6.141-29.17 15.352-25.331c21.493 3.838 21.493 9.978 46.057 22.261 0 0-27.635 6.141-39.916 3.071 0 0-9.212 12.281-18.423 15.352h-9.212z" fill="#5a4646" data-original="#5a4646"/><path d="M265.212 208.756h-18.423V193.29a9.1 9.1 0 0 1 9.098-9.098h.226a9.1 9.1 0 0 1 9.098 9.098z" fill="#5a4646" data-original="#5a4646"/><circle cx="256" cy="193.4" r="6.141" fill="#e6e1cd" data-original="#e6e1cd"/><path d="m242.823 189.438 11.546 6.166a2.494 2.494 0 0 0 2.937-3.964l-7.448-7.448h-1.791a5.245 5.245 0 0 0-5.244 5.246" fill="#ffd0af" data-original="#ffd0af"/><path d="M246.827 190.333h-9.249l4.047-4.738a4 4 0 0 1 3.042-1.402h5.192v3.108a3.033 3.033 0 0 1-3.032 3.032" fill="#ffaf94" data-original="#ffaf94"/><path d="M282.186 208.764c-2.072-2.458-2.514-5.717-1.504-8.541 2.954-.516 6.091.471 8.162 2.931 1.77 2.101 2.283 4.772 1.784 7.272a89 89 0 0 1 2.189 3.964c.041-.225.032-.448.096-.673.724-2.546 2.743-4.348 5.135-4.958 1.713 1.778 2.483 4.373 1.759 6.918-.622 2.19-2.227 3.777-4.18 4.581a87 87 0 0 1 2.247 5.69c.041-.118.044-.238.092-.355 1-2.451 3.206-4.019 5.65-4.362 1.506 1.955 1.986 4.619.987 7.07-.875 2.144-2.69 3.558-4.764 4.121 1.067 4.213 1.775 8.683 1.775 13.183h-3.071c0-3.922-.602-7.85-1.511-11.608-1.895.612-4.012.481-5.845-.641-2.236-1.37-3.416-3.778-3.361-6.223 2.154-1.16 4.835-1.203 7.071.168.081.05.135.121.213.173a84 84 0 0 0-2.077-5.365c-1.843.871-4.012 1.005-6.002.071-2.374-1.114-3.811-3.379-4.026-5.815 2.006-1.386 4.657-1.722 7.023-.62a90 90 0 0 0-2.206-4.002c-2.115-.244-4.152-1.218-5.636-2.979m-52.372 0c2.071-2.458 2.514-5.717 1.504-8.541-2.954-.516-6.091.471-8.162 2.931-1.77 2.101-2.283 4.772-1.784 7.272a89 89 0 0 0-2.189 3.964c-.041-.225-.032-.448-.096-.673-.724-2.546-2.743-4.348-5.135-4.958-1.713 1.778-2.483 4.373-1.759 6.918.622 2.19 2.227 3.777 4.18 4.581a87 87 0 0 0-2.247 5.69c-.041-.118-.044-.238-.092-.355-1-2.451-3.206-4.019-5.65-4.362-1.506 1.955-1.986 4.619-.986 7.07.875 2.144 2.69 3.558 4.764 4.121-1.067 4.213-1.775 8.683-1.775 13.183h3.071c0-3.922.602-7.85 1.511-11.608 1.895.612 4.012.481 5.844-.641 2.237-1.37 3.416-3.778 3.361-6.223-2.154-1.16-4.835-1.203-7.071.168-.081.05-.135.121-.213.173a84 84 0 0 1 2.077-5.365c1.843.871 4.012 1.005 6.002.071 2.374-1.114 3.811-3.379 4.026-5.815-2.006-1.386-4.657-1.722-7.023-.62a89 89 0 0 1 2.206-4.002c2.115-.244 4.152-1.218 5.636-2.979" fill="#8cb400" data-original="#8cb400"/><path d="m256 276.306-64.48-55.268v79.987c0 13.481 10.929 24.408 24.408 24.408 6.03 0 11.847-2.232 16.329-6.265L256 297.8z" fill="#ffe15a" data-original="#ffe15a"/><path d="m221.987 307.756 18.66-16.794v-27.815l-33.775-28.95v66.828c0 4.994 4.063 9.056 9.056 9.056a9.04 9.04 0 0 0 6.059-2.325" fill="#ff4b55" data-original="#ff4b55"/><path d="M231.436 255.252v31.617l-15.352 13.862v-58.637l-9.212-7.896v66.828c0 4.994 4.063 9.056 9.056 9.056a9.04 9.04 0 0 0 6.059-2.325l18.66-16.794v-27.815z" fill="#41479b" data-original="#41479b"/><path d="m256 276.306 64.48-55.268v79.987c0 13.481-10.929 24.408-24.408 24.408a24.4 24.4 0 0 1-16.329-6.265L256 297.8z" fill="#ffe15a" data-original="#ffe15a"/><path d="m290.013 307.756-18.66-16.794v-27.815l33.775-28.95v66.828c0 4.994-4.063 9.056-9.056 9.056a9.04 9.04 0 0 1-6.059-2.325" fill="#ff4b55" data-original="#ff4b55"/><path d="M280.564 255.252v31.617l15.352 13.862v-58.637l9.212-7.896v66.828c0 4.994-4.063 9.056-9.056 9.056a9.04 9.04 0 0 1-6.059-2.325l-18.66-16.794v-27.815z" fill="#41479b" data-original="#41479b"/><ellipse cx="256" cy="254.81" rx="30.705" ry="46.06" fill="#69c3ff" data-original="#69c3ff"/><path d="M228.365 267.095h55.268l3.071-12.281-13.993 2.333a9.62 9.62 0 0 1-7.839-2.184l-15.884-13.615a7.83 7.83 0 0 0-10.635.408l-9.988 9.988z" fill="#009b64" data-original="#009b64"/><path d="m253.087 252.75 5.274-3.37-9.374-8.034a7.83 7.83 0 0 0-10.635.408l-9.988 9.988v3.071l15.352-3.071 2.714 1.357a6.75 6.75 0 0 0 6.657-.349" fill="#f5f5f5" data-original="#f5f5f5"/><path d="m228.365 267.095 3.071 18.422 15.352 15.353H256l12.281-3.07 12.283-12.283 3.07-18.422z" fill="#5aa0e6" data-original="#5aa0e6"/><path d="M256 303.94c-18.624 0-33.775-22.039-33.775-49.128s15.151-49.128 33.775-49.128 33.775 22.039 33.775 49.128S274.624 303.94 256 303.94m0-92.113c-15.236 0-27.635 19.284-27.635 42.986S240.762 297.8 256 297.8s27.634-19.284 27.634-42.987-12.398-42.986-27.634-42.986" fill="#ffc88c" data-original="#ffc88c"/><path d="M234.339 300.595c-2.574-3.554-6.406-5.865-10.746-5.865s-8.172 2.311-10.746 5.865c4.39 1.217 7.982 4.781 9.683 9.479a18 18 0 0 1 1.064 6.15c-.001-7.597 4.588-13.923 10.745-15.629" fill="#e1e1e1" data-original="#e1e1e1"/><path d="M226.031 310.281s-.241 4.094-2.339 6.013l-.088-.072c-2.099-1.919-2.339-6.013-2.339-6.013z" fill="#e1e1e1" data-original="#e1e1e1"/><path d="M294.4 311.616h-76.8a1.516 1.516 0 0 1-1.516-1.516v-.038c0-.838.679-1.516 1.516-1.516h76.8c.838 0 1.516.679 1.516 1.516v.038c0 .837-.678 1.516-1.516 1.516" fill="#966446" data-original="#966446"/><path d="M271.427 316.222h-30.856a6.066 6.066 0 0 1-6.066-6.066v-.151a6.066 6.066 0 0 1 6.066-6.066h30.856a6.066 6.066 0 0 1 6.066 6.066v.151a6.066 6.066 0 0 1-6.066 6.066" fill="#be915a" data-original="#be915a"/><path d="M228.365 308.546h-10.746a1.535 1.535 0 0 0 0 3.07h10.746z" fill="#b9b9b9" data-original="#b9b9b9"/><path d="M256 316.222v28.054l-12.281-3.49 6.14-24.564z" fill="#ff4b55" data-original="#ff4b55"/><path d="m252.929 316.222-6.141 21.494-12.281-3.071 9.212-18.423z" fill="#41479b" data-original="#41479b"/><path d="m240.648 316.222-9.212 12.282 9.212 3.07 6.14-15.352z" fill="#ffe15a" data-original="#ffe15a"/><path d="M256 316.222v28.054l12.281-3.49-6.14-24.564z" fill="#ff4b55" data-original="#ff4b55"/><path d="m259.071 316.222 6.141 21.494 12.281-3.071-9.212-18.423z" fill="#41479b" data-original="#41479b"/><path d="m271.352 316.222 9.212 12.282-9.212 3.07-6.14-15.352z" fill="#ffe15a" data-original="#ffe15a"/><path d="m193.728 247.482-4.414-4.448v-21.999h4.414zm128.918-4.448-4.414 4.448v-26.447h4.414z" fill="#41479b" data-original="#41479b"/></svg>