<svg xmlns="http://www.w3.org/2000/svg" width="32" height="32" viewBox="0 0 512 512" xml:space="preserve"><path d="M473.655 88.275H38.345C17.167 88.275 0 105.442 0 126.62v258.76c0 21.177 17.167 38.345 38.345 38.345h435.31c21.177 0 38.345-17.167 38.345-38.345V126.62c0-21.178-17.167-38.345-38.345-38.345" fill="#41479b" data-original="#41479b"/><path d="m259.59 126.684 3.54 10.613 11.187.087c1.449.011 2.049 1.859.884 2.72l-9 6.646 3.374 10.666c.437 1.38-1.135 2.524-2.314 1.681l-9.101-6.506-9.101 6.506c-1.178.842-2.751-.3-2.314-1.681l3.374-10.666-9-6.646c-1.165-.861-.565-2.709.884-2.72l11.187-.087 3.54-10.613c.457-1.374 2.402-1.374 2.86 0m0 227.863 3.54 10.613 11.187.087c1.449.011 2.049 1.859.884 2.72l-9 6.646 3.374 10.666c.437 1.38-1.135 2.524-2.314 1.681l-9.101-6.506-9.101 6.506c-1.178.842-2.751-.3-2.314-1.681l3.374-10.666-9-6.646c-1.165-.861-.565-2.709.884-2.72l11.187-.087 3.54-10.613c.457-1.375 2.402-1.375 2.86 0m113.931-113.932 3.54 10.613 11.187.087c1.449.011 2.049 1.859.884 2.72l-9 6.646 3.374 10.666c.437 1.38-1.135 2.524-2.314 1.681l-9.101-6.506-9.101 6.506c-1.178.842-2.751-.3-2.314-1.681l3.374-10.666-9-6.646c-1.165-.861-.565-2.709.884-2.72l11.187-.087 3.54-10.613c.457-1.373 2.402-1.373 2.86 0m-227.863 0 3.54 10.613 11.187.087c1.449.011 2.049 1.859.884 2.72l-9 6.646 3.374 10.666c.437 1.38-1.135 2.524-2.314 1.681l-9.101-6.506-9.101 6.506c-1.178.842-2.751-.3-2.314-1.681l3.374-10.666-9-6.646c-1.165-.861-.565-2.709.884-2.72l11.187-.087 3.54-10.613c.458-1.373 2.403-1.373 2.86 0m17.104-59.496 3.54 10.613 11.187.087c1.449.011 2.049 1.859.884 2.72l-9 6.646 3.374 10.666c.437 1.38-1.135 2.524-2.314 1.681l-9.101-6.506-9.101 6.506c-1.178.842-2.751-.3-2.314-1.681l3.374-10.666-9-6.646c-1.165-.861-.565-2.709.884-2.72l11.187-.087 3.54-10.613c.458-1.374 2.401-1.374 2.86 0M360.096 295.05l3.54 10.613 11.187.087c1.449.011 2.049 1.859.884 2.72l-9 6.646 3.374 10.666c.437 1.382-1.135 2.524-2.314 1.681l-9.101-6.506-9.101 6.506c-1.178.842-2.751-.3-2.314-1.681l3.374-10.666-9-6.646c-1.165-.861-.565-2.709.884-2.72l11.187-.087 3.54-10.613c.458-1.373 2.402-1.373 2.86 0m-41.701-155.633 3.54 10.613 11.187.087c1.449.011 2.049 1.859.884 2.72l-9 6.646 3.374 10.666c.437 1.38-1.135 2.524-2.314 1.681l-9.101-6.506-9.102 6.506c-1.178.842-2.751-.3-2.314-1.681l3.374-10.666-9-6.646c-1.165-.861-.565-2.709.884-2.72l11.187-.087 3.54-10.613c.458-1.373 2.401-1.373 2.861 0M204.463 336.753l3.54 10.613 11.187.087c1.449.011 2.049 1.859.884 2.72l-9 6.646 3.374 10.666c.437 1.38-1.135 2.524-2.314 1.681l-9.101-6.506-9.101 6.506c-1.178.842-2.751-.3-2.314-1.681l3.374-10.666-9-6.646c-1.165-.861-.565-2.709.884-2.72l11.187-.086 3.54-10.613c.458-1.376 2.403-1.376 2.86-.001m152.773-155.634-3.54 10.613-11.187.087c-1.449.011-2.049 1.859-.884 2.72l9 6.646-3.374 10.666c-.437 1.38 1.135 2.524 2.314 1.681l9.101-6.506 9.101 6.506c1.178.842 2.751-.3 2.314-1.681l-3.374-10.666 9-6.646c1.165-.861.565-2.709-.884-2.72l-11.187-.087-3.54-10.613c-.458-1.374-2.402-1.374-2.86 0M159.902 295.05l-3.54 10.613-11.187.087c-1.449.011-2.049 1.859-.884 2.72l9 6.646-3.374 10.666c-.437 1.382 1.135 2.524 2.314 1.681l9.101-6.506 9.101 6.506c1.178.842 2.751-.3 2.314-1.681l-3.374-10.666 9-6.646c1.165-.861.565-2.709-.884-2.72l-11.187-.087-3.54-10.613c-.459-1.373-2.402-1.373-2.86 0m41.701-155.633-3.54 10.613-11.187.087c-1.449.011-2.049 1.859-.884 2.72l9 6.646-3.374 10.666c-.437 1.38 1.135 2.524 2.314 1.681l9.101-6.506 9.101 6.506c1.178.842 2.751-.3 2.314-1.681l-3.374-10.666 9-6.646c1.165-.861.565-2.709-.884-2.72l-11.187-.087-3.54-10.613c-.459-1.373-2.402-1.373-2.86 0m113.931 197.336-3.54 10.613-11.187.087c-1.449.011-2.049 1.859-.884 2.72l9 6.646-3.374 10.666c-.437 1.38 1.135 2.524 2.314 1.681l9.101-6.506 9.101 6.506c1.178.842 2.751-.3 2.314-1.681l-3.374-10.666 9-6.646c1.165-.861.565-2.709-.884-2.72l-11.187-.086-3.54-10.613c-.459-1.376-2.402-1.376-2.86-.001" fill="#ffe15a" data-original="#ffe15a"/></svg>