<svg xmlns="http://www.w3.org/2000/svg" version="1.1" xmlns:xlink="http://www.w3.org/1999/xlink" width="64" height="64" x="0" y="0" viewBox="0 0 512 512" style="enable-background:new 0 0 512 512" xml:space="preserve"><g><path d="M473.654 423.724H38.345C17.167 423.724 0 406.556 0 385.379V126.621c0-21.177 17.167-38.345 38.345-38.345h435.309c21.177 0 38.345 17.167 38.345 38.345v258.758c0 21.177-17.168 38.345-38.345 38.345z" style="" fill="#f5f5f5" data-original="#f5f5f5"></path><path d="M512 220.69H291.31V88.276h-70.621V220.69H0v70.62h220.689v132.414h70.621V291.31H512z" style="" fill="#ff4b55" data-original="#ff4b55"></path><path d="M361.93 282.483v-52.966l-13.241 13.242H163.31l-13.241-13.242v52.966l13.241-13.242h185.379z" style="" fill="#ffe15a" data-original="#ffe15a"></path><path d="M229.517 361.931h52.965l-13.241-13.242V163.311l13.241-13.242h-52.965l13.241 13.242v185.378z" style="" fill="#ffe15a" data-original="#ffe15a"></path></g></svg>