<svg xmlns="http://www.w3.org/2000/svg" version="1.1" xmlns:xlink="http://www.w3.org/1999/xlink" width="64" height="64" x="0" y="0" viewBox="0 0 512 512" style="enable-background:new 0 0 512 512" xml:space="preserve"><g><path d="M473.655 88.276H38.345C17.167 88.276 0 105.443 0 126.621v73.471h512v-73.471c0-21.178-17.167-38.345-38.345-38.345z" style="" fill="#fab446" data-original="#fab446"></path><path d="M0 385.379c0 21.177 17.167 38.345 38.345 38.345h435.31c21.177 0 38.345-17.167 38.345-38.345v-73.471H0v73.471z" style="" fill="#73af00" data-original="#73af00"></path><path d="M0 200.09h512V311.9H0z" style="" fill="#f5f5f5" data-original="#f5f5f5"></path><path d="M256 303.448c-26.164 0-47.448-21.284-47.448-47.448s21.284-47.448 47.448-47.448 47.448 21.284 47.448 47.448-21.284 47.448-47.448 47.448zm0-86.069c-21.298 0-38.621 17.323-38.621 38.621s17.323 38.621 38.621 38.621 38.621-17.323 38.621-38.621-17.323-38.621-38.621-38.621z" style="" fill="#41479b" data-original="#41479b"></path><circle cx="256" cy="256" r="5.379" style="" fill="#41479b" data-original="#41479b"></circle><path d="m256 256.807-13.67 1.38-29.364-1.38v-1.614l29.364-1.38 13.67 1.38zM256 256.807l13.67 1.38 29.364-1.38v-1.614l-29.364-1.38-13.67 1.38z" style="" fill="#41479b" data-original="#41479b"></path><path d="m255.193 256-1.38-13.67 1.38-29.364h1.614l1.38 29.364-1.38 13.67zM255.193 256l-1.38 13.67 1.38 29.364h1.614l1.38-29.364-1.38-13.67z" style="" fill="#41479b" data-original="#41479b"></path><path d="m255.43 256.57-10.642-8.689L225 226.141l1.141-1.141 21.74 19.788 8.689 10.642z" style="" fill="#41479b" data-original="#41479b"></path><path d="m255.43 256.57 8.689 10.642L285.859 287l1.141-1.141-19.788-21.74-10.642-8.689z" style="" fill="#41479b" data-original="#41479b"></path><path d="m255.43 255.43 8.689-10.642L285.859 225l1.141 1.141-19.788 21.74-10.642 8.689z" style="" fill="#41479b" data-original="#41479b"></path><path d="m255.43 255.43-10.642 8.689L225 285.859l1.141 1.141 21.74-19.788 8.689-10.642z" style="" fill="#41479b" data-original="#41479b"></path><path d="m256.309 256.746-12.102 6.506-27.656 9.962-.618-1.491 26.601-12.512 13.157-3.957z" style="" fill="#41479b" data-original="#41479b"></path><path d="m256.309 256.746 13.157-3.957 26.601-12.512-.618-1.491-27.656 9.962-12.102 6.506z" style="" fill="#41479b" data-original="#41479b"></path><path d="m255.254 256.309-6.506-12.102-9.962-27.656 1.491-.618 12.512 26.601 3.957 13.157z" style="" fill="#41479b" data-original="#41479b"></path><path d="m255.254 256.309 3.957 13.157 12.512 26.601 1.491-.618-9.962-27.656-6.506-12.102z" style="" fill="#41479b" data-original="#41479b"></path><path d="m255.691 256.746-13.157-3.957-26.601-12.512.618-1.491 27.656 9.962 12.102 6.506zM255.691 256.746l12.102 6.506 27.656 9.962.618-1.491-26.601-12.512-13.157-3.957z" style="" fill="#41479b" data-original="#41479b"></path><path d="m255.254 255.691 3.957-13.157 12.512-26.601 1.491.618-9.962 27.656-6.506 12.102zM255.254 255.691l-6.506 12.102-9.962 27.656 1.491.618 12.512-26.601 3.957-13.157z" style="" fill="#41479b" data-original="#41479b"></path><circle cx="256" cy="256" r="7.256" style="" fill="#f5f5f5" data-original="#f5f5f5"></circle><circle cx="256" cy="256" r="4.351" style="" fill="#41479b" data-original="#41479b"></circle></g></svg>