<svg width="64" height="41.549" viewBox="0 0 64 41.549" fill="none" xmlns="http://www.w3.org/2000/svg"><path d="M60.749 2.54H3.251A3.25 3.25 0 0 0 0 5.79v32.508a3.25 3.25 0 0 0 3.251 3.251h57.498A3.25 3.25 0 0 0 64 38.298V5.79a3.25 3.25 0 0 0-3.251-3.251" fill="#ff4b55"/><path d="M60.749 0H3.251A3.25 3.25 0 0 0 0 3.251v15.441a3.25 3.25 0 0 0 3.251 3.251h57.498A3.25 3.25 0 0 0 64 18.692V3.251A3.25 3.25 0 0 0 60.749 0" fill="#73af00"/><path d="M64 14.73H0v12.19h64z" fill="#fff"/><path d="M.853 12.881h3.698m-3.556 1.28v-.711h1.138v.569h1.138v-.569H2.56m-1.138.569h.284m2.844 0h-.711v-.569h1.139m0-.711v1.28h1.138v-1.28m-.569 0v1.28" stroke="#fff" stroke-width=".284"/><path d="M.853 14.73h2.56m.284 0h2.56M.853 26.921h2.56m.284 0h2.56" stroke="#fff" stroke-width=".569"/><path d="M.853 27.632h3.698m-3.556 1.28v-.711h1.138v.569h1.138v-.569H2.56m-1.138.569h.284m2.844 0h-.711v-.569h1.139m0-.711v1.28h1.138v-1.28m-.569 0v1.28m.996-15.888h3.698m-3.556 1.28v-.711h1.137v.569H8.96v-.569h-.711m-1.138.568h.284m2.844 0h-.711v-.569h1.139m0-.711v1.28h1.138v-1.28m-.569 0v1.28" stroke="#fff" stroke-width=".284"/><path d="M6.542 14.73h2.56m.284 0h2.56M6.542 26.921h2.56m.284 0h2.56" stroke="#fff" stroke-width=".569"/><path d="M6.542 27.632h3.698m-3.556 1.28v-.711h1.138v.569H8.96v-.569h-.711m-1.138.569h.284m2.844 0h-.711v-.569h1.139m0-.711v1.28h1.138v-1.28m-.569 0v1.28m.996-15.888h3.698m-3.556 1.28v-.711h1.137v.569h1.138v-.569h-.711m-1.138.568h.284m2.844 0h-.711v-.569h1.139m0-.711v1.28h1.138v-1.28m-.569 0v1.28" stroke="#fff" stroke-width=".284"/><path d="M12.231 14.73h2.56m.284 0h2.56m-5.404 12.19h2.56m.284 0h2.56" stroke="#fff" stroke-width=".569"/><path d="M12.231 27.632h3.698m-3.556 1.28v-.711h1.138v.569h1.138v-.569h-.711m-1.138.569h.284m2.844 0h-.711v-.569h1.139m0-.711v1.28h1.138v-1.28m-.569 0v1.28m.996-15.888h3.698m-3.556 1.28v-.711H19.2v.569h1.138v-.569h-.711m-1.138.568h.284m2.844 0h-.711v-.569h1.138m0-.711v1.28h1.138v-1.28m-.569 0v1.28" stroke="#fff" stroke-width=".284"/><path d="M17.92 14.73h2.56m.284 0h2.56M17.92 26.92h2.56m.284 0h2.56" stroke="#fff" stroke-width=".569"/><path d="M17.92 27.632h3.698m-3.556 1.28v-.711H19.2v.569h1.138v-.569h-.711m-1.138.569h.284m2.844 0h-.711v-.569h1.138m0-.711v1.28h1.138v-1.28m-.569 0v1.28m.996-15.888h3.698m-3.556 1.28v-.711h1.138v.569h1.138v-.569h-.711m-1.138.568h.284m2.844 0h-.711v-.569h1.138m0-.711v1.28h1.138v-1.28m-.569 0v1.28" stroke="#fff" stroke-width=".284"/><path d="M23.609 14.73h2.56m.284 0h2.56m-5.404 12.19h2.56m.284 0h2.56" stroke="#fff" stroke-width=".569"/><path d="M23.609 27.632h3.698m-3.556 1.28v-.711h1.138v.569h1.138v-.569h-.711m-1.138.569h.284m2.844 0h-.711v-.569h1.138m0-.711v1.28h1.138v-1.28m-.569 0v1.28m.996-15.888h3.698m-3.556 1.28v-.711h1.138v.569h1.138v-.569h-.711m-1.138.568h.284m2.844 0h-.711v-.569h1.138m0-.711v1.28h1.138v-1.28m-.569 0v1.28" stroke="#fff" stroke-width=".284"/><path d="M29.298 14.73h2.56m.284 0h2.56m-5.404 12.19h2.56m.284 0h2.56" stroke="#fff" stroke-width=".569"/><path d="M29.298 27.632h3.698m-3.556 1.28v-.711h1.138v.569h1.138v-.569h-.711m-1.138.569h.284m2.844 0h-.711v-.569h1.138m0-.711v1.28h1.138v-1.28m-.569 0v1.28m.996-15.888h3.698m-3.556 1.28v-.711h1.138v.569h1.138v-.569h-.711m-1.138.568h.284m2.844 0h-.711v-.569h1.138m0-.711v1.28h1.138v-1.28m-.569 0v1.28" stroke="#fff" stroke-width=".284"/><path d="M34.987 14.73h2.56m.284 0h2.56m-5.404 12.19h2.56m.284 0h2.56" stroke="#fff" stroke-width=".569"/><path d="M34.987 27.632h3.698m-3.556 1.28v-.711h1.138v.569h1.138v-.569h-.711m-1.138.569h.284m2.844 0h-.711v-.569h1.138m0-.711v1.28h1.138v-1.28m-.569 0v1.28m.996-15.888h3.698m-3.556 1.28v-.711h1.138v.569h1.138v-.569h-.711m-1.139.568h.284m2.844 0h-.711v-.569H44.8m0-.711v1.28h1.138v-1.28m-.569 0v1.28" stroke="#fff" stroke-width=".284"/><path d="M40.676 14.73h2.56m.284 0h2.56m-5.404 12.19h2.56m.284 0h2.56" stroke="#fff" stroke-width=".569"/><path d="M40.676 27.632h3.698m-3.556 1.28v-.711h1.138v.569h1.138v-.569h-.711m-1.138.569h.284m2.844 0h-.711v-.569H44.8m0-.711v1.28h1.138v-1.28m-.569 0v1.28m.996-15.888h3.698m-3.556 1.28v-.711h1.137v.569h1.138v-.569h-.711m-1.138.568h.284m2.844 0h-.711v-.569h1.139m0-.711v1.28h1.138v-1.28m-.569 0v1.28" stroke="#fff" stroke-width=".284"/><path d="M46.364 14.73h2.56m.284 0h2.56m-5.404 12.19h2.56m.284 0h2.56" stroke="#fff" stroke-width=".569"/><path d="M46.364 27.632h3.698m-3.556 1.28v-.711h1.138v.569h1.138v-.569h-.711m-1.138.569h.284m2.844 0h-.711v-.569h1.139m0-.711v1.28h1.138v-1.28m-.569 0v1.28m.996-15.888h3.698m-3.556 1.28v-.711h1.137v.569h1.138v-.569h-.711m-1.138.568h.284m2.844 0h-.711v-.569h1.139m0-.711v1.28h1.138v-1.28m-.569 0v1.28" stroke="#fff" stroke-width=".284"/><path d="M52.053 14.73h2.56m.284 0h2.56m-5.404 12.19h2.56m.284 0h2.56" stroke="#fff" stroke-width=".569"/><path d="M52.053 27.632h3.698m-3.556 1.28v-.711h1.138v.569h1.138v-.569h-.711m-1.138.569h.284m2.844 0h-.711v-.569h1.139m0-.711v1.28h1.138v-1.28m-.569 0v1.28m.996-15.888h3.698m-3.556 1.28v-.711h1.137v.569h1.138v-.569h-.711m-1.138.568h.284m2.844 0h-.711v-.569h1.139m0-.711v1.28h1.138v-1.28m-.569 0v1.28" stroke="#fff" stroke-width=".284"/><path d="M57.742 14.73h2.56m.284 0h2.56m-5.404 12.19h2.56m.284 0h2.56" stroke="#fff" stroke-width=".569"/><path d="M57.742 27.632h3.698m-3.556 1.28v-.711h1.138v.569h1.138v-.569h-.711m-1.138.569h.284m2.844 0h-.711v-.569h1.139m0-.711v1.28h1.138v-1.28m-.569 0v1.28" stroke="#fff" stroke-width=".284"/><path d="M29.494 24.649a4.169 4.169 0 0 0 4.008-7.126 4.571 4.571 0 0 1-4.008 7.126" fill="#da0000"/><path d="M34.827 23.849a3.492 3.492 0 0 0 .849-5.359 3.5 3.5 0 0 0-1.748-1.053 4.57 4.57 0 0 1 .899 6.411M32 25.397l-.229-4.571.229-3.599a1.4 1.4 0 0 0 .54.453v2.687l-.184 4.541zm-.091-8.457.091.086a.66.66 0 0 0 .854.201.66.66 0 0 0 .299-.825.623.623 0 0 1-1.153.196" fill="#da0000"/><path d="M34.506 24.649a4.169 4.169 0 0 1-4.008-7.126 4.571 4.571 0 0 0 4.008 7.126" fill="#da0000"/><path d="M29.173 23.849a3.492 3.492 0 0 1-.849-5.359 3.5 3.5 0 0 1 1.748-1.053 4.57 4.57 0 0 0-.899 6.411M32 25.397l.229-4.571L32 17.227a1.4 1.4 0 0 1-.54.453v2.687l.184 4.541zm.091-8.457-.091.086a.66.66 0 0 1-.854.201.66.66 0 0 1-.299-.825.623.623 0 0 0 1.153.196" fill="#da0000"/></svg>