<svg xmlns="http://www.w3.org/2000/svg" width="64" height="64" viewBox="0 0 512 512" xml:space="preserve"><path d="M473.655 88.276H38.345a38.17 38.17 0 0 0-23.767 8.266l191.171 103.55H512v-73.471c0-21.178-17.167-38.345-38.345-38.345" fill="#464655" data-original="#464655"/><path d="M14.578 415.458a38.17 38.17 0 0 0 23.767 8.266h435.31c21.177 0 38.345-17.167 38.345-38.345v-73.471H205.75z" fill="#73af00" data-original="#73af00"/><path d="M302.368 252.427c2.838 1.537 2.838 5.61 0 7.147l-96.618 52.334H512V200.092H205.749z" fill="#f5f5f5" data-original="#f5f5f5"/><path d="M302.368 259.574c2.838-1.537 2.838-5.61 0-7.147l-96.619-52.334L14.578 96.542C5.702 103.565 0 114.423 0 126.621v258.758c0 12.198 5.702 23.057 14.578 30.079l191.171-103.55z" fill="#ff4b55" data-original="#ff4b55"/><path d="m95.399 233.164 5.247 11.381 12.169-2.994a.917.917 0 0 1 1.038 1.302l-5.626 11.198 9.928 7.648a.916.916 0 0 1-.371 1.623l-12.263 2.583.211 12.53a.917.917 0 0 1-1.5.723l-9.665-7.977-9.665 7.977a.917.917 0 0 1-1.5-.723l.211-12.53-12.263-2.583a.916.916 0 0 1-.371-1.623l9.928-7.648-5.626-11.198a.917.917 0 0 1 1.038-1.302l12.169 2.994 5.247-11.381c.326-.71 1.336-.71 1.664 0" fill="#f5f5f5" data-original="#f5f5f5"/></svg>