<svg xmlns="http://www.w3.org/2000/svg" version="1.1" xmlns:xlink="http://www.w3.org/1999/xlink" width="64" height="64" x="0" y="0" viewBox="0 0 496 496" style="enable-background:new 0 0 512 512" xml:space="preserve" class=""><g><path d="M0 304v65.6C0 396.8 21.6 416 48 416h400c26.4 0 48-19.2 48-46.4V304H0z" style="" fill="#db2727" data-original="#db2727" class="" opacity="1"></path><path d="M448 80H48C21.6 80 0 99.2 0 126.4V192h496v-65.6c0-27.2-21.6-46.4-48-46.4z" style="" fill="#359846" data-original="#359846" class="" opacity="1"></path><path d="M0 192h496v112H0z" style="" fill="#ffffff" data-original="#ffffff" class="" opacity="1"></path><path d="M446.4 416c26.4 0 49.6-19.2 49.6-46.4V304H315.2l131.2 112z" style="" fill="#db2727" data-original="#c61a1a" class="" opacity="1"></path><path d="M448 80H48l132.8 112H496v-65.6c0-27.2-21.6-46.4-48-46.4z" style="" fill="#359846" data-original="#218930" class="" opacity="1"></path><path d="M316 304h180V192H180z" style="" fill="#ffffff" data-original="#cfe5e2" class="" opacity="1"></path><path d="M448 80H48l370.4 112H496v-65.6c0-27.2-21.6-46.4-48-46.4z" style="" fill="#359846" data-original="#167221" class="" opacity="1"></path><path d="M496 214.4V192h-81.6z" style="" fill="#ffffff" data-original="#bad3cf" class="" opacity="1"></path><path d="M496 368.8c0 29.6-21.6 47.2-48 47.2H48c-26.4 0-48-20.8-48-48" style="" fill="#db2727" data-original="#b20b0b" class="" opacity="1"></path><path d="M0 126.4v244c0 7.2 1.6 14.4 4.8 20.8l83.2-84V188.8L4.8 105.6C1.6 112 0 119.2 0 126.4z" style="" fill="#383737" data-original="#383737" class="" opacity="1"></path><path d="M0 192v-.8 179.2c0 7.2 1.6 14.4 4.8 20.8l83.2-84V192" style="" fill="#383737" data-original="#151515" class="" opacity="1"></path></g></svg>