<svg xmlns="http://www.w3.org/2000/svg" version="1.1" xmlns:xlink="http://www.w3.org/1999/xlink" width="64" height="64" x="0" y="0" viewBox="0 0 8.467 8.467" style="enable-background:new 0 0 512 512" xml:space="preserve" class=""><g><path fill="#ececec" d="M1.485 2.116a.691.691 0 0 0-.691.692v2.85a.691.691 0 0 0 .691.692h5.497a.691.691 0 0 0 .691-.692v-2.85a.691.691 0 0 0-.691-.692z" opacity="1" data-original="#ececec"></path><g fill="#d40000"><path d="M4.234 2.721v.302h3.44v-.302zM4.234 3.326v.302h3.44v-.302zM4.234 3.93v.303h3.44V3.93zM.794 4.535v.303h6.88v-.303zM.794 5.14v.302h6.88V5.14zM4.233 2.116v.303h3.373a.384.691 0 0 0-.317-.303z" fill="#d40000" opacity="1" data-original="#d40000" class=""></path></g><path fill="#164790" d="M1.485 2.116a.691.691 0 0 0-.691.692v1.727h3.44V2.116z" opacity="1" data-original="#002255" class=""></path><path fill="#ffda44" d="m3.133 3.552-.052.34-.052-.34-.193.284.1-.329-.298.172.234-.252-.343.025.32-.126-.32-.126.343.025-.234-.252.298.171-.1-.328.193.284.052-.34.051.34.194-.284-.1.328.297-.171-.233.252.343-.025-.32.126.32.125-.343-.025.234.252-.298-.17.1.328z" opacity="1" data-original="#ffcc00" class=""></path><path fill="#ffda44" d="M2.211 2.51a.816.816 0 0 0-.816.816.816.816 0 0 0 .816.816.816.816 0 0 0 .58-.241.698.698 0 0 1-.397.123.698.698 0 0 1-.698-.698.698.698 0 0 1 .698-.698.698.698 0 0 1 .398.124.816.816 0 0 0-.58-.242z" opacity="1" data-original="#ffcc00" class=""></path><path fill="#d40000" d="M.8 5.745a.691.691 0 0 0 .115.302h6.638a.691.691 0 0 0 .114-.302z" opacity="1" data-original="#d40000" class=""></path></g></svg>