<svg xmlns="http://www.w3.org/2000/svg" width="32" height="32" viewBox="0 0 64 64" xml:space="preserve"><path fill="#f8d12e" d="M21 11h22v42H21z" data-original="#f8d12e"/><path fill="#2db24a" d="M21 11H7c-3.3 0-6 2.4-6 5.8v30.4C1 50.6 3.7 53 7 53h14z" data-original="#2db24a"/><path fill="#e43533" d="M57 11H43v42h14c3.3 0 6-2.4 6-5.8V16.8c0-3.4-2.7-5.8-6-5.8" data-original="#e43533"/><path fill="#e43533" d="M57 11H43v30.1L56.8 53c3.3 0 6.2-2.4 6.2-5.8V16.8c0-3.4-2.7-5.8-6-5.8" data-original="#d32424"/><path fill="#f8d12e" d="M43 41.1V11H21v11.9z" data-original="#e2bb17"/><path fill="#2db24a" d="M21 11H7l14 11.9z" data-original="#249b3a"/><path fill="#e43533" d="M43 53h14c3.3 0 6-2 6-6H43z" data-original="#c41616"/><path fill="#f8d12e" d="M21 47h22v6H21z" data-original="#cea80b"/><path fill="#2db24a" d="M1 47c0 4 2.7 6 6 6h14v-6z" data-original="#177f26"/><path fill="#e43533" d="M57 11H43v10.6l20 6.2v-11c0-3.4-2.7-5.8-6-5.8" data-original="#c41616"/><path fill="#f8d12e" d="M43 21.6V11H21v4.1z" data-original="#cea80b"/><path fill="#2db24a" d="M21 11H7l14 4.1z" data-original="#177f26"/></svg>