<svg xmlns="http://www.w3.org/2000/svg" version="1.1" xmlns:xlink="http://www.w3.org/1999/xlink" width="64" height="64" x="0" y="0" viewBox="0 0 512 512" style="enable-background:new 0 0 512 512" xml:space="preserve"><g><path d="M473.655 88.275H256v335.448h217.655c21.177 0 38.345-17.167 38.345-38.345V126.62c0-21.178-17.167-38.345-38.345-38.345z" style="" fill="#ff4b55" data-original="#ff4b55"></path><path d="M38.345 88.275C17.167 88.275 0 105.442 0 126.62v258.76c0 21.177 17.167 38.345 38.345 38.345H256V88.275H38.345z" style="" fill="#f5f5f5" data-original="#f5f5f5"></path><path d="M73.564 108.873v23.62c1.301.051 2.752.641 3.958 1.847s1.798 2.657 1.847 3.958h23.62v23.54H79.368c-.051 1.301-.641 2.752-1.847 3.958s-2.657 1.796-3.958 1.847v23.62h-23.54v-23.62c-1.301-.051-2.752-.641-3.958-1.847s-1.796-2.657-1.847-3.958h-23.62v-23.539h23.62c.051-1.301.641-2.752 1.847-3.958s2.657-1.796 3.958-1.847v-23.62h23.541m2.941-2.944H47.08V130.176a9.488 9.488 0 0 0-3.096 2.083 9.49 9.49 0 0 0-2.084 3.096H17.655V164.781H41.901a9.48 9.48 0 0 0 2.084 3.096 9.473 9.473 0 0 0 3.095 2.083v24.245H76.506V169.959a9.475 9.475 0 0 0 3.096-2.084 9.473 9.473 0 0 0 2.083-3.095h24.245V135.354H81.686a9.475 9.475 0 0 0-2.084-3.096 9.467 9.467 0 0 0-3.096-2.083v-21.302l-.001-2.943z" style="" fill="#ff4b55" data-original="#ff4b55"></path><path d="M102.988 138.298H73.564v-29.425H50.023v29.425H20.598v23.541h29.425v29.425h23.541v-29.425h29.424z" style="" fill="#cdcdcd" data-original="#cdcdcd"></path><circle cx="61.793" cy="150.07" r="11.77" style="" fill="#b4a08c" data-original="#b4a08c"></circle><ellipse cx="48.656" cy="163.205" rx="5.234" ry="3.663" style="" transform="rotate(-134.999 48.656 163.206)" fill="#b4a08c" data-original="#b4a08c"></ellipse><ellipse cx="74.935" cy="163.198" rx="5.234" ry="3.663" style="" transform="rotate(-45.001 74.933 163.2)" fill="#b4a08c" data-original="#b4a08c"></ellipse><ellipse cx="74.922" cy="136.937" rx="5.234" ry="3.663" style="" transform="rotate(45.001 74.924 136.936)" fill="#b4a08c" data-original="#b4a08c"></ellipse><ellipse cx="48.65" cy="136.93" rx="5.234" ry="3.663" style="" transform="rotate(134.999 48.65 136.93)" fill="#b4a08c" data-original="#b4a08c"></ellipse><path d="M61.793 166.182c-8.885 0-16.113-7.226-16.113-16.113s7.228-16.113 16.113-16.113 16.113 7.228 16.113 16.113c0 8.884-7.228 16.113-16.113 16.113zm0-30.755c-8.072 0-14.641 6.569-14.641 14.641s6.569 14.641 14.641 14.641 14.641-6.569 14.641-14.641-6.569-14.641-14.641-14.641z" style="" fill="#b4a08c" data-original="#b4a08c"></path></g></svg>