<svg xmlns="http://www.w3.org/2000/svg" version="1.1" xmlns:xlink="http://www.w3.org/1999/xlink" width="64" height="64" x="0" y="0" viewBox="0 0 512 512" style="enable-background:new 0 0 512 512" xml:space="preserve"><g><path d="M473.655 423.724H38.345C17.167 423.724 0 406.557 0 385.379V126.621c0-21.177 17.167-38.345 38.345-38.345h435.31c21.177 0 38.345 17.167 38.345 38.345V385.38c0 21.177-17.167 38.344-38.345 38.344z" style="" fill="#ff4b55" data-original="#ff4b55"></path><path d="m297.951 277.961 67.433-49.478h-83.509L256 148.845l-25.875 79.638h-83.509l67.433 49.478-25.675 79.022 67.56-48.289.066.049.066-.049 67.56 48.289-25.675-79.022zm13.527-31.823-19.273 14.142-4.595-14.142h23.868zm-76.694 25.139 8.169-25.14h26.094l8.169 25.14L256 286.845l-21.216-15.568zM256 205.983l7.31 22.5h-14.622l7.312-22.5zm-55.478 40.155h23.868l-4.595 14.142-19.273-14.142zm21.215 65.293 7.302-22.472 11.911 8.739-19.213 13.733zm61.225-22.472 7.302 22.472-19.212-13.732 11.91-8.74z" style="" fill="#5a8250" data-original="#5a8250"></path></g></svg>