<svg xmlns="http://www.w3.org/2000/svg" version="1.1" xmlns:xlink="http://www.w3.org/1999/xlink" width="64" height="64" x="0" y="0" viewBox="0 0 512 512" style="enable-background:new 0 0 512 512" xml:space="preserve"><g><path d="M38.345 88.276C17.167 88.276 0 105.443 0 126.621v217.655l388.414-256H38.345z" style="" fill="#41479b" data-original="#41479b"></path><path d="M473.655 423.724c21.177 0 38.345-17.167 38.345-38.345V167.724l-388.414 256h350.069z" style="" fill="#73af00" data-original="#73af00"></path><path d="M473.655 88.276h-90.516L0 339.298v46.081c0 21.177 17.167 38.345 38.345 38.345h90.516L512 172.702v-46.081c0-21.178-17.167-38.345-38.345-38.345z" style="" fill="#f5f5f5" data-original="#f5f5f5"></path><path d="M473.655 88.276h-42.2L0 370.953v14.426c0 21.177 17.167 38.345 38.345 38.345h42.2L512 141.047v-14.426c0-21.178-17.167-38.345-38.345-38.345z" style="" fill="#ff4b55" data-original="#ff4b55"></path><path d="M90.207 145.894c8.691 0 16.557 3.521 22.254 9.214l3.125-21.686-17.235 13.561-8.145-20.362-8.145 20.362-17.235-13.561 3.125 21.686c5.699-5.694 13.565-9.214 22.256-9.214zM67.935 199.634c-5.693-5.697-9.214-13.565-9.214-22.254 0-8.691 3.521-16.557 9.214-22.254L46.249 152l13.561 17.235-20.362 8.145 20.362 8.145-13.561 17.235 21.686-3.126zM140.966 177.379l-20.362-8.145L134.165 152l-21.686 3.125c5.693 5.697 9.214 13.565 9.214 22.254 0 8.69-3.521 16.557-9.214 22.254l21.686 3.125-13.561-17.235 20.362-8.144zM90.207 208.865c-8.691 0-16.557-3.521-22.254-9.214l-3.125 21.686 17.235-13.561 8.145 20.362 8.145-20.362 17.235 13.561-3.125-21.686c-5.699 5.694-13.565 9.214-22.256 9.214z" style="" fill="#ffe15a" data-original="#ffe15a"></path><circle cx="90.21" cy="177.38" r="25.709" style="" fill="#ffe15a" data-original="#ffe15a"></circle></g></svg>