<svg xmlns="http://www.w3.org/2000/svg" version="1.1" xmlns:xlink="http://www.w3.org/1999/xlink" width="64" height="64" x="0" y="0" viewBox="0 0 8.467 8.467" style="enable-background:new 0 0 512 512" xml:space="preserve"><g><path fill="#496e2d" d="M2.844 2.117V6.35h4.137a.691.691 0 0 0 .692-.691v-2.85a.691.691 0 0 0-.692-.692z" opacity="1" data-original="#005522"></path><g fill="#f2f2f2"><path d="M4.79 2.772A1.586 1.586 0 0 0 3.753 4.26 1.586 1.586 0 0 0 5.34 5.846a1.586 1.586 0 0 0 1.357-.767 1.5 1.5 0 0 1-1.012.394 1.5 1.5 0 0 1-1.5-1.5 1.5 1.5 0 0 1 .605-1.2zM6.697 3.807l-.405-.022-.136.382-.104-.392-.405-.012.34-.22-.114-.389.315.256.334-.228-.146.378zM1.485 2.117a.691.691 0 0 0-.691.691v2.85a.691.691 0 0 0 .691.692h1.36V2.117z" fill="#f2f2f2" opacity="1" data-original="#f2f2f2"></path></g></g></svg>