<svg width="64" height="64" viewBox="0 0 64 64" fill="none" xmlns="http://www.w3.org/2000/svg">
<g clip-path="url(#clip0_13_60)">
<path d="M19.1959 12V51.3825H57.6852C58.5302 51.3837 59.3672 51.2183 60.1482 50.8958C60.9293 50.5732 61.6391 50.0999 62.2371 49.5028C62.835 48.9057 63.3094 48.1966 63.6331 47.416C63.9567 46.6354 64.1233 45.7987 64.1233 44.9536V18.4382C64.1245 17.5923 63.9588 16.7546 63.6357 15.9729C63.3126 15.1913 62.8384 14.481 62.2404 13.883C61.6423 13.2849 60.9321 12.8107 60.1504 12.4876C59.3687 12.1645 58.531 11.9988 57.6852 12H19.1959Z" fill="#496E2D"/>
<path d="M37.3008 18.0939C34.4702 19.1383 32.0278 21.0253 30.3027 23.5007C28.5776 25.976 27.6528 28.9206 27.6529 31.9378C27.6529 33.8763 28.0349 35.7958 28.777 37.5867C29.5191 39.3775 30.6069 41.0046 31.978 42.3749C33.3492 43.7452 34.9769 44.8319 36.7683 45.5729C38.5596 46.3139 40.4793 46.6946 42.4178 46.6934C44.9585 46.6915 47.4557 46.0337 49.6675 44.7835C51.8794 43.5333 53.7309 41.7332 55.0429 39.5575C52.4725 41.9125 49.1137 43.2201 45.6276 43.2231C41.9264 43.2231 38.3767 41.7528 35.7596 39.1357C33.1424 36.5185 31.6721 32.9689 31.6721 29.2676C31.6775 27.0972 32.1891 24.9579 33.1662 23.0198C34.1433 21.0817 35.559 19.389 37.3008 18.0939ZM55.0429 27.7232L51.2749 27.5185L50.0096 31.0725L49.0421 27.4255L45.2741 27.3139L48.4373 25.267L47.3767 21.6479L50.3074 24.0297L53.4148 21.9084L52.0565 25.4252L55.0429 27.7232ZM6.55217 12C4.84713 12 3.21193 12.6773 2.00629 13.883C0.80065 15.0886 0.123328 16.7238 0.123328 18.4288V44.9443C0.122105 45.7894 0.287489 46.6263 0.610021 47.4074C0.932553 48.1885 1.4059 48.8983 2.003 49.4962C2.60009 50.0942 3.30922 50.5686 4.08981 50.8922C4.8704 51.2159 5.70714 51.3825 6.55217 51.3825H19.2052V12H6.55217Z" fill="#F2F2F2"/>
</g>
<defs>
<clipPath id="clip0_13_60">
<rect width="64" height="64" fill="white"/>
</clipPath>
</defs>
</svg>
