<svg xmlns="http://www.w3.org/2000/svg" version="1.1" xmlns:xlink="http://www.w3.org/1999/xlink" width="64" height="64" x="0" y="0" viewBox="0 0 512 512" style="enable-background:new 0 0 512 512" xml:space="preserve"><g><path d="M473.655 423.724H38.345C17.167 423.724 0 406.557 0 385.378V126.62c0-21.177 17.167-38.345 38.345-38.345h435.31c21.177 0 38.345 17.167 38.345 38.345v258.76c0 21.177-17.167 38.344-38.345 38.344z" style="" fill="#ff4b55" data-original="#ff4b55"></path><path d="M38.345 88.275C17.167 88.275 0 105.442 0 126.62v258.76c0 21.177 17.167 38.345 38.345 38.345h147.034V88.275H38.345z" style="" fill="#73af00" data-original="#73af00"></path><circle cx="185.45" cy="255.999" r="79.38" style="" fill="#ffe15a" data-original="#ffe15a"></circle><path d="M211.932 229.516v35.31c0 14.603-11.88 26.483-26.483 26.483s-26.483-11.88-26.483-26.483v-35.31h52.966m8.827-17.655h-70.621a8.829 8.829 0 0 0-8.828 8.828v44.138c0 24.376 19.762 44.138 44.138 44.138s44.138-19.762 44.138-44.138v-44.138a8.827 8.827 0 0 0-8.827-8.828z" style="" fill="#ff4b55" data-original="#ff4b55"></path><path d="M211.932 229.516v35.31c0 14.603-11.88 26.483-26.483 26.483s-26.483-11.88-26.483-26.483v-35.31h52.966" style="" fill="#f5f5f5" data-original="#f5f5f5"></path><circle cx="150.07" cy="220.689" r="4.414" style="" fill="#ffe15a" data-original="#ffe15a"></circle><circle cx="220.69" cy="220.689" r="4.414" style="" fill="#ffe15a" data-original="#ffe15a"></circle><circle cx="150.07" cy="255.999" r="4.414" style="" fill="#ffe15a" data-original="#ffe15a"></circle><circle cx="220.69" cy="255.999" r="4.414" style="" fill="#ffe15a" data-original="#ffe15a"></circle><circle cx="185.38" cy="220.689" r="4.414" style="" fill="#ffe15a" data-original="#ffe15a"></circle><circle cx="211.88" cy="288.549" r="4.414" style="" fill="#ffe15a" data-original="#ffe15a"></circle><circle cx="159.4" cy="288.549" r="4.414" style="" fill="#ffe15a" data-original="#ffe15a"></circle><path d="M191.149 253.761v7.602c0 3.144-2.558 5.702-5.702 5.702s-5.702-2.558-5.702-5.702v-7.602h11.404M191.149 235.74v7.602c0 3.144-2.558 5.702-5.702 5.702s-5.702-2.558-5.702-5.702v-7.602h11.404M191.149 271.969v7.602c0 3.144-2.558 5.702-5.702 5.702s-5.702-2.558-5.702-5.702v-7.602h11.404M206.506 253.761v7.602c0 3.144-2.558 5.702-5.702 5.702s-5.702-2.558-5.702-5.702v-7.602h11.404M175.794 253.761v7.602c0 3.144-2.558 5.702-5.702 5.702s-5.702-2.558-5.702-5.702v-7.602h11.404" style="" fill="#41479b" data-original="#41479b"></path></g></svg>