<svg xmlns="http://www.w3.org/2000/svg" version="1.1" xmlns:xlink="http://www.w3.org/1999/xlink" width="64" height="64" x="0" y="0" viewBox="0 0 512 512" style="enable-background:new 0 0 512 512" xml:space="preserve"><g><path d="M473.655 88.276H38.345C17.167 88.276 0 105.443 0 126.621V256h512V126.621c0-21.178-17.167-38.345-38.345-38.345z" style="" fill="#4173cd" data-original="#4173cd"></path><path d="M0 256h512v83.86H0z" style="" fill="#ffe15a" data-original="#ffe15a"></path><path d="M0 385.379c0 21.177 17.167 38.345 38.345 38.345h435.31c21.177 0 38.345-17.167 38.345-38.345v-45.517H0v45.517z" style="" fill="#73af00" data-original="#73af00"></path><path d="m458.211 178.12 36.134-5.982-36.134-5.982 31.094-19.354-35.672 8.301 21.321-29.78-29.78 21.321 8.301-35.672-19.354 31.094-5.983-36.135-5.982 36.134-19.354-31.094 8.301 35.672-29.78-21.321 21.321 29.78-35.672-8.301 31.094 19.354-36.135 5.983 36.134 5.982-31.094 19.354 35.672-8.301-21.321 29.78 29.78-21.321-8.301 35.672 19.354-31.094 5.983 36.135 5.982-36.134 19.354 31.094-8.301-35.672 29.78 21.321-21.321-29.78 35.672 8.301-31.093-19.355zm-30.073 16.087c-12.189 0-22.069-9.88-22.069-22.069s9.88-22.069 22.069-22.069 22.069 9.88 22.069 22.069-9.88 22.069-22.069 22.069z" style="" fill="#ffe15a" data-original="#ffe15a"></path><circle cx="428.14" cy="172.14" r="16.552" style="" fill="#ffe15a" data-original="#ffe15a"></circle></g></svg>