<svg xmlns="http://www.w3.org/2000/svg" version="1.1" xmlns:xlink="http://www.w3.org/1999/xlink" width="64" height="64" x="0" y="0" viewBox="0 0 512 512" style="enable-background:new 0 0 512 512" xml:space="preserve"><g><path d="M0 150.069v211.862L141.241 256z" style="" fill="#464655" data-original="#464655"></path><path d="M473.655 88.276H70.621l158.897 123.586H512v-85.241c0-21.178-17.167-38.345-38.345-38.345z" style="" fill="#ff4b55" data-original="#ff4b55"></path><path d="M70.621 423.724h403.034c21.177 0 38.345-17.167 38.345-38.345v-85.241H229.517L70.621 423.724z" style="" fill="#41479b" data-original="#41479b"></path><path d="M56.889 88.276H38.345C17.167 88.276 0 105.443 0 126.621v6.692L154.974 256 0 378.691v6.688c0 21.177 17.167 38.345 38.345 38.345h18.539L224.146 291.31H512v-70.62H224.148L56.889 88.276z" style="" fill="#73af00" data-original="#73af00"></path><path d="M85.333 88.276H56.889L224.148 220.69H512v-17.656H230.291z" style="" fill="#f5f5f5" data-original="#f5f5f5"></path><path d="M0 133.313v22.518L126.53 256 0 356.173v22.518L154.974 256z" style="" fill="#ffe15a" data-original="#ffe15a"></path><path d="M224.147 291.31 56.884 423.724h28.445l144.96-114.758H512V291.31z" style="" fill="#f5f5f5" data-original="#f5f5f5"></path></g></svg>