<svg xmlns="http://www.w3.org/2000/svg" width="64" height="64" viewBox="0 0 512 512" xml:space="preserve"><rect width="512" height="284.703" y="113.648" fill="#f0f0f0" rx="46.726" data-original="#f0f0f0"/><path fill="#ffda44" fill-rule="evenodd" d="M67.55 199.636c-8.986 3.519-10.7 19.681-22.638 15.374 12.015 8.176 16.622-4.09 29.875-5.869l-17.2 25.182 21.695-14.879c-1.506 9.082 5.174 22.261-4.973 26.561 16.038-4.69 8.538-14.431 17.56-25.366l5.475 30.077 4.773-25.747c5.358 8.284 18.868 10.721 15.435 21.837 7.351-13.023-3.4-16.32-6.328-30.031l25.171 17.549-14.574-21.737c8.757 2.964 21.8-5.987 26.444 4.731-4.347-14.937-13.633-8.527-25.232-17.11l30.509-5.453-26.268-4.949c7.942-3.763 11.162-19.5 22.121-15.307-13.308-7.9-16.212 4.485-29.985 5.87l17.174-24.806-21.6 14.656c2.635-9.309-5.9-21.76 4.74-26.479-13.556 2.684-9.647 14.711-16.935 25.285L97.2 139.359l-4.753 25.391c-3.923-8.729-19.461-10.057-15.362-22.283-8.315 14.225 4.6 16.379 5.7 30.021l-25.2-17.773L72.6 176.733c-9.729-1.5-21.412 5.788-26.513-4.448 4.325 15.077 13.6 8.55 25.312 16.661l-29.926 5.809z" data-original="#ffda44"/><g fill="#338af3"><path fill-rule="evenodd" d="M511.833 355.579H.167a46.884 46.884 0 0 0 46.559 42.773h418.548a46.884 46.884 0 0 0 46.559-42.773M0 315.257h512v-40.322c-172.06 0-340.667 1.492-512 1.492z" data-original="#338af3"/><path d="M195.013 194.292H512v40.322H195.013z" data-original="#338af3"/><path fill-rule="evenodd" d="M195.013 153.97h316.546a46.9 46.9 0 0 0-46.285-40.322H195.013z" data-original="#338af3"/></g></svg>