<svg xmlns="http://www.w3.org/2000/svg" version="1.1" xmlns:xlink="http://www.w3.org/1999/xlink" width="64" height="64" x="0" y="0" viewBox="0 0 512 512" style="enable-background:new 0 0 512 512" xml:space="preserve"><g><path fill="#e5646e" d="M495.484 90.839H264.258L9 267.5v146.833h486.484L512 404.645v-30.673l-10.75-10.222v-29l10.75-7.967v-47.189l-9.667-9.261v-29.667l9.667-8.262v-47.188l-9.667-8.549v-26L512 138.028v-30.673c0-9.122-7.395-16.516-16.516-16.516z" opacity="1" data-original="#e5646e"></path><path fill="#f2f2f6" d="M256.333 138.028H512v47.189H256.333zM256 232.405l8.258 47.189H512v-47.189z" opacity="1" data-original="#f2f2f6"></path><path fill="#db4655" d="M16.516 355.097V271L0 279.594v47.189l7 5.967v31l-7 10.222v30.673c0 9.122 7.395 16.516 16.516 16.516h478.968c9.121 0 16.516-7.395 16.516-16.516H66.065c-27.365 0-49.549-22.183-49.549-49.548z" opacity="1" data-original="#db4655"></path><path fill="#5055a0" d="M264.258 90.839H16.516L6 107.355l10.516 172.239h247.742z" opacity="1" data-original="#5055a0"></path><path fill="#3f3f8f" d="M16.516 90.839C7.395 90.839 0 98.233 0 107.355v172.239h16.516z" opacity="1" data-original="#3f3f8f"></path><path fill="#ffffff" d="M33.113 127.657c-4.565 0-8.298-3.698-8.298-8.258s3.653-8.258 8.218-8.258h.081c4.565 0 8.258 3.698 8.258 8.258s-3.695 8.258-8.259 8.258zM33.113 193.722c-4.565 0-8.298-3.698-8.298-8.258s3.653-8.258 8.218-8.258h.081c4.565 0 8.258 3.698 8.258 8.258s-3.695 8.258-8.259 8.258zM33.113 259.786c-4.565 0-8.298-3.698-8.298-8.258s3.653-8.258 8.218-8.258h.081c4.565 0 8.258 3.698 8.258 8.258s-3.695 8.258-8.259 8.258z" opacity="1" data-original="#ffffff"></path><path fill="#f2f2f6" d="M33.113 160.69c-4.565 0-8.298-3.698-8.298-8.258s3.653-8.258 8.218-8.258h.081a8.256 8.256 0 0 1 8.258 8.258 8.258 8.258 0 0 1-8.259 8.258zM33.113 226.754c-4.565 0-8.298-3.698-8.298-8.258s3.653-8.258 8.218-8.258h.081c4.565 0 8.258 3.698 8.258 8.258s-3.695 8.258-8.259 8.258z" opacity="1" data-original="#f2f2f6"></path><path fill="#ffffff" d="M231.306 127.657c-4.565 0-8.298-3.698-8.298-8.258s3.653-8.258 8.218-8.258h.081c4.565 0 8.258 3.698 8.258 8.258s-3.694 8.258-8.259 8.258zM231.306 193.722c-4.565 0-8.298-3.698-8.298-8.258s3.653-8.258 8.218-8.258h.081c4.565 0 8.258 3.698 8.258 8.258s-3.694 8.258-8.259 8.258zM231.306 259.786c-4.565 0-8.298-3.698-8.298-8.258s3.653-8.258 8.218-8.258h.081c4.565 0 8.258 3.698 8.258 8.258s-3.694 8.258-8.259 8.258z" opacity="1" data-original="#ffffff"></path><g fill="#f2f2f6"><path d="M231.306 160.69c-4.565 0-8.298-3.698-8.298-8.258s3.653-8.258 8.218-8.258h.081c4.565 0 8.258 3.698 8.258 8.258s-3.694 8.258-8.259 8.258zM231.306 226.754c-4.565 0-8.298-3.698-8.298-8.258s3.653-8.258 8.218-8.258h.081c4.565 0 8.258 3.698 8.258 8.258s-3.694 8.258-8.259 8.258zM82.661 127.657c-4.565 0-8.298-3.698-8.298-8.258s3.653-8.258 8.218-8.258h.081c4.565 0 8.258 3.698 8.258 8.258s-3.694 8.258-8.259 8.258zM82.661 193.722c-4.565 0-8.298-3.698-8.298-8.258s3.653-8.258 8.218-8.258h.081c4.565 0 8.258 3.698 8.258 8.258s-3.694 8.258-8.259 8.258zM82.661 259.786c-4.565 0-8.298-3.698-8.298-8.258s3.653-8.258 8.218-8.258h.081c4.565 0 8.258 3.698 8.258 8.258s-3.694 8.258-8.259 8.258z" fill="#f2f2f6" opacity="1" data-original="#f2f2f6"></path></g><path fill="#ffffff" d="M82.661 160.69c-4.565 0-8.298-3.698-8.298-8.258s3.653-8.258 8.218-8.258h.081a8.256 8.256 0 0 1 8.258 8.258 8.257 8.257 0 0 1-8.259 8.258zM82.661 226.754c-4.565 0-8.298-3.698-8.298-8.258s3.653-8.258 8.218-8.258h.081c4.565 0 8.258 3.698 8.258 8.258s-3.694 8.258-8.259 8.258zM57.887 144.173c-4.565 0-8.298-3.698-8.298-8.258s3.653-8.258 8.218-8.258h.081a8.256 8.256 0 0 1 8.258 8.258 8.257 8.257 0 0 1-8.259 8.258zM57.887 210.238c-4.565 0-8.298-3.698-8.298-8.258s3.653-8.258 8.218-8.258h.081c4.565 0 8.258 3.698 8.258 8.258s-3.694 8.258-8.259 8.258z" opacity="1" data-original="#ffffff"></path><path fill="#f2f2f6" d="M57.887 177.206c-4.565 0-8.298-3.698-8.298-8.258s3.653-8.258 8.218-8.258h.081c4.565 0 8.258 3.698 8.258 8.258s-3.694 8.258-8.259 8.258zM57.887 243.27c-4.565 0-8.298-3.698-8.298-8.258s3.653-8.258 8.218-8.258h.081c4.565 0 8.258 3.698 8.258 8.258s-3.694 8.258-8.259 8.258z" opacity="1" data-original="#f2f2f6"></path><path fill="#ffffff" d="M132.21 127.657c-4.565 0-8.298-3.698-8.298-8.258s3.653-8.258 8.218-8.258h.081c4.565 0 8.258 3.698 8.258 8.258s-3.695 8.258-8.259 8.258zM132.21 193.722c-4.565 0-8.298-3.698-8.298-8.258s3.653-8.258 8.218-8.258h.081c4.565 0 8.258 3.698 8.258 8.258s-3.695 8.258-8.259 8.258zM132.21 259.786c-4.565 0-8.298-3.698-8.298-8.258s3.653-8.258 8.218-8.258h.081c4.565 0 8.258 3.698 8.258 8.258s-3.695 8.258-8.259 8.258z" opacity="1" data-original="#ffffff"></path><g fill="#f2f2f6"><path d="M132.21 160.69c-4.565 0-8.298-3.698-8.298-8.258s3.653-8.258 8.218-8.258h.081a8.256 8.256 0 0 1 8.258 8.258 8.258 8.258 0 0 1-8.259 8.258zM132.21 226.754c-4.565 0-8.298-3.698-8.298-8.258s3.653-8.258 8.218-8.258h.081c4.565 0 8.258 3.698 8.258 8.258s-3.695 8.258-8.259 8.258zM107.435 144.173c-4.565 0-8.298-3.698-8.298-8.258s3.653-8.258 8.218-8.258h.081a8.256 8.256 0 0 1 8.258 8.258 8.256 8.256 0 0 1-8.259 8.258zM107.435 210.238c-4.565 0-8.298-3.698-8.298-8.258s3.653-8.258 8.218-8.258h.081c4.565 0 8.258 3.698 8.258 8.258s-3.694 8.258-8.259 8.258z" fill="#f2f2f6" opacity="1" data-original="#f2f2f6"></path></g><path fill="#ffffff" d="M107.435 177.206c-4.565 0-8.298-3.698-8.298-8.258s3.653-8.258 8.218-8.258h.081c4.565 0 8.258 3.698 8.258 8.258s-3.694 8.258-8.259 8.258zM107.435 243.27c-4.565 0-8.298-3.698-8.298-8.258s3.653-8.258 8.218-8.258h.081c4.565 0 8.258 3.698 8.258 8.258s-3.694 8.258-8.259 8.258z" opacity="1" data-original="#ffffff"></path><path fill="#f2f2f6" d="M181.677 127.657c-4.565 0-8.298-3.698-8.298-8.258s3.653-8.258 8.218-8.258h.081c4.565 0 8.258 3.698 8.258 8.258s-3.694 8.258-8.259 8.258zM181.677 193.722c-4.565 0-8.298-3.698-8.298-8.258s3.653-8.258 8.218-8.258h.081c4.565 0 8.258 3.698 8.258 8.258s-3.694 8.258-8.259 8.258zM181.677 259.786c-4.565 0-8.298-3.698-8.298-8.258s3.653-8.258 8.218-8.258h.081c4.565 0 8.258 3.698 8.258 8.258s-3.694 8.258-8.259 8.258z" opacity="1" data-original="#f2f2f6"></path><path fill="#ffffff" d="M181.677 160.69c-4.565 0-8.298-3.698-8.298-8.258s3.653-8.258 8.218-8.258h.081a8.256 8.256 0 0 1 8.258 8.258 8.257 8.257 0 0 1-8.259 8.258zM181.677 226.754c-4.565 0-8.298-3.698-8.298-8.258s3.653-8.258 8.218-8.258h.081c4.565 0 8.258 3.698 8.258 8.258s-3.694 8.258-8.259 8.258zM156.903 144.173c-4.565 0-8.298-3.698-8.298-8.258s3.653-8.258 8.218-8.258h.081a8.256 8.256 0 0 1 8.258 8.258 8.257 8.257 0 0 1-8.259 8.258zM156.903 210.238c-4.565 0-8.298-3.698-8.298-8.258s3.653-8.258 8.218-8.258h.081c4.565 0 8.258 3.698 8.258 8.258s-3.694 8.258-8.259 8.258z" opacity="1" data-original="#ffffff"></path><path fill="#f2f2f6" d="M156.903 177.206c-4.565 0-8.298-3.698-8.298-8.258s3.653-8.258 8.218-8.258h.081c4.565 0 8.258 3.698 8.258 8.258s-3.694 8.258-8.259 8.258zM156.903 243.27c-4.565 0-8.298-3.698-8.298-8.258s3.653-8.258 8.218-8.258h.081c4.565 0 8.258 3.698 8.258 8.258s-3.694 8.258-8.259 8.258zM206.532 144.173c-4.565 0-8.298-3.698-8.298-8.258s3.653-8.258 8.218-8.258h.081a8.256 8.256 0 0 1 8.258 8.258 8.257 8.257 0 0 1-8.259 8.258zM206.532 210.238c-4.565 0-8.298-3.698-8.298-8.258s3.653-8.258 8.218-8.258h.081c4.565 0 8.258 3.698 8.258 8.258s-3.694 8.258-8.259 8.258z" opacity="1" data-original="#f2f2f6"></path><path fill="#ffffff" d="M206.532 177.206c-4.565 0-8.298-3.698-8.298-8.258s3.653-8.258 8.218-8.258h.081c4.565 0 8.258 3.698 8.258 8.258s-3.694 8.258-8.259 8.258zM206.532 243.27c-4.565 0-8.298-3.698-8.298-8.258s3.653-8.258 8.218-8.258h.081c4.565 0 8.258 3.698 8.258 8.258s-3.694 8.258-8.259 8.258z" opacity="1" data-original="#ffffff"></path><path fill="#f2f2f6" d="m3 360.333 17.26 13.639H512v-47.189H16.516z" opacity="1" data-original="#f2f2f6"></path><path fill="#e1e1e6" d="M0 326.783v47.189h20.26a49.372 49.372 0 0 1-3.743-18.876v-28.314H0z" opacity="1" data-original="#e1e1e6"></path></g></svg>