<svg xmlns="http://www.w3.org/2000/svg" width="64" height="64" viewBox="0 0 512 512" xml:space="preserve" class="hovered-paths"><path d="M473.655 88.276H38.345C17.167 88.276 0 105.443 0 126.621v63.539h512v-63.539c0-21.178-17.167-38.345-38.345-38.345" fill="#82afff" data-original="#82afff"/><path d="M0 385.379c0 21.177 17.167 38.345 38.345 38.345h435.31c21.177 0 38.345-17.167 38.345-38.345V321.84H0z" fill="#73af00" data-original="#73af00" class="hovered-path"/><path d="M0 204.1h512v103.79H0z" fill="#f5f5f5" data-original="#f5f5f5"/><path d="M0 200.092v4.01h512v-13.943H0zm0 111.816v9.933h512v-13.943H0z" fill="#ff4b55" data-original="#ff4b55"/><path d="M113.491 172.071c-18.072 0-32.721-14.614-32.721-32.621 0-18.073 14.648-32.753 32.721-32.753l.206.001c1.064.014 1.437-1.399.499-1.902a38.8 38.8 0 0 0-18.668-4.622c-21.624.154-39.189 18.073-38.959 39.697.226 21.401 17.722 38.724 39.242 38.724a38.9 38.9 0 0 0 18.417-4.627c.935-.501.557-1.914-.503-1.899q-.12.003-.234.002m25.622-9.021-1.461 4.382-4.619.035c-.598.004-.846.768-.365 1.123l3.716 2.744-1.394 4.404c-.18.57.469 1.042.956.694l3.758-2.686 3.758 2.686c.487.348 1.135-.124.956-.694l-1.394-4.404 3.715-2.744c.481-.355.233-1.119-.365-1.123l-4.619-.035-1.461-4.382c-.189-.567-.991-.567-1.181 0m32.543 0-1.461 4.382-4.619.035c-.598.004-.846.768-.365 1.123l3.715 2.744-1.394 4.404c-.18.57.469 1.042.956.694l3.758-2.686 3.758 2.686c.487.348 1.135-.124.956-.694l-1.394-4.404 3.715-2.744c.481-.355.233-1.119-.365-1.123l-4.619-.035-1.461-4.382c-.189-.567-.992-.567-1.18 0m32.542 0-1.461 4.382-4.619.035c-.598.004-.846.768-.365 1.123l3.716 2.744-1.394 4.404c-.18.57.469 1.042.956.694l3.758-2.686 3.758 2.686c.487.348 1.135-.124.956-.694l-1.394-4.404 3.715-2.744c.481-.355.233-1.119-.365-1.123l-4.619-.035-1.461-4.382c-.189-.567-.992-.567-1.181 0m32.542 0-1.461 4.382-4.619.035c-.598.004-.846.768-.365 1.123l3.715 2.744-1.394 4.404c-.18.57.469 1.042.956.694l3.758-2.686 3.758 2.686c.487.348 1.135-.124.956-.694l-1.394-4.404 3.715-2.744c.481-.355.233-1.119-.365-1.123l-4.619-.035-1.461-4.382c-.188-.567-.991-.567-1.18 0m32.543 0-1.461 4.382-4.619.035c-.598.004-.846.768-.365 1.123l3.716 2.744-1.394 4.404c-.18.57.469 1.042.956.694l3.758-2.686 3.758 2.686c.487.348 1.135-.124.956-.694l-1.394-4.404 3.716-2.744c.481-.355.233-1.119-.365-1.123l-4.619-.035-1.461-4.382c-.191-.567-.993-.567-1.182 0m-97.627-30.372-1.461 4.382-4.619.035c-.598.004-.846.768-.365 1.123l3.715 2.744-1.394 4.404c-.18.57.469 1.042.956.694l3.758-2.686 3.758 2.686c.487.348 1.135-.124.956-.694l-1.394-4.404 3.715-2.744c.481-.355.233-1.119-.365-1.123l-4.619-.035-1.461-4.382c-.189-.569-.992-.569-1.18 0m32.542 0-1.461 4.382-4.619.035c-.598.004-.846.768-.365 1.123l3.716 2.744-1.394 4.404c-.18.57.469 1.042.956.694l3.758-2.686 3.758 2.686c.487.348 1.135-.124.956-.694l-1.394-4.404 3.715-2.744c.481-.355.233-1.119-.365-1.123l-4.619-.035-1.461-4.382c-.189-.569-.992-.569-1.181 0m32.542 0-1.461 4.382-4.619.035c-.598.004-.846.768-.365 1.123l3.715 2.744-1.394 4.404c-.18.57.469 1.042.956.694l3.758-2.686 3.758 2.686c.487.348 1.135-.124.956-.694l-1.394-4.404 3.715-2.744c.481-.355.233-1.119-.365-1.123l-4.619-.035-1.461-4.382c-.188-.569-.991-.569-1.18 0m32.543 0-1.461 4.382-4.619.035c-.598.004-.846.768-.365 1.123l3.716 2.744-1.394 4.404c-.18.57.469 1.042.956.694l3.758-2.686 3.758 2.686c.487.348 1.135-.124.956-.694l-1.394-4.404 3.716-2.744c.481-.355.233-1.119-.365-1.123l-4.619-.035-1.461-4.382c-.191-.569-.993-.569-1.182 0" fill="#f5f5f5" data-original="#f5f5f5"/><path d="m204.198 163.05-1.461 4.382-4.619.035c-.598.004-.846.768-.365 1.123l3.716 2.744-1.394 4.404c-.18.57.469 1.042.956.694l3.758-2.686 3.758 2.686c.487.348 1.135-.124.956-.694l-1.394-4.404 3.715-2.744c.481-.355.233-1.119-.365-1.123l-4.619-.035-1.461-4.382c-.189-.567-.992-.567-1.181 0m0-60.746-1.461 4.382-4.619.035c-.598.004-.846.768-.365 1.123l3.716 2.744-1.394 4.404c-.18.57.469 1.042.956.694l3.758-2.686 3.758 2.686c.487.348 1.135-.124.956-.694l-1.394-4.404 3.715-2.744c.481-.355.233-1.119-.365-1.123l-4.619-.035-1.461-4.382c-.189-.567-.992-.567-1.181 0m32.542 60.746-1.461 4.382-4.619.035c-.598.004-.846.768-.365 1.123l3.715 2.744-1.394 4.404c-.18.57.469 1.042.956.694l3.758-2.686 3.758 2.686c.487.348 1.135-.124.956-.694l-1.394-4.404 3.715-2.744c.481-.355.233-1.119-.365-1.123l-4.619-.035-1.461-4.382c-.188-.567-.991-.567-1.18 0m32.543 0-1.461 4.382-4.619.035c-.598.004-.846.768-.365 1.123l3.716 2.744-1.394 4.404c-.18.57.469 1.042.956.694l3.758-2.686 3.758 2.686c.487.348 1.135-.124.956-.694l-1.394-4.404 3.716-2.744c.481-.355.233-1.119-.365-1.123l-4.619-.035-1.461-4.382c-.191-.567-.993-.567-1.182 0m-32.543-60.746-1.461 4.382-4.619.035c-.598.004-.846.768-.365 1.123l3.715 2.744-1.394 4.404c-.18.57.469 1.042.956.694L237.33 113l3.758 2.686c.487.348 1.135-.124.956-.694l-1.394-4.404 3.715-2.744c.481-.355.233-1.119-.365-1.123l-4.619-.035-1.461-4.382c-.188-.567-.991-.567-1.18 0m32.543 0-1.461 4.382-4.619.035c-.598.004-.846.768-.365 1.123l3.716 2.744-1.394 4.404c-.18.57.469 1.042.956.694l3.758-2.686 3.758 2.686c.487.348 1.135-.124.956-.694l-1.394-4.404 3.716-2.744c.481-.355.233-1.119-.365-1.123l-4.619-.035-1.461-4.382c-.191-.567-.993-.567-1.182 0" fill="#f5f5f5" data-original="#f5f5f5"/></svg>