<svg width="64" height="64" viewBox="0 0 24 24" fill="none" xmlns="http://www.w3.org/2000/svg">
<g clip-path="url(#clip0_1_2)">
<path d="M20.08 4.86H3.92C2.81543 4.86 1.92 5.75543 1.92 6.86V17.14C1.92 18.2446 2.81543 19.14 3.92 19.14H20.08C21.1846 19.14 22.08 18.2446 22.08 17.14V6.86C22.08 5.75543 21.1846 4.86 20.08 4.86Z" fill="#880E4F"/>
<path d="M9.59867 15.8958C10.8655 16.4589 13.1346 16.4591 14.4013 15.8957C14.5579 15.8261 14.7028 15.762 14.8291 15.704C15.8077 15.255 16.3205 15.0366 16.5814 14.1487C16.7002 13.7447 16.397 12.4897 16.213 11.8173C15.9921 11.0101 15.8556 9.87312 15.9039 9.51066C15.9106 9.46013 15.9324 9.3878 15.963 9.30398C16.1668 8.74657 16.1058 8.11508 15.703 7.67919V7.67919C15.2766 7.21782 14.6016 7.15036 13.977 7.21792C13.6586 7.25237 13.3741 7.21367 13.1084 7.13042C12.3784 6.90177 11.6216 6.90176 10.8916 7.13029C10.6257 7.21353 10.3411 7.2522 10.0224 7.2177C9.39793 7.15008 8.72305 7.21772 8.29674 7.67905V7.67905C7.89387 8.11502 7.83285 8.74662 8.03664 9.30416C8.06725 9.3879 8.08894 9.46017 8.09568 9.51066C8.14398 9.87312 8.00748 11.0101 7.78656 11.8173C7.6026 12.4893 7.29936 13.7447 7.41822 14.1487C7.67946 15.0366 8.19186 15.255 9.17046 15.704C9.29688 15.762 9.442 15.8261 9.59867 15.8958Z" fill="#90CAF9"/>
<path d="M16.5814 14.1487C16.3201 15.0366 15.8073 15.255 14.8291 15.704C14.7025 15.7621 14.5571 15.8264 14.4 15.8962C13.1337 16.4593 10.8664 16.4592 9.60006 15.8962C9.44298 15.8264 9.29751 15.7621 9.17088 15.704C8.1927 15.255 7.67988 15.0366 7.41864 14.1487C7.41105 14.1229 7.40518 14.0936 7.40089 14.0613C7.27884 13.1405 8.2711 12.496 9.19989 12.496H14.8011C15.7295 12.496 16.7202 13.1398 16.5993 14.0602C16.595 14.093 16.589 14.1226 16.5814 14.1487Z" fill="#283593"/>
<path d="M12 17.4579C11.9744 17.4579 11.9504 17.4453 11.9357 17.4247C11.5229 16.8363 10.304 16.2949 9.49764 15.9367C9.36702 15.8787 9.24606 15.8249 9.13812 15.7754L9.07638 15.7468C8.13012 15.313 7.60932 15.074 7.34346 14.1706C7.212 13.7228 7.55682 12.3612 7.71138 11.7967C7.9323 10.9891 8.06502 9.87018 8.0184 9.52116C7.99152 9.31788 7.67568 8.67276 7.5564 8.44134C7.54128 8.41194 7.54632 8.37666 7.56858 8.3523L8.9592 6.84744C8.98272 6.82182 9.02052 6.8151 9.0516 6.83064C10.367 7.48836 11.1373 7.00704 11.953 6.49716L11.9588 6.49338C11.984 6.47742 12.0164 6.47742 12.042 6.49338L12.0479 6.49716C12.8635 7.00704 13.6338 7.48836 14.9492 6.83064C14.9807 6.8151 15.0181 6.82182 15.0416 6.84744L16.4323 8.3523C16.4545 8.37666 16.4596 8.41194 16.4444 8.44134C16.3252 8.67276 16.0097 9.3183 15.9824 9.52116C15.9358 9.8706 16.0685 10.9891 16.2895 11.7967C16.444 12.3612 16.7888 13.7228 16.6574 14.1706C16.3915 15.0736 15.8707 15.313 14.9245 15.7468L14.8627 15.7754C14.7552 15.8249 14.6338 15.8787 14.5032 15.9367C13.6968 16.2949 12.478 16.8363 12.0651 17.4247C12.0496 17.4457 12.0256 17.4579 12 17.4579ZM8.35638 7.73024C7.97412 8.14392 7.91339 8.74232 8.10797 9.27089C8.14195 9.3632 8.16629 9.44366 8.1738 9.50016C8.2221 9.86346 8.08812 11.0138 7.86258 11.8379C7.61982 12.7249 7.39554 13.7921 7.49382 14.1265C7.7391 14.961 8.20782 15.176 9.14148 15.6044L9.20364 15.633C9.31074 15.6821 9.4317 15.7359 9.56148 15.7934C9.68425 15.848 9.8134 15.9054 9.94593 15.9654C11.0957 16.4867 12.9043 16.4868 14.0541 15.9655C14.1866 15.9054 14.3158 15.848 14.4385 15.7934C14.5683 15.7359 14.6893 15.6821 14.7964 15.633L14.8585 15.6044C15.7922 15.176 16.2609 14.9614 16.5062 14.1265C16.6045 13.7921 16.3802 12.7249 16.1374 11.8379C15.9119 11.0138 15.7779 9.86346 15.8262 9.50016C15.8337 9.44383 15.8579 9.36369 15.8917 9.27173C16.0861 8.7427 16.0255 8.1435 15.643 7.72957V7.72957C15.2406 7.2941 14.6055 7.22083 14.0172 7.2941C13.6839 7.33559 13.3874 7.29923 13.1111 7.21537C12.3795 6.99336 11.6204 6.99319 10.8889 7.21522C10.6128 7.29901 10.3166 7.33541 9.98377 7.29415C9.39481 7.22113 8.75916 7.29438 8.35638 7.73024V7.73024Z" fill="#FFB300"/>
<path d="M14.2596 10.774C14.8652 10.774 15.3562 10.283 15.3562 9.6774C15.3562 9.07175 14.8652 8.58078 14.2596 8.58078C13.654 8.58078 13.163 9.07175 13.163 9.6774C13.163 10.283 13.654 10.774 14.2596 10.774Z" fill="#FFB300"/>
<path d="M14.6246 15.2642V15.2642C14.6246 15.318 14.58 15.36 14.5263 15.36H10.1789C10.1252 15.36 10.0806 15.318 10.0806 15.2642V15.2642C10.0806 14.1248 11.0978 13.2012 12.3524 13.2012C13.6069 13.2012 14.6246 14.1248 14.6246 15.2642Z" fill="#81C784"/>
<path d="M12.8484 12.0252C12.5306 12.0252 12.273 12.2828 12.273 12.6006V14.8434C12.273 14.9014 12.32 14.9484 12.378 14.9484V14.9484C12.436 14.9484 12.483 14.9014 12.483 14.8434V12.3654C12.483 12.2935 12.5413 12.2352 12.6132 12.2352V12.2352C12.6851 12.2352 12.7434 12.2935 12.7434 12.3654V14.8434C12.7434 14.9014 12.7904 14.9484 12.8484 14.9484V14.9484C12.9064 14.9484 12.9534 14.9014 12.9534 14.8434V12.3654C12.9534 12.2935 13.0117 12.2352 13.0836 12.2352V12.2352C13.1555 12.2352 13.2138 12.2935 13.2138 12.3654V14.8434C13.2138 14.9014 13.2608 14.9484 13.3188 14.9484V14.9484C13.3768 14.9484 13.4238 14.9014 13.4238 14.8434V12.6006C13.4238 12.2828 13.1662 12.0252 12.8484 12.0252V12.0252Z" fill="#FFB300"/>
<path d="M10.5409 10.9241C10.546 10.7812 10.6636 10.6682 10.8066 10.6682V10.6682C10.9538 10.6682 11.0727 10.7875 11.0642 10.9344C11.057 11.0577 11.0442 11.2076 11.021 11.3473C10.9689 11.6606 10.9164 12.1831 10.9164 12.3398C10.9164 12.4232 10.9312 12.6399 10.945 12.8242C10.9598 13.0224 11.0058 13.2168 11.0808 13.4008C11.1814 13.6475 11.3227 13.9881 11.3864 14.1155C11.4589 14.2603 11.7323 14.7319 11.8931 15.0072C11.9461 15.0981 11.8805 15.2122 11.7753 15.2122V15.2122C11.7283 15.2122 11.6848 15.1881 11.6601 15.148C11.5176 14.9159 11.0234 14.1031 10.7311 13.523C10.601 13.2646 10.5201 12.977 10.5143 12.6878C10.5064 12.2875 10.5152 11.6485 10.5409 10.9241Z" fill="#6D4C41"/>
<path d="M12.1949 10.7005C12.215 10.719 12.1974 10.7518 12.1709 10.745C12.0004 10.7001 11.672 10.6161 11.5951 10.6161C11.5345 10.6161 11.3686 10.6512 11.2399 10.6808C11.1289 10.7062 11.0147 10.7149 10.9015 10.7036L10.6183 10.6754C10.5742 10.671 10.5331 10.6515 10.5017 10.6202V10.6202C10.4658 10.5842 10.417 10.564 10.3662 10.564H10.238C10.2024 10.564 10.167 10.5692 10.1329 10.5794L9.80646 10.6773C9.73439 10.6989 9.66186 10.645 9.66186 10.5697V10.5697C9.66186 10.5335 9.67936 10.4994 9.70886 10.4783L9.98762 10.279C10.0134 10.2606 10.0443 10.2507 10.076 10.2507H10.1343C10.2639 10.2507 10.3172 10.0845 10.2118 10.0091V10.0091C10.1938 9.99621 10.1728 9.98802 10.1508 9.98528L9.98227 9.96428C9.84093 9.94666 9.69677 9.96564 9.56941 10.0294C9.4653 10.0815 9.34854 10.1465 9.29646 10.1986C9.27857 10.2165 9.25457 10.239 9.22707 10.2639C9.12945 10.3525 8.98229 10.2528 9.02397 10.1278V10.1278C9.03134 10.1057 9.04438 10.086 9.06199 10.0708C9.15585 9.98948 9.46913 9.7206 9.5577 9.67614C9.64105 9.63463 9.8901 9.55977 9.98776 9.53109C10.0143 9.52329 10.0417 9.51948 10.0694 9.51948H10.3966C10.4672 9.51948 10.5162 9.4149 10.4456 9.4149V9.4149C10.4209 9.4149 10.2693 9.40339 10.1156 9.39119C9.8872 9.37306 9.6582 9.41735 9.45312 9.51948V9.51948C9.37962 9.55602 9.17802 9.69546 9.0642 9.77568C9.04572 9.7887 9.02262 9.76728 9.03438 9.74796L9.14388 9.56558C9.24445 9.39807 9.38325 9.25675 9.54893 9.15318V9.15318C9.65881 9.08449 9.77863 9.03299 9.90502 9.00435C10.0299 8.97605 10.1802 8.94492 10.2373 8.94492C10.2799 8.94492 10.3573 8.94492 10.4341 8.94492C10.4892 8.94492 10.5068 8.87058 10.4575 8.84588V8.84588C10.4502 8.84224 10.4422 8.84034 10.4341 8.84034H10.0561C10.038 8.84034 10.0201 8.84456 10.0039 8.85266L9.9208 8.89415C9.83624 8.93638 9.75045 8.83919 9.80286 8.76053V8.76053C9.81359 8.74443 9.82911 8.73211 9.84723 8.72531L10.1586 8.60859C10.2105 8.58913 10.2658 8.58024 10.3212 8.58244L10.5991 8.59351C10.6987 8.59747 10.7938 8.48569 10.7051 8.44008V8.44008C10.6978 8.43629 10.6881 8.43156 10.6767 8.42613C10.5727 8.37665 10.5923 8.18849 10.703 8.22V8.22C10.7243 8.22604 10.7755 8.24285 10.8392 8.27415C10.9939 8.35007 11.2239 8.32698 11.3497 8.20927V8.20927C11.4161 8.14723 11.4633 8.15128 11.5541 8.15305L11.8458 8.15876C11.8561 8.15896 11.8651 8.16581 11.868 8.17569V8.17569C11.8714 8.18728 11.8656 8.19956 11.8545 8.20434C11.8191 8.21962 11.7396 8.25475 11.6528 8.29884C11.4945 8.37929 11.5502 8.52394 11.7277 8.52381C11.747 8.5238 11.7638 8.52378 11.7776 8.52375C11.8043 8.52371 11.8299 8.53359 11.8497 8.5515V8.5515C11.9312 8.62532 11.8617 8.75925 11.7544 8.73521L11.6938 8.72162C11.6786 8.7182 11.6628 8.71771 11.6474 8.72017L11.3854 8.76203C11.3532 8.76717 11.3254 8.78719 11.3102 8.81604V8.81604C11.2738 8.88529 11.3246 8.9683 11.4028 8.96749L11.8263 8.96309C11.8604 8.96274 11.8944 8.96723 11.9271 8.97709C12.0135 9.00315 12.1889 9.05886 12.2503 9.09906C12.3079 9.13686 12.5998 9.45144 12.7724 9.6396C12.7997 9.66942 12.7657 9.71478 12.7291 9.69714L12.2066 9.44304C12.2066 9.44304 11.9853 9.34619 11.5842 9.31191C11.5718 9.31085 11.5593 9.3143 11.5493 9.32155V9.32155C11.5105 9.34938 11.5259 9.41052 11.5731 9.41702C11.7189 9.43707 11.9387 9.4692 11.9828 9.4863C12.0504 9.51234 12.3679 9.63876 12.3961 9.65178C12.4221 9.66396 12.824 10.0331 13.0387 10.3813C13.0529 10.4044 13.0269 10.4309 13.0034 10.4179C12.8165 10.3129 12.4112 10.0806 12.3259 10.0609C12.2234 10.0369 11.8971 9.95838 11.8513 9.9609C11.819 9.96238 11.6089 9.96512 11.4882 9.9666C11.4323 9.96729 11.3776 9.98175 11.3286 10.0088L11.1624 10.1005C11.1409 10.1123 11.1289 10.136 11.132 10.1603V10.1603C11.1354 10.1867 11.1556 10.2077 11.1819 10.2117C11.3208 10.2333 11.7409 10.2997 11.7644 10.3158C11.7858 10.3301 12.0571 10.5754 12.1949 10.7005Z" fill="#43A047"/>
</g>
<defs>
<clipPath id="clip0_1_2">
<rect width="24" height="24" fill="white"/>
</clipPath>
</defs>
</svg>
