<svg width="64" height="24" viewBox="0 0 64 24" fill="none" xmlns="http://www.w3.org/2000/svg"><g clip-path="url(#a)"><path d="M13.983 10.891H8.49l-.418-2.507h23.582v2.507h-.637V8.976H13.784zM7.97 7.813h23.678V5.975H7.663zm14.813 6.164h8.87v-1.324h-8.87zM7.432 5.383h5.611l-1.061-1.838h19.036v1.838h.636V2.925H5.694zm33.874-2.458H32.35v3.693h8.955zM9.78 17.163c.147.22.416.476 1.31.718.434.106.916.212 1.583.36h9.495v-1.303H9.653q.05.12.122.227zm-.543-1.991h12.935V11.48H8.588zM22.78 20.32c3.312.649 6.552 1.248 8.876 1.611v-6.17H22.78zm19.135-9.438h13.6l.62-3.693h-14.22zm0-6.807v1.31h14.623l.918-1.305zM64 0l-4.31 6.05c-.472 2.572-1.708 9.198-1.847 9.842-.406 1.855-.6 2.982-4.256 3.848C48.712 20.888 37.59 23.128 32 24.002c-5.595-.872-16.712-3.114-21.59-4.249-3.655-.866-3.849-1.993-4.255-3.847-.14-.642-1.375-7.27-1.848-9.842L-.002.014zm-3.398 1.134h-57.2L6.798 5.97c.849 5.024 1.375 8.254 1.593 9.379.38 1.958.445 2.804 2.469 3.348 4.041.946 15.753 3.349 21.135 4.16 5.382-.81 17.092-3.203 21.137-4.16 2.032-.544 2.099-1.39 2.47-3.348.212-1.135.742-4.35 1.593-9.379zm-28.25 12.84h.636v-1.86H49.91a81 81 0 0 1-.263 1.865h5.344l.426-2.5H32.35zm0 2.408h22.19l.36-1.83h-22.55zm8.954-7.996H32.35v1.323h8.955zM32.35 16.93h22.013q-.046.12-.12.227c-.146.22-.412.49-1.312.713-3.988.987-14.94 3.15-20.58 4.069zm.636 4.27c1.015-.19 3.497-.613 4.38-.781 9.006-1.713 10.551-1.974 11.302-2.855h-15.68z" fill="#000"/></g><defs><clipPath id="a"><path fill="#fff" d="M0 0h64v24H0z"/></clipPath></defs></svg>