<svg width="64" height="57" viewBox="0 0 64 57" fill="none" xmlns="http://www.w3.org/2000/svg"><g clip-path="url(#a)"><path fill-rule="evenodd" clip-rule="evenodd" d="M35.736 50.437c-5.905 0-11.234-2.38-15.156-6.242h6.092s17.509-31.182 17.57-31.306c.085-.127.042-.21-.08-.21h-7.145c-.145 0-.166.043-.206.105-.042.062-9.871 17.365-9.871 17.365H14.097a21 21 0 0 1-.06-1.65c0-12.105 9.703-21.937 21.7-21.937 6.11 0 11.645 2.568 15.589 6.702-1.712 2.922-9.395 16.112-10.427 18.032-.599-1.4-3.366-1.127-4.79-1.15-.622 1.044-3.53 6.598-3.53 6.598s1.607-.02 3.053 0c1.405.023 1.571 1.502 1.014 2.442-.56.94-2.853 5.007-2.853 5.007h7.374s9.045-15.966 14.186-25.044a21.85 21.85 0 0 1 2.082 9.35c0 12.108-9.723 21.937-21.7 21.937M15.626 36.744h7.494l-3.615 6.325a22.8 22.8 0 0 1-3.88-6.325M35.735.05C20.187.05 7.594 12.785 7.594 28.501c0 .563.018 1.104.04 1.648H3.959c-.206 0-.31.125-.393.273-.062.146-3.325 5.948-3.408 6.094-.061.146-.061.229.105.229H8.79c3.489 11.687 14.228 20.204 26.945 20.204 15.55 0 28.144-12.733 28.144-28.448 0-15.718-12.594-28.45-28.143-28.45" fill="#E6002D"/></g><defs><clipPath id="a"><path fill="#fff" d="M0 0h64v57H0z"/></clipPath></defs></svg>