<svg width="64" height="64" viewBox="0 0 64 64" fill="none" xmlns="http://www.w3.org/2000/svg"><g clip-path="url(#a)"><mask id="b" style="mask-type:luminance" maskUnits="userSpaceOnUse" x="9" y="12" width="45" height="40"><path d="M9.66 12.68h44.076v38.64H9.66z" fill="#fff"/></mask><g mask="url(#b)" fill="#000"><path d="M14.406 13.064c1.109-.28 2.26-.385 3.405-.385 1.426-.03 2.912.25 4.112 1.056.799.525 1.395 1.391 1.505 2.349.08.922-.054 1.923-.634 2.68-.651.848-1.845 1.128-2.85.854a1.1 1.1 0 0 1-.713-.592c.615-.501 1.23-1.069 1.535-1.819.207-.464.097-1.006-.122-1.446-.28-.556-.81-.958-1.394-1.147-.835-.275-1.737-.208-2.596-.11-1.09.147-2.2.543-2.966 1.36-.67.696-1.012 1.655-1.085 2.607-.025.372-.055.762.085 1.123.152.433.463.786.792 1.092.542.494 1.17.872 1.81 1.232 1.468.818 3.015 1.502 4.453 2.374.798.495 1.578 1.05 2.169 1.795.414.525.7 1.171.706 1.842.006.855-.152 1.715-.505 2.49-.463 1.026-1.244 1.88-2.163 2.514-1.572 1.075-3.466 1.618-5.35 1.77.044 0 .13 0 .171.007-.889.036-1.796.128-2.668-.123-.694-.189-1.346-.586-1.784-1.16a3.3 3.3 0 0 1-.64-1.671c-.085-1.33.158-2.728.908-3.85a3.64 3.64 0 0 1 2.528-1.593c.499-.068 1.072-.128 1.51.176.33.214.47.61.536.977-.852.299-1.668.787-2.23 1.507a3.6 3.6 0 0 0-.767 2.441c.08.568.512 1.044 1.03 1.257.579.256 1.23.195 1.84.092 1.291-.238 2.576-.769 3.508-1.721a3.98 3.98 0 0 0 1.122-2.984c-.024-.342-.171-.665-.366-.946-.39-.531-.944-.903-1.493-1.245-1.65-.97-3.46-1.642-5.086-2.655-.994-.616-1.962-1.367-2.534-2.41a3.74 3.74 0 0 1-.464-1.898c-.012-1.355.354-2.764 1.243-3.815.865-1.06 2.138-1.69 3.442-2.025"/><path d="M28.424 16.225c.481-.147.986-.305 1.498-.226q-.016.236-.06.464c-.311 1.336-.634 2.673-.95 4.01.803-.178 1.608-.343 2.418-.44.316-.018.676-.073.95.122a.4.4 0 0 1 .158.452c-.067.2-.213.366-.329.537-.25.335-.493.69-.78.995-.146.158-.353.225-.56.262-.84.158-1.675.36-2.504.567-.36 1.294-.712 2.594-1.023 3.906-.091.433-.207.86-.256 1.3-.018.305.024.646.238.878.213.214.548.183.81.098.67-.226 1.273-.616 1.87-.982.067-.806.207-1.612.536-2.356.506-1.196 1.377-2.252 2.498-2.917.658-.378 1.407-.653 2.174-.598.348.03.433.433.707.586.396.195.878-.043 1.268.158.28.214.255.617.243.928-.104 1.361-.64 2.654-.658 4.027.018.373.012.77.183 1.111.098.226.396.165.573.073.371-.207.652-.543.907-.878.128-.183.28-.354.335-.574.683-3.338 1.596-6.627 2.413-9.935.122-.531.268-1.062.329-1.605.616-.183 1.316-.25 1.906.043.44.22.616.75.561 1.214-.116 1.22-.53 2.393-.902 3.552-.274.854-.597 1.703-.755 2.588.89-.464 1.639-1.142 2.364-1.831q1.069-1.032 2.028-2.166c.415.097.866.207 1.17.53.226.22.2.592.042.849-.25.427-.62.762-.968 1.11a40 40 0 0 1-3.266 2.667c.165 1.319.47 2.63.95 3.875.44 1.111 1.03 2.203 1.926 3.009.64.585 1.469.97 2.34 1.037 1.462.086 3.003-.237 4.166-1.171.214-.165.403-.372.659-.458.207.622.06 1.349-.397 1.818-.566.592-1.37.873-2.156 1.044-1.066.207-2.169.256-3.241.085-1.237-.207-2.425-.799-3.296-1.702-.676-.66-1.194-1.465-1.602-2.319-.67-1.434-1.023-2.997-1.212-4.57-.195.537-.268 1.104-.341 1.665-.092.738-.116 1.477-.159 2.222-.024.427 0 .86-.085 1.287-.299.238-.683.323-1.042.409-.457.079-1 .116-1.377-.202-.323-.268-.353-.713-.353-1.098-.31.451-.683.891-1.17 1.16-.377.219-.852.146-1.224-.043-.47-.245-.762-.714-.969-1.178-.67.66-1.511 1.19-2.455 1.312-.719.104-1.511-.11-2.016-.653-.19-.195-.317-.433-.433-.677-.957.67-2.041 1.19-3.216 1.306-.58.036-1.207.042-1.724-.263-.476-.25-.756-.77-.805-1.294-.055-.573.06-1.14.153-1.708.237-1.33.554-2.643.883-3.955-.676.256-1.352.513-2.053.69-.256.06-.524.11-.786.06-.298-.078-.511-.329-.676-.573a4.3 4.3 0 0 1-.512-1.232c1.53-.55 3.07-1.05 4.612-1.581.268-.995.523-1.996.791-2.99.184-.836.817-1.6 1.652-1.819zm5.836 8.043c-.725.616-1.261 1.428-1.682 2.282-.28.629-.554 1.3-.487 2.002.018.293.213.585.512.641a1.53 1.53 0 0 0 1.164-.28c.566-.428.864-1.106 1.071-1.764.317-1.087.445-2.228.433-3.363a2 2 0 0 0-1.011.476z"/><path d="M49.447 22.87c.664-.354 1.425-.585 2.181-.506.664.061 1.334.33 1.779.842.335.39.286.946.244 1.428-.122 1.044-.853 1.935-1.773 2.393-.926.476-1.998.561-3.022.494-.036.475-.06 1.013.262 1.397.243.311.664.421 1.048.403a3 3 0 0 0 1.468-.348c.432-.238.786-.585 1.145-.915.366.213.665.586.695 1.025-.012.317-.292.53-.505.733-.945.78-2.17 1.257-3.4 1.195-.823-.024-1.657-.305-2.248-.897-.621-.616-.926-1.507-.957-2.374-.042-.964.269-1.922.793-2.727a6.46 6.46 0 0 1 2.308-2.149zm1.773.739c-.512.286-.901.744-1.23 1.22-.409.598-.75 1.252-.897 1.965a2.72 2.72 0 0 0 1.999-.8c.53-.537.956-1.244.95-2.025 0-.177.024-.378-.11-.513-.249-.06-.499.043-.718.159zm-27.414 14.25c.432-.172.95.225.87.689-.017.494-.675.77-1.047.445-.402-.286-.292-.988.177-1.135m-.012.103c-.39.153-.45.745-.104.977.323.268.86.024.902-.385.073-.42-.42-.787-.798-.592m-7.182-.012h2.699v.763c-.628-.006-1.256 0-1.883 0v.775h1.852v.775h-1.852v1.617h-.816zm5.257.006h.664v3.924h-.829v-2.66l-.365.384c-.177-.183-.36-.367-.537-.55.348-.371.713-.726 1.067-1.098m6.025-.006h3.058v.763c-.372-.006-.75 0-1.121 0v3.167h-.829v-3.167h-1.114v-.763zm4.953.006c.907-.012 1.809 0 2.716 0v.763h-1.888v.775h1.84v.781h-1.84v.83c.628.012 1.255-.018 1.882.018v.763c-.908 0-1.81.006-2.717 0v-3.918zm5.957-.006h.805q.782 1.966 1.584 3.924h-.902q-.154-.394-.317-.787h-1.529l-.31.787h-.896c.517-1.312 1.047-2.618 1.572-3.924zm.403 1.111c-.16.421-.33.848-.488 1.27h.975c-.14-.434-.317-.849-.481-1.27zm3.721-1.11h.951c.323.792.64 1.592.975 2.385.317-.8.652-1.593.968-2.392h.95v3.924h-.828c-.012-.72.012-1.447-.012-2.166-.274.732-.579 1.446-.871 2.166h-.432c-.293-.726-.592-1.447-.884-2.173-.006.726 0 1.453 0 2.173h-.81v-3.93z"/><path d="M23.77 38.09c.176 0 .353.024.53.061 0 .11.005.22.005.336-.036.012-.115.042-.158.055.06.116.122.232.177.354-.152-.122-.275-.268-.427-.39-.018.146-.042.286-.06.433-.086-.275-.068-.562-.068-.843zm.11.092v.287c.103 0 .212-.006.316-.006l.018-.202c-.097-.073-.22-.054-.335-.073zm8.21 8.568c.336-.354.848-.482 1.323-.458.469.024.932.116 1.37.275q-.089.347-.188.696c-.475-.068-.956-.153-1.431-.11-.415.03-.67.58-.415.91.384.329.938.396 1.292.78.28.317.255.787.207 1.184-.073.55-.494 1.007-1.011 1.171-.738.245-1.548.093-2.261-.17a29 29 0 0 1 .159-.702c.584.06 1.193.232 1.772.055.287-.079.403-.403.366-.677.012-.25-.25-.367-.433-.465-.408-.206-.914-.383-1.102-.835-.183-.556-.074-1.233.353-1.654m-21.906-.378c.542-.025 1.084.006 1.626 0v1.068h.542v-.544h.542v-.525h1.608v1.618h-.523c-.012.183-.03.366-.03.549h-.518v.55h.542v.537h.523v1.617c-.536-.006-1.078 0-1.614 0v-.526h-.542v-.543h-.543v1.075c-.542 0-1.084.006-1.626 0v-4.852zm4.867 0c.542-.05 1.085.018 1.627 0v4.857h-1.634v-4.857zm2.711 0c.438-.043.883-.019 1.328-.025.45 0 .908-.012 1.365.012v1.624h-1.621v1.63h1.62v1.616h-2.699v-.519q-.273-.01-.548-.03v-3.784h.542v-.518zm3.24-.006c.537-.043 1.079.03 1.615 0v1.074h.536v-.532q.275-.018.548-.018v-.543c.542 0 1.079.006 1.62.018v1.618h-.541v.543h-.543v.543h.549v.543h.536v1.617h-1.62v-.525c-.184 0-.366-.012-.549-.024v-.525h-.536v1.075h-1.62v-4.864zm7.147.006h.365c.006 1.617 0 3.24 0 4.857h-.36c-.005-1.617 0-3.24 0-4.857zm8.072.012h1.711c-.054.591-.036 1.184-.06 1.775-.05 1.02-.056 2.039-.098 3.064h-.981c.012-.28.024-.562.024-.848-.468.006-.937-.019-1.407.024-.122.275-.238.55-.366.818h-.98c.724-1.611 1.45-3.216 2.163-4.833zm.523.989c-.322.713-.633 1.434-.956 2.147h1.066c.042-.78.067-1.562.104-2.342-.073.06-.177.09-.214.188zm2.303-.99h.981c-.256 1.112-.524 2.216-.768 3.327-.036.226-.115.567.153.683.31.098.694.122.968-.085.256-.232.305-.598.384-.916.22-1 .481-1.995.683-3.002.329-.006.664 0 .992 0-.25 1.075-.493 2.148-.743 3.216-.128.525-.335 1.086-.798 1.404-.536.366-1.237.378-1.846.226-.341-.08-.67-.312-.767-.666-.098-.403-.019-.824.066-1.227.232-.982.458-1.97.683-2.953zm4.057 0h1.76c.348 0 .725.086.963.348.262.312.256.764.165 1.142-.098.378-.414.647-.724.854.17.129.358.275.407.495.091.47.012.994-.304 1.372-.335.428-.896.623-1.426.623h-1.95c.366-1.611.744-3.222 1.11-4.833m.78.843c-.079.385-.177.769-.256 1.16.299 0 .61.03.908-.031.335-.08.542-.44.5-.775a.32.32 0 0 0-.293-.342c-.286-.024-.572-.006-.853 0zm-.718 3.149c.34-.006.688.024 1.029-.019.34-.067.524-.445.512-.775a.36.36 0 0 0-.323-.378c-.31-.03-.628-.006-.939-.012q-.136.593-.274 1.178zm3.794-3.997h2.827c-.06.286-.128.573-.195.854-.622 0-1.242-.012-1.864 0-.066.385-.17.763-.243 1.141h1.45a10 10 0 0 1-.202.848h-1.45c-.085.379-.17.75-.261 1.124h1.857c-.06.286-.134.567-.188.854-.95.006-1.9 0-2.851 0 .371-1.612.736-3.223 1.108-4.84zm3.352 0c.535 0 1.077-.006 1.613.006.396.024.83.146 1.06.494.244.366.22.83.184 1.251a1.85 1.85 0 0 1-1.055 1.434c.134.55.256 1.105.39 1.654h-.98c-.11-.513-.214-1.025-.323-1.532h-.682c-.11.513-.232 1.025-.354 1.532h-.98c.37-1.611.736-3.228 1.114-4.84zm.791.842c-.128.537-.256 1.08-.377 1.617.353-.018.742.086 1.06-.122.304-.232.444-.647.401-1.02-.024-.176-.085-.396-.286-.445-.262-.054-.53-.024-.798-.03"/></g><path opacity=".25" d="M32 64c17.673 0 32-14.327 32-32S49.673 0 32 0 0 14.327 0 32s14.327 32 32 32" fill="#5F5F57"/></g><defs><clipPath id="a"><path fill="#fff" d="M0 0h64v64H0z"/></clipPath></defs></svg>