<svg width="64" height="53" viewBox="0 0 64 53" fill="none" xmlns="http://www.w3.org/2000/svg"><mask id="a" style="mask-type:luminance" maskUnits="userSpaceOnUse" x="0" y="0" width="64" height="53"><path d="M0 0h64v53H0z" fill="#fff"/></mask><g mask="url(#a)"><path d="M2.984 48.916a.72.72 0 0 0 .489.196.83.83 0 0 0 .397-.11c.741-.36 1.497-1.726 1.514-1.8.074-.217-.178-.413-.488-.665l-.035-.035c-.144-.108-.398-.091-.559.017-.126.075-.236.162-.362.235-.38.252-.777.505-1.191.866-.145.126-.236.36-.254.539a.5.5 0 0 0 .075.343c.052.035.343.36.414.414m53.139-10.38c-.091-.413-.449-1.096-.776-1.44a3.5 3.5 0 0 1-.541-.7c-.11-.179-.019-.127-.416-.613-.344-.414-.65-.379-.741-.379 0 0-.362-.017-.632.378-.11.145-.363.757-.363.757-.127.305-.236.396-.344.845-.108.43-.074.613-.017.844.034.234.161.252.253.196.091-.053.091-.108.379-.487.253-.323.577-.521.703-.521.506-.053 1.371 1.078 1.554 1.474.161.36.196 1.223.196 1.223 0 .035-.017.36.253.36.236 0 .324-.178.362-.252.035-.073.127-.235.18-.557.035-.36.052-.718-.053-1.135m-2.485 5.78c-.253-.126-.524-.035-.524-.035-.83.217-1.244 1.08-1.3 1.17 0 0-.126.234-.053.36.075.11.197.162.56.18.36.017 1.029-.074 1.208-.253.18-.16.236-.574.236-.574 0-.074.126-.718-.127-.845m-8.899-16.537c-.271-.538-.542-.882-.812-1.008a.6.6 0 0 0-.254-.052c-.178 0-.361.073-.414.178-.236.379-.017.648.218.97.108.162.236.323.344.54.324.648.49 1.348.76 2.754.017.125.108.143.126.143.074 0 .127-.074.162-.162.017-.016.558-1.979-.127-3.362m19.253 19.321c-.017.127-.108.218-.253.235a2.5 2.5 0 0 1-.506.053c-1.318 0-2.706-1.044-3.247-2.014-.721-1.314-1.319-2.088-2.383-2.467.108.217.235.414.378.613.092.109.163.235.237.344.344.575.83 1.422 1.082 2.266.235.792 1.083 1.383 1.86 1.87l.972.522c.197.091.306.235.289.361-.017.11-.053.196-.235.253l-.18.017h-.197c-1.75 0-3.16-.592-4.295-1.818-.344-.378-.685-.574-1.03-.574-.777.683-1.57 1.366-2.636 1.439-1.317-.217-2.418-.143-3.247.218-.144.052-.27.09-.415.143-.759.27-1.536.557-2.4.592-.472 0-1.065-.234-1.227-.7-.053-.197-.035-.379-.108-.613-.11-.414-.198-.845.034-1.24l.65-.97c0-.092-.074-.162-.161-.18-.092-.017-.197.035-.306.074-.108.035-.197.091-.289.091-.287-.017-.27-.287-.27-.287.035-.757.65-1.35 1.227-1.87.161-.144.323-.288.47-.449.162-.827.49-1.51 1.013-2.106a.23.23 0 0 0-.127-.143c-.197.035-.397.074-.594.108-.632.126-1.282.235-1.968.235-.904.47-2.147.613-2.492.378 0 0-.144-.107-.161-.234a.66.66 0 0 1 .052-.344 5.64 5.64 0 0 0 .973-4.245c-.016-.126-.073-.161-.143-.161-.11 0-.144.126-.162.196-.27 1.549-.703 2.68-1.41 3.759-.234.36-.885.504-1.514.63-.27.053-.507.091-.777.196-.144.053-.345.197-.345.415-.016.447.219.843.45 1.204l.036.035c.052.108 1.553 2.553 1.605 3.058.054.43-.143 1.762-.323 2.318-.052.197.036.218.053.218.035 0 .092-.017.162-.074.253-.178 1.138-1.53 1.209-1.944.074-.413-.053-.682-.18-.952l-1.767-3.49.017-.034c.091-.179.324-.287.65-.306h.036c.288 0 .54.092.776.197.11.035.236.09.345.126h.035l.017.035c.398 1.062.577 1.474 1.555 3.041.323.522.323 1.188 0 1.853a16 16 0 0 1-1.284 2.175c-.397.414-.939.448-1.463.487a2 2 0 0 0-.344.035h-.506c-1.535.809-3.142 1.349-4.8 1.871a2.4 2.4 0 0 1-.721.108c-.576 0-1.118-.196-1.497-.522-.416-.323-.669-.774-.904-1.205a5 5 0 0 0-.306-.521c-.126-.162-.344-.236-.65-.236-.108 0-.217 0-.305.018-.092 0-.18.017-.271.017-.144 0-.344-.016-.433-.16l-.16-.27c-.363-.613-.721-1.205-1.084-1.835a.5.5 0 0 1-.035-.45c.053-.125.162-.196.306-.234.686-.144 1.283-.27 1.912-.323.65-.052 1.139.11 1.515.54.288.323.506.7.72 1.062.398.665.324.865.956 1.44.018.017.362.27.76.304.594.035 1.606-.36 2.239-.665.397-.235.939-.631.939-1.188-.075-1.223-.992-2.105-1.752-2.645-1.19-.612-2.147-1.366-2.762-2.14-.288-.395-.433-.882-.559-1.331-.035-.109-.052-.217-.091-.323-.018-.073-.092-.09-.144-.09-.053 0-.127.017-.162.052-.306.27-.127.827 0 1.206l.053.16.017.053c.091.287.144.505-.035.665-.27.218-.633.323-1.138.323-.219 0-.432-.018-.651-.035-.126-.018-.235-.018-.344-.018a11 11 0 0 1-1.768-.27c-.65-.126-1.336-.269-2.039-.269-.161 0-.306 0-.45.017-.362.018-.777.09-1.209.144-.558.09-1.156.179-1.68.179-.886 0-1.444-.27-1.698-.827-.558-1.405-.27-3.075-.035-4.298 0-.127-.16-.179-.235-.196-.036-.018-.053-.018-.075-.018a.18.18 0 0 0-.178.126c-.162.593-.253 1.223-.344 1.853-.11.774-.236 1.583-.49 2.34-.379 1.153-1.335 2.61-2.635 3.258-1.012.522-2.165.792-3.772.9-2.165.035-4.835.361-6.407 2.592q-.121.192-.161.414c-.018.073-.018.144.016.178.053.074.162.053.236-.017 1.48-1.654 3.501-2.501 6.01-2.501h.416c2.02 0 4.547-.27 6.1-2.375.38-.43.957-1.384.957-1.384l.035-.053.886.666-.017.035c0 .018-.38.97-.615 1.405-.236.47-.886 1.618-1.624 2.032-.18.09-.398.216-.634.343-.432.217-.955.505-1.479.792-.432.252-.973.377-1.536.377a3.6 3.6 0 0 1-.973-.125c-.595-.109-1.354-.252-2.057-.252-.576 0-1.03.09-1.427.269-.306.196-.615.47-.903.74-.179.178-.38.342-.559.504-.432.343-1.335.936-2.274.883-.197-.018-.397-.074-.576-.109-.218-.053-.432-.108-.632-.108a.67.67 0 0 0-.542.234c-.253.235-.433.54-.594.845-.27.447-.542.917-1.047 1.152-.288.161-.615.235-.992.235-.375 0-.812-.091-1.192-.18a5 5 0 0 0-.867-.143H2.71l.017-.108c.018-.127.053-.235.075-.36.161-.793.344-1.602.868-2.215l.016-.017h.019c.344-.035.703-.11.99-.362.363-.322.651-.738.921-1.187l.018-.017c.162-.11.345-.197.507-.305.685-.396 1.388-.81 1.823-1.493q.236-.526.45-1.06c.236-.613.45-1.136.632-1.332a.58.58 0 0 1 .38-.18c.074 0 .18-.016.345-.016.305-.018.742-.035 1.139-.09.253-.036 1.588-.506 2.256-1.115a.76.76 0 0 0 .18-.757c-.018-.09-.092-.252-.18-.448-.196-.487-.506-1.24-.632-1.854-.053-.269-.091-.935-.11-1.618q-.019-.63-.073-1.258c-.018-.195-.091-.195-.127-.195-.017 0-.052 0-.091.016-.868.218-1.768.45-2.724.45a4.4 4.4 0 0 1-.868-.075c-1.607-.195-3.54-1.256-4.242-3.13-.542-1.423-.489-3.616.685-4.895.886-1.078 1.95-1.96 2.998-2.823.197-.16.415-.344.615-.504.218-.18.306-.305.288-.487a.74.74 0 0 0-.506-.592c-.253-.074-.541-.074-.776-.074h-.507c-.38 0-.777-.017-1.174-.178l-.161-.053c-1.21-.557-2.31-1.905-2.475-3.219-.035-.631.074-1.187.398-1.692.867.469 1.623 1.223 2.618 1.492.38.092.759.144 1.156.235.053.017.162.017.235.035l.11.017c.615.144 2.274.557 3.016 1.366.74.81.811 2.303.16 3.185-.558.757-1.387 1.457-2.256 2.175q-.818.666-1.57 1.405c-1.03 1.026-1.41 2.34-1.048 3.632.38 1.152 1.536 2.014 2.798 2.106h.126c1.698 0 3.016-.775 4.404-1.584a7 7 0 0 0 .38-.234c.235-.144.72-.522 1.1-.81 1.118-.882 2.453-1.906 3.701-2.196.83-.196.973-.196 1.842-.287.615-.053 1.191-.126 1.715-.305 1.157-.396 2.165-1.258 3.16-2.158 1.265-1.026 2.492-1.457 4.207-1.457.741 0 .847-.091 1.75-.936.197-.178.433-.395.721-.665.973-.9 2.221-1.278 3.43-1.654.615-.195 1.245-.377 1.841-.647.76-.253 1.463-.7 2.13-1.135.398-.252.813-.521 1.228-.74.615-.27 1.353-.413 2.111-.413.595 0 1.175.09 1.66.27.76.27 1.083.414 2.13 1.134l5.29 4.373.073.073c.092.091.218.197.306.305.162.16 3.104 3.58 4.334 5.577.396.666.72 1.692.759 2.175.235 3.076 1.173 5.847 2.039 8.186.035.091.217.253.414.43.236.197.488.431.65.667.236.323.45.683.65 1.027.524.882 1.083 1.8 2.022 2.339 0 0 .432.218.794.396.127.09.144.179.127.287m-62.458 1.84c-.017 0-.052 0-.074.017-.397.161-.847.666-.867.97-.092 1.314-.145 1.458-.49 1.854-.108.107-.161.377-.051.487.108.107 1.388.504 1.535.504h.035c.108-.036.218-.323.47-1.24.145-.487.307-1.044.49-1.55.017-.034.017-.072-.108-.25-.145-.218-.651-.793-.94-.793m34.115-1.493c.196.43.379.827.576.883.091.017.18.035.288.035.45 0 1.1-.252 1.554-.613.252-.217.18-.361.052-.557-.035-.053-.073-.126-.126-.217a3 3 0 0 1-.253-.701c-.127-.448-.236-.826-.703-.757-.686.091-1.336.144-2.078.144-.017 0-.235 0-.305.16-.091.18.109.362.306.54.108.11.235.218.306.324.108.195.252.486.379.756m3.975-29.124.074-.035.092-.035c.885-.378 1.911-.575 2.976-.575a7.3 7.3 0 0 1 2.222.344V5.938h4.621c2.021 0 3.666 1.852 3.666 3.867 0 .969-.386 1.897-1.074 2.582a3.68 3.68 0 0 1-2.591 1.072H47.21v5.594c.18.125.38.251.615.413l.074.053.18.143h3.557c2.452 0 4.312 1.98 4.312 4.424-.035.845-.236 1.6-.577 2.25 1.03 1.239 2.31 2.896 3.069 4.12l.034.051a9.5 9.5 0 0 1 .83 1.962c2.545-1.818 4.186-4.659 4.186-7.843 0-3.941-1.388-6.73-6.045-8.888 1.895-1.76 3.05-4.119 3.05-6.71 0-2.358-.903-4.516-2.491-6.208-1.642-1.818-4.566-2.824-8.52-2.824H37.607V19.55c.197-.126.416-.252.633-.396.433-.27.886-.574 1.389-.827M12.333 31.59c-.144.09-.288.161-.432.252v-3.867c.306-.305.576-.631.83-.953 1.283-1.71 1.138-4.372-.29-5.937a5 5 0 0 0-.54-.505V0h12.652c5.757 0 10.432 4.568 10.432 10.2 0 4.803-3.375 8.814-7.944 9.914l2.545 3.598c-.053.052-.109.09-.144.143-2.147.017-3.845.631-5.47 1.944l-.052.035-.035.035c-.218.196-.415.378-.632.557l-2.078-3.201v-8.257h1.715c2.725 0 4.928-2.014 4.928-4.515s-2.055-4.515-4.782-4.515h-3.754v21.945c-.324.053-.632.11-1.14.235-1.731.396-3.303 1.618-4.565 2.592-.685.54-.885.666-.938.7-.108.054-.218.128-.306.18" fill="#8B8F91"/></g></svg>