<svg width="64" height="25" viewBox="0 0 64 25" fill="none" xmlns="http://www.w3.org/2000/svg"><path d="M31.756.56h.451c1.187-.015 2.32.079 3.446.492q.078.026.156.057c1.378.498 2.582 1.213 3.724 2.144q.078.059.148.116l.113.098v.107q.045.018.092.044c.364.199.7.573.946.918v.107l.091.04a.8.8 0 0 1 .283.284q.045.06.082.12.03.04.061.09c.214-.103.392-.245.579-.387.543-.338 1.208-.341 1.82-.218.73.19 1.59.665 1.998 1.336.196.2.444.223.704.275.935.223 2.034.542 2.669 1.34.182.157.378.187.607.236l.283.072c.152.034.304.075.456.11.496.151.886.453 1.303.768.492.368.926.542 1.517.675 1.308.31 2.329.87 3.429 1.647.846.613.846.613 1.842.826l.203.004c.192-.018.266-.036.392-.178.055-.338-.03-.523-.205-.807-.211-.302-.481-.556-.746-.813-1.108-1.091-1.108-1.091-1.335-1.847-.008-.04-.022-.075-.033-.115-.136-.489-.075-.875.137-1.327.539-.875 1.469-1.296 2.412-1.558.513-.133.513-.133.934-.453.17-.143.383-.169.6-.173a1 1 0 0 1 .673.426c.3.706.275 1.439.026 2.153-.1.253-.222.462-.386.674-.03.037-.056.076-.087.116-.18.235-.419.416-.691.523l-.208.108.095.102c.721.794 1.378 1.784 1.43 2.907-.036.817-.396 1.504-.904 2.114-.796.696-1.63.922-2.647.958q.001.094.01.186c.013.533-.023.963-.218 1.47l.123-.01c.42-.008.776.005 1.115.293.23.289.36.551.46.91l.035.116q.045.147.084.288c.112.014.112.014.208-.075a1.24 1.24 0 0 1 .9-.098c.442.177 1.02.693 1.251 1.114.126.2.308.28.508.39.334.254.443.552.512.96.044.249.092.48.184.715.103.284.077.496-.018.78-.13.28-.313.382-.586.484l-.166.063a2.3 2.3 0 0 1-1.086.116 6 6 0 0 0-.587-.014c-.62.017-1.135-.023-1.62-.461l-.227-.237-.155-.159-.153.054c-.456.128-.878.049-1.299-.16a8 8 0 0 1-.426-.334c-.538-.447-1.046-.647-1.737-.638h-.148q-.301-.01-.595.061c-.787.046-1.547-.434-2.16-.9-.525-.484-.717-1.252-.904-1.927l-.077.026c-.379.08-.814.046-1.19 0-.68-.066-1.288-.003-1.947.134.038.034.081.066.12.098.227.195.296.403.34.692.034.533-.218.883-.513 1.292l-.078.12c-.14.208-.253.329-.474.44-.223.114-.287.216-.383.447-.204.444-.612.724-1.042.906-.513.159-1.048-.045-1.538-.196l-.388-.12-.186-.053a11 11 0 0 0-.617-.163 1.8 1.8 0 0 1-.7-.351c-.16-.116-.304-.125-.499-.138-.46-.062-.722-.311-1-.68l-.052.08-.069.107-.07.107-.065.08h-.104c-.018.031-.03.066-.048.097-.056.116-.056.116-.161.275h-.104v.107c-.07.088-.07.088-.155.159h-.106a3 3 0 0 1-.052.16h-.104v.111h-.1v.107h-.104v.107c-.156.147-.322.275-.486.408l-.166.137c-1.513 1.24-3.306 2.136-5.214 2.495-.06.009-.06.009-.127.023-1.863.346-3.831.172-5.634-.396l-.123-.04c-.825-.253-1.598-.687-2.367-1.083v-.106a1 1 0 0 1-.113-.045c-.409-.177-.769-.466-1.108-.754-.17-.142-.34-.27-.512-.404-.026-.027-.053-.049-.083-.076v-.105l-.082-.037c-.178-.106-.31-.248-.453-.399l-.091-.093q-.277-.291-.53-.605c-.173-.19-.365-.354-.556-.522a1 1 0 0 1-.057.096c-.222.382-.412.524-.83.64a10 10 0 0 1-.656.142 2.2 2.2 0 0 0-.625.2q-.52.24-1.061.417-.17.058-.334.125c-.678.239-1.268.288-1.937-.018-.356-.182-.574-.515-.78-.857v-.107l-.181-.013c-.326-.045-.591-.155-.804-.426-.144-.222-.274-.453-.404-.683-.023-.037-.04-.072-.06-.107-.223-.41-.31-.764-.214-1.225a.87.87 0 0 1 .404-.502 2 2 0 0 0 .17-.084 3.3 3.3 0 0 0-1.235-.062q-.195.015-.395.022c-.478.013-.478.013-.895.227-.13.19-.23.402-.295.625a3 3 0 0 1-.17.364l-.052.097c-.265.418-.569.617-1 .844q-.081.046-.164.09-.232.127-.465.247-.058.034-.122.067a2.2 2.2 0 0 1-1.117.266H9.01a3.3 3.3 0 0 1-.629-.066c-.309-.072-.604-.12-.917-.053-.148.102-.256.217-.382.346-.374.364-.879.608-1.382.723-.065.014-.065.014-.126.032a1.4 1.4 0 0 1-.408-.005l-.14-.013-.104-.014-.064.102c-.356.56-.748.87-1.39 1.017-.306.045-.575-.009-.875-.085a1.6 1.6 0 0 0-.673-.044c-.278.036-.495-.008-.756-.093l-.108-.035c-.287-.102-.479-.218-.64-.485-.169-.457-.064-.977.031-1.443.01-.043.012-.083.022-.128.082-.387.217-.692.53-.937l.117-.093a.9.9 0 0 1 .382-.125q.001-.071.01-.145c.055-.254.177-.391.382-.542.048-.027.091-.057.142-.089q.25-.15.479-.333a1.06 1.06 0 0 1 .82-.204c.275.085.483.227.709.404q.024-.075.057-.156c.408-1.109.408-1.109.93-1.388.295-.125.595-.125.916-.138a.9.9 0 0 0 .43-.181l-.026-.1c-.039-.145-.082-.291-.121-.433l-.044-.156a22 22 0 0 1-.222-.861l-.086.004c-1.057.035-1.964-.084-2.79-.83l-.239-.24-.09-.093c-.548-.6-.718-1.394-.718-2.193a3.1 3.1 0 0 1 .756-1.984l.135-.155c.2-.236.4-.453.643-.644l-.104-.053C2.68 8.06 2.12 7.515 1.841 6.631l-.036-.123a1 1 0 0 0-.03-.102c-.109-.551.01-1.043.26-1.532.127-.196.283-.266.497-.338.378-.061.668.04.982.267q.075.06.156.12c.426.307.908.39 1.412.5.669.152 1.343.415 1.747 1.022.312.578.395 1.15.222 1.79-.257.833-.948 1.45-1.613 1.957-.351.284-.704.608-.83 1.065-.013.267.014.432.178.64.249.2.452.19.757.159.864-.168 1.55-.715 2.22-1.26.939-.769 1.955-1.11 3.137-1.235.487-.056.795-.227 1.134-.577.739-.732 1.624-1.256 2.676-1.247.365-.022.522-.213.757-.484.534-.608 1.295-.875 2.029-1.122.76-.262 1.434-.538 2.085-1.022.5-.359 1.243-.515 1.842-.466q.254.048.5.125.063.02.127.034l.36.107.108.032.252.075q.145-.159.283-.315l.082-.088c.148-.16.148-.16.262-.343h.103v-.11h.105a1 1 0 0 0 .038-.103c.062-.11.062-.11.218-.164v-.107c.126-.137.274-.253.416-.372l.084-.072a12.3 12.3 0 0 1 4.502-2.44c.06-.024.06-.024.125-.04a15 15 0 0 1 .6-.16C30.3.544 31.025.558 31.756.558" fill="#FBC226"/><path d="M43.93 5.514c.448.235.817.452 1.13.855.408.529.82.578 1.446.654.61.088 1.13.386 1.643.715v.105l.091.04c.122.072.2.148.296.244.334.307.739.382 1.16.48.63.151 1.157.421 1.678.817a.7.7 0 0 0 .2.125v.106c.055.022.055.022.112.048q.144.059.283.125c.391.178.773.28 1.185.364.496.091.977.251 1.43.475.626.297 1.19.705 1.756 1.105.326.227.647.44.99.63.048.026.048.026.091.054.53.288 1.208.35 1.791.2.351-.165.595-.458.769-.813.07-.542-.053-.994-.365-1.438-.344-.431-.734-.816-1.126-1.203-.438-.44-.887-.94-.925-1.599.013-.377.178-.563.439-.816.34-.297.739-.47 1.147-.653.044-.017.086-.04.13-.057.156-.058.313-.088.478-.12.347-.075.721-.173.982-.443.07-.072.07-.072.174-.072.143.47.1 1.074-.087 1.523-.11.21-.256.4-.43.559h-.105v.107l-.425.159q-.152.056-.305.116c-.2.057-.4.071-.604.084-.116 0-.116 0-.173.067.004.23.034.377.196.54q.084.08.178.16l.09.08q.171.155.348.303c.69.577 1.226 1.443 1.335 2.361q0 .172-.018.341l-.013.12c-.075.43-.29.822-.609 1.11h-.103l-.036.094c-.182.31-.634.489-.96.594-.49.12-1.073.134-1.546-.049-.17-.008-.17-.008-.314 0l-.009.187v.107c.005.147.005.147.062.332.055.228.07.436.07.666v.12c-.01.383-.105.758-.278 1.096-.023.245-.023.378.078.605.252.28.503.301.86.318q.111.007.222.006c.164.004.273.017.411.11.123.182.17.36.223.573q.044.174.096.346c.022.084.038.165.06.245.092.346.26.522.521.754.075.072.153.138.226.21l.109.097c.13.128.244.261.356.399.175.213.326.293.578.39.217.12.27.36.343.592.057.215.078.417.07.638-.99.147-.99.147-1.404-.159a8 8 0 0 1-.426-.493c-.178-.218-.178-.218-.442-.284-.17.017-.17.017-.317.106a.94.94 0 0 1-.631.08 2.4 2.4 0 0 1-.569-.355c-.834-.63-1.612-.875-2.647-.817l-.156.053c-.565.093-.942-.128-1.402-.426l-.131-.084c-.491-.341-.73-.91-.84-1.496l-.038-.2a3 3 0 0 1-.03-.514l.208-.054.066.133c.209.422.439.755.765 1.092.064.075.064.075.13.147.486.448.921.612 1.564.603h.26l.41-.009h.394l.123-.005c.742-.003 1.368.374 1.95.808q.2.146.412.272c.018-.204.018-.204-.064-.302-.665-.666-1.4-1.034-2.334-1.043h-.248a11 11 0 0 0-.378-.005c-.634-.005-1.125-.057-1.646-.466a1 1 0 0 1-.087-.057c-.334-.253-.508-.636-.695-1.008-.026-.053-.048-.102-.078-.155-.161-.36-.223-.71-.274-1.097a8 8 0 0 0-.196-.954l-.03-.129c-.079-.307-.079-.307-.2-.599-.052-.018-.101-.036-.157-.053l.027.208c.151 1.447.151 1.447-.074 2.14h-.105c-.022.048-.022.048-.039.097-.126.217-.356.298-.586.382-.183.03-.36.026-.543.023a2 2 0 0 0-.157-.005l-.483-.013a12.3 12.3 0 0 0-2.676.217c-.356.067-.712.053-1.068.045l.034-.102c.088-.28.14-.512.118-.805-.126.01-.126.01-.256.054-.061.102-.061.102-.088.235-.16.453-.5.773-.916.986q-.12.059-.244.11l-.156.098c-.104.063-.104.063-.204.063a1 1 0 0 0-.044.098.8.8 0 0 1-.217.274h-.104a1 1 0 0 0-.035.094c-.07.119-.07.119-.205.244-.169.195-.164.315-.178.573h.105l.069.142c.17.28.523.35.812.443.167.04.327.067.496.072a1 1 0 0 0 .114.009c.186-.046.26-.148.378-.293.069-.129.13-.25.185-.382.175-.4.175-.4.388-.524.143-.023.143-.023.312-.018h.183q.09-.002.186.004h.192c.465.005.465.005.526.067 0 .457-.235.741-.517 1.08-.123.105-.183.113-.343.127-.122.018-.122.018-.231.072q-.09.165-.122.35c-.082.32-.278.595-.547.777-.217.088-.447.067-.678.045v-.108l-.165-.012a3.5 3.5 0 0 1-.734-.196 7 7 0 0 0-.417-.106c-.443-.089-.769-.165-1.074-.538-.1-.102-.291-.061-.43-.061h-.103c-.105-.005-.105-.005-.296-.046-.205-.23-.287-.515-.374-.807a1 1 0 0 1-.043-.125c-.13-.412-.192-.812-.03-1.224q.144-.287.308-.56c.034-.067.073-.128.109-.195q.142-.25.29-.501l.091-.156.066-.111c.243.023.447.049.673.159-.087.267-.234.489-.386.72-.075.115-.148.235-.223.35-.05.085-.108.165-.16.245-.143.293-.104.675-.013.98q.054.137.113.272c.048.102.048.102.048.208h.105l-.014-.199c-.03-.648.048-1.03.447-1.55.44-.52.44-.52.548-1.172-.095-.238-.3-.324-.516-.44-.592-.386-.844-.954-1.022-1.637-.095-.461-.1-.936-.122-1.402l-.204-.058c-.304.621-.038 1.62.152 2.24q.098.268.209.535c.073.15.109.316.105.483-1.609.026-1.609.026-2.282-.484q-.15-.1-.296-.208a4 4 0 0 1-.225-.165c-.066.156-.066.156-.014.27.14.254.283.444.492.645.308.324.504.714.69 1.118.074.151.157.28.248.417.122.178.19.316.19.537-.033.054-.064.107-.103.16-.109.018-.109.018-.239.013-.044-.004-.082-.004-.126-.004l-.1-.008.026.173c.066.594.066.594-.043.829-.144.17-.292.316-.501.386-.32-.012-.598-.136-.89-.261l-.139-.062c-.351-.147-.351-.147-.517-.222-.148-.053-.27-.053-.426-.053q-.09.005-.182.004c-.178.01-.352.03-.534.053-.3.027-.452-.031-.691-.222-.061-.057-.127-.115-.187-.173-.148-.147-.148-.147-.34-.186-.207.08-.339.227-.494.386-.4.394-.766.693-1.308.843q-.053.014-.105.03c-.156.037-.308.028-.47.024l-.05-.214h.103v-.106c.078-.076.078-.076.187-.169.36-.32.6-.613.782-1.065.1-.218.226-.409.352-.608.174-.262.174-.262.24-.56-.474.204-.775.773-1.048 1.194-.256.405-.512.662-.978.782a5 5 0 0 1-.625 0c.013-.19.039-.253.178-.382.052-.036.109-.071.161-.111.543-.396.894-.887 1.22-1.483q.04-.076.087-.154c.214-.41.335-.83.453-1.274l.094-.347c.127-.412.232-.826.326-1.248.066-.3.148-.599.235-.9q.104-.358.2-.716c.43-1.659 1.343-2.85 2.65-3.897q.094-.072.179-.146a21 21 0 0 1 1.264-.977c.74-.529 1.464-1.083 2.13-1.71.572-.519 1.224-.554 1.915-.242M2.688 5.335a.93.93 0 0 1 .508.23c.491.378.965.485 1.56.6.582.12 1.095.334 1.446.849.166.34.153.693.053 1.052-.252.652-.873 1.104-1.386 1.535-.46.396-.938.808-1.038 1.443-.039.51-.036.981.295 1.389.309.302.678.484 1.103.507 1.061-.05 1.969-.626 2.773-1.292.868-.715.868-.715 1.382-.923.069-.032.069-.032.139-.058.382-.142.76-.19 1.16-.235.85-.103 1.338-.316 1.969-.91.63-.591 1.25-.92 2.11-.95.54-.031.822-.245 1.178-.644.088-.085.088-.085.19-.085v-.106c.602-.568 1.41-.786 2.173-1.003.588-.182 1.105-.515 1.618-.857.568-.382 1.172-.457 1.833-.324.782.205 1.394.764 1.994 1.291a20 20 0 0 0 .577.489q.132.114.262.222c1.486 1.238 1.486 1.238 1.768 1.886h.1q.138.16.26.33l.079.102q.392.518.752 1.065l.108.155c.409.648.465 1.42.564 2.175.045.333.114.652.21.977q.051.207.104.408c.06.244.13.474.221.71.04.106.074.216.114.329q.017.054.039.106.034.112.073.222c.087.248.192.39.383.573.212.243.374.501.534.785.34.582.652 1.039 1.282 1.296l-.052.213c-.583.046-.89-.088-1.33-.47-.226-.209-.378-.44-.539-.706-.256-.412-.547-.87-1.039-1.011.127.23.253.461.392.688.178.284.308.598.43.913.243.637.835.95 1.413 1.226l-.053.213c-.695.023-1.355-.044-1.895-.555a9 9 0 0 1-.22-.244c-.206-.23-.206-.23-.484-.333-.29.045-.508.298-.72.493-.234.16-.44.164-.718.155q-.083 0-.169-.005-.183 0-.356-.008a2.5 2.5 0 0 0-1.008.178 3 3 0 0 1-.396.106v.106c-.916.2-.916.2-1.247.023-.134-.165-.169-.293-.207-.503l-.027-.114c-.04-.196-.048-.315.039-.498q.079-.12.165-.239c.096-.12.096-.12.187-.325h-.47c-.018-.221 0-.363.13-.545.104-.125.222-.23.34-.338.242-.244.333-.452.42-.785.06-.2.165-.311.304-.462v-.16l-.148.018c-.155.027-.308.045-.465.067l-.264.04-.135.018q-.316.037-.612.154c-.14.063-.291.094-.444.09a1 1 0 0 0-.112-.005c-.105-.009-.105-.009-.257-.062.017-.298.104-.506.243-.768.17-.36.182-.683.178-1.07 0-.076 0-.076-.004-.15q.002-.181-.004-.36h-.105c-.013.075-.013.075-.03.155q-.125.616-.378 1.19l-.048.11c-.16.342-.382.555-.734.697a3.5 3.5 0 0 1-.56.116c-.114.013-.114.013-.17.08-.034.297.065.48.204.732.018.04.04.076.061.12q.17.314.352.625c.022.045.048.085.07.13l.139.235c.217.377.208.745.108 1.162a2 2 0 0 0-.052.463c.3-.2.417-.484.573-.799.062-.444-.073-.764-.269-1.155l-.077-.155q-.204-.424-.44-.834c-.044-.098-.044-.098-.044-.258.213-.11.431-.062.656-.01.218.144.248.254.327.498q.185.492.486.92c.082.119.13.258.139.403l.009.102c.022.355-.082.591-.253.897l-.069.133c-.33.625-.33.625-.586.737-.044.005-.083.008-.127.018l-.122.018q-.126.013-.251.022c-.326.027-.573.129-.865.275a8.5 8.5 0 0 1-1.15.466c-.14.045-.27.098-.405.151a1.75 1.75 0 0 1-1.078.008c-.316-.247-.526-.55-.704-.918-.047-.102-.047-.102-.16-.147-.139-.009-.282-.012-.421-.018-.23-.056-.34-.195-.465-.394a6 6 0 0 1-.166-.307 1 1 0 0 1-.056-.107c-.1-.19-.17-.34-.135-.563.235-.239.817-.213 1.143-.23.3.03.439.15.643.367.117.151.213.312.313.475.239.422.239.422.6.724.542.054.943-.08 1.399-.372h.104c.017-.046.03-.085.048-.129.055-.139.055-.139.108-.244.048-.4-.113-.706-.343-1.022-.226-.257-.491-.412-.782-.577-.556-.315-.973-.732-1.16-1.352-.022-.086-.022-.086-.048-.17-.044-.142-.044-.142-.165-.209-.03-.009-.065-.023-.096-.03q-.006.18-.005.368c0 .102 0 .102-.004.209-.012.159-.012.159.061.221.014.129.014.129 0 .266-.243.165-.486.125-.768.125h-.183c-.35 0-.7-.048-1.039-.142a4.4 4.4 0 0 0-.8-.053h-.147a5 5 0 0 0-.878.098c-.378.07-.851.114-1.186-.112-.205-.182-.282-.449-.312-.72-.005-.176 0-.354.004-.532v-.182c.004-.333.026-.657.065-.989h-.204a5.4 5.4 0 0 0-.235 1.091c-.095.728-.23 1.372-.7 1.95l-.086.106c-.679.79-1.682.878-2.642.958-.9.072-1.877.227-2.516.964-.148.204-.282.395-.36.64.196-.032.278-.121.411-.268h.106v-.107c.7-.629 1.537-.852 2.442-.864.982-.023 1.837-.067 2.646-.684q.044-.034.095-.066c.252-.191.409-.47.579-.733q.03-.052.069-.107.066-.105.139-.212c.148.03.2.044.308.159-.014.311-.113.537-.252.808l-.056.11c-.205.413-.205.413-.313.578h-.104l-.053.16q-.208.148-.451.226c-.214.08-.383.196-.565.334-.334.212-.586.26-.974.256H8.98a3.3 3.3 0 0 1-.734-.102c-.356-.08-.866-.093-1.2.085a7 7 0 0 0-.401.364c-.304.298-.82.666-1.26.67-.155-.022-.155-.022-.25-.049a1.5 1.5 0 0 0-.579-.027c-.233.17-.347.422-.49.675a.98.98 0 0 1-.549.45c-.43.025-.79.007-1.19-.161.027-.452.07-.964.413-1.283l.195-.035c.274-.054.383-.25.539-.47.17-.236.326-.369.578-.494.526-.293.704-.657.896-1.216.182-.533.182-.533.438-.666.122-.004.243-.013.365-.018.496-.026.86-.182 1.264-.466.083-.049.083-.049.187-.049.087-.394.014-.652-.13-1.025a4.2 4.2 0 0 1-.269-1.438q.001-.084-.004-.168a13 13 0 0 1-.01-.41 4.4 4.4 0 0 0-.647.112 3.07 3.07 0 0 1-2.363-.431c-.34-.284-.609-.599-.779-1.016-.017-.045-.039-.088-.056-.134-.07-.261-.065-.515-.065-.785a2 2 0 0 1-.005-.16c-.004-.573.183-.995.54-1.429l.103-.125c.31-.368.656-.666 1.026-.959q.144-.114.282-.23l.091-.071c.145-.125.21-.191.24-.382-.03-.17-.053-.209-.183-.311-.117-.023-.117-.023-.243-.013h-.3c-.578-.013-.925-.107-1.342-.542-.392-.466-.526-.843-.522-1.46a1.3 1.3 0 0 1 .123-.44" fill="#D90848"/><path d="M37.873 13.339c.114-.023.114-.023.262 0 .103.111.186.213.269.342l.073.102c.17.261.24.461.226.78-.087.019-.169.037-.26.054a2 2 0 0 0-.082-.159c-.105-.17-.105-.17-.262-.2-.26.057-.434.195-.643.359l-.112.093c-.287.258-.374.507-.456.889-.027.066-.027.066-.052.142-.11.044-.11.044-.21.052-.116-.363-.043-.727.105-1.07q.156-.236.365-.425h.104l.034-.084c.092-.17.209-.312.331-.458.174-.195.174-.195.308-.417m-11.622-.214c.169 0 .308.006.442.125.084.098.157.195.23.302l.079.098q.117.16.235.328.039.06.087.12c.24.36.278.68.221 1.105-.038.152-.038.152-.104.266-.108.046-.108.046-.204.054q-.014-.075-.017-.151c-.066-.555-.187-.857-.609-1.216-.104-.084-.104-.084-.265-.094-.182.094-.273.205-.391.369l-.07.08h-.104a1.53 1.53 0 0 1 .174-.844l.052-.106c.075-.15.148-.294.244-.436" fill="#FABC27"/><path d="M18.57 18.075c.103.01.103.01.207.116.027.11.027.11.052.239a.9.9 0 0 0 .156.404c.022.13.022.13 0 .267-.211.205-.425.257-.716.275-.117-.009-.117-.009-.24-.084a2.3 2.3 0 0 1-.316-.738l-.026-.097c-.13-.066-.13-.066-.261-.107v-.213l.478-.026.135-.004c.177-.014.352-.018.53-.032m43.413 1.71c.17.073.306.21.384.38.038.178.06.352.077.53.03.177.091.279.183.43v.217l-.3.133-.17.08c-.152.054-.152.054-.308 0a5 5 0 0 1-.109-.387 6 6 0 0 0-.156-.59 1.04 1.04 0 0 1-.047-.519c.117-.164.241-.261.446-.275" fill="#D90B48"/><path d="M42.91 7.95a.37.37 0 0 1 .151.16c-.017.2-.112.306-.243.448l-.13.142q-.151.166-.309.324c-.595.586-.595.586-.977 1.327h-.105c-.034-.767.274-1.309.765-1.864.556-.586.558-.586.848-.537" fill="#FABA27"/><path d="M1.91 19.847c.122.088.122.088.21.212.025.311-.045.577-.128.87l-.039.134c-.086.31-.086.31-.148.44-.242-.028-.447-.054-.672-.16a2.2 2.2 0 0 1 .104-.75q.01-.122.017-.245a.72.72 0 0 1 .243-.501c.153-.08.248-.046.413 0" fill="#DA0D47"/><path d="M45.069 18.275q.143 0 .287.01.075-.002.148.004.182 0 .36.009c.012.28.012.515-.095.776q-.026.068-.057.133c-.053.107-.053.107-.156.16-.361.04-.587-.005-.883-.214l-.012-.28q0-.074-.005-.154c.03-.311.106-.435.413-.444" fill="#D90C48"/><path d="M3.184 18.523c.139.045.203.076.282.204-.035.356-.252.631-.487.88a.9.9 0 0 1-.5.133c-.152-.075-.152-.075-.256-.213a1.7 1.7 0 0 1 0-.426l.204-.053v-.107c.1-.08.1-.08.226-.16.045-.031.082-.057.126-.084q.058-.042.118-.075c.155-.107.155-.108.287-.1" fill="#DA0D47"/><path d="M60.611 18.515c.222.075.365.221.53.386.034.03.07.057.104.093.092.084.17.164.24.266.004.148.004.148-.053.267-.239.252-.239.253-.434.292-.2-.04-.274-.15-.404-.306a5 5 0 0 0-.135-.16c-.223-.288-.223-.288-.214-.492.066-.195.153-.35.366-.346" fill="#DA0C47"/><path d="M21.65 8.842c.134.014.134.014.225.089.323.466.44.932.44 1.5q-.002.108.004.213a.75.75 0 0 1-.118.4l-.104-.053c-.03-.093-.03-.093-.056-.218q-.013-.07-.032-.137a2 2 0 0 0-.03-.147c-.143-.653-.143-.653-.503-1.207-.01-.187-.01-.187 0-.373.052-.053.053-.053.174-.067" fill="#F9B828"/><path d="M26.355 17.446c.083.088.06.19.06.314q.006.069.005.142c-.017.129-.017.129-.07.227-.155.097-.295.08-.473.075a3 3 0 0 0-.2-.004l-.156-.01c-.018-.168-.013-.239.087-.38l.108-.108c.056-.053.056-.053.109-.111.182-.15.3-.235.53-.146" fill="#FABB27"/><path d="M37.718 17.551c.372-.026.372-.026.572.102.1.112.1.112.1.219h.105v.318c-.239.05-.408.085-.622-.053-.152-.195-.173-.337-.155-.586" fill="#FABC27"/></svg>