<svg xmlns="http://www.w3.org/2000/svg" width="24" height="24" viewBox="0 0 64 64" xml:space="preserve"><path d="M59.584 30.025a6.33 6.33 0 0 0-5.857-3.412 6.483 6.483 0 0 0-7.444-8.894 6.504 6.504 0 0 0-8.896-7.447 6.338 6.338 0 0 0-12.184-2.667l-7.658 18.393-.006.015-4.054 9.738-7.147 7.147a9.01 9.01 0 0 0 0 12.728l2.036 2.036a9.01 9.01 0 0 0 12.728 0l7.147-7.147 28.145-11.718a6.34 6.34 0 0 0 3.19-8.772m-11.661-10.48a4.46 4.46 0 0 1 3.254 1.585 4.51 4.51 0 0 1-.928 6.673l-17.346 11.6-3.446-3.446 15.094-15.094a4.4 4.4 0 0 1 3.372-1.318M18.958 39.53l4.505-6.738 3.166 3.166-5.622 5.622zm8.958 8.958-2.003-2.003 6.737-4.505 3.204 3.203zm-3.445-3.445-2.05-2.05 5.622-5.62 3.166 3.165zm11.726-31.291a4.51 4.51 0 0 1 6.673-.928 4.51 4.51 0 0 1 .267 6.626L28.043 34.543l-3.446-3.446zM27.05 8.374a4.34 4.34 0 0 1 6.004-2.182 4.34 4.34 0 0 1 1.607 6.26L23.155 29.656l-3.506-3.506zm-8.231 19.772 3.203 3.204-4.505 6.737-2.003-2.003zm.87 28.102a7.01 7.01 0 0 1-9.9 0l-2.036-2.036a7.01 7.01 0 0 1 0-9.9l2.183-2.183L21.87 54.065zm3.597-3.597L11.349 40.715l2.983-2.983 2.625 2.625.01.01 6.667 6.667.009.008 2.625 2.626zm34.75-18.223a4.3 4.3 0 0 1-2.409 2.523l-17.775 7.4-3.506-3.506L51.548 29.34a4.338 4.338 0 0 1 6.488 5.088" fill="#4f4f4f" data-original="#000000"/></svg>