<svg width="24" height="24" viewBox="0 0 34 34" fill="none" xmlns="http://www.w3.org/2000/svg"><g clip-path="url(#a)" stroke="#4F4F4F" stroke-width="2" stroke-linejoin="round"><path d="M16.63 5.905c1.173.359 2.394 1.174 2.93 2.681 3.543-.66 6.459 2.23 5.83 5.779 1.512.522 2.339 1.735 2.709 2.905.17.54.256.811.082 1.17-.175.357-.508.477-1.175.715l-9.611 3.437c-.454.163-.681.244-.858.353-.177.11-.58.497-1.384 1.271-1.389 1.336-3.43 1.632-5.192-.113-1.76-1.746-1.483-3.79-.16-5.19.767-.813 1.15-1.219 1.259-1.396.107-.178.186-.406.345-.861l3.35-9.642c.232-.669.349-1.003.705-1.181.357-.178.628-.095 1.17.072" stroke-linecap="round"/><path d="m10.64 17.736 5.682 5.63M19.79 8.502l-7.02 11.345m12.703-5.714L14.19 21.255m-1.452-8.479c-.086 1.792 1.05 2.918 2.841 2.816-.086 1.792 1.05 2.918 2.842 2.816-.087 1.791 1.05 2.918 2.84 2.815"/></g><defs><clipPath id="a"><path fill="#fff" d="M16.924.03 33.97 16.922 17.076 33.97.03 17.076z"/></clipPath></defs></svg>