<svg xmlns="http://www.w3.org/2000/svg" viewBox="0 0 24 24" width="24" height="24" color="#4f4f4f" fill="none"><path d="M7 14.473c0 .46 0 .691.086.898s.248.37.574.696l.273.273c.326.326.489.488.696.574s.437.086.898.086h.853c.69 0 1.036 0 1.347-.129.31-.128.554-.372 1.043-.861l7.773-7.773c.743-.743 1.114-1.114 1.285-1.528a2.25 2.25 0 0 0 0-1.725c-.171-.414-.542-.785-1.285-1.527-.742-.743-1.113-1.114-1.527-1.285a2.25 2.25 0 0 0-1.725 0c-.414.171-.785.542-1.528 1.285L7.99 11.23c-.488.489-.733.733-.861 1.043C7 12.583 7 12.93 7 13.62z" stroke="#4f4f4f" stroke-width="2"/><path d="M6.925 15 2.43 19.496a1.467 1.467 0 1 0 2.075 2.074L9 17.075M6.5 20 4 17.5" stroke="#4f4f4f" stroke-width="2" stroke-linejoin="round"/><circle cx="2.5" cy="2.5" r="2.5" transform="matrix(-1 0 0 1 21 16)" stroke="#4f4f4f" stroke-width="2" stroke-linejoin="round"/></svg>