<svg xmlns="http://www.w3.org/2000/svg" width="32" height="32" viewBox="0 0 512 512" xml:space="preserve"><path fill="#f9b534" d="M300.899 273.35a18.383 18.383 0 0 1-18.383-18.382V62.65c0-10.152 8.23-18.382 18.382-18.382h180.096c9.662 0 18.595 4.382 24.507 12.024 5.914 7.641 7.915 17.388 5.491 26.741l-21.239 81.94c-11.275 43.493-45.333 77.37-88.885 88.41q-.426.108-.856.195l-95.452 19.404a18.4 18.4 0 0 1-3.661.368m18.383-192.318v151.441l72.957-14.831a86.28 86.28 0 0 0 61.927-61.894l19.367-74.715H319.282zM211.1 273.35c-1.22 0-2.445-.121-3.662-.368l-95.452-19.404a19 19 0 0 1-.854-.195c-43.553-11.041-77.612-44.917-88.885-88.411L1.007 83.033c-2.425-9.352-.425-19.099 5.489-26.74 5.913-7.642 14.846-12.025 24.508-12.025H211.1c10.152 0 18.382 8.23 18.382 18.382v192.318A18.38 18.38 0 0 1 211.1 273.35m-91.339-55.708 72.958 14.831V81.032H38.468l19.367 74.715a86.28 86.28 0 0 0 61.926 61.895" data-original="#ffc250"/><path fill="#f3c04a" d="M318.942 413.549c-47.708-15.748-80.96-64.8-82.724-121.243a130.6 130.6 0 0 0 2.929-27.545v-62.388h-13.408v62.388c0 58.17-38.486 109.323-94.379 125.441v37.8h199.162v-10.63z" data-original="#ffd064"/><path fill="#f9b534" d="M369.058 386.863c-49.034-14.14-82.798-59.016-82.798-110.049v-74.441h-60.522v62.388c0 9.405-1.006 18.626-2.929 27.545 1.764 56.443 35.016 105.495 82.724 121.243l11.581 3.823v10.63h63.525v-37.8z" data-original="#ffc250"/><path fill="#ffd346" d="M344.576 389.797H109.663c-9.161 0-16.588 7.426-16.588 16.588v83.289h268.088v-83.289c.001-9.162-7.426-16.588-16.587-16.588" data-original="#ffe07d"/><path fill="#f3c04a" d="M402.337 389.797h-66.37c9.161 0 16.588 7.427 16.588 16.588v83.289h66.37v-83.289c-.001-9.161-7.427-16.588-16.588-16.588" data-original="#ffd064"/><path fill="#ffd346" d="M339.399 116.202V23.116H117.952v89.865c0 73.725 39.912 141.673 104.305 177.573a69.3 69.3 0 0 0 14.976 6.182c63.244-37.973 102.166-106.437 102.166-180.534" data-original="#ffe07d"/><path fill="#f3c04a" d="M327.528 23.116v89.865c0 73.725-39.912 141.673-104.306 177.573l-.482.266a69.3 69.3 0 0 0 67.002-.266c64.393-35.901 104.306-103.848 104.306-177.573V23.116zm66.746 480.309v-10.386c0-10.155-8.229-18.388-18.383-18.393H78.177c-10.158 0-18.393 8.235-18.393 18.393s8.235 18.393 18.393 18.393h307.487z" data-original="#ffd064"/><path fill="#f9b534" d="M433.823 474.645h-66.552c10.158 0 18.393 8.235 18.393 18.393v18.393h48.159c10.158 0 18.393-8.235 18.393-18.393s-8.235-18.393-18.393-18.393" data-original="#ffc250"/><path fill="#f3c04a" d="M375.723 22.418V7.749L361.468.568H105.862c-12.067 0-21.849 9.782-21.849 21.849s9.782 21.849 21.849 21.849h248.012c12.066.002 21.849-9.781 21.849-21.848" data-original="#ffd064"/><path fill="#f9b534" d="M406.138.569h-44.67v21.849c0 12.067-9.783 21.849-21.849 21.849h66.52c12.067 0 21.849-9.782 21.849-21.849S418.205.569 406.138.569" data-original="#ffc250"/><path fill="#f4fbff" d="M352.554 441.882H159.446c-4.323 0-7.827-3.504-7.827-7.827s3.504-7.827 7.827-7.827h193.108c4.323 0 7.827 3.504 7.827 7.827s-3.504 7.827-7.827 7.827M261.98 97.847l11.545 31.625a6.37 6.37 0 0 0 5.752 4.179l33.645 1.207c5.933.213 8.371 7.715 3.696 11.374l-26.51 20.752a6.365 6.365 0 0 0-2.197 6.761l9.249 32.371c1.631 5.709-4.75 10.345-9.676 7.03l-27.929-18.799a6.36 6.36 0 0 0-7.109 0l-27.929 18.799c-4.925 3.315-11.307-1.321-9.676-7.03l9.249-32.371a6.36 6.36 0 0 0-2.197-6.761l-26.51-20.752c-4.675-3.66-2.238-11.161 3.696-11.374l33.645-1.207a6.37 6.37 0 0 0 5.752-4.179l11.545-31.625c2.035-5.577 9.923-5.577 11.959 0" data-original="#f4fbff"/></svg>