<svg xmlns="http://www.w3.org/2000/svg" version="1.1" xmlns:xlink="http://www.w3.org/1999/xlink" width="64" height="64" x="0" y="0" viewBox="0 0 60 60" style="enable-background:new 0 0 512 512" xml:space="preserve"><g><path d="M30 0a30 30 0 1 0 30 30A30.034 30.034 0 0 0 30 0ZM8.206 47.552A27.98 27.98 0 0 1 47.551 8.206Zm1.314 1.514L49.066 9.52q.732.681 1.414 1.414L10.934 50.48q-.734-.68-1.414-1.414ZM58 30a27.98 27.98 0 0 1-45.552 21.794l39.346-39.346A27.867 27.867 0 0 1 58 30Z" fill="#000000" opacity="1" data-original="#000000"></path><path d="m25.758 24.343-1.415 1.414a1 1 0 0 0 1.414 1.415l1.415-1.414a1 1 0 1 0-1.414-1.415ZM30 20.1l-1.414 1.414A1 1 0 1 0 30 22.929l1.414-1.414A1 1 0 0 0 30 20.1ZM34.243 15.857l-1.415 1.414a1 1 0 0 0 1.414 1.416l1.415-1.415a1 1 0 0 0-1.414-1.415ZM38.485 11.615l-1.414 1.414a1 1 0 1 0 1.414 1.414l1.415-1.414a1 1 0 1 0-1.414-1.414ZM44.142 7.373a1 1 0 0 0-1.414 0l-1.415 1.414a1 1 0 0 0 1.415 1.413l1.414-1.414a1 1 0 0 0 0-1.413ZM8.787 41.313l-1.414 1.415a1 1 0 1 0 1.414 1.414l1.413-1.414a1 1 0 1 0-1.414-1.415ZM13.029 37.071l-1.414 1.414a1 1 0 1 0 1.414 1.415l1.414-1.414a1 1 0 1 0-1.414-1.414ZM17.272 32.828l-1.414 1.415a1 1 0 1 0 1.414 1.414l1.415-1.415a1 1 0 1 0-1.415-1.414ZM21.515 28.586 20.1 30a1 1 0 1 0 1.414 1.414L22.929 30a1 1 0 1 0-1.414-1.414ZM33.535 35.95a.993.993 0 0 0 .707-.293l1.415-1.415a1 1 0 1 0-1.414-1.414l-1.415 1.415a1 1 0 0 0 .707 1.707ZM37.778 31.707a1 1 0 0 0 .707-.293L39.9 30a1 1 0 0 0-1.414-1.414L37.071 30a1 1 0 0 0 .707 1.707ZM42.021 27.464a1 1 0 0 0 .707-.293l1.414-1.414a1 1 0 0 0-1.414-1.414l-1.415 1.414a1 1 0 0 0 .708 1.707ZM46.264 23.222a1 1 0 0 0 .707-.293l1.414-1.414a1 1 0 0 0-1.414-1.415l-1.414 1.414a1 1 0 0 0 .707 1.707ZM50.506 18.979a1 1 0 0 0 .707-.293l1.414-1.414a1 1 0 1 0-1.414-1.414L49.8 17.272a1 1 0 0 0 .707 1.707ZM15.858 52.627a1 1 0 0 0 1.414 0l1.415-1.414a1 1 0 1 0-1.415-1.413l-1.414 1.414a1 1 0 0 0 0 1.413ZM20.808 48.678a1 1 0 0 0 .707-.293l1.414-1.414a1 1 0 1 0-1.414-1.414L20.1 46.971a1 1 0 0 0 .707 1.707ZM25.05 44.435a1 1 0 0 0 .707-.293l1.415-1.414a1 1 0 1 0-1.414-1.415l-1.415 1.415a1 1 0 0 0 .707 1.707ZM29.293 40.192A.993.993 0 0 0 30 39.9l1.414-1.414A1 1 0 0 0 30 37.071l-1.414 1.414a1 1 0 0 0 .707 1.707Z" fill="#000000" opacity="1" data-original="#000000"></path></g></svg>