<svg xmlns="http://www.w3.org/2000/svg" version="1.1" xmlns:xlink="http://www.w3.org/1999/xlink" width="64" height="64" x="0" y="0" viewBox="0 0 60 60" style="enable-background:new 0 0 512 512" xml:space="preserve" class=""><g><path d="M47.551 8.206A27.98 27.98 0 0 0 8.206 47.552Zm-6.238.581 1.415-1.414a1 1 0 1 1 1.414 1.414L42.728 10.2a1 1 0 1 1-1.415-1.414Zm-4.242 4.242 1.414-1.414a1 1 0 1 1 1.415 1.414l-1.414 1.414a1 1 0 1 1-1.414-1.414Zm-4.243 4.242 1.415-1.414a1 1 0 0 1 1.414 1.415l-1.415 1.415a1 1 0 0 1-1.414-1.416Zm-4.242 4.244L30 20.1a1 1 0 0 1 1.414 1.414L30 22.929a1 1 0 1 1-1.414-1.414Zm-4.243 4.242 1.415-1.414a1 1 0 1 1 1.414 1.415l-1.415 1.414a1 1 0 0 1-1.414-1.415ZM20.1 30l1.414-1.414A1 1 0 1 1 22.929 30l-1.414 1.414A1 1 0 0 1 20.1 30Zm-4.243 4.243 1.414-1.415a1 1 0 1 1 1.415 1.414l-1.415 1.415a1 1 0 1 1-1.414-1.414Zm-4.243 4.242 1.414-1.414a1 1 0 1 1 1.414 1.414L13.029 39.9a1 1 0 1 1-1.414-1.414Zm-4.241 5.657a1 1 0 0 1 0-1.414l1.414-1.415a1 1 0 1 1 1.413 1.415l-1.413 1.414a1 1 0 0 1-1.414 0ZM10.934 50.48 50.48 10.934q-.68-.734-1.414-1.414L9.52 49.066q.68.734 1.414 1.414ZM12.448 51.794a27.98 27.98 0 0 0 39.346-39.346Zm6.239-.581-1.415 1.414a1 1 0 1 1-1.414-1.414l1.414-1.413a1 1 0 1 1 1.415 1.414Zm4.242-4.242-1.414 1.414a1 1 0 0 1-1.415-1.414l1.414-1.414a1 1 0 1 1 1.414 1.414Zm4.243-4.243-1.415 1.414a1 1 0 0 1-1.414-1.414l1.415-1.415a1 1 0 1 1 1.414 1.415Zm4.242-4.243L30 39.9a1 1 0 0 1-1.414-1.414L30 37.071a1 1 0 0 1 1.414 1.414Zm4.243-4.243-1.415 1.415a1 1 0 1 1-1.414-1.414l1.415-1.415a1 1 0 1 1 1.414 1.414ZM39.9 30l-1.414 1.414A1 1 0 0 1 37.071 30l1.414-1.414A1 1 0 0 1 39.9 30Zm4.243-4.243-1.414 1.414a1 1 0 1 1-1.415-1.414l1.415-1.414a1 1 0 0 1 1.414 1.414Zm4.243-4.242-1.414 1.414a1 1 0 1 1-1.414-1.414l1.413-1.415a1 1 0 0 1 1.414 1.414Zm4.242-5.657a1 1 0 0 1 0 1.414l-1.414 1.414a1 1 0 0 1-1.414-1.414l1.414-1.414a1 1 0 0 1 1.413 0Z" fill="#4f4f4f" opacity="1" data-original="#000000" class=""></path></g></svg>