<svg width="16" height="16" viewBox="0 0 16 16" fill="none" xmlns="http://www.w3.org/2000/svg"><g clip-path="url(#a)"><path d="M6.108.277a7.953 7.953 0 0 1 8.93 11.422l-.124.227a7 7 0 0 1-.299.485q-.174.264-.373.509a7 7 0 0 1-.188.233l-.199.226a9 9 0 0 1-.507.504 7 7 0 0 1-.506.422h-.001q-.19.15-.389.285a9 9 0 0 1-.62.38h-.005l-.01.007q-.55.3-1.138.51h-.001q-.434.157-.885.257-.356.084-.72.132l-.242.027-.005.001-.055.007a8 8 0 0 1-.771.04A7.95 7.95 0 0 1 .05 8c0-.802.12-1.599.356-2.365a8.2 8.2 0 0 1 .809-1.782l-.001-.001.006-.006v-.002q.26-.422.57-.808l.212-.253q.24-.28.51-.531v-.001l.006-.006a7 7 0 0 1 .805-.673 9 9 0 0 1 .54-.366v.001a8 8 0 0 1 .59-.32V.886A6 6 0 0 1 4.99.64h.003l.009-.004a7 7 0 0 1 .561-.205V.43q.135-.045.272-.082z" fill="#f1f1f1" stroke="#c1c0c0" stroke-width=".1"/><path d="M3.83 1.27a.2.2 0 0 1 0 .083 10.695 10.695 0 0 0 9.367 12.526.24.24 0 0 1 .108.04q-.217.197-.448.372A11.11 11.11 0 0 1 3.209 3.255q-.002-.853.131-1.696.234-.17.478-.324.007.017.012.035Zm9.775 11.588q.262.047.526.083h.002q.039.004.074.022a8 8 0 0 1-.334.396q-.176-.026-.347-.056a.227.227 0 0 1-.172-.299l.001-.003a.22.22 0 0 1 .25-.143Z" fill="#bababa" stroke="#c1c0c0" stroke-width=".1"/><mask id="b" fill="#fff"><path d="M6.71 8.312a.276.276 0 1 0-.456.31q.313.46.67.887a.276.276 0 1 0 .423-.353q-.339-.405-.636-.844M5.196 6.671c.143.34.304.677.481 1.002a.276.276 0 0 0 .485-.263q-.252-.465-.457-.952a.276.276 0 0 0-.509.213m-.539-2.974h.028a.276.276 0 0 0 .248-.302q-.05-.518-.05-1.056a.27.27 0 0 0-.277-.271.28.28 0 0 0-.275.28c0 .367.018.738.053 1.101a.276.276 0 0 0 .273.248m-.111.85q.108.546.272 1.079a.276.276 0 1 0 .527-.162q-.154-.506-.258-1.024a.276.276 0 1 0-.541.108m4.782 6.789a.275.275 0 0 0 .08.382q.467.304.96.56a.276.276 0 0 0 .255-.49 10 10 0 0 1-.911-.533.275.275 0 0 0-.384.081m-1.653-1.4a.276.276 0 0 0 .003.39q.398.39.831.74a.277.277 0 0 0 .347-.43 11 11 0 0 1-.79-.703.276.276 0 0 0-.391.003m3.551 2.447a.275.275 0 0 0 .155.358q.517.206 1.052.359a.275.275 0 1 0 .152-.53q-.509-.147-1-.341a.276.276 0 0 0-.359.154M5.002.743q-.041.265-.07.532a.273.273 0 0 1-.273.248h-.027a.28.28 0 0 1-.248-.304q.018-.19.047-.378.267-.14.548-.25h.003q.03.073.02.151M1.178 3.817a.27.27 0 0 1 .138.26 9 9 0 0 0-.025.535.28.28 0 0 1-.276.27H1.01a.276.276 0 0 1-.268-.248zm1 5.26q-.23-.526-.403-1.074a.276.276 0 1 0-.527.166q.182.577.424 1.13a.276.276 0 1 0 .505-.22zM1.49 6.893a11 11 0 0 1-.161-1.135.276.276 0 1 0-.55.048Q.833 6.408.95 7a.276.276 0 1 0 .541-.107M6.72 14.09a11 11 0 0 1-.967-.614.275.275 0 1 0-.321.449q.491.35 1.017.646a.276.276 0 0 0 .271-.48m-2.678-2.136a.276.276 0 0 0-.409.37q.406.447.856.849a.276.276 0 1 0 .366-.412 11 11 0 0 1-.813-.807m4.781 3.034a11 11 0 0 1-1.076-.391.275.275 0 0 0-.217.507q.555.237 1.133.414a.28.28 0 0 0 .26-.056.276.276 0 0 0-.1-.473m-6.128-4.886a.276.276 0 1 0-.478.276q.3.523.656 1.012a.276.276 0 1 0 .446-.325q-.337-.465-.624-.963m8.001 5.432a7 7 0 0 1-.89.26.274.274 0 0 1 .137-.53q.265.048.53.085a.27.27 0 0 1 .223.185M2.483 2.21a.27.27 0 0 1 .074.232q-.036.263-.06.535a.276.276 0 0 1-.276.25q-.013.001-.025-.002a.273.273 0 0 1-.248-.298l.016-.177zM8.38 14.053a.275.275 0 0 0 .37-.133.275.275 0 0 0-.137-.367 11 11 0 0 1-.958-.507.276.276 0 0 0-.283.475q.49.291 1.008.532m-2.463-2.298a.275.275 0 1 0-.373.407q.421.386.88.726a.27.27 0 0 0 .325.003.276.276 0 0 0 .005-.444q-.436-.325-.837-.692m4.741 2.503a11 11 0 0 1-1.04-.3.276.276 0 1 0-.18.522q.538.187 1.095.316a.275.275 0 0 0 .125-.537m-6.876-4.65a.275.275 0 0 0 .1-.378 11 11 0 0 1-.495-.965.276.276 0 0 0-.502.226q.235.521.52 1.015a.276.276 0 0 0 .377.1zm.692.532a.276.276 0 0 0-.446.323q.335.463.715.889a.276.276 0 0 0 .412-.368q-.362-.405-.681-.844M2.252 5.449l.032-.002a.275.275 0 0 0 .242-.306q-.063-.54-.07-1.082a.276.276 0 1 0-.552.008q.008.57.073 1.137a.276.276 0 0 0 .275.245M2.377 6a.276.276 0 0 0-.21.33q.123.556.303 1.1a.276.276 0 0 0 .524-.174q-.171-.515-.288-1.046a.276.276 0 0 0-.33-.21m10.103 8.632a9 9 0 0 1-.634.389h-.006l-.176-.022a.276.276 0 0 1 .071-.547q.264.033.535.053a.26.26 0 0 1 .21.127M6.105.326q-.025.268-.041.538a.273.273 0 0 1-.274.259h-.016a.276.276 0 0 1-.26-.29q.011-.224.034-.45.27-.087.549-.154a.3.3 0 0 1 .008.097M8.962 9.53a.276.276 0 0 0 .381-.4 11 11 0 0 1-.786-.835.276.276 0 1 0-.42.356q.389.462.825.879m2.972 2.036q.547.257 1.117.452a.27.27 0 0 0 .268-.05.276.276 0 0 0-.09-.471 11 11 0 0 1-1.06-.43.276.276 0 1 0-.235.5m-1.062-.57a.276.276 0 0 0 .287-.471 11 11 0 0 1-.945-.648.276.276 0 0 0-.336.437q.478.368.994.682m-4.084-4.34q.282.534.62 1.034a.276.276 0 0 0 .458-.309q-.322-.474-.59-.982a.276.276 0 0 0-.488.258zM5.775 1.749a.276.276 0 0 0-.26.29q.03.603.127 1.2a.276.276 0 0 0 .545-.09 11 11 0 0 1-.122-1.139.276.276 0 0 0-.29-.261m.124 2.668q.16.582.384 1.144a.276.276 0 1 0 .513-.203A11 11 0 0 1 6.43 4.27a.276.276 0 0 0-.532.147m9.058 7.533a8 8 0 0 1-.3.489 7 7 0 0 1-.439-.089.275.275 0 1 1 .121-.538q.261.058.527.103a.2.2 0 0 1 .091.035"/></mask><path d="M6.71 8.312a.276.276 0 1 0-.456.31q.313.46.67.887a.276.276 0 1 0 .423-.353q-.339-.405-.636-.844ZM5.196 6.671c.143.34.304.677.481 1.002a.276.276 0 0 0 .485-.263q-.252-.465-.457-.952a.276.276 0 0 0-.509.213Zm-.539-2.974h.028a.276.276 0 0 0 .248-.302q-.05-.518-.05-1.056a.27.27 0 0 0-.277-.271.28.28 0 0 0-.275.28c0 .367.018.738.053 1.101a.276.276 0 0 0 .273.248Zm-.111.85q.108.546.272 1.079a.276.276 0 1 0 .527-.162q-.154-.506-.258-1.024a.276.276 0 1 0-.541.108Zm4.782 6.789a.275.275 0 0 0 .08.382q.467.304.96.56a.276.276 0 0 0 .255-.49 10 10 0 0 1-.911-.533.275.275 0 0 0-.384.081Zm-1.653-1.4a.276.276 0 0 0 .003.39q.398.39.831.74a.277.277 0 0 0 .347-.43 11 11 0 0 1-.79-.703.276.276 0 0 0-.391.003Zm3.551 2.447a.275.275 0 0 0 .155.358q.517.206 1.052.359a.275.275 0 1 0 .152-.53q-.509-.147-1-.341a.276.276 0 0 0-.359.154ZM5.002.743q-.041.265-.07.532a.273.273 0 0 1-.273.248h-.027a.28.28 0 0 1-.248-.304q.018-.19.047-.378.267-.14.548-.25h.003q.03.073.02.151ZM1.178 3.817a.27.27 0 0 1 .138.26 9 9 0 0 0-.025.535.28.28 0 0 1-.276.27H1.01a.276.276 0 0 1-.268-.248zm1 5.26q-.23-.526-.403-1.074a.276.276 0 1 0-.527.166q.182.577.424 1.13a.276.276 0 1 0 .505-.22zM1.49 6.893a11 11 0 0 1-.161-1.135.276.276 0 1 0-.55.048Q.833 6.408.95 7a.276.276 0 1 0 .541-.107Zm5.23 7.197a11 11 0 0 1-.967-.614.275.275 0 1 0-.321.449q.491.35 1.017.646a.276.276 0 0 0 .271-.48Zm-2.678-2.136a.276.276 0 0 0-.409.37q.406.447.856.849a.276.276 0 1 0 .366-.412 11 11 0 0 1-.813-.807Zm4.781 3.034a11 11 0 0 1-1.076-.391.275.275 0 0 0-.217.507q.555.237 1.133.414a.28.28 0 0 0 .26-.056.276.276 0 0 0-.1-.473Zm-6.128-4.886a.276.276 0 1 0-.478.276q.3.523.656 1.012a.276.276 0 1 0 .446-.325q-.337-.465-.624-.963Zm8.001 5.432a7 7 0 0 1-.89.26.274.274 0 0 1 .137-.53q.265.048.53.085a.27.27 0 0 1 .223.185ZM2.483 2.21a.27.27 0 0 1 .074.232q-.036.263-.06.535a.276.276 0 0 1-.276.25q-.013.001-.025-.002a.273.273 0 0 1-.248-.298l.016-.177zM8.38 14.053a.275.275 0 0 0 .37-.133.275.275 0 0 0-.137-.367 11 11 0 0 1-.958-.507.276.276 0 0 0-.283.475q.49.291 1.008.532Zm-2.463-2.298a.275.275 0 1 0-.373.407q.421.386.88.726a.27.27 0 0 0 .325.003.276.276 0 0 0 .005-.444q-.436-.325-.837-.692Zm4.741 2.503a11 11 0 0 1-1.04-.3.276.276 0 1 0-.18.522q.538.187 1.095.316a.275.275 0 0 0 .125-.537Zm-6.876-4.65a.275.275 0 0 0 .1-.378 11 11 0 0 1-.495-.965.276.276 0 0 0-.502.226q.235.521.52 1.015a.276.276 0 0 0 .377.1zm.692.532a.276.276 0 0 0-.446.323q.335.463.715.889a.276.276 0 0 0 .412-.368q-.362-.405-.681-.844ZM2.252 5.449l.032-.002a.275.275 0 0 0 .242-.306q-.063-.54-.07-1.082a.276.276 0 1 0-.552.008q.008.57.073 1.137a.276.276 0 0 0 .275.245ZM2.377 6a.276.276 0 0 0-.21.33q.123.556.303 1.1a.276.276 0 0 0 .524-.174q-.171-.515-.288-1.046a.276.276 0 0 0-.33-.21Zm10.103 8.632a9 9 0 0 1-.634.389h-.006l-.176-.022a.276.276 0 0 1 .071-.547q.264.033.535.053a.26.26 0 0 1 .21.127ZM6.105.326q-.025.268-.041.538a.273.273 0 0 1-.274.259h-.016a.276.276 0 0 1-.26-.29q.011-.224.034-.45.27-.087.549-.154a.3.3 0 0 1 .008.097ZM8.962 9.53a.276.276 0 0 0 .381-.4 11 11 0 0 1-.786-.835.276.276 0 1 0-.42.356q.389.462.825.879Zm2.972 2.036q.547.257 1.117.452a.27.27 0 0 0 .268-.05.276.276 0 0 0-.09-.471 11 11 0 0 1-1.06-.43.276.276 0 1 0-.235.5Zm-1.062-.57a.276.276 0 0 0 .287-.471 11 11 0 0 1-.945-.648.276.276 0 0 0-.336.437q.478.368.994.682Zm-4.084-4.34q.282.534.62 1.034a.276.276 0 0 0 .458-.309q-.322-.474-.59-.982a.276.276 0 0 0-.488.258zM5.775 1.749a.276.276 0 0 0-.26.29q.03.603.127 1.2a.276.276 0 0 0 .545-.09 11 11 0 0 1-.122-1.139.276.276 0 0 0-.29-.261Zm.124 2.668q.16.582.384 1.144a.276.276 0 1 0 .513-.203A11 11 0 0 1 6.43 4.27a.276.276 0 0 0-.532.147Zm9.058 7.533a8 8 0 0 1-.3.489 7 7 0 0 1-.439-.089.275.275 0 1 1 .121-.538q.261.058.527.103a.2.2 0 0 1 .091.035Z" fill="#bababa" stroke="#c1c0c0" stroke-width=".2" mask="url(#b)"/><path d="M13.597 4.512c-.62-.771-1.509-1.087-1.984-.705-.474.382-.356 1.317.265 2.089.62.771 1.51 1.087 1.984.705.475-.382.356-1.317-.265-2.089M9.974 1.886c-.447-.093-.87.122-.944.48-.074.359.228.724.676.817.447.092.87-.123.944-.48.075-.359-.228-.724-.676-.817" fill="#fff"/></g><defs><clipPath id="a"><path fill="#fff" d="M0 0h16v16H0z"/></clipPath></defs></svg>