<svg xmlns="http://www.w3.org/2000/svg" width="32" height="32" viewBox="0 0 60 60" xml:space="preserve"><path d="M30 0a30 30 0 1 0 30 30A30.034 30.034 0 0 0 30 0M8.206 47.552A27.98 27.98 0 0 1 47.551 8.206Zm1.314 1.514L49.066 9.52q.732.681 1.414 1.414L10.934 50.48q-.734-.68-1.414-1.414M58 30a27.98 27.98 0 0 1-45.552 21.794l39.346-39.346A27.87 27.87 0 0 1 58 30" data-original="#000000"/><path d="m25.758 24.343-1.415 1.414a1 1 0 0 0 1.414 1.415l1.415-1.414a1 1 0 1 0-1.414-1.415M30 20.1l-1.414 1.414A1 1 0 1 0 30 22.929l1.414-1.414A1 1 0 0 0 30 20.1m4.243-4.243-1.415 1.414a1 1 0 0 0 1.414 1.416l1.415-1.415a1 1 0 0 0-1.414-1.415m4.242-4.242-1.414 1.414a1 1 0 1 0 1.414 1.414l1.415-1.414a1 1 0 1 0-1.414-1.414Zm5.657-4.242a1 1 0 0 0-1.414 0l-1.415 1.414a1 1 0 0 0 1.415 1.413l1.414-1.414a1 1 0 0 0 0-1.413M8.787 41.313l-1.414 1.415a1 1 0 1 0 1.414 1.414l1.413-1.414a1 1 0 1 0-1.414-1.415Zm4.242-4.242-1.414 1.414a1 1 0 1 0 1.414 1.415l1.414-1.414a1 1 0 1 0-1.414-1.414Zm4.243-4.243-1.414 1.415a1 1 0 1 0 1.414 1.414l1.415-1.415a1 1 0 1 0-1.415-1.414m4.243-4.242L20.1 30a1 1 0 1 0 1.414 1.414L22.929 30a1 1 0 1 0-1.414-1.414m12.02 7.364a1 1 0 0 0 .707-.293l1.415-1.415a1 1 0 1 0-1.414-1.414l-1.415 1.415a1 1 0 0 0 .707 1.707m4.243-4.243a1 1 0 0 0 .707-.293L39.9 30a1 1 0 0 0-1.414-1.414L37.071 30a1 1 0 0 0 .707 1.707m4.243-4.243a1 1 0 0 0 .707-.293l1.414-1.414a1 1 0 0 0-1.414-1.414l-1.415 1.414a1 1 0 0 0 .708 1.707m4.243-4.242a1 1 0 0 0 .707-.293l1.414-1.414a1 1 0 0 0-1.414-1.415l-1.414 1.414a1 1 0 0 0 .707 1.707Zm4.242-4.243a1 1 0 0 0 .707-.293l1.414-1.414a1 1 0 1 0-1.414-1.414L49.8 17.272a1 1 0 0 0 .707 1.707ZM15.858 52.627a1 1 0 0 0 1.414 0l1.415-1.414a1 1 0 1 0-1.415-1.413l-1.414 1.414a1 1 0 0 0 0 1.413m4.95-3.949a1 1 0 0 0 .707-.293l1.414-1.414a1 1 0 1 0-1.414-1.414L20.1 46.971a1 1 0 0 0 .707 1.707Zm4.242-4.243a1 1 0 0 0 .707-.293l1.415-1.414a1 1 0 1 0-1.414-1.415l-1.415 1.415a1 1 0 0 0 .707 1.707m4.243-4.243A1 1 0 0 0 30 39.9l1.414-1.414A1 1 0 0 0 30 37.071l-1.414 1.414a1 1 0 0 0 .707 1.707" data-original="#000000"/></svg>