<svg xmlns="http://www.w3.org/2000/svg" width="32" height="32" viewBox="0 0 497.002 497.002" xml:space="preserve"><path fill="#ff7a3c" d="m418.363 439.577 53.033 53.033c5.855 5.855 15.358 5.855 21.213 0s5.855-15.358 0-21.213l-53.033-53.033h-21.213z" data-original="#ff7a3c"/><path fill="#ff372b" d="m397.15 418.364 21.213 21.213 21.214-21.213-21.214-21.213H397.15z" data-original="#ff372b"/><path fill="#ffba48" d="m375.937 397.151 21.213 21.213 21.213-21.213-21.213-21.213h-21.213z" data-original="#ffba48"/><path fill="#0ab84f" d="m344.043 365.332 21.21-21.21 31.815 31.815-21.21 21.21z" data-original="#0ab84f"/><path fill="#ffba48" d="m322.747 227.289-53.033 53.033L29.999 40.607 8.786 61.82c-11.717 11.717-11.71 30.717 0 42.426l287.602 287.602c11.717 11.717 30.71 11.717 42.426 0l21.213-21.213 5.146-100.92z" data-original="#ffba48"/><path fill="#ffd185" d="M104.245 8.787c-11.71-11.71-30.71-11.717-42.426 0l-31.82 31.82c-11.717 11.717-11.71 30.717 0 42.426l218.502 218.502 74.246-74.246zm186.682 335.174 26.673 26.673c11.717 11.717 30.71 11.717 42.426 0l31.82-31.82c11.717-11.717 11.717-30.71 0-42.426l-26.673-26.673z" data-original="#ffd185"/><path fill="#ff7a3c" d="M78.638 439.577 25.605 492.61c-5.855 5.855-15.358 5.855-21.213 0s-5.855-15.358 0-21.213l53.033-53.033h21.213z" data-original="#ff7a3c"/><path fill="#ff372b" d="m99.852 418.364-21.214 21.213-21.213-21.213 21.213-21.213h21.214z" data-original="#ff372b"/><path fill="#ffba48" d="m121.065 397.151-21.213 21.213-21.214-21.213 21.214-21.213h21.213z" data-original="#ffba48"/><path fill="#0ab84f" d="m99.803 375.911 31.815-31.815 21.21 21.21-31.815 31.815z" data-original="#0ab84f"/><path fill="#ffd185" d="m488.216 61.82-21.213-21.213-330.028 330.028 21.213 21.213c11.717 11.717 30.71 11.717 42.426 0l287.602-287.602c11.71-11.71 11.717-30.709 0-42.426" data-original="#ffd185"/><path fill="#ffe8c2" d="m467.003 40.607-31.82-31.82c-11.717-11.717-30.717-11.71-42.426 0L105.155 296.388c-11.717 11.717-11.717 30.71 0 42.426l31.82 31.82c11.717 11.717 30.71 11.717 42.426 0L467.003 83.033c11.709-11.71 11.716-30.71 0-42.426" data-original="#ffe8c2"/><circle cx="248.503" cy="37.5" r="37.5" fill="#ff372b" data-original="#ff372b"/></svg>