<svg xmlns="http://www.w3.org/2000/svg" width="64" height="64" viewBox="0 0 300 300" xml:space="preserve"><path fill="#099053" d="M153.162 168.262c-1.176 1.668-8.036 12.202-7.75 13.652l.06.087c-.897 3.891.499 4.483-1.879 21.264-.236 1.683-.364 3.528-.826 5.158l.018.158.012.008c.079.522.278 2.265-.184 4.895-1.477 8.434-15.998 27.14-56.49 42.837 0 0-10.094-13.206-9.438-13.935 10.402-9.873 26.858-25.033 40.67-29.048-2.082-19.566-1.965-24.727-2.627-29.511-.172-1.24-.879-2.427-1.345-3.584-3.397-8.486-.702-24.066 7.342-28.26.943 1.003 1.938 1.897 3.069 2.686 1.676 2.983 10.726 6.48 14.16 7.454 4.948 1.401 11.09 1.717 16.099.345 1.532-.417 3.114-1.225 4.52-1.968l.078.3c-1.713 2.581-3.708 4.933-5.489 7.462" data-original="#099053"/><path fill="#1d5087" d="M92.776 277.21c-2.216 1.296-6.713.744-9.11.135-3.588-.913-9.25-4.96-11.06-8.149-1.255-2.209-1.68-5.02-2.499-7.416-1.142-3.34-4.362-8.393-3.317-11.943.94-3.211 5.84-5.087 8.235-6.523.995-.6 1.698-1.337 3.024-.845.962.357 1.69 1.138 2.375 1.901 2.586 3.018 12.7 14.144 9.475 15.716l-.308 1.608c.208.937.335 1.812.815 2.855l.781 1.863.744 1.593c1.957 3.01 3.94 7.38.845 9.205" data-original="#0079fb"/><path fill="#0834b1" d="M72.016 252.865c.074-.864.336-2.004 1.008-2.596 1.736-1.53 4.115-1.956 6.445-1.914 6.451.116 9.98 3.641 10.548 7.284.103.66.29 2.045-.153 2.62-.482.627-1.796.052-2.374-.118-4.25-1.249-3.165-1.005-7.697-1.368-2.197-.21-5.109.548-6.813-1.096-.746-.72-1.053-1.778-.964-2.812m8.614-8.262c-.665 1.026-1.645 1.834-2.648 2.54-.76.53-1.699 1.037-2.563.71-.984-.368-1.307-1.646-1.093-2.675.139-.65.425-1.255.699-1.864.995-.6 1.698-1.337 3.024-.845 1 .371 1.838 1.266 2.581 2.134" data-original="#0834b1"/><path fill="#f8ff10" d="M152.756 221.332c-1.386 2.048-6.766 7.18-8.806 8.972-.766.673-1.728 1.202-2.43 1.916-.027.89.018 1.931-.654 2.623-1.1 1.126-3.05.278-4.043 1.25.019.853.113 1.48-.53 2.146-.76.784-2.209.964-3.257.766-.255.124-.537.233-.759.406-.908 2.36-2.353 1.847-5.658 1.961-3.982 2.81-8.025 4.46-12.345 6.579-2.75 1.352-5.504 2.953-8.393 3.974-2.348 1.109-4.648 2.307-7.003 3.393-2.739 1.262-5.756 2.397-8.254 4.091-.201-.12-3.474-5.548-13.154-4.976-.759.044-1.521.132-2.275.042-2-.239-2.868-1.666-2.467-3.461.418-1.875 1.865-2.946 3.27-4.123 2.206-1.755 4.61-3.32 5.67-4.26l1.156-.917c2.863-2.013 24.053-17.061 26.994-18.304.868-.368 1.957-.229 2.694-.845.203-.417.09-.733-.008-1.161 1.064-.579 2.168-1.12 3.115-1.879.146-.24.387-.364.62-.522.334-.143.642-.387.947-.59.552-.39 1.168-.646 1.784-.928l.65-.375 1.646-.71c4.997-2.358 10.99-7.857 14.043-9.137 2.145-.898 3.742-.534 5.8.289l1.658.871.018.158c2.29 1.656 4.494 3.297 6.79 5.816.987 1.084 2.202 2.127 3.223 3.445.611 1.12.692 2.41-.042 3.49" data-original="#ffcc00"/><path fill="#099053" d="m142.797 208.589-.012-.008-.018-.158z" data-original="#099053"/><path fill="#feac95" d="M121.218 219.986c-.064.694-.498 1.312-1.045 1.745-.546.432-1.2.703-1.85.953-1.07.412-2.211.79-3.345.615-1.827-.28-2.342-1.706-3.258-3.028-.816-1.177-1.427-2.49-2.206-3.691 2.652-1.383 5.282-2.499 7.84-3.242.11-.032 1.393 2.534 1.548 2.78.834 1.32 2.465 2.234 2.316 3.868" data-original="#ff400d"/><path fill="#ede4bc" d="m149.574 214.398 1.155 1.185c-4.14 3.425-15.523 12.185-17.12 14.003-.424-.241-.791-.524-1.174-.824 1.842-2.682 4.514-4.486 17.139-14.364m-21.056 11.1c5.298-4.9 14.1-11.447 16.923-14.94l1.562 1.31c-1.508 2.393-10.207 8.49-17.178 14.865-.48-.35-.889-.814-1.307-1.235m24.764-5.526c-.537.14-.958.35-1.408.67-2.427 1.731-4.644 3.824-6.955 5.713-2.242 1.83-4.58 3.464-6.886 5.193a12.4 12.4 0 0 1-1.852-.673c1.83-1.822 4.294-3.329 6.345-4.918 3.453-2.667 6.808-5.459 10.272-8.115.398.73.496 1.311.484 2.13" data-original="#ff8c19"/><path fill="#0834b1" d="M91.93 268.005c-1.537.11-3.049-.27-4.58-.309-1.908-.048-4.87.384-5.52-.431l.034-.28c.196-.242.37-.395.653-.52 2.469-1.093 6.174-.979 8.671-.053zm-1.389-3.133c-1.45.056-2.874-.286-4.317-.323-1.926-.048-4.877.387-5.522-.432l.033-.278c.2-.24.372-.395.654-.522 2.423-1.071 6.041-.981 8.532-.102.154.44.29.91.485 1.334zm-.951-3.178q.024.101.042.202c-1.323-.007-2.63-.293-3.949-.33-1.918-.048-4.863.386-5.522-.429l.037-.281c.196-.24.368-.395.65-.523 2.378-1.048 6.48-.886 9.013-.048z" data-original="#0834b1"/><path fill="#feac95" d="M117.185 218.415c2.395 3.448 9.484 16.83 19.64 17.678.018.853.111 1.48-.533 2.146-.757.78-2.215.971-3.257.765-1.205-.669-2.629-1.036-3.874-1.689-6.6-3.458-12.892-11.962-13.605-15.972-.102-.572.008-1.243.063-1.82.147-.24.389-.362.618-.519.337-.142.644-.386.948-.589" data-original="#ff400d"/><path fill="#feac95" d="M121.266 216.4c1.559 2.118 3.439 5.158 5.171 7.016l2.081 2.082c.418.42.828.885 1.307 1.235.84.68 1.688 1.469 2.61 2.029.383.3.75.583 1.173.824 1.079.556 2.743 1.512 4.423 1.96.686.188 3.152.34 3.489.675-.026.891.02 1.932-.654 2.623-1.099 1.126-3.049.278-4.041 1.249-6.826-.57-12.485-6.921-16.295-12.51-1.156-1.697-2.174-3.482-3.345-5.168.553-.394 1.17-.649 1.786-.928l.647-.377z" data-original="#ff400d"/><path fill="#f8ff10" d="M117.185 218.415c.553-.394 1.17-.649 1.786-.928 1.158 2.058 2.567 3.914 3.988 5.796 4.03 5.339 8.536 10.467 15.3 12.167.215.054.408.063.628.074-.713.047-1.517.036-2.062.569-6.826-.57-12.485-6.921-16.295-12.51-1.156-1.697-2.174-3.482-3.345-5.168" data-original="#ffcc00"/><path fill="#feac95" d="M129.234 238.825c-7.356-2.521-13.19-9.389-16.508-16.193-.545 1.454-.759 2.645-.631 4.197-2.21 2.22-5.072 3.67-7.672 5.376l-14.84 9.663c-5.02 3.299-9.75 6.992-14.723 10.34l.082.048c4.343-2.085 8.397-4.786 12.541-7.228a1063 1063 0 0 0 25.589-15.592c.759 1.033 1.593 2.037 2.318 3.092-2.91 2.373-28.162 18.369-31.77 20.352-1.089.6-2.212 1.198-3.414 1.533 1.442.06 2.817.3 4.219.646.466-.598 9.813-6.158 11.237-7.067 7.07-4.512 14.05-9.186 21.152-13.65.706.839 1.393 1.722 2.167 2.492-31.06 18.786-30.94 18.553-32.554 19.033 3.084 1.82 3.686 3.057 4.197 3.542 2.498-1.694 5.515-2.829 8.254-4.09 2.355-1.087 4.655-2.285 7.003-3.394 2.889-1.021 5.643-2.622 8.393-3.974 4.32-2.12 8.363-3.769 12.345-6.579 2.427-.083 3.407.107 4.377-.357.744-.36.992-.853 1.281-1.604-1.067-.038-2.032-.24-3.043-.586m-17.954 7.69c-9.04 5.207-1.872 1.438-14.31 7.867-4.41 2.28-6.16 3.526-7.364 3.066l-.03-.251c.816-1.158 6.126-3.921 13.829-8.382 3.133-1.811 6.173-3.78 9.31-5.59 2.626-1.515 5.47-2.882 7.92-4.667l.13-.098c.756.508 1.507 1.026 2.3 1.473-3.87 2.296-7.89 4.336-11.785 6.582" data-original="#ff400d"/><path fill="#f8ff10" d="M124.431 240.52c1.522.64 2.87.765 4.493.819-.766.01-1.537.005-2.303.033-3.984 2.81-8.028 4.461-12.346 6.58-2.75 1.35-5.504 2.95-8.395 3.974.504-1.006 15.985-8.923 18.551-11.407z" data-original="#ffcc00"/><path fill="#ede4bc" d="m141.11 207.553 1.656.872.02.155c-.092.285-.175.544-.367.78-1.232 1.516-12.094 10.648-15.982 14.056-.41-.44-.786-.892-1.152-1.37 2.729-2.536 14.59-12.4 15.825-14.493" data-original="#ff8c19"/><path fill="#099053" d="m211.257 252.661.01.047-11.301 11.913-6.11-8.712s-5.033-13.687-6.551-17.68c-2.954-7.777-6.741-15.421-5.346-29.26 0-1.517-.226-4.73-.59-6.864-3.185-.141-12.774-6.144-15.472-7.758-25.635-15.337-17.569-9.603-41.085-28.079-2.97-2.333-6.252-5.374-5.794-9.122.243-1.995 1.582-3.735 3.243-4.867 1.662-1.131 3.625-1.728 5.583-2.184 14.514-3.376 28.685.634 40.383 9.425 7.228 5.433 20.333 17.977 20.333 17.977s14.873 11.74 17.12 35.59c1.445 15.367 3.568 29.429 5.354 38.47.137.695 1.175 2.473 1.334 3.162-1.736-.359-4.446-.644-5.332.891-.584 1.012-.737 2.238-1.382 3.213-.83 1.255-2.4 1.9-3.904 1.855-3.135-.094-5.419-2.575-7.363-4.759" data-original="#099053"/><path fill="#1d5087" d="M210.57 253.852c.665.075 1.634.053 2.229.374.558.302 1.053 1.017 1.58 1.41l1.443 1.113 1.833 1.208a217 217 0 0 0 4.74 2.72c2.844 1.813 2.74 1.89 4.544 2.846 4.319 1.712 7.31 6.465 6.27 8.904-.284.664-1.003 1.446-1.687 1.697-4.105 1.51-13.64.17-21.191-.337-6.58-.443-16.333.195-17.686-3.646-.83-2.36-.498-5.284-.235-7.713a36 36 0 0 1 .684-4.138c.366-1.605.972-2.296 2.595-2.848a34.3 34.3 0 0 1 14.881-1.59" data-original="#0079fb"/><path fill="#f8ff10" d="M215.377 253.159c-.064.89-.583 1.705-1 2.476-.567-.421-1.074-.898-1.593-1.38-.41-.77-.732-1.153-1.517-1.547l-.917-.154c-7.845 1.554-3.789 7.672-7.097 10.948-.819.514-1.383.604-2.344.53-.98-.369-1.804-.737-2.593-1.436-.92-2.138-5.252-21.704-6.578-26.885-.988-3.854-2.033-7.713-2.731-11.631-.756-4.23-.797-8.555-1.552-12.77a51 51 0 0 0-.327-2.626l-.687-2.713.06-.124-.534-3.674-.203-.77-.146-1.037c-.238-1.526-.149-.381-.605-4.122-.699-6.642-.372-13.059 3.547-18.747l.383-.47c.754-.524.588-.92 4.301-2.783.738-.258 1.594-.903 4.543-1.417a20.6 20.6 0 0 1 3.967-.312c4.525.082 4.305 1.257 5.737 6.83a787 787 0 0 0 1.908 7.233c.286 1.097.444 2.291.868 3.34.785.447 1.281.86 1.51 1.765.188.74.106 1.593-.045 2.337-.022.556-.067 1.12-.052 1.676.32 1.243.56 2.464.597 3.753.307 2.809.571 4.374-.436 5.594-.199.24-.458.489-.725.654-.139 4.752.928 11.113 1.462 15.944.383 3.45.563 6.917.883 10.374.364 3.918.868 7.818 1.194 11.74.233 2.829.928 6.665.722 9.404" data-original="#ffcc00"/><path fill="#ede4bc" d="M204.947 191.913c-.759.248-1.578.454-2.306.792-1.094-3.618-1.928-7.367-2.83-11.049-.702-2.885-1.54-5.865-2.024-8.829a20 20 0 0 1 2.37-.278c-.192 2.266 1.153 5.926 2.063 9.423.759 2.93 1.42 7.39 2.727 9.94z" data-original="#ff8c19"/><path fill="#1f4d2e" d="M160.351 154.617c.525 2.126-.24 4.85-1.082 6.833-1.932 4.928-6.711 14.08-4.48 19.317.47 1.102 1.193 2.051 2.048 2.883 3.794 3.693 13.73 9.367 18.605 11.722 4.953 2.392 9.465 3.938 10.037 4.191l.14.802.146 1.038c-1.376.295-3.246.917-4.638.672-3.884-.686-11.576-5.542-15.228-7.727l-12.432-7.356c-2.6-1.545-5.198-3.253-7.91-4.588l-.06-.088c-.286-1.449 6.574-11.982 7.749-13.652 1.78-2.529 3.776-4.88 5.488-7.463l-.076-.298c-1.405.744-2.989 1.55-4.523 1.97-5.007 1.37-11.15 1.055-16.098-.348-3.432-.973-12.484-4.469-14.158-7.455 6.651 3.985 15.092 5.664 22.793 4.91l.406.01c1.9.051 3.757-.363 5.584-.854 2.704-.727 6.208-1.955 7.69-4.519z" data-original="#1f4d2e"/><path fill="#feac95" d="M181.959 208.97c0-1.518-.226-4.731-.59-6.865a4.4 4.4 0 0 1-.639-.112l6.207-2.544.518 7.165z" data-original="#ff400d"/><path fill="#ede4bc" d="M202.023 172.561c.875.04 1.707.055 2.546.328-.272 2.242.777 4.301 2.037 8.572.76 2.577 1.42 6.5 2.727 8.741-.758.22-1.578.402-2.307.699-1.091-3.182-1.926-6.477-2.827-9.718-.784-2.815-1.726-5.735-2.176-8.622m-8.78 1.684 1.681-.717c1.394 4.698 2.769 9.355 3.95 14.112.252 1.015.846 4.367 1.38 5.069-.65.166-1.338.299-1.967.532-1.124-3.506-1.997-7.13-2.951-10.687-.727-2.71-1.647-5.542-2.093-8.31zm-4.3 2.781 1.253-1.066c1.013 3.794 2.183 7.542 3.203 11.332.595 2.213.993 4.53 1.662 6.713l-1.885.334c-1.7-5.57-2.902-11.285-4.616-16.844zm15.127 30.808 2.453-.725c3.815 35.084 6.183 43.81 5.273 45.048-.15.204-.377.35-.529.551l-.918-.156c-1.507-3.257-2.164-16.094-5.194-37.966-.229-1.655-.47-5.403-1.086-6.752z" data-original="#ff8c19"/><path fill="#feac95" d="M210.268 189.916c1.191.68 1.976 1.56 1.465 4.104-.022.555-.066 1.119-.053 1.674.635 2.476.5 2.955.772 5.509.112 1.343.313 2.72-.61 3.84-.2.24-.46.489-.725.656-1.477.51-3.059 1.125-4.594 1.41l-2.454.725c-3.188.898-4.283.924-5.167 1.227a191 191 0 0 1-11.446 2.248c-.415-3.776-.384-2.576-.52-3.38l-.494-1.957.06-.123-.311-2.222-.225-1.455-.2-.77-.148-1.037c-.235-1.515-.132-.26-.604-4.121 2.678-.908 7.103-1.703 10.047-2.239 1.065-.295 2.148-.523 3.226-.764.798-.296 3.444-.9 4.618-1.138l2.07-.602c.638-.286 1.375-.423 2.05-.6.73-.297 1.55-.48 2.308-.699z" data-original="#ff400d"/><path fill="#f8ff10" d="M186.501 205.849c2.948-.952 15.03-2.88 25.778-6.4l.173 1.754c-2.088 1.106-4.455 1.659-6.729 2.258-13.17 3.373-15.794 3.464-18.787 4.468l-.494-1.957zm-.883-5.484c2.328-.906 5.127-1.243 7.562-1.847l11.866-2.99c2.198-.548 4.435-1.235 6.687-1.508-.022.555-.066 1.119-.053 1.674-4.126 1.214-7.393 2.56-19.344 5.176-2.09.462-4.247 1.048-6.37 1.302l-.2-.77z" data-original="#ffcc00"/><path fill="#0834b1" d="m215.822 256.75 1.833 1.207c-.618.64-1.472 1.132-2.191 1.66a26 26 0 0 0-2.592 2.197c-.708-.325-1.859-.738-2.294-1.414-.226-.35-.211-.535-.144-.931.822-1.15 3.998-1.947 5.388-2.72zm3.793 2.373 2.78 1.553c-.192.142-.39.279-.58.424-1.208.925-2.792 1.257-3.929 2.155-.414.328-.7.93-1.067 1.337-.275.085-.483.15-.775.087-.825-.179-1.292-1.147-1.04-2.026.516-1.795 3.133-2.643 4.611-3.53m4.717 2.817c.844.591 1.695 1.1 2.607 1.583-.45 1.146-3.116 2.536-4.243 2.996-1.009.412-2.027.432-3.025.001-.194-.231-.364-.341-.28-.673.4-1.563 3.633-3.187 4.94-3.908z" data-original="#0834b1"/><path fill="#ede4bc" d="M198.902 209.061c.593-.204 1.283-.292 1.9-.427 1.283 5.517 1.77 11.48 2.64 17.101a666 666 0 0 1 2.58 17.97c.436 3.283 1.057 6.676 1.069 9.99l-1.542 4.074c-1.007-5.478-2.099-15.175-2.872-20.692a1509 1509 0 0 1-3.775-28.016m-5.842 1.225c.713-.164 1.449-.278 2.17-.413.29 1.95 3.235 18.753 5.698 35.545.579 3.748 1.427 7.457 1.85 11.229.254 2.28.295 4.569.476 6.853-.82.518-1.383.607-2.345.53l.919-.134c.175-1.342-2.774-15.254-3.221-17.884a1032 1032 0 0 1-4.167-26.618c-.287-1.893-.839-7.84-1.38-9.108" data-original="#ff8c19"/><path fill="#feac95" d="m210.349 252.552.918.156c.785.395 1.106.78 1.516 1.546-1.057-.424-1.952-.697-3.078-.25-1.28.507-2.136 1.861-2.63 3.084-1.005 2.488-.649 6.491-3.551 7.788-1.116.498-2.485.228-3.558-.254-.93-.417-1.322-1.1-1.651-2.027.791.7 1.615 1.067 2.594 1.435.962.077 1.525-.012 2.345-.53 3.318-3.28-.762-9.381 7.095-10.948M184.86 102.361l9.5 2.592a2.95 2.95 0 0 0 3.074-.993l1.29-1.594 7.41 13.573-4.015 2.79a13.36 13.36 0 0 1-9.98 2.178l-15.174-2.721 2.357-9.292" data-original="#ff400d"/><path fill="#0834b1" d="M213.951 111.7c-1.416 1.86-3.347 3.299-5.45 4.317-2.8 1.345-4.316.848-6.035-1.552-2.004-2.799-3.273-6.096-3.697-8.637-.468-2.234-.377-4.995 1.657-6.075 1.127-.887 2.619-1.578 4.05-2.029 3.813-2.08 4.977-2.888 8.194.267 1.067 1.037 2.138 2.089 2.99 3.31 2.792 4.005 1.57 7.815-1.709 10.4z" data-original="#0834b1"/><path fill="#f8ff10" d="M167.282 138.405c-1.87 2.517-3.79 4.775-5.128 7.664-.944 2.033-2.178 4.732-2.202 6.961-.01 1.178 1.284 1.96-2.028 4.118-2.605 1.714-7.997 3.113-10.937 3.032-.1-.002-.506-.01-.405-.007l-.083.007c-7.68.733-16.084-.95-22.711-4.918-1.13-.789-2.126-1.683-3.07-2.686-.244-.413-.492-.864-.627-1.326-.71-2.382 1.5-4.82 2.547-6.79 2.526-4.808 2.418-9.077 2.457-14.475.09-11.475 3.089-23.657 13.402-28.673 4.793-2.33 10.55-4.084 15.873-4.43 5.579-.364 11.567 1.237 15.242 5.452 5.893 6.774 7.167 23.324-2.33 36.07z" data-original="#ffcc00"/><path fill="#feac95" d="M159.952 153.03c-.01 1.178 1.284 1.96-2.028 4.118-2.605 1.714-7.997 3.113-10.937 3.032-.1-.002-.506-.01-.405-.007l-.083.007a33.4 33.4 0 0 0 13.803-9.415c-.207.778-.342 1.544-.35 2.265m-13.664-56.145c1.03 6.37 4.318 12.35 9.146 16.63 3.966 3.517 7.733 3.482 9.383-1.552 2.16-6.594.187-14.354-4.86-19.115m7.45 31.773s6.297 3.09 10.114 6.134c0 0 27.182-8.126 31.722-7.343s4.967 5.905 4.967 5.905-11.092 9.863-32.633 17.106c0 0-7.086 2.693-26.544-9.9" data-original="#ff400d"/><path fill="#f8ff10" d="M169.743 123.41s-4.001 7.342-10.05 12.89a30.3 30.3 0 0 1-3.866 3.051s-22.77-11.601-22.098-19.502c.094-1.097.304-2.21.676-3.25 2.31-6.462 10.786-10.373 35.338 6.812z" data-original="#ffcc00"/><path fill="#099053" d="M159.693 136.3a30.3 30.3 0 0 1-3.866 3.051s-22.77-11.601-22.098-19.502c.094-1.097.304-2.21.676-3.25 12.221 12.467 23.507 18.48 25.288 19.702z" data-original="#099053"/><path fill="#f8ff10" d="M173.62 117.882c.597.259 5.342 1.552 5.342 1.552 3.168-4.904 5.304-10.484 5.899-17.073 0 0-8.716-4.802-21.142-4.1" data-original="#ffcc00"/><path fill="#ede4bc" d="m177.456 26.285 26.747 46.625 1.836 3.506 4.852 9.262a7.02 7.02 0 0 1-2.658 9.306l-3.931 2.313a7.02 7.02 0 0 1-9.426-2.196c-5.563-8.472-7.293-10.78-36.325-57.514a7.99 7.99 0 0 1 2.626-11.274l5.146-3.207c3.938-2.317 9.013-.87 11.133 3.179" data-original="#ff8c19"/><path fill="#0ac407" d="m205.285 74.98 5.606 10.698a7.02 7.02 0 0 1-1.785 8.701l18.384 31.248c4.6-.842 4.557 3.413.038 6.072-4.252 2.5-7.89.871-5.67-2.471l-18.51-31.461a7.02 7.02 0 0 1-8.472-2.666l-6.63-10.096z" data-original="#0ac407"/><path fill="#1f4d2e" d="m204.203 72.91 1.836 3.506-16.903 9.944-2.173-3.307z" data-original="#1f4d2e"/><path fill="#1d5087" d="M221.683 106.964c-1.825 1.198-7.59 2.983-11.158 4.125-.548.176-1.104.353-1.68.345-1.276-.016-2.055-.971-1.619-2.273.173-.519.501-.959.816-1.393-.833.683-2.246.442-2.807-.477-.409-.671-.28-1.578.192-2.183a2 2 0 0 1-1.894-.184c-1.386-.969-1.444-3.326.579-4.91-.35.296-.789.424-1.24.413h-.004c-2.133-.052-3.144-2.518-1.788-4.742.661-1.074 1.702-1.86 2.758-2.55 2.559-1.67 7.707-4.297 10.88-4.505.856-.06 1.935.405 2.502 1.04.648.717.804 2.226.034 2.87.485-.405 1.274-.251 1.687.215.491.553.63 1.564-.128 2.709a7 7 0 0 1-.526.668c2.132-.794 4.417 1.398 3.23 3.69a2.5 2.5 0 0 1-.833.958c.39-.18.826-.214 1.247-.132a2.48 2.48 0 0 1 1.53.977c1 1.412.643 3.756-1.778 5.339" data-original="#0079fb"/><path fill="#0834b1" d="M218.52 92.443c-.166.196.523-.233-14.123 8.224-.311.177-.852.522-1.243.357-.202-.078-.392-.321-.286-.597h.004c.071-.2.263-.384.417-.519 1.491-1.293 7.854-5.32 14.33-7.87a1.3 1.3 0 0 1-.365.503c.345-.29.853-.297 1.266-.098m.962 3.557c-.101.101.473-.317-13.187 9.326-.297.21-.812.608-1.218.47-.197-.066-.392-.274-.338-.534.15-.723 2.664-2.5 3.472-3.126a65.6 65.6 0 0 1 10.602-6.672 7 7 0 0 1-.526.668 2.5 2.5 0 0 1 1.195-.131zm2.449 4.648c-14.545 8.19-13.914 7.932-14.4 7.867-.234-.024-.414-.207-.451-.364-.094-.3.218-.598.443-.79 1.46-1.239 7.725-5.098 13.995-7.54a2.5 2.5 0 0 1-.834.959c.39-.18.826-.214 1.247-.132" data-original="#0834b1"/><path fill="#1d5087" d="M207.292 121.776a38.7 38.7 0 0 1 11.492-12.37c.98-.675 2.02-1.315 3.185-1.563s2.487-.04 3.331.8.998 2.378.14 3.203c1.129-.627 2.713-.23 3.413.855s.41 2.692-.626 3.463c.95-.168 1.978.427 2.305 1.334.328.908-.082 2.022-.92 2.5.957-.344 2.074.36 2.397 1.323.324.965-.014 2.055-.634 2.86-.62.807-1.491 1.378-2.36 1.907a49.6 49.6 0 0 1-9.493 4.477c-.9.312-1.834.603-2.786.55s-1.934-.513-2.36-1.366" data-original="#0079fb"/><path fill="#0834b1" d="M211.769 131.24c.58.805 1.321 1.695 2.312 1.67.951-.025 1.685-.961 1.787-1.907s-.277-1.875-.715-2.72a17.96 17.96 0 0 0-6.43-6.948c-.806-.5-2.212-1.024-2.841.047-.48.817.157 1.863.61 2.533 1.68 2.49 3.52 4.887 5.277 7.325" data-original="#0834b1"/><circle cx="80.161" cy="78.477" r="8.244" fill="#feac95" data-original="#ff400d"/><path fill="#feac95" d="M172.906 92.996c-.901 1.581-1.287 3.318-2.565 4.625-.18.184-.6.719-.784.895-.481.47-.87.922-1.382 1.357-1.65 1.406-3.482 2.579-5.289 3.777-1.792 1.195-4.271 1.808-6.401 2.127-3.152.47-6.38-1.082-8.483-3.475-2.108-2.39-3.216-5.52-3.769-8.656-.846-4.826-.476-10.038 1.27-15.01.564-1.596 1.187-3.689 2.435-4.91 3.02-2.96 8.01-4.313 12.135-4.038 11.489.767 18.764 13.025 12.833 23.308" data-original="#ff400d"/><path fill="#fff" d="M154.043 95.699c-1.841.713-4.035.43-5.637-.725.434 1.645 1.475 3.05 3.13 3.45 1.385.334 2.196-.252 2.405-1.37.088-.47.14-.88.102-1.355" data-original="#ffffff"/><path fill="#1f4d2e" d="M172.906 92.996c-.625-.66-1.535-1.813-2.667-1.548-.601.143-1.04.695-1.225 1.289-.345 1.09.023 3.81.023 5.26.074 1.924-1.264 2.075-2.063.413-2.948-6.115-3.659-7.333-3.798-9.1-.128-1.634.443-3.23 1.255-4.625.8-1.37 1.736-3.576 3.103-4.482 1.837-1.213 4.79-.762 6.594.24.03.02.06.035.09.057 1.344 4.106 1.01 8.472-1.312 12.496" data-original="#1f4d2e"/><path fill="#1d5087" d="M141.02 79.695c2.541-5.87 5.79-12.125 11.934-14.547 3.925-1.549 10.699-1.44 14.553.355 5.13 2.39 8.25 8.133 8.656 13.4.093 1.215.048 2.435-.002 3.651-.029.693.002 1.421-.083 2.108-.112.913-.27.757-1.17.75a112 112 0 0 1-26.405-3.364c-4.166-1.044-4.153.254-5.183 1.47-.477.563-1.495.45-2.253.485-1.57.074-3.722.201-5.027-.895-.163-.137-.249-.307-.341-.497.035-.446.144-.667.484-.955 1.27-1.075 3.288-1.531 4.836-1.96z" data-original="#0079fb"/><ellipse cx="153.52" cy="88.873" fill="#1f4d2e" rx="1.547" ry="1.806" data-original="#1f4d2e"/><ellipse cx="146.343" cy="87.757" fill="#1f4d2e" rx="1.547" ry="1.806" data-original="#1f4d2e"/><path fill="#1f4d2e" d="M148.814 108.027c-8.175-.633-11.224-15.88-11.35-16.528-.094-.486.643-.634.738-.143.03.153 3.064 15.333 10.67 15.921 7.725.599 22.457-6.823 23.956-15.469.086-.494.825-.358.74.128-1.568 9.046-16.465 16.737-24.754 16.09z" data-original="#1f4d2e"/><path fill="#1f4d2e" d="m172.083 95.334-34.265-3.827c-.491-.054-.415-.793.083-.747l34.265 3.827c.492.054.415.798-.083.747m-3.951 4.913-28.93-3.382c-.495-.058-.405-.803.087-.746l28.93 3.382a.375.375 0 1 1-.087.746m-5.873 4.161-20.833-2.449c-.492-.057-.407-.804.088-.746l20.833 2.45c.497.057.4.808-.088.745" data-original="#1f4d2e"/></svg>