<svg xmlns="http://www.w3.org/2000/svg" version="1.1" xmlns:xlink="http://www.w3.org/1999/xlink" width="64" height="64" x="0" y="0" viewBox="0 0 340 340" style="enable-background:new 0 0 512 512" xml:space="preserve"><g><path fill="#dae5ed" d="M97.123 217.24s-10.776 8.576-13.415 14.734l-5.794 17.2-42.588 71.067h54.32l45.523-41.641s20.233 20.172 29.909 41.644h55.2s-25.511-76.391-51.241-101.462a390.2 390.2 0 0 0-71.914-1.542z" opacity="1" data-original="#dae5ed"></path><g fill="#8294af"><path d="M177.635 228.955h-24.1s15.638 1.769 31.723 42.841c0 0 13.906 35.3-18.536 36.9a45.622 45.622 0 0 0-7.281.9 101.637 101.637 0 0 1 5.642 10.641h55.2S200.16 260 177.635 228.955z" fill="#8294af" opacity="1" data-original="#8294af"></path><path d="M177.631 320.241a126.014 126.014 0 0 0-27.158-39.257A6.014 6.014 0 0 1 150.9 272q.3-.24.6-.464a1.5 1.5 0 0 0-1.03-2.693l-1.413.121a16.422 16.422 0 0 0-7.55 3.883l-6.34 5.747s20.233 20.172 29.909 41.644zM179.541 231.659a86.182 86.182 0 0 0-10.5-12.88 390.2 390.2 0 0 0-71.914-1.539s18.064 9.317 43.657 9.787a48.41 48.41 0 0 1 11.23 1.552 101.932 101.932 0 0 0 27.527 3.08z" fill="#8294af" opacity="1" data-original="#8294af"></path></g><path fill="#6facdd" d="M243.032 177.49s-5.2-8.828 1.932-17.084a51.913 51.913 0 0 1 7.438-7.272 10.671 10.671 0 0 1 7.247-2.193c5.642.388 15.361 3.056 22.917 15.379 1.929 3.146 2.907 6.3 2.288 9.934-1.317 7.742-5.433 19.245-23.948 16.437z" opacity="1" data-original="#6facdd"></path><path fill="#3d73a0" d="M275.694 157c-6.656 3.951-21.828 11.747-33.88 9a15.568 15.568 0 0 0 1.218 11.489l17.981 16.565c18.515 2.809 23.487-9.673 24.8-17.416a15.306 15.306 0 0 0-2.058-10.542 33.1 33.1 0 0 0-8.061-9.096z" opacity="1" data-original="#3d73a0"></path><path fill="#d37976" d="m240.091 123.315 16.284-8.347 12.247 10.292 13.551-11.009s-7.292-13.46-13.912-22.124a10.576 10.576 0 0 0-10.005-4.01c-5.881.9-15.286 2.271-23.109 4.315 0 0-3.172 17.339 4.944 30.883z" opacity="1" data-original="#d37976"></path><path fill="#a04b4b" d="M257.24 109.541V104.5a.584.584 0 0 0-1.116-.242l-2.1 4.616a5.843 5.843 0 0 1-3.216 3.03l-13.4 5.158a36.7 36.7 0 0 0 3.325 7.374l15.542-8.372 11.411 9.962 4.045-3.287-13.319-10.749a3.145 3.145 0 0 1-1.172-2.449z" opacity="1" data-original="#a04b4b"></path><path fill="#dae5ed" d="M161.668 104s-25.891-.8-36.582 26.5c-8.778 22.417-19.031 47.506-22.419 55.769a14.33 14.33 0 0 1-3.338 4.9l-3.372 3.239a14.266 14.266 0 0 0-3.42 15.628 24.167 24.167 0 0 0 4.888 7.416 363.866 363.866 0 0 0 51.41 2.584c6.987-.177 13.028-2.323 19.711-2.994 0 0 15.926-25.247 29.452-45.822a177.989 177.989 0 0 1 13.344-18.337 323.2 323.2 0 0 1 28.793-28.4l1.044-8.879c0-7.552-1.014-18-6.032-23.173z" opacity="1" data-original="#dae5ed"></path><path fill="#8294af" d="M231.761 92.965 161.668 104a35.381 35.381 0 0 0-9.06 1.269c1.121 5.064 6.625 22.914 29 26.3a30.28 30.28 0 0 0 19.55-3.36c5.216-2.973 10.664-8.2 13.378-17.387.001-.008 14.903-1.836 17.225-17.857zM198 171.221c-10.389 1.716-19.906-2.416-22.178-9.987a57.507 57.507 0 0 0-7.4-15.366 16.135 16.135 0 0 0-12.949-7.085l-14.752-.416a6.408 6.408 0 0 0-6.07 3.842c-2.621 6.063-6.592 18.86-3.9 36.772 2.456 16.373 5.366 32.21 18.088 41.051q10.479-.267 20.507-1.262s1.448-2.582 3.844-6.748l1.9-3.295C180.725 199 189.666 183.9 198 171.221z" opacity="1" data-original="#8294af"></path><path fill="#343c47" d="M157.584 92.646s-9.284-.7-11.9-6.842 1.177-18.961 1.177-18.961l13.076 1.177zM209.594 99.893s9.2 1.418 13.136-3.98 3.2-19.755 3.2-19.755l-13.072-.786z" opacity="1" data-original="#343c47"></path><path fill="#d37976" d="M157.5 66.843a255.529 255.529 0 0 0-.761 26.985 27.309 27.309 0 0 0 24.695 26.3q.666.059 1.354.1s.334.024.931.031a27.5 27.5 0 0 0 27.521-24.016 172.043 172.043 0 0 0 1.59-27.238z" opacity="1" data-original="#d37976"></path><path fill="#a04b4b" d="M211.24 96.243a188.857 188.857 0 0 0 1.667-22.709l-9.837 6.211s.607 12.473-4.794 17.529l-41.476-2.32a27.3 27.3 0 0 0 24.629 25.177q.666.059 1.354.1s.334.024.931.031a27.5 27.5 0 0 0 27.526-24.019z" opacity="1" data-original="#a04b4b"></path><path fill="#a04b4b" d="M212.553 83.055a132.718 132.718 0 0 0 .277-14.05l-55.33-2.162s-.442 5.062-.694 11.925a250.871 250.871 0 0 0 55.747 4.287z" opacity="1" data-original="#a04b4b"></path><path fill="#d37976" d="M137.263 176.692s6.358 47.286 43.627 40.975c41.487-7.026 76.35-24.2 76.35-24.2l-4.7-14.314s-45.729 6.985-68.807 6.407a10.814 10.814 0 0 1-9.868-7.017 45.957 45.957 0 0 1-2.537-10.492s-16.746-5.067-34.065 8.641z" opacity="1" data-original="#d37976"></path><path fill="#a04b4b" d="M198.276 215.115a293.887 293.887 0 0 0 58.964-21.649l-4.7-14.314s-12.227 1.868-27.228 3.592z" opacity="1" data-original="#a04b4b"></path><path fill="#a04b4b" d="M244.131 189.5c-22.28 11.737-54.24 16.318-67.114 17.757a19.386 19.386 0 0 1-12.241-2.712 36.535 36.535 0 0 1-13.5-14.121 13.379 13.379 0 0 1 5.029-17.844 40.772 40.772 0 0 1 12.712-4.6l-1.017-.543a42.357 42.357 0 0 0-31.671 9.255s7.207 48.4 44.476 42.087c26.017-4.406 49.459-13.24 63.326-19.216z" opacity="1" data-original="#a04b4b"></path><path fill="#dae5ed" d="M137.318 137.051c-3.787 6.305-6.093 18-.989 39.641 0 0 16.068-9.764 35-8.642 0 0-.733-26.745-14.942-35.576a13.748 13.748 0 0 0-19.069 4.577z" opacity="1" data-original="#dae5ed"></path><path fill="#ffdfc0" d="m282.173 136.49-18.555 27.672a23.764 23.764 0 0 1-10.289 7.857l-6.268 2.7a26.3 26.3 0 0 0-12.755 10.446l-62.567 96.764c-2.02 3.1-2.31 5.567.55 7.917l13.525 11.216c3.275 2.691 7.705 2.8 10.129-.676L260.48 207.8a27.384 27.384 0 0 0 4.694-12.156l1.694-13.143A22.289 22.289 0 0 1 271.13 172l20.27-27.066z" opacity="1" data-original="#ffdfc0"></path><path fill="#d8a78c" d="m282.173 136.49-19.816 27.057a22.275 22.275 0 0 1-9.943 7.617l-6.055 2.34a27.371 27.371 0 0 0-13.076 10.6L170.19 281a7.265 7.265 0 0 0 1.476 9.577l13.7 11.263a7.265 7.265 0 0 0 10.573-1.459l1.7-2.444-1.712.466a5.793 5.793 0 0 1-5.279-1.18l-10.6-9.029a6.064 6.064 0 0 1-1.175-7.885l59.922-93.6a21.37 21.37 0 0 1 10.108-8.34l5.472-2.175a21.371 21.371 0 0 0 9.691-7.713l9.409-13.615a7.272 7.272 0 0 1 7.44-2.991l4.571.935 5.9-7.879z" opacity="1" data-original="#d8a78c"></path><path fill="#6facdd" d="M267.683 126.023a30.242 30.242 0 0 0 3.629 12.439c1.3 2.428 2.632 3.5 5.333 2.962h.724a7.14 7.14 0 0 1 6.386 2.041l4.913 5.412c2.443 2.754 5.873 3.814 8.873 1.681a17.265 17.265 0 0 0 6.7-9.047 10.156 10.156 0 0 0-2.448-9.974c-4.452-4.629-12.749-12.84-19.623-17.286z" opacity="1" data-original="#6facdd"></path><circle cx="75.316" cy="112.605" r="18.109" fill="#c15549" opacity="1" data-original="#c15549"></circle><path fill="#ea8b83" d="M86.9 111.95a25.425 25.425 0 0 0-20.34-15.193 18.185 18.185 0 0 0-7.037 7 17.868 17.868 0 0 1 3.569-.236 18.1 18.1 0 0 1 16.383 11.5 19.623 19.623 0 0 1 1.431 6.784 17.934 17.934 0 0 1-1.874 8.517 18.059 18.059 0 0 0 9.477-5.346 24.722 24.722 0 0 0 .269-3.171 24.361 24.361 0 0 0-1.878-9.855z" opacity="1" data-original="#ea8b83"></path><path fill="#e2776f" d="M57.207 112.605a18.023 18.023 0 0 0 1.1 6.168 16.423 16.423 0 0 0 22.23-23.5 18.1 18.1 0 0 0-23.331 17.336z" opacity="1" data-original="#e2776f"></path><path fill="#a04b4b" d="M174.936 90.431a3.034 3.034 0 0 1-.794-.107l-2.921-.8a3 3 0 0 1 1.584-5.787l2.921.8a3 3 0 0 1-.79 5.895zM191.479 91.8a3 3 0 0 1-.384-5.975l3-.391a3 3 0 1 1 .776 5.949l-3 .392a3.046 3.046 0 0 1-.392.025z" opacity="1" data-original="#a04b4b"></path><path fill="#3d73a0" d="M286.917 141c-3.5-4.674-7.541-3.93-7.541-3.93-3.611.212-4.461-1.593-4.461-1.593a22.822 22.822 0 0 1-3.187-12.736l-4.045 3.287a23.951 23.951 0 0 0 2.783 12.867 6.276 6.276 0 0 0 6.765 3.156 6.294 6.294 0 0 1 5.943 1.994l4.793 5.4a7.219 7.219 0 0 0 9.548 1.133c-3.989-1.299-7.75-5.784-10.598-9.578z" opacity="1" data-original="#3d73a0"></path><path fill="#f9bebb" d="M81.2 103.707a25.423 25.423 0 0 0-14.637-6.95 18 18 0 0 0-7.037 7 17.868 17.868 0 0 1 3.569-.236 18.1 18.1 0 0 1 16.383 11.5c.1.257.183.523.276.784a16.352 16.352 0 0 0 3.959-9.291 26.241 26.241 0 0 0-2.513-2.807z" opacity="1" data-original="#f9bebb"></path><path fill="#8294af" d="M240.73 124.434a85.824 85.824 0 0 0 .457-8.829c-.018.009-21.636 11.616-29.845 37.279a292.444 292.444 0 0 1 29.388-28.45z" opacity="1" data-original="#8294af"></path><path fill="#ffffff" d="M214.188 96.8a83.57 83.57 0 0 0 1.844-14.323 10.94 10.94 0 0 0-6.025.513 76.063 76.063 0 0 1-1.277 10.47c-12.659 1.059-28.395.323-49.078-2.286-.112-3.811-.172-7.949-.051-11.879a11.042 11.042 0 0 0-5.941-1.8c-.238 5.316-.111 11.077.078 16.382.017 1.861.8 27.743 29.811 29.376h.157c1.176 0 25.482-.366 30.466-26.387v-.013l.009-.048v-.01zm-54.147.473q5.55.689 10.6 1.2c-.185 2.5-.6 8.635-.688 14.692-7.032-4.528-9.232-11.677-9.912-15.891zm23.776 19.988a33.291 33.291 0 0 1-7.874-1.355c-.026-6.491.469-14 .68-16.884 4.389.368 8.511.627 12.4.774-.228 3.227-.68 10.7-.5 16.91a24.1 24.1 0 0 1-4.679.555zm10.668-2.55c-.049-5.687.356-12.118.545-14.774 4.363.037 8.436-.078 12.287-.346a23.931 23.931 0 0 1-12.832 15.121z" opacity="1" data-original="#ffffff"></path><path fill="#8294af" d="M159.608 79.3a71.981 71.981 0 0 1 .8-9.406 3 3 0 0 0-5.916-1 72.185 72.185 0 0 0-.832 8.605c1.117.401 3.111 1.056 5.948 1.801zM212.584 73.1a3 3 0 0 0-2.705 3.269A47.939 47.939 0 0 1 210 82.99q2.945-.207 6.026-.512a53.052 53.052 0 0 0-.172-6.678 3 3 0 0 0-3.27-2.7z" opacity="1" data-original="#8294af"></path><path fill="#5b6d7c" d="M144.248 67.149c8.358 2.678 31.413 9.078 63.213 9.951l20.443-.231a2.607 2.607 0 0 0 2.386-3.221A14.649 14.649 0 0 0 224.323 65s7.571-38.922-32-45.069c0 0-36.751-6.316-41.011 37.579a19.8 19.8 0 0 0-8.186 5.4 2.6 2.6 0 0 0 1.122 4.239z" opacity="1" data-original="#5b6d7c"></path><path fill="#343c47" d="M230.29 73.648A14.644 14.644 0 0 0 224.323 65s6.827-35.119-26.414-43.9c4.692 3.186 12.613 10.455 15.359 24.4a10.073 10.073 0 0 1-7.512 11.68 144 144 0 0 1-24.522 3.76 1.246 1.246 0 0 0-.127 2.474 190.208 190.208 0 0 0 23.672 2.274 4.815 4.815 0 0 1 4.661 4.32 10.071 10.071 0 0 1-1.979 7.088c6.472.178 13.3.132 20.443-.226a2.606 2.606 0 0 0 2.386-3.222z" opacity="1" data-original="#343c47"></path><path fill="#8294af" d="M188.759 104.132c2.457 0 4.555-.057 6.017-.113.092-1.7.187-3.134.254-4.081l-6.006-.141a241.3 241.3 0 0 0-.265 4.335zM176.623 99.023l-5.977-.55c-.071.952-.175 2.439-.282 4.247 1.911.364 3.927.639 5.965.845.11-1.923.219-3.525.294-4.542zM35.327 320.241h42.64a16 16 0 0 1-7.911-6.042 26.137 26.137 0 0 1-5.069-15.04 105.974 105.974 0 0 1 1.956-22.1 2.542 2.542 0 0 0-4.681-1.765z" opacity="1" data-original="#8294af"></path></g></svg>