<svg xmlns="http://www.w3.org/2000/svg" width="24" height="24" viewBox="0 0 450 450" xml:space="preserve"><path fill="#febe29" d="m249.638 305.035 23.334 73.22s20.876 33.005 18.42 60.02c0 0-7.982 8.291-69.998 8.291s-66.007-8.291-66.007-8.291-1.841-40.831 18.728-60.02l14.429-44.977s54.033-12.279 61.094-28.243" data-original="#febe29"/><path fill="#fda712" d="M249.595 305.035c-3.152 7.126-15.595 13.517-28.595 18.41V447h.394c62.015 0 69.998-8.506 69.998-8.506 2.456-27.017-18.441-60.128-18.441-60.128z" data-original="#fda712"/><circle cx="221.3" cy="82.673" r="75.379" fill="#fcdf53" data-original="#fcdf53"/><path fill="#fdb724" d="M165.231 138.746c30.948 30.948 81.186 30.951 112.136 0 30.955-30.953 30.951-81.192.004-112.14-30.956-30.958-81.189-30.955-112.144 0-30.951 30.95-30.952 81.184.004 112.14m5.698-5.7c-19.908-19.908-25.527-48.724-16.889-73.676.008-.04.086-.05.103-.104.532-.653 1.075-1.323 1.727-1.931-.078-.755-.011-1.831.101-2.949 1.747-4.037 3.978-7.871 6.508-11.596.909.015 1.876.354 2.958 1.32 1.088 9.292 4.61-4.388.199-5.703 1.657-2.071 3.379-4.19 5.292-6.103 12.459-12.458 28.372-19.176 44.669-20.453-.297.319-.792.638-1.525 1.128-7.755.745-15.488 9.766-7.426 15.966 6.605.802 15.482 2.213 15.674 10.993.471 8.908-8.719 13.744-16.082 15.878-6.437 1.183-12.951 5.984-19.538 3.25-3.552-5.636-9.493-10.952-16.787-7.013-3.941 1.06-3.971 2.717-3.258 4.673.109.197.169.273.207.415.875 2.146 2.306 4.596.302 7.01-3.715.983-5.634 8.692-.205 5.502.319-5.057 7.829-13.649 10.485-4.987 1.219-5.256 8.455 6.143 11.194-.206 3.456-6.396 16.112.71 7.019 4.175-6.196 3.037-10.849 12.316-17.902 11.188-.111.181-1.138.394-.309-.1-.241-.042-.478-.032-.708-.101-6.046-1.113-5.346 14.422-1.226 9.366-1.672-5.32 3.929-7.095 5.491-1.838 1.79 5.336-6.688 16.438-10.997 10.789-3.257-4.24-3.638 3.293-3.861 6.918 1.069-.704.281.628.004.618-.011.166.006.468 0 .603-6.376 5.424 8.609 10.084 4.989 17 3.12 9.263 10.009 16.495 17.397 22.891-3.48-1.798-6.679-4.008-9.874-6.409-.306-.236-.606-.476-.912-.709-.84-.705-1.702-1.381-2.549-1.936-1.438-1.231-2.912-2.51-4.271-3.869m27.786 14.348c-4.693-9.376 13.332-6.21 10.984-14.446-.557-.526-.854-1.119-1.112-1.734-.308.005-.257-.125-.113-.302-1.247-3.471 1.604-7.373 5.291-3.255 3.864 6.93 17.488-2.464 10.795-6.315-7.353 3.492-10.926-4.65-7.229-10.48 1.756-8.035 8.118-1.551 12.413-1.424 1.799-6.238 5.812 2.026 10.072 2.343 5.368 3.421 13.388-1.891 17.397 1.725-6.801 7.138 7.163 16.405 11.605 8.144-.552-4.405-1.852-9.719 2.747-13.331 8.855-8.458-4.631-16.248-4.783-25.54-3.248-8.341-1.744-17.302-3.458-25.845-5.929-2.91-9.926-15.335-.205-16.278 4.562.693 9.309 2.039 13.636 4.07l.105-.106c2.627 1.238 5.152 2.817 7.325 4.682 2.726 5.128 4.729 10.554 6.105 16.075-.026.04-.08.064-.102.101-2.995 6.145-1.622 13.2-2.442 19.741-.01 3.028-1.491 4.942-3.358 6.619-.033-.012-.055.122-.099.099-3.103 2.752-7.217 4.782-7.738 9.564-2.231 8.874-3.146 18.143-7.119 26.458-6.141 6.601-11.88 13.068-20.053 16.994-14.384 4.96-36.429 3.547-50.664 2.441m-7.132-22.791c-.207-.206-.321-.427-.507-.72-1.222-1.206.555-2.17 1.727-1.727 5.607.168 2.354 4.869-.501 2.952-.21-.141-.502-.307-.719-.505m-3.05-4.881c-2.349-1.832-3.598-4.766-1.73-7.837 4.377-7.294 13.958-5.238 20.859-7.845 3.861 6.856-7.697 7.11-8.248 12.32-.113 6.534-6.972 6.4-10.881 3.362m16.281 4.671c-3.594-3.178 4.542-9.996 8.545-8.337.19 4.76-6.404 4.815-7.628 8.852-.344-.179-.676-.295-.917-.515m-17.192-41.204c-1.188-1.041-2.536-4.681-.72-6.008 2.862-.728 5.72 2.422 1.931 3.968.091 2.325-.51 2.658-1.211 2.04m37.039 21.566c-1.576-1.099-3.421-4.924.81-3.868-1.735.038.046 1.167.303 1.326.537 2.879-.173 3.193-1.113 2.542m14.853 6.515c-.326-.406.665-.425 1.019.207l.104.103c.037.103-.009.263-.004.398-.681-.289-.987-.552-1.119-.708m24.526-3.762c-.291-.166-.517-.451-.819-.818a6.7 6.7 0 0 1-.711-1.12c.038-.049.029-.01.1-.099-.718-1.489-.885-3.372 1.02-4.273 1.163.502 1.472 2.009 1.323 3.158.713 2.963-.051 3.627-.913 3.152" data-original="#fdb724"/><path fill="#febe29" d="M142.565 92.104s-7.441 3.961-3.756 8.054c3.683 4.095 15.146 30.292 13.099 39.297-2.048 9.006 6.549 26.198 6.549 26.198s-2.048 25.38 0 32.339-2.048 12.279 3.684 22.512c5.731 10.235 11.704 17.603 10.765 25.791-.941 8.187 9.613 55.582 20.497 69.177 10.883 13.597 42.625 22.366 61.147-13.379 18.521-35.741 38.522-121.195 37.042-182.715 0 0-19.813 38.675-65.53 42.591-1.479.127-18.93-61.308-23.563-66.745 9.063 88.816-44.002 58.249-59.934-3.12" data-original="#febe29"/><path fill="#fda712" d="M210.977 89.638s15.375 32.624 24.55 39.275c9.512 6.896 45.272 21.004 59.317-28.537 0 0-14.534 93.704-41.933 89.056s-41.934-99.794-41.934-99.794" data-original="#fda712"/><g fill="#fcdf53"><ellipse cx="254.551" cy="158.285" rx="22.105" ry="14.429" transform="rotate(74.21 254.592 158.245)" data-original="#fcdf53"/><path d="M308.874 76.231a5.004 5.004 0 0 0-6.379 3.057c-.752 2.136-22.461 60.485-34.841 103.001-19.195 19.013-30.098-5.809-30.098-5.809l-.007.012C222.902 107.761 203.139 73.12 202.545 72a4.85 4.85 0 0 0-6.561-2.013 4.85 4.85 0 0 0-2.016 6.56c.149.281 18.91 40.472 33.207 116.859C235.691 241.056 191 307.798 191 307.798l-9.211 45.437c54.034-13.815 73.989-46.972 83.506-74.909s10.277-73.521 10.277-73.521c9.602-40.533 36.146-121.592 36.356-122.195a5 5 0 0 0-3.054-6.379" data-original="#fcdf53"/></g><g fill="#fda712"><path d="M151.795 117.101s17.407 35.148 34.907 33.561c17.5-1.586 11.667-63.737 7.829-72.879l9.88 26.092s2.554 59.397-19.857 54.178c-22.412-5.22-32.759-40.952-32.759-40.952m93.239 153.549-2.15 25.788-60.029 51.544zm-55.659 45.173s29.87-36.577 37.238-67.277 5.833-54.648 5.833-54.648l-5.525-19.648 9.824 20.875s-2.764 17.193 0 18.728 12.894 5.526 17.807 0c0 0 .614 9.824-16.579 8.596 0 0-9.517 23.026-7.368 27.632 2.149 4.604 11.974 17.806 11.974 17.806s-32.452 38.516-56.29 63.159z" data-original="#fda712"/><path d="M171.045 158.378s11.359 16.178 23.64 15.872c12.28-.308 23.946 49.121 23.946 49.121s-1.798-47.893-7.653-72.146c-.001-.001-12.609 27.816-39.933 7.153m-12.676 8.453s19.881 65.136 55.575 74.653l-7.901 17.5s-42.059-29.946-47.674-92.153m13.88 72.819s10.462 24.802 26.12 33.455L191 287.229s-19.389-31.915-18.751-47.579" data-original="#fda712"/></g><path fill="#ffdd50" d="M152.047 147.227s28.693 78.292 62.682 86.889c0 0 .101 5.407-.785 7.368 0 0-13.119 0-35.838-29.879-12.677-16.673-28.171-53.332-26.059-64.378" data-original="#ffdd50"/><path fill="#ffc935" d="M158.917 213.215S187 263.807 198 269.115v4.605c0 .001-24.132-16.323-39.083-60.505" data-original="#ffc935"/><path fill="#fcdf53" d="m264.262 380.22-16.431-68.074-2.797 2.276 13.417 66.314c14.128 19.415 14.573 50.867 13.827 63.227 4.073-.684 4.767-.724 8.444-1.553 1.814-46.498-16.46-62.19-16.46-62.19" data-original="#fcdf53"/><path fill="#fda712" d="M181.79 353.234s40.383-8.67 69.603-46.108l6.207 22.893s-38.427 28.215-77.688 30.166z" data-original="#fda712"/><path fill="#2cbc9b" d="M291.412 429.368c-.346-4.686-1.209-9.417-2.396-14.017-18.896 2.935-41.751 4.656-66.394 4.656-24.294 0-46.848-1.674-65.587-4.534a126 126 0 0 0-1.545 14.503c19.035 3.006 42.173 4.768 67.132 4.768 25.672 0 49.418-1.865 68.755-5.027l.015-.038c.009-.103.012-.206.02-.311m-68.79-47.429c18.349 0 35.713-.952 51.188-2.65a37 37 0 0 0-.838-1.034l-4.203-13.185c-14.17 1.369-29.763 2.133-46.146 2.133-15.689 0-30.648-.7-44.331-1.963l-4.176 13.015c-.418.39-.812.792-1.208 1.191 15.098 1.598 31.945 2.493 49.714 2.493" data-original="#2cbc9b"/><path d="M268.769 365.07c-14.17 1.369-29.807 2.133-46.19 2.133-.515 0-.579-.008-1.579-.009v14.735c1 .002 1.063.01 1.579.01 18.348 0 35.735-.952 51.209-2.65a68 68 0 0 0-.827-1.034zm-46.19 54.938c-.514 0-.579-.004-1.579-.008v14.736c1 .004 1.064.008 1.579.008 25.672 0 49.44-1.865 68.777-5.027.008-.022.025-.038.025-.038a10 10 0 0 0 .025-.311c-.346-4.686-1.228-9.417-2.415-14.017-18.897 2.935-41.769 4.657-66.412 4.657" data-original="#239b7b" fill="#239b7b"/><path d="M227.705 73.739s-.958-10.915-10.916-10.915c9.958 0 10.916-10.916 10.916-10.916s.376 10.916 10.915 10.916c-9.496.001-10.915 10.915-10.915 10.915m21.424-21.83s-1.535-17.511-17.512-17.511c15.977 0 17.512-17.512 17.512-17.512s.603 17.512 17.511 17.512c-15.234-.001-17.511 17.511-17.511 17.511" data-original="#ffffff" fill="#fff" fill-rule="evenodd" clip-rule="evenodd"/></svg>