<svg xmlns="http://www.w3.org/2000/svg" width="32" height="32" viewBox="0 0 512 512.027" xml:space="preserve"><path fill="#71c285" d="M503.336 416.57c0 52.762-112.64 95.457-251.66 95.457C112.652 512.027.012 469.332.012 416.57c0-26.297 27.945-50.16 73.332-67.43a209.6 209.6 0 0 0 23.082 28.032c1.562 1.648 3.125 3.21 4.773 4.683 3.125 3.125 6.336 5.989 9.633 8.766.172.176.258.348.434.434 2.949 2.52 5.898 4.949 9.023 7.203a19 19 0 0 0 2.258 1.648c3.125 2.43 6.336 4.688 9.633 6.856q.71.486 1.472.867c2.606 1.824 5.207 3.387 7.899 4.95 2.168 1.386 4.426 2.6 6.683 3.816 3.036 1.738 6.16 3.296 9.371 4.773 2.516 1.3 5.208 2.43 7.81 3.645 3.991 1.734 8.07 3.296 12.151 4.773 2.254.781 4.426 1.562 6.68 2.258a172 172 0 0 0 9.461 2.863c.184.11.39.168.606.172a.32.32 0 0 0 .261.086c2.082.61 4.25 1.129 6.422 1.562a.57.57 0 0 0 .606.176 60 60 0 0 0 6.597 1.473 13 13 0 0 0 2.516.523c2.344.434 4.687.867 7.117 1.215a193 193 0 0 0 20.133 2.254c1.3.086 2.601.176 3.816.176a190 190 0 0 0 19.785 0c1.215 0 2.516-.09 3.82-.176a194 194 0 0 0 20.134-2.254c2.43-.348 4.773-.781 7.113-1.215.855-.09 1.699-.265 2.52-.523a60 60 0 0 0 6.593-1.473.58.58 0 0 0 .61-.176 76 76 0 0 0 6.417-1.562.32.32 0 0 0 .262-.086c.215-.004.422-.063.61-.172 3.21-.867 6.332-1.824 9.457-2.863 2.257-.696 4.425-1.477 6.683-2.258 4.078-1.477 8.156-3.04 12.149-4.774 2.601-1.214 5.293-2.343 7.808-3.644 3.211-1.477 6.336-3.035 9.375-4.773 2.254-1.215 4.512-2.43 6.68-3.817 2.691-1.562 5.293-3.125 7.898-4.95a12.5 12.5 0 0 0 1.477-.866c3.297-2.168 6.508-4.426 9.629-6.856a19 19 0 0 0 2.258-1.648c3.125-2.254 6.074-4.684 9.023-7.203.176-.086.262-.258.438-.434 3.296-2.777 6.507-5.64 9.628-8.766 1.653-1.472 3.211-3.035 4.774-4.683a210 210 0 0 0 23.086-28.031c45.383 17.27 73.328 41.132 73.328 67.43zm0 0" data-original="#71c285"/><path fill="#4c8056" d="M442.59 416.57c0-33.55-85.477-60.746-190.914-60.746-105.442 0-190.918 27.196-190.918 60.746 0 33.547 85.476 60.746 190.918 60.746 105.437 0 190.914-27.199 190.914-60.746m0 0" data-original="#4c8056"/><path fill="#fff" d="M459.598 287.527c-.696 2.258-1.387 4.512-2.168 6.77-1.39 4.512-3.04 8.937-4.86 13.277-.867 2.168-1.824 4.25-2.777 6.422a149 149 0 0 1-2.95 6.336c-1.562 3.383-3.3 6.68-5.12 9.977-1.13 2.086-2.344 4.168-3.559 6.25-2.516 4.25-5.207 8.503-8.156 12.582a210 210 0 0 1-23.086 28.03c-1.563 1.563-3.121 3.126-4.774 4.684h-63.695l-43.39-78.101 43.39-78.102h86.781zm0 0" data-original="#ffffff"/><path fill="#35495e" d="M402.148 381.855c-3.12 3.04-6.332 5.989-9.628 8.766-.176.176-.262.348-.438.434-2.95 2.52-5.898 4.949-9.023 7.203a19 19 0 0 1-2.258 1.648c-3.121 2.43-6.332 4.688-9.63 6.856-.472.324-.968.613-1.476.867a85 85 0 0 1-7.898 4.95c-2.168 1.386-4.426 2.6-6.68 3.816-3.125 1.648-6.25 3.296-9.375 4.773-2.601 1.3-5.117 2.43-7.808 3.645-3.993 1.734-8.07 3.296-12.149 4.773-2.172.867-4.426 1.562-6.683 2.258a172 172 0 0 1-9.457 2.863c-.188.11-.395.168-.61.172l29.418-53.024zm-207.835 53.024a1.2 1.2 0 0 1-.606-.172 172 172 0 0 1-9.46-2.863c-2.255-.696-4.513-1.39-6.68-2.258-4.083-1.477-8.16-3.04-12.153-4.774-2.687-1.214-5.207-2.343-7.809-3.644-3.125-1.477-6.25-3.125-9.37-4.773-2.258-1.215-4.516-2.43-6.684-3.817a86 86 0 0 1-7.899-4.95q-.762-.38-1.472-.866c-3.297-2.168-6.508-4.426-9.633-6.856a19 19 0 0 1-2.258-1.648c-3.125-2.254-6.074-4.684-9.023-7.203-.176-.086-.262-.258-.434-.434-3.297-2.777-6.508-5.726-9.633-8.766h63.696zm0 0" data-original="#35495e"/><path fill="#fff" d="m208.285 303.754-43.39 78.101h-63.696c-1.648-1.558-3.21-3.12-4.773-4.683a209.6 209.6 0 0 1-23.082-28.031c-2.953-4.079-5.64-8.332-8.16-12.582-1.215-2.082-2.43-4.164-3.559-6.25-1.82-3.297-3.555-6.594-5.117-9.977a145 145 0 0 1-2.953-6.336c-.953-2.172-1.907-4.254-2.774-6.422-1.824-4.34-3.472-8.765-4.863-13.277-.777-2.258-1.473-4.512-2.168-6.77l34.363-61.875h86.782zm0 0" data-original="#ffffff"/><path fill="#35495e" d="M78.113 225.652 43.75 287.527a216.64 216.64 0 0 1 0-123.746zm0 0" data-original="#35495e"/><path fill="#fff" d="m208.285 147.55-43.39 78.102H78.113l-34.363-61.87a215.3 215.3 0 0 1 57.45-94.333h63.695zm0 0" data-original="#ffffff"/><path fill="#35495e" d="m338.453 225.652-43.39 78.102h-86.778l-43.39-78.102 43.39-78.101h86.778zm0 0" data-original="#35495e"/><path fill="#fff" d="m338.453 381.855-29.418 53.024a.32.32 0 0 1-.262.086 85 85 0 0 1-6.418 1.562.58.58 0 0 1-.609.176c-2.168.606-4.34 1.04-6.594 1.473-.82.258-1.664.433-2.52.523-2.339.52-4.769.867-7.112 1.215a194 194 0 0 1-20.133 2.254c-1.215.086-2.52.176-3.82.176a190 190 0 0 1-19.786 0c-1.3 0-2.601-.09-3.816-.176a193 193 0 0 1-20.133-2.254c-2.344-.348-4.773-.695-7.117-1.215-.856-.09-1.7-.265-2.516-.523-2.258-.434-4.426-.867-6.597-1.473a.57.57 0 0 1-.606-.176 85 85 0 0 1-6.422-1.562.32.32 0 0 1-.261-.086l-29.418-53.024 43.39-78.101h86.778zm121.145-218.074-34.364 61.871h-86.78l-43.392-78.101 43.391-78.102h63.695a215.3 215.3 0 0 1 57.45 94.332m0 0" data-original="#ffffff"/><path fill="#35495e" d="M402.148 69.45h-63.695l-29.418-53.02a214.5 214.5 0 0 1 93.113 53.02M194.313 16.43l-29.418 53.02h-63.696a214.5 214.5 0 0 1 93.114-53.02m0 0" data-original="#35495e"/><path fill="#fff" d="m338.453 69.45-43.39 78.1h-86.778l-43.39-78.1 29.417-53.02a216.8 216.8 0 0 1 114.723 0zm0 0" data-original="#ffffff"/><path fill="#35495e" d="M468.625 225.652a214.3 214.3 0 0 1-9.027 61.875l-34.364-61.875 34.364-61.87a214.3 214.3 0 0 1 9.027 61.87m0 0" data-original="#35495e"/><path fill="#2c3e50" d="M477.129 217.148v-.937c-.086-2.004-.184-4.008-.34-5.82a177 177 0 0 0-.867-10.051c-.348-3.055-.711-6.168-1.188-8.973-.468-3.273-1.035-6.637-1.738-9.633a189 189 0 0 0-5.023-20.324l-.043-.156c-.73-2.352-1.45-4.695-2.168-6.777a149 149 0 0 0-5.106-13.954c-.738-1.824-1.52-3.593-2.308-5.39l-.582-1.301c-1.012-2.3-2.02-4.504-3.02-6.48-1.648-3.57-3.469-7.047-5.371-10.485a219 219 0 0 0-3.738-6.57c-2.457-4.07-4.992-8.149-7.664-11.977-1.797-2.601-3.602-5.144-5.47-7.617A208 208 0 0 0 413.259 68.2c-1.735-1.828-3.473-3.566-5.016-4.937-3.14-3.063-6.379-6.075-9.691-8.852a14 14 0 0 0-.809-.726 188 188 0 0 0-9.762-7.813 25 25 0 0 0-2.238-1.621 158 158 0 0 0-9.71-6.89 18 18 0 0 0-1.81-1.102 83 83 0 0 0-7.722-4.817c-2.266-1.457-4.633-2.742-7.547-4.34-3.16-1.663-6.312-3.324-9.305-4.738-2.48-1.242-4.894-2.332-8.226-3.843-4.164-1.805-8.418-3.43-12.383-4.86-2.394-.965-4.879-1.734-7.16-2.43a180 180 0 0 0-9.356-2.855 10 10 0 0 0-1.535-.441c-2.222-.618-4.34-1.157-6.57-1.598l-.328-.07a63 63 0 0 0-6.422-1.45 22 22 0 0 0-3.586-.78 90 90 0 0 0-7.07-1.196A201 201 0 0 0 265.984.477c-1.406-.094-2.925-.18-3.695-.164-2.32-.192-4.539-.192-6.277-.184a63 63 0 0 0-8.059 0c-2.328 0-4.566 0-6.164.176-1.5 0-3.02.093-4.336.191a203 203 0 0 0-21.36 2.387c-2.23.328-4.527.676-6.769 1.152-.941.098-1.87.29-2.773.574-2.492.477-4.895.973-7.293 1.641l-.301.078a91 91 0 0 0-6.25 1.508 8 8 0 0 0-1.414.418c-3.324.867-6.559 1.883-9.547 2.898-2.496.762-4.98 1.536-7.098 2.395-4.242 1.535-8.496 3.16-13.449 5.32-2.543 1.153-4.957 2.246-7.273 3.41-3.16 1.493-6.309 3.149-10.031 5.11-2.352 1.277-4.723 2.605-6.493 3.715a95 95 0 0 0-8.218 5.12c-.594.321-1.176.673-1.735 1.051a158 158 0 0 0-9.789 6.942 29 29 0 0 0-2.43 1.777c-3.304 2.399-6.449 4.973-9.546 7.637-.27.234-.536.469-.782.715-3.78 3.191-6.898 6.074-9.62 8.773-1.739 1.621-3.333 3.242-4.981 4.895a210 210 0 0 0-19.344 22.562 207 207 0 0 0-5.46 7.61c-2.716 3.886-5.25 7.964-7.81 12.148a304 304 0 0 0-3.652 6.414c-1.93 3.469-3.75 6.942-5.297 10.3-1.101 2.204-2.105 4.407-3.12 6.708l-.583 1.3c-.789 1.798-1.57 3.567-2.258 5.27a135 135 0 0 0-4.918 13.426 68 68 0 0 0-2.398 7.402l-.05.18a189 189 0 0 0-4.966 20.047c-.754 3.273-1.316 6.637-1.734 9.676s-.867 6.152-1.285 9.668a176 176 0 0 0-.824 9.398c-.157 2.004-.25 4.008-.336 6.012v.937c-.09 2.856-.176 5.633-.176 8.504 0 2.875.086 5.653.176 8.508v.961c.093 1.996.18 3.992.336 5.797.183 3.183.453 6.387.867 10.05.347 3.055.715 6.169 1.191 8.973.469 3.27 1.031 6.637 1.735 9.633a190 190 0 0 0 5.007 20.375v.156c.73 2.352 1.45 4.696 2.168 6.778a149 149 0 0 0 5.106 13.953c.734 1.824 1.515 3.594 2.308 5.39l.579 1.301c1.015 2.301 2.023 4.504 3.019 6.485 1.652 3.566 3.473 7.043 5.375 10.48a206 206 0 0 0 3.703 6.508c2.977 5.027 5.781 9.363 8.48 13.078a217.5 217.5 0 0 0 23.934 29.082c1.735 1.828 3.469 3.566 5.016 4.938 3.148 3.062 6.379 6.074 9.703 8.851.25.254.52.5.797.727a188 188 0 0 0 9.762 7.812q1.073.869 2.23 1.621a159 159 0 0 0 9.719 6.89c.59.403 1.195.774 1.824 1.11a82 82 0 0 0 7.707 4.809c2.262 1.457 4.633 2.742 7.547 4.34 3.16 1.675 6.32 3.332 9.297 4.738 2.488 1.25 4.91 2.344 8.234 3.852 4.164 1.804 8.418 3.43 12.383 4.859 2.395.965 4.879 1.738 7.16 2.43a176 176 0 0 0 9.356 2.855 10 10 0 0 0 1.535.445c2.222.614 4.34 1.153 6.57 1.594l.3.078c2.126.59 4.282 1.07 6.458 1.434 1.172.36 2.371.62 3.586.781 2.238.477 4.562.867 7.07 1.195a202 202 0 0 0 20.992 2.364c1.399.093 2.813.136 3.957.172 3.473.191 6.942.277 10.356.277 3.41 0 6.941-.086 9.89-.258 1.5 0 3.02-.098 4.34-.191a204 204 0 0 0 21.328-2.407c2.23-.328 4.532-.675 6.77-1.152a14 14 0 0 0 2.754-.574c2.488-.477 4.89-.973 7.289-1.64l.3-.079a89 89 0 0 0 6.25-1.508 7.7 7.7 0 0 0 1.415-.418c3.324-.867 6.562-1.882 9.547-2.898 2.5-.762 4.98-1.535 7.097-2.395 4.242-1.535 8.496-3.16 13.434-5.312 2.55-1.16 4.973-2.254 7.281-3.418 3.156-1.492 6.317-3.149 10.04-5.11 2.35-1.277 4.722-2.605 6.491-3.714a93 93 0 0 0 8.2-5.114 19 19 0 0 0 1.738-1.058 161 161 0 0 0 9.797-6.942 28 28 0 0 0 2.422-1.734c3.304-2.394 6.445-4.973 9.543-7.637.27-.234.539-.468.78-.71a178 178 0 0 0 9.442-8.61c.114-.098.211-.207.313-.312l.07-.063a89 89 0 0 0 4.809-4.71 217.6 217.6 0 0 0 23.914-29.02c2.82-3.887 5.625-8.227 8.629-13.305a294 294 0 0 0 3.652-6.41c1.926-3.473 3.75-6.946 5.293-10.301 1.102-2.207 2.11-4.41 3.125-6.711l.582-1.3c.789-1.798 1.57-3.567 2.254-5.266a143 143 0 0 0 5.058-13.809c.817-2.352 1.54-4.695 2.258-7.02l.051-.183a187 187 0 0 0 4.965-20.043c.754-3.274 1.32-6.64 1.734-9.676.418-3.039.871-6.156 1.285-9.668.375-3.203.645-6.406.817-9.398.164-1.996.25-3.992.348-5.989v-.964c.085-2.856.171-5.633.171-8.504s.106-5.72.02-8.575m-41.969 8.504 21.219-38.18c.426 2.15.867 4.337 1.18 6.594.453 2.723.765 5.528 1.136 8.73.332 2.872.582 5.755.754 8.825.156 1.79.235 3.574.332 6.074.086 2.692.164 5.293.164 7.993s-.078 5.304-.183 8.68a155 155 0 0 1-.32 5.554 157 157 0 0 1-.797 9.094c-.32 2.734-.633 5.535-1.13 8.496-.296 2.031-.718 4.191-1.144 6.351zM418.55 101.04a226 226 0 0 1 5.122 7.14c2.5 3.575 4.816 7.31 6.996 10.926 1.168 2.024 2.34 4.036 3.469 6.075 1.734 3.117 3.36 6.23 4.957 9.66.98 1.96 1.875 3.922 2.765 5.96l.59 1.329c.715 1.613 1.426 3.191 2.137 4.945a142 142 0 0 1 4.652 12.75c.336.996.64 2.012.961 3.012l-30.078 54.14h-76.555l-21.695-39.05-16.879-30.375 16.871-30.371 21.696-39.051h55.043c.703.695 1.398 1.32 2.144 2.11a193 193 0 0 1 17.805 20.8zM289.954 295.08h-76.558L191.7 256.028l-16.875-30.375 16.867-30.37 21.696-39.052h76.558l21.696 39.051 16.886 30.371-16.87 30.375zm45.031-260.34c2.332 1.058 4.555 2.046 7 3.28 2.946 1.387 5.868 2.934 9.227 4.704 1.969 1.066 3.965 2.125 6.371 3.644a76 76 0 0 1 7.09 4.453c.344.242 1.308.825 1.691 1.016a142 142 0 0 1 9.078 6.453c.356.27 1.246.95 1.637 1.164.113.086.738.582.871.66.293.215.563.477.867.696h-35.25l-16.195-29.22c2.457.938 4.957 1.934 7.613 3.15m-131.04-11.78c1.946-.547 3.88-.918 6.727-1.516.281-.09.574-.156.867-.199q.529-.052 1.05-.168c1.977-.441 4.028-.734 6.68-1.125a185 185 0 0 1 19.274-2.164c1.027-.066 2.117-.144 3.941-.18s3.602-.14 6.075-.164c1.023-.062 2.136-.062 3.117-.062s2.097 0 3.73.086c1.805 0 3.602 0 6.16.176 1.102 0 2.196.078 3.266.156a189 189 0 0 1 19.906 2.254c1.977.289 4.028.582 6.004 1.023q.523.116 1.051.168a14 14 0 0 1 1.734.406c2.024.391 3.957.762 5.903 1.309l.277.07q.485.164.988.262c.867.172 1.739.426 2.606.633l25.226 45.523-7.011 12.63-31.563 56.796h-76.558l-31.56-56.809-7.01-12.617 25.25-45.515c.866-.207 1.737-.461 2.605-.633a7 7 0 0 0 .988-.262zm-77.234 36.023q.587-.32 1.121-.73c2.95-2.29 5.969-4.414 9.676-6.82a8.6 8.6 0 0 0 1.094-.649 82 82 0 0 1 7.593-4.746c1.899-1.227 3.895-2.285 6.282-3.578 2.941-1.543 5.867-3.09 8.972-4.563 2.281-1.148 4.504-2.136 7.387-3.472 2.262-.98 4.684-1.856 7.055-2.77l-16.106 29.117h-35.312c.39-.296.738-.582 1.144-.867zM54.215 159.562c1.25-4.042 2.742-8.12 4.61-12.593.66-1.63 1.37-3.207 2.081-4.824l.59-1.329c.867-2.039 1.79-4 2.883-6.195 1.484-3.191 3.113-6.309 4.867-9.469 1.094-2.011 2.266-4.023 3.367-5.933 2.246-3.73 4.567-7.465 7.106-11.09a216 216 0 0 1 5.105-7.145 194.5 194.5 0 0 1 17.746-20.722c.684-.684 1.465-1.43 2.176-2.133h55.04l21.69 39.05 16.88 30.372-16.868 30.375-21.695 39.05H83.227l-30.13-54.23c.321-.988.669-2.02 1.118-3.184m-7.246 104.274c-.426-2.152-.867-4.34-1.18-6.594-.45-2.726-.762-5.527-1.137-8.73a151 151 0 0 1-.754-8.825c-.148-1.738-.234-3.566-.332-6.074-.086-2.656-.164-5.261-.164-7.96 0-2.7.078-5.301.184-8.676.078-1.797.156-3.586.32-5.57.164-2.876.418-5.755.797-9.098.324-2.73.637-5.536 1.129-8.497.297-2.027.723-4.19 1.145-6.351l21.21 38.191zm33.41 80.203c-2.5-3.473-5.024-7.352-7.695-11.871a261 261 0 0 1-3.473-6.074c-1.734-3.117-3.36-6.23-4.953-9.66a131 131 0 0 1-2.77-5.961l-.59-1.328c-.71-1.614-1.421-3.196-2.136-4.946a141 141 0 0 1-4.649-12.75c-.34-.996-.644-2.012-.965-3.012l30.079-54.105h76.558l21.692 39.05 16.878 30.372-16.867 30.375-21.695 39.05h-55.055c-.695-.695-1.386-1.32-2.117-2.081a202.4 202.4 0 0 1-22.242-27.043zm87.988 72.574c-2.328-1.058-4.547-2.058-7.023-3.297-2.942-1.382-5.864-2.925-9.215-4.695-1.969-1.07-3.965-2.129-6.367-3.644a76 76 0 0 1-7.082-4.454c-.368-.25-1.305-.816-1.739-1.015-3.105-2.04-6.125-4.164-9.074-6.457-.34-.258-1.285-.961-1.66-1.18-.113-.078-.719-.562-.867-.64-.293-.22-.563-.477-.867-.696h35.277l16.191 29.192c-2.367-.946-4.921-1.942-7.574-3.114m131.035 11.73c-1.941.548-3.879.923-6.722 1.52q-.427.135-.871.2c-.352.035-.704.09-1.047.164-1.98.445-4.028.738-6.684 1.128a185 185 0 0 1-19.273 2.16c-1.024.07-2.118.15-3.688.157a177 177 0 0 1-19.316 0c-1.106 0-2.2-.078-3.266-.156a189 189 0 0 1-19.906-2.254c-1.98-.29-4.027-.582-6.004-1.024a9 9 0 0 0-1.05-.168 14 14 0 0 1-1.74-.406c-2.019-.39-3.956-.762-5.898-1.309l-.277-.07a8 8 0 0 0-.992-.262c-.867-.171-1.734-.425-2.602-.632l-25.242-45.536 7.012-12.625 31.559-56.796h76.558l31.563 56.804 7.011 12.617-25.254 45.52c-.867.207-1.734.457-2.601.633a7 7 0 0 0-.992.258zm77.176-36.003c-.383.21-.742.445-1.086.71-2.949 2.294-5.972 4.419-9.625 6.79-.398.2-.785.43-1.152.683a82 82 0 0 1-7.586 4.747c-1.899 1.222-3.895 2.28-6.281 3.566-2.934 1.555-5.86 3.098-8.985 4.574-2.289 1.145-4.511 2.145-7.375 3.473-2.265.98-4.687 1.855-7.054 2.765l16.132-29.113h35.309c-.39.297-.738.582-1.145.867zm72.563-100.594c-1.25 4.043-2.743 8.121-4.606 12.59-.66 1.633-1.37 3.21-2.086 4.824l-.59 1.328c-.867 2.04-1.785 4-2.879 6.2-1.484 3.19-3.117 6.308-4.87 9.464-1.09 2.016-2.262 4.028-3.4 5.989-2.706 4.566-5.206 8.46-7.812 12.09a202.4 202.4 0 0 1-22.242 26.98c-.625.656-1.265 1.309-1.926 1.969h-55.164l-21.695-39.051-16.879-30.375 16.871-30.371 21.696-39.051h76.554l30.063 54.117c-.332 1.09-.645 2.106-1.043 3.297zm0 0" data-original="#2c3e50"/></svg>