<svg xmlns="http://www.w3.org/2000/svg" version="1.1" xmlns:xlink="http://www.w3.org/1999/xlink" width="64" height="64" x="0" y="0" viewBox="0 0 512 512" style="enable-background:new 0 0 512 512" xml:space="preserve" class=""><g><path fill="#ade194" d="M506.281 346.226c8.482 7.737 7.365 21.432-2.255 27.7-20.437 13.317-48.046 4.313-56.713-18.546 12.225-21.122 40.915-25.634 58.968-9.154zM467.524 303.952c-22.63 9.923-48.199-3.815-52.958-27.493-2.265-11.264 6.734-21.649 18.194-21.008 24.243 1.319 41.321 24.843 34.764 48.501z" opacity="1" data-original="#ade194"></path><g fill="#97da7b"><path d="M373.128 422.268a7.758 7.758 0 0 1 3.628-10.348c.479-.233 25.446-12.6 48.667-40.601 31.101-37.502 44.578-83.913 40.058-137.944a7.758 7.758 0 0 1 15.461-1.293c6.097 72.887-20.594 121.647-44.058 149.718-25.48 30.484-52.278 43.562-53.406 44.103-3.843 1.846-8.487.244-10.35-3.635zM64.687 355.38c-8.685 22.908-36.313 31.838-56.713 18.546-9.619-6.268-10.736-19.963-2.255-27.7 18.083-16.506 46.761-11.936 58.968 9.154zM79.241 255.452c11.461-.641 20.459 9.743 18.194 21.008-4.756 23.659-30.307 37.425-52.958 27.493-6.564-23.681 10.54-47.184 34.764-48.501z" fill="#97da7b" opacity="1" data-original="#97da7b" class=""></path></g><path fill="#80d261" d="M128.52 425.902c-1.128-.541-27.926-13.619-53.406-44.103-23.464-28.071-50.155-76.831-44.058-149.718.357-4.27 4.113-7.432 8.377-7.084a7.757 7.757 0 0 1 7.084 8.377c-4.52 54.031 8.958 100.443 40.058 137.944 23.33 28.132 48.421 40.482 48.672 40.604 3.851 1.866 5.47 6.5 3.611 10.355a7.749 7.749 0 0 1-10.338 3.625z" opacity="1" data-original="#80d261"></path><path fill="#ffc344" d="M334.962 231.521a7.757 7.757 0 0 1-1.186-15.423c.902-.141 19.942-3.222 20.835-3.385 48.864-8.918 84.044-50.967 84.044-101.003v-2.327c0-21.04-17.117-38.157-38.157-38.157h-25.91a7.758 7.758 0 0 1 0-15.515h25.91c29.595 0 53.672 24.077 53.672 53.672v2.327c0 58.772-43.055 107.928-99.86 116.788-.405.063-18.95 3.023-19.348 3.023z" opacity="1" data-original="#ffc344" class=""></path><path fill="#feb237" d="M166.213 229.371c-.397 0-8.118-.811-8.523-.874-56.941-8.881-99.86-58.14-99.86-116.788v-2.327c0-29.595 24.077-53.672 53.672-53.672h25.91a7.758 7.758 0 0 1 0 15.515h-25.91c-21.04 0-38.157 17.117-38.157 38.157v2.327c0 49.516 34.453 91.211 82.525 100.714 1.392.275 10.114 1.304 11.528 1.525a7.758 7.758 0 0 1-1.185 15.423z" opacity="1" data-original="#feb237"></path><path fill="#ffd15b" d="m365.548 178.031 11.047-139.947c-45.24-21.821-91.993-21.125-140.118 0-38.923 85.451-25.47 197.746 77.467 224.654 29.028-18.036 48.776-48.976 51.604-84.707z" opacity="1" data-original="#ffd15b"></path><path fill="#ffc344" d="M236.476 38.085c-37.663-18.777-71.765-20.721-101.071 0l11.047 139.947c3.298 41.672 29.769 77.345 67.688 92.967h83.72a109.613 109.613 0 0 0 16.083-8.259c-62.137-53.54-91.906-143.605-77.467-224.655z" opacity="1" data-original="#ffc344" class=""></path><path fill="#fd8087" d="m504.729 479.449-18.66-13.995 18.66-13.995c13.902-10.426 6.527-32.551-10.85-32.551h-77.95c-29.6 29.892-52.314 61.515-54.546 93.091h132.496c17.377.001 24.752-22.124 10.85-32.55z" opacity="1" data-original="#fd8087" class=""></path><path fill="#fe646f" d="M376.212 418.909 256 512h105.383c27.655-23.518 47.377-56.089 54.546-93.091h-39.717z" opacity="1" data-original="#fe646f"></path><path fill="#feb237" d="M401.988 20.097v-2.11C401.988 8.047 393.93 0 384 0H175.952c-20.93 0-22.999 8.047-22.999 17.987v2.11c0 9.93 1.681 17.987 22.999 17.987H384c9.93.001 17.988-8.057 17.988-17.987z" opacity="1" data-original="#feb237"></path><path fill="#fea617" d="M157.965 20.097v-2.11c0-9.94 8.058-17.987 17.987-17.987H128c-9.93 0-17.987 8.047-17.987 17.987v2.11c0 9.93 8.058 17.987 17.987 17.987h47.952c-9.93.001-17.987-8.057-17.987-17.987z" opacity="1" data-original="#fea617"></path><path fill="#ffc344" d="M325.818 145.987c0-38.56-31.258-69.818-69.818-69.818a69.685 69.685 0 0 0-23.116 3.935c-18.895 48.01-11.074 96.392 39.089 133.844 30.859-7.225 53.845-34.899 53.845-67.961z" opacity="1" data-original="#ffc344" class=""></path><path fill="#feb237" d="M232.884 80.104c-27.196 9.542-46.703 35.427-46.703 65.883 0 44.816 41.769 78.269 85.791 67.961-25.787-40.408-38.926-88.145-39.088-133.844z" opacity="1" data-original="#feb237"></path><path fill="#fd8087" d="M284.786 127.286c8.14 1.179 11.378 11.171 5.503 16.901l-6.227 6.061a9.905 9.905 0 0 0-2.844 8.782l1.469 8.554c1.386 8.099-7.116 14.274-14.388 10.447l-7.685-4.034a9.903 9.903 0 0 0-9.226 0l-7.685 4.034c-7.271 3.827-15.774-2.348-14.388-10.447l1.469-8.554a9.908 9.908 0 0 0-2.844-8.782l-6.227-6.061c-5.875-5.73-2.638-15.722 5.503-16.901l8.585-1.252a9.918 9.918 0 0 0 7.468-5.42l3.848-7.789c3.631-7.375 14.139-7.375 17.77 0l3.848 7.789a9.92 9.92 0 0 0 7.468 5.42zM96.075 418.909H18.121c-17.377 0-24.752 22.125-10.85 32.551l18.66 13.995-18.66 13.995C-6.631 489.875.744 512 18.121 512h132.508c-9.838-27.201-29.564-59.773-54.554-93.091z" opacity="1" data-original="#fd8087" class=""></path><path fill="#fe646f" d="M135.788 418.909H96.075c7.172 37.001 26.897 69.573 54.555 93.091H256z" opacity="1" data-original="#fe646f"></path><path fill="#def1ff" d="M290.864 268.72c-137.954 9.509-138.816 214.33 0 238.323 19.308-5.644 36.684-15.857 50.863-29.4l7.103-35.453 27.794-24.927c4.55-18.757 4.771-39.091-.002-58.762l-31.929-23.721-2.965-36.661c-14.171-13.54-31.543-23.755-50.864-29.399z" opacity="1" data-original="#def1ff"></path><path fill="#cceaff" d="M238.723 300.891c3.639-15.68-4.962-30.292-17.59-32.177-19.312 5.645-36.687 15.859-50.864 29.402l-7.447 41.231-27.449 19.152c-4.541 18.719-4.781 39.052.003 58.762l26.974 25.316 7.921 35.065c14.172 13.541 31.544 23.759 50.861 29.405 18.628-2.743 27.827-14.632 21.134-34.227-22.628-54.179-27.804-119.354-3.543-171.929zM270.827 379.321a7.758 7.758 0 0 1 2.838-10.598l58.459-33.768c3.708-2.144 8.454-.873 10.597 2.838s.872 8.456-2.838 10.598l-58.459 33.768a7.756 7.756 0 0 1-10.597-2.838zM255.999 368.119a7.758 7.758 0 0 1-7.758-7.758v-62.24a7.759 7.759 0 0 1 15.516 0v62.24a7.759 7.759 0 0 1-7.758 7.758z" opacity="1" data-original="#cceaff"></path><path fill="#b8e2ff" d="m230.573 382.159-58.459-33.768a7.758 7.758 0 0 1 7.759-13.436l58.459 33.768a7.758 7.758 0 0 1-7.759 13.436zM169.276 437.965a7.758 7.758 0 0 1 2.838-10.598l58.459-33.768a7.756 7.756 0 0 1 10.597 2.838 7.758 7.758 0 0 1-2.838 10.598l-58.459 33.768a7.757 7.757 0 0 1-10.597-2.838z" opacity="1" data-original="#b8e2ff"></path><path fill="#cceaff" d="M255.999 484.983a7.758 7.758 0 0 1-7.758-7.758v-61.416a7.758 7.758 0 0 1 15.516 0v61.416a7.759 7.759 0 0 1-7.758 7.758zM330.762 440.016l-55.734-32.194a7.758 7.758 0 0 1 7.759-13.436l55.734 32.194a7.758 7.758 0 0 1-7.759 13.436z" opacity="1" data-original="#cceaff"></path><path fill="#3e4f61" d="m189.315 437.11-.01 18.817a18.58 18.58 0 0 1-9.288 16.096l-9.743 5.617c-16.88-16.117-29.21-36.951-34.888-60.381l9.764-5.638a18.565 18.565 0 0 1 18.577 0l16.291 9.403a18.597 18.597 0 0 1 9.297 16.086zM189.305 319.834l.01 18.817a18.594 18.594 0 0 1-9.299 16.086l-16.291 9.403a18.565 18.565 0 0 1-18.577 0l-9.764-5.638c5.679-23.43 18.008-44.264 34.888-60.381l9.743 5.617a18.58 18.58 0 0 1 9.29 16.096z" opacity="1" data-original="#3e4f61"></path><path fill="#485c70" d="m366.849 411.621 9.764 5.638c-5.679 23.43-18.008 44.264-34.888 60.381l-9.743-5.617a18.58 18.58 0 0 1-9.288-16.096l-.01-18.817a18.594 18.594 0 0 1 9.299-16.086l16.291-9.403a18.561 18.561 0 0 1 18.575 0zM376.613 358.502l-9.764 5.638a18.565 18.565 0 0 1-18.577 0l-16.291-9.403a18.595 18.595 0 0 1-9.299-16.086l.01-18.817a18.58 18.58 0 0 1 9.288-16.096l9.743-5.617c16.882 16.117 29.212 36.951 34.89 60.381zM290.866 495.753a18.576 18.576 0 0 0-9.288-16.086l-16.291-9.414a18.618 18.618 0 0 0-18.577 0l-4.435 2.563c.735 14.762 4.751 28.276 20.327 39.005 9.765-.513 19.232-2.136 28.265-4.772v-11.296z" opacity="1" data-original="#485c70"></path><path fill="#3e4f61" d="M230.42 479.667a18.576 18.576 0 0 0-9.288 16.086v11.296c13.37 3.903 27.204 5.522 41.47 4.772-7.675-12.052-14.517-25.093-20.327-39.005z" opacity="1" data-original="#3e4f61"></path><path fill="#485c70" d="m265.287 305.507 16.291-9.414a18.575 18.575 0 0 0 9.288-16.086v-11.296a123.927 123.927 0 0 0-27.276-4.719c-15.757 5.988-24.875 17.839-24.867 36.9l7.987 4.615a18.618 18.618 0 0 0 18.577 0z" opacity="1" data-original="#485c70"></path><path fill="#3e4f61" d="M221.131 268.711v11.296a18.576 18.576 0 0 0 9.288 16.086l8.304 4.799c6.449-13.979 14.781-26.448 24.867-36.9-14.895-.901-29.098.82-42.459 4.719z" opacity="1" data-original="#3e4f61"></path><path fill="#485c70" d="M290.866 378.477v18.806a18.585 18.585 0 0 1-9.288 16.096l-16.291 9.403a18.553 18.553 0 0 1-18.577 0l-16.291-9.403a18.584 18.584 0 0 1-9.288-16.096v-18.806a18.585 18.585 0 0 1 9.288-16.096l16.291-9.403a18.553 18.553 0 0 1 18.577 0l16.291 9.403a18.584 18.584 0 0 1 9.288 16.096z" opacity="1" data-original="#485c70"></path></g></svg>