<svg xmlns="http://www.w3.org/2000/svg" width="32" height="32" viewBox="0 0 60 60" xml:space="preserve"><path fill="#f5f2c7" d="M49 13v10L26 53H5a4 4 0 0 1-4-4V13l1-1h46z" data-original="#bfdbf0"/><path fill="#cd4c60" d="M49 9v4H1V9a4 4 0 0 1 4-4h40a4 4 0 0 1 4 4" data-original="#cd4c60"/><rect width="4" height="8" x="8" y="1" fill="#f5f2c7" rx="2" data-original="#bfdbf0"/><rect width="4" height="8" x="18" y="1" fill="#f5f2c7" rx="2" data-original="#bfdbf0"/><rect width="4" height="8" x="28" y="1" fill="#f5f2c7" rx="2" data-original="#bfdbf0"/><rect width="4" height="8" x="38" y="1" fill="#f5f2c7" rx="2" data-original="#bfdbf0"/><circle cx="39" cy="39" r="20" fill="#efefef" data-original="#dae8f7"/><g fill="#4f4f60"><path d="m44.009 45.894 2.537-9.346L39 31.413l-7.546 5.135 2.537 9.346zM46.14 20.32 39 24.52l-7.14-4.2a19.97 19.97 0 0 1 14.28 0m-20.91 14.2-6.2 5.49c-.02-.34-.03-.67-.03-1.01a19.87 19.87 0 0 1 4.44-12.56zm8.57 23.79a19.92 19.92 0 0 1-11.55-8.39l8.24.8zm21.95-8.39a19.92 19.92 0 0 1-11.55 8.39l3.31-7.59zM59 39c0 .34-.01.67-.03 1.01l-6.2-5.49 1.79-8.08A19.87 19.87 0 0 1 59 39" data-original="#4f4f60"/><path d="M38 22.931h2V33h-2zM23.547 35.045l.618-1.902 8.979 2.917-.618 1.902zm4.762 16.973 6.26-8.615 1.618 1.176-6.261 8.614zm13.889-6.921 1.617-1.175 5.519 7.592-1.618 1.176zm2.667-9.083 8.98-2.918.617 1.902-8.98 2.918z" data-original="#4f4f60"/></g></svg>